  0
SECTION
  2
HEADER
  9
$ACADVER
  1
AC1015
  9
$ACADMAINTVER
 70
     6
  9
$DWGCODEPAGE
  3
ANSI_1252
  9
$INSBASE
 10
0.0
 20
0.0
 30
0.0
  9
$EXTMIN
 10
-123.3817535564
 20
-49.3745538968
 30
0.0
  9
$EXTMAX
 10
123.3817535564
 20
129.7502499972
 30
0.0
  9
$LIMMIN
 10
0.0
 20
0.0
  9
$LIMMAX
 10
420.0
 20
297.0
  9
$ORTHOMODE
 70
     0
  9
$REGENMODE
 70
     1
  9
$FILLMODE
 70
     1
  9
$QTEXTMODE
 70
     0
  9
$MIRRTEXT
 70
     1
  9
$LTSCALE
 40
1.0
  9
$ATTMODE
 70
     1
  9
$TEXTSIZE
 40
3.5
  9
$TRACEWID
 40
1.0
  9
$TEXTSTYLE
  7
Standard
  9
$CLAYER
  8
0
  9
$CELTYPE
  6
ByLayer
  9
$CECOLOR
 62
   256
  9
$CELTSCALE
 40
1.0
  9
$DISPSILH
 70
     0
  9
$DIMSCALE
 40
1.0
  9
$DIMASZ
 40
3.302
  9
$DIMEXO
 40
1.0
  9
$DIMDLI
 40
3.75
  9
$DIMRND
 40
0.0
  9
$DIMDLE
 40
0.0
  9
$DIMEXE
 40
1.0
  9
$DIMTP
 40
0.0
  9
$DIMTM
 40
0.0
  9
$DIMTXT
 40
3.5
  9
$DIMCEN
 40
2.5
  9
$DIMTSZ
 40
0.0
  9
$DIMTOL
 70
     0
  9
$DIMLIM
 70
     0
  9
$DIMTIH
 70
     1
  9
$DIMTOH
 70
     1
  9
$DIMSE1
 70
     0
  9
$DIMSE2
 70
     0
  9
$DIMTAD
 70
     1
  9
$DIMZIN
 70
     1
  9
$DIMBLK
  1

  9
$DIMASO
 70
     1
  9
$DIMSHO
 70
     1
  9
$DIMPOST
  1

  9
$DIMAPOST
  1

  9
$DIMALT
 70
     0
  9
$DIMALTD
 70
     3
  9
$DIMALTF
 40
0.0393700787
  9
$DIMLFAC
 40
1.0
  9
$DIMTOFL
 70
     1
  9
$DIMTVP
 40
0.0
  9
$DIMTIX
 70
     0
  9
$DIMSOXD
 70
     0
  9
$DIMSAH
 70
     0
  9
$DIMBLK1
  1

  9
$DIMBLK2
  1

  9
$DIMSTYLE
  2
ISO-25
  9
$DIMCLRD
 70
     0
  9
$DIMCLRE
 70
     0
  9
$DIMCLRT
 70
     0
  9
$DIMTFAC
 40
1.0
  9
$DIMGAP
 40
1.524
  9
$DIMJUST
 70
     0
  9
$DIMSD1
 70
     0
  9
$DIMSD2
 70
     0
  9
$DIMTOLJ
 70
     0
  9
$DIMTZIN
 70
     1
  9
$DIMALTZ
 70
     0
  9
$DIMALTTZ
 70
     0
  9
$DIMUPT
 70
     0
  9
$DIMDEC
 70
     2
  9
$DIMTDEC
 70
     2
  9
$DIMALTU
 70
     2
  9
$DIMALTTD
 70
     3
  9
$DIMTXSTY
  7
Standard
  9
$DIMAUNIT
 70
     0
  9
$DIMADEC
 70
     2
  9
$DIMALTRND
 40
0.0
  9
$DIMAZIN
 70
     0
  9
$DIMDSEP
 70
    44
  9
$DIMATFIT
 70
     3
  9
$DIMFRAC
 70
     0
  9
$DIMLDRBLK
  1

  9
$DIMLUNIT
 70
     2
  9
$DIMLWD
 70
    -2
  9
$DIMLWE
 70
    -2
  9
$DIMTMOVE
 70
     0
  9
$LUNITS
 70
     2
  9
$LUPREC
 70
     2
  9
$SKETCHINC
 40
1.0
  9
$FILLETRAD
 40
10.0
  9
$AUNITS
 70
     0
  9
$AUPREC
 70
     2
  9
$MENU
  1
.
  9
$ELEVATION
 40
0.0
  9
$PELEVATION
 40
0.0
  9
$THICKNESS
 40
0.0
  9
$LIMCHECK
 70
     0
  9
$CHAMFERA
 40
0.0
  9
$CHAMFERB
 40
0.0
  9
$CHAMFERC
 40
0.0
  9
$CHAMFERD
 40
0.0
  9
$SKPOLY
 70
     0
  9
$TDCREATE
 40
2459028.459811817
  9
$TDUCREATE
 40
2459028.751478484
  9
$TDUPDATE
 40
2459028.459836968
  9
$TDUUPDATE
 40
2459028.751503634
  9
$TDINDWG
 40
0.0000000116
  9
$TDUSRTIMER
 40
0.0000000116
  9
$USRTIMER
 70
     1
  9
$ANGBASE
 50
0.0
  9
$ANGDIR
 70
     0
  9
$PDMODE
 70
     0
  9
$PDSIZE
 40
-1.0
  9
$PLINEWID
 40
0.0
  9
$SPLFRAME
 70
     0
  9
$SPLINETYPE
 70
     6
  9
$SPLINESEGS
 70
     8
  9
$HANDSEED
  5
AB
  9
$SURFTAB1
 70
     6
  9
$SURFTAB2
 70
     6
  9
$SURFTYPE
 70
     6
  9
$SURFU
 70
     6
  9
$SURFV
 70
     6
  9
$UCSBASE
  2

  9
$UCSNAME
  2

  9
$UCSORG
 10
0.0
 20
0.0
 30
0.0
  9
$UCSXDIR
 10
1.0
 20
0.0
 30
0.0
  9
$UCSYDIR
 10
0.0
 20
1.0
 30
0.0
  9
$UCSORTHOREF
  2

  9
$UCSORTHOVIEW
 70
     0
  9
$UCSORGTOP
 10
0.0
 20
0.0
 30
0.0
  9
$UCSORGBOTTOM
 10
0.0
 20
0.0
 30
0.0
  9
$UCSORGLEFT
 10
0.0
 20
0.0
 30
0.0
  9
$UCSORGRIGHT
 10
0.0
 20
0.0
 30
0.0
  9
$UCSORGFRONT
 10
0.0
 20
0.0
 30
0.0
  9
$UCSORGBACK
 10
0.0
 20
0.0
 30
0.0
  9
$PUCSBASE
  2

  9
$PUCSNAME
  2

  9
$PUCSORG
 10
0.0
 20
0.0
 30
0.0
  9
$PUCSXDIR
 10
1.0
 20
0.0
 30
0.0
  9
$PUCSYDIR
 10
0.0
 20
1.0
 30
0.0
  9
$PUCSORTHOREF
  2

  9
$PUCSORTHOVIEW
 70
     0
  9
$PUCSORGTOP
 10
0.0
 20
0.0
 30
0.0
  9
$PUCSORGBOTTOM
 10
0.0
 20
0.0
 30
0.0
  9
$PUCSORGLEFT
 10
0.0
 20
0.0
 30
0.0
  9
$PUCSORGRIGHT
 10
0.0
 20
0.0
 30
0.0
  9
$PUCSORGFRONT
 10
0.0
 20
0.0
 30
0.0
  9
$PUCSORGBACK
 10
0.0
 20
0.0
 30
0.0
  9
$USERI1
 70
     0
  9
$USERI2
 70
     0
  9
$USERI3
 70
     0
  9
$USERI4
 70
     0
  9
$USERI5
 70
     0
  9
$USERR1
 40
0.0
  9
$USERR2
 40
0.0
  9
$USERR3
 40
0.0
  9
$USERR4
 40
0.0
  9
$USERR5
 40
0.0
  9
$WORLDVIEW
 70
     1
  9
$SHADEDGE
 70
     3
  9
$SHADEDIF
 70
    70
  9
$TILEMODE
 70
     1
  9
$MAXACTVP
 70
    64
  9
$PINSBASE
 10
0.0
 20
0.0
 30
0.0
  9
$PLIMCHECK
 70
     0
  9
$PEXTMIN
 10
1.0000000000E+20
 20
1.0000000000E+20
 30
1.0000000000E+20
  9
$PEXTMAX
 10
-1.0000000000E+20
 20
-1.0000000000E+20
 30
-1.0000000000E+20
  9
$PLIMMIN
 10
0.0
 20
0.0
  9
$PLIMMAX
 10
420.0
 20
297.0
  9
$UNITMODE
 70
     0
  9
$VISRETAIN
 70
     1
  9
$PLINEGEN
 70
     0
  9
$PSLTSCALE
 70
     1
  9
$TREEDEPTH
 70
  3020
  9
$CMLSTYLE
  2
Standard
  9
$CMLJUST
 70
     0
  9
$CMLSCALE
 40
20.0
  9
$PROXYGRAPHICS
 70
     1
  9
$MEASUREMENT
 70
     1
  9
$CELWEIGHT
370
    -1
  9
$ENDCAPS
280
     0
  9
$JOINSTYLE
280
     0
  9
$LWDISPLAY
290
     1
  9
$INSUNITS
 70
     4
  9
$HYPERLINKBASE
  1

  9
$STYLESHEET
  1

  9
$XEDIT
290
     1
  9
$CEPSNTYPE
380
     0
  9
$PSTYLEMODE
290
     1
  9
$FINGERPRINTGUID
  2
{f1fd7e05-f9ab-4a0a-970d-5f26e760dce3}
  9
$VERSIONGUID
  2
{FAEB1C32-E019-11D5-929B-00C0DF256EC4}
  9
$EXTNAMES
290
     1
  9
$PSVPSCALE
 40
0.0
  9
$OLESTARTUP
290
     0
  0
ENDSEC
  0
SECTION
  2
CLASSES
  0
CLASS
  1
ACDBDICTIONARYWDFLT
  2
AcDbDictionaryWithDefault
  3
ObjectDBX Classes
 90
        0
280
     0
281
     0
  0
CLASS
  1
VISUALSTYLE
  2
AcDbVisualStyle
  3
ObjectDBX Classes
 90
     4095
280
     0
281
     0
  0
CLASS
  1
MATERIAL
  2
AcDbMaterial
  3
ObjectDBX Classes
 90
     1153
280
     0
281
     0
  0
CLASS
  1
SCALE
  2
AcDbScale
  3
ObjectDBX Classes
 90
     1153
280
     0
281
     0
  0
CLASS
  1
TABLESTYLE
  2
AcDbTableStyle
  3
ObjectDBX Classes
 90
     4095
280
     0
281
     0
  0
CLASS
  1
MLEADERSTYLE
  2
AcDbMLeaderStyle
  3
ACDB_MLEADERSTYLE_CLASS
 90
     4095
280
     0
281
     0
  0
CLASS
  1
SUN
  2
AcDbSun
  3
SCENEOE
 90
     1153
280
     0
281
     0
  0
CLASS
  1
ACDBPLACEHOLDER
  2
AcDbPlaceHolder
  3
ObjectDBX Classes
 90
        0
280
     0
281
     0
  0
CLASS
  1
LAYOUT
  2
AcDbLayout
  3
ObjectDBX Classes
 90
        0
280
     0
281
     0
  0
ENDSEC
  0
SECTION
  2
TABLES
  0
TABLE
  2
VPORT
  5
8
330
0
100
AcDbSymbolTable
 70
     1
  0
VPORT
  5
29
330
8
100
AcDbSymbolTableRecord
100
AcDbViewportTableRecord
  2
*Active
 70
     0
 10
0.0
 20
0.0
 11
1.0
 21
1.0
 12
0.0
 22
40.1878480502
 13
0.0
 23
0.0
 14
10.0
 24
10.0
 15
10.0
 25
10.0
 16
0.0
 26
0.0
 36
1.0
 17
0.0
 27
0.0
 37
0.0
 40
182.7072999719
 41
1.3776065723
 42
50.0
 43
0.0
 44
0.0
 50
0.0
 51
0.0
 71
     0
 72
   100
 73
     1
 74
     3
 75
     0
 76
     0
 77
     0
 78
     0
281
     0
 65
     1
110
0.0
120
0.0
130
0.0
111
1.0
121
0.0
131
0.0
112
0.0
122
1.0
132
0.0
 79
     0
146
0.0
  0
ENDTAB
  0
TABLE
  2
LTYPE
  5
5
330
0
100
AcDbSymbolTable
 70
     6
  0
LTYPE
  5
14
330
5
100
AcDbSymbolTableRecord
100
AcDbLinetypeTableRecord
  2
ByBlock
 70
     0
  3

 72
    65
 73
     0
 40
0.0
  0
LTYPE
  5
15
330
5
100
AcDbSymbolTableRecord
100
AcDbLinetypeTableRecord
  2
ByLayer
 70
     0
  3

 72
    65
 73
     0
 40
0.0
  0
LTYPE
  5
16
330
5
100
AcDbSymbolTableRecord
100
AcDbLinetypeTableRecord
  2
Continuous
 70
     0
  3
Solid line
 72
    65
 73
     0
 40
0.0
  0
LTYPE
  5
6E
330
5
100
AcDbSymbolTableRecord
100
AcDbLinetypeTableRecord
  2
HIDDEN
 70
     0
  3
Hidden __ __ __ __ __ __ __ __ __ __ __ __ __ __
 72
    65
 73
     2
 40
1.905
 49
1.27
 74
     0
 49
-0.635
 74
     0
  0
LTYPE
  5
6F
330
5
100
AcDbSymbolTableRecord
100
AcDbLinetypeTableRecord
  2
PHANTOM
 70
     0
  3
Phantom ______  __  __  ______  __  __  ______
 72
    65
 73
     6
 40
12.7
 49
6.35
 74
     0
 49
-1.27
 74
     0
 49
1.27
 74
     0
 49
-1.27
 74
     0
 49
1.27
 74
     0
 49
-1.27
 74
     0
  0
LTYPE
  5
70
330
5
100
AcDbSymbolTableRecord
100
AcDbLinetypeTableRecord
  2
CENTER
 70
     0
  3
Center ____ _ ____ _ ____ _ ____ _ ____ _ ____
 72
    65
 73
     4
 40
10.16
 49
6.35
 74
     0
 49
-1.27
 74
     0
 49
1.27
 74
     0
 49
-1.27
 74
     0
  0
LTYPE
  5
71
330
5
100
AcDbSymbolTableRecord
100
AcDbLinetypeTableRecord
  2
CENTERX2
 70
     0
  3
Center (2x) ________  __  ________  __  _____
 72
    65
 73
     4
 40
20.32
 49
12.7
 74
     0
 49
-2.54
 74
     0
 49
2.54
 74
     0
 49
-2.54
 74
     0
  0
LTYPE
  5
72
330
5
100
AcDbSymbolTableRecord
100
AcDbLinetypeTableRecord
  2
DOT2
 70
     0
  3
Dot (.5x) ........................................
 72
    65
 73
     2
 40
0.635
 49
0.0
 74
     0
 49
-0.635
 74
     0
  0
ENDTAB
  0
TABLE
  2
LAYER
  5
2
330
0
100
AcDbSymbolTable
 70
     1
  0
LAYER
  5
10
330
2
100
AcDbSymbolTableRecord
100
AcDbLayerTableRecord
  2
0
 70
     0
 62
     7
  6
Continuous
370
    -3
390
F
  0
ENDTAB
  0
TABLE
  2
STYLE
  5
3
330
0
100
AcDbSymbolTable
 70
     2
  0
STYLE
  5
11
330
3
100
AcDbSymbolTableRecord
100
AcDbTextStyleTableRecord
  2
Standard
 70
     0
 40
0.0
 41
1.0
 50
0.0
 71
     0
 42
3.5
  3
txt
  4

  0
STYLE
  5
A8
330
3
100
AcDbSymbolTableRecord
100
AcDbTextStyleTableRecord
  2
SLDTEXTSTYLE0
 70
     0
 40
0.0
 41
0.7
 50
0.0
 71
     0
 42
3.5
  3
TXT
  4

  0
ENDTAB
  0
TABLE
  2
VIEW
  5
6
330
0
100
AcDbSymbolTable
 70
     0
  0
ENDTAB
  0
TABLE
  2
UCS
  5
7
330
0
100
AcDbSymbolTable
 70
     0
  0
ENDTAB
  0
TABLE
  2
APPID
  5
9
330
0
100
AcDbSymbolTable
 70
     1
  0
APPID
  5
12
330
9
100
AcDbSymbolTableRecord
100
AcDbRegAppTableRecord
  2
ACAD
 70
     0
  0
ENDTAB
  0
TABLE
  2
DIMSTYLE
  5
A
330
0
100
AcDbSymbolTable
 70
     1
100
AcDbDimStyleTable
  0
DIMSTYLE
105
27
330
A
100
AcDbSymbolTableRecord
100
AcDbDimStyleTableRecord
  2
ISO-25
 70
     0
 41
2.5
 42
0.625
 43
3.75
 44
1.25
 73
     0
 74
     0
 77
     1
 78
     8
140
2.5
141
2.5
143
0.0393700787
147
0.625
171
     3
172
     1
178
     0
271
     2
272
     2
274
     3
278
    44
283
     0
284
     8
340
11
  0
ENDTAB
  0
TABLE
  2
BLOCK_RECORD
  5
1
330
0
100
AcDbSymbolTable
 70
     1
  0
BLOCK_RECORD
  5
1F
330
1
100
AcDbSymbolTableRecord
100
AcDbBlockTableRecord
  2
*Model_Space
340
22
  0
BLOCK_RECORD
  5
1B
330
1
100
AcDbSymbolTableRecord
100
AcDbBlockTableRecord
  2
*Paper_Space
340
1E
  0
BLOCK_RECORD
  5
23
330
1
100
AcDbSymbolTableRecord
100
AcDbBlockTableRecord
  2
*Paper_Space0
340
26
  0
ENDTAB
  0
ENDSEC
  0
SECTION
  2
BLOCKS
  0
BLOCK
  5
20
330
1F
100
AcDbEntity
  8
0
100
AcDbBlockBegin
  2
*Model_Space
 70
     0
 10
0.0
 20
0.0
 30
0.0
  3
*Model_Space
  1

  0
ENDBLK
  5
21
330
1F
100
AcDbEntity
  8
0
100
AcDbBlockEnd
  0
BLOCK
  5
1C
330
1B
100
AcDbEntity
 67
     1
  8
0
100
AcDbBlockBegin
  2
*Paper_Space
 70
     0
 10
0.0
 20
0.0
 30
0.0
  3
*Paper_Space
  1

  0
ENDBLK
  5
1D
330
1B
100
AcDbEntity
 67
     1
  8
0
100
AcDbBlockEnd
  0
BLOCK
  5
24
330
23
100
AcDbEntity
  8
0
100
AcDbBlockBegin
  2
*Paper_Space0
 70
     0
 10
0.0
 20
0.0
 30
0.0
  3
*Paper_Space0
  1

  0
ENDBLK
  5
25
330
23
100
AcDbEntity
  8
0
100
AcDbBlockEnd
  0
ENDSEC
  0
SECTION
  2
ENTITIES
  0
SPLINE
  5
73
330
1F
100
AcDbEntity
  8
0
  6
Continuous
 62
     7
370
    25
100
AcDbSpline
210
0.0
220
0.0
230
1.0
 70
     8
 71
     3
 72
    30
 73
    26
 74
     0
 42
0.000000001
 43
0.00000001
 40
0.0
 40
0.0
 40
0.0
 40
0.0
 40
0.015625
 40
0.03125
 40
0.046875
 40
0.0625
 40
0.09375
 40
0.125
 40
0.15625
 40
0.1875
 40
0.25
 40
0.3125
 40
0.375
 40
0.4375
 40
0.5
 40
0.625
 40
0.6875
 40
0.75
 40
0.8125
 40
0.875
 40
0.90625
 40
0.9375
 40
0.96875
 40
0.984375
 40
1.0
 40
1.0
 40
1.0
 40
1.0
 10
25.0
 20
97.5
 30
0.0
 10
26.18959576586491
 20
97.5
 30
0.0
 10
28.59799749749572
 20
97.47290402491399
 30
0.0
 10
32.03397776814769
 20
97.35340468669762
 30
0.0
 10
35.36453492001824
 20
97.15751428931291
 30
0.0
 10
39.63999599378537
 20
96.79781098575761
 30
0.0
 10
44.68685431201494
 20
96.16979212910921
 30
0.0
 10
50.26636275226156
 20
95.15159214341261
 30
0.0
 10
55.37328847287468
 20
93.89048204097594
 30
0.0
 10
61.5572749722893
 20
91.91529389277729
 30
0.0
 10
68.12608011942635
 20
88.95403465791632
 30
0.0
 10
74.20820960576157
 20
84.81043940857239
 30
0.0
 10
78.59292488292479
 20
80.27266435175382
 30
0.0
 10
81.438994987357
 20
75.48747451199077
 30
0.0
 10
83.4041045671442
 20
68.85022191935076
 30
0.0
 10
82.83169020957153
 20
61.72071728453015
 30
0.0
 10
79.5439342512061
 20
54.2127395478478
 30
0.0
 10
75.653544169947
 20
48.55217616109569
 30
0.0
 10
70.31943722519583
 20
43.0232365076206
 30
0.0
 10
64.67340040451303
 20
38.66878571448527
 30
0.0
 10
59.44456538075558
 20
35.41893391913052
 30
0.0
 10
55.17167728866082
 20
33.1189179331898
 30
0.0
 10
51.31539701440009
 20
31.33102828000511
 30
0.0
 10
48.06736490021003
 20
29.99217425416293
 30
0.0
 10
46.36799144154999
 20
29.34705403286868
 30
0.0
 10
45.52125169908981
 20
29.03886597044295
 30
0.0
  0
LINE
  5
74
330
1F
100
AcDbEntity
  8
0
  6
Continuous
 62
     7
370
    25
100
AcDbLine
 10
45.5212516991
 20
29.0388659704
 30
0.0
 11
35.1037280517
 21
25.2471974308
 31
0.0
  0
SPLINE
  5
75
330
1F
100
AcDbEntity
  8
0
  6
Continuous
 62
     7
370
    25
100
AcDbSpline
210
0.0
220
0.0
230
1.0
 70
     8
 71
     3
 72
    12
 73
     8
 74
     0
 42
0.000000001
 43
0.00000001
 40
0.8247783084578815
 40
0.8247783084578815
 40
0.8247783084578815
 40
0.8247783084578815
 40
0.828125
 40
0.84375
 40
0.859375
 40
0.875
 40
0.8762122937132536
 40
0.8762122937132536
 40
0.8762122937132536
 40
0.8762122937132536
 10
35.10372805165746
 20
25.24719743075417
 30
0.0
 10
34.90276597076004
 20
25.50507024858751
 30
0.0
 10
33.74588516293237
 20
26.97654183943436
 30
0.0
 10
31.46384066310309
 20
29.73949782796371
 30
0.0
 10
28.0523646335085
 20
33.51498596669695
 30
0.0
 10
25.53678251564266
 20
36.02479584846265
 30
0.0
 10
24.16987233538725
 20
37.28315811457995
 30
0.0
 10
24.07130254632395
 20
37.3734005261194
 30
0.0
  0
ARC
  5
76
330
1F
100
AcDbEntity
  8
0
  6
Continuous
 62
     7
370
    25
100
AcDbCircle
 10
27.4476230311
 20
41.0612806738
 30
0.0
 40
5.000000000000021
100
AcDbArc
 50
137.5134173653
 51
227.5253377919
  0
LINE
  5
77
330
1F
100
AcDbEntity
  8
0
  6
Continuous
 62
     7
370
    25
100
AcDbLine
 10
23.760445409
 20
44.4383683516
 30
0.0
 11
24.7499003619
 21
45.518676744
 31
0.0
  0
ARC
  5
78
330
1F
100
AcDbEntity
  8
0
  6
Continuous
 62
     7
370
    25
100
AcDbCircle
 10
21.0627227398
 20
48.8957644217
 30
0.0
 40
5.000000000000001
100
AcDbArc
 50
317.5134173653
 51
100.6435197194
  0
LINE
  5
79
330
1F
100
AcDbEntity
  8
0
  6
Continuous
 62
     7
370
    25
100
AcDbLine
 10
20.1392332488
 20
53.8097411372
 30
0.0
 11
14.0683937481
 21
52.6688410266
 31
0.0
  0
SPLINE
  5
7A
330
1F
100
AcDbEntity
  8
0
  6
Continuous
 62
     7
370
    25
100
AcDbSpline
210
0.0
220
0.0
230
1.0
 70
     8
 71
     3
 72
    22
 73
    18
 74
     0
 42
0.000000001
 43
0.00000001
 40
0.966873336638332
 40
0.966873336638332
 40
0.966873336638332
 40
0.966873336638332
 40
0.96875
 40
0.97265625
 40
0.9765625
 40
0.984375
 40
0.9921875
 40
0.99609375
 40
1.0
 40
1.00390625
 40
1.0078125
 40
1.015625
 40
1.0234375
 40
1.02734375
 40
1.029296875
 40
1.03125
 40
1.03368998484624
 40
1.03368998484624
 40
1.03368998484624
 40
1.03368998484624
 10
14.0683937480991
 20
52.66884102657539
 30
0.0
 10
13.95821555091235
 20
52.9556925275939
 30
0.0
 10
13.57965290376881
 20
53.87260079972256
 30
0.0
 10
12.67465549037497
 20
55.6086971305687
 30
0.0
 10
10.78930317228517
 20
58.13313163188306
 30
0.0
 10
7.758530396774368
 20
60.61244252670487
 30
0.0
 10
4.497178162175094
 20
61.9050604526294
 30
0.0
 10
2.016730666108634
 20
62.38889078098107
 30
0.0
 10
0.2734693581806765
 20
62.52651438839893
 30
0.0
 10
-1.495200488663485
 20
62.48330154196612
 30
0.0
 10
-4.07215724104869
 20
62.11231912174343
 30
0.0
 10
-7.548392550890852
 20
60.86803963203354
 30
0.0
 10
-10.68581038920453
 20
58.32927439518175
 30
0.0
 10
-12.31940922045139
 20
56.1350442614738
 30
0.0
 10
-13.08914137419793
 20
54.82209866872314
 30
0.0
 10
-13.62905141466448
 20
53.72301055761621
 30
0.0
 10
-13.9106376160166
 20
53.03156090165603
 30
0.0
 10
-14.04767023281634
 20
52.6649464515512
 30
0.0
  0
LINE
  5
7B
330
1F
100
AcDbEntity
  8
0
  6
Continuous
 62
     7
370
    25
100
AcDbLine
 10
-14.0476702328
 20
52.6649464516
 30
0.0
 11
-20.1392332488
 21
53.8097411372
 31
0.0
  0
ARC
  5
7C
330
1F
100
AcDbEntity
  8
0
  6
Continuous
 62
     7
370
    25
100
AcDbCircle
 10
-21.0627227398
 20
48.8957644217
 30
0.0
 40
5.000000000000001
100
AcDbArc
 50
79.3564802806
 51
222.4865826347
  0
LINE
  5
7D
330
1F
100
AcDbEntity
  8
0
  6
Continuous
 62
     7
370
    25
100
AcDbLine
 10
-24.7499003619
 20
45.518676744
 30
0.0
 11
-23.7631120929
 21
44.4412798949
 31
0.0
  0
ARC
  5
7E
330
1F
100
AcDbEntity
  8
0
  6
Continuous
 62
     7
370
    25
100
AcDbCircle
 10
-27.450289715
 20
41.0641922172
 30
0.0
 40
4.999999999999998
100
AcDbArc
 50
312.2974114659
 51
42.4865826347
  0
SPLINE
  5
7F
330
1F
100
AcDbEntity
  8
0
  6
Continuous
 62
     7
370
    25
100
AcDbSpline
210
0.0
220
0.0
230
1.0
 70
     8
 71
     3
 72
    12
 73
     8
 74
     0
 42
0.000000001
 43
0.00000001
 40
0.123973514675834
 40
0.123973514675834
 40
0.123973514675834
 40
0.123973514675834
 40
0.125
 40
0.140625
 40
0.15625
 40
0.171875
 40
0.1751641525006062
 40
0.1751641525006062
 40
0.1751641525006062
 40
0.1751641525006062
 10
-24.08539422780293
 20
37.365884717748
 30
0.0
 10
-24.16909797444361
 20
37.28972708094278
 30
0.0
 10
-25.52488346775034
 20
36.05013652115198
 30
0.0
 10
-28.03374396382474
 20
33.5592130967291
 30
0.0
 10
-31.46082337753875
 20
29.77143876921381
 30
0.0
 10
-33.75176715028573
 20
26.9906263105338
 30
0.0
 10
-34.91235206868351
 20
25.50651056713207
 30
0.0
 10
-35.11116949252095
 20
25.24990591013384
 30
0.0
  0
LINE
  5
80
330
1F
100
AcDbEntity
  8
0
  6
Continuous
 62
     7
370
    25
100
AcDbLine
 10
-35.1111694925
 20
25.2499059101
 30
0.0
 11
-45.5212516991
 21
29.0388659704
 31
0.0
  0
SPLINE
  5
81
330
1F
100
AcDbEntity
  8
0
  6
Continuous
 62
     7
370
    25
100
AcDbSpline
210
0.0
220
0.0
230
1.0
 70
     8
 71
     3
 72
    30
 73
    26
 74
     0
 42
0.000000001
 43
0.00000001
 40
0.0
 40
0.0
 40
0.0
 40
0.0
 40
0.015625
 40
0.03125
 40
0.0625
 40
0.09375
 40
0.125
 40
0.1875
 40
0.25
 40
0.3125
 40
0.375
 40
0.5
 40
0.5625
 40
0.625
 40
0.6875
 40
0.75
 40
0.8125
 40
0.84375
 40
0.875
 40
0.90625
 40
0.9375
 40
0.953125
 40
0.96875
 40
0.984375
 40
1.0
 40
1.0
 40
1.0
 40
1.0
 10
-45.52125169908981
 20
29.03886597044295
 30
0.0
 10
-46.36799144155
 20
29.34705403286868
 30
0.0
 10
-48.06736490021006
 20
29.99217425416293
 30
0.0
 10
-51.31539701440009
 20
31.33102828000511
 30
0.0
 10
-55.17167728866083
 20
33.1189179331898
 30
0.0
 10
-59.44456538075558
 20
35.41893391913052
 30
0.0
 10
-64.67340040451303
 20
38.66878571448527
 30
0.0
 10
-70.31943722519583
 20
43.0232365076206
 30
0.0
 10
-75.653544169947
 20
48.55217616109569
 30
0.0
 10
-79.5439342512061
 20
54.2127395478478
 30
0.0
 10
-82.83169020957153
 20
61.72071728453015
 30
0.0
 10
-83.4041045671442
 20
68.85022191935076
 30
0.0
 10
-81.438994987357
 20
75.48747451199077
 30
0.0
 10
-78.59292488292479
 20
80.27266435175382
 30
0.0
 10
-74.20820960576157
 20
84.81043940857239
 30
0.0
 10
-68.12608011942635
 20
88.95403465791632
 30
0.0
 10
-61.5572749722893
 20
91.91529389277729
 30
0.0
 10
-55.37328847287468
 20
93.89048204097594
 30
0.0
 10
-50.26636275226156
 20
95.15159214341261
 30
0.0
 10
-44.68685431201494
 20
96.16979212910921
 30
0.0
 10
-39.63999599378537
 20
96.79781098575761
 30
0.0
 10
-35.36453492001824
 20
97.15751428931291
 30
0.0
 10
-32.03397776814769
 20
97.35340468669762
 30
0.0
 10
-28.59799749749572
 20
97.47290402491399
 30
0.0
 10
-26.18959576586491
 20
97.5
 30
0.0
 10
-25.0
 20
97.5
 30
0.0
  0
LINE
  5
82
330
1F
100
AcDbEntity
  8
0
  6
Continuous
 62
     7
370
    25
100
AcDbLine
 10
-25.0
 20
97.5
 30
0.0
 11
25.0
 21
97.5
 31
0.0
  0
ARC
  5
83
330
1F
100
AcDbEntity
  8
0
  6
Continuous
 62
     7
370
    25
100
AcDbCircle
 10
53.6619415641
 20
10.8262158011
 30
0.0
 40
10.00000000000012
100
AcDbArc
 50
118.1673737728
 51
193.1820688864
  0
SPLINE
  5
84
330
1F
100
AcDbEntity
  8
0
  6
Continuous
 62
     7
370
    25
100
AcDbSpline
210
0.0
220
0.0
230
1.0
 70
     8
 71
     3
 72
    28
 73
    24
 74
     0
 42
0.000000001
 43
0.00000001
 40
0.0
 40
0.0
 40
0.0
 40
0.0
 40
0.015625
 40
0.03125
 40
0.0625
 40
0.09375
 40
0.125
 40
0.1875
 40
0.25
 40
0.3125
 40
0.375
 40
0.4375
 40
0.5
 40
0.625
 40
0.6875
 40
0.75
 40
0.8125
 40
0.875
 40
0.90625
 40
0.9375
 40
0.96875
 40
0.984375
 40
1.0
 40
1.0
 40
1.0
 40
1.0
 10
48.9414531323465
 20
19.64193976258387
 30
0.0
 10
49.87490319176204
 20
19.98168779938514
 30
0.0
 10
51.7456016148714
 20
20.69183002902387
 30
0.0
 10
55.3423657389961
 20
22.17424339957452
 30
0.0
 10
59.63898584185798
 20
24.16565603879257
 30
0.0
 10
64.44841988683609
 20
26.75343143858903
 30
0.0
 10
70.40067840015293
 20
30.45140321365015
 30
0.0
 10
76.9615858675261
 20
35.50090975439133
 30
0.0
 10
83.38184601333992
 20
42.13498837158045
 30
0.0
 10
88.28684399535818
 20
49.24008352741441
 30
0.0
 10
91.58959230147765
 20
56.7096529147041
 30
0.0
 10
93.16879114449674
 20
64.4072886566296
 30
0.0
 10
92.80414321247777
 20
74.71139926682216
 30
0.0
 10
88.52586263377675
 20
84.46091337065964
 30
0.0
 10
80.59535416806114
 20
92.59376482666315
 30
0.0
 10
72.93346724782026
 20
97.77966973768773
 30
0.0
 10
63.59025186013693
 20
101.9680372988215
 30
0.0
 10
54.39871927717211
 20
104.5652922822157
 30
0.0
 10
46.18489766300933
 20
106.0622519737897
 30
0.0
 10
39.59223100744133
 20
106.8818276278015
 30
0.0
 10
33.72328306477551
 20
107.3010932040567
 30
0.0
 10
28.82387174642185
 20
107.4712336699537
 30
0.0
 10
26.2656625208079
 20
107.5
 30
0.0
 10
25.0
 20
107.5
 30
0.0
  0
LINE
  5
85
330
1F
100
AcDbEntity
  8
0
  6
Continuous
 62
     7
370
    25
100
AcDbLine
 10
25.0
 20
107.5
 30
0.0
 11
-25.0
 21
107.5
 31
0.0
  0
SPLINE
  5
86
330
1F
100
AcDbEntity
  8
0
  6
Continuous
 62
     7
370
    25
100
AcDbSpline
210
0.0
220
0.0
230
1.0
 70
     8
 71
     3
 72
    28
 73
    24
 74
     0
 42
0.000000001
 43
0.00000001
 40
0.0
 40
0.0
 40
0.0
 40
0.0
 40
0.015625
 40
0.03125
 40
0.0625
 40
0.09375
 40
0.125
 40
0.1875
 40
0.25
 40
0.3125
 40
0.375
 40
0.5
 40
0.5625
 40
0.625
 40
0.6875
 40
0.75
 40
0.8125
 40
0.875
 40
0.90625
 40
0.9375
 40
0.96875
 40
0.984375
 40
1.0
 40
1.0
 40
1.0
 40
1.0
 10
-25.0
 20
107.5
 30
0.0
 10
-26.2656625208079
 20
107.5
 30
0.0
 10
-28.82387174642185
 20
107.4712336699537
 30
0.0
 10
-33.72328306477551
 20
107.3010932040567
 30
0.0
 10
-39.59223100744133
 20
106.8818276278015
 30
0.0
 10
-46.18489766300933
 20
106.0622519737897
 30
0.0
 10
-54.39871927717211
 20
104.5652922822157
 30
0.0
 10
-63.59025186013693
 20
101.9680372988215
 30
0.0
 10
-72.93346724782026
 20
97.77966973768773
 30
0.0
 10
-80.59535416806114
 20
92.59376482666315
 30
0.0
 10
-88.52586263377675
 20
84.46091337065964
 30
0.0
 10
-92.80414321247774
 20
74.71139926682216
 30
0.0
 10
-93.16879114449677
 20
64.4072886566296
 30
0.0
 10
-91.58959230147765
 20
56.7096529147041
 30
0.0
 10
-88.28684399535818
 20
49.24008352741441
 30
0.0
 10
-83.38184601333992
 20
42.13498837158045
 30
0.0
 10
-76.9615858675261
 20
35.50090975439133
 30
0.0
 10
-70.40067840015293
 20
30.45140321365015
 30
0.0
 10
-64.44841988683609
 20
26.75343143858903
 30
0.0
 10
-59.63898584185799
 20
24.16565603879257
 30
0.0
 10
-55.34236573899609
 20
22.17424339957452
 30
0.0
 10
-51.74560161487141
 20
20.69183002902387
 30
0.0
 10
-49.87490319176206
 20
19.98168779938514
 30
0.0
 10
-48.94145313234652
 20
19.64193976258387
 30
0.0
  0
ARC
  5
87
330
1F
100
AcDbEntity
  8
0
  6
Continuous
 62
     7
370
    25
100
AcDbCircle
 10
-53.6318651099
 20
10.8101768875
 30
0.0
 40
10.00000000000001
100
AcDbArc
 50
346.6996663301
 51
62.0279234088
  0
SPLINE
  5
88
330
1F
100
AcDbEntity
  8
0
  6
Continuous
 62
     7
370
    25
100
AcDbSpline
210
0.0
220
0.0
230
1.0
 70
     8
 71
     3
 72
    13
 73
     9
 74
     0
 42
0.000000001
 43
0.00000001
 40
0.2408733594848017
 40
0.2408733594848017
 40
0.2408733594848017
 40
0.2408733594848017
 40
0.25
 40
0.265625
 40
0.28125
 40
0.296875
 40
0.3125
 40
0.3167253435507469
 40
0.3167253435507469
 40
0.3167253435507469
 40
0.3167253435507469
 10
-43.90008977954157
 20
8.509622841274533
 30
0.0
 10
-44.11567811933912
 20
7.597643707310635
 30
0.0
 10
-44.61066816082785
 20
5.078488552264684
 30
0.0
 10
-45.04515568199314
 20
0.7906013377029885
 30
0.0
 10
-45.13494686444484
 20
-4.677002278380757
 30
0.0
 10
-44.81102192526834
 20
-10.59007549568094
 30
0.0
 10
-44.21427168185585
 20
-15.22836352833072
 30
0.0
 10
-43.73121078111767
 20
-17.82988885052012
 30
0.0
 10
-43.62119357807266
 20
-18.38329802865392
 30
0.0
  0
ARC
  5
89
330
1F
100
AcDbEntity
  8
0
  6
Continuous
 62
     7
370
    25
100
AcDbCircle
 10
-53.4292590393
 20
-20.3331318441
 30
0.0
 40
9.999999999999984
100
AcDbArc
 50
295.0
 51
11.2437527906
  0
LINE
  5
8A
330
1F
100
AcDbEntity
  8
0
  6
Continuous
 62
     7
370
    25
100
AcDbLine
 10
-49.2030764219
 20
-29.3962097145
 30
0.0
 11
-50.8642470494
 21
-30.1708262996
 31
0.0
  0
SPLINE
  5
8B
330
1F
100
AcDbEntity
  8
0
  6
Continuous
 62
     7
370
    25
100
AcDbSpline
210
0.0
220
0.0
230
1.0
 70
     8
 71
     3
 72
    34
 73
    30
 74
     0
 42
0.000000001
 43
0.00000001
 40
0.0
 40
0.0
 40
0.0
 40
0.0
 40
0.0078125
 40
0.015625
 40
0.03125
 40
0.046875
 40
0.0625
 40
0.09375
 40
0.125
 40
0.15625
 40
0.1875
 40
0.25
 40
0.3125
 40
0.375
 40
0.4375
 40
0.5
 40
0.625
 40
0.6875
 40
0.75
 40
0.8125
 40
0.84375
 40
0.875
 40
0.90625
 40
0.9375
 40
0.953125
 40
0.96875
 40
0.984375
 40
0.9921875
 40
1.0
 40
1.0
 40
1.0
 40
1.0
 10
-50.86424704943649
 20
-30.17082629963075
 30
0.0
 10
-51.57601827065196
 20
-30.50273067093786
 30
0.0
 10
-53.02510231992018
 20
-31.15475044788288
 30
0.0
 10
-55.82536190497122
 20
-32.32077505528701
 30
0.0
 10
-59.23326572084257
 20
-33.56666511851698
 30
0.0
 10
-63.14396622028661
 20
-34.72392938386663
 30
0.0
 10
-68.12859053590758
 20
-35.84134412565638
 30
0.0
 10
-73.92301922954273
 20
-36.47682356661844
 30
0.0
 10
-80.19761407896868
 20
-36.14964976946587
 30
0.0
 10
-85.84311911633078
 20
-34.84891809724084
 30
0.0
 10
-92.62028400686083
 20
-31.92912383386272
 30
0.0
 10
-99.85615318879496
 20
-26.17429762040568
 30
0.0
 10
-106.6487759959523
 20
-16.12594634031509
 30
0.0
 10
-111.2971958982583
 20
-3.397512226645239
 30
0.0
 10
-113.5877002877661
 20
11.34137929397063
 30
0.0
 10
-113.3221423910161
 20
32.72208374992343
 30
0.0
 10
-107.9081831951806
 20
55.25771427806131
 30
0.0
 10
-97.2001573435192
 20
76.17622591431483
 30
0.0
 10
-86.51352177492544
 20
90.40222516349449
 30
0.0
 10
-75.37820815568291
 20
100.5185625985423
 30
0.0
 10
-65.10266363159867
 20
107.2744864788954
 30
0.0
 10
-56.69824048073205
 20
111.6001941631464
 30
0.0
 10
-47.5788556584193
 20
115.1100243196018
 30
0.0
 10
-39.3667713715011
 20
117.290044422728
 30
0.0
 10
-32.41833358961295
 20
118.5458962923491
 30
0.0
 10
-27.01637737787716
 20
119.2329210573292
 30
0.0
 10
-22.34925565511866
 20
119.5839246788542
 30
0.0
 10
-18.52542481964391
 20
119.7262180495967
 30
0.0
 10
-16.56576772499119
 20
119.750249997223
 30
0.0
 10
-15.59179716035532
 20
119.750249997223
 30
0.0
  0
LINE
  5
8C
330
1F
100
AcDbEntity
  8
0
  6
Continuous
 62
     7
370
    25
100
AcDbLine
 10
-15.5917971604
 20
119.7502499972
 30
0.0
 11
-15.5917971604
 21
129.7502499972
 31
0.0
  0
SPLINE
  5
8D
330
1F
100
AcDbEntity
  8
0
  6
Continuous
 62
     7
370
    25
100
AcDbSpline
210
0.0
220
0.0
230
1.0
 70
     8
 71
     3
 72
    35
 73
    31
 74
     0
 42
0.000000001
 43
0.00000001
 40
0.0
 40
0.0
 40
0.0
 40
0.0
 40
0.0078125
 40
0.015625
 40
0.03125
 40
0.046875
 40
0.0625
 40
0.09375
 40
0.125
 40
0.15625
 40
0.1875
 40
0.25
 40
0.3125
 40
0.375
 40
0.4375
 40
0.5
 40
0.5625
 40
0.625
 40
0.6875
 40
0.75
 40
0.8125
 40
0.84375
 40
0.875
 40
0.90625
 40
0.9375
 40
0.953125
 40
0.96875
 40
0.984375
 40
0.9921875
 40
1.0
 40
1.0
 40
1.0
 40
1.0
 10
-15.59179716035532
 20
129.750249997223
 30
0.0
 10
-16.64788579900695
 20
129.750249997223
 30
0.0
 10
-18.77099550824519
 20
129.7242217035978
 30
0.0
 10
-22.92785032489068
 20
129.5696302476751
 30
0.0
 10
-28.01741937706788
 20
129.1871133536097
 30
0.0
 10
-33.93452039333061
 20
128.4349100562343
 30
0.0
 10
-41.57569670519422
 20
127.0542661996827
 30
0.0
 10
-50.6557957674209
 20
124.6454567442668
 30
0.0
 10
-60.78948260580169
 20
120.7464328013692
 30
0.0
 10
-70.15218109623126
 20
115.9279075565227
 30
0.0
 10
-81.60123885818898
 20
108.4001762298386
 30
0.0
 10
-93.96785630294164
 20
97.15793733963646
 30
0.0
 10
-105.7341868171335
 20
81.48191713956734
 30
0.0
 10
-114.5053384064521
 20
64.33324307400889
 30
0.0
 10
-120.3646195361751
 20
46.38828230743297
 30
0.0
 10
-123.383441996636
 20
28.2978443069181
 30
0.0
 10
-123.611854550578
 20
10.69514219625819
 30
0.0
 10
-121.0677305861728
 20
-5.799647159453335
 30
0.0
 10
-115.7150520120799
 20
-20.56648211030316
 30
0.0
 10
-107.4376275130262
 20
-32.9396535696036
 30
0.0
 10
-97.97187905779118
 20
-40.52886285393321
 30
0.0
 10
-88.95037199523516
 20
-44.41242475540168
 30
0.0
 10
-81.54037334263992
 20
-46.11142080991718
 30
0.0
 10
-73.56491209310188
 20
-46.51421531411123
 30
0.0
 10
-66.499568244827
 20
-45.72775767752307
 30
0.0
 10
-60.61023243720831
 20
-44.4053947307377
 30
0.0
 10
-56.07742316597986
 20
-43.06249034692569
 30
0.0
 10
-52.19837894706138
 20
-41.64335140582179
 30
0.0
 10
-49.04628061602368
 20
-40.33051279038687
 30
0.0
 10
-47.43272049973967
 20
-39.60445837996984
 30
0.0
 10
-46.63806443202948
 20
-39.23390416999725
 30
0.0
  0
LINE
  5
8E
330
1F
100
AcDbEntity
  8
0
  6
Continuous
 62
     7
370
    25
100
AcDbLine
 10
-46.638064432
 20
-39.23390417
 30
0.0
 11
-43.7841953056
 21
-37.903123141
 31
0.0
  0
ARC
  5
8F
330
1F
100
AcDbEntity
  8
0
  6
Continuous
 62
     7
370
    25
100
AcDbCircle
 10
-39.5580126882
 20
-46.9662010113
 30
0.0
 40
10.00000000000004
100
AcDbArc
 50
47.897845893
 51
115.0
  0
SPLINE
  5
90
330
1F
100
AcDbEntity
  8
0
  6
Continuous
 62
     7
370
    25
100
AcDbSpline
210
0.0
220
0.0
230
1.0
 70
     8
 71
     3
 72
    23
 73
    19
 74
     0
 42
0.000000001
 43
0.00000001
 40
0.3771650888350558
 40
0.3771650888350558
 40
0.3771650888350558
 40
0.3771650888350558
 40
0.390625
 40
0.40625
 40
0.421875
 40
0.4375
 40
0.453125
 40
0.46875
 40
0.484375
 40
0.5
 40
0.515625
 40
0.53125
 40
0.546875
 40
0.5625
 40
0.578125
 40
0.59375
 40
0.609375
 40
0.6245405900107351
 40
0.6245405900107351
 40
0.6245405900107351
 40
0.6245405900107351
 10
-32.85346754818787
 20
-39.54669466215454
 30
0.0
 10
-31.61951697555277
 20
-40.66173883428883
 30
0.0
 10
-28.83173712292813
 20
-42.77408203368891
 30
0.0
 10
-24.42923633349998
 20
-45.11309886677316
 30
0.0
 10
-19.92887158150409
 20
-46.76838795201335
 30
0.0
 10
-15.74017844124281
 20
-47.87238235867994
 30
0.0
 10
-11.61331918003936
 20
-48.64078475016451
 30
0.0
 10
-7.603529847071265
 20
-49.10738295274312
 30
0.0
 10
-3.709689612213765
 20
-49.33960884614424
 30
0.0
 10
0.016862285836758
 20
-49.39504234257284
 30
0.0
 10
3.718435597643639
 20
-49.33017340273117
 30
0.0
 10
7.54902793839145
 20
-49.09563139752038
 30
0.0
 10
11.46508170148831
 20
-48.64320037081887
 30
0.0
 10
15.48277715463191
 20
-47.91388073533148
 30
0.0
 10
19.5340134227785
 20
-46.89244002034323
 30
0.0
 10
23.95710321720896
 20
-45.35853683347803
 30
0.0
 10
28.51992648662634
 20
-43.05855311521824
 30
0.0
 10
31.49737208377867
 20
-40.85918910967804
 30
0.0
 10
32.89144055430838
 20
-39.59245386813793
 30
0.0
  0
ARC
  5
91
330
1F
100
AcDbEntity
  8
0
  6
Continuous
 62
     7
370
    25
100
AcDbCircle
 10
39.6164250743
 20
-46.9934391543
 30
0.0
 40
9.999999999999993
100
AcDbArc
 50
65.0
 51
132.2601906276
  0
LINE
  5
92
330
1F
100
AcDbEntity
  8
0
  6
Continuous
 62
     7
370
    25
100
AcDbLine
 10
43.8426076917
 20
-37.9303612839
 30
0.0
 11
46.638064432
 21
-39.23390417
 31
0.0
  0
SPLINE
  5
93
330
1F
100
AcDbEntity
  8
0
  6
Continuous
 62
     7
370
    25
100
AcDbSpline
210
0.0
220
0.0
230
1.0
 70
     8
 71
     3
 72
    35
 73
    31
 74
     0
 42
0.000000001
 43
0.00000001
 40
0.0
 40
0.0
 40
0.0
 40
0.0
 40
0.0078125
 40
0.015625
 40
0.03125
 40
0.046875
 40
0.0625
 40
0.09375
 40
0.125
 40
0.15625
 40
0.1875
 40
0.25
 40
0.3125
 40
0.375
 40
0.4375
 40
0.5
 40
0.5625
 40
0.625
 40
0.6875
 40
0.75
 40
0.8125
 40
0.84375
 40
0.875
 40
0.90625
 40
0.9375
 40
0.953125
 40
0.96875
 40
0.984375
 40
0.9921875
 40
1.0
 40
1.0
 40
1.0
 40
1.0
 10
46.63806443202948
 20
-39.23390416999725
 30
0.0
 10
47.43272049973967
 20
-39.60445837996985
 30
0.0
 10
49.04628061602368
 20
-40.33051279038687
 30
0.0
 10
52.19837894706138
 20
-41.6433514058218
 30
0.0
 10
56.07742316597986
 20
-43.06249034692569
 30
0.0
 10
60.61023243720831
 20
-44.40539473073773
 30
0.0
 10
66.499568244827
 20
-45.72775767752307
 30
0.0
 10
73.56491209310188
 20
-46.51421531411123
 30
0.0
 10
81.54037334263992
 20
-46.11142080991719
 30
0.0
 10
88.95037199523516
 20
-44.41242475540167
 30
0.0
 10
97.97187905779118
 20
-40.52886285393321
 30
0.0
 10
107.4376275130262
 20
-32.93965356960361
 30
0.0
 10
115.7150520120799
 20
-20.56648211030317
 30
0.0
 10
121.0677305861728
 20
-5.79964715945334
 30
0.0
 10
123.611854550578
 20
10.69514219625818
 30
0.0
 10
123.383441996636
 20
28.29784430691809
 30
0.0
 10
120.3646195361751
 20
46.38828230743295
 30
0.0
 10
114.5053384064521
 20
64.33324307400889
 30
0.0
 10
105.7341868171335
 20
81.48191713956734
 30
0.0
 10
93.96785630294164
 20
97.15793733963649
 30
0.0
 10
81.60123885818898
 20
108.4001762298385
 30
0.0
 10
70.15218109623126
 20
115.9279075565227
 30
0.0
 10
60.78948260580169
 20
120.7464328013692
 30
0.0
 10
50.6557957674209
 20
124.6454567442668
 30
0.0
 10
41.57569670519422
 20
127.0542661996826
 30
0.0
 10
33.93452039333061
 20
128.4349100562343
 30
0.0
 10
28.01741937706788
 20
129.1871133536097
 30
0.0
 10
22.92785032489069
 20
129.5696302476751
 30
0.0
 10
18.77099550824519
 20
129.7242217035978
 30
0.0
 10
16.64788579900695
 20
129.750249997223
 30
0.0
 10
15.59179716035532
 20
129.750249997223
 30
0.0
  0
LINE
  5
94
330
1F
100
AcDbEntity
  8
0
  6
Continuous
 62
     7
370
    25
100
AcDbLine
 10
15.5917971604
 20
129.7502499972
 30
0.0
 11
15.5917971604
 21
119.7502499972
 31
0.0
  0
SPLINE
  5
95
330
1F
100
AcDbEntity
  8
0
  6
Continuous
 62
     7
370
    25
100
AcDbSpline
210
0.0
220
0.0
230
1.0
 70
     8
 71
     3
 72
    34
 73
    30
 74
     0
 42
0.000000001
 43
0.00000001
 40
0.0
 40
0.0
 40
0.0
 40
0.0
 40
0.0078125
 40
0.015625
 40
0.03125
 40
0.046875
 40
0.0625
 40
0.09375
 40
0.125
 40
0.15625
 40
0.1875
 40
0.25
 40
0.3125
 40
0.375
 40
0.5
 40
0.5625
 40
0.625
 40
0.6875
 40
0.75
 40
0.8125
 40
0.84375
 40
0.875
 40
0.90625
 40
0.9375
 40
0.953125
 40
0.96875
 40
0.984375
 40
0.9921875
 40
1.0
 40
1.0
 40
1.0
 40
1.0
 10
15.59179716035532
 20
119.750249997223
 30
0.0
 10
16.56576772499119
 20
119.750249997223
 30
0.0
 10
18.52542481964391
 20
119.7262180495967
 30
0.0
 10
22.34925565511865
 20
119.5839246788542
 30
0.0
 10
27.01637737787716
 20
119.2329210573292
 30
0.0
 10
32.41833358961294
 20
118.5458962923491
 30
0.0
 10
39.36677137150111
 20
117.290044422728
 30
0.0
 10
47.57885565841929
 20
115.1100243196018
 30
0.0
 10
56.69824048073205
 20
111.6001941631464
 30
0.0
 10
65.10266363159867
 20
107.2744864788954
 30
0.0
 10
75.37820815568291
 20
100.5185625985423
 30
0.0
 10
86.51352177492544
 20
90.40222516349449
 30
0.0
 10
97.2001573435192
 20
76.17622591431483
 30
0.0
 10
107.9081831951806
 20
55.25771427806131
 30
0.0
 10
113.3221423910161
 20
32.72208374992342
 30
0.0
 10
113.5877002877661
 20
11.34137929397062
 30
0.0
 10
111.2971958982583
 20
-3.397512226645244
 30
0.0
 10
106.6487759959523
 20
-16.1259463403151
 30
0.0
 10
99.85615318879496
 20
-26.17429762040568
 30
0.0
 10
92.62028400686083
 20
-31.92912383386273
 30
0.0
 10
85.84311911633078
 20
-34.84891809724083
 30
0.0
 10
80.19761407896868
 20
-36.14964976946589
 30
0.0
 10
73.92301922954273
 20
-36.47682356661844
 30
0.0
 10
68.12859053590758
 20
-35.84134412565638
 30
0.0
 10
63.14396622028661
 20
-34.72392938386665
 30
0.0
 10
59.23326572084257
 20
-33.56666511851698
 30
0.0
 10
55.82536190497122
 20
-32.32077505528702
 30
0.0
 10
53.02510231992018
 20
-31.15475044788289
 30
0.0
 10
51.57601827065196
 20
-30.50273067093787
 30
0.0
 10
50.86424704943649
 20
-30.17082629963076
 30
0.0
  0
LINE
  5
96
330
1F
100
AcDbEntity
  8
0
  6
Continuous
 62
     7
370
    25
100
AcDbLine
 10
50.8642470494
 20
-30.1708262996
 30
0.0
 11
49.1550378032
 21
-29.3738089387
 31
0.0
  0
ARC
  5
97
330
1F
100
AcDbEntity
  8
0
  6
Continuous
 62
     7
370
    25
100
AcDbCircle
 10
53.3812204206
 20
-20.3107310684
 30
0.0
 40
9.99999999999999
100
AcDbArc
 50
168.8073132847
 51
245.0
  0
SPLINE
  5
98
330
1F
100
AcDbEntity
  8
0
  6
Continuous
 62
     7
370
    25
100
AcDbSpline
210
0.0
220
0.0
230
1.0
 70
     8
 71
     3
 72
    13
 73
     9
 74
     0
 42
0.000000001
 43
0.00000001
 40
0.6843767270298421
 40
0.6843767270298421
 40
0.6843767270298421
 40
0.6843767270298421
 40
0.6875
 40
0.703125
 40
0.71875
 40
0.734375
 40
0.75
 40
0.75904813533078
 40
0.75904813533078
 40
0.75904813533078
 40
0.75904813533078
 10
43.57142102455366
 20
-18.3696396719358
 30
0.0
 10
43.65374317653718
 20
-17.95360372519997
 30
0.0
 10
44.12436699344789
 20
-15.45461971974799
 30
0.0
 10
44.74061375378649
 20
-10.87146866453506
 30
0.0
 10
45.10850961361113
 20
-4.834588502739154
 30
0.0
 10
45.05162847001409
 20
0.7426662379964202
 30
0.0
 10
44.63192260948674
 20
5.088788486140183
 30
0.0
 10
44.13961508615659
 20
7.631319858230122
 30
0.0
 10
43.92543837217124
 20
8.545754094772978
 30
0.0
  0
LINE
  5
99
330
1F
100
AcDbEntity
  8
0
  6
Continuous
 62
     7
370
    25
100
AcDbLine
 10
3.8024458154
 20
50.7395492365
 30
0.0
 11
1.4818079778
 21
41.9743906004
 31
0.0
  0
ARC
  5
9A
330
1F
100
AcDbEntity
  8
0
  6
Continuous
 62
     7
370
    25
100
AcDbCircle
 10
6.315272892
 20
40.6946965261
 30
0.0
 40
5.000000000000002
100
AcDbArc
 50
165.1707785464
 51
252.9861585383
  0
LINE
  5
9B
330
1F
100
AcDbEntity
  8
0
  6
Continuous
 62
     7
370
    25
100
AcDbLine
 10
4.8522592949
 20
35.9135260403
 30
0.0
 11
13.5225855556
 21
33.2604507635
 31
0.0
  0
SPLINE
  5
9C
330
1F
100
AcDbEntity
  8
0
  6
Continuous
 62
     7
370
    25
100
AcDbSpline
210
0.0
220
0.0
230
1.0
 70
     8
 71
     3
 72
    11
 73
     7
 74
     0
 42
0.000000001
 43
0.00000001
 40
0.6574875800632414
 40
0.6574875800632414
 40
0.6574875800632414
 40
0.6574875800632414
 40
0.733865383076036
 40
0.8170163240616954
 40
0.8795182264690369
 40
0.8946500542207806
 40
0.8946500542207806
 40
0.8946500542207806
 40
0.8946500542207806
 10
31.23592197494504
 20
-24.93987359683864
 30
0.0
 10
34.32558131512091
 20
-17.8074837696444
 30
0.0
 10
36.46688731833165
 20
4.219602469884
 30
0.0
 10
31.09249960107222
 20
14.93450679595608
 30
0.0
 10
19.90078718561491
 20
28.00813012572755
 30
0.0
 10
14.53010990850689
 20
32.41547853086266
 30
0.0
 10
13.52258555557255
 20
33.26045076345519
 30
0.0
  0
LINE
  5
9D
330
1F
100
AcDbEntity
  8
0
  6
Continuous
 62
     7
370
    25
100
AcDbLine
 10
31.2359219749
 20
-24.9398735968
 30
0.0
 11
30.625
 21
-26.25
 31
0.0
  0
SPLINE
  5
9E
330
1F
100
AcDbEntity
  8
0
  6
Continuous
 62
     7
370
    25
100
AcDbSpline
210
0.0
220
0.0
230
1.0
 70
     8
 71
     3
 72
    11
 73
     7
 74
     0
 42
0.000000001
 43
0.00000001
 40
0.3491034460595465
 40
0.3491034460595465
 40
0.3491034460595465
 40
0.3491034460595465
 40
0.4294159926801948
 40
0.5
 40
0.571597831517412
 40
0.6526589018991235
 40
0.6526589018991235
 40
0.6526589018991235
 40
0.6526589018991235
 10
-30.62499999999992
 20
-26.25000000000015
 30
0.0
 10
-27.0826738778884
 20
-33.14400075742806
 30
0.0
 10
-15.98015069870658
 20
-38.59485273746345
 30
0.0
 10
0.1397207764012627
 20
-39.75461800912732
 30
0.0
 10
15.89162507587101
 20
-38.533398342952
 30
0.0
 10
27.06593047842979
 20
-33.33323380642267
 30
0.0
 10
30.62500000000009
 20
-26.24999999999984
 30
0.0
  0
LINE
  5
9F
330
1F
100
AcDbEntity
  8
0
  6
Continuous
 62
     7
370
    25
100
AcDbLine
 10
-30.625
 20
-26.25
 30
0.0
 11
-31.426166311
 21
-24.5318933017
 31
0.0
  0
SPLINE
  5
A0
330
1F
100
AcDbEntity
  8
0
  6
Continuous
 62
     7
370
    25
100
AcDbSpline
210
0.0
220
0.0
230
1.0
 70
     8
 71
     3
 72
     9
 73
     5
 74
     0
 42
0.000000001
 43
0.00000001
 40
0.1829836747622867
 40
0.1829836747622867
 40
0.1829836747622867
 40
0.1829836747622867
 40
0.2661346169239639
 40
0.3427122307019895
 40
0.3427122307019895
 40
0.3427122307019895
 40
0.3427122307019895
 10
-28.4375
 20
17.5
 30
0.0
 10
-32.60388788006568
 20
11.86849114761053
 30
0.0
 10
-36.40200054016402
 20
3.979402049588247
 30
0.0
 10
-34.44991032162725
 20
-17.39582039941078
 30
0.0
 10
-31.42616631095231
 20
-24.53189330168362
 30
0.0
  0
LINE
  5
A1
330
1F
100
AcDbEntity
  8
0
  6
Continuous
 62
     7
370
    25
100
AcDbLine
 10
-27.9729536222
 20
18.1221322336
 30
0.0
 11
-28.4374998222
 21
17.5000002382
 31
0.0
  0
SPLINE
  5
A2
330
1F
100
AcDbEntity
  8
0
  6
Continuous
 62
     7
370
    25
100
AcDbSpline
210
0.0
220
0.0
230
1.0
 70
     8
 71
     3
 72
     9
 73
     5
 74
     0
 42
0.000000001
 43
0.00000001
 40
0.1049931042832335
 40
0.1049931042832335
 40
0.1049931042832335
 40
0.1049931042832335
 40
0.120481773530963
 40
0.1799504275934691
 40
0.1799504275934691
 40
0.1799504275934691
 40
0.1799504275934691
 10
-13.46793265147701
 20
33.27717427119174
 30
0.0
 10
-14.49128661547646
 20
32.42749314164615
 30
0.0
 10
-19.64593524067524
 20
28.25863577490036
 30
0.0
 10
-24.88186833311524
 20
22.22444295593741
 30
0.0
 10
-27.97295362288321
 20
18.12213223411168
 30
0.0
  0
LINE
  5
A3
330
1F
100
AcDbEntity
  8
0
  6
Continuous
 62
     7
370
    25
100
AcDbLine
 10
-13.4679326515
 20
33.2771742712
 30
0.0
 11
-4.8522592949
 21
35.9135260403
 31
0.0
  0
ARC
  5
A4
330
1F
100
AcDbEntity
  8
0
  6
Continuous
 62
     7
370
    25
100
AcDbCircle
 10
-6.315272892
 20
40.6946965261
 30
0.0
 40
5.000000000000002
100
AcDbArc
 50
287.0138414617
 51
14.8292214536
  0
LINE
  5
A5
330
1F
100
AcDbEntity
  8
0
  6
Continuous
 62
     7
370
    25
100
AcDbLine
 10
-1.4818079778
 20
41.9743906004
 30
0.0
 11
-3.8024458154
 21
50.7395492365
 31
0.0
  0
LINE
  5
A6
330
1F
100
AcDbEntity
  8
0
  6
Continuous
 62
     7
370
    25
100
AcDbLine
 10
-3.8024458154
 20
50.7395492365
 30
0.0
 11
-3.8441142368
 21
50.7473800325
 31
0.0
  0
SPLINE
  5
A7
330
1F
100
AcDbEntity
  8
0
  6
Continuous
 62
     7
370
    25
100
AcDbSpline
210
0.0
220
0.0
230
1.0
 70
     8
 71
     3
 72
    11
 73
     7
 74
     0
 42
0.000000001
 43
0.00000001
 40
0.9757405492041503
 40
0.9757405492041503
 40
0.9757405492041503
 40
0.9757405492041503
 40
1.0
 40
1.0
 40
1.0
 40
1.025410776662505
 40
1.025410776662505
 40
1.025410776662505
 40
1.025410776662505
 10
3.802445815423051
 20
50.73954923654464
 30
0.0
 10
2.791358430460153
 20
51.97268483281543
 30
0.0
 10
1.377279461985695
 20
52.46290542440302
 30
0.0
 10
-0.000000000000008
 20
52.49999999999999
 30
0.0
 10
-1.44264357445228
 20
52.53885504184812
 30
0.0
 10
-2.844911832076693
 20
52.08055378448996
 30
0.0
 10
-3.844114238713539
 20
50.74738003400421
 30
0.0
  0
MTEXT
  5
A9
330
1F
100
AcDbEntity
  8
0
  6
Continuous
 62
     7
100
AcDbMText
 10
-123.3817535564
 20
-50.3941202884
 30
0.0
 40
4.83362
 41
0.0
 71
     1
 72
     1
  1
SOLIDWORKS Educational Product.
  7
SLDTEXTSTYLE0
 73
     1
 44
1.0
  0
MTEXT
  5
AA
330
1F
100
AcDbEntity
  8
0
  6
Continuous
 62
     7
100
AcDbMText
 10
-123.3817535564
 20
-57.6445502884
 30
0.0
 40
4.83362
 41
0.0
 71
     1
 72
     1
  1
For Instructional Use Only.
  7
SLDTEXTSTYLE0
 73
     1
 44
1.0
  0
ENDSEC
  0
SECTION
  2
OBJECTS
  0
DICTIONARY
  5
C
330
0
100
AcDbDictionary
281
     1
  3
ACAD_GROUP
350
D
  3
ACAD_LAYOUT
350
1A
  3
ACAD_MLINESTYLE
350
17
  3
ACAD_PLOTSETTINGS
350
19
  3
ACAD_PLOTSTYLENAME
350
E
  3
ACAD_SCALELIST
350
47
  0
DICTIONARY
  5
D
102
{ACAD_REACTORS
330
C
102
}
330
C
100
AcDbDictionary
281
     1
  0
DICTIONARY
  5
1A
102
{ACAD_REACTORS
330
C
102
}
330
C
100
AcDbDictionary
281
     1
  3
Layout1
350
1E
  3
Layout2
350
26
  3
Model
350
22
  0
DICTIONARY
  5
17
102
{ACAD_REACTORS
330
C
102
}
330
C
100
AcDbDictionary
281
     1
  3
Standard
350
18
  0
DICTIONARY
  5
19
102
{ACAD_REACTORS
330
C
102
}
330
C
100
AcDbDictionary
281
     1
  0
ACDBDICTIONARYWDFLT
  5
E
102
{ACAD_REACTORS
330
C
102
}
330
C
100
AcDbDictionary
281
     1
  3
Normal
350
F
100
AcDbDictionaryWithDefault
340
F
  0
DICTIONARY
  5
47
102
{ACAD_REACTORS
330
C
102
}
330
C
100
AcDbDictionary
281
     1
  3
A0
350
48
  3
A1
350
49
  3
A2
350
4A
  3
A3
350
4B
  3
A4
350
4C
  3
A5
350
4D
  3
A6
350
4E
  3
A7
350
4F
  3
A8
350
50
  3
A9
350
51
  3
B0
350
52
  3
B1
350
53
  3
B2
350
54
  3
B3
350
55
  3
B4
350
56
  3
B5
350
57
  3
B6
350
58
  3
B7
350
59
  3
B8
350
5A
  3
B9
350
5B
  3
C0
350
5C
  3
C1
350
5D
  3
C2
350
5E
  3
C3
350
5F
  3
C4
350
60
  3
C5
350
61
  3
C6
350
62
  3
C7
350
63
  3
C8
350
64
  3
C9
350
65
  3
D0
350
66
  3
D1
350
67
  3
D2
350
68
  0
LAYOUT
  5
1E
102
{ACAD_REACTORS
330
1A
102
}
330
1A
100
AcDbPlotSettings
  1

  2
none_device
  4

  6

 40
0.0
 41
0.0
 42
0.0
 43
0.0
 44
0.0
 45
0.0
 46
0.0
 47
0.0
 48
0.0
 49
0.0
140
0.0
141
0.0
142
1.0
143
1.0
 70
   688
 72
     1
 73
     0
 74
     5
  7

 75
    16
147
1.0
148
0.0
149
0.0
100
AcDbLayout
  1
Layout1
 70
     1
 71
     1
 10
0.0
 20
0.0
 11
420.0
 21
297.0
 12
0.0
 22
0.0
 32
0.0
 14
1.0000000000E+20
 24
1.0000000000E+20
 34
1.0000000000E+20
 15
-1.0000000000E+20
 25
-1.0000000000E+20
 35
-1.0000000000E+20
146
0.0
 13
0.0
 23
0.0
 33
0.0
 16
1.0
 26
0.0
 36
0.0
 17
0.0
 27
1.0
 37
0.0
 76
     0
330
1B
  0
LAYOUT
  5
26
102
{ACAD_REACTORS
330
1A
102
}
330
1A
100
AcDbPlotSettings
  1

  2
none_device
  4

  6

 40
0.0
 41
0.0
 42
0.0
 43
0.0
 44
0.0
 45
0.0
 46
0.0
 47
0.0
 48
0.0
 49
0.0
140
0.0
141
0.0
142
1.0
143
1.0
 70
   688
 72
     1
 73
     0
 74
     5
  7

 75
    16
147
1.0
148
0.0
149
0.0
100
AcDbLayout
  1
Layout2
 70
     1
 71
     2
 10
0.0
 20
0.0
 11
0.0
 21
0.0
 12
0.0
 22
0.0
 32
0.0
 14
0.0
 24
0.0
 34
0.0
 15
0.0
 25
0.0
 35
0.0
146
0.0
 13
0.0
 23
0.0
 33
0.0
 16
1.0
 26
0.0
 36
0.0
 17
0.0
 27
1.0
 37
0.0
 76
     0
330
23
  0
LAYOUT
  5
22
102
{ACAD_REACTORS
330
1A
102
}
330
1A
100
AcDbPlotSettings
  1

  2
none_device
  4
ANSI_A_(11.00_x_8.50_Inches)
  6

 40
6.35
 41
19.05
 42
6.35000508
 43
19.05000254
 44
279.4
 45
215.9
 46
133.34999746
 47
43.8520091474
 48
0.0
 49
0.0
140
0.0
141
0.0
142
0.0441313229
143
1.0
 70
  1696
 72
     0
 73
     0
 74
     0
  7

 75
     0
147
0.0179189148
148
-1300.4909072572
149
0.0
100
AcDbLayout
  1
Model
 70
     1
 71
     0
 10
0.0
 20
0.0
 11
420.0
 21
297.0
 12
0.0
 22
0.0
 32
0.0
 14
-123.3817535564
 24
-49.3745538968
 34
0.0
 15
123.3817535564
 25
129.7502499972
 35
0.0
146
0.0
 13
0.0
 23
0.0
 33
0.0
 16
1.0
 26
0.0
 36
0.0
 17
0.0
 27
1.0
 37
0.0
 76
     0
330
1F
331
29
  0
MLINESTYLE
  5
18
102
{ACAD_REACTORS
330
17
102
}
330
17
100
AcDbMlineStyle
  2
Standard
 70
     0
  3

 62
   256
 51
90.0
 52
90.0
 71
     2
 49
0.5
 62
   256
  6
BYLAYER
 49
-0.5
 62
   256
  6
BYLAYER
  0
ACDBPLACEHOLDER
  5
F
102
{ACAD_REACTORS
330
E
102
}
330
E
  0
SCALE
  5
48
102
{ACAD_REACTORS
330
47
102
}
330
47
100
AcDbScale
 70
     0
300
1:1
140
1.0
141
1.0
290
     1
  0
SCALE
  5
49
102
{ACAD_REACTORS
330
47
102
}
330
47
100
AcDbScale
 70
     0
300
1:2
140
1.0
141
2.0
290
     0
  0
SCALE
  5
4A
102
{ACAD_REACTORS
330
47
102
}
330
47
100
AcDbScale
 70
     0
300
1:4
140
1.0
141
4.0
290
     0
  0
SCALE
  5
4B
102
{ACAD_REACTORS
330
47
102
}
330
47
100
AcDbScale
 70
     0
300
1:5
140
1.0
141
5.0
290
     0
  0
SCALE
  5
4C
102
{ACAD_REACTORS
330
47
102
}
330
47
100
AcDbScale
 70
     0
300
1:8
140
1.0
141
8.0
290
     0
  0
SCALE
  5
4D
102
{ACAD_REACTORS
330
47
102
}
330
47
100
AcDbScale
 70
     0
300
1:10
140
1.0
141
10.0
290
     0
  0
SCALE
  5
4E
102
{ACAD_REACTORS
330
47
102
}
330
47
100
AcDbScale
 70
     0
300
1:16
140
1.0
141
16.0
290
     0
  0
SCALE
  5
4F
102
{ACAD_REACTORS
330
47
102
}
330
47
100
AcDbScale
 70
     0
300
1:20
140
1.0
141
20.0
290
     0
  0
SCALE
  5
50
102
{ACAD_REACTORS
330
47
102
}
330
47
100
AcDbScale
 70
     0
300
1:30
140
1.0
141
30.0
290
     0
  0
SCALE
  5
51
102
{ACAD_REACTORS
330
47
102
}
330
47
100
AcDbScale
 70
     0
300
1:40
140
1.0
141
40.0
290
     0
  0
SCALE
  5
52
102
{ACAD_REACTORS
330
47
102
}
330
47
100
AcDbScale
 70
     0
300
1:50
140
1.0
141
50.0
290
     0
  0
SCALE
  5
53
102
{ACAD_REACTORS
330
47
102
}
330
47
100
AcDbScale
 70
     0
300
1:100
140
1.0
141
100.0
290
     0
  0
SCALE
  5
54
102
{ACAD_REACTORS
330
47
102
}
330
47
100
AcDbScale
 70
     0
300
2:1
140
2.0
141
1.0
290
     0
  0
SCALE
  5
55
102
{ACAD_REACTORS
330
47
102
}
330
47
100
AcDbScale
 70
     0
300
4:1
140
4.0
141
1.0
290
     0
  0
SCALE
  5
56
102
{ACAD_REACTORS
330
47
102
}
330
47
100
AcDbScale
 70
     0
300
8:1
140
8.0
141
1.0
290
     0
  0
SCALE
  5
57
102
{ACAD_REACTORS
330
47
102
}
330
47
100
AcDbScale
 70
     0
300
10:1
140
10.0
141
1.0
290
     0
  0
SCALE
  5
58
102
{ACAD_REACTORS
330
47
102
}
330
47
100
AcDbScale
 70
     0
300
100:1
140
100.0
141
1.0
290
     0
  0
SCALE
  5
59
102
{ACAD_REACTORS
330
47
102
}
330
47
100
AcDbScale
 70
     0
300
1/128" = 1'-0"
140
0.0078125
141
12.0
290
     0
  0
SCALE
  5
5A
102
{ACAD_REACTORS
330
47
102
}
330
47
100
AcDbScale
 70
     0
300
1/64" = 1'-0"
140
0.015625
141
12.0
290
     0
  0
SCALE
  5
5B
102
{ACAD_REACTORS
330
47
102
}
330
47
100
AcDbScale
 70
     0
300
1/32" = 1'-0"
140
0.03125
141
12.0
290
     0
  0
SCALE
  5
5C
102
{ACAD_REACTORS
330
47
102
}
330
47
100
AcDbScale
 70
     0
300
1/16" = 1'-0"
140
0.0625
141
12.0
290
     0
  0
SCALE
  5
5D
102
{ACAD_REACTORS
330
47
102
}
330
47
100
AcDbScale
 70
     0
300
3/32" = 1'-0"
140
0.09375
141
12.0
290
     0
  0
SCALE
  5
5E
102
{ACAD_REACTORS
330
47
102
}
330
47
100
AcDbScale
 70
     0
300
1/8" = 1'-0"
140
0.125
141
12.0
290
     0
  0
SCALE
  5
5F
102
{ACAD_REACTORS
330
47
102
}
330
47
100
AcDbScale
 70
     0
300
3/16" = 1'-0"
140
0.1875
141
12.0
290
     0
  0
SCALE
  5
60
102
{ACAD_REACTORS
330
47
102
}
330
47
100
AcDbScale
 70
     0
300
1/4" = 1'-0"
140
0.25
141
12.0
290
     0
  0
SCALE
  5
61
102
{ACAD_REACTORS
330
47
102
}
330
47
100
AcDbScale
 70
     0
300
3/8" = 1'-0"
140
0.375
141
12.0
290
     0
  0
SCALE
  5
62
102
{ACAD_REACTORS
330
47
102
}
330
47
100
AcDbScale
 70
     0
300
1/2" = 1'-0"
140
0.5
141
12.0
290
     0
  0
SCALE
  5
63
102
{ACAD_REACTORS
330
47
102
}
330
47
100
AcDbScale
 70
     0
300
3/4" = 1'-0"
140
0.75
141
12.0
290
     0
  0
SCALE
  5
64
102
{ACAD_REACTORS
330
47
102
}
330
47
100
AcDbScale
 70
     0
300
1" = 1'-0"
140
1.0
141
12.0
290
     0
  0
SCALE
  5
65
102
{ACAD_REACTORS
330
47
102
}
330
47
100
AcDbScale
 70
     0
300
1-1/2" = 1'-0"
140
1.5
141
12.0
290
     0
  0
SCALE
  5
66
102
{ACAD_REACTORS
330
47
102
}
330
47
100
AcDbScale
 70
     0
300
3" = 1'-0"
140
3.0
141
12.0
290
     0
  0
SCALE
  5
67
102
{ACAD_REACTORS
330
47
102
}
330
47
100
AcDbScale
 70
     0
300
6" = 1'-0"
140
6.0
141
12.0
290
     0
  0
SCALE
  5
68
102
{ACAD_REACTORS
330
47
102
}
330
47
100
AcDbScale
 70
     0
300
1'-0" = 1'-0"
140
12.0
141
12.0
290
     0
  0
ENDSEC
  0
EOF
