  0
SECTION
  2
HEADER
  9
$ACADVER
  1
AC1015
  9
$ACADMAINTVER
 70
     6
  9
$DWGCODEPAGE
  3
ANSI_1252
  9
$INSBASE
 10
0.0
 20
0.0
 30
0.0
  9
$EXTMIN
 10
-112.8669713344
 20
-53.5
 30
0.0
  9
$EXTMAX
 10
112.8669713344
 20
99.75
 30
0.0
  9
$LIMMIN
 10
0.0
 20
0.0
  9
$LIMMAX
 10
420.0
 20
297.0
  9
$ORTHOMODE
 70
     0
  9
$REGENMODE
 70
     1
  9
$FILLMODE
 70
     1
  9
$QTEXTMODE
 70
     0
  9
$MIRRTEXT
 70
     1
  9
$LTSCALE
 40
1.0
  9
$ATTMODE
 70
     1
  9
$TEXTSIZE
 40
3.5
  9
$TRACEWID
 40
1.0
  9
$TEXTSTYLE
  7
Standard
  9
$CLAYER
  8
0
  9
$CELTYPE
  6
ByLayer
  9
$CECOLOR
 62
   256
  9
$CELTSCALE
 40
1.0
  9
$DISPSILH
 70
     0
  9
$DIMSCALE
 40
1.0
  9
$DIMASZ
 40
3.302
  9
$DIMEXO
 40
1.0
  9
$DIMDLI
 40
3.75
  9
$DIMRND
 40
0.0
  9
$DIMDLE
 40
0.0
  9
$DIMEXE
 40
1.0
  9
$DIMTP
 40
0.0
  9
$DIMTM
 40
0.0
  9
$DIMTXT
 40
3.5
  9
$DIMCEN
 40
2.5
  9
$DIMTSZ
 40
0.0
  9
$DIMTOL
 70
     0
  9
$DIMLIM
 70
     0
  9
$DIMTIH
 70
     1
  9
$DIMTOH
 70
     1
  9
$DIMSE1
 70
     0
  9
$DIMSE2
 70
     0
  9
$DIMTAD
 70
     1
  9
$DIMZIN
 70
     1
  9
$DIMBLK
  1

  9
$DIMASO
 70
     1
  9
$DIMSHO
 70
     1
  9
$DIMPOST
  1

  9
$DIMAPOST
  1

  9
$DIMALT
 70
     0
  9
$DIMALTD
 70
     3
  9
$DIMALTF
 40
0.0393700787
  9
$DIMLFAC
 40
1.0
  9
$DIMTOFL
 70
     1
  9
$DIMTVP
 40
0.0
  9
$DIMTIX
 70
     0
  9
$DIMSOXD
 70
     0
  9
$DIMSAH
 70
     0
  9
$DIMBLK1
  1

  9
$DIMBLK2
  1

  9
$DIMSTYLE
  2
ISO-25
  9
$DIMCLRD
 70
     0
  9
$DIMCLRE
 70
     0
  9
$DIMCLRT
 70
     0
  9
$DIMTFAC
 40
1.0
  9
$DIMGAP
 40
1.524
  9
$DIMJUST
 70
     0
  9
$DIMSD1
 70
     0
  9
$DIMSD2
 70
     0
  9
$DIMTOLJ
 70
     0
  9
$DIMTZIN
 70
     1
  9
$DIMALTZ
 70
     0
  9
$DIMALTTZ
 70
     0
  9
$DIMUPT
 70
     0
  9
$DIMDEC
 70
     2
  9
$DIMTDEC
 70
     2
  9
$DIMALTU
 70
     2
  9
$DIMALTTD
 70
     3
  9
$DIMTXSTY
  7
Standard
  9
$DIMAUNIT
 70
     0
  9
$DIMADEC
 70
     2
  9
$DIMALTRND
 40
0.0
  9
$DIMAZIN
 70
     0
  9
$DIMDSEP
 70
    44
  9
$DIMATFIT
 70
     3
  9
$DIMFRAC
 70
     0
  9
$DIMLDRBLK
  1

  9
$DIMLUNIT
 70
     2
  9
$DIMLWD
 70
    -2
  9
$DIMLWE
 70
    -2
  9
$DIMTMOVE
 70
     0
  9
$LUNITS
 70
     2
  9
$LUPREC
 70
     2
  9
$SKETCHINC
 40
1.0
  9
$FILLETRAD
 40
10.0
  9
$AUNITS
 70
     0
  9
$AUPREC
 70
     2
  9
$MENU
  1
.
  9
$ELEVATION
 40
0.0
  9
$PELEVATION
 40
0.0
  9
$THICKNESS
 40
0.0
  9
$LIMCHECK
 70
     0
  9
$CHAMFERA
 40
0.0
  9
$CHAMFERB
 40
0.0
  9
$CHAMFERC
 40
0.0
  9
$CHAMFERD
 40
0.0
  9
$SKPOLY
 70
     0
  9
$TDCREATE
 40
2459028.425920474
  9
$TDUCREATE
 40
2459028.717587141
  9
$TDUPDATE
 40
2459028.42594596
  9
$TDUUPDATE
 40
2459028.717612627
  9
$TDINDWG
 40
0.0000000116
  9
$TDUSRTIMER
 40
0.0000000116
  9
$USRTIMER
 70
     1
  9
$ANGBASE
 50
0.0
  9
$ANGDIR
 70
     0
  9
$PDMODE
 70
     0
  9
$PDSIZE
 40
-1.0
  9
$PLINEWID
 40
0.0
  9
$SPLFRAME
 70
     0
  9
$SPLINETYPE
 70
     6
  9
$SPLINESEGS
 70
     8
  9
$HANDSEED
  5
93
  9
$SURFTAB1
 70
     6
  9
$SURFTAB2
 70
     6
  9
$SURFTYPE
 70
     6
  9
$SURFU
 70
     6
  9
$SURFV
 70
     6
  9
$UCSBASE
  2

  9
$UCSNAME
  2

  9
$UCSORG
 10
0.0
 20
0.0
 30
0.0
  9
$UCSXDIR
 10
1.0
 20
0.0
 30
0.0
  9
$UCSYDIR
 10
0.0
 20
1.0
 30
0.0
  9
$UCSORTHOREF
  2

  9
$UCSORTHOVIEW
 70
     0
  9
$UCSORGTOP
 10
0.0
 20
0.0
 30
0.0
  9
$UCSORGBOTTOM
 10
0.0
 20
0.0
 30
0.0
  9
$UCSORGLEFT
 10
0.0
 20
0.0
 30
0.0
  9
$UCSORGRIGHT
 10
0.0
 20
0.0
 30
0.0
  9
$UCSORGFRONT
 10
0.0
 20
0.0
 30
0.0
  9
$UCSORGBACK
 10
0.0
 20
0.0
 30
0.0
  9
$PUCSBASE
  2

  9
$PUCSNAME
  2

  9
$PUCSORG
 10
0.0
 20
0.0
 30
0.0
  9
$PUCSXDIR
 10
1.0
 20
0.0
 30
0.0
  9
$PUCSYDIR
 10
0.0
 20
1.0
 30
0.0
  9
$PUCSORTHOREF
  2

  9
$PUCSORTHOVIEW
 70
     0
  9
$PUCSORGTOP
 10
0.0
 20
0.0
 30
0.0
  9
$PUCSORGBOTTOM
 10
0.0
 20
0.0
 30
0.0
  9
$PUCSORGLEFT
 10
0.0
 20
0.0
 30
0.0
  9
$PUCSORGRIGHT
 10
0.0
 20
0.0
 30
0.0
  9
$PUCSORGFRONT
 10
0.0
 20
0.0
 30
0.0
  9
$PUCSORGBACK
 10
0.0
 20
0.0
 30
0.0
  9
$USERI1
 70
     0
  9
$USERI2
 70
     0
  9
$USERI3
 70
     0
  9
$USERI4
 70
     0
  9
$USERI5
 70
     0
  9
$USERR1
 40
0.0
  9
$USERR2
 40
0.0
  9
$USERR3
 40
0.0
  9
$USERR4
 40
0.0
  9
$USERR5
 40
0.0
  9
$WORLDVIEW
 70
     1
  9
$SHADEDGE
 70
     3
  9
$SHADEDIF
 70
    70
  9
$TILEMODE
 70
     1
  9
$MAXACTVP
 70
    64
  9
$PINSBASE
 10
0.0
 20
0.0
 30
0.0
  9
$PLIMCHECK
 70
     0
  9
$PEXTMIN
 10
1.0000000000E+20
 20
1.0000000000E+20
 30
1.0000000000E+20
  9
$PEXTMAX
 10
-1.0000000000E+20
 20
-1.0000000000E+20
 30
-1.0000000000E+20
  9
$PLIMMIN
 10
0.0
 20
0.0
  9
$PLIMMAX
 10
420.0
 20
297.0
  9
$UNITMODE
 70
     0
  9
$VISRETAIN
 70
     1
  9
$PLINEGEN
 70
     0
  9
$PSLTSCALE
 70
     1
  9
$TREEDEPTH
 70
  3020
  9
$CMLSTYLE
  2
Standard
  9
$CMLJUST
 70
     0
  9
$CMLSCALE
 40
20.0
  9
$PROXYGRAPHICS
 70
     1
  9
$MEASUREMENT
 70
     1
  9
$CELWEIGHT
370
    -1
  9
$ENDCAPS
280
     0
  9
$JOINSTYLE
280
     0
  9
$LWDISPLAY
290
     1
  9
$INSUNITS
 70
     4
  9
$HYPERLINKBASE
  1

  9
$STYLESHEET
  1

  9
$XEDIT
290
     1
  9
$CEPSNTYPE
380
     0
  9
$PSTYLEMODE
290
     1
  9
$FINGERPRINTGUID
  2
{3437c4bc-6212-48a4-a1a6-288a84486c88}
  9
$VERSIONGUID
  2
{FAEB1C32-E019-11D5-929B-00C0DF256EC4}
  9
$EXTNAMES
290
     1
  9
$PSVPSCALE
 40
0.0
  9
$OLESTARTUP
290
     0
  0
ENDSEC
  0
SECTION
  2
CLASSES
  0
CLASS
  1
ACDBDICTIONARYWDFLT
  2
AcDbDictionaryWithDefault
  3
ObjectDBX Classes
 90
        0
280
     0
281
     0
  0
CLASS
  1
VISUALSTYLE
  2
AcDbVisualStyle
  3
ObjectDBX Classes
 90
     4095
280
     0
281
     0
  0
CLASS
  1
MATERIAL
  2
AcDbMaterial
  3
ObjectDBX Classes
 90
     1153
280
     0
281
     0
  0
CLASS
  1
SCALE
  2
AcDbScale
  3
ObjectDBX Classes
 90
     1153
280
     0
281
     0
  0
CLASS
  1
TABLESTYLE
  2
AcDbTableStyle
  3
ObjectDBX Classes
 90
     4095
280
     0
281
     0
  0
CLASS
  1
MLEADERSTYLE
  2
AcDbMLeaderStyle
  3
ACDB_MLEADERSTYLE_CLASS
 90
     4095
280
     0
281
     0
  0
CLASS
  1
SUN
  2
AcDbSun
  3
SCENEOE
 90
     1153
280
     0
281
     0
  0
CLASS
  1
ACDBPLACEHOLDER
  2
AcDbPlaceHolder
  3
ObjectDBX Classes
 90
        0
280
     0
281
     0
  0
CLASS
  1
LAYOUT
  2
AcDbLayout
  3
ObjectDBX Classes
 90
        0
280
     0
281
     0
  0
ENDSEC
  0
SECTION
  2
TABLES
  0
TABLE
  2
VPORT
  5
8
330
0
100
AcDbSymbolTable
 70
     1
  0
VPORT
  5
29
330
8
100
AcDbSymbolTableRecord
100
AcDbViewportTableRecord
  2
*Active
 70
     0
 10
0.0
 20
0.0
 11
1.0
 21
1.0
 12
0.0
 22
23.125
 13
0.0
 23
0.0
 14
10.0
 24
10.0
 15
10.0
 25
10.0
 16
0.0
 26
0.0
 36
1.0
 17
0.0
 27
0.0
 37
0.0
 40
156.315
 41
1.4729784187
 42
50.0
 43
0.0
 44
0.0
 50
0.0
 51
0.0
 71
     0
 72
   100
 73
     1
 74
     3
 75
     0
 76
     0
 77
     0
 78
     0
281
     0
 65
     1
110
0.0
120
0.0
130
0.0
111
1.0
121
0.0
131
0.0
112
0.0
122
1.0
132
0.0
 79
     0
146
0.0
  0
ENDTAB
  0
TABLE
  2
LTYPE
  5
5
330
0
100
AcDbSymbolTable
 70
     6
  0
LTYPE
  5
14
330
5
100
AcDbSymbolTableRecord
100
AcDbLinetypeTableRecord
  2
ByBlock
 70
     0
  3

 72
    65
 73
     0
 40
0.0
  0
LTYPE
  5
15
330
5
100
AcDbSymbolTableRecord
100
AcDbLinetypeTableRecord
  2
ByLayer
 70
     0
  3

 72
    65
 73
     0
 40
0.0
  0
LTYPE
  5
16
330
5
100
AcDbSymbolTableRecord
100
AcDbLinetypeTableRecord
  2
Continuous
 70
     0
  3
Solid line
 72
    65
 73
     0
 40
0.0
  0
LTYPE
  5
6E
330
5
100
AcDbSymbolTableRecord
100
AcDbLinetypeTableRecord
  2
HIDDEN
 70
     0
  3
Hidden __ __ __ __ __ __ __ __ __ __ __ __ __ __
 72
    65
 73
     2
 40
1.905
 49
1.27
 74
     0
 49
-0.635
 74
     0
  0
LTYPE
  5
6F
330
5
100
AcDbSymbolTableRecord
100
AcDbLinetypeTableRecord
  2
PHANTOM
 70
     0
  3
Phantom ______  __  __  ______  __  __  ______
 72
    65
 73
     6
 40
12.7
 49
6.35
 74
     0
 49
-1.27
 74
     0
 49
1.27
 74
     0
 49
-1.27
 74
     0
 49
1.27
 74
     0
 49
-1.27
 74
     0
  0
LTYPE
  5
70
330
5
100
AcDbSymbolTableRecord
100
AcDbLinetypeTableRecord
  2
CENTER
 70
     0
  3
Center ____ _ ____ _ ____ _ ____ _ ____ _ ____
 72
    65
 73
     4
 40
10.16
 49
6.35
 74
     0
 49
-1.27
 74
     0
 49
1.27
 74
     0
 49
-1.27
 74
     0
  0
LTYPE
  5
71
330
5
100
AcDbSymbolTableRecord
100
AcDbLinetypeTableRecord
  2
CENTERX2
 70
     0
  3
Center (2x) ________  __  ________  __  _____
 72
    65
 73
     4
 40
20.32
 49
12.7
 74
     0
 49
-2.54
 74
     0
 49
2.54
 74
     0
 49
-2.54
 74
     0
  0
LTYPE
  5
72
330
5
100
AcDbSymbolTableRecord
100
AcDbLinetypeTableRecord
  2
DOT2
 70
     0
  3
Dot (.5x) ........................................
 72
    65
 73
     2
 40
0.635
 49
0.0
 74
     0
 49
-0.635
 74
     0
  0
ENDTAB
  0
TABLE
  2
LAYER
  5
2
330
0
100
AcDbSymbolTable
 70
     1
  0
LAYER
  5
10
330
2
100
AcDbSymbolTableRecord
100
AcDbLayerTableRecord
  2
0
 70
     0
 62
     7
  6
Continuous
370
    -3
390
F
  0
ENDTAB
  0
TABLE
  2
STYLE
  5
3
330
0
100
AcDbSymbolTable
 70
     2
  0
STYLE
  5
11
330
3
100
AcDbSymbolTableRecord
100
AcDbTextStyleTableRecord
  2
Standard
 70
     0
 40
0.0
 41
1.0
 50
0.0
 71
     0
 42
3.5
  3
txt
  4

  0
STYLE
  5
90
330
3
100
AcDbSymbolTableRecord
100
AcDbTextStyleTableRecord
  2
SLDTEXTSTYLE0
 70
     0
 40
0.0
 41
0.7
 50
0.0
 71
     0
 42
3.5
  3
TXT
  4

  0
ENDTAB
  0
TABLE
  2
VIEW
  5
6
330
0
100
AcDbSymbolTable
 70
     0
  0
ENDTAB
  0
TABLE
  2
UCS
  5
7
330
0
100
AcDbSymbolTable
 70
     0
  0
ENDTAB
  0
TABLE
  2
APPID
  5
9
330
0
100
AcDbSymbolTable
 70
     1
  0
APPID
  5
12
330
9
100
AcDbSymbolTableRecord
100
AcDbRegAppTableRecord
  2
ACAD
 70
     0
  0
ENDTAB
  0
TABLE
  2
DIMSTYLE
  5
A
330
0
100
AcDbSymbolTable
 70
     1
100
AcDbDimStyleTable
  0
DIMSTYLE
105
27
330
A
100
AcDbSymbolTableRecord
100
AcDbDimStyleTableRecord
  2
ISO-25
 70
     0
 41
2.5
 42
0.625
 43
3.75
 44
1.25
 73
     0
 74
     0
 77
     1
 78
     8
140
2.5
141
2.5
143
0.0393700787
147
0.625
171
     3
172
     1
178
     0
271
     2
272
     2
274
     3
278
    44
283
     0
284
     8
340
11
  0
ENDTAB
  0
TABLE
  2
BLOCK_RECORD
  5
1
330
0
100
AcDbSymbolTable
 70
     1
  0
BLOCK_RECORD
  5
1F
330
1
100
AcDbSymbolTableRecord
100
AcDbBlockTableRecord
  2
*Model_Space
340
22
  0
BLOCK_RECORD
  5
1B
330
1
100
AcDbSymbolTableRecord
100
AcDbBlockTableRecord
  2
*Paper_Space
340
1E
  0
BLOCK_RECORD
  5
23
330
1
100
AcDbSymbolTableRecord
100
AcDbBlockTableRecord
  2
*Paper_Space0
340
26
  0
ENDTAB
  0
ENDSEC
  0
SECTION
  2
BLOCKS
  0
BLOCK
  5
20
330
1F
100
AcDbEntity
  8
0
100
AcDbBlockBegin
  2
*Model_Space
 70
     0
 10
0.0
 20
0.0
 30
0.0
  3
*Model_Space
  1

  0
ENDBLK
  5
21
330
1F
100
AcDbEntity
  8
0
100
AcDbBlockEnd
  0
BLOCK
  5
1C
330
1B
100
AcDbEntity
 67
     1
  8
0
100
AcDbBlockBegin
  2
*Paper_Space
 70
     0
 10
0.0
 20
0.0
 30
0.0
  3
*Paper_Space
  1

  0
ENDBLK
  5
1D
330
1B
100
AcDbEntity
 67
     1
  8
0
100
AcDbBlockEnd
  0
BLOCK
  5
24
330
23
100
AcDbEntity
  8
0
100
AcDbBlockBegin
  2
*Paper_Space0
 70
     0
 10
0.0
 20
0.0
 30
0.0
  3
*Paper_Space0
  1

  0
ENDBLK
  5
25
330
23
100
AcDbEntity
  8
0
100
AcDbBlockEnd
  0
ENDSEC
  0
SECTION
  2
ENTITIES
  0
SPLINE
  5
73
330
1F
100
AcDbEntity
  8
0
  6
Continuous
 62
     7
370
    25
100
AcDbSpline
210
0.0
220
0.0
230
1.0
 70
    11
 71
     3
 72
    27
 73
    23
 74
     0
 42
0.000000001
 43
0.00000001
 40
0.0
 40
0.0
 40
0.0
 40
0.0
 40
0.0120566844306995
 40
0.0200456648459528
 40
0.06755824642724
 40
0.0948409674137988
 40
0.1227865231833887
 40
0.183737511673852
 40
0.2600819940982056
 40
0.3542072194517951
 40
0.442388760897696
 40
0.4999999999999999
 40
0.5576112391023039
 40
0.6457927805482049
 40
0.7399180059017942
 40
0.8162624883261479
 40
0.8772134768166113
 40
0.9051590325862011
 40
0.9324417535727599
 40
0.9799543351540472
 40
0.9879433155693005
 40
1.0
 40
1.0
 40
1.0
 40
1.0
 10
-0.0000000000000074
 20
63.0
 30
0.0
 10
-1.449277996060231
 20
63.0
 30
0.0
 10
-3.858874195133329
 20
63.04931104305025
 30
0.0
 10
-6.738859951532563
 20
55.67566419420846
 30
0.0
 10
-6.381787564225009
 20
47.39830632372179
 30
0.0
 10
-10.04215651834622
 20
35.84703685558158
 30
0.0
 10
-22.64161580095235
 20
32.08118443769261
 30
0.0
 10
-39.39126232062928
 20
23.88428352959543
 30
0.0
 10
-45.05213829940173
 20
-1.689202027348705
 30
0.0
 10
-46.71004822369089
 20
-32.35738689065445
 30
0.0
 10
-21.10413052064744
 20
-45.6869877611386
 30
0.0
 10
0.0000000000000282
 20
-51.70432293293186
 30
0.0
 10
21.10413052064742
 20
-45.6869877611386
 30
0.0
 10
46.7100482236909
 20
-32.35738689065447
 30
0.0
 10
45.05213829940173
 20
-1.689202027348674
 30
0.0
 10
39.39126232062926
 20
23.88428352959546
 30
0.0
 10
22.64161580095239
 20
32.0811844376926
 30
0.0
 10
10.04215651834619
 20
35.84703685558159
 30
0.0
 10
6.381787564225013
 20
47.39830632372178
 30
0.0
 10
6.738859951532542
 20
55.67566419420846
 30
0.0
 10
3.858874195133318
 20
63.04931104305024
 30
0.0
 10
1.449277996060216
 20
63.0
 30
0.0
 10
-0.0000000000000074
 20
63.0
 30
0.0
  0
SPLINE
  5
74
330
1F
100
AcDbEntity
  8
0
  6
Continuous
 62
     7
370
    25
100
AcDbSpline
210
0.0
220
0.0
230
1.0
 70
     8
 71
     3
 72
    29
 73
    25
 74
     0
 42
0.000000001
 43
0.00000001
 40
0.0
 40
0.0
 40
0.0
 40
0.0
 40
0.0078125
 40
0.015625
 40
0.03125
 40
0.046875
 40
0.0625
 40
0.09375
 40
0.125
 40
0.15625
 40
0.1875
 40
0.25
 40
0.3125
 40
0.375
 40
0.4375
 40
0.5
 40
0.625
 40
0.6875
 40
0.75
 40
0.8125
 40
0.84375
 40
0.875
 40
0.90625
 40
0.9352272095081612
 40
0.9352272095081612
 40
0.9352272095081612
 40
0.9352272095081612
 10
20.0
 20
86.25000000000001
 30
0.0
 10
20.70581975178071
 20
86.25000000000001
 30
0.0
 10
22.12698557222868
 20
86.24354907950358
 30
0.0
 10
24.89293163386218
 20
86.20524582554533
 30
0.0
 10
28.26037317715572
 20
86.11049460402361
 30
0.0
 10
32.14205759675477
 20
85.92422455865649
 30
0.0
 10
37.11293015669801
 20
85.58236291958565
 30
0.0
 10
42.94322745315265
 20
84.98585110321218
 30
0.0
 10
49.33744087879269
 20
84.01922195247967
 30
0.0
 10
55.13943863691807
 20
82.82204834341704
 30
0.0
 10
62.09938463482342
 20
80.94627506796901
 30
0.0
 10
69.36931879972185
 20
78.13076666992326
 30
0.0
 10
75.88995656731144
 20
74.18274430186669
 30
0.0
 10
80.31350516400256
 20
69.869939907648
 30
0.0
 10
82.80660743067867
 20
65.391288988248
 30
0.0
 10
83.86193273677287
 20
59.33831793187213
 30
0.0
 10
81.77005282940542
 20
53.03960048636078
 30
0.0
 10
76.5025264953301
 20
46.908605051281
 30
0.0
 10
71.02443469408574
 20
42.61775746402832
 30
0.0
 10
65.24386806263314
 20
39.44137231647134
 30
0.0
 10
59.95878470316084
 20
37.23128499590032
 30
0.0
 10
55.61763207337804
 20
35.74576494545016
 30
0.0
 10
51.0294570008728
 20
34.17854007219073
 30
0.0
 10
47.86646317575394
 20
32.89507342080427
 30
0.0
 10
46.32616214337701
 20
32.17913283362569
 30
0.0
  0
ARC
  5
75
330
1F
100
AcDbEntity
  8
0
  6
Continuous
 62
     7
370
    25
100
AcDbCircle
 10
40.0036751713
 20
45.7815649135
 30
0.0
 40
15.0
100
AcDbArc
 50
228.692381588
 51
294.9292701574
  0
SPLINE
  5
76
330
1F
100
AcDbEntity
  8
0
  6
Continuous
 62
     7
370
    25
100
AcDbSpline
210
0.0
220
0.0
230
1.0
 70
     8
 71
     3
 72
     9
 73
     5
 74
     0
 42
0.000000001
 43
0.00000001
 40
0.4885273361887133
 40
0.4885273361887133
 40
0.4885273361887133
 40
0.4885273361887133
 40
0.5330359252460518
 40
0.6144506664680843
 40
0.6144506664680843
 40
0.6144506664680843
 40
0.6144506664680843
 10
30.10215184636681
 20
34.51391938098742
 30
0.0
 10
27.52770507650022
 20
36.77623271583474
 30
0.0
 10
19.66337762229238
 20
43.80831972560055
 30
0.0
 10
13.68819612804511
 20
52.86289676638658
 30
0.0
 10
10.2351039483721
 20
57.59253132716586
 30
0.0
  0
ARC
  5
77
330
1F
100
AcDbEntity
  8
0
  6
Continuous
 62
     7
370
    25
100
AcDbCircle
 10
22.3498489499
 20
66.4374707587
 30
0.0
 40
15.0
100
AcDbArc
 50
199.369624991
 51
216.13307097
  0
SPLINE
  5
78
330
1F
100
AcDbEntity
  8
0
  6
Continuous
 62
     7
370
    25
100
AcDbSpline
210
0.0
220
0.0
230
1.0
 70
     8
 71
     3
 72
    29
 73
    25
 74
     0
 42
0.000000001
 43
0.00000001
 40
0.9808873946358106
 40
0.9808873946358106
 40
0.9808873946358106
 40
0.9808873946358106
 40
0.982421875
 40
0.984375
 40
0.986328125
 40
0.9873046875
 40
0.98828125
 40
0.990234375
 40
0.9921875
 40
0.994140625
 40
0.99609375
 40
0.998046875
 40
1.0
 40
1.001953125
 40
1.00390625
 40
1.005859375
 40
1.0078125
 40
1.009765625
 40
1.01171875
 40
1.0126953125
 40
1.013671875
 40
1.015625
 40
1.017578125
 40
1.019112605364172
 40
1.019112605364172
 40
1.019112605364172
 40
1.019112605364172
 10
8.198869670970065
 20
61.46255513659613
 30
0.0
 10
8.127230224832124
 20
61.66633111891458
 30
0.0
 10
7.946645935722374
 20
62.15510260031643
 30
0.0
 10
7.565967575491712
 20
63.00690026964867
 30
0.0
 10
7.049466457968615
 20
63.85313376263458
 30
0.0
 10
6.464457682969987
 20
64.54643998637688
 30
0.0
 10
5.716322985601225
 20
65.23448254745097
 30
0.0
 10
4.687271291806542
 20
65.84303540377411
 30
0.0
 10
3.520640046718821
 20
66.23184793888814
 30
0.0
 10
2.475415990055584
 20
66.4148041946121
 30
0.0
 10
1.547237030965542
 20
66.48564144551816
 30
0.0
 10
0.711503378863474
 20
66.50176659581625
 30
0.0
 10
-0.0000000000000085
 20
66.49911670209187
 30
0.0
 10
-0.7115033788634868
 20
66.50176659581625
 30
0.0
 10
-1.547237030965565
 20
66.48564144551813
 30
0.0
 10
-2.475415990055597
 20
66.4148041946121
 30
0.0
 10
-3.520640046718842
 20
66.23184793888811
 30
0.0
 10
-4.687271291806554
 20
65.84303540377411
 30
0.0
 10
-5.71632298560125
 20
65.23448254745098
 30
0.0
 10
-6.464457682969999
 20
64.54643998637688
 30
0.0
 10
-7.049466457968637
 20
63.85313376263456
 30
0.0
 10
-7.56596757549173
 20
63.0069002696487
 30
0.0
 10
-7.946645935721167
 20
62.15510260031913
 30
0.0
 10
-8.127230224830338
 20
61.66633111891947
 30
0.0
 10
-8.198869670967643
 20
61.46255513660307
 30
0.0
  0
ARC
  5
79
330
1F
100
AcDbEntity
  8
0
  6
Continuous
 62
     7
370
    25
100
AcDbCircle
 10
-22.3498489499
 20
66.4374707587
 30
0.0
 40
15.0
100
AcDbArc
 50
323.86692903
 51
340.6303750089
  0
SPLINE
  5
7A
330
1F
100
AcDbEntity
  8
0
  6
Continuous
 62
     7
370
    25
100
AcDbSpline
210
0.0
220
0.0
230
1.0
 70
     8
 71
     3
 72
     9
 73
     5
 74
     0
 42
0.000000001
 43
0.00000001
 40
0.790378571498092
 40
0.790378571498092
 40
0.790378571498092
 40
0.790378571498092
 40
0.8717933127201635
 40
0.9163019017774524
 40
0.9163019017774524
 40
0.9163019017774524
 40
0.9163019017774524
 10
-10.23510394836914
 20
57.59253132717642
 30
0.0
 10
-13.68819612804397
 20
52.86289676639626
 30
0.0
 10
-19.66337762229
 20
43.808319725609
 30
0.0
 10
-27.52770507649066
 20
36.77623271583612
 30
0.0
 10
-30.10215184635238
 20
34.51391938098824
 30
0.0
  0
ARC
  5
7B
330
1F
100
AcDbEntity
  8
0
  6
Continuous
 62
     7
370
    25
100
AcDbCircle
 10
-40.0036751713
 20
45.7815649135
 30
0.0
 40
15.0
100
AcDbArc
 50
245.0707298426
 51
311.3076184121
  0
SPLINE
  5
7C
330
1F
100
AcDbEntity
  8
0
  6
Continuous
 62
     7
370
    25
100
AcDbSpline
210
0.0
220
0.0
230
1.0
 70
     8
 71
     3
 72
    29
 73
    25
 74
     0
 42
0.000000001
 43
0.00000001
 40
0.0
 40
0.0
 40
0.0
 40
0.0
 40
0.0078125
 40
0.015625
 40
0.03125
 40
0.046875
 40
0.0625
 40
0.09375
 40
0.125
 40
0.15625
 40
0.1875
 40
0.25
 40
0.3125
 40
0.375
 40
0.4375
 40
0.5
 40
0.625
 40
0.6875
 40
0.75
 40
0.8125
 40
0.84375
 40
0.875
 40
0.90625
 40
0.935227209508205
 40
0.935227209508205
 40
0.935227209508205
 40
0.935227209508205
 10
-20.0
 20
86.25000000000001
 30
0.0
 10
-20.70581975178071
 20
86.25000000000001
 30
0.0
 10
-22.12698557222868
 20
86.24354907950358
 30
0.0
 10
-24.89293163386218
 20
86.20524582554533
 30
0.0
 10
-28.26037317715572
 20
86.11049460402361
 30
0.0
 10
-32.14205759675477
 20
85.92422455865649
 30
0.0
 10
-37.11293015669801
 20
85.58236291958565
 30
0.0
 10
-42.94322745315265
 20
84.98585110321218
 30
0.0
 10
-49.33744087879269
 20
84.01922195247967
 30
0.0
 10
-55.13943863691807
 20
82.82204834341704
 30
0.0
 10
-62.09938463482342
 20
80.94627506796901
 30
0.0
 10
-69.36931879972185
 20
78.13076666992326
 30
0.0
 10
-75.88995656731144
 20
74.18274430186669
 30
0.0
 10
-80.31350516400256
 20
69.869939907648
 30
0.0
 10
-82.80660743067867
 20
65.391288988248
 30
0.0
 10
-83.86193273677287
 20
59.33831793187213
 30
0.0
 10
-81.77005282940542
 20
53.03960048636078
 30
0.0
 10
-76.5025264953301
 20
46.908605051281
 30
0.0
 10
-71.02443469408574
 20
42.61775746402832
 30
0.0
 10
-65.24386806263314
 20
39.44137231647134
 30
0.0
 10
-59.95878470316084
 20
37.23128499590032
 30
0.0
 10
-55.61763207337804
 20
35.74576494545016
 30
0.0
 10
-51.02945700087059
 20
34.17854007218997
 30
0.0
 10
-47.86646317574934
 20
32.8950734208024
 30
0.0
 10
-46.32616214337001
 20
32.17913283362244
 30
0.0
  0
LINE
  5
7D
330
1F
100
AcDbEntity
  8
0
  6
Continuous
 62
     7
370
    25
100
AcDbLine
 10
20.0
 20
86.25
 30
0.0
 11
-20.0
 21
86.25
 31
0.0
  0
SPLINE
  5
7E
330
1F
100
AcDbEntity
  8
0
  6
Continuous
 62
     7
370
    25
100
AcDbSpline
210
0.0
220
0.0
230
1.0
 70
     8
 71
     3
 72
    30
 73
    26
 74
     0
 42
0.000000001
 43
0.00000001
 40
0.0719268633836284
 40
0.0719268633836284
 40
0.0719268633836284
 40
0.0719268633836284
 40
0.09375
 40
0.125
 40
0.15625
 40
0.1875
 40
0.25
 40
0.3125
 40
0.375
 40
0.4375
 40
0.5
 40
0.5625
 40
0.625
 40
0.6875
 40
0.75
 40
0.8125
 40
0.84375
 40
0.875
 40
0.90625
 40
0.9375
 40
0.953125
 40
0.96875
 40
0.984375
 40
0.9921875
 40
1.0
 40
1.0
 40
1.0
 40
1.0
 10
-48.86701787565428
 20
29.48574168556473
 30
0.0
 10
-49.95020475007919
 20
29.95981099949842
 30
0.0
 10
-52.58065804725437
 20
31.00892921029204
 30
0.0
 10
-56.70868942408939
 20
32.42040143061008
 30
0.0
 10
-61.18197369703499
 20
33.94960244449609
 30
0.0
 10
-66.78087128338007
 20
36.28874298703614
 30
0.0
 10
-72.9291443780961
 20
39.66445410621515
 30
0.0
 10
-78.9008696967271
 20
44.3303766883693
 30
0.0
 10
-83.35667012991185
 20
49.48927133230965
 30
0.0
 10
-86.17403331818207
 20
55.03624085828933
 30
0.0
 10
-87.17127781704299
 20
60.83652054234084
 30
0.0
 10
-86.15584112373558
 20
66.63325533849218
 30
0.0
 10
-83.07836157927298
 20
72.09562801977786
 30
0.0
 10
-77.98693283313717
 20
77.02124516468815
 30
0.0
 10
-70.86835635695876
 20
81.31210076597935
 30
0.0
 10
-63.18535089136187
 20
84.27963386587692
 30
0.0
 10
-55.94076889569223
 20
86.23121305668596
 30
0.0
 10
-49.94580694538306
 20
87.46761180632075
 30
0.0
 10
-43.37687312166853
 20
88.4602289607278
 30
0.0
 10
-37.41434775459423
 20
89.06999337409248
 30
0.0
 10
-32.34474729338285
 20
89.41860156161205
 30
0.0
 10
-28.39230539898321
 20
89.60823481188334
 30
0.0
 10
-24.96852970430841
 20
89.70455088690615
 30
0.0
 10
-22.1588535327997
 20
89.74345346341059
 30
0.0
 10
-20.71649886803127
 20
89.75000000000001
 30
0.0
 10
-20.0
 20
89.75000000000001
 30
0.0
  0
ARC
  5
7F
330
1F
100
AcDbEntity
  8
0
  6
Continuous
 62
     7
370
    25
100
AcDbCircle
 10
-52.876448858
 20
20.3247120929
 30
0.0
 40
10.00000000000002
100
AcDbArc
 50
338.0345272063
 51
66.36285065
  0
SPLINE
  5
80
330
1F
100
AcDbEntity
  8
0
  6
Continuous
 62
     7
370
    25
100
AcDbSpline
210
0.0
220
0.0
230
1.0
 70
     8
 71
     3
 72
    14
 73
    10
 74
     0
 42
0.000000001
 43
0.00000001
 40
0.212955306892529
 40
0.212955306892529
 40
0.212955306892529
 40
0.212955306892529
 40
0.21875
 40
0.25
 40
0.265625
 40
0.28125
 40
0.296875
 40
0.3125
 40
0.3211894588675668
 40
0.3211894588675668
 40
0.3211894588675668
 40
0.3211894588675668
 10
-43.60235456627067
 20
16.58423417300137
 30
0.0
 10
-43.8539804206101
 20
15.96035616881048
 30
0.0
 10
-45.36202736121074
 20
11.9268072159636
 30
0.0
 10
-46.69251332359762
 20
5.837642482926901
 30
0.0
 10
-47.76044868467981
 20
-1.429159322237976
 30
0.0
 10
-48.38986486521796
 20
-6.978434712206547
 30
0.0
 10
-48.68348508118928
 20
-12.55262271387124
 30
0.0
 10
-48.53282549951408
 20
-17.25484988030601
 30
0.0
 10
-48.18437733095755
 20
-20.06541051745983
 30
0.0
 10
-48.02229840807257
 20
-21.0603784781338
 30
0.0
  0
ARC
  5
81
330
1F
100
AcDbEntity
  8
0
  6
Continuous
 62
     7
370
    25
100
AcDbCircle
 10
-57.8922021038
 20
-22.66817232
 30
0.0
 40
10.0000000000001
100
AcDbArc
 50
261.6138410819
 51
9.2521373488
  0
SPLINE
  5
82
330
1F
100
AcDbEntity
  8
0
  6
Continuous
 62
     7
370
    25
100
AcDbSpline
210
0.0
220
0.0
230
1.0
 70
     8
 71
     3
 72
    28
 73
    24
 74
     0
 42
0.000000001
 43
0.00000001
 40
0.0
 40
0.0
 40
0.0
 40
0.0
 40
0.0078125
 40
0.015625
 40
0.03125
 40
0.046875
 40
0.0625
 40
0.09375
 40
0.125
 40
0.15625
 40
0.1875
 40
0.25
 40
0.3125
 40
0.375
 40
0.4375
 40
0.5
 40
0.625
 40
0.6875
 40
0.75
 40
0.8125
 40
0.84375
 40
0.875
 40
0.903008505085209
 40
0.903008505085209
 40
0.903008505085209
 40
0.903008505085209
 10
-2.500000000000001
 20
96.25
 30
0.0
 10
-3.875341478117787
 20
96.25
 30
0.0
 10
-6.649247195205882
 20
96.23174609060449
 30
0.0
 10
-12.01055803499135
 20
96.1234789125959
 30
0.0
 10
-18.49370366979326
 20
95.85595555700087
 30
0.0
 10
-25.8899120597401
 20
95.33100426261979
 30
0.0
 10
-35.26322010314629
 20
94.36933876227494
 30
0.0
 10
-46.07404413552891
 20
92.69565617714409
 30
0.0
 10
-57.65262988492564
 20
89.99458342397567
 30
0.0
 10
-67.88984505282176
 20
86.66364962643932
 30
0.0
 10
-79.82487206392923
 20
81.46700432382816
 30
0.0
 10
-91.67012664552706
 20
73.71460455602644
 30
0.0
 10
-101.4580067941938
 20
62.8939467253678
 30
0.0
 10
-107.3331577959747
 20
50.98320156054628
 30
0.0
 10
-109.7546441709454
 20
38.35935235691173
 30
0.0
 10
-108.9067234455211
 20
21.11978786480212
 30
0.0
 10
-102.7060570642024
 20
4.184255679968452
 30
0.0
 10
-92.80775769321447
 20
-10.50600423640539
 30
0.0
 10
-83.97627211898117
 20
-19.91724658434098
 30
0.0
 10
-75.82265105538515
 20
-26.02199399481845
 30
0.0
 10
-69.0492838208353
 20
-29.64018557128705
 30
0.0
 10
-64.10173745457153
 20
-31.58349415837652
 30
0.0
 10
-60.87204236207977
 20
-32.33696300624623
 30
0.0
 10
-59.35064253735978
 20
-32.56124825727382
 30
0.0
  0
LINE
  5
83
330
1F
100
AcDbEntity
  8
0
  6
Continuous
 62
     7
370
    25
100
AcDbLine
 10
-2.5
 20
99.75
 30
0.0
 11
-2.5
 21
96.25
 31
0.0
  0
SPLINE
  5
84
330
1F
100
AcDbEntity
  8
0
  6
Continuous
 62
     7
370
    25
100
AcDbSpline
210
0.0
220
0.0
230
1.0
 70
     8
 71
     3
 72
    32
 73
    28
 74
     0
 42
0.000000001
 43
0.00000001
 40
0.0376886677783425
 40
0.0376886677783425
 40
0.0376886677783425
 40
0.0376886677783425
 40
0.046875
 40
0.0625
 40
0.09375
 40
0.125
 40
0.15625
 40
0.1875
 40
0.25
 40
0.3125
 40
0.375
 40
0.4375
 40
0.5
 40
0.5625
 40
0.625
 40
0.6875
 40
0.75
 40
0.8125
 40
0.84375
 40
0.875
 40
0.90625
 40
0.9375
 40
0.953125
 40
0.96875
 40
0.984375
 40
0.9921875
 40
1.0
 40
1.0
 40
1.0
 40
1.0
 10
-48.825735804182
 20
-35.43001426872084
 30
0.0
 10
-49.39758376293133
 20
-35.58604363728529
 30
0.0
 10
-50.94333943177644
 20
-35.95042025666855
 30
0.0
 10
-54.43896412413967
 20
-36.43830317668925
 30
0.0
 10
-59.28324473257545
 20
-36.29106977396778
 30
0.0
 10
-64.98426491263484
 20
-35.0026780665616
 30
0.0
 10
-70.53748897612175
 20
-32.81658585942601
 30
0.0
 10
-77.74873969276322
 20
-28.96129797781776
 30
0.0
 10
-86.33856515452122
 20
-22.5233898782083
 30
0.0
 10
-95.55991714716265
 20
-12.69194023702766
 30
0.0
 10
-103.2935277060644
 20
-1.213485625649208
 30
0.0
 10
-109.1178527371642
 20
11.45869037218495
 30
0.0
 10
-112.5983501345806
 20
24.87544137164003
 30
0.0
 10
-113.2814738407713
 20
38.58341261964443
 30
0.0
 10
-110.695113553681
 20
52.10499840321651
 30
0.0
 10
-104.3764250192712
 20
64.91068015197055
 30
0.0
 10
-93.92697178863796
 20
76.44100513662003
 30
0.0
 10
-81.48994754186234
 20
84.56277655850998
 30
0.0
 10
-69.11951950598102
 20
89.94622618909827
 30
0.0
 10
-58.58066856944676
 20
93.37367801127121
 30
0.0
 10
-46.72869036213035
 20
96.13724134943735
 30
0.0
 10
-35.71352689389051
 20
97.84174413734692
 30
0.0
 10
-26.19005523924531
 20
98.81868807882383
 30
0.0
 10
-18.68754351426811
 20
99.35109142668102
 30
0.0
 10
-12.12094784642384
 20
99.62200073221894
 30
0.0
 10
-6.695508495554502
 20
99.73154545365495
 30
0.0
 10
-3.890873504087882
 20
99.75
 30
0.0
 10
-2.499999999999999
 20
99.75
 30
0.0
  0
ARC
  5
85
330
1F
100
AcDbEntity
  8
0
  6
Continuous
 62
     7
370
    25
100
AcDbCircle
 10
-46.1934494872
 20
-45.0773490688
 30
0.0
 40
10.0
100
AcDbArc
 50
46.7292850646
 51
105.2617243353
  0
SPLINE
  5
86
330
1F
100
AcDbEntity
  8
0
  6
Continuous
 62
     7
370
    25
100
AcDbSpline
210
0.0
220
0.0
230
1.0
 70
     8
 71
     3
 72
    21
 73
    17
 74
     0
 42
0.000000001
 43
0.00000001
 40
0.3764474612193248
 40
0.3764474612193248
 40
0.3764474612193248
 40
0.3764474612193248
 40
0.390625
 40
0.40625
 40
0.4375
 40
0.453125
 40
0.46875
 40
0.484375
 40
0.5
 40
0.515625
 40
0.53125
 40
0.546875
 40
0.5625
 40
0.59375
 40
0.609375
 40
0.623552538780675
 40
0.623552538780675
 40
0.623552538780675
 40
0.623552538780675
 10
-39.33898665155703
 20
-37.79611708281112
 30
0.0
 10
-38.13713722862254
 20
-38.92752344637532
 30
0.0
 10
-35.43354819784645
 20
-41.12996509622681
 30
0.0
 10
-29.33140474444759
 20
-44.99549714453904
 30
0.0
 10
-22.51111244982868
 20
-48.07812732898157
 30
0.0
 10
-15.76309555550019
 20
-50.58224881820731
 30
0.0
 10
-10.61285395455782
 20
-52.14784693523602
 30
0.0
 10
-5.376287667745751
 20
-53.22101376293259
 30
0.0
 10
0.0000000000000421
 20
-53.63949311853372
 30
0.0
 10
5.37628766774583
 20
-53.22101376293259
 30
0.0
 10
10.61285395455789
 20
-52.14784693523601
 30
0.0
 10
15.76309555550026
 20
-50.58224881820729
 30
0.0
 10
22.51111244982872
 20
-48.07812732898157
 30
0.0
 10
29.3314047444476
 20
-44.99549714453901
 30
0.0
 10
35.43354819784647
 20
-41.12996509622683
 30
0.0
 10
38.1371372286225
 20
-38.92752344637535
 30
0.0
 10
39.33898665155697
 20
-37.79611708281116
 30
0.0
  0
ARC
  5
87
330
1F
100
AcDbEntity
  8
0
  6
Continuous
 62
     7
370
    25
100
AcDbCircle
 10
46.1934494872
 20
-45.0773490688
 30
0.0
 40
9.999999999999996
100
AcDbArc
 50
74.7382756647
 51
133.2707149354
  0
SPLINE
  5
88
330
1F
100
AcDbEntity
  8
0
  6
Continuous
 62
     7
370
    25
100
AcDbSpline
210
0.0
220
0.0
230
1.0
 70
     8
 71
     3
 72
    32
 73
    28
 74
     0
 42
0.000000001
 43
0.00000001
 40
0.037688667778342
 40
0.037688667778342
 40
0.037688667778342
 40
0.037688667778342
 40
0.046875
 40
0.0625
 40
0.09375
 40
0.125
 40
0.15625
 40
0.1875
 40
0.25
 40
0.3125
 40
0.375
 40
0.4375
 40
0.5
 40
0.5625
 40
0.625
 40
0.6875
 40
0.75
 40
0.8125
 40
0.84375
 40
0.875
 40
0.90625
 40
0.9375
 40
0.953125
 40
0.96875
 40
0.984375
 40
0.9921875
 40
1.0
 40
1.0
 40
1.0
 40
1.0
 10
48.8257358041819
 20
-35.4300142687208
 30
0.0
 10
49.39758376293127
 20
-35.58604363728526
 30
0.0
 10
50.9433394317764
 20
-35.95042025666854
 30
0.0
 10
54.43896412413967
 20
-36.43830317668925
 30
0.0
 10
59.28324473257545
 20
-36.29106977396778
 30
0.0
 10
64.98426491263484
 20
-35.0026780665616
 30
0.0
 10
70.53748897612175
 20
-32.81658585942601
 30
0.0
 10
77.74873969276322
 20
-28.96129797781776
 30
0.0
 10
86.33856515452122
 20
-22.5233898782083
 30
0.0
 10
95.55991714716265
 20
-12.69194023702766
 30
0.0
 10
103.2935277060644
 20
-1.213485625649208
 30
0.0
 10
109.1178527371642
 20
11.45869037218495
 30
0.0
 10
112.5983501345806
 20
24.87544137164003
 30
0.0
 10
113.2814738407713
 20
38.58341261964443
 30
0.0
 10
110.695113553681
 20
52.10499840321651
 30
0.0
 10
104.3764250192712
 20
64.91068015197055
 30
0.0
 10
93.92697178863796
 20
76.44100513662003
 30
0.0
 10
81.48994754186234
 20
84.56277655850998
 30
0.0
 10
69.11951950598102
 20
89.94622618909827
 30
0.0
 10
58.58066856944676
 20
93.37367801127121
 30
0.0
 10
46.72869036213035
 20
96.13724134943735
 30
0.0
 10
35.71352689389051
 20
97.84174413734692
 30
0.0
 10
26.19005523924531
 20
98.81868807882383
 30
0.0
 10
18.68754351426811
 20
99.35109142668102
 30
0.0
 10
12.12094784642384
 20
99.62200073221894
 30
0.0
 10
6.695508495554502
 20
99.73154545365495
 30
0.0
 10
3.890873504087882
 20
99.75
 30
0.0
 10
2.499999999999999
 20
99.75
 30
0.0
  0
LINE
  5
89
330
1F
100
AcDbEntity
  8
0
  6
Continuous
 62
     7
370
    25
100
AcDbLine
 10
2.5
 20
99.75
 30
0.0
 11
2.5
 21
96.25
 31
0.0
  0
SPLINE
  5
8A
330
1F
100
AcDbEntity
  8
0
  6
Continuous
 62
     7
370
    25
100
AcDbSpline
210
0.0
220
0.0
230
1.0
 70
     8
 71
     3
 72
    28
 73
    24
 74
     0
 42
0.000000001
 43
0.00000001
 40
0.0
 40
0.0
 40
0.0
 40
0.0
 40
0.0078125
 40
0.015625
 40
0.03125
 40
0.046875
 40
0.0625
 40
0.09375
 40
0.125
 40
0.15625
 40
0.1875
 40
0.25
 40
0.3125
 40
0.375
 40
0.4375
 40
0.5
 40
0.625
 40
0.6875
 40
0.75
 40
0.8125
 40
0.84375
 40
0.875
 40
0.9030085050852095
 40
0.9030085050852095
 40
0.9030085050852095
 40
0.9030085050852095
 10
2.500000000000001
 20
96.25
 30
0.0
 10
3.875341478117787
 20
96.25
 30
0.0
 10
6.649247195205882
 20
96.23174609060449
 30
0.0
 10
12.01055803499135
 20
96.1234789125959
 30
0.0
 10
18.49370366979326
 20
95.85595555700087
 30
0.0
 10
25.8899120597401
 20
95.33100426261979
 30
0.0
 10
35.26322010314629
 20
94.36933876227494
 30
0.0
 10
46.07404413552891
 20
92.69565617714409
 30
0.0
 10
57.65262988492564
 20
89.99458342397567
 30
0.0
 10
67.88984505282176
 20
86.66364962643932
 30
0.0
 10
79.82487206392923
 20
81.46700432382816
 30
0.0
 10
91.67012664552706
 20
73.71460455602644
 30
0.0
 10
101.4580067941938
 20
62.8939467253678
 30
0.0
 10
107.3331577959747
 20
50.98320156054628
 30
0.0
 10
109.7546441709454
 20
38.35935235691173
 30
0.0
 10
108.9067234455211
 20
21.11978786480212
 30
0.0
 10
102.7060570642024
 20
4.184255679968452
 30
0.0
 10
92.80775769321447
 20
-10.50600423640539
 30
0.0
 10
83.97627211898117
 20
-19.91724658434098
 30
0.0
 10
75.82265105538515
 20
-26.02199399481845
 30
0.0
 10
69.0492838208353
 20
-29.64018557128705
 30
0.0
 10
64.1017374545715
 20
-31.58349415837653
 30
0.0
 10
60.87204236207972
 20
-32.33696300624624
 30
0.0
 10
59.35064253735971
 20
-32.56124825727383
 30
0.0
  0
ARC
  5
8B
330
1F
100
AcDbEntity
  8
0
  6
Continuous
 62
     7
370
    25
100
AcDbCircle
 10
57.8922021038
 20
-22.66817232
 30
0.0
 40
10.00000000000001
100
AcDbArc
 50
170.7478626512
 51
278.3861589181
  0
SPLINE
  5
8C
330
1F
100
AcDbEntity
  8
0
  6
Continuous
 62
     7
370
    25
100
AcDbSpline
210
0.0
220
0.0
230
1.0
 70
     8
 71
     3
 72
    14
 73
    10
 74
     0
 42
0.000000001
 43
0.00000001
 40
0.6788105411324329
 40
0.6788105411324329
 40
0.6788105411324329
 40
0.6788105411324329
 40
0.6875
 40
0.703125
 40
0.71875
 40
0.734375
 40
0.75
 40
0.78125
 40
0.7870446931074709
 40
0.7870446931074709
 40
0.7870446931074709
 40
0.7870446931074709
 10
48.02229840807255
 20
-21.06037847813388
 30
0.0
 10
48.18437733095754
 20
-20.06541051745988
 30
0.0
 10
48.53282549951408
 20
-17.25484988030602
 30
0.0
 10
48.6834850811893
 20
-12.55262271387122
 30
0.0
 10
48.38986486521796
 20
-6.978434712206513
 30
0.0
 10
47.76044868467982
 20
-1.429159322237936
 30
0.0
 10
46.69251332359762
 20
5.837642482926953
 30
0.0
 10
45.36202736121072
 20
11.92680721596365
 30
0.0
 10
43.85398042061008
 20
15.9603561688105
 30
0.0
 10
43.60235456627066
 20
16.58423417300138
 30
0.0
  0
ARC
  5
8D
330
1F
100
AcDbEntity
  8
0
  6
Continuous
 62
     7
370
    25
100
AcDbCircle
 10
52.876448858
 20
20.3247120929
 30
0.0
 40
10.0
100
AcDbArc
 50
113.63714935
 51
201.9654727937
  0
SPLINE
  5
8E
330
1F
100
AcDbEntity
  8
0
  6
Continuous
 62
     7
370
    25
100
AcDbSpline
210
0.0
220
0.0
230
1.0
 70
     8
 71
     3
 72
    30
 73
    26
 74
     0
 42
0.000000001
 43
0.00000001
 40
0.0719268633836281
 40
0.0719268633836281
 40
0.0719268633836281
 40
0.0719268633836281
 40
0.09375
 40
0.125
 40
0.15625
 40
0.1875
 40
0.25
 40
0.3125
 40
0.375
 40
0.4375
 40
0.5
 40
0.5625
 40
0.625
 40
0.6875
 40
0.75
 40
0.8125
 40
0.84375
 40
0.875
 40
0.90625
 40
0.9375
 40
0.953125
 40
0.96875
 40
0.984375
 40
0.9921875
 40
1.0
 40
1.0
 40
1.0
 40
1.0
 10
48.86701787565423
 20
29.48574168556471
 30
0.0
 10
49.95020475007917
 20
29.9598109994984
 30
0.0
 10
52.58065804725435
 20
31.00892921029203
 30
0.0
 10
56.70868942408939
 20
32.42040143061008
 30
0.0
 10
61.18197369703499
 20
33.94960244449609
 30
0.0
 10
66.78087128338007
 20
36.28874298703614
 30
0.0
 10
72.9291443780961
 20
39.66445410621515
 30
0.0
 10
78.9008696967271
 20
44.3303766883693
 30
0.0
 10
83.35667012991185
 20
49.48927133230965
 30
0.0
 10
86.17403331818207
 20
55.03624085828933
 30
0.0
 10
87.17127781704299
 20
60.83652054234084
 30
0.0
 10
86.15584112373558
 20
66.63325533849218
 30
0.0
 10
83.07836157927298
 20
72.09562801977786
 30
0.0
 10
77.98693283313717
 20
77.02124516468815
 30
0.0
 10
70.86835635695876
 20
81.31210076597935
 30
0.0
 10
63.18535089136187
 20
84.27963386587692
 30
0.0
 10
55.94076889569223
 20
86.23121305668596
 30
0.0
 10
49.94580694538306
 20
87.46761180632075
 30
0.0
 10
43.37687312166853
 20
88.4602289607278
 30
0.0
 10
37.41434775459423
 20
89.06999337409248
 30
0.0
 10
32.34474729338285
 20
89.41860156161205
 30
0.0
 10
28.39230539898321
 20
89.60823481188334
 30
0.0
 10
24.96852970430841
 20
89.70455088690615
 30
0.0
 10
22.1588535327997
 20
89.74345346341059
 30
0.0
 10
20.71649886803127
 20
89.75000000000001
 30
0.0
 10
20.0
 20
89.75000000000001
 30
0.0
  0
LINE
  5
8F
330
1F
100
AcDbEntity
  8
0
  6
Continuous
 62
     7
370
    25
100
AcDbLine
 10
20.0
 20
89.75
 30
0.0
 11
-20.0
 21
89.75
 31
0.0
  0
MTEXT
  5
91
330
1F
100
AcDbEntity
  8
0
  6
Continuous
 62
     7
100
AcDbMText
 10
-112.8669713344
 20
-54.5195663917
 30
0.0
 40
4.83362
 41
0.0
 71
     1
 72
     1
  1
SOLIDWORKS Educational Product.
  7
SLDTEXTSTYLE0
 73
     1
 44
1.0
  0
MTEXT
  5
92
330
1F
100
AcDbEntity
  8
0
  6
Continuous
 62
     7
100
AcDbMText
 10
-112.8669713344
 20
-61.7699963917
 30
0.0
 40
4.83362
 41
0.0
 71
     1
 72
     1
  1
For Instructional Use Only.
  7
SLDTEXTSTYLE0
 73
     1
 44
1.0
  0
ENDSEC
  0
SECTION
  2
OBJECTS
  0
DICTIONARY
  5
C
330
0
100
AcDbDictionary
281
     1
  3
ACAD_GROUP
350
D
  3
ACAD_LAYOUT
350
1A
  3
ACAD_MLINESTYLE
350
17
  3
ACAD_PLOTSETTINGS
350
19
  3
ACAD_PLOTSTYLENAME
350
E
  3
ACAD_SCALELIST
350
47
  0
DICTIONARY
  5
D
102
{ACAD_REACTORS
330
C
102
}
330
C
100
AcDbDictionary
281
     1
  0
DICTIONARY
  5
1A
102
{ACAD_REACTORS
330
C
102
}
330
C
100
AcDbDictionary
281
     1
  3
Layout1
350
1E
  3
Layout2
350
26
  3
Model
350
22
  0
DICTIONARY
  5
17
102
{ACAD_REACTORS
330
C
102
}
330
C
100
AcDbDictionary
281
     1
  3
Standard
350
18
  0
DICTIONARY
  5
19
102
{ACAD_REACTORS
330
C
102
}
330
C
100
AcDbDictionary
281
     1
  0
ACDBDICTIONARYWDFLT
  5
E
102
{ACAD_REACTORS
330
C
102
}
330
C
100
AcDbDictionary
281
     1
  3
Normal
350
F
100
AcDbDictionaryWithDefault
340
F
  0
DICTIONARY
  5
47
102
{ACAD_REACTORS
330
C
102
}
330
C
100
AcDbDictionary
281
     1
  3
A0
350
48
  3
A1
350
49
  3
A2
350
4A
  3
A3
350
4B
  3
A4
350
4C
  3
A5
350
4D
  3
A6
350
4E
  3
A7
350
4F
  3
A8
350
50
  3
A9
350
51
  3
B0
350
52
  3
B1
350
53
  3
B2
350
54
  3
B3
350
55
  3
B4
350
56
  3
B5
350
57
  3
B6
350
58
  3
B7
350
59
  3
B8
350
5A
  3
B9
350
5B
  3
C0
350
5C
  3
C1
350
5D
  3
C2
350
5E
  3
C3
350
5F
  3
C4
350
60
  3
C5
350
61
  3
C6
350
62
  3
C7
350
63
  3
C8
350
64
  3
C9
350
65
  3
D0
350
66
  3
D1
350
67
  3
D2
350
68
  0
LAYOUT
  5
1E
102
{ACAD_REACTORS
330
1A
102
}
330
1A
100
AcDbPlotSettings
  1

  2
none_device
  4

  6

 40
0.0
 41
0.0
 42
0.0
 43
0.0
 44
0.0
 45
0.0
 46
0.0
 47
0.0
 48
0.0
 49
0.0
140
0.0
141
0.0
142
1.0
143
1.0
 70
   688
 72
     1
 73
     0
 74
     5
  7

 75
    16
147
1.0
148
0.0
149
0.0
100
AcDbLayout
  1
Layout1
 70
     1
 71
     1
 10
0.0
 20
0.0
 11
420.0
 21
297.0
 12
0.0
 22
0.0
 32
0.0
 14
1.0000000000E+20
 24
1.0000000000E+20
 34
1.0000000000E+20
 15
-1.0000000000E+20
 25
-1.0000000000E+20
 35
-1.0000000000E+20
146
0.0
 13
0.0
 23
0.0
 33
0.0
 16
1.0
 26
0.0
 36
0.0
 17
0.0
 27
1.0
 37
0.0
 76
     0
330
1B
  0
LAYOUT
  5
26
102
{ACAD_REACTORS
330
1A
102
}
330
1A
100
AcDbPlotSettings
  1

  2
none_device
  4

  6

 40
0.0
 41
0.0
 42
0.0
 43
0.0
 44
0.0
 45
0.0
 46
0.0
 47
0.0
 48
0.0
 49
0.0
140
0.0
141
0.0
142
1.0
143
1.0
 70
   688
 72
     1
 73
     0
 74
     5
  7

 75
    16
147
1.0
148
0.0
149
0.0
100
AcDbLayout
  1
Layout2
 70
     1
 71
     2
 10
0.0
 20
0.0
 11
0.0
 21
0.0
 12
0.0
 22
0.0
 32
0.0
 14
0.0
 24
0.0
 34
0.0
 15
0.0
 25
0.0
 35
0.0
146
0.0
 13
0.0
 23
0.0
 33
0.0
 16
1.0
 26
0.0
 36
0.0
 17
0.0
 27
1.0
 37
0.0
 76
     0
330
23
  0
LAYOUT
  5
22
102
{ACAD_REACTORS
330
1A
102
}
330
1A
100
AcDbPlotSettings
  1

  2
none_device
  4
ANSI_A_(11.00_x_8.50_Inches)
  6

 40
6.35
 41
19.05
 42
6.35000508
 43
19.05000254
 44
279.4
 45
215.9
 46
133.34999746
 47
60.5634815258
 48
0.0
 49
0.0
140
0.0
141
0.0
142
0.0482426341
143
1.0
 70
  1696
 72
     0
 73
     0
 74
     0
  7

 75
     0
147
0.0179189148
148
-1300.4909072572
149
0.0
100
AcDbLayout
  1
Model
 70
     1
 71
     0
 10
0.0
 20
0.0
 11
420.0
 21
297.0
 12
0.0
 22
0.0
 32
0.0
 14
-112.8669713344
 24
-53.5
 34
0.0
 15
112.8669713344
 25
99.75
 35
0.0
146
0.0
 13
0.0
 23
0.0
 33
0.0
 16
1.0
 26
0.0
 36
0.0
 17
0.0
 27
1.0
 37
0.0
 76
     0
330
1F
331
29
  0
MLINESTYLE
  5
18
102
{ACAD_REACTORS
330
17
102
}
330
17
100
AcDbMlineStyle
  2
Standard
 70
     0
  3

 62
   256
 51
90.0
 52
90.0
 71
     2
 49
0.5
 62
   256
  6
BYLAYER
 49
-0.5
 62
   256
  6
BYLAYER
  0
ACDBPLACEHOLDER
  5
F
102
{ACAD_REACTORS
330
E
102
}
330
E
  0
SCALE
  5
48
102
{ACAD_REACTORS
330
47
102
}
330
47
100
AcDbScale
 70
     0
300
1:1
140
1.0
141
1.0
290
     1
  0
SCALE
  5
49
102
{ACAD_REACTORS
330
47
102
}
330
47
100
AcDbScale
 70
     0
300
1:2
140
1.0
141
2.0
290
     0
  0
SCALE
  5
4A
102
{ACAD_REACTORS
330
47
102
}
330
47
100
AcDbScale
 70
     0
300
1:4
140
1.0
141
4.0
290
     0
  0
SCALE
  5
4B
102
{ACAD_REACTORS
330
47
102
}
330
47
100
AcDbScale
 70
     0
300
1:5
140
1.0
141
5.0
290
     0
  0
SCALE
  5
4C
102
{ACAD_REACTORS
330
47
102
}
330
47
100
AcDbScale
 70
     0
300
1:8
140
1.0
141
8.0
290
     0
  0
SCALE
  5
4D
102
{ACAD_REACTORS
330
47
102
}
330
47
100
AcDbScale
 70
     0
300
1:10
140
1.0
141
10.0
290
     0
  0
SCALE
  5
4E
102
{ACAD_REACTORS
330
47
102
}
330
47
100
AcDbScale
 70
     0
300
1:16
140
1.0
141
16.0
290
     0
  0
SCALE
  5
4F
102
{ACAD_REACTORS
330
47
102
}
330
47
100
AcDbScale
 70
     0
300
1:20
140
1.0
141
20.0
290
     0
  0
SCALE
  5
50
102
{ACAD_REACTORS
330
47
102
}
330
47
100
AcDbScale
 70
     0
300
1:30
140
1.0
141
30.0
290
     0
  0
SCALE
  5
51
102
{ACAD_REACTORS
330
47
102
}
330
47
100
AcDbScale
 70
     0
300
1:40
140
1.0
141
40.0
290
     0
  0
SCALE
  5
52
102
{ACAD_REACTORS
330
47
102
}
330
47
100
AcDbScale
 70
     0
300
1:50
140
1.0
141
50.0
290
     0
  0
SCALE
  5
53
102
{ACAD_REACTORS
330
47
102
}
330
47
100
AcDbScale
 70
     0
300
1:100
140
1.0
141
100.0
290
     0
  0
SCALE
  5
54
102
{ACAD_REACTORS
330
47
102
}
330
47
100
AcDbScale
 70
     0
300
2:1
140
2.0
141
1.0
290
     0
  0
SCALE
  5
55
102
{ACAD_REACTORS
330
47
102
}
330
47
100
AcDbScale
 70
     0
300
4:1
140
4.0
141
1.0
290
     0
  0
SCALE
  5
56
102
{ACAD_REACTORS
330
47
102
}
330
47
100
AcDbScale
 70
     0
300
8:1
140
8.0
141
1.0
290
     0
  0
SCALE
  5
57
102
{ACAD_REACTORS
330
47
102
}
330
47
100
AcDbScale
 70
     0
300
10:1
140
10.0
141
1.0
290
     0
  0
SCALE
  5
58
102
{ACAD_REACTORS
330
47
102
}
330
47
100
AcDbScale
 70
     0
300
100:1
140
100.0
141
1.0
290
     0
  0
SCALE
  5
59
102
{ACAD_REACTORS
330
47
102
}
330
47
100
AcDbScale
 70
     0
300
1/128" = 1'-0"
140
0.0078125
141
12.0
290
     0
  0
SCALE
  5
5A
102
{ACAD_REACTORS
330
47
102
}
330
47
100
AcDbScale
 70
     0
300
1/64" = 1'-0"
140
0.015625
141
12.0
290
     0
  0
SCALE
  5
5B
102
{ACAD_REACTORS
330
47
102
}
330
47
100
AcDbScale
 70
     0
300
1/32" = 1'-0"
140
0.03125
141
12.0
290
     0
  0
SCALE
  5
5C
102
{ACAD_REACTORS
330
47
102
}
330
47
100
AcDbScale
 70
     0
300
1/16" = 1'-0"
140
0.0625
141
12.0
290
     0
  0
SCALE
  5
5D
102
{ACAD_REACTORS
330
47
102
}
330
47
100
AcDbScale
 70
     0
300
3/32" = 1'-0"
140
0.09375
141
12.0
290
     0
  0
SCALE
  5
5E
102
{ACAD_REACTORS
330
47
102
}
330
47
100
AcDbScale
 70
     0
300
1/8" = 1'-0"
140
0.125
141
12.0
290
     0
  0
SCALE
  5
5F
102
{ACAD_REACTORS
330
47
102
}
330
47
100
AcDbScale
 70
     0
300
3/16" = 1'-0"
140
0.1875
141
12.0
290
     0
  0
SCALE
  5
60
102
{ACAD_REACTORS
330
47
102
}
330
47
100
AcDbScale
 70
     0
300
1/4" = 1'-0"
140
0.25
141
12.0
290
     0
  0
SCALE
  5
61
102
{ACAD_REACTORS
330
47
102
}
330
47
100
AcDbScale
 70
     0
300
3/8" = 1'-0"
140
0.375
141
12.0
290
     0
  0
SCALE
  5
62
102
{ACAD_REACTORS
330
47
102
}
330
47
100
AcDbScale
 70
     0
300
1/2" = 1'-0"
140
0.5
141
12.0
290
     0
  0
SCALE
  5
63
102
{ACAD_REACTORS
330
47
102
}
330
47
100
AcDbScale
 70
     0
300
3/4" = 1'-0"
140
0.75
141
12.0
290
     0
  0
SCALE
  5
64
102
{ACAD_REACTORS
330
47
102
}
330
47
100
AcDbScale
 70
     0
300
1" = 1'-0"
140
1.0
141
12.0
290
     0
  0
SCALE
  5
65
102
{ACAD_REACTORS
330
47
102
}
330
47
100
AcDbScale
 70
     0
300
1-1/2" = 1'-0"
140
1.5
141
12.0
290
     0
  0
SCALE
  5
66
102
{ACAD_REACTORS
330
47
102
}
330
47
100
AcDbScale
 70
     0
300
3" = 1'-0"
140
3.0
141
12.0
290
     0
  0
SCALE
  5
67
102
{ACAD_REACTORS
330
47
102
}
330
47
100
AcDbScale
 70
     0
300
6" = 1'-0"
140
6.0
141
12.0
290
     0
  0
SCALE
  5
68
102
{ACAD_REACTORS
330
47
102
}
330
47
100
AcDbScale
 70
     0
300
1'-0" = 1'-0"
140
12.0
141
12.0
290
     0
  0
ENDSEC
  0
EOF
