  0
SECTION
  2
HEADER
  9
$ACADVER
  1
AC1015
  9
$ACADMAINTVER
 70
     6
  9
$DWGCODEPAGE
  3
ANSI_1252
  9
$INSBASE
 10
0.0
 20
0.0
 30
0.0
  9
$EXTMIN
 10
-111.2147564451
 20
-53.5
 30
0.0
  9
$EXTMAX
 10
111.2147564451
 20
98.75
 30
0.0
  9
$LIMMIN
 10
0.0
 20
0.0
  9
$LIMMAX
 10
420.0
 20
297.0
  9
$ORTHOMODE
 70
     0
  9
$REGENMODE
 70
     1
  9
$FILLMODE
 70
     1
  9
$QTEXTMODE
 70
     0
  9
$MIRRTEXT
 70
     1
  9
$LTSCALE
 40
1.0
  9
$ATTMODE
 70
     1
  9
$TEXTSIZE
 40
3.5
  9
$TRACEWID
 40
1.0
  9
$TEXTSTYLE
  7
Standard
  9
$CLAYER
  8
0
  9
$CELTYPE
  6
ByLayer
  9
$CECOLOR
 62
   256
  9
$CELTSCALE
 40
1.0
  9
$DISPSILH
 70
     0
  9
$DIMSCALE
 40
1.0
  9
$DIMASZ
 40
3.302
  9
$DIMEXO
 40
1.0
  9
$DIMDLI
 40
3.75
  9
$DIMRND
 40
0.0
  9
$DIMDLE
 40
0.0
  9
$DIMEXE
 40
1.0
  9
$DIMTP
 40
0.0
  9
$DIMTM
 40
0.0
  9
$DIMTXT
 40
3.5
  9
$DIMCEN
 40
2.5
  9
$DIMTSZ
 40
0.0
  9
$DIMTOL
 70
     0
  9
$DIMLIM
 70
     0
  9
$DIMTIH
 70
     1
  9
$DIMTOH
 70
     1
  9
$DIMSE1
 70
     0
  9
$DIMSE2
 70
     0
  9
$DIMTAD
 70
     1
  9
$DIMZIN
 70
     1
  9
$DIMBLK
  1

  9
$DIMASO
 70
     1
  9
$DIMSHO
 70
     1
  9
$DIMPOST
  1

  9
$DIMAPOST
  1

  9
$DIMALT
 70
     0
  9
$DIMALTD
 70
     3
  9
$DIMALTF
 40
0.0393700787
  9
$DIMLFAC
 40
1.0
  9
$DIMTOFL
 70
     1
  9
$DIMTVP
 40
0.0
  9
$DIMTIX
 70
     0
  9
$DIMSOXD
 70
     0
  9
$DIMSAH
 70
     0
  9
$DIMBLK1
  1

  9
$DIMBLK2
  1

  9
$DIMSTYLE
  2
ISO-25
  9
$DIMCLRD
 70
     0
  9
$DIMCLRE
 70
     0
  9
$DIMCLRT
 70
     0
  9
$DIMTFAC
 40
1.0
  9
$DIMGAP
 40
1.524
  9
$DIMJUST
 70
     0
  9
$DIMSD1
 70
     0
  9
$DIMSD2
 70
     0
  9
$DIMTOLJ
 70
     0
  9
$DIMTZIN
 70
     1
  9
$DIMALTZ
 70
     0
  9
$DIMALTTZ
 70
     0
  9
$DIMUPT
 70
     0
  9
$DIMDEC
 70
     2
  9
$DIMTDEC
 70
     2
  9
$DIMALTU
 70
     2
  9
$DIMALTTD
 70
     3
  9
$DIMTXSTY
  7
Standard
  9
$DIMAUNIT
 70
     0
  9
$DIMADEC
 70
     2
  9
$DIMALTRND
 40
0.0
  9
$DIMAZIN
 70
     0
  9
$DIMDSEP
 70
    44
  9
$DIMATFIT
 70
     3
  9
$DIMFRAC
 70
     0
  9
$DIMLDRBLK
  1

  9
$DIMLUNIT
 70
     2
  9
$DIMLWD
 70
    -2
  9
$DIMLWE
 70
    -2
  9
$DIMTMOVE
 70
     0
  9
$LUNITS
 70
     2
  9
$LUPREC
 70
     2
  9
$SKETCHINC
 40
1.0
  9
$FILLETRAD
 40
10.0
  9
$AUNITS
 70
     0
  9
$AUPREC
 70
     2
  9
$MENU
  1
.
  9
$ELEVATION
 40
0.0
  9
$PELEVATION
 40
0.0
  9
$THICKNESS
 40
0.0
  9
$LIMCHECK
 70
     0
  9
$CHAMFERA
 40
0.0
  9
$CHAMFERB
 40
0.0
  9
$CHAMFERC
 40
0.0
  9
$CHAMFERD
 40
0.0
  9
$SKPOLY
 70
     0
  9
$TDCREATE
 40
2459028.419589479
  9
$TDUCREATE
 40
2459028.711256146
  9
$TDUPDATE
 40
2459028.419626354
  9
$TDUUPDATE
 40
2459028.711293021
  9
$TDINDWG
 40
0.0000000116
  9
$TDUSRTIMER
 40
0.0000000116
  9
$USRTIMER
 70
     1
  9
$ANGBASE
 50
0.0
  9
$ANGDIR
 70
     0
  9
$PDMODE
 70
     0
  9
$PDSIZE
 40
-1.0
  9
$PLINEWID
 40
0.0
  9
$SPLFRAME
 70
     0
  9
$SPLINETYPE
 70
     6
  9
$SPLINESEGS
 70
     8
  9
$HANDSEED
  5
93
  9
$SURFTAB1
 70
     6
  9
$SURFTAB2
 70
     6
  9
$SURFTYPE
 70
     6
  9
$SURFU
 70
     6
  9
$SURFV
 70
     6
  9
$UCSBASE
  2

  9
$UCSNAME
  2

  9
$UCSORG
 10
0.0
 20
0.0
 30
0.0
  9
$UCSXDIR
 10
1.0
 20
0.0
 30
0.0
  9
$UCSYDIR
 10
0.0
 20
1.0
 30
0.0
  9
$UCSORTHOREF
  2

  9
$UCSORTHOVIEW
 70
     0
  9
$UCSORGTOP
 10
0.0
 20
0.0
 30
0.0
  9
$UCSORGBOTTOM
 10
0.0
 20
0.0
 30
0.0
  9
$UCSORGLEFT
 10
0.0
 20
0.0
 30
0.0
  9
$UCSORGRIGHT
 10
0.0
 20
0.0
 30
0.0
  9
$UCSORGFRONT
 10
0.0
 20
0.0
 30
0.0
  9
$UCSORGBACK
 10
0.0
 20
0.0
 30
0.0
  9
$PUCSBASE
  2

  9
$PUCSNAME
  2

  9
$PUCSORG
 10
0.0
 20
0.0
 30
0.0
  9
$PUCSXDIR
 10
1.0
 20
0.0
 30
0.0
  9
$PUCSYDIR
 10
0.0
 20
1.0
 30
0.0
  9
$PUCSORTHOREF
  2

  9
$PUCSORTHOVIEW
 70
     0
  9
$PUCSORGTOP
 10
0.0
 20
0.0
 30
0.0
  9
$PUCSORGBOTTOM
 10
0.0
 20
0.0
 30
0.0
  9
$PUCSORGLEFT
 10
0.0
 20
0.0
 30
0.0
  9
$PUCSORGRIGHT
 10
0.0
 20
0.0
 30
0.0
  9
$PUCSORGFRONT
 10
0.0
 20
0.0
 30
0.0
  9
$PUCSORGBACK
 10
0.0
 20
0.0
 30
0.0
  9
$USERI1
 70
     0
  9
$USERI2
 70
     0
  9
$USERI3
 70
     0
  9
$USERI4
 70
     0
  9
$USERI5
 70
     0
  9
$USERR1
 40
0.0
  9
$USERR2
 40
0.0
  9
$USERR3
 40
0.0
  9
$USERR4
 40
0.0
  9
$USERR5
 40
0.0
  9
$WORLDVIEW
 70
     1
  9
$SHADEDGE
 70
     3
  9
$SHADEDIF
 70
    70
  9
$TILEMODE
 70
     1
  9
$MAXACTVP
 70
    64
  9
$PINSBASE
 10
0.0
 20
0.0
 30
0.0
  9
$PLIMCHECK
 70
     0
  9
$PEXTMIN
 10
1.0000000000E+20
 20
1.0000000000E+20
 30
1.0000000000E+20
  9
$PEXTMAX
 10
-1.0000000000E+20
 20
-1.0000000000E+20
 30
-1.0000000000E+20
  9
$PLIMMIN
 10
0.0
 20
0.0
  9
$PLIMMAX
 10
420.0
 20
297.0
  9
$UNITMODE
 70
     0
  9
$VISRETAIN
 70
     1
  9
$PLINEGEN
 70
     0
  9
$PSLTSCALE
 70
     1
  9
$TREEDEPTH
 70
  3020
  9
$CMLSTYLE
  2
Standard
  9
$CMLJUST
 70
     0
  9
$CMLSCALE
 40
20.0
  9
$PROXYGRAPHICS
 70
     1
  9
$MEASUREMENT
 70
     1
  9
$CELWEIGHT
370
    -1
  9
$ENDCAPS
280
     0
  9
$JOINSTYLE
280
     0
  9
$LWDISPLAY
290
     1
  9
$INSUNITS
 70
     4
  9
$HYPERLINKBASE
  1

  9
$STYLESHEET
  1

  9
$XEDIT
290
     1
  9
$CEPSNTYPE
380
     0
  9
$PSTYLEMODE
290
     1
  9
$FINGERPRINTGUID
  2
{3246d8ce-b954-404e-a5e6-dd3be72d2e32}
  9
$VERSIONGUID
  2
{FAEB1C32-E019-11D5-929B-00C0DF256EC4}
  9
$EXTNAMES
290
     1
  9
$PSVPSCALE
 40
0.0
  9
$OLESTARTUP
290
     0
  0
ENDSEC
  0
SECTION
  2
CLASSES
  0
CLASS
  1
ACDBDICTIONARYWDFLT
  2
AcDbDictionaryWithDefault
  3
ObjectDBX Classes
 90
        0
280
     0
281
     0
  0
CLASS
  1
VISUALSTYLE
  2
AcDbVisualStyle
  3
ObjectDBX Classes
 90
     4095
280
     0
281
     0
  0
CLASS
  1
MATERIAL
  2
AcDbMaterial
  3
ObjectDBX Classes
 90
     1153
280
     0
281
     0
  0
CLASS
  1
SCALE
  2
AcDbScale
  3
ObjectDBX Classes
 90
     1153
280
     0
281
     0
  0
CLASS
  1
TABLESTYLE
  2
AcDbTableStyle
  3
ObjectDBX Classes
 90
     4095
280
     0
281
     0
  0
CLASS
  1
MLEADERSTYLE
  2
AcDbMLeaderStyle
  3
ACDB_MLEADERSTYLE_CLASS
 90
     4095
280
     0
281
     0
  0
CLASS
  1
SUN
  2
AcDbSun
  3
SCENEOE
 90
     1153
280
     0
281
     0
  0
CLASS
  1
ACDBPLACEHOLDER
  2
AcDbPlaceHolder
  3
ObjectDBX Classes
 90
        0
280
     0
281
     0
  0
CLASS
  1
LAYOUT
  2
AcDbLayout
  3
ObjectDBX Classes
 90
        0
280
     0
281
     0
  0
ENDSEC
  0
SECTION
  2
TABLES
  0
TABLE
  2
VPORT
  5
8
330
0
100
AcDbSymbolTable
 70
     1
  0
VPORT
  5
29
330
8
100
AcDbSymbolTableRecord
100
AcDbViewportTableRecord
  2
*Active
 70
     0
 10
0.0
 20
0.0
 11
1.0
 21
1.0
 12
0.0
 22
22.625
 13
0.0
 23
0.0
 14
10.0
 24
10.0
 15
10.0
 25
10.0
 16
0.0
 26
0.0
 36
1.0
 17
0.0
 27
0.0
 37
0.0
 40
155.295
 41
1.4609491815
 42
50.0
 43
0.0
 44
0.0
 50
0.0
 51
0.0
 71
     0
 72
   100
 73
     1
 74
     3
 75
     0
 76
     0
 77
     0
 78
     0
281
     0
 65
     1
110
0.0
120
0.0
130
0.0
111
1.0
121
0.0
131
0.0
112
0.0
122
1.0
132
0.0
 79
     0
146
0.0
  0
ENDTAB
  0
TABLE
  2
LTYPE
  5
5
330
0
100
AcDbSymbolTable
 70
     6
  0
LTYPE
  5
14
330
5
100
AcDbSymbolTableRecord
100
AcDbLinetypeTableRecord
  2
ByBlock
 70
     0
  3

 72
    65
 73
     0
 40
0.0
  0
LTYPE
  5
15
330
5
100
AcDbSymbolTableRecord
100
AcDbLinetypeTableRecord
  2
ByLayer
 70
     0
  3

 72
    65
 73
     0
 40
0.0
  0
LTYPE
  5
16
330
5
100
AcDbSymbolTableRecord
100
AcDbLinetypeTableRecord
  2
Continuous
 70
     0
  3
Solid line
 72
    65
 73
     0
 40
0.0
  0
LTYPE
  5
6E
330
5
100
AcDbSymbolTableRecord
100
AcDbLinetypeTableRecord
  2
HIDDEN
 70
     0
  3
Hidden __ __ __ __ __ __ __ __ __ __ __ __ __ __
 72
    65
 73
     2
 40
1.905
 49
1.27
 74
     0
 49
-0.635
 74
     0
  0
LTYPE
  5
6F
330
5
100
AcDbSymbolTableRecord
100
AcDbLinetypeTableRecord
  2
PHANTOM
 70
     0
  3
Phantom ______  __  __  ______  __  __  ______
 72
    65
 73
     6
 40
12.7
 49
6.35
 74
     0
 49
-1.27
 74
     0
 49
1.27
 74
     0
 49
-1.27
 74
     0
 49
1.27
 74
     0
 49
-1.27
 74
     0
  0
LTYPE
  5
70
330
5
100
AcDbSymbolTableRecord
100
AcDbLinetypeTableRecord
  2
CENTER
 70
     0
  3
Center ____ _ ____ _ ____ _ ____ _ ____ _ ____
 72
    65
 73
     4
 40
10.16
 49
6.35
 74
     0
 49
-1.27
 74
     0
 49
1.27
 74
     0
 49
-1.27
 74
     0
  0
LTYPE
  5
71
330
5
100
AcDbSymbolTableRecord
100
AcDbLinetypeTableRecord
  2
CENTERX2
 70
     0
  3
Center (2x) ________  __  ________  __  _____
 72
    65
 73
     4
 40
20.32
 49
12.7
 74
     0
 49
-2.54
 74
     0
 49
2.54
 74
     0
 49
-2.54
 74
     0
  0
LTYPE
  5
72
330
5
100
AcDbSymbolTableRecord
100
AcDbLinetypeTableRecord
  2
DOT2
 70
     0
  3
Dot (.5x) ........................................
 72
    65
 73
     2
 40
0.635
 49
0.0
 74
     0
 49
-0.635
 74
     0
  0
ENDTAB
  0
TABLE
  2
LAYER
  5
2
330
0
100
AcDbSymbolTable
 70
     1
  0
LAYER
  5
10
330
2
100
AcDbSymbolTableRecord
100
AcDbLayerTableRecord
  2
0
 70
     0
 62
     7
  6
Continuous
370
    -3
390
F
  0
ENDTAB
  0
TABLE
  2
STYLE
  5
3
330
0
100
AcDbSymbolTable
 70
     2
  0
STYLE
  5
11
330
3
100
AcDbSymbolTableRecord
100
AcDbTextStyleTableRecord
  2
Standard
 70
     0
 40
0.0
 41
1.0
 50
0.0
 71
     0
 42
3.5
  3
txt
  4

  0
STYLE
  5
90
330
3
100
AcDbSymbolTableRecord
100
AcDbTextStyleTableRecord
  2
SLDTEXTSTYLE0
 70
     0
 40
0.0
 41
0.7
 50
0.0
 71
     0
 42
3.5
  3
TXT
  4

  0
ENDTAB
  0
TABLE
  2
VIEW
  5
6
330
0
100
AcDbSymbolTable
 70
     0
  0
ENDTAB
  0
TABLE
  2
UCS
  5
7
330
0
100
AcDbSymbolTable
 70
     0
  0
ENDTAB
  0
TABLE
  2
APPID
  5
9
330
0
100
AcDbSymbolTable
 70
     1
  0
APPID
  5
12
330
9
100
AcDbSymbolTableRecord
100
AcDbRegAppTableRecord
  2
ACAD
 70
     0
  0
ENDTAB
  0
TABLE
  2
DIMSTYLE
  5
A
330
0
100
AcDbSymbolTable
 70
     1
100
AcDbDimStyleTable
  0
DIMSTYLE
105
27
330
A
100
AcDbSymbolTableRecord
100
AcDbDimStyleTableRecord
  2
ISO-25
 70
     0
 41
2.5
 42
0.625
 43
3.75
 44
1.25
 73
     0
 74
     0
 77
     1
 78
     8
140
2.5
141
2.5
143
0.0393700787
147
0.625
171
     3
172
     1
178
     0
271
     2
272
     2
274
     3
278
    44
283
     0
284
     8
340
11
  0
ENDTAB
  0
TABLE
  2
BLOCK_RECORD
  5
1
330
0
100
AcDbSymbolTable
 70
     1
  0
BLOCK_RECORD
  5
1F
330
1
100
AcDbSymbolTableRecord
100
AcDbBlockTableRecord
  2
*Model_Space
340
22
  0
BLOCK_RECORD
  5
1B
330
1
100
AcDbSymbolTableRecord
100
AcDbBlockTableRecord
  2
*Paper_Space
340
1E
  0
BLOCK_RECORD
  5
23
330
1
100
AcDbSymbolTableRecord
100
AcDbBlockTableRecord
  2
*Paper_Space0
340
26
  0
ENDTAB
  0
ENDSEC
  0
SECTION
  2
BLOCKS
  0
BLOCK
  5
20
330
1F
100
AcDbEntity
  8
0
100
AcDbBlockBegin
  2
*Model_Space
 70
     0
 10
0.0
 20
0.0
 30
0.0
  3
*Model_Space
  1

  0
ENDBLK
  5
21
330
1F
100
AcDbEntity
  8
0
100
AcDbBlockEnd
  0
BLOCK
  5
1C
330
1B
100
AcDbEntity
 67
     1
  8
0
100
AcDbBlockBegin
  2
*Paper_Space
 70
     0
 10
0.0
 20
0.0
 30
0.0
  3
*Paper_Space
  1

  0
ENDBLK
  5
1D
330
1B
100
AcDbEntity
 67
     1
  8
0
100
AcDbBlockEnd
  0
BLOCK
  5
24
330
23
100
AcDbEntity
  8
0
100
AcDbBlockBegin
  2
*Paper_Space0
 70
     0
 10
0.0
 20
0.0
 30
0.0
  3
*Paper_Space0
  1

  0
ENDBLK
  5
25
330
23
100
AcDbEntity
  8
0
100
AcDbBlockEnd
  0
ENDSEC
  0
SECTION
  2
ENTITIES
  0
SPLINE
  5
73
330
1F
100
AcDbEntity
  8
0
  6
Continuous
 62
     7
370
    25
100
AcDbSpline
210
0.0
220
0.0
230
1.0
 70
    11
 71
     3
 72
    27
 73
    23
 74
     0
 42
0.000000001
 43
0.00000001
 40
0.0
 40
0.0
 40
0.0
 40
0.0
 40
0.0126016597735823
 40
0.0209517326923619
 40
0.0706118726005915
 40
0.0991277666265081
 40
0.1283364554231118
 40
0.1832000228219847
 40
0.2591039866127842
 40
0.3574124884690431
 40
0.4397847454529039
 40
0.500000001798258
 40
0.5602152545470961
 40
0.642587511530957
 40
0.7408960133872158
 40
0.8167999771780152
 40
0.8716635445768882
 40
0.9008722333734919
 40
0.9293881273994083
 40
0.979048267307638
 40
0.9873983402264178
 40
1.0
 40
1.0
 40
1.0
 40
1.0
 10
0.0000000000000001
 20
61.99999999999999
 30
0.0
 10
-1.449319464710722
 20
62.0
 30
0.0
 10
-3.858982521486306
 20
62.04949064962834
 30
0.0
 10
-6.73808895444864
 20
54.674450920623
 30
0.0
 10
-6.398410726769588
 20
46.42404809861311
 30
0.0
 10
-10.00931100999176
 20
34.79618162699267
 30
0.0
 10
-21.89939563791628
 20
31.62675229919589
 30
0.0
 10
-35.79770246138536
 20
21.6221885916795
 30
0.0
 10
-41.07203752915193
 20
-2.038817059675006
 30
0.0
 10
-42.66453483262734
 20
-30.67727008540484
 30
0.0
 10
-20.4552404676223
 20
-46.50390999140995
 30
0.0
 10
0.0000002217471111
 20
-51.47641230941154
 30
0.0
 10
20.45524077365636
 20
-46.5039097454306
 30
0.0
 10
42.66453484208865
 20
-30.67727008899443
 30
0.0
 10
41.07203752707764
 20
-2.038817058888013
 30
0.0
 10
35.79770246173691
 20
21.62218859154613
 30
0.0
 10
21.8993956378764
 20
31.62675229921102
 30
0.0
 10
10.00931100999924
 20
34.79618162698983
 30
0.0
 10
6.398410726765801
 20
46.42404809861456
 30
0.0
 10
6.738088954448785
 20
54.67445092062303
 30
0.0
 10
3.8589825214863
 20
62.04949064962832
 30
0.0
 10
1.449319464710714
 20
61.99999999999999
 30
0.0
 10
0.0000000000000001
 20
61.99999999999999
 30
0.0
  0
SPLINE
  5
74
330
1F
100
AcDbEntity
  8
0
  6
Continuous
 62
     7
370
    25
100
AcDbSpline
210
0.0
220
0.0
230
1.0
 70
     8
 71
     3
 72
    30
 73
    26
 74
     0
 42
0.000000001
 43
0.00000001
 40
0.0
 40
0.0
 40
0.0
 40
0.0
 40
0.0078125
 40
0.015625
 40
0.03125
 40
0.046875
 40
0.0625
 40
0.09375
 40
0.125
 40
0.15625
 40
0.1875
 40
0.25
 40
0.3125
 40
0.375
 40
0.4375
 40
0.5
 40
0.5625
 40
0.625
 40
0.6875
 40
0.75
 40
0.8125
 40
0.84375
 40
0.875
 40
0.90625
 40
0.9196102298786454
 40
0.9196102298786454
 40
0.9196102298786454
 40
0.9196102298786454
 10
20.0
 20
85.24999999999999
 30
0.0
 10
20.7059831537924
 20
85.24999999999999
 30
0.0
 10
22.12771250540098
 20
85.24445144164217
 30
0.0
 10
24.89293723176696
 20
85.21146610740519
 30
0.0
 10
28.25734189135589
 20
85.12976899546199
 30
0.0
 10
32.13166787072848
 20
84.96883651196863
 30
0.0
 10
37.08806025309548
 20
84.67288413898255
 30
0.0
 10
42.89168994927092
 20
84.15504836706985
 30
0.0
 10
49.24094858871133
 20
83.31227745767008
 30
0.0
 10
54.98564474976239
 20
82.26381766764507
 30
0.0
 10
61.85330810277241
 20
80.61350611111206
 30
0.0
 10
68.97880474195777
 20
78.1196985791634
 30
0.0
 10
75.27899614708959
 20
74.59123338096785
 30
0.0
 10
79.43480729202805
 20
70.71354389364824
 30
0.0
 10
81.64635656173849
 20
66.68048125183631
 30
0.0
 10
82.20762489422741
 20
62.50384662977319
 30
0.0
 10
81.21326285803153
 20
58.03807751195686
 30
0.0
 10
78.60210096700882
 20
53.32763394979348
 30
0.0
 10
74.39216134158644
 20
48.54400467699852
 30
0.0
 10
68.66506654549042
 20
43.85429342434447
 30
0.0
 10
62.70472936752398
 20
40.14422362691801
 30
0.0
 10
57.28939641671796
 20
37.36516004900791
 30
0.0
 10
52.88188733959884
 20
35.37943037836229
 30
0.0
 10
49.05221081385543
 20
33.69351711469816
 30
0.0
 10
46.71990582256249
 20
32.60676129861652
 30
0.0
 10
46.01521775519509
 20
32.27025517218095
 30
0.0
  0
ARC
  5
75
330
1F
100
AcDbEntity
  8
0
  6
Continuous
 62
     7
370
    25
100
AcDbCircle
 10
39.5514935635
 20
45.80614338
 30
0.0
 40
15.00000000000001
100
AcDbArc
 50
221.098075396
 51
295.5256389414
  0
SPLINE
  5
76
330
1F
100
AcDbEntity
  8
0
  6
Continuous
 62
     7
370
    25
100
AcDbSpline
210
0.0
220
0.0
230
1.0
 70
     8
 71
     3
 72
     9
 73
     5
 74
     0
 42
0.000000001
 43
0.00000001
 40
0.4837284689067439
 40
0.4837284689067439
 40
0.4837284689067439
 40
0.4837284689067439
 40
0.5183728505329487
 40
0.619378629804819
 40
0.619378629804819
 40
0.619378629804819
 40
0.619378629804819
 10
28.24771146013884
 20
35.94589438916199
 30
0.0
 10
26.56091599511871
 20
37.87963545465458
 30
0.0
 10
19.55078147788862
 20
45.79760359619107
 30
0.0
 10
13.55206771086193
 20
54.87989008935608
 30
0.0
 10
9.327145007149163
 20
59.57387037257877
 30
0.0
  0
ARC
  5
77
330
1F
100
AcDbEntity
  8
0
  6
Continuous
 62
     7
370
    25
100
AcDbCircle
 10
20.4761551134
 20
69.6087880927
 30
0.0
 40
15.00000000000001
100
AcDbArc
 50
209.5355203787
 51
221.9895083218
  0
SPLINE
  5
78
330
1F
100
AcDbEntity
  8
0
  6
Continuous
 62
     7
370
    25
100
AcDbSpline
210
0.0
220
0.0
230
1.0
 70
     8
 71
     3
 72
    25
 73
    21
 74
     0
 42
0.000000001
 43
0.00000001
 40
0.9840699837408419
 40
0.9840699837408419
 40
0.9840699837408419
 40
0.9840699837408419
 40
0.984375
 40
0.986328125
 40
0.98828125
 40
0.990234375
 40
0.9921875
 40
0.994140625
 40
0.99609375
 40
0.998046875
 40
1.0
 40
1.001953125
 40
1.00390625
 40
1.005859375
 40
1.0078125
 40
1.009765625
 40
1.01171875
 40
1.013671875
 40
1.015625
 40
1.015930016259154
 40
1.015930016259154
 40
1.015930016259154
 40
1.015930016259154
 10
7.425401334633193
 20
62.21434248773489
 30
0.0
 10
7.397694469597014
 20
62.26324344568184
 30
0.0
 10
7.186421375406951
 20
62.62768776918817
 30
0.0
 10
6.702582422067472
 20
63.33964797894741
 30
0.0
 10
5.604110415273336
 20
64.34037282937965
 30
0.0
 10
4.427043769516458
 20
64.94539417782948
 30
0.0
 10
3.332830998803639
 20
65.27284710720744
 30
0.0
 10
2.350245313922596
 20
65.42734779213062
 30
0.0
 10
1.472881452674116
 20
65.48792970745912
 30
0.0
 10
0.6794495408640091
 20
65.5015952424551
 30
0.0
 10
0.0000000000000105
 20
65.49920237877244
 30
0.0
 10
-0.6794495408639972
 20
65.5015952424551
 30
0.0
 10
-1.472881452674094
 20
65.4879297074591
 30
0.0
 10
-2.350245313922595
 20
65.42734779213063
 30
0.0
 10
-3.332830998803627
 20
65.27284710720743
 30
0.0
 10
-4.427043769516432
 20
64.94539417782951
 30
0.0
 10
-5.604110415273337
 20
64.34037282937965
 30
0.0
 10
-6.702582422067477
 20
63.3396479789474
 30
0.0
 10
-7.186421375406447
 20
62.6276877691889
 30
0.0
 10
-7.397694469596193
 20
62.26324344568322
 30
0.0
 10
-7.425401334632002
 20
62.21434248773697
 30
0.0
  0
ARC
  5
79
330
1F
100
AcDbEntity
  8
0
  6
Continuous
 62
     7
370
    25
100
AcDbCircle
 10
-20.4761551134
 20
69.6087880927
 30
0.0
 40
15.00000000000001
100
AcDbArc
 50
318.0104916782
 51
330.4644796212
  0
SPLINE
  5
7A
330
1F
100
AcDbEntity
  8
0
  6
Continuous
 62
     7
370
    25
100
AcDbSpline
210
0.0
220
0.0
230
1.0
 70
     8
 71
     3
 72
     9
 73
     5
 74
     0
 42
0.000000001
 43
0.00000001
 40
0.7724606188941651
 40
0.7724606188941651
 40
0.7724606188941651
 40
0.7724606188941651
 40
0.873466398166096
 40
0.9081107797922722
 40
0.9081107797922722
 40
0.9081107797922722
 40
0.9081107797922722
 10
-9.327145007142311
 20
59.57387037258847
 30
0.0
 10
-13.55206771085774
 20
54.87989008936574
 30
0.0
 10
-19.55078147788565
 20
45.79760359619782
 30
0.0
 10
-26.56091599511464
 20
37.87963545465688
 30
0.0
 10
-28.24771146013278
 20
35.9458943891651
 30
0.0
  0
ARC
  5
7B
330
1F
100
AcDbEntity
  8
0
  6
Continuous
 62
     7
370
    25
100
AcDbCircle
 10
-39.5514935635
 20
45.80614338
 30
0.0
 40
15.00000000000003
100
AcDbArc
 50
244.4743610586
 51
318.901924604
  0
SPLINE
  5
7C
330
1F
100
AcDbEntity
  8
0
  6
Continuous
 62
     7
370
    25
100
AcDbSpline
210
0.0
220
0.0
230
1.0
 70
     8
 71
     3
 72
    30
 73
    26
 74
     0
 42
0.000000001
 43
0.00000001
 40
0.0
 40
0.0
 40
0.0
 40
0.0
 40
0.0078125
 40
0.015625
 40
0.03125
 40
0.046875
 40
0.0625
 40
0.09375
 40
0.125
 40
0.15625
 40
0.1875
 40
0.25
 40
0.3125
 40
0.375
 40
0.4375
 40
0.5
 40
0.5625
 40
0.625
 40
0.6875
 40
0.75
 40
0.8125
 40
0.84375
 40
0.875
 40
0.90625
 40
0.9196102298786578
 40
0.9196102298786578
 40
0.9196102298786578
 40
0.9196102298786578
 10
-20.0
 20
85.24999999999999
 30
0.0
 10
-20.7059831537924
 20
85.24999999999999
 30
0.0
 10
-22.12771250540098
 20
85.24445144164217
 30
0.0
 10
-24.89293723176696
 20
85.21146610740519
 30
0.0
 10
-28.25734189135589
 20
85.12976899546199
 30
0.0
 10
-32.13166787072848
 20
84.96883651196863
 30
0.0
 10
-37.08806025309548
 20
84.67288413898255
 30
0.0
 10
-42.89168994927092
 20
84.15504836706985
 30
0.0
 10
-49.24094858871133
 20
83.31227745767008
 30
0.0
 10
-54.98564474976239
 20
82.26381766764507
 30
0.0
 10
-61.85330810277241
 20
80.61350611111206
 30
0.0
 10
-68.97880474195777
 20
78.1196985791634
 30
0.0
 10
-75.27899614708959
 20
74.59123338096785
 30
0.0
 10
-79.43480729202805
 20
70.71354389364824
 30
0.0
 10
-81.64635656173849
 20
66.68048125183631
 30
0.0
 10
-82.20762489422741
 20
62.50384662977319
 30
0.0
 10
-81.21326285803153
 20
58.03807751195686
 30
0.0
 10
-78.60210096700882
 20
53.32763394979348
 30
0.0
 10
-74.39216134158644
 20
48.54400467699852
 30
0.0
 10
-68.66506654549042
 20
43.85429342434447
 30
0.0
 10
-62.70472936752398
 20
40.14422362691801
 30
0.0
 10
-57.28939641671796
 20
37.36516004900791
 30
0.0
 10
-52.88188733959884
 20
35.37943037836229
 30
0.0
 10
-49.05221081385481
 20
33.69351711469788
 30
0.0
 10
-46.71990582256119
 20
32.60676129861592
 30
0.0
 10
-46.01521775519313
 20
32.27025517218001
 30
0.0
  0
LINE
  5
7D
330
1F
100
AcDbEntity
  8
0
  6
Continuous
 62
     7
370
    25
100
AcDbLine
 10
20.0
 20
85.25
 30
0.0
 11
-20.0
 21
85.25
 31
0.0
  0
SPLINE
  5
7E
330
1F
100
AcDbEntity
  8
0
  6
Continuous
 62
     7
370
    25
100
AcDbSpline
210
0.0
220
0.0
230
1.0
 70
     8
 71
     3
 72
    30
 73
    26
 74
     0
 42
0.000000001
 43
0.00000001
 40
0.0626466345789545
 40
0.0626466345789545
 40
0.0626466345789545
 40
0.0626466345789545
 40
0.09375
 40
0.125
 40
0.15625
 40
0.1875
 40
0.25
 40
0.3125
 40
0.375
 40
0.4375
 40
0.5
 40
0.5625
 40
0.625
 40
0.6875
 40
0.75
 40
0.8125
 40
0.84375
 40
0.875
 40
0.90625
 40
0.9375
 40
0.953125
 40
0.96875
 40
0.984375
 40
0.9921875
 40
1.0
 40
1.0
 40
1.0
 40
1.0
 10
-44.77884706393268
 20
27.75330900367648
 30
0.0
 10
-46.39166505545856
 20
28.58351435521287
 30
0.0
 10
-49.5972661671286
 20
30.10892288798097
 30
0.0
 10
-54.28006812067669
 20
32.17090262248923
 30
0.0
 10
-58.7955510968171
 20
34.20428636015579
 30
0.0
 10
-64.44089386263008
 20
37.10027106295608
 30
0.0
 10
-70.682092941367
 20
40.98302960581049
 30
0.0
 10
-76.80011230483308
 20
45.98357639903428
 30
0.0
 10
-81.44297874613765
 20
51.24033584110875
 30
0.0
 10
-84.49613127743514
 20
56.69413501940289
 30
0.0
 10
-85.78157051483937
 20
62.28952774670758
 30
0.0
 10
-85.04206208607911
 20
67.8442155384424
 30
0.0
 10
-82.1762031535682
 20
72.98583008088872
 30
0.0
 10
-77.28191871098007
 20
77.49937941405186
 30
0.0
 10
-70.3632698717817
 20
81.35191814463579
 30
0.0
 10
-62.83573790616642
 20
83.97808846263308
 30
0.0
 10
-55.70054159214686
 20
85.6918459983363
 30
0.0
 10
-49.77839792019651
 20
86.77213196191212
 30
0.0
 10
-43.27149139131336
 20
87.63545126299005
 30
0.0
 10
-37.35050891331501
 20
88.16351981722099
 30
0.0
 10
-32.30740926958806
 20
88.46461365739187
 30
0.0
 10
-28.37135436851128
 20
88.62808352535583
 30
0.0
 10
-24.95811328724601
 20
88.71095004550057
 30
0.0
 10
-22.15512895785567
 20
88.74438077818864
 30
0.0
 10
-20.71517679153805
 20
88.75
 30
0.0
 10
-20.0
 20
88.75
 30
0.0
  0
ARC
  5
7F
330
1F
100
AcDbEntity
  8
0
  6
Continuous
 62
     7
370
    25
100
AcDbCircle
 10
-49.3556232565
 20
18.8621268729
 30
0.0
 40
10.00000000000002
100
AcDbArc
 50
339.5048716963
 51
62.7626502456
  0
SPLINE
  5
80
330
1F
100
AcDbEntity
  8
0
  6
Continuous
 62
     7
370
    25
100
AcDbSpline
210
0.0
220
0.0
230
1.0
 70
     8
 71
     3
 72
    13
 73
     9
 74
     0
 42
0.000000001
 43
0.00000001
 40
0.2130239588276982
 40
0.2130239588276982
 40
0.2130239588276982
 40
0.2130239588276982
 40
0.21875
 40
0.25
 40
0.265625
 40
0.28125
 40
0.3125
 40
0.3245038162539973
 40
0.3245038162539973
 40
0.3245038162539973
 40
0.3245038162539973
 10
-39.98860362651619
 20
15.36084949848609
 30
0.0
 10
-40.20997558865419
 20
14.76860978333299
 30
0.0
 10
-41.55585224313792
 20
10.91391290774287
 30
0.0
 10
-42.77817605992664
 20
5.193461538021276
 30
0.0
 10
-43.78994657182036
 20
-1.618841872798897
 30
0.0
 10
-44.58712680012449
 20
-8.57420596267733
 30
0.0
 10
-44.78185632294497
 20
-15.20546544384072
 30
0.0
 10
-44.23499972821214
 20
-19.98493380374211
 30
0.0
 10
-44.01951313617665
 20
-21.29842130177801
 30
0.0
  0
ARC
  5
81
330
1F
100
AcDbEntity
  8
0
  6
Continuous
 62
     7
370
    25
100
AcDbCircle
 10
-53.8875968883
 20
-22.9173478168
 30
0.0
 40
10.00000000000002
100
AcDbArc
 50
269.1594140772
 51
9.3167695836
  0
SPLINE
  5
82
330
1F
100
AcDbEntity
  8
0
  6
Continuous
 62
     7
370
    25
100
AcDbSpline
210
0.0
220
0.0
230
1.0
 70
     8
 71
     3
 72
    28
 73
    24
 74
     0
 42
0.000000001
 43
0.00000001
 40
0.0
 40
0.0
 40
0.0
 40
0.0
 40
0.0078125
 40
0.015625
 40
0.03125
 40
0.046875
 40
0.0625
 40
0.09375
 40
0.125
 40
0.15625
 40
0.1875
 40
0.25
 40
0.3125
 40
0.375
 40
0.4375
 40
0.5
 40
0.625
 40
0.6875
 40
0.75
 40
0.8125
 40
0.875
 40
0.90625
 40
0.915135386184593
 40
0.915135386184593
 40
0.915135386184593
 40
0.915135386184593
 10
-2.500000000000004
 20
95.25
 30
0.0
 10
-3.874728056890602
 20
95.25
 30
0.0
 10
-6.647755702133876
 20
95.23124693962589
 30
0.0
 10
-12.00448022936266
 20
95.12004385309861
 30
0.0
 10
-18.47860730364539
 20
94.84532851976185
 30
0.0
 10
-25.85831593165455
 20
94.30646878046802
 30
0.0
 10
-35.20253558055196
 20
93.31970206069713
 30
0.0
 10
-45.9641043500818
 20
91.60325721953583
 30
0.0
 10
-57.46463985352792
 20
88.83559500213853
 30
0.0
 10
-67.60663272847809
 20
85.42578019199607
 30
0.0
 10
-79.39443952527328
 20
80.11145751316498
 30
0.0
 10
-91.02309240868168
 20
72.1957582453309
 30
0.0
 10
-100.5181347803888
 20
61.17124806527376
 30
0.0
 10
-106.0807263008033
 20
49.06093216520003
 30
0.0
 10
-108.174322326453
 20
36.26058813711856
 30
0.0
 10
-106.878957344322
 20
18.85288537747561
 30
0.0
 10
-100.243334711503
 20
1.904036255731487
 30
0.0
 10
-89.98308633217484
 20
-12.55365605159318
 30
0.0
 10
-80.93642128332579
 20
-21.64689066608534
 30
0.0
 10
-70.99678770465059
 20
-28.49152189187423
 30
0.0
 10
-62.40638449530035
 20
-31.93955600740993
 30
0.0
 10
-56.74334836626905
 20
-32.81882815617166
 30
0.0
 10
-54.52549300655548
 20
-32.90906486297017
 30
0.0
 10
-54.03430154543298
 20
-32.91627164603171
 30
0.0
  0
LINE
  5
83
330
1F
100
AcDbEntity
  8
0
  6
Continuous
 62
     7
370
    25
100
AcDbLine
 10
-2.5
 20
98.75
 30
0.0
 11
-2.5
 21
95.25
 31
0.0
  0
SPLINE
  5
84
330
1F
100
AcDbEntity
  8
0
  6
Continuous
 62
     7
370
    25
100
AcDbSpline
210
0.0
220
0.0
230
1.0
 70
     8
 71
     3
 72
    30
 73
    26
 74
     0
 42
0.000000001
 43
0.00000001
 40
0.0397899379938413
 40
0.0397899379938413
 40
0.0397899379938413
 40
0.0397899379938413
 40
0.046875
 40
0.0625
 40
0.09375
 40
0.125
 40
0.1875
 40
0.25
 40
0.3125
 40
0.375
 40
0.5
 40
0.5625
 40
0.625
 40
0.6875
 40
0.75
 40
0.8125
 40
0.84375
 40
0.875
 40
0.90625
 40
0.9375
 40
0.953125
 40
0.96875
 40
0.984375
 40
0.9921875
 40
1.0
 40
1.0
 40
1.0
 40
1.0
 10
-45.63990211428434
 20
-35.37685096512144
 30
0.0
 10
-46.08332555857808
 20
-35.49489995957651
 30
0.0
 10
-47.50487363831163
 20
-35.83990741829436
 30
0.0
 10
-50.88274010939613
 20
-36.41034673307148
 30
0.0
 10
-55.75225964731627
 20
-36.52107474773617
 30
0.0
 10
-63.42760907596254
 20
-35.3223357831147
 30
0.0
 10
-72.70779045176022
 20
-31.57592192381738
 30
0.0
 10
-83.21072712204911
 20
-24.33216129335845
 30
0.0
 10
-92.6793956600898
 20
-14.81007398351465
 30
0.0
 10
-103.3735804546037
 20
0.2637723481159557
 30
0.0
 10
-110.32110557144
 20
17.96028678874176
 30
0.0
 10
-111.7052268333704
 20
36.39102516159244
 30
0.0
 10
-109.4730258140103
 20
50.08646701561553
 30
0.0
 10
-103.4910733855116
 20
63.10900537350894
 30
0.0
 10
-93.33941899086975
 20
74.87461234273188
 30
0.0
 10
-81.10788991928783
 20
83.18187371764728
 30
0.0
 10
-68.87306704735383
 20
88.6947267127054
 30
0.0
 10
-58.42049564768116
 20
92.20721929732649
 30
0.0
 10
-46.63815233774196
 20
95.0413123130168
 30
0.0
 10
-35.66597588417485
 20
96.79047183265207
 30
0.0
 10
-26.16708424189799
 20
97.79343468735186
 30
0.0
 10
-18.67794095215764
 20
98.3401854428248
 30
0.0
 10
-12.11796380545745
 20
98.61848184275365
 30
0.0
 10
-6.695299415503559
 20
98.73103507100008
 30
0.0
 10
-3.890692198240539
 20
98.75
 30
0.0
 10
-2.499999999999996
 20
98.75
 30
0.0
  0
ARC
  5
85
330
1F
100
AcDbEntity
  8
0
  6
Continuous
 62
     7
370
    25
100
AcDbCircle
 10
-43.0672892161
 20
-45.0402697637
 30
0.0
 40
9.999999999999996
100
AcDbArc
 50
43.3312260467
 51
104.9076186147
  0
SPLINE
  5
86
330
1F
100
AcDbEntity
  8
0
  6
Continuous
 62
     7
370
    25
100
AcDbSpline
210
0.0
220
0.0
230
1.0
 70
     8
 71
     3
 72
    17
 73
    13
 74
     0
 42
0.000000001
 43
0.00000001
 40
0.381337126293364
 40
0.381337126293364
 40
0.381337126293364
 40
0.381337126293364
 40
0.390625
 40
0.40625
 40
0.4375
 40
0.46875
 40
0.5
 40
0.53125
 40
0.5625
 40
0.59375
 40
0.609375
 40
0.618662873727026
 40
0.618662873727026
 40
0.618662873727026
 40
0.618662873727026
 10
-35.79330041182028
 20
-38.17812091101595
 30
0.0
 10
-35.07367969037615
 20
-38.94093051825273
 30
0.0
 10
-33.05226508540579
 20
-40.90623802480677
 30
0.0
 10
-28.02349536644304
 20
-44.87097205781777
 30
0.0
 10
-20.16268769802928
 20
-49.19877800983947
 30
0.0
 10
-10.30079239288068
 20
-52.62687074336527
 30
0.0
 10
0.0000000149165107
 20
-53.9365646255853
 30
0.0
 10
10.30079242680438
 20
-52.62687075429361
 30
0.0
 10
20.16268769669354
 20
-49.19877800440638
 30
0.0
 10
28.02349535673571
 20
-44.87097205402409
 30
0.0
 10
33.05226507838774
 20
-40.90623802163815
 30
0.0
 10
35.07367968624791
 20
-38.94093051445463
 30
0.0
 10
35.7933004097451
 20
-38.17812090582114
 30
0.0
  0
ARC
  5
87
330
1F
100
AcDbEntity
  8
0
  6
Continuous
 62
     7
370
    25
100
AcDbCircle
 10
43.0672892105
 20
-45.0402697622
 30
0.0
 40
10.0
100
AcDbArc
 50
75.0923813773
 51
136.6687739241
  0
SPLINE
  5
88
330
1F
100
AcDbEntity
  8
0
  6
Continuous
 62
     7
370
    25
100
AcDbSpline
210
0.0
220
0.0
230
1.0
 70
     8
 71
     3
 72
    30
 73
    26
 74
     0
 42
0.000000001
 43
0.00000001
 40
0.0397899379713305
 40
0.0397899379713305
 40
0.0397899379713305
 40
0.0397899379713305
 40
0.046875
 40
0.0625
 40
0.09375
 40
0.125
 40
0.1875
 40
0.25
 40
0.3125
 40
0.375
 40
0.5
 40
0.5625
 40
0.625
 40
0.6875
 40
0.75
 40
0.8125
 40
0.84375
 40
0.875
 40
0.90625
 40
0.9375
 40
0.953125
 40
0.96875
 40
0.984375
 40
0.9921875
 40
1.0
 40
1.0
 40
1.0
 40
1.0
 10
45.63990211005778
 20
-35.37685096399624
 30
0.0
 10
46.08332555575992
 20
-35.49489995889255
 30
0.0
 10
47.50487363690247
 20
-35.83990741805638
 30
0.0
 10
50.88274010939613
 20
-36.41034673307148
 30
0.0
 10
55.75225964731627
 20
-36.52107474773617
 30
0.0
 10
63.42760907596254
 20
-35.3223357831147
 30
0.0
 10
72.70779045176022
 20
-31.57592192381738
 30
0.0
 10
83.21072712204911
 20
-24.33216129335845
 30
0.0
 10
92.6793956600898
 20
-14.81007398351465
 30
0.0
 10
103.3735804546037
 20
0.2637723481159557
 30
0.0
 10
110.32110557144
 20
17.96028678874176
 30
0.0
 10
111.7052268333704
 20
36.39102516159244
 30
0.0
 10
109.4730258140103
 20
50.08646701561553
 30
0.0
 10
103.4910733855116
 20
63.10900537350894
 30
0.0
 10
93.33941899086975
 20
74.87461234273188
 30
0.0
 10
81.10788991928783
 20
83.18187371764728
 30
0.0
 10
68.87306704735383
 20
88.6947267127054
 30
0.0
 10
58.42049564768116
 20
92.20721929732649
 30
0.0
 10
46.63815233774196
 20
95.0413123130168
 30
0.0
 10
35.66597588417485
 20
96.79047183265207
 30
0.0
 10
26.16708424189799
 20
97.79343468735186
 30
0.0
 10
18.67794095215764
 20
98.3401854428248
 30
0.0
 10
12.11796380545745
 20
98.61848184275365
 30
0.0
 10
6.695299415503559
 20
98.73103507100008
 30
0.0
 10
3.890692198240539
 20
98.75
 30
0.0
 10
2.499999999999996
 20
98.75
 30
0.0
  0
LINE
  5
89
330
1F
100
AcDbEntity
  8
0
  6
Continuous
 62
     7
370
    25
100
AcDbLine
 10
2.5
 20
98.75
 30
0.0
 11
2.5
 21
95.25
 31
0.0
  0
SPLINE
  5
8A
330
1F
100
AcDbEntity
  8
0
  6
Continuous
 62
     7
370
    25
100
AcDbSpline
210
0.0
220
0.0
230
1.0
 70
     8
 71
     3
 72
    28
 73
    24
 74
     0
 42
0.000000001
 43
0.00000001
 40
0.0
 40
0.0
 40
0.0
 40
0.0
 40
0.0078125
 40
0.015625
 40
0.03125
 40
0.046875
 40
0.0625
 40
0.09375
 40
0.125
 40
0.15625
 40
0.1875
 40
0.25
 40
0.3125
 40
0.375
 40
0.4375
 40
0.5
 40
0.625
 40
0.6875
 40
0.75
 40
0.8125
 40
0.875
 40
0.90625
 40
0.9151353861562551
 40
0.9151353861562551
 40
0.9151353861562551
 40
0.9151353861562551
 10
2.500000000000004
 20
95.25
 30
0.0
 10
3.874728056890602
 20
95.25
 30
0.0
 10
6.647755702133876
 20
95.23124693962589
 30
0.0
 10
12.00448022936266
 20
95.12004385309861
 30
0.0
 10
18.47860730364539
 20
94.84532851976185
 30
0.0
 10
25.85831593165455
 20
94.30646878046802
 30
0.0
 10
35.20253558055196
 20
93.31970206069713
 30
0.0
 10
45.9641043500818
 20
91.60325721953583
 30
0.0
 10
57.46463985352792
 20
88.83559500213853
 30
0.0
 10
67.60663272847809
 20
85.42578019199607
 30
0.0
 10
79.39443952527328
 20
80.11145751316498
 30
0.0
 10
91.02309240868168
 20
72.1957582453309
 30
0.0
 10
100.5181347803888
 20
61.17124806527376
 30
0.0
 10
106.0807263008033
 20
49.06093216520003
 30
0.0
 10
108.174322326453
 20
36.26058813711856
 30
0.0
 10
106.878957344322
 20
18.85288537747561
 30
0.0
 10
100.243334711503
 20
1.904036255731487
 30
0.0
 10
89.98308633217484
 20
-12.55365605159318
 30
0.0
 10
80.93642128332579
 20
-21.64689066608534
 30
0.0
 10
70.99678770465059
 20
-28.49152189187423
 30
0.0
 10
62.40638449530035
 20
-31.93955600740993
 30
0.0
 10
56.74334836783262
 20
-32.81882815592888
 30
0.0
 10
54.52549300968735
 20
-32.90906486284274
 30
0.0
 10
54.03430155013261
 20
-32.91627164596275
 30
0.0
  0
ARC
  5
8B
330
1F
100
AcDbEntity
  8
0
  6
Continuous
 62
     7
370
    25
100
AcDbCircle
 10
53.8875968913
 20
-22.9173478167
 30
0.0
 40
10.0
100
AcDbArc
 50
170.6832304158
 51
270.8405859323
  0
SPLINE
  5
8C
330
1F
100
AcDbEntity
  8
0
  6
Continuous
 62
     7
370
    25
100
AcDbSpline
210
0.0
220
0.0
230
1.0
 70
     8
 71
     3
 72
    13
 73
     9
 74
     0
 42
0.000000001
 43
0.00000001
 40
0.6754961837502238
 40
0.6754961837502238
 40
0.6754961837502238
 40
0.6754961837502238
 40
0.6875
 40
0.71875
 40
0.734375
 40
0.75
 40
0.78125
 40
0.7869760411726007
 40
0.7869760411726007
 40
0.7869760411726007
 40
0.7869760411726007
 10
44.01951313923426
 20
-21.29842130163503
 30
0.0
 10
44.23499973123347
 20
-19.98493380390224
 30
0.0
 10
44.78185632577304
 20
-15.20546544389026
 30
0.0
 10
44.58712680161212
 20
-8.574205962537235
 30
0.0
 10
43.78994657198466
 20
-1.618841872340924
 30
0.0
 10
42.77817605932861
 20
5.193461538356346
 30
0.0
 10
41.55585224259129
 20
10.91391290792741
 30
0.0
 10
40.20997558825495
 20
14.76860978345177
 30
0.0
 10
39.98860362613086
 20
15.36084949862165
 30
0.0
  0
ARC
  5
8D
330
1F
100
AcDbEntity
  8
0
  6
Continuous
 62
     7
370
    25
100
AcDbCircle
 10
49.3556232562
 20
18.8621268727
 30
0.0
 40
10.0
100
AcDbArc
 50
117.2373497546
 51
200.495128302
  0
SPLINE
  5
8E
330
1F
100
AcDbEntity
  8
0
  6
Continuous
 62
     7
370
    25
100
AcDbSpline
210
0.0
220
0.0
230
1.0
 70
     8
 71
     3
 72
    30
 73
    26
 74
     0
 42
0.000000001
 43
0.00000001
 40
0.0626466345769219
 40
0.0626466345769219
 40
0.0626466345769219
 40
0.0626466345769219
 40
0.09375
 40
0.125
 40
0.15625
 40
0.1875
 40
0.25
 40
0.3125
 40
0.375
 40
0.4375
 40
0.5
 40
0.5625
 40
0.625
 40
0.6875
 40
0.75
 40
0.8125
 40
0.84375
 40
0.875
 40
0.90625
 40
0.9375
 40
0.953125
 40
0.96875
 40
0.984375
 40
0.9921875
 40
1.0
 40
1.0
 40
1.0
 40
1.0
 10
44.77884706361648
 20
27.75330900351371
 30
0.0
 10
46.39166505524956
 20
28.58351435511342
 30
0.0
 10
49.59726616702692
 20
30.1089228879362
 30
0.0
 10
54.28006812067669
 20
32.17090262248923
 30
0.0
 10
58.7955510968171
 20
34.20428636015579
 30
0.0
 10
64.44089386263008
 20
37.10027106295608
 30
0.0
 10
70.682092941367
 20
40.98302960581049
 30
0.0
 10
76.80011230483308
 20
45.98357639903428
 30
0.0
 10
81.44297874613765
 20
51.24033584110875
 30
0.0
 10
84.49613127743514
 20
56.69413501940289
 30
0.0
 10
85.78157051483937
 20
62.28952774670758
 30
0.0
 10
85.04206208607911
 20
67.8442155384424
 30
0.0
 10
82.1762031535682
 20
72.98583008088872
 30
0.0
 10
77.28191871098007
 20
77.49937941405186
 30
0.0
 10
70.3632698717817
 20
81.35191814463579
 30
0.0
 10
62.83573790616642
 20
83.97808846263308
 30
0.0
 10
55.70054159214686
 20
85.6918459983363
 30
0.0
 10
49.77839792019651
 20
86.77213196191212
 30
0.0
 10
43.27149139131336
 20
87.63545126299005
 30
0.0
 10
37.35050891331501
 20
88.16351981722099
 30
0.0
 10
32.30740926958806
 20
88.46461365739187
 30
0.0
 10
28.37135436851128
 20
88.62808352535583
 30
0.0
 10
24.95811328724601
 20
88.71095004550057
 30
0.0
 10
22.15512895785567
 20
88.74438077818864
 30
0.0
 10
20.71517679153805
 20
88.75
 30
0.0
 10
20.0
 20
88.75
 30
0.0
  0
LINE
  5
8F
330
1F
100
AcDbEntity
  8
0
  6
Continuous
 62
     7
370
    25
100
AcDbLine
 10
20.0
 20
88.75
 30
0.0
 11
-20.0
 21
88.75
 31
0.0
  0
MTEXT
  5
91
330
1F
100
AcDbEntity
  8
0
  6
Continuous
 62
     7
100
AcDbMText
 10
-111.2147564451
 20
-54.5195663917
 30
0.0
 40
4.83362
 41
0.0
 71
     1
 72
     1
  1
SOLIDWORKS Educational Product.
  7
SLDTEXTSTYLE0
 73
     1
 44
1.0
  0
MTEXT
  5
92
330
1F
100
AcDbEntity
  8
0
  6
Continuous
 62
     7
100
AcDbMText
 10
-111.2147564451
 20
-61.7699963917
 30
0.0
 40
4.83362
 41
0.0
 71
     1
 72
     1
  1
For Instructional Use Only.
  7
SLDTEXTSTYLE0
 73
     1
 44
1.0
  0
ENDSEC
  0
SECTION
  2
OBJECTS
  0
DICTIONARY
  5
C
330
0
100
AcDbDictionary
281
     1
  3
ACAD_GROUP
350
D
  3
ACAD_LAYOUT
350
1A
  3
ACAD_MLINESTYLE
350
17
  3
ACAD_PLOTSETTINGS
350
19
  3
ACAD_PLOTSTYLENAME
350
E
  3
ACAD_SCALELIST
350
47
  0
DICTIONARY
  5
D
102
{ACAD_REACTORS
330
C
102
}
330
C
100
AcDbDictionary
281
     1
  0
DICTIONARY
  5
1A
102
{ACAD_REACTORS
330
C
102
}
330
C
100
AcDbDictionary
281
     1
  3
Layout1
350
1E
  3
Layout2
350
26
  3
Model
350
22
  0
DICTIONARY
  5
17
102
{ACAD_REACTORS
330
C
102
}
330
C
100
AcDbDictionary
281
     1
  3
Standard
350
18
  0
DICTIONARY
  5
19
102
{ACAD_REACTORS
330
C
102
}
330
C
100
AcDbDictionary
281
     1
  0
ACDBDICTIONARYWDFLT
  5
E
102
{ACAD_REACTORS
330
C
102
}
330
C
100
AcDbDictionary
281
     1
  3
Normal
350
F
100
AcDbDictionaryWithDefault
340
F
  0
DICTIONARY
  5
47
102
{ACAD_REACTORS
330
C
102
}
330
C
100
AcDbDictionary
281
     1
  3
A0
350
48
  3
A1
350
49
  3
A2
350
4A
  3
A3
350
4B
  3
A4
350
4C
  3
A5
350
4D
  3
A6
350
4E
  3
A7
350
4F
  3
A8
350
50
  3
A9
350
51
  3
B0
350
52
  3
B1
350
53
  3
B2
350
54
  3
B3
350
55
  3
B4
350
56
  3
B5
350
57
  3
B6
350
58
  3
B7
350
59
  3
B8
350
5A
  3
B9
350
5B
  3
C0
350
5C
  3
C1
350
5D
  3
C2
350
5E
  3
C3
350
5F
  3
C4
350
60
  3
C5
350
61
  3
C6
350
62
  3
C7
350
63
  3
C8
350
64
  3
C9
350
65
  3
D0
350
66
  3
D1
350
67
  3
D2
350
68
  0
LAYOUT
  5
1E
102
{ACAD_REACTORS
330
1A
102
}
330
1A
100
AcDbPlotSettings
  1

  2
none_device
  4

  6

 40
0.0
 41
0.0
 42
0.0
 43
0.0
 44
0.0
 45
0.0
 46
0.0
 47
0.0
 48
0.0
 49
0.0
140
0.0
141
0.0
142
1.0
143
1.0
 70
   688
 72
     1
 73
     0
 74
     5
  7

 75
    16
147
1.0
148
0.0
149
0.0
100
AcDbLayout
  1
Layout1
 70
     1
 71
     1
 10
0.0
 20
0.0
 11
420.0
 21
297.0
 12
0.0
 22
0.0
 32
0.0
 14
1.0000000000E+20
 24
1.0000000000E+20
 34
1.0000000000E+20
 15
-1.0000000000E+20
 25
-1.0000000000E+20
 35
-1.0000000000E+20
146
0.0
 13
0.0
 23
0.0
 33
0.0
 16
1.0
 26
0.0
 36
0.0
 17
0.0
 27
1.0
 37
0.0
 76
     0
330
1B
  0
LAYOUT
  5
26
102
{ACAD_REACTORS
330
1A
102
}
330
1A
100
AcDbPlotSettings
  1

  2
none_device
  4

  6

 40
0.0
 41
0.0
 42
0.0
 43
0.0
 44
0.0
 45
0.0
 46
0.0
 47
0.0
 48
0.0
 49
0.0
140
0.0
141
0.0
142
1.0
143
1.0
 70
   688
 72
     1
 73
     0
 74
     5
  7

 75
    16
147
1.0
148
0.0
149
0.0
100
AcDbLayout
  1
Layout2
 70
     1
 71
     2
 10
0.0
 20
0.0
 11
0.0
 21
0.0
 12
0.0
 22
0.0
 32
0.0
 14
0.0
 24
0.0
 34
0.0
 15
0.0
 25
0.0
 35
0.0
146
0.0
 13
0.0
 23
0.0
 33
0.0
 16
1.0
 26
0.0
 36
0.0
 17
0.0
 27
1.0
 37
0.0
 76
     0
330
23
  0
LAYOUT
  5
22
102
{ACAD_REACTORS
330
1A
102
}
330
1A
100
AcDbPlotSettings
  1

  2
none_device
  4
ANSI_A_(11.00_x_8.50_Inches)
  6

 40
6.35
 41
19.05
 42
6.35000508
 43
19.05000254
 44
279.4
 45
215.9
 46
133.34999746
 47
60.7642955642
 48
0.0
 49
0.0
140
0.0
141
0.0
142
0.0489593303
143
1.0
 70
  1696
 72
     0
 73
     0
 74
     0
  7

 75
     0
147
0.0179189148
148
-1300.4909072572
149
0.0
100
AcDbLayout
  1
Model
 70
     1
 71
     0
 10
0.0
 20
0.0
 11
420.0
 21
297.0
 12
0.0
 22
0.0
 32
0.0
 14
-111.2147564451
 24
-53.5
 34
0.0
 15
111.2147564451
 25
98.75
 35
0.0
146
0.0
 13
0.0
 23
0.0
 33
0.0
 16
1.0
 26
0.0
 36
0.0
 17
0.0
 27
1.0
 37
0.0
 76
     0
330
1F
331
29
  0
MLINESTYLE
  5
18
102
{ACAD_REACTORS
330
17
102
}
330
17
100
AcDbMlineStyle
  2
Standard
 70
     0
  3

 62
   256
 51
90.0
 52
90.0
 71
     2
 49
0.5
 62
   256
  6
BYLAYER
 49
-0.5
 62
   256
  6
BYLAYER
  0
ACDBPLACEHOLDER
  5
F
102
{ACAD_REACTORS
330
E
102
}
330
E
  0
SCALE
  5
48
102
{ACAD_REACTORS
330
47
102
}
330
47
100
AcDbScale
 70
     0
300
1:1
140
1.0
141
1.0
290
     1
  0
SCALE
  5
49
102
{ACAD_REACTORS
330
47
102
}
330
47
100
AcDbScale
 70
     0
300
1:2
140
1.0
141
2.0
290
     0
  0
SCALE
  5
4A
102
{ACAD_REACTORS
330
47
102
}
330
47
100
AcDbScale
 70
     0
300
1:4
140
1.0
141
4.0
290
     0
  0
SCALE
  5
4B
102
{ACAD_REACTORS
330
47
102
}
330
47
100
AcDbScale
 70
     0
300
1:5
140
1.0
141
5.0
290
     0
  0
SCALE
  5
4C
102
{ACAD_REACTORS
330
47
102
}
330
47
100
AcDbScale
 70
     0
300
1:8
140
1.0
141
8.0
290
     0
  0
SCALE
  5
4D
102
{ACAD_REACTORS
330
47
102
}
330
47
100
AcDbScale
 70
     0
300
1:10
140
1.0
141
10.0
290
     0
  0
SCALE
  5
4E
102
{ACAD_REACTORS
330
47
102
}
330
47
100
AcDbScale
 70
     0
300
1:16
140
1.0
141
16.0
290
     0
  0
SCALE
  5
4F
102
{ACAD_REACTORS
330
47
102
}
330
47
100
AcDbScale
 70
     0
300
1:20
140
1.0
141
20.0
290
     0
  0
SCALE
  5
50
102
{ACAD_REACTORS
330
47
102
}
330
47
100
AcDbScale
 70
     0
300
1:30
140
1.0
141
30.0
290
     0
  0
SCALE
  5
51
102
{ACAD_REACTORS
330
47
102
}
330
47
100
AcDbScale
 70
     0
300
1:40
140
1.0
141
40.0
290
     0
  0
SCALE
  5
52
102
{ACAD_REACTORS
330
47
102
}
330
47
100
AcDbScale
 70
     0
300
1:50
140
1.0
141
50.0
290
     0
  0
SCALE
  5
53
102
{ACAD_REACTORS
330
47
102
}
330
47
100
AcDbScale
 70
     0
300
1:100
140
1.0
141
100.0
290
     0
  0
SCALE
  5
54
102
{ACAD_REACTORS
330
47
102
}
330
47
100
AcDbScale
 70
     0
300
2:1
140
2.0
141
1.0
290
     0
  0
SCALE
  5
55
102
{ACAD_REACTORS
330
47
102
}
330
47
100
AcDbScale
 70
     0
300
4:1
140
4.0
141
1.0
290
     0
  0
SCALE
  5
56
102
{ACAD_REACTORS
330
47
102
}
330
47
100
AcDbScale
 70
     0
300
8:1
140
8.0
141
1.0
290
     0
  0
SCALE
  5
57
102
{ACAD_REACTORS
330
47
102
}
330
47
100
AcDbScale
 70
     0
300
10:1
140
10.0
141
1.0
290
     0
  0
SCALE
  5
58
102
{ACAD_REACTORS
330
47
102
}
330
47
100
AcDbScale
 70
     0
300
100:1
140
100.0
141
1.0
290
     0
  0
SCALE
  5
59
102
{ACAD_REACTORS
330
47
102
}
330
47
100
AcDbScale
 70
     0
300
1/128" = 1'-0"
140
0.0078125
141
12.0
290
     0
  0
SCALE
  5
5A
102
{ACAD_REACTORS
330
47
102
}
330
47
100
AcDbScale
 70
     0
300
1/64" = 1'-0"
140
0.015625
141
12.0
290
     0
  0
SCALE
  5
5B
102
{ACAD_REACTORS
330
47
102
}
330
47
100
AcDbScale
 70
     0
300
1/32" = 1'-0"
140
0.03125
141
12.0
290
     0
  0
SCALE
  5
5C
102
{ACAD_REACTORS
330
47
102
}
330
47
100
AcDbScale
 70
     0
300
1/16" = 1'-0"
140
0.0625
141
12.0
290
     0
  0
SCALE
  5
5D
102
{ACAD_REACTORS
330
47
102
}
330
47
100
AcDbScale
 70
     0
300
3/32" = 1'-0"
140
0.09375
141
12.0
290
     0
  0
SCALE
  5
5E
102
{ACAD_REACTORS
330
47
102
}
330
47
100
AcDbScale
 70
     0
300
1/8" = 1'-0"
140
0.125
141
12.0
290
     0
  0
SCALE
  5
5F
102
{ACAD_REACTORS
330
47
102
}
330
47
100
AcDbScale
 70
     0
300
3/16" = 1'-0"
140
0.1875
141
12.0
290
     0
  0
SCALE
  5
60
102
{ACAD_REACTORS
330
47
102
}
330
47
100
AcDbScale
 70
     0
300
1/4" = 1'-0"
140
0.25
141
12.0
290
     0
  0
SCALE
  5
61
102
{ACAD_REACTORS
330
47
102
}
330
47
100
AcDbScale
 70
     0
300
3/8" = 1'-0"
140
0.375
141
12.0
290
     0
  0
SCALE
  5
62
102
{ACAD_REACTORS
330
47
102
}
330
47
100
AcDbScale
 70
     0
300
1/2" = 1'-0"
140
0.5
141
12.0
290
     0
  0
SCALE
  5
63
102
{ACAD_REACTORS
330
47
102
}
330
47
100
AcDbScale
 70
     0
300
3/4" = 1'-0"
140
0.75
141
12.0
290
     0
  0
SCALE
  5
64
102
{ACAD_REACTORS
330
47
102
}
330
47
100
AcDbScale
 70
     0
300
1" = 1'-0"
140
1.0
141
12.0
290
     0
  0
SCALE
  5
65
102
{ACAD_REACTORS
330
47
102
}
330
47
100
AcDbScale
 70
     0
300
1-1/2" = 1'-0"
140
1.5
141
12.0
290
     0
  0
SCALE
  5
66
102
{ACAD_REACTORS
330
47
102
}
330
47
100
AcDbScale
 70
     0
300
3" = 1'-0"
140
3.0
141
12.0
290
     0
  0
SCALE
  5
67
102
{ACAD_REACTORS
330
47
102
}
330
47
100
AcDbScale
 70
     0
300
6" = 1'-0"
140
6.0
141
12.0
290
     0
  0
SCALE
  5
68
102
{ACAD_REACTORS
330
47
102
}
330
47
100
AcDbScale
 70
     0
300
1'-0" = 1'-0"
140
12.0
141
12.0
290
     0
  0
ENDSEC
  0
EOF
