  0
SECTION
  2
HEADER
  9
$ACADVER
  1
AC1015
  9
$ACADMAINTVER
 70
     6
  9
$DWGCODEPAGE
  3
ANSI_1252
  9
$INSBASE
 10
0.0
 20
0.0
 30
0.0
  9
$EXTMIN
 10
-107.90602156
 20
-56.0
 30
0.0
  9
$EXTMAX
 10
107.90602156
 20
91.6058398278
 30
0.0
  9
$LIMMIN
 10
0.0
 20
0.0
  9
$LIMMAX
 10
420.0
 20
297.0
  9
$ORTHOMODE
 70
     0
  9
$REGENMODE
 70
     1
  9
$FILLMODE
 70
     1
  9
$QTEXTMODE
 70
     0
  9
$MIRRTEXT
 70
     1
  9
$LTSCALE
 40
1.0
  9
$ATTMODE
 70
     1
  9
$TEXTSIZE
 40
3.5
  9
$TRACEWID
 40
1.0
  9
$TEXTSTYLE
  7
Standard
  9
$CLAYER
  8
0
  9
$CELTYPE
  6
ByLayer
  9
$CECOLOR
 62
   256
  9
$CELTSCALE
 40
1.0
  9
$DISPSILH
 70
     0
  9
$DIMSCALE
 40
1.0
  9
$DIMASZ
 40
3.302
  9
$DIMEXO
 40
1.0
  9
$DIMDLI
 40
3.75
  9
$DIMRND
 40
0.0
  9
$DIMDLE
 40
0.0
  9
$DIMEXE
 40
1.0
  9
$DIMTP
 40
0.0
  9
$DIMTM
 40
0.0
  9
$DIMTXT
 40
3.5
  9
$DIMCEN
 40
2.5
  9
$DIMTSZ
 40
0.0
  9
$DIMTOL
 70
     0
  9
$DIMLIM
 70
     0
  9
$DIMTIH
 70
     1
  9
$DIMTOH
 70
     1
  9
$DIMSE1
 70
     0
  9
$DIMSE2
 70
     0
  9
$DIMTAD
 70
     1
  9
$DIMZIN
 70
     1
  9
$DIMBLK
  1

  9
$DIMASO
 70
     1
  9
$DIMSHO
 70
     1
  9
$DIMPOST
  1

  9
$DIMAPOST
  1

  9
$DIMALT
 70
     0
  9
$DIMALTD
 70
     3
  9
$DIMALTF
 40
0.0393700787
  9
$DIMLFAC
 40
1.0
  9
$DIMTOFL
 70
     1
  9
$DIMTVP
 40
0.0
  9
$DIMTIX
 70
     0
  9
$DIMSOXD
 70
     0
  9
$DIMSAH
 70
     0
  9
$DIMBLK1
  1

  9
$DIMBLK2
  1

  9
$DIMSTYLE
  2
ISO-25
  9
$DIMCLRD
 70
     0
  9
$DIMCLRE
 70
     0
  9
$DIMCLRT
 70
     0
  9
$DIMTFAC
 40
1.0
  9
$DIMGAP
 40
1.524
  9
$DIMJUST
 70
     0
  9
$DIMSD1
 70
     0
  9
$DIMSD2
 70
     0
  9
$DIMTOLJ
 70
     0
  9
$DIMTZIN
 70
     1
  9
$DIMALTZ
 70
     0
  9
$DIMALTTZ
 70
     0
  9
$DIMUPT
 70
     0
  9
$DIMDEC
 70
     2
  9
$DIMTDEC
 70
     2
  9
$DIMALTU
 70
     2
  9
$DIMALTTD
 70
     3
  9
$DIMTXSTY
  7
Standard
  9
$DIMAUNIT
 70
     0
  9
$DIMADEC
 70
     2
  9
$DIMALTRND
 40
0.0
  9
$DIMAZIN
 70
     0
  9
$DIMDSEP
 70
    44
  9
$DIMATFIT
 70
     3
  9
$DIMFRAC
 70
     0
  9
$DIMLDRBLK
  1

  9
$DIMLUNIT
 70
     2
  9
$DIMLWD
 70
    -2
  9
$DIMLWE
 70
    -2
  9
$DIMTMOVE
 70
     0
  9
$LUNITS
 70
     2
  9
$LUPREC
 70
     2
  9
$SKETCHINC
 40
1.0
  9
$FILLETRAD
 40
10.0
  9
$AUNITS
 70
     0
  9
$AUPREC
 70
     2
  9
$MENU
  1
.
  9
$ELEVATION
 40
0.0
  9
$PELEVATION
 40
0.0
  9
$THICKNESS
 40
0.0
  9
$LIMCHECK
 70
     0
  9
$CHAMFERA
 40
0.0
  9
$CHAMFERB
 40
0.0
  9
$CHAMFERC
 40
0.0
  9
$CHAMFERD
 40
0.0
  9
$SKPOLY
 70
     0
  9
$TDCREATE
 40
2459050.570897882
  9
$TDUCREATE
 40
2459050.862564548
  9
$TDUPDATE
 40
2459050.570923299
  9
$TDUUPDATE
 40
2459050.862589965
  9
$TDINDWG
 40
0.0000000116
  9
$TDUSRTIMER
 40
0.0000000116
  9
$USRTIMER
 70
     1
  9
$ANGBASE
 50
0.0
  9
$ANGDIR
 70
     0
  9
$PDMODE
 70
     0
  9
$PDSIZE
 40
-1.0
  9
$PLINEWID
 40
0.0
  9
$SPLFRAME
 70
     0
  9
$SPLINETYPE
 70
     6
  9
$SPLINESEGS
 70
     8
  9
$HANDSEED
  5
99
  9
$SURFTAB1
 70
     6
  9
$SURFTAB2
 70
     6
  9
$SURFTYPE
 70
     6
  9
$SURFU
 70
     6
  9
$SURFV
 70
     6
  9
$UCSBASE
  2

  9
$UCSNAME
  2

  9
$UCSORG
 10
0.0
 20
0.0
 30
0.0
  9
$UCSXDIR
 10
1.0
 20
0.0
 30
0.0
  9
$UCSYDIR
 10
0.0
 20
1.0
 30
0.0
  9
$UCSORTHOREF
  2

  9
$UCSORTHOVIEW
 70
     0
  9
$UCSORGTOP
 10
0.0
 20
0.0
 30
0.0
  9
$UCSORGBOTTOM
 10
0.0
 20
0.0
 30
0.0
  9
$UCSORGLEFT
 10
0.0
 20
0.0
 30
0.0
  9
$UCSORGRIGHT
 10
0.0
 20
0.0
 30
0.0
  9
$UCSORGFRONT
 10
0.0
 20
0.0
 30
0.0
  9
$UCSORGBACK
 10
0.0
 20
0.0
 30
0.0
  9
$PUCSBASE
  2

  9
$PUCSNAME
  2

  9
$PUCSORG
 10
0.0
 20
0.0
 30
0.0
  9
$PUCSXDIR
 10
1.0
 20
0.0
 30
0.0
  9
$PUCSYDIR
 10
0.0
 20
1.0
 30
0.0
  9
$PUCSORTHOREF
  2

  9
$PUCSORTHOVIEW
 70
     0
  9
$PUCSORGTOP
 10
0.0
 20
0.0
 30
0.0
  9
$PUCSORGBOTTOM
 10
0.0
 20
0.0
 30
0.0
  9
$PUCSORGLEFT
 10
0.0
 20
0.0
 30
0.0
  9
$PUCSORGRIGHT
 10
0.0
 20
0.0
 30
0.0
  9
$PUCSORGFRONT
 10
0.0
 20
0.0
 30
0.0
  9
$PUCSORGBACK
 10
0.0
 20
0.0
 30
0.0
  9
$USERI1
 70
     0
  9
$USERI2
 70
     0
  9
$USERI3
 70
     0
  9
$USERI4
 70
     0
  9
$USERI5
 70
     0
  9
$USERR1
 40
0.0
  9
$USERR2
 40
0.0
  9
$USERR3
 40
0.0
  9
$USERR4
 40
0.0
  9
$USERR5
 40
0.0
  9
$WORLDVIEW
 70
     1
  9
$SHADEDGE
 70
     3
  9
$SHADEDIF
 70
    70
  9
$TILEMODE
 70
     1
  9
$MAXACTVP
 70
    64
  9
$PINSBASE
 10
0.0
 20
0.0
 30
0.0
  9
$PLIMCHECK
 70
     0
  9
$PEXTMIN
 10
1.0000000000E+20
 20
1.0000000000E+20
 30
1.0000000000E+20
  9
$PEXTMAX
 10
-1.0000000000E+20
 20
-1.0000000000E+20
 30
-1.0000000000E+20
  9
$PLIMMIN
 10
0.0
 20
0.0
  9
$PLIMMAX
 10
420.0
 20
297.0
  9
$UNITMODE
 70
     0
  9
$VISRETAIN
 70
     1
  9
$PLINEGEN
 70
     0
  9
$PSLTSCALE
 70
     1
  9
$TREEDEPTH
 70
  3020
  9
$CMLSTYLE
  2
Standard
  9
$CMLJUST
 70
     0
  9
$CMLSCALE
 40
20.0
  9
$PROXYGRAPHICS
 70
     1
  9
$MEASUREMENT
 70
     1
  9
$CELWEIGHT
370
    -1
  9
$ENDCAPS
280
     0
  9
$JOINSTYLE
280
     0
  9
$LWDISPLAY
290
     1
  9
$INSUNITS
 70
     4
  9
$HYPERLINKBASE
  1

  9
$STYLESHEET
  1

  9
$XEDIT
290
     1
  9
$CEPSNTYPE
380
     0
  9
$PSTYLEMODE
290
     1
  9
$FINGERPRINTGUID
  2
{8b24e176-c3ee-49e6-921c-4e68c1e141a9}
  9
$VERSIONGUID
  2
{FAEB1C32-E019-11D5-929B-00C0DF256EC4}
  9
$EXTNAMES
290
     1
  9
$PSVPSCALE
 40
0.0
  9
$OLESTARTUP
290
     0
  0
ENDSEC
  0
SECTION
  2
CLASSES
  0
CLASS
  1
ACDBDICTIONARYWDFLT
  2
AcDbDictionaryWithDefault
  3
ObjectDBX Classes
 90
        0
280
     0
281
     0
  0
CLASS
  1
VISUALSTYLE
  2
AcDbVisualStyle
  3
ObjectDBX Classes
 90
     4095
280
     0
281
     0
  0
CLASS
  1
MATERIAL
  2
AcDbMaterial
  3
ObjectDBX Classes
 90
     1153
280
     0
281
     0
  0
CLASS
  1
SCALE
  2
AcDbScale
  3
ObjectDBX Classes
 90
     1153
280
     0
281
     0
  0
CLASS
  1
TABLESTYLE
  2
AcDbTableStyle
  3
ObjectDBX Classes
 90
     4095
280
     0
281
     0
  0
CLASS
  1
MLEADERSTYLE
  2
AcDbMLeaderStyle
  3
ACDB_MLEADERSTYLE_CLASS
 90
     4095
280
     0
281
     0
  0
CLASS
  1
SUN
  2
AcDbSun
  3
SCENEOE
 90
     1153
280
     0
281
     0
  0
CLASS
  1
ACDBPLACEHOLDER
  2
AcDbPlaceHolder
  3
ObjectDBX Classes
 90
        0
280
     0
281
     0
  0
CLASS
  1
LAYOUT
  2
AcDbLayout
  3
ObjectDBX Classes
 90
        0
280
     0
281
     0
  0
ENDSEC
  0
SECTION
  2
TABLES
  0
TABLE
  2
VPORT
  5
8
330
0
100
AcDbSymbolTable
 70
     1
  0
VPORT
  5
29
330
8
100
AcDbSymbolTableRecord
100
AcDbViewportTableRecord
  2
*Active
 70
     0
 10
0.0
 20
0.0
 11
1.0
 21
1.0
 12
0.0
 22
17.8029199139
 13
0.0
 23
0.0
 14
10.0
 24
10.0
 15
10.0
 25
10.0
 16
0.0
 26
0.0
 36
1.0
 17
0.0
 27
0.0
 37
0.0
 40
150.5579566243
 41
1.4620833659
 42
50.0
 43
0.0
 44
0.0
 50
0.0
 51
0.0
 71
     0
 72
   100
 73
     1
 74
     3
 75
     0
 76
     0
 77
     0
 78
     0
281
     0
 65
     1
110
0.0
120
0.0
130
0.0
111
1.0
121
0.0
131
0.0
112
0.0
122
1.0
132
0.0
 79
     0
146
0.0
  0
ENDTAB
  0
TABLE
  2
LTYPE
  5
5
330
0
100
AcDbSymbolTable
 70
     6
  0
LTYPE
  5
14
330
5
100
AcDbSymbolTableRecord
100
AcDbLinetypeTableRecord
  2
ByBlock
 70
     0
  3

 72
    65
 73
     0
 40
0.0
  0
LTYPE
  5
15
330
5
100
AcDbSymbolTableRecord
100
AcDbLinetypeTableRecord
  2
ByLayer
 70
     0
  3

 72
    65
 73
     0
 40
0.0
  0
LTYPE
  5
16
330
5
100
AcDbSymbolTableRecord
100
AcDbLinetypeTableRecord
  2
Continuous
 70
     0
  3
Solid line
 72
    65
 73
     0
 40
0.0
  0
LTYPE
  5
6E
330
5
100
AcDbSymbolTableRecord
100
AcDbLinetypeTableRecord
  2
HIDDEN
 70
     0
  3
Hidden __ __ __ __ __ __ __ __ __ __ __ __ __ __
 72
    65
 73
     2
 40
1.905
 49
1.27
 74
     0
 49
-0.635
 74
     0
  0
LTYPE
  5
6F
330
5
100
AcDbSymbolTableRecord
100
AcDbLinetypeTableRecord
  2
PHANTOM
 70
     0
  3
Phantom ______  __  __  ______  __  __  ______
 72
    65
 73
     6
 40
12.7
 49
6.35
 74
     0
 49
-1.27
 74
     0
 49
1.27
 74
     0
 49
-1.27
 74
     0
 49
1.27
 74
     0
 49
-1.27
 74
     0
  0
LTYPE
  5
70
330
5
100
AcDbSymbolTableRecord
100
AcDbLinetypeTableRecord
  2
CENTER
 70
     0
  3
Center ____ _ ____ _ ____ _ ____ _ ____ _ ____
 72
    65
 73
     4
 40
10.16
 49
6.35
 74
     0
 49
-1.27
 74
     0
 49
1.27
 74
     0
 49
-1.27
 74
     0
  0
LTYPE
  5
71
330
5
100
AcDbSymbolTableRecord
100
AcDbLinetypeTableRecord
  2
CENTERX2
 70
     0
  3
Center (2x) ________  __  ________  __  _____
 72
    65
 73
     4
 40
20.32
 49
12.7
 74
     0
 49
-2.54
 74
     0
 49
2.54
 74
     0
 49
-2.54
 74
     0
  0
LTYPE
  5
72
330
5
100
AcDbSymbolTableRecord
100
AcDbLinetypeTableRecord
  2
DOT2
 70
     0
  3
Dot (.5x) ........................................
 72
    65
 73
     2
 40
0.635
 49
0.0
 74
     0
 49
-0.635
 74
     0
  0
ENDTAB
  0
TABLE
  2
LAYER
  5
2
330
0
100
AcDbSymbolTable
 70
     1
  0
LAYER
  5
10
330
2
100
AcDbSymbolTableRecord
100
AcDbLayerTableRecord
  2
0
 70
     0
 62
     7
  6
Continuous
370
    -3
390
F
  0
ENDTAB
  0
TABLE
  2
STYLE
  5
3
330
0
100
AcDbSymbolTable
 70
     2
  0
STYLE
  5
11
330
3
100
AcDbSymbolTableRecord
100
AcDbTextStyleTableRecord
  2
Standard
 70
     0
 40
0.0
 41
1.0
 50
0.0
 71
     0
 42
3.5
  3
txt
  4

  0
STYLE
  5
96
330
3
100
AcDbSymbolTableRecord
100
AcDbTextStyleTableRecord
  2
SLDTEXTSTYLE0
 70
     0
 40
0.0
 41
0.7
 50
0.0
 71
     0
 42
3.5
  3
TXT
  4

  0
ENDTAB
  0
TABLE
  2
VIEW
  5
6
330
0
100
AcDbSymbolTable
 70
     0
  0
ENDTAB
  0
TABLE
  2
UCS
  5
7
330
0
100
AcDbSymbolTable
 70
     0
  0
ENDTAB
  0
TABLE
  2
APPID
  5
9
330
0
100
AcDbSymbolTable
 70
     1
  0
APPID
  5
12
330
9
100
AcDbSymbolTableRecord
100
AcDbRegAppTableRecord
  2
ACAD
 70
     0
  0
ENDTAB
  0
TABLE
  2
DIMSTYLE
  5
A
330
0
100
AcDbSymbolTable
 70
     1
100
AcDbDimStyleTable
  0
DIMSTYLE
105
27
330
A
100
AcDbSymbolTableRecord
100
AcDbDimStyleTableRecord
  2
ISO-25
 70
     0
 41
2.5
 42
0.625
 43
3.75
 44
1.25
 73
     0
 74
     0
 77
     1
 78
     8
140
2.5
141
2.5
143
0.0393700787
147
0.625
171
     3
172
     1
178
     0
271
     2
272
     2
274
     3
278
    44
283
     0
284
     8
340
11
  0
ENDTAB
  0
TABLE
  2
BLOCK_RECORD
  5
1
330
0
100
AcDbSymbolTable
 70
     1
  0
BLOCK_RECORD
  5
1F
330
1
100
AcDbSymbolTableRecord
100
AcDbBlockTableRecord
  2
*Model_Space
340
22
  0
BLOCK_RECORD
  5
1B
330
1
100
AcDbSymbolTableRecord
100
AcDbBlockTableRecord
  2
*Paper_Space
340
1E
  0
BLOCK_RECORD
  5
23
330
1
100
AcDbSymbolTableRecord
100
AcDbBlockTableRecord
  2
*Paper_Space0
340
26
  0
ENDTAB
  0
ENDSEC
  0
SECTION
  2
BLOCKS
  0
BLOCK
  5
20
330
1F
100
AcDbEntity
  8
0
100
AcDbBlockBegin
  2
*Model_Space
 70
     0
 10
0.0
 20
0.0
 30
0.0
  3
*Model_Space
  1

  0
ENDBLK
  5
21
330
1F
100
AcDbEntity
  8
0
100
AcDbBlockEnd
  0
BLOCK
  5
1C
330
1B
100
AcDbEntity
 67
     1
  8
0
100
AcDbBlockBegin
  2
*Paper_Space
 70
     0
 10
0.0
 20
0.0
 30
0.0
  3
*Paper_Space
  1

  0
ENDBLK
  5
1D
330
1B
100
AcDbEntity
 67
     1
  8
0
100
AcDbBlockEnd
  0
BLOCK
  5
24
330
23
100
AcDbEntity
  8
0
100
AcDbBlockBegin
  2
*Paper_Space0
 70
     0
 10
0.0
 20
0.0
 30
0.0
  3
*Paper_Space0
  1

  0
ENDBLK
  5
25
330
23
100
AcDbEntity
  8
0
100
AcDbBlockEnd
  0
ENDSEC
  0
SECTION
  2
ENTITIES
  0
SPLINE
  5
73
330
1F
100
AcDbEntity
  8
0
  6
Continuous
 62
     7
370
    25
100
AcDbSpline
210
0.0
220
0.0
230
1.0
 70
     8
 71
     2
 72
     6
 73
     3
 74
     0
 42
0.000000001
 43
0.00000001
 40
0.0
 40
0.0
 40
0.0
 40
0.4893427310602457
 40
0.4893427310602457
 40
0.4893427310602457
 10
-65.06677713999176
 20
27.82589199641663
 30
0.0
 10
-58.44827722874128
 20
27.6504640569029
 30
0.0
 10
-51.95228985088417
 20
26.33374359740257
 30
0.0
  0
ARC
  5
74
330
1F
100
AcDbEntity
  8
0
  6
Continuous
 62
     7
370
    25
100
AcDbCircle
 10
-53.4422213891
 20
18.9832263359
 30
0.0
 40
7.499999999999998
100
AcDbArc
 50
339.7120159899
 51
78.5415334914
  0
SPLINE
  5
75
330
1F
100
AcDbEntity
  8
0
  6
Continuous
 62
     7
370
    25
100
AcDbSpline
210
0.0
220
0.0
230
1.0
 70
     8
 71
     3
 72
    15
 73
    11
 74
     0
 42
0.000000001
 43
0.00000001
 40
0.2169593500266446
 40
0.2169593500266446
 40
0.2169593500266446
 40
0.2169593500266446
 40
0.21875
 40
0.234375
 40
0.25
 40
0.265625
 40
0.28125
 40
0.296875
 40
0.3125
 40
0.3205590472313017
 40
0.3205590472313017
 40
0.3205590472313017
 40
0.3205590472313017
 10
-46.4075088427896
 20
16.38268420189626
 30
0.0
 10
-46.48441309227208
 20
16.17465093005709
 30
0.0
 10
-47.21646634625414
 20
14.14739788714795
 30
0.0
 10
-48.32374154927374
 20
10.23623222765104
 30
0.0
 10
-49.40756808415145
 20
4.613953135360418
 30
0.0
 10
-50.20855462772781
 20
-0.9165424146231128
 30
0.0
 10
-50.85320627977882
 20
-6.587028281970135
 30
0.0
 10
-51.16890554783732
 20
-12.34639978306065
 30
0.0
 10
-51.0308987319175
 20
-17.19144484831411
 30
0.0
 10
-50.69197578180489
 20
-20.09484065239519
 30
0.0
 10
-50.54183143696472
 20
-21.0789744224965
 30
0.0
  0
ARC
  5
76
330
1F
100
AcDbEntity
  8
0
  6
Continuous
 62
     7
370
    25
100
AcDbCircle
 10
-57.9560409452
 20
-22.2101231168
 30
0.0
 40
7.500000000000009
100
AcDbArc
 50
272.4086806129
 51
8.6744396471
  0
SPLINE
  5
77
330
1F
100
AcDbEntity
  8
0
  6
Continuous
 62
     7
370
    25
100
AcDbSpline
210
0.0
220
0.0
230
1.0
 70
     8
 71
     2
 72
     6
 73
     3
 74
     0
 42
0.000000001
 43
0.00000001
 40
0.3950383486084967
 40
0.3950383486084967
 40
0.3950383486084967
 40
1.0
 40
1.0
 40
1.0
 10
-57.64083825294204
 20
-29.70349667371665
 30
0.0
 10
-68.26721903123996
 20
-30.15048677828446
 30
0.0
 10
-78.52179745544152
 20
-29.85106285756973
 30
0.0
  0
SPLINE
  5
78
330
1F
100
AcDbEntity
  8
0
  6
Continuous
 62
     7
370
    25
100
AcDbSpline
210
0.0
220
0.0
230
1.0
 70
     8
 71
     3
 72
    72
 73
    68
 74
     0
 42
0.000000001
 43
0.00000001
 40
0.0
 40
0.0
 40
0.0
 40
0.0
 40
0.0078125
 40
0.015625
 40
0.03125
 40
0.046875
 40
0.0625
 40
0.078125
 40
0.09375
 40
0.109375
 40
0.125
 40
0.140625
 40
0.15625
 40
0.171875
 40
0.1875
 40
0.203125
 40
0.21875
 40
0.234375
 40
0.25
 40
0.265625
 40
0.28125
 40
0.296875
 40
0.3125
 40
0.328125
 40
0.34375
 40
0.359375
 40
0.375
 40
0.390625
 40
0.40625
 40
0.421875
 40
0.4375
 40
0.453125
 40
0.46875
 40
0.484375
 40
0.5
 40
0.515625
 40
0.53125
 40
0.546875
 40
0.5625
 40
0.578125
 40
0.59375
 40
0.609375
 40
0.625
 40
0.640625
 40
0.65625
 40
0.671875
 40
0.6875
 40
0.703125
 40
0.71875
 40
0.734375
 40
0.75
 40
0.765625
 40
0.78125
 40
0.796875
 40
0.8125
 40
0.828125
 40
0.84375
 40
0.859375
 40
0.875
 40
0.890625
 40
0.90625
 40
0.921875
 40
0.9375
 40
0.953125
 40
0.96875
 40
0.984375
 40
1.0
 40
1.0
 40
1.0
 40
1.0
 10
-78.52179745544152
 20
-29.85106285756973
 30
0.0
 10
-80.18929484549489
 20
-29.8024236821629
 30
0.0
 10
-83.53124112892304
 20
-29.37410353365806
 30
0.0
 10
-89.85249450462535
 20
-27.24955314042442
 30
0.0
 10
-96.67887657550752
 20
-22.38097024592165
 30
0.0
 10
-101.9340370430394
 20
-13.95447059883309
 30
0.0
 10
-103.5412791378427
 20
-4.285191050991792
 30
0.0
 10
-101.3509834744793
 20
5.136904596408386
 30
0.0
 10
-95.79375793779111
 20
12.89662467693413
 30
0.0
 10
-87.79737193792666
 20
17.86774417296121
 30
0.0
 10
-78.63379104308954
 20
19.3756196711014
 30
0.0
 10
-69.71702258439466
 20
17.28750481629724
 30
0.0
 10
-62.38501338329709
 20
12.0179829251633
 30
0.0
 10
-57.69892217433753
 20
4.451133256546583
 30
0.0
 10
-56.28995868284008
 20
-4.206529857814552
 30
0.0
 10
-58.27580656107053
 20
-12.61804342084716
 30
0.0
 10
-63.25745357243704
 20
-19.52241799009887
 30
0.0
 10
-70.39466407742522
 20
-23.92362954307132
 30
0.0
 10
-78.54636120250704
 20
-25.23386282009198
 30
0.0
 10
-86.45264804252486
 20
-23.35047648016304
 30
0.0
 10
-92.92949189224939
 20
-18.65688024989186
 30
0.0
 10
-97.04599403133082
 20
-11.94943697291586
 30
0.0
 10
-98.25771208530192
 20
-4.303761422342209
 30
0.0
 10
-96.47701671913734
 20
3.09733076797359
 30
0.0
 10
-92.07167981695922
 20
9.146766312635904
 30
0.0
 10
-85.79415625005254
 20
12.97876039846966
 30
0.0
 10
-78.65456919100826
 20
14.09221859630522
 30
0.0
 10
-71.75863434172899
 20
12.41448776747707
 30
0.0
 10
-66.1364616881724
 20
8.29765989383476
 30
0.0
 10
-62.5887350461711
 20
2.450239588251531
 30
0.0
 10
-61.57323018095881
 20
-4.183177458385256
 30
0.0
 10
-63.14766667843659
 20
-10.57399868004506
 30
0.0
 10
-66.97568307834763
 20
-15.76908300522412
 30
0.0
 10
-72.39277645527231
 20
-19.03283298133812
 30
0.0
 10
-78.51992282054333
 20
-19.95075684931594
 30
0.0
 10
-84.40568203449732
 20
-18.48001726308118
 30
0.0
 10
-89.17389009532421
 20
-14.94118350973934
 30
0.0
 10
-92.15401935850814
 20
-9.954693438386395
 30
0.0
 10
-92.97482069069645
 20
-4.333944015952181
 30
0.0
 10
-91.60827651851172
 20
1.046814658975149
 30
0.0
 10
-88.35908784562038
 20
5.38840759886584
 30
0.0
 10
-83.80354811427027
 20
8.08535835705863
 30
0.0
 10
-78.6893568644477
 20
8.809610559177708
 30
0.0
 10
-73.81352488239081
 20
7.547889358888466
 30
0.0
 10
-69.8982204145074
 20
4.588932054180365
 30
0.0
 10
-67.4838893293008
 20
0.4647866371262508
 30
0.0
 10
-66.85545591579438
 20
-4.142636192647323
 30
0.0
 10
-68.01154872808029
 20
-8.513631008297818
 30
0.0
 10
-70.67951595488739
 20
-12.00306309712895
 30
0.0
 10
-74.37168641943192
 20
-14.13549502315325
 30
0.0
 10
-78.47205977269245
 20
-14.6690600569806
 30
0.0
 10
-82.33832692465673
 20
-13.61965321433953
 30
0.0
 10
-85.4024281736388
 20
-11.24368215417654
 30
0.0
 10
-87.2539123504664
 20
-7.984266271113965
 30
0.0
 10
-87.69387797953407
 20
-4.391329467233292
 30
0.0
 10
-86.75258456231757
 20
-1.029655026884781
 30
0.0
 10
-84.66998370324762
 20
1.609838576696256
 30
0.0
 10
-81.84440355739756
 20
3.181668176074782
 30
0.0
 10
-78.75945515525096
 20
3.529782580094921
 30
0.0
 10
-75.9022101220071
 20
2.698595774399212
 30
0.0
 10
-73.68631388662155
 20
0.911310164938841
 30
0.0
 10
-72.3923677374181
 20
-1.478869627489969
 30
0.0
 10
-72.13341118850867
 20
-4.055022767781409
 30
0.0
 10
-72.85229270508675
 20
-6.407971511752745
 30
0.0
 10
-74.33874772733999
 20
-8.201968703481654
 30
0.0
 10
-76.30096742233447
 20
-9.219712771077957
 30
0.0
 10
-77.65393288680345
 20
-9.337926747348563
 30
0.0
 10
-78.3230899920439
 20
-9.264796980125759
 30
0.0
  0
LINE
  5
79
330
1F
100
AcDbEntity
  8
0
  6
Continuous
 62
     7
370
    25
100
AcDbLine
 10
-78.8662877461
 20
-14.2352030199
 30
0.0
 11
-78.323089992
 21
-9.2647969801
 31
0.0
  0
SPLINE
  5
7A
330
1F
100
AcDbEntity
  8
0
  6
Continuous
 62
     7
370
    25
100
AcDbSpline
210
0.0
220
0.0
230
1.0
 70
     8
 71
     3
 72
    72
 73
    68
 74
     0
 42
0.000000001
 43
0.00000001
 40
0.0
 40
0.0
 40
0.0
 40
0.0
 40
0.0078125
 40
0.015625
 40
0.03125
 40
0.046875
 40
0.0625
 40
0.078125
 40
0.09375
 40
0.109375
 40
0.125
 40
0.140625
 40
0.15625
 40
0.171875
 40
0.1875
 40
0.203125
 40
0.21875
 40
0.234375
 40
0.25
 40
0.265625
 40
0.28125
 40
0.296875
 40
0.3125
 40
0.328125
 40
0.34375
 40
0.359375
 40
0.375
 40
0.390625
 40
0.40625
 40
0.421875
 40
0.4375
 40
0.453125
 40
0.46875
 40
0.484375
 40
0.5
 40
0.515625
 40
0.53125
 40
0.546875
 40
0.5625
 40
0.578125
 40
0.59375
 40
0.609375
 40
0.625
 40
0.640625
 40
0.65625
 40
0.671875
 40
0.6875
 40
0.703125
 40
0.71875
 40
0.734375
 40
0.75
 40
0.765625
 40
0.78125
 40
0.796875
 40
0.8125
 40
0.828125
 40
0.84375
 40
0.859375
 40
0.875
 40
0.890625
 40
0.90625
 40
0.921875
 40
0.9375
 40
0.953125
 40
0.96875
 40
0.984375
 40
1.0
 40
1.0
 40
1.0
 40
1.0
 10
-78.66758028272069
 20
-34.84893714243029
 30
0.0
 10
-80.66194089866595
 20
-34.79076370455743
 30
0.0
 10
-84.65750630749285
 20
-34.27872615070764
 30
0.0
 10
-92.22656992953188
 20
-31.7354636365606
 30
0.0
 10
-100.4133189974275
 20
-25.89896451058768
 30
0.0
 10
-106.7310156192312
 20
-15.77376392548687
 30
0.0
 10
-108.6693053489454
 20
-4.128445216196668
 30
0.0
 10
-106.027892345072
 20
7.245874996666324
 30
0.0
 10
-99.30617561737122
 20
16.63617282391345
 30
0.0
 10
-89.60949141295231
 20
22.66749319267951
 30
0.0
 10
-78.46913851814293
 20
24.50341886802056
 30
0.0
 10
-67.60066224877009
 20
21.96110366157437
 30
0.0
 10
-58.63976357586876
 20
15.52436073811084
 30
0.0
 10
-52.89614439203436
 20
6.255290805258481
 30
0.0
 10
-51.16241779624781
 20
-4.379918991783311
 30
0.0
 10
-53.60588738517981
 20
-14.74258524256613
 30
0.0
 10
-59.75778325586479
 20
-23.27398005252663
 30
0.0
 10
-68.59935366864977
 20
-28.72975704645475
 30
0.0
 10
-78.72946538300954
 20
-30.36110072711173
 30
0.0
 10
-88.58629429830813
 20
-28.01628274149617
 30
0.0
 10
-96.68808110371135
 20
-22.14905787555128
 30
0.0
 10
-101.8558457270768
 20
-13.73485895776126
 30
0.0
 10
-103.3845914847145
 20
-4.109789730321348
 30
0.0
 10
-101.1381956713635
 20
5.241169773358442
 30
0.0
 10
-95.55543326197935
 20
12.91322616049484
 30
0.0
 10
-87.5684533574434
 20
17.79277705245239
 30
0.0
 10
-78.4483596998177
 20
19.21866952021063
 30
0.0
 10
-69.60330691644492
 20
17.07042231553769
 30
0.0
 10
-62.36112636152528
 20
11.77187266227519
 30
0.0
 10
-57.77002981039302
 20
4.211928219738577
 30
0.0
 10
-56.44729715602575
 20
-4.403271388951089
 30
0.0
 10
-58.49772554603477
 20
-12.74237373859974
 30
0.0
 10
-63.51236488837087
 20
-19.55450389857421
 30
0.0
 10
-70.64549753624355
 20
-23.85685533093634
 30
0.0
 10
-78.75590376495535
 20
-25.07605583652366
 30
0.0
 10
-86.5890040609661
 20
-23.12304368128605
 30
0.0
 10
-92.97087176197043
 20
-18.39194347703822
 30
0.0
 10
-96.98412212260483
 20
-11.68534624691648
 30
0.0
 10
-98.09933201796738
 20
-4.079607136711461
 30
0.0
 10
-96.24323759469398
 20
3.247429636982428
 30
0.0
 10
-91.79521409465337
 20
9.198773735600131
 30
0.0
 10
-85.5148052478513
 20
12.92248081656832
 30
0.0
 10
-78.41357202637825
 20
13.93312669598567
 30
0.0
 10
-71.59267262115756
 20
12.17332244683123
 30
0.0
 10
-66.07217877385506
 20
8.007789363264827
 30
0.0
 10
-62.6385738045584
 20
2.153124925489431
 30
0.0
 10
-61.73322228254245
 20
-4.443812654689036
 30
0.0
 10
-63.39754177368681
 20
-10.75848516497243
 30
0.0
 10
-67.28134315049338
 20
-15.84771266800492
 30
0.0
 10
-72.71084381746776
 20
-18.99049501182507
 30
0.0
 10
-78.80376681277104
 20
-19.78960176751054
 30
0.0
 10
-84.6121029255635
 20
-18.21970945271772
 30
0.0
 10
-89.26952254450116
 20
-14.6166336939918
 30
0.0
 10
-92.12053085517957
 20
-9.611517168607273
 30
0.0
 10
-92.81212386095483
 20
-4.022221686203624
 30
0.0
 10
-91.33523129905512
 20
1.279643080353753
 30
0.0
 10
-88.0115070033358
 20
5.504531608334792
 30
0.0
 10
-83.42969391398987
 20
8.062472760451902
 30
0.0
 10
-78.34347241203923
 20
8.644803663706908
 30
0.0
 10
-73.54824856641862
 20
7.258918313866987
 30
0.0
 10
-69.75687800593006
 20
4.212598024484453
 30
0.0
 10
-67.49386247213623
 20
0.0525327423182764
 30
0.0
 10
-67.02316111205637
 20
-4.531455180546136
 30
0.0
 10
-68.3214543120724
 20
-8.819779809765357
 30
0.0
 10
-71.09134632344164
 20
-12.17640124750697
 30
0.0
 10
-74.83916559489812
 20
-14.14106629490489
 30
0.0
 10
-77.54345587820315
 20
-14.37977054492623
 30
0.0
 10
-78.86628774611843
 20
-14.23520301987426
 30
0.0
  0
SPLINE
  5
7B
330
1F
100
AcDbEntity
  8
0
  6
Continuous
 62
     7
370
    25
100
AcDbSpline
210
0.0
220
0.0
230
1.0
 70
     8
 71
     2
 72
     6
 73
     3
 74
     0
 42
0.000000001
 43
0.00000001
 40
0.2785755451532946
 40
0.2785755451532946
 40
0.2785755451532946
 40
1.0
 40
1.0
 40
1.0
 10
-53.26007309450873
 20
-34.49630650358029
 30
0.0
 10
-66.21897678546188
 20
-35.2116821894496
 30
0.0
 10
-78.66758028272069
 20
-34.84893714243029
 30
0.0
  0
ARC
  5
7C
330
1F
100
AcDbEntity
  8
0
  6
Continuous
 62
     7
370
    25
100
AcDbCircle
 10
-52.4332807623
 20
-49.4735029849
 30
0.0
 40
15.00000000000005
100
AcDbArc
 50
45.0028572238
 51
93.1597154097
  0
SPLINE
  5
7D
330
1F
100
AcDbEntity
  8
0
  6
Continuous
 62
     7
370
    25
100
AcDbSpline
210
0.0
220
0.0
230
1.0
 70
     8
 71
     3
 72
    25
 73
    21
 74
     0
 42
0.000000001
 43
0.00000001
 40
0.3738800579546872
 40
0.3738800579546872
 40
0.3738800579546872
 40
0.3738800579546872
 40
0.375
 40
0.390625
 40
0.40625
 40
0.421875
 40
0.4375
 40
0.453125
 40
0.46875
 40
0.484375
 40
0.5
 40
0.515625
 40
0.53125
 40
0.546875
 40
0.5625
 40
0.578125
 40
0.59375
 40
0.609375
 40
0.625
 40
0.626119942045313
 40
0.626119942045313
 40
0.626119942045313
 40
0.626119942045313
 10
-41.82720798736101
 20
-38.86637235064597
 30
0.0
 10
-41.7278446395126
 20
-38.96572578889298
 30
0.0
 10
-40.23398014009381
 20
-40.44160475209828
 30
0.0
 10
-37.11636556963091
 20
-43.0210419736089
 30
0.0
 10
-32.19578861517287
 20
-46.14542821497695
 30
0.0
 10
-27.03551018121977
 20
-48.78161952409962
 30
0.0
 10
-21.78869867096149
 20
-51.01137397677563
 30
0.0
 10
-16.61506741435477
 20
-52.93494117630492
 30
0.0
 10
-11.26419000328956
 20
-54.5655415743384
 30
0.0
 10
-5.755396716237765
 20
-55.69962502904793
 30
0.0
 10
0.0000000000000226
 20
-56.15018748547602
 30
0.0
 10
5.755396716237817
 20
-55.69962502904789
 30
0.0
 10
11.26419000328958
 20
-54.5655415743384
 30
0.0
 10
16.61506741435481
 20
-52.93494117630493
 30
0.0
 10
21.78869867096151
 20
-51.01137397677563
 30
0.0
 10
27.03551018121979
 20
-48.78161952409963
 30
0.0
 10
32.19578861517289
 20
-46.14542821497694
 30
0.0
 10
37.1163655696309
 20
-43.0210419736089
 30
0.0
 10
40.23398014009383
 20
-40.44160475209825
 30
0.0
 10
41.72784463951265
 20
-38.96572578889295
 30
0.0
 10
41.82720798736108
 20
-38.86637235064592
 30
0.0
  0
ARC
  5
7E
330
1F
100
AcDbEntity
  8
0
  6
Continuous
 62
     7
370
    25
100
AcDbCircle
 10
52.4332807623
 20
-49.4735029849
 30
0.0
 40
15.00000000000001
100
AcDbArc
 50
86.8402845903
 51
134.9971427762
  0
SPLINE
  5
7F
330
1F
100
AcDbEntity
  8
0
  6
Continuous
 62
     7
370
    25
100
AcDbSpline
210
0.0
220
0.0
230
1.0
 70
     8
 71
     2
 72
     6
 73
     3
 74
     0
 42
0.000000001
 43
0.00000001
 40
0.2785755451532969
 40
0.2785755451532969
 40
0.2785755451532969
 40
1.0
 40
1.0
 40
1.0
 10
53.26007309450881
 20
-34.49630650358029
 30
0.0
 10
66.21897678546192
 20
-35.21168218944959
 30
0.0
 10
78.66758028272069
 20
-34.84893714243029
 30
0.0
  0
SPLINE
  5
80
330
1F
100
AcDbEntity
  8
0
  6
Continuous
 62
     7
370
    25
100
AcDbSpline
210
0.0
220
0.0
230
1.0
 70
     8
 71
     3
 72
    72
 73
    68
 74
     0
 42
0.000000001
 43
0.00000001
 40
0.0
 40
0.0
 40
0.0
 40
0.0
 40
0.0078125
 40
0.015625
 40
0.03125
 40
0.046875
 40
0.0625
 40
0.078125
 40
0.09375
 40
0.109375
 40
0.125
 40
0.140625
 40
0.15625
 40
0.171875
 40
0.1875
 40
0.203125
 40
0.21875
 40
0.234375
 40
0.25
 40
0.265625
 40
0.28125
 40
0.296875
 40
0.3125
 40
0.328125
 40
0.34375
 40
0.359375
 40
0.375
 40
0.390625
 40
0.40625
 40
0.421875
 40
0.4375
 40
0.453125
 40
0.46875
 40
0.484375
 40
0.5
 40
0.515625
 40
0.53125
 40
0.546875
 40
0.5625
 40
0.578125
 40
0.59375
 40
0.609375
 40
0.625
 40
0.640625
 40
0.65625
 40
0.671875
 40
0.6875
 40
0.703125
 40
0.71875
 40
0.734375
 40
0.75
 40
0.765625
 40
0.78125
 40
0.796875
 40
0.8125
 40
0.828125
 40
0.84375
 40
0.859375
 40
0.875
 40
0.890625
 40
0.90625
 40
0.921875
 40
0.9375
 40
0.953125
 40
0.96875
 40
0.984375
 40
1.0
 40
1.0
 40
1.0
 40
1.0
 10
78.66758028272069
 20
-34.84893714243029
 30
0.0
 10
80.66194089866595
 20
-34.79076370455743
 30
0.0
 10
84.65750630749285
 20
-34.27872615070764
 30
0.0
 10
92.22656992953188
 20
-31.7354636365606
 30
0.0
 10
100.4133189974275
 20
-25.89896451058768
 30
0.0
 10
106.7310156192312
 20
-15.77376392548687
 30
0.0
 10
108.6693053489454
 20
-4.128445216196668
 30
0.0
 10
106.027892345072
 20
7.245874996666324
 30
0.0
 10
99.30617561737122
 20
16.63617282391345
 30
0.0
 10
89.60949141295231
 20
22.66749319267951
 30
0.0
 10
78.46913851814293
 20
24.50341886802056
 30
0.0
 10
67.60066224877009
 20
21.96110366157437
 30
0.0
 10
58.63976357586876
 20
15.52436073811084
 30
0.0
 10
52.89614439203436
 20
6.255290805258481
 30
0.0
 10
51.16241779624781
 20
-4.379918991783311
 30
0.0
 10
53.60588738517981
 20
-14.74258524256613
 30
0.0
 10
59.75778325586479
 20
-23.27398005252663
 30
0.0
 10
68.59935366864977
 20
-28.72975704645475
 30
0.0
 10
78.72946538300954
 20
-30.36110072711173
 30
0.0
 10
88.58629429830813
 20
-28.01628274149617
 30
0.0
 10
96.68808110371135
 20
-22.14905787555128
 30
0.0
 10
101.8558457270768
 20
-13.73485895776126
 30
0.0
 10
103.3845914847145
 20
-4.109789730321348
 30
0.0
 10
101.1381956713635
 20
5.241169773358442
 30
0.0
 10
95.55543326197935
 20
12.91322616049484
 30
0.0
 10
87.5684533574434
 20
17.79277705245239
 30
0.0
 10
78.4483596998177
 20
19.21866952021063
 30
0.0
 10
69.60330691644492
 20
17.07042231553769
 30
0.0
 10
62.36112636152528
 20
11.77187266227519
 30
0.0
 10
57.77002981039302
 20
4.211928219738577
 30
0.0
 10
56.44729715602575
 20
-4.403271388951089
 30
0.0
 10
58.49772554603477
 20
-12.74237373859974
 30
0.0
 10
63.51236488837087
 20
-19.55450389857421
 30
0.0
 10
70.64549753624355
 20
-23.85685533093634
 30
0.0
 10
78.75590376495535
 20
-25.07605583652366
 30
0.0
 10
86.5890040609661
 20
-23.12304368128605
 30
0.0
 10
92.97087176197043
 20
-18.39194347703822
 30
0.0
 10
96.98412212260483
 20
-11.68534624691648
 30
0.0
 10
98.09933201796738
 20
-4.079607136711461
 30
0.0
 10
96.24323759469398
 20
3.247429636982428
 30
0.0
 10
91.79521409465337
 20
9.198773735600131
 30
0.0
 10
85.5148052478513
 20
12.92248081656832
 30
0.0
 10
78.41357202637825
 20
13.93312669598567
 30
0.0
 10
71.59267262115756
 20
12.17332244683123
 30
0.0
 10
66.07217877385506
 20
8.007789363264827
 30
0.0
 10
62.6385738045584
 20
2.153124925489431
 30
0.0
 10
61.73322228254245
 20
-4.443812654689036
 30
0.0
 10
63.39754177368681
 20
-10.75848516497243
 30
0.0
 10
67.28134315049338
 20
-15.84771266800492
 30
0.0
 10
72.71084381746776
 20
-18.99049501182507
 30
0.0
 10
78.80376681277104
 20
-19.78960176751054
 30
0.0
 10
84.6121029255635
 20
-18.21970945271772
 30
0.0
 10
89.26952254450116
 20
-14.6166336939918
 30
0.0
 10
92.12053085517957
 20
-9.611517168607273
 30
0.0
 10
92.81212386095483
 20
-4.022221686203624
 30
0.0
 10
91.33523129905512
 20
1.279643080353753
 30
0.0
 10
88.0115070033358
 20
5.504531608334792
 30
0.0
 10
83.42969391398987
 20
8.062472760451902
 30
0.0
 10
78.34347241203923
 20
8.644803663706908
 30
0.0
 10
73.54824856641862
 20
7.258918313866987
 30
0.0
 10
69.75687800593006
 20
4.212598024484453
 30
0.0
 10
67.49386247213623
 20
0.0525327423182764
 30
0.0
 10
67.02316111205637
 20
-4.531455180546136
 30
0.0
 10
68.3214543120724
 20
-8.819779809765357
 30
0.0
 10
71.09134632344164
 20
-12.17640124750697
 30
0.0
 10
74.83916559489812
 20
-14.14106629490489
 30
0.0
 10
77.54345587820315
 20
-14.37977054492623
 30
0.0
 10
78.86628774611843
 20
-14.23520301987426
 30
0.0
  0
LINE
  5
81
330
1F
100
AcDbEntity
  8
0
  6
Continuous
 62
     7
370
    25
100
AcDbLine
 10
78.8662877461
 20
-14.2352030199
 30
0.0
 11
78.323089992
 21
-9.2647969801
 31
0.0
  0
SPLINE
  5
82
330
1F
100
AcDbEntity
  8
0
  6
Continuous
 62
     7
370
    25
100
AcDbSpline
210
0.0
220
0.0
230
1.0
 70
     8
 71
     3
 72
    72
 73
    68
 74
     0
 42
0.000000001
 43
0.00000001
 40
0.0
 40
0.0
 40
0.0
 40
0.0
 40
0.0078125
 40
0.015625
 40
0.03125
 40
0.046875
 40
0.0625
 40
0.078125
 40
0.09375
 40
0.109375
 40
0.125
 40
0.140625
 40
0.15625
 40
0.171875
 40
0.1875
 40
0.203125
 40
0.21875
 40
0.234375
 40
0.25
 40
0.265625
 40
0.28125
 40
0.296875
 40
0.3125
 40
0.328125
 40
0.34375
 40
0.359375
 40
0.375
 40
0.390625
 40
0.40625
 40
0.421875
 40
0.4375
 40
0.453125
 40
0.46875
 40
0.484375
 40
0.5
 40
0.515625
 40
0.53125
 40
0.546875
 40
0.5625
 40
0.578125
 40
0.59375
 40
0.609375
 40
0.625
 40
0.640625
 40
0.65625
 40
0.671875
 40
0.6875
 40
0.703125
 40
0.71875
 40
0.734375
 40
0.75
 40
0.765625
 40
0.78125
 40
0.796875
 40
0.8125
 40
0.828125
 40
0.84375
 40
0.859375
 40
0.875
 40
0.890625
 40
0.90625
 40
0.921875
 40
0.9375
 40
0.953125
 40
0.96875
 40
0.984375
 40
1.0
 40
1.0
 40
1.0
 40
1.0
 10
78.52179745544152
 20
-29.85106285756973
 30
0.0
 10
80.18929484549489
 20
-29.8024236821629
 30
0.0
 10
83.53124112892304
 20
-29.37410353365806
 30
0.0
 10
89.85249450462535
 20
-27.24955314042442
 30
0.0
 10
96.67887657550752
 20
-22.38097024592165
 30
0.0
 10
101.9340370430394
 20
-13.95447059883309
 30
0.0
 10
103.5412791378427
 20
-4.285191050991792
 30
0.0
 10
101.3509834744793
 20
5.136904596408386
 30
0.0
 10
95.79375793779111
 20
12.89662467693413
 30
0.0
 10
87.79737193792666
 20
17.86774417296121
 30
0.0
 10
78.63379104308954
 20
19.3756196711014
 30
0.0
 10
69.71702258439466
 20
17.28750481629724
 30
0.0
 10
62.38501338329709
 20
12.0179829251633
 30
0.0
 10
57.69892217433753
 20
4.451133256546583
 30
0.0
 10
56.28995868284008
 20
-4.206529857814552
 30
0.0
 10
58.27580656107053
 20
-12.61804342084716
 30
0.0
 10
63.25745357243704
 20
-19.52241799009887
 30
0.0
 10
70.39466407742522
 20
-23.92362954307132
 30
0.0
 10
78.54636120250704
 20
-25.23386282009198
 30
0.0
 10
86.45264804252486
 20
-23.35047648016304
 30
0.0
 10
92.92949189224939
 20
-18.65688024989186
 30
0.0
 10
97.04599403133082
 20
-11.94943697291586
 30
0.0
 10
98.25771208530192
 20
-4.303761422342209
 30
0.0
 10
96.47701671913734
 20
3.09733076797359
 30
0.0
 10
92.07167981695922
 20
9.146766312635904
 30
0.0
 10
85.79415625005254
 20
12.97876039846966
 30
0.0
 10
78.65456919100826
 20
14.09221859630522
 30
0.0
 10
71.75863434172899
 20
12.41448776747707
 30
0.0
 10
66.1364616881724
 20
8.29765989383476
 30
0.0
 10
62.5887350461711
 20
2.450239588251531
 30
0.0
 10
61.57323018095881
 20
-4.183177458385256
 30
0.0
 10
63.14766667843659
 20
-10.57399868004506
 30
0.0
 10
66.97568307834763
 20
-15.76908300522412
 30
0.0
 10
72.39277645527231
 20
-19.03283298133812
 30
0.0
 10
78.51992282054333
 20
-19.95075684931594
 30
0.0
 10
84.40568203449732
 20
-18.48001726308118
 30
0.0
 10
89.17389009532421
 20
-14.94118350973934
 30
0.0
 10
92.15401935850814
 20
-9.954693438386395
 30
0.0
 10
92.97482069069645
 20
-4.333944015952181
 30
0.0
 10
91.60827651851172
 20
1.046814658975149
 30
0.0
 10
88.35908784562038
 20
5.38840759886584
 30
0.0
 10
83.80354811427027
 20
8.08535835705863
 30
0.0
 10
78.6893568644477
 20
8.809610559177708
 30
0.0
 10
73.81352488239081
 20
7.547889358888466
 30
0.0
 10
69.8982204145074
 20
4.588932054180365
 30
0.0
 10
67.4838893293008
 20
0.4647866371262508
 30
0.0
 10
66.85545591579438
 20
-4.142636192647323
 30
0.0
 10
68.01154872808029
 20
-8.513631008297818
 30
0.0
 10
70.67951595488739
 20
-12.00306309712895
 30
0.0
 10
74.37168641943192
 20
-14.13549502315325
 30
0.0
 10
78.47205977269245
 20
-14.6690600569806
 30
0.0
 10
82.33832692465673
 20
-13.61965321433953
 30
0.0
 10
85.4024281736388
 20
-11.24368215417654
 30
0.0
 10
87.2539123504664
 20
-7.984266271113965
 30
0.0
 10
87.69387797953407
 20
-4.391329467233292
 30
0.0
 10
86.75258456231757
 20
-1.029655026884781
 30
0.0
 10
84.66998370324762
 20
1.609838576696256
 30
0.0
 10
81.84440355739756
 20
3.181668176074782
 30
0.0
 10
78.75945515525096
 20
3.529782580094921
 30
0.0
 10
75.9022101220071
 20
2.698595774399212
 30
0.0
 10
73.68631388662155
 20
0.911310164938841
 30
0.0
 10
72.3923677374181
 20
-1.478869627489969
 30
0.0
 10
72.13341118850867
 20
-4.055022767781409
 30
0.0
 10
72.85229270508675
 20
-6.407971511752745
 30
0.0
 10
74.33874772733999
 20
-8.201968703481654
 30
0.0
 10
76.30096742233447
 20
-9.219712771077957
 30
0.0
 10
77.65393288680345
 20
-9.337926747348563
 30
0.0
 10
78.3230899920439
 20
-9.264796980125759
 30
0.0
  0
SPLINE
  5
83
330
1F
100
AcDbEntity
  8
0
  6
Continuous
 62
     7
370
    25
100
AcDbSpline
210
0.0
220
0.0
230
1.0
 70
     8
 71
     2
 72
     6
 73
     3
 74
     0
 42
0.000000001
 43
0.00000001
 40
0.3950383486084974
 40
0.3950383486084974
 40
0.3950383486084974
 40
1.0
 40
1.0
 40
1.0
 10
57.64083825294207
 20
-29.70349667371666
 30
0.0
 10
68.26721903123997
 20
-30.15048677828446
 30
0.0
 10
78.52179745544152
 20
-29.85106285756973
 30
0.0
  0
ARC
  5
84
330
1F
100
AcDbEntity
  8
0
  6
Continuous
 62
     7
370
    25
100
AcDbCircle
 10
57.9560409452
 20
-22.2101231168
 30
0.0
 40
7.500000000000001
100
AcDbArc
 50
171.3255603529
 51
267.5913193871
  0
SPLINE
  5
85
330
1F
100
AcDbEntity
  8
0
  6
Continuous
 62
     7
370
    25
100
AcDbSpline
210
0.0
220
0.0
230
1.0
 70
     8
 71
     3
 72
    15
 73
    11
 74
     0
 42
0.000000001
 43
0.00000001
 40
0.6794409527686981
 40
0.6794409527686981
 40
0.6794409527686981
 40
0.6794409527686981
 40
0.6875
 40
0.703125
 40
0.71875
 40
0.734375
 40
0.75
 40
0.765625
 40
0.78125
 40
0.7830406499733554
 40
0.7830406499733554
 40
0.7830406499733554
 40
0.7830406499733554
 10
50.54183143696473
 20
-21.07897442249654
 30
0.0
 10
50.6919757818049
 20
-20.0948406523952
 30
0.0
 10
51.03089873191751
 20
-17.1914448483141
 30
0.0
 10
51.16890554783734
 20
-12.34639978306064
 30
0.0
 10
50.85320627977881
 20
-6.587028281970111
 30
0.0
 10
50.20855462772782
 20
-0.9165424146230869
 30
0.0
 10
49.40756808415144
 20
4.613953135360438
 30
0.0
 10
48.32374154927373
 20
10.23623222765107
 30
0.0
 10
47.21646634625412
 20
14.14739788714797
 30
0.0
 10
46.48441309227206
 20
16.17465093005711
 30
0.0
 10
46.40750884278957
 20
16.38268420189629
 30
0.0
  0
ARC
  5
86
330
1F
100
AcDbEntity
  8
0
  6
Continuous
 62
     7
370
    25
100
AcDbCircle
 10
53.4422213891
 20
18.9832263359
 30
0.0
 40
7.499999999999996
100
AcDbArc
 50
101.4584665086
 51
200.2879840101
  0
SPLINE
  5
87
330
1F
100
AcDbEntity
  8
0
  6
Continuous
 62
     7
370
    25
100
AcDbSpline
210
0.0
220
0.0
230
1.0
 70
     8
 71
     2
 72
     6
 73
     3
 74
     0
 42
0.000000001
 43
0.00000001
 40
0.0
 40
0.0
 40
0.0
 40
0.4893427310602471
 40
0.4893427310602471
 40
0.4893427310602471
 10
65.06677713999176
 20
27.82589199641663
 30
0.0
 10
58.44827722874127
 20
27.65046405690289
 30
0.0
 10
51.95228985088414
 20
26.33374359740256
 30
0.0
  0
SPLINE
  5
88
330
1F
100
AcDbEntity
  8
0
  6
Continuous
 62
     7
370
    25
100
AcDbSpline
210
0.0
220
0.0
230
1.0
 70
     8
 71
     3
 72
    72
 73
    68
 74
     0
 42
0.000000001
 43
0.00000001
 40
0.0
 40
0.0
 40
0.0
 40
0.0
 40
0.015625
 40
0.03125
 40
0.046875
 40
0.0625
 40
0.078125
 40
0.09375
 40
0.109375
 40
0.125
 40
0.140625
 40
0.15625
 40
0.171875
 40
0.1875
 40
0.203125
 40
0.21875
 40
0.234375
 40
0.25
 40
0.265625
 40
0.28125
 40
0.296875
 40
0.3125
 40
0.328125
 40
0.34375
 40
0.359375
 40
0.375
 40
0.390625
 40
0.40625
 40
0.421875
 40
0.4375
 40
0.453125
 40
0.46875
 40
0.484375
 40
0.5
 40
0.515625
 40
0.53125
 40
0.546875
 40
0.5625
 40
0.578125
 40
0.59375
 40
0.609375
 40
0.625
 40
0.640625
 40
0.65625
 40
0.671875
 40
0.6875
 40
0.703125
 40
0.71875
 40
0.734375
 40
0.75
 40
0.765625
 40
0.78125
 40
0.796875
 40
0.8125
 40
0.828125
 40
0.84375
 40
0.859375
 40
0.875
 40
0.890625
 40
0.90625
 40
0.921875
 40
0.9375
 40
0.953125
 40
0.96875
 40
0.984375
 40
0.9921875
 40
1.0
 40
1.0
 40
1.0
 40
1.0
 10
64.72840112296267
 20
70.98520301987425
 30
0.0
 10
66.21686898113342
 20
71.14787230506033
 30
0.0
 10
69.27329841221457
 20
70.80327850544101
 30
0.0
 10
73.35978449658592
 20
68.26204289126538
 30
0.0
 10
76.02629772312117
 20
64.07178221495334
 30
0.0
 10
76.64733936329236
 20
58.97957977440761
 30
0.0
 10
74.96069592521906
 20
53.96315563768032
 30
0.0
 10
71.16498047178472
 20
50.04557709760455
 30
0.0
 10
65.90002297819444
 20
48.08687425792538
 30
0.0
 10
60.14247002358656
 20
48.59857214980514
 30
0.0
 10
55.02447507061468
 20
51.61961082900402
 30
0.0
 10
51.61138589580969
 20
56.68268381957049
 30
0.0
 10
50.68141559365279
 20
62.88239730999464
 30
0.0
 10
52.55276785248324
 20
69.03631989365205
 30
0.0
 10
56.99584347019827
 20
73.91045868955933
 30
0.0
 10
63.2525050744221
 20
76.4661848536311
 30
0.0
 10
70.16345444843286
 20
76.07929767489371
 30
0.0
 10
76.38275826867776
 20
72.68541375648462
 30
0.0
 10
80.6398874982111
 20
66.81887814798864
 30
0.0
 10
81.9982755936672
 20
59.53263949412735
 30
0.0
 10
80.05795966751396
 20
52.2101633531693
 30
0.0
 10
75.0590290614055
 20
46.30279145785897
 30
0.0
 10
67.8609115955905
 20
43.04239456626938
 30
0.0
 10
59.79660709580602
 20
43.18614873511076
 30
0.0
 10
52.42616220471756
 20
46.84601917328646
 30
0.0
 10
47.2349099315967
 20
53.44050828361237
 30
0.0
 10
45.33483479198833
 20
61.78306254544061
 30
0.0
 10
47.22897674960338
 20
70.29462294788777
 30
0.0
 10
52.68834324933268
 20
77.30244070443835
 30
0.0
 10
60.77004483829869
 20
81.36862631836897
 30
0.0
 10
69.97812777737197
 20
81.58393820975091
 30
0.0
 10
78.5401010457663
 20
77.76700810279902
 30
0.0
 10
84.74811912904494
 20
70.52602428461523
 30
0.0
 10
87.29915039847103
 20
61.16587648481755
 30
0.0
 10
85.56646851102664
 20
51.45400085078553
 30
0.0
 10
79.74625344687276
 20
43.28673747312774
 30
0.0
 10
70.84611484151948
 20
38.3191630021925
 30
0.0
 10
60.51271532875971
 20
37.63063325713058
 30
0.0
 10
50.72754317331501
 20
41.49345140105505
 30
0.0
 10
43.42695459043643
 20
49.29370047557265
 30
0.0
 10
40.11934233572011
 20
59.62459981660427
 30
0.0
 10
41.57505362313962
 20
70.5391663677459
 30
0.0
 10
47.65252088947364
 20
79.91701814932546
 30
0.0
 10
57.29897077580888
 20
85.87624167731114
 30
0.0
 10
68.73065616176139
 20
87.15033356445943
 30
0.0
 10
79.76221082159775
 20
83.35484756280687
 30
0.0
 10
88.22441072074206
 20
75.08804492677871
 30
0.0
 10
92.3904838741557
 20
63.84107216430991
 30
0.0
 10
91.32723346160631
 20
51.73010456590124
 30
0.0
 10
85.09980020304481
 20
41.09834299445266
 30
0.0
 10
74.78583799642502
 20
34.06268603701523
 30
0.0
 10
62.291258998376
 20
32.09277472012142
 30
0.0
 10
49.99857582520194
 20
35.70601809964173
 30
0.0
 10
40.31261780895873
 20
44.34153189733155
 30
0.0
 10
35.19023669835145
 20
56.44232312816469
 30
0.0
 10
35.74594252638846
 20
69.73483761230432
 30
0.0
 10
42.01276651994954
 20
81.65592161437391
 30
0.0
 10
52.90909614869646
 20
89.84705488217962
 30
0.0
 10
66.42299013947735
 20
92.62056605417499
 30
0.0
 10
79.98310387818
 20
89.305719867675
 30
0.0
 10
90.94782771323746
 20
80.40410190091637
 30
0.0
 10
97.12008655123947
 20
67.51895534290419
 30
0.0
 10
97.18568079841356
 20
53.06862254546859
 30
0.0
 10
90.99462292755864
 20
39.82939844766327
 30
0.0
 10
81.49957556879322
 20
31.9842321827801
 30
0.0
 10
72.3718825527818
 20
28.56414931056724
 30
0.0
 10
67.49793679261471
 20
27.89085352998557
 30
0.0
 10
65.06677713999176
 20
27.82589199641663
 30
0.0
  0
LINE
  5
89
330
1F
100
AcDbEntity
  8
0
  6
Continuous
 62
     7
370
    25
100
AcDbLine
 10
64.728401123
 20
70.9852030199
 30
0.0
 11
65.271598877
 21
66.0147969801
 31
0.0
  0
SPLINE
  5
8A
330
1F
100
AcDbEntity
  8
0
  6
Continuous
 62
     7
370
    25
100
AcDbSpline
210
0.0
220
0.0
230
1.0
 70
     8
 71
     3
 72
    72
 73
    68
 74
     0
 42
0.000000001
 43
0.00000001
 40
0.0
 40
0.0
 40
0.0
 40
0.0
 40
0.015625
 40
0.03125
 40
0.046875
 40
0.0625
 40
0.078125
 40
0.09375
 40
0.109375
 40
0.125
 40
0.140625
 40
0.15625
 40
0.171875
 40
0.1875
 40
0.203125
 40
0.21875
 40
0.234375
 40
0.25
 40
0.265625
 40
0.28125
 40
0.296875
 40
0.3125
 40
0.328125
 40
0.34375
 40
0.359375
 40
0.375
 40
0.390625
 40
0.40625
 40
0.421875
 40
0.4375
 40
0.453125
 40
0.46875
 40
0.484375
 40
0.5
 40
0.515625
 40
0.53125
 40
0.546875
 40
0.5625
 40
0.578125
 40
0.59375
 40
0.609375
 40
0.625
 40
0.640625
 40
0.65625
 40
0.671875
 40
0.6875
 40
0.703125
 40
0.71875
 40
0.734375
 40
0.75
 40
0.765625
 40
0.78125
 40
0.796875
 40
0.8125
 40
0.828125
 40
0.84375
 40
0.859375
 40
0.875
 40
0.890625
 40
0.90625
 40
0.921875
 40
0.9375
 40
0.953125
 40
0.96875
 40
0.984375
 40
0.9921875
 40
1.0
 40
1.0
 40
1.0
 40
1.0
 10
65.27159887703725
 20
66.01479698012577
 30
0.0
 10
66.02601045140037
 20
66.09724390087324
 30
0.0
 10
67.55639060154087
 20
65.92645455678579
 30
0.0
 10
69.70980370711501
 20
64.60336943842618
 30
0.0
 10
71.15454522222068
 20
62.34550511396775
 30
0.0
 10
71.50778022883844
 20
59.5215492104703
 30
0.0
 10
70.55593215221549
 20
56.66599845289555
 30
0.0
 10
68.35300409279137
 20
54.38124198063661
 30
0.0
 10
65.2273137983451
 20
53.21044058325204
 30
0.0
 10
61.73878964535722
 20
53.51320968323851
 30
0.0
 10
58.5786077466262
 20
55.37042682270321
 30
0.0
 10
56.43244420229551
 20
58.54187611546829
 30
0.0
 10
55.83350295467568
 20
62.48992797891275
 30
0.0
 10
57.03675037124726
 20
66.46904912925493
 30
0.0
 10
59.94295638281769
 20
69.66657623967905
 30
0.0
 10
64.09234826423466
 20
71.36816636487184
 30
0.0
 10
68.73397824301978
 20
71.11432877900168
 30
0.0
 10
72.96111979817222
 20
68.8142430120142
 30
0.0
 10
75.88837681171407
 20
64.79007759291075
 30
0.0
 10
76.83590929384056
 20
59.73812632724717
 30
0.0
 10
75.48265726014826
 20
54.60980309919314
 30
0.0
 10
71.95477140266118
 20
50.43252540202022
 30
0.0
 10
66.82711615561232
 20
48.10420044046007
 30
0.0
 10
61.03260919672623
 20
48.20236635868095
 30
0.0
 10
55.69301591514829
 20
50.84818957146611
 30
0.0
 10
51.90178437755924
 20
55.65626406307182
 30
0.0
 10
50.50096517873973
 20
61.78503195742878
 30
0.0
 10
51.8975784800746
 20
68.08267684842997
 30
0.0
 10
55.95891122616484
 20
73.30349137947198
 30
0.0
 10
62.01195450629549
 20
76.35409200212257
 30
0.0
 10
68.95209577049333
 20
76.52085074572184
 30
0.0
 10
75.4441411860535
 20
73.63150950933989
 30
0.0
 10
80.17919599830124
 20
68.11521668284175
 30
0.0
 10
82.13797847496913
 20
60.94427569150933
 30
0.0
 10
80.80770086786596
 20
53.46414947645984
 30
0.0
 10
76.3068037293208
 20
47.1411543994457
 30
0.0
 10
69.3885429476885
 20
43.27513086628437
 30
0.0
 10
61.31768098402431
 20
42.73337406249006
 30
0.0
 10
53.63986186901383
 20
45.76008282061542
 30
0.0
 10
47.88560506321872
 20
51.90253159929311
 30
0.0
 10
45.26560744441209
 20
60.07331829432433
 30
0.0
 10
46.41793969334191
 20
68.74147765876359
 30
0.0
 10
51.2595868938314
 20
76.21916063451533
 30
0.0
 10
58.97582447792058
 20
80.99023210540915
 30
0.0
 10
68.1545733485501
 20
82.01682444639177
 30
0.0
 10
77.04417847001882
 20
78.96201780652169
 30
0.0
 10
83.88767981362933
 20
72.28139387945886
 30
0.0
 10
87.2697878756432
 20
63.16072284702867
 30
0.0
 10
86.40809150574135
 20
53.30691404623808
 30
0.0
 10
81.32884424404816
 20
44.62879126014582
 30
0.0
 10
72.88866644063489
 20
38.8673511396843
 30
0.0
 10
62.63285847394977
 20
37.2471198607242
 30
0.0
 10
52.51315196436758
 20
40.2183093688891
 30
0.0
 10
44.51631547107148
 20
47.34364736493911
 30
0.0
 10
40.27428169989663
 20
57.35674491771606
 30
0.0
 10
40.73226887057405
 20
68.38571070747703
 30
0.0
 10
45.9421799370384
 20
78.30283039165856
 30
0.0
 10
55.02577506527056
 20
85.13503836423878
 30
0.0
 10
66.31983991166376
 20
87.4560026225981
 30
0.0
 10
77.68001497299974
 20
84.68197094239797
 30
0.0
 10
86.88780885861128
 20
77.21044262471918
 30
0.0
 10
92.08400201502265
 20
66.36959155788954
 30
0.0
 10
92.1421159261087
 20
54.18447920032064
 30
0.0
 10
86.91333911931238
 20
42.99611788495789
 30
0.0
 10
78.87471727198958
 20
36.35163650455456
 30
0.0
 10
71.13538262431977
 20
33.45101237397522
 30
0.0
 10
66.99684372619868
 20
32.87924875751454
 30
0.0
 10
64.93322286000688
 20
32.82410800358336
 30
0.0
  0
SPLINE
  5
8B
330
1F
100
AcDbEntity
  8
0
  6
Continuous
 62
     7
370
    25
100
AcDbSpline
210
0.0
220
0.0
230
1.0
 70
     8
 71
     2
 72
     6
 73
     3
 74
     0
 42
0.000000001
 43
0.00000001
 40
0.0
 40
0.0
 40
0.0
 40
0.463889757664652
 40
0.463889757664652
 40
0.463889757664652
 10
64.93322286000688
 20
32.82410800358336
 30
0.0
 10
58.23875109251885
 20
32.64388206110837
 30
0.0
 10
51.67863515454639
 20
31.37642807836837
 30
0.0
  0
ARC
  5
8C
330
1F
100
AcDbEntity
  8
0
  6
Continuous
 62
     7
370
    25
100
AcDbCircle
 10
48.833166704
 20
46.1040656791
 30
0.0
 40
14.99999999999999
100
AcDbArc
 50
216.8863595342
 51
280.9351543258
  0
SPLINE
  5
8D
330
1F
100
AcDbEntity
  8
0
  6
Continuous
 62
     7
370
    25
100
AcDbSpline
210
0.0
220
0.0
230
1.0
 70
     8
 71
     3
 72
     9
 73
     5
 74
     0
 42
0.000000001
 43
0.00000001
 40
0.4788533660105477
 40
0.4788533660105477
 40
0.4788533660105477
 40
0.4788533660105477
 40
0.5484425608183738
 40
0.6516285539135311
 40
0.6516285539135311
 40
0.6516285539135311
 40
0.6516285539135311
 10
36.83575302665337
 20
37.1006182807323
 30
0.0
 10
33.72204091235157
 20
41.24975034701905
 30
0.0
 10
23.42914448754665
 20
52.1686528988206
 30
0.0
 10
13.85721056599873
 20
62.80751184165369
 30
0.0
 10
8.225066674741429
 20
66.28546735402224
 30
0.0
  0
SPLINE
  5
8E
330
1F
100
AcDbEntity
  8
0
  6
Continuous
 62
     7
370
    25
100
AcDbSpline
210
0.0
220
0.0
230
1.0
 70
     8
 71
     3
 72
    23
 73
    19
 74
     0
 42
0.000000001
 43
0.00000001
 40
0.9880844178392574
 40
0.9880844178392574
 40
0.9880844178392574
 40
0.9880844178392574
 40
0.98828125
 40
0.9892578125
 40
0.990234375
 40
0.9921875
 40
0.994140625
 40
0.99609375
 40
0.998046875
 40
1.0
 40
1.001953125
 40
1.00390625
 40
1.005859375
 40
1.0078125
 40
1.009765625
 40
1.0107421875
 40
1.01171875
 40
1.011915582160789
 40
1.011915582160789
 40
1.011915582160789
 40
1.011915582160789
 10
8.225066674750943
 20
66.28546735403955
 30
0.0
 10
8.166186226556126
 20
66.35130631206766
 30
0.0
 10
7.808038115810245
 20
66.73814906728268
 30
0.0
 10
7.087199782540727
 20
67.3597680648133
 30
0.0
 10
5.749871498684951
 20
68.17993847022096
 30
0.0
 10
4.216735507916593
 20
68.70890014741032
 30
0.0
 10
2.766081786716606
 20
68.938745796994
 30
0.0
 10
1.616338237901022
 20
69.00266354084498
 30
0.0
 10
0.6791182342957315
 20
69.00492623045545
 30
0.0
 10
-0.0000000000000203
 20
68.99753688477229
 30
0.0
 10
-0.6791182342957385
 20
69.00492623045544
 30
0.0
 10
-1.616338237901039
 20
69.00266354084495
 30
0.0
 10
-2.766081786716622
 20
68.93874579699398
 30
0.0
 10
-4.216735507916595
 20
68.70890014741032
 30
0.0
 10
-5.749871498684935
 20
68.17993847022092
 30
0.0
 10
-7.08719978254071
 20
67.35976806481332
 30
0.0
 10
-7.808038115825775
 20
66.73814906726929
 30
0.0
 10
-8.166186226584427
 20
66.35130631203711
 30
0.0
 10
-8.225066674792561
 20
66.28546735399301
 30
0.0
  0
SPLINE
  5
8F
330
1F
100
AcDbEntity
  8
0
  6
Continuous
 62
     7
370
    25
100
AcDbSpline
210
0.0
220
0.0
230
1.0
 70
     8
 71
     3
 72
     9
 73
     5
 74
     0
 42
0.000000001
 43
0.00000001
 40
0.752582815512812
 40
0.752582815512812
 40
0.752582815512812
 40
0.752582815512812
 40
0.8557688086076591
 40
0.9253580034154807
 40
0.9253580034154807
 40
0.9253580034154807
 40
0.9253580034154807
 10
-8.225066674792375
 20
66.28546735399074
 30
0.0
 10
-13.85721056603339
 20
62.80751184161526
 30
0.0
 10
-23.4291444875654
 20
52.16865289880106
 30
0.0
 10
-33.72204091235025
 20
41.24975034701995
 30
0.0
 10
-36.83575302665079
 20
37.10061828073371
 30
0.0
  0
ARC
  5
90
330
1F
100
AcDbEntity
  8
0
  6
Continuous
 62
     7
370
    25
100
AcDbCircle
 10
-48.833166704
 20
46.1040656791
 30
0.0
 40
15.00000000000001
100
AcDbArc
 50
259.0648456742
 51
323.1136404658
  0
SPLINE
  5
91
330
1F
100
AcDbEntity
  8
0
  6
Continuous
 62
     7
370
    25
100
AcDbSpline
210
0.0
220
0.0
230
1.0
 70
     8
 71
     2
 72
     6
 73
     3
 74
     0
 42
0.000000001
 43
0.00000001
 40
0.0
 40
0.0
 40
0.0
 40
0.4638897576646913
 40
0.4638897576646913
 40
0.4638897576646913
 10
-64.93322286000688
 20
32.82410800358336
 30
0.0
 10
-58.23875109251829
 20
32.64388206110836
 30
0.0
 10
-51.67863515454528
 20
31.37642807836816
 30
0.0
  0
SPLINE
  5
92
330
1F
100
AcDbEntity
  8
0
  6
Continuous
 62
     7
370
    25
100
AcDbSpline
210
0.0
220
0.0
230
1.0
 70
     8
 71
     3
 72
    72
 73
    68
 74
     0
 42
0.000000001
 43
0.00000001
 40
0.0
 40
0.0
 40
0.0
 40
0.0
 40
0.015625
 40
0.03125
 40
0.046875
 40
0.0625
 40
0.078125
 40
0.09375
 40
0.109375
 40
0.125
 40
0.140625
 40
0.15625
 40
0.171875
 40
0.1875
 40
0.203125
 40
0.21875
 40
0.234375
 40
0.25
 40
0.265625
 40
0.28125
 40
0.296875
 40
0.3125
 40
0.328125
 40
0.34375
 40
0.359375
 40
0.375
 40
0.390625
 40
0.40625
 40
0.421875
 40
0.4375
 40
0.453125
 40
0.46875
 40
0.484375
 40
0.5
 40
0.515625
 40
0.53125
 40
0.546875
 40
0.5625
 40
0.578125
 40
0.59375
 40
0.609375
 40
0.625
 40
0.640625
 40
0.65625
 40
0.671875
 40
0.6875
 40
0.703125
 40
0.71875
 40
0.734375
 40
0.75
 40
0.765625
 40
0.78125
 40
0.796875
 40
0.8125
 40
0.828125
 40
0.84375
 40
0.859375
 40
0.875
 40
0.890625
 40
0.90625
 40
0.921875
 40
0.9375
 40
0.953125
 40
0.96875
 40
0.984375
 40
0.9921875
 40
1.0
 40
1.0
 40
1.0
 40
1.0
 10
-65.27159887703725
 20
66.01479698012577
 30
0.0
 10
-66.02601045140037
 20
66.09724390087324
 30
0.0
 10
-67.55639060154087
 20
65.92645455678579
 30
0.0
 10
-69.70980370711501
 20
64.60336943842618
 30
0.0
 10
-71.15454522222068
 20
62.34550511396775
 30
0.0
 10
-71.50778022883844
 20
59.5215492104703
 30
0.0
 10
-70.55593215221549
 20
56.66599845289555
 30
0.0
 10
-68.35300409279137
 20
54.38124198063661
 30
0.0
 10
-65.2273137983451
 20
53.21044058325204
 30
0.0
 10
-61.73878964535722
 20
53.51320968323851
 30
0.0
 10
-58.5786077466262
 20
55.37042682270321
 30
0.0
 10
-56.43244420229551
 20
58.54187611546829
 30
0.0
 10
-55.83350295467568
 20
62.48992797891275
 30
0.0
 10
-57.03675037124726
 20
66.46904912925493
 30
0.0
 10
-59.94295638281769
 20
69.66657623967905
 30
0.0
 10
-64.09234826423466
 20
71.36816636487184
 30
0.0
 10
-68.73397824301978
 20
71.11432877900168
 30
0.0
 10
-72.96111979817222
 20
68.8142430120142
 30
0.0
 10
-75.88837681171407
 20
64.79007759291075
 30
0.0
 10
-76.83590929384056
 20
59.73812632724717
 30
0.0
 10
-75.48265726014826
 20
54.60980309919314
 30
0.0
 10
-71.95477140266118
 20
50.43252540202022
 30
0.0
 10
-66.82711615561232
 20
48.10420044046007
 30
0.0
 10
-61.03260919672623
 20
48.20236635868095
 30
0.0
 10
-55.69301591514829
 20
50.84818957146611
 30
0.0
 10
-51.90178437755924
 20
55.65626406307182
 30
0.0
 10
-50.50096517873973
 20
61.78503195742878
 30
0.0
 10
-51.8975784800746
 20
68.08267684842997
 30
0.0
 10
-55.95891122616484
 20
73.30349137947198
 30
0.0
 10
-62.01195450629549
 20
76.35409200212257
 30
0.0
 10
-68.95209577049333
 20
76.52085074572184
 30
0.0
 10
-75.4441411860535
 20
73.63150950933989
 30
0.0
 10
-80.17919599830124
 20
68.11521668284175
 30
0.0
 10
-82.13797847496913
 20
60.94427569150933
 30
0.0
 10
-80.80770086786596
 20
53.46414947645984
 30
0.0
 10
-76.3068037293208
 20
47.1411543994457
 30
0.0
 10
-69.3885429476885
 20
43.27513086628437
 30
0.0
 10
-61.31768098402431
 20
42.73337406249006
 30
0.0
 10
-53.63986186901383
 20
45.76008282061542
 30
0.0
 10
-47.88560506321872
 20
51.90253159929311
 30
0.0
 10
-45.26560744441209
 20
60.07331829432433
 30
0.0
 10
-46.41793969334191
 20
68.74147765876359
 30
0.0
 10
-51.2595868938314
 20
76.21916063451533
 30
0.0
 10
-58.97582447792058
 20
80.99023210540915
 30
0.0
 10
-68.1545733485501
 20
82.01682444639177
 30
0.0
 10
-77.04417847001882
 20
78.96201780652169
 30
0.0
 10
-83.88767981362933
 20
72.28139387945886
 30
0.0
 10
-87.2697878756432
 20
63.16072284702867
 30
0.0
 10
-86.40809150574135
 20
53.30691404623808
 30
0.0
 10
-81.32884424404816
 20
44.62879126014582
 30
0.0
 10
-72.88866644063489
 20
38.8673511396843
 30
0.0
 10
-62.63285847394977
 20
37.2471198607242
 30
0.0
 10
-52.51315196436758
 20
40.2183093688891
 30
0.0
 10
-44.51631547107148
 20
47.34364736493911
 30
0.0
 10
-40.27428169989663
 20
57.35674491771606
 30
0.0
 10
-40.73226887057405
 20
68.38571070747703
 30
0.0
 10
-45.9421799370384
 20
78.30283039165856
 30
0.0
 10
-55.02577506527056
 20
85.13503836423878
 30
0.0
 10
-66.31983991166376
 20
87.4560026225981
 30
0.0
 10
-77.68001497299974
 20
84.68197094239797
 30
0.0
 10
-86.88780885861128
 20
77.21044262471918
 30
0.0
 10
-92.08400201502265
 20
66.36959155788954
 30
0.0
 10
-92.1421159261087
 20
54.18447920032064
 30
0.0
 10
-86.91333911931238
 20
42.99611788495789
 30
0.0
 10
-78.87471727198958
 20
36.35163650455456
 30
0.0
 10
-71.13538262431977
 20
33.45101237397522
 30
0.0
 10
-66.99684372619868
 20
32.87924875751454
 30
0.0
 10
-64.93322286000688
 20
32.82410800358336
 30
0.0
  0
LINE
  5
93
330
1F
100
AcDbEntity
  8
0
  6
Continuous
 62
     7
370
    25
100
AcDbLine
 10
-64.728401123
 20
70.9852030199
 30
0.0
 11
-65.271598877
 21
66.0147969801
 31
0.0
  0
SPLINE
  5
94
330
1F
100
AcDbEntity
  8
0
  6
Continuous
 62
     7
370
    25
100
AcDbSpline
210
0.0
220
0.0
230
1.0
 70
     8
 71
     3
 72
    72
 73
    68
 74
     0
 42
0.000000001
 43
0.00000001
 40
0.0
 40
0.0
 40
0.0
 40
0.0
 40
0.015625
 40
0.03125
 40
0.046875
 40
0.0625
 40
0.078125
 40
0.09375
 40
0.109375
 40
0.125
 40
0.140625
 40
0.15625
 40
0.171875
 40
0.1875
 40
0.203125
 40
0.21875
 40
0.234375
 40
0.25
 40
0.265625
 40
0.28125
 40
0.296875
 40
0.3125
 40
0.328125
 40
0.34375
 40
0.359375
 40
0.375
 40
0.390625
 40
0.40625
 40
0.421875
 40
0.4375
 40
0.453125
 40
0.46875
 40
0.484375
 40
0.5
 40
0.515625
 40
0.53125
 40
0.546875
 40
0.5625
 40
0.578125
 40
0.59375
 40
0.609375
 40
0.625
 40
0.640625
 40
0.65625
 40
0.671875
 40
0.6875
 40
0.703125
 40
0.71875
 40
0.734375
 40
0.75
 40
0.765625
 40
0.78125
 40
0.796875
 40
0.8125
 40
0.828125
 40
0.84375
 40
0.859375
 40
0.875
 40
0.890625
 40
0.90625
 40
0.921875
 40
0.9375
 40
0.953125
 40
0.96875
 40
0.984375
 40
0.9921875
 40
1.0
 40
1.0
 40
1.0
 40
1.0
 10
-64.72840112296267
 20
70.98520301987425
 30
0.0
 10
-66.21686898113342
 20
71.14787230506033
 30
0.0
 10
-69.27329841221457
 20
70.80327850544101
 30
0.0
 10
-73.35978449658592
 20
68.26204289126538
 30
0.0
 10
-76.02629772312117
 20
64.07178221495334
 30
0.0
 10
-76.64733936329236
 20
58.97957977440761
 30
0.0
 10
-74.96069592521906
 20
53.96315563768032
 30
0.0
 10
-71.16498047178472
 20
50.04557709760455
 30
0.0
 10
-65.90002297819444
 20
48.08687425792538
 30
0.0
 10
-60.14247002358656
 20
48.59857214980514
 30
0.0
 10
-55.02447507061468
 20
51.61961082900402
 30
0.0
 10
-51.61138589580969
 20
56.68268381957049
 30
0.0
 10
-50.68141559365279
 20
62.88239730999464
 30
0.0
 10
-52.55276785248324
 20
69.03631989365205
 30
0.0
 10
-56.99584347019827
 20
73.91045868955933
 30
0.0
 10
-63.2525050744221
 20
76.4661848536311
 30
0.0
 10
-70.16345444843286
 20
76.07929767489371
 30
0.0
 10
-76.38275826867776
 20
72.68541375648462
 30
0.0
 10
-80.6398874982111
 20
66.81887814798864
 30
0.0
 10
-81.9982755936672
 20
59.53263949412735
 30
0.0
 10
-80.05795966751396
 20
52.2101633531693
 30
0.0
 10
-75.0590290614055
 20
46.30279145785897
 30
0.0
 10
-67.8609115955905
 20
43.04239456626938
 30
0.0
 10
-59.79660709580602
 20
43.18614873511076
 30
0.0
 10
-52.42616220471756
 20
46.84601917328646
 30
0.0
 10
-47.2349099315967
 20
53.44050828361237
 30
0.0
 10
-45.33483479198833
 20
61.78306254544061
 30
0.0
 10
-47.22897674960338
 20
70.29462294788777
 30
0.0
 10
-52.68834324933268
 20
77.30244070443835
 30
0.0
 10
-60.77004483829869
 20
81.36862631836897
 30
0.0
 10
-69.97812777737197
 20
81.58393820975091
 30
0.0
 10
-78.5401010457663
 20
77.76700810279902
 30
0.0
 10
-84.74811912904494
 20
70.52602428461523
 30
0.0
 10
-87.29915039847103
 20
61.16587648481755
 30
0.0
 10
-85.56646851102664
 20
51.45400085078553
 30
0.0
 10
-79.74625344687276
 20
43.28673747312774
 30
0.0
 10
-70.84611484151948
 20
38.3191630021925
 30
0.0
 10
-60.51271532875971
 20
37.63063325713058
 30
0.0
 10
-50.72754317331501
 20
41.49345140105505
 30
0.0
 10
-43.42695459043643
 20
49.29370047557265
 30
0.0
 10
-40.11934233572011
 20
59.62459981660427
 30
0.0
 10
-41.57505362313962
 20
70.5391663677459
 30
0.0
 10
-47.65252088947364
 20
79.91701814932546
 30
0.0
 10
-57.29897077580888
 20
85.87624167731114
 30
0.0
 10
-68.73065616176139
 20
87.15033356445943
 30
0.0
 10
-79.76221082159775
 20
83.35484756280687
 30
0.0
 10
-88.22441072074206
 20
75.08804492677871
 30
0.0
 10
-92.3904838741557
 20
63.84107216430991
 30
0.0
 10
-91.32723346160631
 20
51.73010456590124
 30
0.0
 10
-85.09980020304481
 20
41.09834299445266
 30
0.0
 10
-74.78583799642502
 20
34.06268603701523
 30
0.0
 10
-62.291258998376
 20
32.09277472012142
 30
0.0
 10
-49.99857582520194
 20
35.70601809964173
 30
0.0
 10
-40.31261780895873
 20
44.34153189733155
 30
0.0
 10
-35.19023669835145
 20
56.44232312816469
 30
0.0
 10
-35.74594252638846
 20
69.73483761230432
 30
0.0
 10
-42.01276651994954
 20
81.65592161437391
 30
0.0
 10
-52.90909614869646
 20
89.84705488217962
 30
0.0
 10
-66.42299013947735
 20
92.62056605417499
 30
0.0
 10
-79.98310387818
 20
89.305719867675
 30
0.0
 10
-90.94782771323746
 20
80.40410190091637
 30
0.0
 10
-97.12008655123947
 20
67.51895534290419
 30
0.0
 10
-97.18568079841356
 20
53.06862254546859
 30
0.0
 10
-90.99462292755864
 20
39.82939844766327
 30
0.0
 10
-81.49957556879322
 20
31.9842321827801
 30
0.0
 10
-72.3718825527818
 20
28.56414931056724
 30
0.0
 10
-67.49793679261471
 20
27.89085352998557
 30
0.0
 10
-65.06677713999176
 20
27.82589199641663
 30
0.0
  0
SPLINE
  5
95
330
1F
100
AcDbEntity
  8
0
  6
Continuous
 62
     7
370
    25
100
AcDbSpline
210
0.0
220
0.0
230
1.0
 70
    11
 71
     3
 72
    27
 73
    23
 74
     0
 42
0.000000001
 43
0.00000001
 40
0.0
 40
0.0
 40
0.0
 40
0.0
 40
0.0120286034633262
 40
0.0193874883079953
 40
0.066377658474068
 40
0.095784614702608
 40
0.1236650830723985
 40
0.1844741119114328
 40
0.2606407820249133
 40
0.3545467823173052
 40
0.4425229420098307
 40
0.4999999999999999
 40
0.5574770579901693
 40
0.6454532176826948
 40
0.7393592179750866
 40
0.8155258880885672
 40
0.8763349169276016
 40
0.904215385297392
 40
0.933622341525932
 40
0.9806125116920048
 40
0.9879713965366739
 40
1.0
 40
1.0
 40
1.0
 40
1.0
 10
-0.0000000000000077
 20
63.0
 30
0.0
 10
-1.526520890270529
 20
63.0
 30
0.0
 10
-3.986940007274676
 20
63.15948151420184
 30
0.0
 10
-5.34619617418684
 20
55.27462007778994
 30
0.0
 10
-4.149353372585677
 20
46.81019566761893
 30
0.0
 10
-10.24271656874442
 20
36.15196923462492
 30
0.0
 10
-22.37027006937343
 20
31.93643442184342
 30
0.0
 10
-39.51085416655696
 20
23.94808279610379
 30
0.0
 10
-45.00789679821536
 20
-1.712817306335646
 30
0.0
 10
-46.72215447756822
 20
-32.3508626114132
 30
0.0
 10
-21.10234368127349
 20
-45.68813574468696
 30
0.0
 10
0.0000000000000266
 20
-51.70386929761164
 30
0.0
 10
21.10234368127347
 20
-45.68813574468697
 30
0.0
 10
46.72215447756823
 20
-32.35086261141319
 30
0.0
 10
45.00789679821537
 20
-1.712817306335633
 30
0.0
 10
39.51085416655692
 20
23.94808279610382
 30
0.0
 10
22.37027006937349
 20
31.93643442184339
 30
0.0
 10
10.24271656874437
 20
36.15196923462495
 30
0.0
 10
4.149353372585685
 20
46.81019566761891
 30
0.0
 10
5.346196174186819
 20
55.27462007778995
 30
0.0
 10
3.986940007274669
 20
63.15948151420184
 30
0.0
 10
1.526520890270503
 20
63.0
 30
0.0
 10
-0.0000000000000077
 20
63.0
 30
0.0
  0
MTEXT
  5
97
330
1F
100
AcDbEntity
  8
0
  6
Continuous
 62
     7
100
AcDbMText
 10
-107.90602156
 20
-57.0195663917
 30
0.0
 40
4.83362
 41
0.0
 71
     1
 72
     1
  1
SOLIDWORKS Educational Product.
  7
SLDTEXTSTYLE0
 73
     1
 44
1.0
  0
MTEXT
  5
98
330
1F
100
AcDbEntity
  8
0
  6
Continuous
 62
     7
100
AcDbMText
 10
-107.90602156
 20
-64.2699963917
 30
0.0
 40
4.83362
 41
0.0
 71
     1
 72
     1
  1
For Instructional Use Only.
  7
SLDTEXTSTYLE0
 73
     1
 44
1.0
  0
ENDSEC
  0
SECTION
  2
OBJECTS
  0
DICTIONARY
  5
C
330
0
100
AcDbDictionary
281
     1
  3
ACAD_GROUP
350
D
  3
ACAD_LAYOUT
350
1A
  3
ACAD_MLINESTYLE
350
17
  3
ACAD_PLOTSETTINGS
350
19
  3
ACAD_PLOTSTYLENAME
350
E
  3
ACAD_SCALELIST
350
47
  0
DICTIONARY
  5
D
102
{ACAD_REACTORS
330
C
102
}
330
C
100
AcDbDictionary
281
     1
  0
DICTIONARY
  5
1A
102
{ACAD_REACTORS
330
C
102
}
330
C
100
AcDbDictionary
281
     1
  3
Layout1
350
1E
  3
Layout2
350
26
  3
Model
350
22
  0
DICTIONARY
  5
17
102
{ACAD_REACTORS
330
C
102
}
330
C
100
AcDbDictionary
281
     1
  3
Standard
350
18
  0
DICTIONARY
  5
19
102
{ACAD_REACTORS
330
C
102
}
330
C
100
AcDbDictionary
281
     1
  0
ACDBDICTIONARYWDFLT
  5
E
102
{ACAD_REACTORS
330
C
102
}
330
C
100
AcDbDictionary
281
     1
  3
Normal
350
F
100
AcDbDictionaryWithDefault
340
F
  0
DICTIONARY
  5
47
102
{ACAD_REACTORS
330
C
102
}
330
C
100
AcDbDictionary
281
     1
  3
A0
350
48
  3
A1
350
49
  3
A2
350
4A
  3
A3
350
4B
  3
A4
350
4C
  3
A5
350
4D
  3
A6
350
4E
  3
A7
350
4F
  3
A8
350
50
  3
A9
350
51
  3
B0
350
52
  3
B1
350
53
  3
B2
350
54
  3
B3
350
55
  3
B4
350
56
  3
B5
350
57
  3
B6
350
58
  3
B7
350
59
  3
B8
350
5A
  3
B9
350
5B
  3
C0
350
5C
  3
C1
350
5D
  3
C2
350
5E
  3
C3
350
5F
  3
C4
350
60
  3
C5
350
61
  3
C6
350
62
  3
C7
350
63
  3
C8
350
64
  3
C9
350
65
  3
D0
350
66
  3
D1
350
67
  3
D2
350
68
  0
LAYOUT
  5
1E
102
{ACAD_REACTORS
330
1A
102
}
330
1A
100
AcDbPlotSettings
  1

  2
none_device
  4

  6

 40
0.0
 41
0.0
 42
0.0
 43
0.0
 44
0.0
 45
0.0
 46
0.0
 47
0.0
 48
0.0
 49
0.0
140
0.0
141
0.0
142
1.0
143
1.0
 70
   688
 72
     1
 73
     0
 74
     5
  7

 75
    16
147
1.0
148
0.0
149
0.0
100
AcDbLayout
  1
Layout1
 70
     1
 71
     1
 10
0.0
 20
0.0
 11
420.0
 21
297.0
 12
0.0
 22
0.0
 32
0.0
 14
1.0000000000E+20
 24
1.0000000000E+20
 34
1.0000000000E+20
 15
-1.0000000000E+20
 25
-1.0000000000E+20
 35
-1.0000000000E+20
146
0.0
 13
0.0
 23
0.0
 33
0.0
 16
1.0
 26
0.0
 36
0.0
 17
0.0
 27
1.0
 37
0.0
 76
     0
330
1B
  0
LAYOUT
  5
26
102
{ACAD_REACTORS
330
1A
102
}
330
1A
100
AcDbPlotSettings
  1

  2
none_device
  4

  6

 40
0.0
 41
0.0
 42
0.0
 43
0.0
 44
0.0
 45
0.0
 46
0.0
 47
0.0
 48
0.0
 49
0.0
140
0.0
141
0.0
142
1.0
143
1.0
 70
   688
 72
     1
 73
     0
 74
     5
  7

 75
    16
147
1.0
148
0.0
149
0.0
100
AcDbLayout
  1
Layout2
 70
     1
 71
     2
 10
0.0
 20
0.0
 11
0.0
 21
0.0
 12
0.0
 22
0.0
 32
0.0
 14
0.0
 24
0.0
 34
0.0
 15
0.0
 25
0.0
 35
0.0
146
0.0
 13
0.0
 23
0.0
 33
0.0
 16
1.0
 26
0.0
 36
0.0
 17
0.0
 27
1.0
 37
0.0
 76
     0
330
23
  0
LAYOUT
  5
22
102
{ACAD_REACTORS
330
1A
102
}
330
1A
100
AcDbPlotSettings
  1

  2
none_device
  4
ANSI_A_(11.00_x_8.50_Inches)
  6

 40
6.35
 41
19.05
 42
6.35000508
 43
19.05000254
 44
279.4
 45
215.9
 46
133.34999746
 47
66.0820206667
 48
0.0
 49
0.0
140
0.0
141
0.0
142
0.050460576
143
1.0
 70
  1696
 72
     0
 73
     0
 74
     0
  7

 75
     0
147
0.0179189148
148
-1300.4909072572
149
0.0
100
AcDbLayout
  1
Model
 70
     1
 71
     0
 10
0.0
 20
0.0
 11
420.0
 21
297.0
 12
0.0
 22
0.0
 32
0.0
 14
-107.90602156
 24
-56.0
 34
0.0
 15
107.90602156
 25
91.6058398278
 35
0.0
146
0.0
 13
0.0
 23
0.0
 33
0.0
 16
1.0
 26
0.0
 36
0.0
 17
0.0
 27
1.0
 37
0.0
 76
     0
330
1F
331
29
  0
MLINESTYLE
  5
18
102
{ACAD_REACTORS
330
17
102
}
330
17
100
AcDbMlineStyle
  2
Standard
 70
     0
  3

 62
   256
 51
90.0
 52
90.0
 71
     2
 49
0.5
 62
   256
  6
BYLAYER
 49
-0.5
 62
   256
  6
BYLAYER
  0
ACDBPLACEHOLDER
  5
F
102
{ACAD_REACTORS
330
E
102
}
330
E
  0
SCALE
  5
48
102
{ACAD_REACTORS
330
47
102
}
330
47
100
AcDbScale
 70
     0
300
1:1
140
1.0
141
1.0
290
     1
  0
SCALE
  5
49
102
{ACAD_REACTORS
330
47
102
}
330
47
100
AcDbScale
 70
     0
300
1:2
140
1.0
141
2.0
290
     0
  0
SCALE
  5
4A
102
{ACAD_REACTORS
330
47
102
}
330
47
100
AcDbScale
 70
     0
300
1:4
140
1.0
141
4.0
290
     0
  0
SCALE
  5
4B
102
{ACAD_REACTORS
330
47
102
}
330
47
100
AcDbScale
 70
     0
300
1:5
140
1.0
141
5.0
290
     0
  0
SCALE
  5
4C
102
{ACAD_REACTORS
330
47
102
}
330
47
100
AcDbScale
 70
     0
300
1:8
140
1.0
141
8.0
290
     0
  0
SCALE
  5
4D
102
{ACAD_REACTORS
330
47
102
}
330
47
100
AcDbScale
 70
     0
300
1:10
140
1.0
141
10.0
290
     0
  0
SCALE
  5
4E
102
{ACAD_REACTORS
330
47
102
}
330
47
100
AcDbScale
 70
     0
300
1:16
140
1.0
141
16.0
290
     0
  0
SCALE
  5
4F
102
{ACAD_REACTORS
330
47
102
}
330
47
100
AcDbScale
 70
     0
300
1:20
140
1.0
141
20.0
290
     0
  0
SCALE
  5
50
102
{ACAD_REACTORS
330
47
102
}
330
47
100
AcDbScale
 70
     0
300
1:30
140
1.0
141
30.0
290
     0
  0
SCALE
  5
51
102
{ACAD_REACTORS
330
47
102
}
330
47
100
AcDbScale
 70
     0
300
1:40
140
1.0
141
40.0
290
     0
  0
SCALE
  5
52
102
{ACAD_REACTORS
330
47
102
}
330
47
100
AcDbScale
 70
     0
300
1:50
140
1.0
141
50.0
290
     0
  0
SCALE
  5
53
102
{ACAD_REACTORS
330
47
102
}
330
47
100
AcDbScale
 70
     0
300
1:100
140
1.0
141
100.0
290
     0
  0
SCALE
  5
54
102
{ACAD_REACTORS
330
47
102
}
330
47
100
AcDbScale
 70
     0
300
2:1
140
2.0
141
1.0
290
     0
  0
SCALE
  5
55
102
{ACAD_REACTORS
330
47
102
}
330
47
100
AcDbScale
 70
     0
300
4:1
140
4.0
141
1.0
290
     0
  0
SCALE
  5
56
102
{ACAD_REACTORS
330
47
102
}
330
47
100
AcDbScale
 70
     0
300
8:1
140
8.0
141
1.0
290
     0
  0
SCALE
  5
57
102
{ACAD_REACTORS
330
47
102
}
330
47
100
AcDbScale
 70
     0
300
10:1
140
10.0
141
1.0
290
     0
  0
SCALE
  5
58
102
{ACAD_REACTORS
330
47
102
}
330
47
100
AcDbScale
 70
     0
300
100:1
140
100.0
141
1.0
290
     0
  0
SCALE
  5
59
102
{ACAD_REACTORS
330
47
102
}
330
47
100
AcDbScale
 70
     0
300
1/128" = 1'-0"
140
0.0078125
141
12.0
290
     0
  0
SCALE
  5
5A
102
{ACAD_REACTORS
330
47
102
}
330
47
100
AcDbScale
 70
     0
300
1/64" = 1'-0"
140
0.015625
141
12.0
290
     0
  0
SCALE
  5
5B
102
{ACAD_REACTORS
330
47
102
}
330
47
100
AcDbScale
 70
     0
300
1/32" = 1'-0"
140
0.03125
141
12.0
290
     0
  0
SCALE
  5
5C
102
{ACAD_REACTORS
330
47
102
}
330
47
100
AcDbScale
 70
     0
300
1/16" = 1'-0"
140
0.0625
141
12.0
290
     0
  0
SCALE
  5
5D
102
{ACAD_REACTORS
330
47
102
}
330
47
100
AcDbScale
 70
     0
300
3/32" = 1'-0"
140
0.09375
141
12.0
290
     0
  0
SCALE
  5
5E
102
{ACAD_REACTORS
330
47
102
}
330
47
100
AcDbScale
 70
     0
300
1/8" = 1'-0"
140
0.125
141
12.0
290
     0
  0
SCALE
  5
5F
102
{ACAD_REACTORS
330
47
102
}
330
47
100
AcDbScale
 70
     0
300
3/16" = 1'-0"
140
0.1875
141
12.0
290
     0
  0
SCALE
  5
60
102
{ACAD_REACTORS
330
47
102
}
330
47
100
AcDbScale
 70
     0
300
1/4" = 1'-0"
140
0.25
141
12.0
290
     0
  0
SCALE
  5
61
102
{ACAD_REACTORS
330
47
102
}
330
47
100
AcDbScale
 70
     0
300
3/8" = 1'-0"
140
0.375
141
12.0
290
     0
  0
SCALE
  5
62
102
{ACAD_REACTORS
330
47
102
}
330
47
100
AcDbScale
 70
     0
300
1/2" = 1'-0"
140
0.5
141
12.0
290
     0
  0
SCALE
  5
63
102
{ACAD_REACTORS
330
47
102
}
330
47
100
AcDbScale
 70
     0
300
3/4" = 1'-0"
140
0.75
141
12.0
290
     0
  0
SCALE
  5
64
102
{ACAD_REACTORS
330
47
102
}
330
47
100
AcDbScale
 70
     0
300
1" = 1'-0"
140
1.0
141
12.0
290
     0
  0
SCALE
  5
65
102
{ACAD_REACTORS
330
47
102
}
330
47
100
AcDbScale
 70
     0
300
1-1/2" = 1'-0"
140
1.5
141
12.0
290
     0
  0
SCALE
  5
66
102
{ACAD_REACTORS
330
47
102
}
330
47
100
AcDbScale
 70
     0
300
3" = 1'-0"
140
3.0
141
12.0
290
     0
  0
SCALE
  5
67
102
{ACAD_REACTORS
330
47
102
}
330
47
100
AcDbScale
 70
     0
300
6" = 1'-0"
140
6.0
141
12.0
290
     0
  0
SCALE
  5
68
102
{ACAD_REACTORS
330
47
102
}
330
47
100
AcDbScale
 70
     0
300
1'-0" = 1'-0"
140
12.0
141
12.0
290
     0
  0
ENDSEC
  0
EOF
