  0
SECTION
  2
HEADER
  9
$ACADVER
  1
AC1015
  9
$ACADMAINTVER
 70
     6
  9
$DWGCODEPAGE
  3
ANSI_1252
  9
$INSBASE
 10
0.0
 20
0.0
 30
0.0
  9
$EXTMIN
 10
-101.8581521629
 20
-55.0
 30
0.0
  9
$EXTMAX
 10
101.8581521629
 20
91.6058398278
 30
0.0
  9
$LIMMIN
 10
0.0
 20
0.0
  9
$LIMMAX
 10
420.0
 20
297.0
  9
$ORTHOMODE
 70
     0
  9
$REGENMODE
 70
     1
  9
$FILLMODE
 70
     1
  9
$QTEXTMODE
 70
     0
  9
$MIRRTEXT
 70
     1
  9
$LTSCALE
 40
1.0
  9
$ATTMODE
 70
     1
  9
$TEXTSIZE
 40
3.5
  9
$TRACEWID
 40
1.0
  9
$TEXTSTYLE
  7
Standard
  9
$CLAYER
  8
0
  9
$CELTYPE
  6
ByLayer
  9
$CECOLOR
 62
   256
  9
$CELTSCALE
 40
1.0
  9
$DISPSILH
 70
     0
  9
$DIMSCALE
 40
1.0
  9
$DIMASZ
 40
3.302
  9
$DIMEXO
 40
1.0
  9
$DIMDLI
 40
3.75
  9
$DIMRND
 40
0.0
  9
$DIMDLE
 40
0.0
  9
$DIMEXE
 40
1.0
  9
$DIMTP
 40
0.0
  9
$DIMTM
 40
0.0
  9
$DIMTXT
 40
3.5
  9
$DIMCEN
 40
2.5
  9
$DIMTSZ
 40
0.0
  9
$DIMTOL
 70
     0
  9
$DIMLIM
 70
     0
  9
$DIMTIH
 70
     1
  9
$DIMTOH
 70
     1
  9
$DIMSE1
 70
     0
  9
$DIMSE2
 70
     0
  9
$DIMTAD
 70
     1
  9
$DIMZIN
 70
     1
  9
$DIMBLK
  1

  9
$DIMASO
 70
     1
  9
$DIMSHO
 70
     1
  9
$DIMPOST
  1

  9
$DIMAPOST
  1

  9
$DIMALT
 70
     0
  9
$DIMALTD
 70
     3
  9
$DIMALTF
 40
0.0393700787
  9
$DIMLFAC
 40
1.0
  9
$DIMTOFL
 70
     1
  9
$DIMTVP
 40
0.0
  9
$DIMTIX
 70
     0
  9
$DIMSOXD
 70
     0
  9
$DIMSAH
 70
     0
  9
$DIMBLK1
  1

  9
$DIMBLK2
  1

  9
$DIMSTYLE
  2
ISO-25
  9
$DIMCLRD
 70
     0
  9
$DIMCLRE
 70
     0
  9
$DIMCLRT
 70
     0
  9
$DIMTFAC
 40
1.0
  9
$DIMGAP
 40
1.524
  9
$DIMJUST
 70
     0
  9
$DIMSD1
 70
     0
  9
$DIMSD2
 70
     0
  9
$DIMTOLJ
 70
     0
  9
$DIMTZIN
 70
     1
  9
$DIMALTZ
 70
     0
  9
$DIMALTTZ
 70
     0
  9
$DIMUPT
 70
     0
  9
$DIMDEC
 70
     2
  9
$DIMTDEC
 70
     2
  9
$DIMALTU
 70
     2
  9
$DIMALTTD
 70
     3
  9
$DIMTXSTY
  7
Standard
  9
$DIMAUNIT
 70
     0
  9
$DIMADEC
 70
     2
  9
$DIMALTRND
 40
0.0
  9
$DIMAZIN
 70
     0
  9
$DIMDSEP
 70
    44
  9
$DIMATFIT
 70
     3
  9
$DIMFRAC
 70
     0
  9
$DIMLDRBLK
  1

  9
$DIMLUNIT
 70
     2
  9
$DIMLWD
 70
    -2
  9
$DIMLWE
 70
    -2
  9
$DIMTMOVE
 70
     0
  9
$LUNITS
 70
     2
  9
$LUPREC
 70
     2
  9
$SKETCHINC
 40
1.0
  9
$FILLETRAD
 40
10.0
  9
$AUNITS
 70
     0
  9
$AUPREC
 70
     2
  9
$MENU
  1
.
  9
$ELEVATION
 40
0.0
  9
$PELEVATION
 40
0.0
  9
$THICKNESS
 40
0.0
  9
$LIMCHECK
 70
     0
  9
$CHAMFERA
 40
0.0
  9
$CHAMFERB
 40
0.0
  9
$CHAMFERC
 40
0.0
  9
$CHAMFERD
 40
0.0
  9
$SKPOLY
 70
     0
  9
$TDCREATE
 40
2459050.570593229
  9
$TDUCREATE
 40
2459050.862259896
  9
$TDUPDATE
 40
2459050.570618958
  9
$TDUUPDATE
 40
2459050.862285625
  9
$TDINDWG
 40
0.0000000116
  9
$TDUSRTIMER
 40
0.0000000116
  9
$USRTIMER
 70
     1
  9
$ANGBASE
 50
0.0
  9
$ANGDIR
 70
     0
  9
$PDMODE
 70
     0
  9
$PDSIZE
 40
-1.0
  9
$PLINEWID
 40
0.0
  9
$SPLFRAME
 70
     0
  9
$SPLINETYPE
 70
     6
  9
$SPLINESEGS
 70
     8
  9
$HANDSEED
  5
99
  9
$SURFTAB1
 70
     6
  9
$SURFTAB2
 70
     6
  9
$SURFTYPE
 70
     6
  9
$SURFU
 70
     6
  9
$SURFV
 70
     6
  9
$UCSBASE
  2

  9
$UCSNAME
  2

  9
$UCSORG
 10
0.0
 20
0.0
 30
0.0
  9
$UCSXDIR
 10
1.0
 20
0.0
 30
0.0
  9
$UCSYDIR
 10
0.0
 20
1.0
 30
0.0
  9
$UCSORTHOREF
  2

  9
$UCSORTHOVIEW
 70
     0
  9
$UCSORGTOP
 10
0.0
 20
0.0
 30
0.0
  9
$UCSORGBOTTOM
 10
0.0
 20
0.0
 30
0.0
  9
$UCSORGLEFT
 10
0.0
 20
0.0
 30
0.0
  9
$UCSORGRIGHT
 10
0.0
 20
0.0
 30
0.0
  9
$UCSORGFRONT
 10
0.0
 20
0.0
 30
0.0
  9
$UCSORGBACK
 10
0.0
 20
0.0
 30
0.0
  9
$PUCSBASE
  2

  9
$PUCSNAME
  2

  9
$PUCSORG
 10
0.0
 20
0.0
 30
0.0
  9
$PUCSXDIR
 10
1.0
 20
0.0
 30
0.0
  9
$PUCSYDIR
 10
0.0
 20
1.0
 30
0.0
  9
$PUCSORTHOREF
  2

  9
$PUCSORTHOVIEW
 70
     0
  9
$PUCSORGTOP
 10
0.0
 20
0.0
 30
0.0
  9
$PUCSORGBOTTOM
 10
0.0
 20
0.0
 30
0.0
  9
$PUCSORGLEFT
 10
0.0
 20
0.0
 30
0.0
  9
$PUCSORGRIGHT
 10
0.0
 20
0.0
 30
0.0
  9
$PUCSORGFRONT
 10
0.0
 20
0.0
 30
0.0
  9
$PUCSORGBACK
 10
0.0
 20
0.0
 30
0.0
  9
$USERI1
 70
     0
  9
$USERI2
 70
     0
  9
$USERI3
 70
     0
  9
$USERI4
 70
     0
  9
$USERI5
 70
     0
  9
$USERR1
 40
0.0
  9
$USERR2
 40
0.0
  9
$USERR3
 40
0.0
  9
$USERR4
 40
0.0
  9
$USERR5
 40
0.0
  9
$WORLDVIEW
 70
     1
  9
$SHADEDGE
 70
     3
  9
$SHADEDIF
 70
    70
  9
$TILEMODE
 70
     1
  9
$MAXACTVP
 70
    64
  9
$PINSBASE
 10
0.0
 20
0.0
 30
0.0
  9
$PLIMCHECK
 70
     0
  9
$PEXTMIN
 10
1.0000000000E+20
 20
1.0000000000E+20
 30
1.0000000000E+20
  9
$PEXTMAX
 10
-1.0000000000E+20
 20
-1.0000000000E+20
 30
-1.0000000000E+20
  9
$PLIMMIN
 10
0.0
 20
0.0
  9
$PLIMMAX
 10
420.0
 20
297.0
  9
$UNITMODE
 70
     0
  9
$VISRETAIN
 70
     1
  9
$PLINEGEN
 70
     0
  9
$PSLTSCALE
 70
     1
  9
$TREEDEPTH
 70
  3020
  9
$CMLSTYLE
  2
Standard
  9
$CMLJUST
 70
     0
  9
$CMLSCALE
 40
20.0
  9
$PROXYGRAPHICS
 70
     1
  9
$MEASUREMENT
 70
     1
  9
$CELWEIGHT
370
    -1
  9
$ENDCAPS
280
     0
  9
$JOINSTYLE
280
     0
  9
$LWDISPLAY
290
     1
  9
$INSUNITS
 70
     4
  9
$HYPERLINKBASE
  1

  9
$STYLESHEET
  1

  9
$XEDIT
290
     1
  9
$CEPSNTYPE
380
     0
  9
$PSTYLEMODE
290
     1
  9
$FINGERPRINTGUID
  2
{761b68d3-8bef-432d-90ad-1e6b256d3e0a}
  9
$VERSIONGUID
  2
{FAEB1C32-E019-11D5-929B-00C0DF256EC4}
  9
$EXTNAMES
290
     1
  9
$PSVPSCALE
 40
0.0
  9
$OLESTARTUP
290
     0
  0
ENDSEC
  0
SECTION
  2
CLASSES
  0
CLASS
  1
ACDBDICTIONARYWDFLT
  2
AcDbDictionaryWithDefault
  3
ObjectDBX Classes
 90
        0
280
     0
281
     0
  0
CLASS
  1
VISUALSTYLE
  2
AcDbVisualStyle
  3
ObjectDBX Classes
 90
     4095
280
     0
281
     0
  0
CLASS
  1
MATERIAL
  2
AcDbMaterial
  3
ObjectDBX Classes
 90
     1153
280
     0
281
     0
  0
CLASS
  1
SCALE
  2
AcDbScale
  3
ObjectDBX Classes
 90
     1153
280
     0
281
     0
  0
CLASS
  1
TABLESTYLE
  2
AcDbTableStyle
  3
ObjectDBX Classes
 90
     4095
280
     0
281
     0
  0
CLASS
  1
MLEADERSTYLE
  2
AcDbMLeaderStyle
  3
ACDB_MLEADERSTYLE_CLASS
 90
     4095
280
     0
281
     0
  0
CLASS
  1
SUN
  2
AcDbSun
  3
SCENEOE
 90
     1153
280
     0
281
     0
  0
CLASS
  1
ACDBPLACEHOLDER
  2
AcDbPlaceHolder
  3
ObjectDBX Classes
 90
        0
280
     0
281
     0
  0
CLASS
  1
LAYOUT
  2
AcDbLayout
  3
ObjectDBX Classes
 90
        0
280
     0
281
     0
  0
ENDSEC
  0
SECTION
  2
TABLES
  0
TABLE
  2
VPORT
  5
8
330
0
100
AcDbSymbolTable
 70
     1
  0
VPORT
  5
29
330
8
100
AcDbSymbolTableRecord
100
AcDbViewportTableRecord
  2
*Active
 70
     0
 10
0.0
 20
0.0
 11
1.0
 21
1.0
 12
0.0
 22
18.3029199139
 13
0.0
 23
0.0
 14
10.0
 24
10.0
 15
10.0
 25
10.0
 16
0.0
 26
0.0
 36
1.0
 17
0.0
 27
0.0
 37
0.0
 40
149.5379566243
 41
1.3895510886
 42
50.0
 43
0.0
 44
0.0
 50
0.0
 51
0.0
 71
     0
 72
   100
 73
     1
 74
     3
 75
     0
 76
     0
 77
     0
 78
     0
281
     0
 65
     1
110
0.0
120
0.0
130
0.0
111
1.0
121
0.0
131
0.0
112
0.0
122
1.0
132
0.0
 79
     0
146
0.0
  0
ENDTAB
  0
TABLE
  2
LTYPE
  5
5
330
0
100
AcDbSymbolTable
 70
     6
  0
LTYPE
  5
14
330
5
100
AcDbSymbolTableRecord
100
AcDbLinetypeTableRecord
  2
ByBlock
 70
     0
  3

 72
    65
 73
     0
 40
0.0
  0
LTYPE
  5
15
330
5
100
AcDbSymbolTableRecord
100
AcDbLinetypeTableRecord
  2
ByLayer
 70
     0
  3

 72
    65
 73
     0
 40
0.0
  0
LTYPE
  5
16
330
5
100
AcDbSymbolTableRecord
100
AcDbLinetypeTableRecord
  2
Continuous
 70
     0
  3
Solid line
 72
    65
 73
     0
 40
0.0
  0
LTYPE
  5
6E
330
5
100
AcDbSymbolTableRecord
100
AcDbLinetypeTableRecord
  2
HIDDEN
 70
     0
  3
Hidden __ __ __ __ __ __ __ __ __ __ __ __ __ __
 72
    65
 73
     2
 40
1.905
 49
1.27
 74
     0
 49
-0.635
 74
     0
  0
LTYPE
  5
6F
330
5
100
AcDbSymbolTableRecord
100
AcDbLinetypeTableRecord
  2
PHANTOM
 70
     0
  3
Phantom ______  __  __  ______  __  __  ______
 72
    65
 73
     6
 40
12.7
 49
6.35
 74
     0
 49
-1.27
 74
     0
 49
1.27
 74
     0
 49
-1.27
 74
     0
 49
1.27
 74
     0
 49
-1.27
 74
     0
  0
LTYPE
  5
70
330
5
100
AcDbSymbolTableRecord
100
AcDbLinetypeTableRecord
  2
CENTER
 70
     0
  3
Center ____ _ ____ _ ____ _ ____ _ ____ _ ____
 72
    65
 73
     4
 40
10.16
 49
6.35
 74
     0
 49
-1.27
 74
     0
 49
1.27
 74
     0
 49
-1.27
 74
     0
  0
LTYPE
  5
71
330
5
100
AcDbSymbolTableRecord
100
AcDbLinetypeTableRecord
  2
CENTERX2
 70
     0
  3
Center (2x) ________  __  ________  __  _____
 72
    65
 73
     4
 40
20.32
 49
12.7
 74
     0
 49
-2.54
 74
     0
 49
2.54
 74
     0
 49
-2.54
 74
     0
  0
LTYPE
  5
72
330
5
100
AcDbSymbolTableRecord
100
AcDbLinetypeTableRecord
  2
DOT2
 70
     0
  3
Dot (.5x) ........................................
 72
    65
 73
     2
 40
0.635
 49
0.0
 74
     0
 49
-0.635
 74
     0
  0
ENDTAB
  0
TABLE
  2
LAYER
  5
2
330
0
100
AcDbSymbolTable
 70
     1
  0
LAYER
  5
10
330
2
100
AcDbSymbolTableRecord
100
AcDbLayerTableRecord
  2
0
 70
     0
 62
     7
  6
Continuous
370
    -3
390
F
  0
ENDTAB
  0
TABLE
  2
STYLE
  5
3
330
0
100
AcDbSymbolTable
 70
     2
  0
STYLE
  5
11
330
3
100
AcDbSymbolTableRecord
100
AcDbTextStyleTableRecord
  2
Standard
 70
     0
 40
0.0
 41
1.0
 50
0.0
 71
     0
 42
3.5
  3
txt
  4

  0
STYLE
  5
96
330
3
100
AcDbSymbolTableRecord
100
AcDbTextStyleTableRecord
  2
SLDTEXTSTYLE0
 70
     0
 40
0.0
 41
0.7
 50
0.0
 71
     0
 42
3.5
  3
TXT
  4

  0
ENDTAB
  0
TABLE
  2
VIEW
  5
6
330
0
100
AcDbSymbolTable
 70
     0
  0
ENDTAB
  0
TABLE
  2
UCS
  5
7
330
0
100
AcDbSymbolTable
 70
     0
  0
ENDTAB
  0
TABLE
  2
APPID
  5
9
330
0
100
AcDbSymbolTable
 70
     1
  0
APPID
  5
12
330
9
100
AcDbSymbolTableRecord
100
AcDbRegAppTableRecord
  2
ACAD
 70
     0
  0
ENDTAB
  0
TABLE
  2
DIMSTYLE
  5
A
330
0
100
AcDbSymbolTable
 70
     1
100
AcDbDimStyleTable
  0
DIMSTYLE
105
27
330
A
100
AcDbSymbolTableRecord
100
AcDbDimStyleTableRecord
  2
ISO-25
 70
     0
 41
2.5
 42
0.625
 43
3.75
 44
1.25
 73
     0
 74
     0
 77
     1
 78
     8
140
2.5
141
2.5
143
0.0393700787
147
0.625
171
     3
172
     1
178
     0
271
     2
272
     2
274
     3
278
    44
283
     0
284
     8
340
11
  0
ENDTAB
  0
TABLE
  2
BLOCK_RECORD
  5
1
330
0
100
AcDbSymbolTable
 70
     1
  0
BLOCK_RECORD
  5
1F
330
1
100
AcDbSymbolTableRecord
100
AcDbBlockTableRecord
  2
*Model_Space
340
22
  0
BLOCK_RECORD
  5
1B
330
1
100
AcDbSymbolTableRecord
100
AcDbBlockTableRecord
  2
*Paper_Space
340
1E
  0
BLOCK_RECORD
  5
23
330
1
100
AcDbSymbolTableRecord
100
AcDbBlockTableRecord
  2
*Paper_Space0
340
26
  0
ENDTAB
  0
ENDSEC
  0
SECTION
  2
BLOCKS
  0
BLOCK
  5
20
330
1F
100
AcDbEntity
  8
0
100
AcDbBlockBegin
  2
*Model_Space
 70
     0
 10
0.0
 20
0.0
 30
0.0
  3
*Model_Space
  1

  0
ENDBLK
  5
21
330
1F
100
AcDbEntity
  8
0
100
AcDbBlockEnd
  0
BLOCK
  5
1C
330
1B
100
AcDbEntity
 67
     1
  8
0
100
AcDbBlockBegin
  2
*Paper_Space
 70
     0
 10
0.0
 20
0.0
 30
0.0
  3
*Paper_Space
  1

  0
ENDBLK
  5
1D
330
1B
100
AcDbEntity
 67
     1
  8
0
100
AcDbBlockEnd
  0
BLOCK
  5
24
330
23
100
AcDbEntity
  8
0
100
AcDbBlockBegin
  2
*Paper_Space0
 70
     0
 10
0.0
 20
0.0
 30
0.0
  3
*Paper_Space0
  1

  0
ENDBLK
  5
25
330
23
100
AcDbEntity
  8
0
100
AcDbBlockEnd
  0
ENDSEC
  0
SECTION
  2
ENTITIES
  0
SPLINE
  5
73
330
1F
100
AcDbEntity
  8
0
  6
Continuous
 62
     7
370
    25
100
AcDbSpline
210
0.0
220
0.0
230
1.0
 70
     8
 71
     2
 72
     6
 73
     3
 74
     0
 42
0.000000001
 43
0.00000001
 40
0.0
 40
0.0
 40
0.0
 40
0.6345891015830762
 40
0.6345891015830762
 40
0.6345891015830762
 10
-65.06677713999176
 20
27.82589199641663
 30
0.0
 10
-56.49089033661634
 20
27.60700675246017
 30
0.0
 10
-46.31888821372855
 20
25.24107849636268
 30
0.0
  0
ARC
  5
74
330
1F
100
AcDbEntity
  8
0
  6
Continuous
 62
     7
370
    25
100
AcDbCircle
 10
-48.0179754031
 20
17.9360731765
 30
0.0
 40
7.500000000000012
100
AcDbArc
 50
341.8507699043
 51
76.9062560714
  0
SPLINE
  5
75
330
1F
100
AcDbEntity
  8
0
  6
Continuous
 62
     7
370
    25
100
AcDbSpline
210
0.0
220
0.0
230
1.0
 70
     8
 71
     3
 72
    14
 73
    10
 74
     0
 42
0.000000001
 43
0.00000001
 40
0.2158159779159276
 40
0.2158159779159276
 40
0.2158159779159276
 40
0.2158159779159276
 40
0.21875
 40
0.25
 40
0.265625
 40
0.28125
 40
0.296875
 40
0.3125
 40
0.3253552218704692
 40
0.3253552218704692
 40
0.3253552218704692
 40
0.3253552218704692
 10
-40.89111210958691
 20
15.59987549744472
 30
0.0
 10
-40.99501320664532
 20
15.28291220216963
 30
0.0
 10
-42.16582243492113
 20
11.58124835996299
 30
0.0
 10
-43.23750199480701
 20
6.056921770849351
 30
0.0
 10
-44.15677912309258
 20
-0.7511374661217829
 30
0.0
 10
-44.74107427082426
 20
-5.9653849975095
 30
0.0
 10
-45.07855992246306
 20
-11.26966355863383
 30
0.0
 10
-45.04802817784582
 20
-16.29148393448084
 30
0.0
 10
-44.74266154545239
 20
-19.52975981367149
 30
0.0
 10
-44.53216691380646
 20
-20.98415157730521
 30
0.0
  0
ARC
  5
76
330
1F
100
AcDbEntity
  8
0
  6
Continuous
 62
     7
370
    25
100
AcDbCircle
 10
-51.9548290249
 20
-22.0584360761
 30
0.0
 40
7.500000000000003
100
AcDbArc
 50
273.3365066306
 51
8.2352550886
  0
SPLINE
  5
77
330
1F
100
AcDbEntity
  8
0
  6
Continuous
 62
     7
370
    25
100
AcDbSpline
210
0.0
220
0.0
230
1.0
 70
     8
 71
     2
 72
     6
 73
     3
 74
     0
 42
0.000000001
 43
0.00000001
 40
0.3810796532313176
 40
0.3810796532313176
 40
0.3810796532313176
 40
1.0
 40
1.0
 40
1.0
 10
-51.51832812786427
 20
-29.54572309928245
 30
0.0
 10
-61.99817884699324
 20
-30.15668728773009
 30
0.0
 10
-72.47392805832281
 20
-29.85106285756973
 30
0.0
  0
SPLINE
  5
78
330
1F
100
AcDbEntity
  8
0
  6
Continuous
 62
     7
370
    25
100
AcDbSpline
210
0.0
220
0.0
230
1.0
 70
     8
 71
     3
 72
    72
 73
    68
 74
     0
 42
0.000000001
 43
0.00000001
 40
0.0
 40
0.0
 40
0.0
 40
0.0
 40
0.0078125
 40
0.015625
 40
0.03125
 40
0.046875
 40
0.0625
 40
0.078125
 40
0.09375
 40
0.109375
 40
0.125
 40
0.140625
 40
0.15625
 40
0.171875
 40
0.1875
 40
0.203125
 40
0.21875
 40
0.234375
 40
0.25
 40
0.265625
 40
0.28125
 40
0.296875
 40
0.3125
 40
0.328125
 40
0.34375
 40
0.359375
 40
0.375
 40
0.390625
 40
0.40625
 40
0.421875
 40
0.4375
 40
0.453125
 40
0.46875
 40
0.484375
 40
0.5
 40
0.515625
 40
0.53125
 40
0.546875
 40
0.5625
 40
0.578125
 40
0.59375
 40
0.609375
 40
0.625
 40
0.640625
 40
0.65625
 40
0.671875
 40
0.6875
 40
0.703125
 40
0.71875
 40
0.734375
 40
0.75
 40
0.765625
 40
0.78125
 40
0.796875
 40
0.8125
 40
0.828125
 40
0.84375
 40
0.859375
 40
0.875
 40
0.890625
 40
0.90625
 40
0.921875
 40
0.9375
 40
0.953125
 40
0.96875
 40
0.984375
 40
1.0
 40
1.0
 40
1.0
 40
1.0
 10
-72.4739280583228
 20
-29.85106285756973
 30
0.0
 10
-74.14142544837615
 20
-29.80242368216289
 30
0.0
 10
-77.48337173180425
 20
-29.37410353365808
 30
0.0
 10
-83.80462510750664
 20
-27.24955314042445
 30
0.0
 10
-90.63100717838866
 20
-22.38097024592174
 30
0.0
 10
-95.88616764592061
 20
-13.95447059883327
 30
0.0
 10
-97.49340974072393
 20
-4.285191050992127
 30
0.0
 10
-95.30311407736069
 20
5.1369045964081
 30
0.0
 10
-89.7458885406727
 20
12.89662467693383
 30
0.0
 10
-81.74950254080835
 20
17.86774417296105
 30
0.0
 10
-72.58592164597133
 20
19.37561967110141
 30
0.0
 10
-63.66915318727651
 20
17.28750481629748
 30
0.0
 10
-56.33714398617881
 20
12.01798292516375
 30
0.0
 10
-51.65105277721904
 20
4.451133256547228
 30
0.0
 10
-50.24208928572135
 20
-4.206529857813823
 30
0.0
 10
-52.22793716395152
 20
-12.61804342084643
 30
0.0
 10
-57.20958417531767
 20
-19.52241799009826
 30
0.0
 10
-64.3467946803057
 20
-23.92362954307102
 30
0.0
 10
-72.49849180538733
 20
-25.23386282009199
 30
0.0
 10
-80.40477864540523
 20
-23.35047648016347
 30
0.0
 10
-86.88162249512996
 20
-18.6568802498926
 30
0.0
 10
-90.99812463421172
 20
-11.94943697291686
 30
0.0
 10
-92.20984268818324
 20
-4.303761422343385
 30
0.0
 10
-90.42914732201903
 20
3.097330767972592
 30
0.0
 10
-86.0238104198414
 20
9.146766312635076
 30
0.0
 10
-79.74628685293497
 20
12.97876039846925
 30
0.0
 10
-72.60669979389078
 20
14.09221859630526
 30
0.0
 10
-65.71076494461148
 20
12.41448776747761
 30
0.0
 10
-60.08859229105457
 20
8.29765989383572
 30
0.0
 10
-56.54086564905285
 20
2.450239588252823
 30
0.0
 10
-55.52536078384006
 20
-4.183177458383911
 30
0.0
 10
-57.09979728131726
 20
-10.57399868004376
 30
0.0
 10
-60.92781368122788
 20
-15.76908300522321
 30
0.0
 10
-66.34490705815236
 20
-19.03283298133766
 30
0.0
 10
-72.47205342342339
 20
-19.95075684931602
 30
0.0
 10
-78.3578126373775
 20
-18.4800172630817
 30
0.0
 10
-83.12602069820474
 20
-14.94118350974015
 30
0.0
 10
-86.1061499613891
 20
-9.954693438387396
 30
0.0
 10
-86.92695129357774
 20
-4.333944015953143
 30
0.0
 10
-85.56040712139347
 20
1.046814658974284
 30
0.0
 10
-82.31121844850234
 20
5.388407598865272
 30
0.0
 10
-77.7556787171523
 20
8.085358357058348
 30
0.0
 10
-72.64148746732985
 20
8.80961055917776
 30
0.0
 10
-67.76565548527282
 20
7.547889358888826
 30
0.0
 10
-63.85035101738914
 20
4.588932054180871
 30
0.0
 10
-61.43601993218234
 20
0.4647866371269163
 30
0.0
 10
-60.80758651867564
 20
-4.1426361926467
 30
0.0
 10
-61.96367933096126
 20
-8.513631008297267
 30
0.0
 10
-64.63164655776832
 20
-12.00306309712862
 30
0.0
 10
-68.32381702231268
 20
-14.13549502315309
 30
0.0
 10
-72.42419037557329
 20
-14.66906005698064
 30
0.0
 10
-76.29045752753768
 20
-13.61965321433972
 30
0.0
 10
-79.35455877651984
 20
-11.24368215417681
 30
0.0
 10
-81.20604295334759
 20
-7.984266271114282
 30
0.0
 10
-81.64600858241536
 20
-4.391329467233589
 30
0.0
 10
-80.70471516519903
 20
-1.029655026885062
 30
0.0
 10
-78.62211430612909
 20
1.609838576696119
 30
0.0
 10
-75.79653416027902
 20
3.181668176074727
 30
0.0
 10
-72.71158575813243
 20
3.529782580094937
 30
0.0
 10
-69.85434072488846
 20
2.698595774399271
 30
0.0
 10
-67.63844448950296
 20
0.9113101649389546
 30
0.0
 10
-66.34449834029941
 20
-1.478869627489859
 30
0.0
 10
-66.08554179138993
 20
-4.055022767781331
 30
0.0
 10
-66.80442330796807
 20
-6.407971511752727
 30
0.0
 10
-68.29087833022128
 20
-8.201968703481642
 30
0.0
 10
-70.25309802521575
 20
-9.21971277107796
 30
0.0
 10
-71.60606348968471
 20
-9.337926747348568
 30
0.0
 10
-72.27522059492517
 20
-9.26479698012576
 30
0.0
  0
LINE
  5
79
330
1F
100
AcDbEntity
  8
0
  6
Continuous
 62
     7
370
    25
100
AcDbLine
 10
-72.818418349
 20
-14.2352030199
 30
0.0
 11
-72.2752205949
 21
-9.2647969801
 31
0.0
  0
SPLINE
  5
7A
330
1F
100
AcDbEntity
  8
0
  6
Continuous
 62
     7
370
    25
100
AcDbSpline
210
0.0
220
0.0
230
1.0
 70
     8
 71
     3
 72
    72
 73
    68
 74
     0
 42
0.000000001
 43
0.00000001
 40
0.0
 40
0.0
 40
0.0
 40
0.0
 40
0.0078125
 40
0.015625
 40
0.03125
 40
0.046875
 40
0.0625
 40
0.078125
 40
0.09375
 40
0.109375
 40
0.125
 40
0.140625
 40
0.15625
 40
0.171875
 40
0.1875
 40
0.203125
 40
0.21875
 40
0.234375
 40
0.25
 40
0.265625
 40
0.28125
 40
0.296875
 40
0.3125
 40
0.328125
 40
0.34375
 40
0.359375
 40
0.375
 40
0.390625
 40
0.40625
 40
0.421875
 40
0.4375
 40
0.453125
 40
0.46875
 40
0.484375
 40
0.5
 40
0.515625
 40
0.53125
 40
0.546875
 40
0.5625
 40
0.578125
 40
0.59375
 40
0.609375
 40
0.625
 40
0.640625
 40
0.65625
 40
0.671875
 40
0.6875
 40
0.703125
 40
0.71875
 40
0.734375
 40
0.75
 40
0.765625
 40
0.78125
 40
0.796875
 40
0.8125
 40
0.828125
 40
0.84375
 40
0.859375
 40
0.875
 40
0.890625
 40
0.90625
 40
0.921875
 40
0.9375
 40
0.953125
 40
0.96875
 40
0.984375
 40
1.0
 40
1.0
 40
1.0
 40
1.0
 10
-72.619710885602
 20
-34.84893714243029
 30
0.0
 10
-74.61407150154723
 20
-34.79076370455741
 30
0.0
 10
-78.60963691037404
 20
-34.27872615070766
 30
0.0
 10
-86.17870053241315
 20
-31.73546363656063
 30
0.0
 10
-94.36544960030865
 20
-25.89896451058779
 30
0.0
 10
-100.6831462221124
 20
-15.77376392548711
 30
0.0
 10
-102.6214359518267
 20
-4.128445216196952
 30
0.0
 10
-99.98002294795344
 20
7.245874996665914
 30
0.0
 10
-93.25830622025286
 20
16.63617282391312
 30
0.0
 10
-83.56162201583413
 20
22.66749319267927
 30
0.0
 10
-72.42126912102485
 20
24.50341886802058
 30
0.0
 10
-61.55279285165198
 20
21.96110366157463
 30
0.0
 10
-52.59189417875063
 20
15.52436073811142
 30
0.0
 10
-46.84827499491593
 20
6.255290805259273
 30
0.0
 10
-45.11454839912907
 20
-4.379918991782367
 30
0.0
 10
-47.5580179880607
 20
-14.74258524256523
 30
0.0
 10
-53.70991385874528
 20
-23.27398005252589
 30
0.0
 10
-62.55148427153008
 20
-28.72975704645438
 30
0.0
 10
-72.68159598588949
 20
-30.36110072711174
 30
0.0
 10
-82.5384249011883
 20
-28.0162827414967
 30
0.0
 10
-90.64021170659159
 20
-22.14905787555231
 30
0.0
 10
-95.80797632995767
 20
-13.73485895776264
 30
0.0
 10
-97.33672208759579
 20
-4.109789730322733
 30
0.0
 10
-95.09032627424537
 20
5.241169773357012
 30
0.0
 10
-89.50756386486181
 20
12.91322616049379
 30
0.0
 10
-81.52058396032618
 20
17.79277705245183
 30
0.0
 10
-72.40049030270059
 20
19.21866952021069
 30
0.0
 10
-63.55543751932771
 20
17.07042231553839
 30
0.0
 10
-56.31325696440771
 20
11.77187266227645
 30
0.0
 10
-51.7221604132749
 20
4.211928219740185
 30
0.0
 10
-50.39942775890696
 20
-4.403271388949294
 30
0.0
 10
-52.44985614891534
 20
-12.74237373859812
 30
0.0
 10
-57.46449549125069
 20
-19.55450389857295
 30
0.0
 10
-64.59762813912323
 20
-23.85685533093577
 30
0.0
 10
-72.7080343678349
 20
-25.07605583652375
 30
0.0
 10
-80.54113466384598
 20
-23.12304368128672
 30
0.0
 10
-86.92300236485063
 20
-18.39194347703939
 30
0.0
 10
-90.93625272548567
 20
-11.68534624691783
 30
0.0
 10
-92.05146262084871
 20
-4.079607136712866
 30
0.0
 10
-90.19536819757585
 20
3.247429636981293
 30
0.0
 10
-85.74734469753557
 20
9.198773735599298
 30
0.0
 10
-79.46693585073366
 20
12.92248081656794
 30
0.0
 10
-72.36570262926075
 20
13.93312669598575
 30
0.0
 10
-65.54480322403982
 20
12.17332244683171
 30
0.0
 10
-60.0243093767371
 20
8.007789363265658
 30
0.0
 10
-56.59070440743999
 20
2.153124925490353
 30
0.0
 10
-55.68535288542371
 20
-4.443812654688106
 30
0.0
 10
-57.34967237656771
 20
-10.75848516497169
 30
0.0
 10
-61.23347375337408
 20
-15.84771266800438
 30
0.0
 10
-66.66297442034838
 20
-18.99049501182485
 30
0.0
 10
-72.75589741565165
 20
-19.78960176751059
 30
0.0
 10
-78.56423352844428
 20
-18.219709452718
 30
0.0
 10
-83.221653147382
 20
-14.61663369399225
 30
0.0
 10
-86.07266145806074
 20
-9.611517168607751
 30
0.0
 10
-86.76425446383618
 20
-4.022221686204072
 30
0.0
 10
-85.28736190193659
 20
1.279643080353427
 30
0.0
 10
-81.9636376062174
 20
5.504531608334549
 30
0.0
 10
-77.38182451687149
 20
8.062472760451806
 30
0.0
 10
-72.29560301492077
 20
8.644803663706934
 30
0.0
 10
-67.5003791693001
 20
7.258918313867104
 30
0.0
 10
-63.70900860881144
 20
4.212598024484586
 30
0.0
 10
-61.44599307501755
 20
0.052532742318406
 30
0.0
 10
-60.97529171493765
 20
-4.531455180546012
 30
0.0
 10
-62.27358491495367
 20
-8.819779809765254
 30
0.0
 10
-65.0434769263229
 20
-12.17640124750693
 30
0.0
 10
-68.79129619777939
 20
-14.14106629490489
 30
0.0
 10
-71.49558648108443
 20
-14.37977054492623
 30
0.0
 10
-72.81841834899973
 20
-14.23520301987426
 30
0.0
  0
SPLINE
  5
7B
330
1F
100
AcDbEntity
  8
0
  6
Continuous
 62
     7
370
    25
100
AcDbSpline
210
0.0
220
0.0
230
1.0
 70
     8
 71
     2
 72
     6
 73
     3
 74
     0
 42
0.000000001
 43
0.00000001
 40
0.2956650300531148
 40
0.2956650300531148
 40
0.2956650300531148
 40
1.0
 40
1.0
 40
1.0
 10
-48.27503036977291
 20
-34.34734590317626
 30
0.0
 10
-60.44842553868793
 20
-35.20389534678166
 30
0.0
 10
-72.61971088560199
 20
-34.84893714243029
 30
0.0
  0
ARC
  5
7C
330
1F
100
AcDbEntity
  8
0
  6
Continuous
 62
     7
370
    25
100
AcDbCircle
 10
-47.2221971949
 20
-49.3103516943
 30
0.0
 40
15.0
100
AcDbArc
 50
42.177154456
 51
94.0248358327
  0
SPLINE
  5
7D
330
1F
100
AcDbEntity
  8
0
  6
Continuous
 62
     7
370
    25
100
AcDbSpline
210
0.0
220
0.0
230
1.0
 70
     8
 71
     3
 72
    17
 73
    13
 74
     0
 42
0.000000001
 43
0.00000001
 40
0.3835946105000721
 40
0.3835946105000721
 40
0.3835946105000721
 40
0.3835946105000721
 40
0.390625
 40
0.40625
 40
0.4375
 40
0.46875
 40
0.5
 40
0.53125
 40
0.5625
 40
0.59375
 40
0.609375
 40
0.6164053894999281
 40
0.6164053894999281
 40
0.6164053894999281
 40
0.6164053894999281
 10
-36.10611160712787
 20
-39.23897437013834
 30
0.0
 10
-35.54996022193856
 20
-39.85281557561679
 30
0.0
 10
-33.69368015420378
 20
-41.77127791241985
 30
0.0
 10
-28.83799810596907
 20
-45.90072355415408
 30
0.0
 10
-20.85268330359554
 20
-50.5842754977924
 30
0.0
 10
-10.66179396627753
 20
-54.14433565675138
 30
0.0
 10
-0.0000000000000338
 20
-55.42783217162431
 30
0.0
 10
10.66179396627748
 20
-54.1443356567514
 30
0.0
 10
20.85268330359549
 20
-50.58427549779243
 30
0.0
 10
28.83799810596902
 20
-45.9007235541541
 30
0.0
 10
33.69368015420375
 20
-41.7712779124199
 30
0.0
 10
35.54996022193856
 20
-39.85281557561682
 30
0.0
 10
36.10611160712788
 20
-39.23897437013836
 30
0.0
  0
ARC
  5
7E
330
1F
100
AcDbEntity
  8
0
  6
Continuous
 62
     7
370
    25
100
AcDbCircle
 10
47.2221971949
 20
-49.3103516943
 30
0.0
 40
15.0
100
AcDbArc
 50
85.9751641673
 51
137.822845544
  0
SPLINE
  5
7F
330
1F
100
AcDbEntity
  8
0
  6
Continuous
 62
     7
370
    25
100
AcDbSpline
210
0.0
220
0.0
230
1.0
 70
     8
 71
     2
 72
     6
 73
     3
 74
     0
 42
0.000000001
 43
0.00000001
 40
0.2956650300531141
 40
0.2956650300531141
 40
0.2956650300531141
 40
1.0
 40
1.0
 40
1.0
 10
48.27503036977289
 20
-34.34734590317626
 30
0.0
 10
60.44842553868791
 20
-35.20389534678166
 30
0.0
 10
72.61971088560199
 20
-34.84893714243029
 30
0.0
  0
SPLINE
  5
80
330
1F
100
AcDbEntity
  8
0
  6
Continuous
 62
     7
370
    25
100
AcDbSpline
210
0.0
220
0.0
230
1.0
 70
     8
 71
     3
 72
    72
 73
    68
 74
     0
 42
0.000000001
 43
0.00000001
 40
0.0
 40
0.0
 40
0.0
 40
0.0
 40
0.0078125
 40
0.015625
 40
0.03125
 40
0.046875
 40
0.0625
 40
0.078125
 40
0.09375
 40
0.109375
 40
0.125
 40
0.140625
 40
0.15625
 40
0.171875
 40
0.1875
 40
0.203125
 40
0.21875
 40
0.234375
 40
0.25
 40
0.265625
 40
0.28125
 40
0.296875
 40
0.3125
 40
0.328125
 40
0.34375
 40
0.359375
 40
0.375
 40
0.390625
 40
0.40625
 40
0.421875
 40
0.4375
 40
0.453125
 40
0.46875
 40
0.484375
 40
0.5
 40
0.515625
 40
0.53125
 40
0.546875
 40
0.5625
 40
0.578125
 40
0.59375
 40
0.609375
 40
0.625
 40
0.640625
 40
0.65625
 40
0.671875
 40
0.6875
 40
0.703125
 40
0.71875
 40
0.734375
 40
0.75
 40
0.765625
 40
0.78125
 40
0.796875
 40
0.8125
 40
0.828125
 40
0.84375
 40
0.859375
 40
0.875
 40
0.890625
 40
0.90625
 40
0.921875
 40
0.9375
 40
0.953125
 40
0.96875
 40
0.984375
 40
1.0
 40
1.0
 40
1.0
 40
1.0
 10
72.619710885602
 20
-34.84893714243029
 30
0.0
 10
74.61407150154723
 20
-34.79076370455741
 30
0.0
 10
78.60963691037404
 20
-34.27872615070766
 30
0.0
 10
86.17870053241315
 20
-31.73546363656063
 30
0.0
 10
94.36544960030865
 20
-25.89896451058779
 30
0.0
 10
100.6831462221124
 20
-15.77376392548711
 30
0.0
 10
102.6214359518267
 20
-4.128445216196952
 30
0.0
 10
99.98002294795344
 20
7.245874996665914
 30
0.0
 10
93.25830622025286
 20
16.63617282391312
 30
0.0
 10
83.56162201583413
 20
22.66749319267927
 30
0.0
 10
72.42126912102485
 20
24.50341886802058
 30
0.0
 10
61.55279285165198
 20
21.96110366157463
 30
0.0
 10
52.59189417875063
 20
15.52436073811142
 30
0.0
 10
46.84827499491593
 20
6.255290805259273
 30
0.0
 10
45.11454839912907
 20
-4.379918991782367
 30
0.0
 10
47.5580179880607
 20
-14.74258524256523
 30
0.0
 10
53.70991385874528
 20
-23.27398005252589
 30
0.0
 10
62.55148427153008
 20
-28.72975704645438
 30
0.0
 10
72.68159598588949
 20
-30.36110072711174
 30
0.0
 10
82.5384249011883
 20
-28.0162827414967
 30
0.0
 10
90.64021170659159
 20
-22.14905787555231
 30
0.0
 10
95.80797632995767
 20
-13.73485895776264
 30
0.0
 10
97.33672208759579
 20
-4.109789730322733
 30
0.0
 10
95.09032627424537
 20
5.241169773357012
 30
0.0
 10
89.50756386486181
 20
12.91322616049379
 30
0.0
 10
81.52058396032618
 20
17.79277705245183
 30
0.0
 10
72.40049030270059
 20
19.21866952021069
 30
0.0
 10
63.55543751932771
 20
17.07042231553839
 30
0.0
 10
56.31325696440771
 20
11.77187266227645
 30
0.0
 10
51.7221604132749
 20
4.211928219740185
 30
0.0
 10
50.39942775890696
 20
-4.403271388949294
 30
0.0
 10
52.44985614891534
 20
-12.74237373859812
 30
0.0
 10
57.46449549125069
 20
-19.55450389857295
 30
0.0
 10
64.59762813912323
 20
-23.85685533093577
 30
0.0
 10
72.7080343678349
 20
-25.07605583652375
 30
0.0
 10
80.54113466384598
 20
-23.12304368128672
 30
0.0
 10
86.92300236485063
 20
-18.39194347703939
 30
0.0
 10
90.93625272548567
 20
-11.68534624691783
 30
0.0
 10
92.05146262084871
 20
-4.079607136712866
 30
0.0
 10
90.19536819757585
 20
3.247429636981293
 30
0.0
 10
85.74734469753557
 20
9.198773735599298
 30
0.0
 10
79.46693585073366
 20
12.92248081656794
 30
0.0
 10
72.36570262926075
 20
13.93312669598575
 30
0.0
 10
65.54480322403982
 20
12.17332244683171
 30
0.0
 10
60.0243093767371
 20
8.007789363265658
 30
0.0
 10
56.59070440743999
 20
2.153124925490353
 30
0.0
 10
55.68535288542371
 20
-4.443812654688106
 30
0.0
 10
57.34967237656771
 20
-10.75848516497169
 30
0.0
 10
61.23347375337408
 20
-15.84771266800438
 30
0.0
 10
66.66297442034838
 20
-18.99049501182485
 30
0.0
 10
72.75589741565165
 20
-19.78960176751059
 30
0.0
 10
78.56423352844428
 20
-18.219709452718
 30
0.0
 10
83.221653147382
 20
-14.61663369399225
 30
0.0
 10
86.07266145806074
 20
-9.611517168607751
 30
0.0
 10
86.76425446383618
 20
-4.022221686204072
 30
0.0
 10
85.28736190193659
 20
1.279643080353427
 30
0.0
 10
81.9636376062174
 20
5.504531608334549
 30
0.0
 10
77.38182451687149
 20
8.062472760451806
 30
0.0
 10
72.29560301492077
 20
8.644803663706934
 30
0.0
 10
67.5003791693001
 20
7.258918313867104
 30
0.0
 10
63.70900860881144
 20
4.212598024484586
 30
0.0
 10
61.44599307501755
 20
0.052532742318406
 30
0.0
 10
60.97529171493765
 20
-4.531455180546012
 30
0.0
 10
62.27358491495367
 20
-8.819779809765254
 30
0.0
 10
65.0434769263229
 20
-12.17640124750693
 30
0.0
 10
68.79129619777939
 20
-14.14106629490489
 30
0.0
 10
71.49558648108443
 20
-14.37977054492623
 30
0.0
 10
72.81841834899973
 20
-14.23520301987426
 30
0.0
  0
LINE
  5
81
330
1F
100
AcDbEntity
  8
0
  6
Continuous
 62
     7
370
    25
100
AcDbLine
 10
72.818418349
 20
-14.2352030199
 30
0.0
 11
72.2752205949
 21
-9.2647969801
 31
0.0
  0
SPLINE
  5
82
330
1F
100
AcDbEntity
  8
0
  6
Continuous
 62
     7
370
    25
100
AcDbSpline
210
0.0
220
0.0
230
1.0
 70
     8
 71
     3
 72
    72
 73
    68
 74
     0
 42
0.000000001
 43
0.00000001
 40
0.0
 40
0.0
 40
0.0
 40
0.0
 40
0.0078125
 40
0.015625
 40
0.03125
 40
0.046875
 40
0.0625
 40
0.078125
 40
0.09375
 40
0.109375
 40
0.125
 40
0.140625
 40
0.15625
 40
0.171875
 40
0.1875
 40
0.203125
 40
0.21875
 40
0.234375
 40
0.25
 40
0.265625
 40
0.28125
 40
0.296875
 40
0.3125
 40
0.328125
 40
0.34375
 40
0.359375
 40
0.375
 40
0.390625
 40
0.40625
 40
0.421875
 40
0.4375
 40
0.453125
 40
0.46875
 40
0.484375
 40
0.5
 40
0.515625
 40
0.53125
 40
0.546875
 40
0.5625
 40
0.578125
 40
0.59375
 40
0.609375
 40
0.625
 40
0.640625
 40
0.65625
 40
0.671875
 40
0.6875
 40
0.703125
 40
0.71875
 40
0.734375
 40
0.75
 40
0.765625
 40
0.78125
 40
0.796875
 40
0.8125
 40
0.828125
 40
0.84375
 40
0.859375
 40
0.875
 40
0.890625
 40
0.90625
 40
0.921875
 40
0.9375
 40
0.953125
 40
0.96875
 40
0.984375
 40
1.0
 40
1.0
 40
1.0
 40
1.0
 10
72.4739280583228
 20
-29.85106285756973
 30
0.0
 10
74.14142544837615
 20
-29.80242368216289
 30
0.0
 10
77.48337173180425
 20
-29.37410353365808
 30
0.0
 10
83.80462510750664
 20
-27.24955314042445
 30
0.0
 10
90.63100717838866
 20
-22.38097024592174
 30
0.0
 10
95.88616764592061
 20
-13.95447059883327
 30
0.0
 10
97.49340974072393
 20
-4.285191050992127
 30
0.0
 10
95.30311407736069
 20
5.1369045964081
 30
0.0
 10
89.7458885406727
 20
12.89662467693383
 30
0.0
 10
81.74950254080835
 20
17.86774417296105
 30
0.0
 10
72.58592164597133
 20
19.37561967110141
 30
0.0
 10
63.66915318727651
 20
17.28750481629748
 30
0.0
 10
56.33714398617881
 20
12.01798292516375
 30
0.0
 10
51.65105277721904
 20
4.451133256547228
 30
0.0
 10
50.24208928572135
 20
-4.206529857813823
 30
0.0
 10
52.22793716395152
 20
-12.61804342084643
 30
0.0
 10
57.20958417531767
 20
-19.52241799009826
 30
0.0
 10
64.3467946803057
 20
-23.92362954307102
 30
0.0
 10
72.49849180538733
 20
-25.23386282009199
 30
0.0
 10
80.40477864540523
 20
-23.35047648016347
 30
0.0
 10
86.88162249512996
 20
-18.6568802498926
 30
0.0
 10
90.99812463421172
 20
-11.94943697291686
 30
0.0
 10
92.20984268818324
 20
-4.303761422343385
 30
0.0
 10
90.42914732201903
 20
3.097330767972592
 30
0.0
 10
86.0238104198414
 20
9.146766312635076
 30
0.0
 10
79.74628685293497
 20
12.97876039846925
 30
0.0
 10
72.60669979389078
 20
14.09221859630526
 30
0.0
 10
65.71076494461148
 20
12.41448776747761
 30
0.0
 10
60.08859229105457
 20
8.29765989383572
 30
0.0
 10
56.54086564905285
 20
2.450239588252823
 30
0.0
 10
55.52536078384006
 20
-4.183177458383911
 30
0.0
 10
57.09979728131726
 20
-10.57399868004376
 30
0.0
 10
60.92781368122788
 20
-15.76908300522321
 30
0.0
 10
66.34490705815236
 20
-19.03283298133766
 30
0.0
 10
72.47205342342339
 20
-19.95075684931602
 30
0.0
 10
78.3578126373775
 20
-18.4800172630817
 30
0.0
 10
83.12602069820474
 20
-14.94118350974015
 30
0.0
 10
86.1061499613891
 20
-9.954693438387396
 30
0.0
 10
86.92695129357774
 20
-4.333944015953143
 30
0.0
 10
85.56040712139347
 20
1.046814658974284
 30
0.0
 10
82.31121844850234
 20
5.388407598865272
 30
0.0
 10
77.7556787171523
 20
8.085358357058348
 30
0.0
 10
72.64148746732985
 20
8.80961055917776
 30
0.0
 10
67.76565548527282
 20
7.547889358888826
 30
0.0
 10
63.85035101738914
 20
4.588932054180871
 30
0.0
 10
61.43601993218234
 20
0.4647866371269163
 30
0.0
 10
60.80758651867564
 20
-4.1426361926467
 30
0.0
 10
61.96367933096126
 20
-8.513631008297267
 30
0.0
 10
64.63164655776832
 20
-12.00306309712862
 30
0.0
 10
68.32381702231268
 20
-14.13549502315309
 30
0.0
 10
72.42419037557329
 20
-14.66906005698064
 30
0.0
 10
76.29045752753768
 20
-13.61965321433972
 30
0.0
 10
79.35455877651984
 20
-11.24368215417681
 30
0.0
 10
81.20604295334759
 20
-7.984266271114282
 30
0.0
 10
81.64600858241536
 20
-4.391329467233589
 30
0.0
 10
80.70471516519903
 20
-1.029655026885062
 30
0.0
 10
78.62211430612909
 20
1.609838576696119
 30
0.0
 10
75.79653416027902
 20
3.181668176074727
 30
0.0
 10
72.71158575813243
 20
3.529782580094937
 30
0.0
 10
69.85434072488846
 20
2.698595774399271
 30
0.0
 10
67.63844448950296
 20
0.9113101649389546
 30
0.0
 10
66.34449834029941
 20
-1.478869627489859
 30
0.0
 10
66.08554179138993
 20
-4.055022767781331
 30
0.0
 10
66.80442330796807
 20
-6.407971511752727
 30
0.0
 10
68.29087833022128
 20
-8.201968703481642
 30
0.0
 10
70.25309802521575
 20
-9.21971277107796
 30
0.0
 10
71.60606348968471
 20
-9.337926747348568
 30
0.0
 10
72.27522059492517
 20
-9.26479698012576
 30
0.0
  0
SPLINE
  5
83
330
1F
100
AcDbEntity
  8
0
  6
Continuous
 62
     7
370
    25
100
AcDbSpline
210
0.0
220
0.0
230
1.0
 70
     8
 71
     2
 72
     6
 73
     3
 74
     0
 42
0.000000001
 43
0.00000001
 40
0.3810796532313174
 40
0.3810796532313174
 40
0.3810796532313174
 40
1.0
 40
1.0
 40
1.0
 10
51.51832812786425
 20
-29.54572309928245
 30
0.0
 10
61.99817884699323
 20
-30.15668728773009
 30
0.0
 10
72.47392805832281
 20
-29.85106285756973
 30
0.0
  0
ARC
  5
84
330
1F
100
AcDbEntity
  8
0
  6
Continuous
 62
     7
370
    25
100
AcDbCircle
 10
51.9548290249
 20
-22.0584360761
 30
0.0
 40
7.500000000000025
100
AcDbArc
 50
171.7647449114
 51
266.6634933694
  0
SPLINE
  5
85
330
1F
100
AcDbEntity
  8
0
  6
Continuous
 62
     7
370
    25
100
AcDbSpline
210
0.0
220
0.0
230
1.0
 70
     8
 71
     3
 72
    14
 73
    10
 74
     0
 42
0.000000001
 43
0.00000001
 40
0.674644778129531
 40
0.674644778129531
 40
0.674644778129531
 40
0.674644778129531
 40
0.6875
 40
0.703125
 40
0.71875
 40
0.734375
 40
0.75
 40
0.78125
 40
0.7841840220840722
 40
0.7841840220840722
 40
0.7841840220840722
 40
0.7841840220840722
 10
44.53216691380647
 20
-20.98415157730518
 30
0.0
 10
44.7426615454524
 20
-19.52975981367149
 30
0.0
 10
45.04802817784584
 20
-16.29148393448085
 30
0.0
 10
45.07855992246309
 20
-11.26966355863387
 30
0.0
 10
44.74107427082427
 20
-5.96538499750954
 30
0.0
 10
44.1567791230926
 20
-0.7511374661218245
 30
0.0
 10
43.23750199480701
 20
6.056921770849323
 30
0.0
 10
42.16582243492115
 20
11.58124835996293
 30
0.0
 10
40.99501320664534
 20
15.28291220216956
 30
0.0
 10
40.89111210958693
 20
15.59987549744463
 30
0.0
  0
ARC
  5
86
330
1F
100
AcDbEntity
  8
0
  6
Continuous
 62
     7
370
    25
100
AcDbCircle
 10
48.0179754031
 20
17.9360731765
 30
0.0
 40
7.500000000000037
100
AcDbArc
 50
103.0937439286
 51
198.1492300957
  0
SPLINE
  5
87
330
1F
100
AcDbEntity
  8
0
  6
Continuous
 62
     7
370
    25
100
AcDbSpline
210
0.0
220
0.0
230
1.0
 70
     8
 71
     2
 72
     6
 73
     3
 74
     0
 42
0.000000001
 43
0.00000001
 40
0.0
 40
0.0
 40
0.0
 40
0.6345891015830762
 40
0.6345891015830762
 40
0.6345891015830762
 10
65.06677713999176
 20
27.82589199641663
 30
0.0
 10
56.49089033661634
 20
27.60700675246017
 30
0.0
 10
46.31888821372855
 20
25.24107849636268
 30
0.0
  0
SPLINE
  5
88
330
1F
100
AcDbEntity
  8
0
  6
Continuous
 62
     7
370
    25
100
AcDbSpline
210
0.0
220
0.0
230
1.0
 70
     8
 71
     3
 72
    72
 73
    68
 74
     0
 42
0.000000001
 43
0.00000001
 40
0.0
 40
0.0
 40
0.0
 40
0.0
 40
0.015625
 40
0.03125
 40
0.046875
 40
0.0625
 40
0.078125
 40
0.09375
 40
0.109375
 40
0.125
 40
0.140625
 40
0.15625
 40
0.171875
 40
0.1875
 40
0.203125
 40
0.21875
 40
0.234375
 40
0.25
 40
0.265625
 40
0.28125
 40
0.296875
 40
0.3125
 40
0.328125
 40
0.34375
 40
0.359375
 40
0.375
 40
0.390625
 40
0.40625
 40
0.421875
 40
0.4375
 40
0.453125
 40
0.46875
 40
0.484375
 40
0.5
 40
0.515625
 40
0.53125
 40
0.546875
 40
0.5625
 40
0.578125
 40
0.59375
 40
0.609375
 40
0.625
 40
0.640625
 40
0.65625
 40
0.671875
 40
0.6875
 40
0.703125
 40
0.71875
 40
0.734375
 40
0.75
 40
0.765625
 40
0.78125
 40
0.796875
 40
0.8125
 40
0.828125
 40
0.84375
 40
0.859375
 40
0.875
 40
0.890625
 40
0.90625
 40
0.921875
 40
0.9375
 40
0.953125
 40
0.96875
 40
0.984375
 40
0.9921875
 40
1.0
 40
1.0
 40
1.0
 40
1.0
 10
64.72840112296267
 20
70.98520301987425
 30
0.0
 10
66.21686898113342
 20
71.14787230506033
 30
0.0
 10
69.27329841221457
 20
70.80327850544101
 30
0.0
 10
73.35978449658592
 20
68.26204289126538
 30
0.0
 10
76.02629772312117
 20
64.07178221495334
 30
0.0
 10
76.64733936329236
 20
58.97957977440761
 30
0.0
 10
74.96069592521906
 20
53.96315563768032
 30
0.0
 10
71.16498047178472
 20
50.04557709760455
 30
0.0
 10
65.90002297819444
 20
48.08687425792538
 30
0.0
 10
60.14247002358656
 20
48.59857214980514
 30
0.0
 10
55.02447507061468
 20
51.61961082900402
 30
0.0
 10
51.61138589580969
 20
56.68268381957049
 30
0.0
 10
50.68141559365279
 20
62.88239730999464
 30
0.0
 10
52.55276785248324
 20
69.03631989365205
 30
0.0
 10
56.99584347019827
 20
73.91045868955933
 30
0.0
 10
63.2525050744221
 20
76.4661848536311
 30
0.0
 10
70.16345444843286
 20
76.07929767489371
 30
0.0
 10
76.38275826867776
 20
72.68541375648462
 30
0.0
 10
80.6398874982111
 20
66.81887814798864
 30
0.0
 10
81.9982755936672
 20
59.53263949412735
 30
0.0
 10
80.05795966751396
 20
52.2101633531693
 30
0.0
 10
75.0590290614055
 20
46.30279145785897
 30
0.0
 10
67.8609115955905
 20
43.04239456626938
 30
0.0
 10
59.79660709580602
 20
43.18614873511076
 30
0.0
 10
52.42616220471756
 20
46.84601917328646
 30
0.0
 10
47.2349099315967
 20
53.44050828361237
 30
0.0
 10
45.33483479198833
 20
61.78306254544061
 30
0.0
 10
47.22897674960338
 20
70.29462294788777
 30
0.0
 10
52.68834324933268
 20
77.30244070443835
 30
0.0
 10
60.77004483829869
 20
81.36862631836897
 30
0.0
 10
69.97812777737197
 20
81.58393820975091
 30
0.0
 10
78.5401010457663
 20
77.76700810279902
 30
0.0
 10
84.74811912904494
 20
70.52602428461523
 30
0.0
 10
87.29915039847103
 20
61.16587648481755
 30
0.0
 10
85.56646851102664
 20
51.45400085078553
 30
0.0
 10
79.74625344687276
 20
43.28673747312774
 30
0.0
 10
70.84611484151948
 20
38.3191630021925
 30
0.0
 10
60.51271532875971
 20
37.63063325713058
 30
0.0
 10
50.72754317331501
 20
41.49345140105505
 30
0.0
 10
43.42695459043643
 20
49.29370047557265
 30
0.0
 10
40.11934233572011
 20
59.62459981660427
 30
0.0
 10
41.57505362313962
 20
70.5391663677459
 30
0.0
 10
47.65252088947364
 20
79.91701814932546
 30
0.0
 10
57.29897077580888
 20
85.87624167731114
 30
0.0
 10
68.73065616176139
 20
87.15033356445943
 30
0.0
 10
79.76221082159775
 20
83.35484756280687
 30
0.0
 10
88.22441072074206
 20
75.08804492677871
 30
0.0
 10
92.3904838741557
 20
63.84107216430991
 30
0.0
 10
91.32723346160631
 20
51.73010456590124
 30
0.0
 10
85.09980020304481
 20
41.09834299445266
 30
0.0
 10
74.78583799642502
 20
34.06268603701523
 30
0.0
 10
62.291258998376
 20
32.09277472012142
 30
0.0
 10
49.99857582520194
 20
35.70601809964173
 30
0.0
 10
40.31261780895873
 20
44.34153189733155
 30
0.0
 10
35.19023669835145
 20
56.44232312816469
 30
0.0
 10
35.74594252638846
 20
69.73483761230432
 30
0.0
 10
42.01276651994954
 20
81.65592161437391
 30
0.0
 10
52.90909614869646
 20
89.84705488217962
 30
0.0
 10
66.42299013947735
 20
92.62056605417499
 30
0.0
 10
79.98310387818
 20
89.305719867675
 30
0.0
 10
90.94782771323746
 20
80.40410190091637
 30
0.0
 10
97.12008655123947
 20
67.51895534290419
 30
0.0
 10
97.18568079841356
 20
53.06862254546859
 30
0.0
 10
90.99462292755864
 20
39.82939844766327
 30
0.0
 10
81.49957556879322
 20
31.9842321827801
 30
0.0
 10
72.3718825527818
 20
28.56414931056724
 30
0.0
 10
67.49793679261471
 20
27.89085352998557
 30
0.0
 10
65.06677713999176
 20
27.82589199641663
 30
0.0
  0
LINE
  5
89
330
1F
100
AcDbEntity
  8
0
  6
Continuous
 62
     7
370
    25
100
AcDbLine
 10
64.728401123
 20
70.9852030199
 30
0.0
 11
65.271598877
 21
66.0147969801
 31
0.0
  0
SPLINE
  5
8A
330
1F
100
AcDbEntity
  8
0
  6
Continuous
 62
     7
370
    25
100
AcDbSpline
210
0.0
220
0.0
230
1.0
 70
     8
 71
     3
 72
    72
 73
    68
 74
     0
 42
0.000000001
 43
0.00000001
 40
0.0
 40
0.0
 40
0.0
 40
0.0
 40
0.015625
 40
0.03125
 40
0.046875
 40
0.0625
 40
0.078125
 40
0.09375
 40
0.109375
 40
0.125
 40
0.140625
 40
0.15625
 40
0.171875
 40
0.1875
 40
0.203125
 40
0.21875
 40
0.234375
 40
0.25
 40
0.265625
 40
0.28125
 40
0.296875
 40
0.3125
 40
0.328125
 40
0.34375
 40
0.359375
 40
0.375
 40
0.390625
 40
0.40625
 40
0.421875
 40
0.4375
 40
0.453125
 40
0.46875
 40
0.484375
 40
0.5
 40
0.515625
 40
0.53125
 40
0.546875
 40
0.5625
 40
0.578125
 40
0.59375
 40
0.609375
 40
0.625
 40
0.640625
 40
0.65625
 40
0.671875
 40
0.6875
 40
0.703125
 40
0.71875
 40
0.734375
 40
0.75
 40
0.765625
 40
0.78125
 40
0.796875
 40
0.8125
 40
0.828125
 40
0.84375
 40
0.859375
 40
0.875
 40
0.890625
 40
0.90625
 40
0.921875
 40
0.9375
 40
0.953125
 40
0.96875
 40
0.984375
 40
0.9921875
 40
1.0
 40
1.0
 40
1.0
 40
1.0
 10
65.27159887703725
 20
66.01479698012577
 30
0.0
 10
66.02601045140037
 20
66.09724390087324
 30
0.0
 10
67.55639060154087
 20
65.92645455678579
 30
0.0
 10
69.70980370711501
 20
64.60336943842618
 30
0.0
 10
71.15454522222068
 20
62.34550511396775
 30
0.0
 10
71.50778022883844
 20
59.5215492104703
 30
0.0
 10
70.55593215221549
 20
56.66599845289555
 30
0.0
 10
68.35300409279137
 20
54.38124198063661
 30
0.0
 10
65.2273137983451
 20
53.21044058325204
 30
0.0
 10
61.73878964535722
 20
53.51320968323851
 30
0.0
 10
58.5786077466262
 20
55.37042682270321
 30
0.0
 10
56.43244420229551
 20
58.54187611546829
 30
0.0
 10
55.83350295467568
 20
62.48992797891275
 30
0.0
 10
57.03675037124726
 20
66.46904912925493
 30
0.0
 10
59.94295638281769
 20
69.66657623967905
 30
0.0
 10
64.09234826423466
 20
71.36816636487184
 30
0.0
 10
68.73397824301978
 20
71.11432877900168
 30
0.0
 10
72.96111979817222
 20
68.8142430120142
 30
0.0
 10
75.88837681171407
 20
64.79007759291075
 30
0.0
 10
76.83590929384056
 20
59.73812632724717
 30
0.0
 10
75.48265726014826
 20
54.60980309919314
 30
0.0
 10
71.95477140266118
 20
50.43252540202022
 30
0.0
 10
66.82711615561232
 20
48.10420044046007
 30
0.0
 10
61.03260919672623
 20
48.20236635868095
 30
0.0
 10
55.69301591514829
 20
50.84818957146611
 30
0.0
 10
51.90178437755924
 20
55.65626406307182
 30
0.0
 10
50.50096517873973
 20
61.78503195742878
 30
0.0
 10
51.8975784800746
 20
68.08267684842997
 30
0.0
 10
55.95891122616484
 20
73.30349137947198
 30
0.0
 10
62.01195450629549
 20
76.35409200212257
 30
0.0
 10
68.95209577049333
 20
76.52085074572184
 30
0.0
 10
75.4441411860535
 20
73.63150950933989
 30
0.0
 10
80.17919599830124
 20
68.11521668284175
 30
0.0
 10
82.13797847496913
 20
60.94427569150933
 30
0.0
 10
80.80770086786596
 20
53.46414947645984
 30
0.0
 10
76.3068037293208
 20
47.1411543994457
 30
0.0
 10
69.3885429476885
 20
43.27513086628437
 30
0.0
 10
61.31768098402431
 20
42.73337406249006
 30
0.0
 10
53.63986186901383
 20
45.76008282061542
 30
0.0
 10
47.88560506321872
 20
51.90253159929311
 30
0.0
 10
45.26560744441209
 20
60.07331829432433
 30
0.0
 10
46.41793969334191
 20
68.74147765876359
 30
0.0
 10
51.2595868938314
 20
76.21916063451533
 30
0.0
 10
58.97582447792058
 20
80.99023210540915
 30
0.0
 10
68.1545733485501
 20
82.01682444639177
 30
0.0
 10
77.04417847001882
 20
78.96201780652169
 30
0.0
 10
83.88767981362933
 20
72.28139387945886
 30
0.0
 10
87.2697878756432
 20
63.16072284702867
 30
0.0
 10
86.40809150574135
 20
53.30691404623808
 30
0.0
 10
81.32884424404816
 20
44.62879126014582
 30
0.0
 10
72.88866644063489
 20
38.8673511396843
 30
0.0
 10
62.63285847394977
 20
37.2471198607242
 30
0.0
 10
52.51315196436758
 20
40.2183093688891
 30
0.0
 10
44.51631547107148
 20
47.34364736493911
 30
0.0
 10
40.27428169989663
 20
57.35674491771606
 30
0.0
 10
40.73226887057405
 20
68.38571070747703
 30
0.0
 10
45.9421799370384
 20
78.30283039165856
 30
0.0
 10
55.02577506527056
 20
85.13503836423878
 30
0.0
 10
66.31983991166376
 20
87.4560026225981
 30
0.0
 10
77.68001497299974
 20
84.68197094239797
 30
0.0
 10
86.88780885861128
 20
77.21044262471918
 30
0.0
 10
92.08400201502265
 20
66.36959155788954
 30
0.0
 10
92.1421159261087
 20
54.18447920032064
 30
0.0
 10
86.91333911931238
 20
42.99611788495789
 30
0.0
 10
78.87471727198958
 20
36.35163650455456
 30
0.0
 10
71.13538262431977
 20
33.45101237397522
 30
0.0
 10
66.99684372619868
 20
32.87924875751454
 30
0.0
 10
64.93322286000688
 20
32.82410800358336
 30
0.0
  0
SPLINE
  5
8B
330
1F
100
AcDbEntity
  8
0
  6
Continuous
 62
     7
370
    25
100
AcDbSpline
210
0.0
220
0.0
230
1.0
 70
     8
 71
     2
 72
     6
 73
     3
 74
     0
 42
0.000000001
 43
0.00000001
 40
0.0
 40
0.0
 40
0.0
 40
0.5213880915476354
 40
0.5213880915476354
 40
0.5213880915476354
 10
64.93322286000688
 20
32.82410800358336
 30
0.0
 10
57.40313982996521
 20
32.61446671659379
 30
0.0
 10
48.91578930477831
 20
30.92023779767779
 30
0.0
  0
ARC
  5
8C
330
1F
100
AcDbEntity
  8
0
  6
Continuous
 62
     7
370
    25
100
AcDbCircle
 10
45.9794488587
 20
45.6300272178
 30
0.0
 40
15.00000000000002
100
AcDbArc
 50
212.0425565645
 51
281.288892122
  0
SPLINE
  5
8D
330
1F
100
AcDbEntity
  8
0
  6
Continuous
 62
     7
370
    25
100
AcDbSpline
210
0.0
220
0.0
230
1.0
 70
     8
 71
     3
 72
     9
 73
     5
 74
     0
 42
0.000000001
 43
0.00000001
 40
0.47078508159462
 40
0.47078508159462
 40
0.47078508159462
 40
0.47078508159462
 40
0.5256552723231938
 40
0.6481099947487848
 40
0.6481099947487848
 40
0.6481099947487848
 40
0.6481099947487848
 10
33.2646349049806
 20
37.67179210435797
 30
0.0
 10
31.13303158773075
 20
41.07743911222335
 30
0.0
 10
22.55831637185375
 20
52.3964658978043
 30
0.0
 10
13.37245008075889
 20
62.85489375455158
 30
0.0
 10
6.951865854920872
 20
66.1429369067994
 30
0.0
  0
SPLINE
  5
8E
330
1F
100
AcDbEntity
  8
0
  6
Continuous
 62
     7
370
    25
100
AcDbSpline
210
0.0
220
0.0
230
1.0
 70
     8
 71
     3
 72
    21
 73
    17
 74
     0
 42
0.000000001
 43
0.00000001
 40
0.9881844095359085
 40
0.9881844095359085
 40
0.9881844095359085
 40
0.9881844095359085
 40
0.98828125
 40
0.990234375
 40
0.9921875
 40
0.994140625
 40
0.99609375
 40
0.998046875
 40
1.0
 40
1.001953125
 40
1.00390625
 40
1.005859375
 40
1.0078125
 40
1.009765625
 40
1.01171875
 40
1.011815590464196
 40
1.011815590464196
 40
1.011815590464196
 40
1.011815590464196
 10
6.951865854938881
 20
66.1429369068221
 30
0.0
 10
6.925301991476762
 20
66.16655538212574
 30
0.0
 10
6.361044792364171
 20
66.66014034589257
 30
0.0
 10
5.201400166057021
 20
67.3396100087429
 30
0.0
 10
3.716875449004112
 20
67.78541996060584
 30
0.0
 10
2.505312769556196
 20
67.95502845488224
 30
0.0
 10
1.504448400478711
 20
68.00348377243397
 30
0.0
 10
0.6557412770588438
 20
68.00449967549986
 30
0.0
 10
0.0000000000000021
 20
67.99775016225007
 30
0.0
 10
-0.655741277058825
 20
68.00449967549986
 30
0.0
 10
-1.50444840047869
 20
68.00348377243398
 30
0.0
 10
-2.505312769556177
 20
67.95502845488225
 30
0.0
 10
-3.716875449004089
 20
67.78541996060586
 30
0.0
 10
-5.201400166057033
 20
67.3396100087429
 30
0.0
 10
-6.361044792394321
 20
66.6601403458749
 30
0.0
 10
-6.925301991534073
 20
66.16655538207563
 30
0.0
 10
-6.951865855024561
 20
66.14293690674594
 30
0.0
  0
SPLINE
  5
8F
330
1F
100
AcDbEntity
  8
0
  6
Continuous
 62
     7
370
    25
100
AcDbSpline
210
0.0
220
0.0
230
1.0
 70
     8
 71
     3
 72
     9
 73
     5
 74
     0
 42
0.000000001
 43
0.00000001
 40
0.7362475996744025
 40
0.7362475996744025
 40
0.7362475996744025
 40
0.7362475996744025
 40
0.858702322099365
 40
0.9135725128279126
 40
0.9135725128279126
 40
0.9135725128279126
 40
0.9135725128279126
 10
-6.951865855019725
 20
66.14293690674879
 30
0.0
 10
-13.37245008082399
 20
62.85489375447744
 30
0.0
 10
-22.55831637188276
 20
52.39646589776574
 30
0.0
 10
-31.13303158772819
 20
41.07743911222669
 30
0.0
 10
-33.26463490497753
 20
37.67179210436285
 30
0.0
  0
ARC
  5
90
330
1F
100
AcDbEntity
  8
0
  6
Continuous
 62
     7
370
    25
100
AcDbCircle
 10
-45.9794488587
 20
45.6300272178
 30
0.0
 40
15.00000000000001
100
AcDbArc
 50
258.711107878
 51
327.9574434356
  0
SPLINE
  5
91
330
1F
100
AcDbEntity
  8
0
  6
Continuous
 62
     7
370
    25
100
AcDbSpline
210
0.0
220
0.0
230
1.0
 70
     8
 71
     2
 72
     6
 73
     3
 74
     0
 42
0.000000001
 43
0.00000001
 40
0.0
 40
0.0
 40
0.0
 40
0.5213880915476354
 40
0.5213880915476354
 40
0.5213880915476354
 10
-64.93322286000688
 20
32.82410800358336
 30
0.0
 10
-57.40313982996521
 20
32.61446671659379
 30
0.0
 10
-48.91578930477831
 20
30.92023779767779
 30
0.0
  0
SPLINE
  5
92
330
1F
100
AcDbEntity
  8
0
  6
Continuous
 62
     7
370
    25
100
AcDbSpline
210
0.0
220
0.0
230
1.0
 70
     8
 71
     3
 72
    72
 73
    68
 74
     0
 42
0.000000001
 43
0.00000001
 40
0.0
 40
0.0
 40
0.0
 40
0.0
 40
0.015625
 40
0.03125
 40
0.046875
 40
0.0625
 40
0.078125
 40
0.09375
 40
0.109375
 40
0.125
 40
0.140625
 40
0.15625
 40
0.171875
 40
0.1875
 40
0.203125
 40
0.21875
 40
0.234375
 40
0.25
 40
0.265625
 40
0.28125
 40
0.296875
 40
0.3125
 40
0.328125
 40
0.34375
 40
0.359375
 40
0.375
 40
0.390625
 40
0.40625
 40
0.421875
 40
0.4375
 40
0.453125
 40
0.46875
 40
0.484375
 40
0.5
 40
0.515625
 40
0.53125
 40
0.546875
 40
0.5625
 40
0.578125
 40
0.59375
 40
0.609375
 40
0.625
 40
0.640625
 40
0.65625
 40
0.671875
 40
0.6875
 40
0.703125
 40
0.71875
 40
0.734375
 40
0.75
 40
0.765625
 40
0.78125
 40
0.796875
 40
0.8125
 40
0.828125
 40
0.84375
 40
0.859375
 40
0.875
 40
0.890625
 40
0.90625
 40
0.921875
 40
0.9375
 40
0.953125
 40
0.96875
 40
0.984375
 40
0.9921875
 40
1.0
 40
1.0
 40
1.0
 40
1.0
 10
-65.27159887703725
 20
66.01479698012577
 30
0.0
 10
-66.02601045140037
 20
66.09724390087324
 30
0.0
 10
-67.55639060154087
 20
65.92645455678579
 30
0.0
 10
-69.70980370711501
 20
64.60336943842618
 30
0.0
 10
-71.15454522222068
 20
62.34550511396775
 30
0.0
 10
-71.50778022883844
 20
59.5215492104703
 30
0.0
 10
-70.55593215221549
 20
56.66599845289555
 30
0.0
 10
-68.35300409279137
 20
54.38124198063661
 30
0.0
 10
-65.2273137983451
 20
53.21044058325204
 30
0.0
 10
-61.73878964535722
 20
53.51320968323851
 30
0.0
 10
-58.5786077466262
 20
55.37042682270321
 30
0.0
 10
-56.43244420229551
 20
58.54187611546829
 30
0.0
 10
-55.83350295467568
 20
62.48992797891275
 30
0.0
 10
-57.03675037124726
 20
66.46904912925493
 30
0.0
 10
-59.94295638281769
 20
69.66657623967905
 30
0.0
 10
-64.09234826423466
 20
71.36816636487184
 30
0.0
 10
-68.73397824301978
 20
71.11432877900168
 30
0.0
 10
-72.96111979817222
 20
68.8142430120142
 30
0.0
 10
-75.88837681171407
 20
64.79007759291075
 30
0.0
 10
-76.83590929384056
 20
59.73812632724717
 30
0.0
 10
-75.48265726014826
 20
54.60980309919314
 30
0.0
 10
-71.95477140266118
 20
50.43252540202022
 30
0.0
 10
-66.82711615561232
 20
48.10420044046007
 30
0.0
 10
-61.03260919672623
 20
48.20236635868095
 30
0.0
 10
-55.69301591514829
 20
50.84818957146611
 30
0.0
 10
-51.90178437755924
 20
55.65626406307182
 30
0.0
 10
-50.50096517873973
 20
61.78503195742878
 30
0.0
 10
-51.8975784800746
 20
68.08267684842997
 30
0.0
 10
-55.95891122616484
 20
73.30349137947198
 30
0.0
 10
-62.01195450629549
 20
76.35409200212257
 30
0.0
 10
-68.95209577049333
 20
76.52085074572184
 30
0.0
 10
-75.4441411860535
 20
73.63150950933989
 30
0.0
 10
-80.17919599830124
 20
68.11521668284175
 30
0.0
 10
-82.13797847496913
 20
60.94427569150933
 30
0.0
 10
-80.80770086786596
 20
53.46414947645984
 30
0.0
 10
-76.3068037293208
 20
47.1411543994457
 30
0.0
 10
-69.3885429476885
 20
43.27513086628437
 30
0.0
 10
-61.31768098402431
 20
42.73337406249006
 30
0.0
 10
-53.63986186901383
 20
45.76008282061542
 30
0.0
 10
-47.88560506321872
 20
51.90253159929311
 30
0.0
 10
-45.26560744441209
 20
60.07331829432433
 30
0.0
 10
-46.41793969334191
 20
68.74147765876359
 30
0.0
 10
-51.2595868938314
 20
76.21916063451533
 30
0.0
 10
-58.97582447792058
 20
80.99023210540915
 30
0.0
 10
-68.1545733485501
 20
82.01682444639177
 30
0.0
 10
-77.04417847001882
 20
78.96201780652169
 30
0.0
 10
-83.88767981362933
 20
72.28139387945886
 30
0.0
 10
-87.2697878756432
 20
63.16072284702867
 30
0.0
 10
-86.40809150574135
 20
53.30691404623808
 30
0.0
 10
-81.32884424404816
 20
44.62879126014582
 30
0.0
 10
-72.88866644063489
 20
38.8673511396843
 30
0.0
 10
-62.63285847394977
 20
37.2471198607242
 30
0.0
 10
-52.51315196436758
 20
40.2183093688891
 30
0.0
 10
-44.51631547107148
 20
47.34364736493911
 30
0.0
 10
-40.27428169989663
 20
57.35674491771606
 30
0.0
 10
-40.73226887057405
 20
68.38571070747703
 30
0.0
 10
-45.9421799370384
 20
78.30283039165856
 30
0.0
 10
-55.02577506527056
 20
85.13503836423878
 30
0.0
 10
-66.31983991166376
 20
87.4560026225981
 30
0.0
 10
-77.68001497299974
 20
84.68197094239797
 30
0.0
 10
-86.88780885861128
 20
77.21044262471918
 30
0.0
 10
-92.08400201502265
 20
66.36959155788954
 30
0.0
 10
-92.1421159261087
 20
54.18447920032064
 30
0.0
 10
-86.91333911931238
 20
42.99611788495789
 30
0.0
 10
-78.87471727198958
 20
36.35163650455456
 30
0.0
 10
-71.13538262431977
 20
33.45101237397522
 30
0.0
 10
-66.99684372619868
 20
32.87924875751454
 30
0.0
 10
-64.93322286000688
 20
32.82410800358336
 30
0.0
  0
LINE
  5
93
330
1F
100
AcDbEntity
  8
0
  6
Continuous
 62
     7
370
    25
100
AcDbLine
 10
-64.728401123
 20
70.9852030199
 30
0.0
 11
-65.271598877
 21
66.0147969801
 31
0.0
  0
SPLINE
  5
94
330
1F
100
AcDbEntity
  8
0
  6
Continuous
 62
     7
370
    25
100
AcDbSpline
210
0.0
220
0.0
230
1.0
 70
     8
 71
     3
 72
    72
 73
    68
 74
     0
 42
0.000000001
 43
0.00000001
 40
0.0
 40
0.0
 40
0.0
 40
0.0
 40
0.015625
 40
0.03125
 40
0.046875
 40
0.0625
 40
0.078125
 40
0.09375
 40
0.109375
 40
0.125
 40
0.140625
 40
0.15625
 40
0.171875
 40
0.1875
 40
0.203125
 40
0.21875
 40
0.234375
 40
0.25
 40
0.265625
 40
0.28125
 40
0.296875
 40
0.3125
 40
0.328125
 40
0.34375
 40
0.359375
 40
0.375
 40
0.390625
 40
0.40625
 40
0.421875
 40
0.4375
 40
0.453125
 40
0.46875
 40
0.484375
 40
0.5
 40
0.515625
 40
0.53125
 40
0.546875
 40
0.5625
 40
0.578125
 40
0.59375
 40
0.609375
 40
0.625
 40
0.640625
 40
0.65625
 40
0.671875
 40
0.6875
 40
0.703125
 40
0.71875
 40
0.734375
 40
0.75
 40
0.765625
 40
0.78125
 40
0.796875
 40
0.8125
 40
0.828125
 40
0.84375
 40
0.859375
 40
0.875
 40
0.890625
 40
0.90625
 40
0.921875
 40
0.9375
 40
0.953125
 40
0.96875
 40
0.984375
 40
0.9921875
 40
1.0
 40
1.0
 40
1.0
 40
1.0
 10
-64.72840112296267
 20
70.98520301987425
 30
0.0
 10
-66.21686898113342
 20
71.14787230506033
 30
0.0
 10
-69.27329841221457
 20
70.80327850544101
 30
0.0
 10
-73.35978449658592
 20
68.26204289126538
 30
0.0
 10
-76.02629772312117
 20
64.07178221495334
 30
0.0
 10
-76.64733936329236
 20
58.97957977440761
 30
0.0
 10
-74.96069592521906
 20
53.96315563768032
 30
0.0
 10
-71.16498047178472
 20
50.04557709760455
 30
0.0
 10
-65.90002297819444
 20
48.08687425792538
 30
0.0
 10
-60.14247002358656
 20
48.59857214980514
 30
0.0
 10
-55.02447507061468
 20
51.61961082900402
 30
0.0
 10
-51.61138589580969
 20
56.68268381957049
 30
0.0
 10
-50.68141559365279
 20
62.88239730999464
 30
0.0
 10
-52.55276785248324
 20
69.03631989365205
 30
0.0
 10
-56.99584347019827
 20
73.91045868955933
 30
0.0
 10
-63.2525050744221
 20
76.4661848536311
 30
0.0
 10
-70.16345444843286
 20
76.07929767489371
 30
0.0
 10
-76.38275826867776
 20
72.68541375648462
 30
0.0
 10
-80.6398874982111
 20
66.81887814798864
 30
0.0
 10
-81.9982755936672
 20
59.53263949412735
 30
0.0
 10
-80.05795966751396
 20
52.2101633531693
 30
0.0
 10
-75.0590290614055
 20
46.30279145785897
 30
0.0
 10
-67.8609115955905
 20
43.04239456626938
 30
0.0
 10
-59.79660709580602
 20
43.18614873511076
 30
0.0
 10
-52.42616220471756
 20
46.84601917328646
 30
0.0
 10
-47.2349099315967
 20
53.44050828361237
 30
0.0
 10
-45.33483479198833
 20
61.78306254544061
 30
0.0
 10
-47.22897674960338
 20
70.29462294788777
 30
0.0
 10
-52.68834324933268
 20
77.30244070443835
 30
0.0
 10
-60.77004483829869
 20
81.36862631836897
 30
0.0
 10
-69.97812777737197
 20
81.58393820975091
 30
0.0
 10
-78.5401010457663
 20
77.76700810279902
 30
0.0
 10
-84.74811912904494
 20
70.52602428461523
 30
0.0
 10
-87.29915039847103
 20
61.16587648481755
 30
0.0
 10
-85.56646851102664
 20
51.45400085078553
 30
0.0
 10
-79.74625344687276
 20
43.28673747312774
 30
0.0
 10
-70.84611484151948
 20
38.3191630021925
 30
0.0
 10
-60.51271532875971
 20
37.63063325713058
 30
0.0
 10
-50.72754317331501
 20
41.49345140105505
 30
0.0
 10
-43.42695459043643
 20
49.29370047557265
 30
0.0
 10
-40.11934233572011
 20
59.62459981660427
 30
0.0
 10
-41.57505362313962
 20
70.5391663677459
 30
0.0
 10
-47.65252088947364
 20
79.91701814932546
 30
0.0
 10
-57.29897077580888
 20
85.87624167731114
 30
0.0
 10
-68.73065616176139
 20
87.15033356445943
 30
0.0
 10
-79.76221082159775
 20
83.35484756280687
 30
0.0
 10
-88.22441072074206
 20
75.08804492677871
 30
0.0
 10
-92.3904838741557
 20
63.84107216430991
 30
0.0
 10
-91.32723346160631
 20
51.73010456590124
 30
0.0
 10
-85.09980020304481
 20
41.09834299445266
 30
0.0
 10
-74.78583799642502
 20
34.06268603701523
 30
0.0
 10
-62.291258998376
 20
32.09277472012142
 30
0.0
 10
-49.99857582520194
 20
35.70601809964173
 30
0.0
 10
-40.31261780895873
 20
44.34153189733155
 30
0.0
 10
-35.19023669835145
 20
56.44232312816469
 30
0.0
 10
-35.74594252638846
 20
69.73483761230432
 30
0.0
 10
-42.01276651994954
 20
81.65592161437391
 30
0.0
 10
-52.90909614869646
 20
89.84705488217962
 30
0.0
 10
-66.42299013947735
 20
92.62056605417499
 30
0.0
 10
-79.98310387818
 20
89.305719867675
 30
0.0
 10
-90.94782771323746
 20
80.40410190091637
 30
0.0
 10
-97.12008655123947
 20
67.51895534290419
 30
0.0
 10
-97.18568079841356
 20
53.06862254546859
 30
0.0
 10
-90.99462292755864
 20
39.82939844766327
 30
0.0
 10
-81.49957556879322
 20
31.9842321827801
 30
0.0
 10
-72.3718825527818
 20
28.56414931056724
 30
0.0
 10
-67.49793679261471
 20
27.89085352998557
 30
0.0
 10
-65.06677713999176
 20
27.82589199641663
 30
0.0
  0
SPLINE
  5
95
330
1F
100
AcDbEntity
  8
0
  6
Continuous
 62
     7
370
    25
100
AcDbSpline
210
0.0
220
0.0
230
1.0
 70
    11
 71
     3
 72
    27
 73
    23
 74
     0
 42
0.000000001
 43
0.00000001
 40
0.0
 40
0.0
 40
0.0
 40
0.0
 40
0.0126101709460833
 40
0.0203248483936145
 40
0.069586932756637
 40
0.100415677438136
 40
0.1296441305392665
 40
0.1824349423600274
 40
0.2613025394247301
 40
0.3596608119323851
 40
0.4397440002953134
 40
0.5000000000000001
 40
0.5602559997046869
 40
0.6403391880676151
 40
0.73869746057527
 40
0.8175650576399727
 40
0.8703558694607335
 40
0.899584322561864
 40
0.930413067243363
 40
0.9796751516063855
 40
0.9873898290539168
 40
1.0
 40
1.0
 40
1.0
 40
1.0
 10
-0.0000000000000075
 20
63.0
 30
0.0
 10
-1.526568415290803
 20
63.00000000000001
 30
0.0
 10
-3.987064132274135
 20
63.15969765223693
 30
0.0
 10
-5.34531444823741
 20
55.27319077878415
 30
0.0
 10
-4.170837729173184
 20
46.8442542622842
 30
0.0
 10
-10.19759324166289
 20
36.08045176148693
 30
0.0
 10
-21.51168846112013
 20
32.65006376020858
 30
0.0
 10
-35.33544853535926
 20
22.1010912935159
 30
0.0
 10
-39.80572754255248
 20
-1.792070573310127
 30
0.0
 10
-41.67641023156266
 20
-30.22507453525028
 30
0.0
 10
-20.31167118084817
 20
-46.71956590067965
 30
0.0
 10
0.0000000000000127
 20
-51.40848638816877
 30
0.0
 10
20.31167118084817
 20
-46.71956590067963
 30
0.0
 10
41.67641023156268
 20
-30.22507453525029
 30
0.0
 10
39.80572754255246
 20
-1.792070573310102
 30
0.0
 10
35.33544853535928
 20
22.10109129351589
 30
0.0
 10
21.51168846112012
 20
32.6500637602086
 30
0.0
 10
10.19759324166287
 20
36.08045176148694
 30
0.0
 10
4.170837729173188
 20
46.84425426228417
 30
0.0
 10
5.34531444823737
 20
55.27319077878423
 30
0.0
 10
3.987064132274137
 20
63.15969765223691
 30
0.0
 10
1.526568415290777
 20
63.0
 30
0.0
 10
-0.0000000000000075
 20
63.0
 30
0.0
  0
MTEXT
  5
97
330
1F
100
AcDbEntity
  8
0
  6
Continuous
 62
     7
100
AcDbMText
 10
-101.8581521629
 20
-56.0195663917
 30
0.0
 40
4.83362
 41
0.0
 71
     1
 72
     1
  1
SOLIDWORKS Educational Product.
  7
SLDTEXTSTYLE0
 73
     1
 44
1.0
  0
MTEXT
  5
98
330
1F
100
AcDbEntity
  8
0
  6
Continuous
 62
     7
100
AcDbMText
 10
-101.8581521629
 20
-63.2699963917
 30
0.0
 40
4.83362
 41
0.0
 71
     1
 72
     1
  1
For Instructional Use Only.
  7
SLDTEXTSTYLE0
 73
     1
 44
1.0
  0
ENDSEC
  0
SECTION
  2
OBJECTS
  0
DICTIONARY
  5
C
330
0
100
AcDbDictionary
281
     1
  3
ACAD_GROUP
350
D
  3
ACAD_LAYOUT
350
1A
  3
ACAD_MLINESTYLE
350
17
  3
ACAD_PLOTSETTINGS
350
19
  3
ACAD_PLOTSTYLENAME
350
E
  3
ACAD_SCALELIST
350
47
  0
DICTIONARY
  5
D
102
{ACAD_REACTORS
330
C
102
}
330
C
100
AcDbDictionary
281
     1
  0
DICTIONARY
  5
1A
102
{ACAD_REACTORS
330
C
102
}
330
C
100
AcDbDictionary
281
     1
  3
Layout1
350
1E
  3
Layout2
350
26
  3
Model
350
22
  0
DICTIONARY
  5
17
102
{ACAD_REACTORS
330
C
102
}
330
C
100
AcDbDictionary
281
     1
  3
Standard
350
18
  0
DICTIONARY
  5
19
102
{ACAD_REACTORS
330
C
102
}
330
C
100
AcDbDictionary
281
     1
  0
ACDBDICTIONARYWDFLT
  5
E
102
{ACAD_REACTORS
330
C
102
}
330
C
100
AcDbDictionary
281
     1
  3
Normal
350
F
100
AcDbDictionaryWithDefault
340
F
  0
DICTIONARY
  5
47
102
{ACAD_REACTORS
330
C
102
}
330
C
100
AcDbDictionary
281
     1
  3
A0
350
48
  3
A1
350
49
  3
A2
350
4A
  3
A3
350
4B
  3
A4
350
4C
  3
A5
350
4D
  3
A6
350
4E
  3
A7
350
4F
  3
A8
350
50
  3
A9
350
51
  3
B0
350
52
  3
B1
350
53
  3
B2
350
54
  3
B3
350
55
  3
B4
350
56
  3
B5
350
57
  3
B6
350
58
  3
B7
350
59
  3
B8
350
5A
  3
B9
350
5B
  3
C0
350
5C
  3
C1
350
5D
  3
C2
350
5E
  3
C3
350
5F
  3
C4
350
60
  3
C5
350
61
  3
C6
350
62
  3
C7
350
63
  3
C8
350
64
  3
C9
350
65
  3
D0
350
66
  3
D1
350
67
  3
D2
350
68
  0
LAYOUT
  5
1E
102
{ACAD_REACTORS
330
1A
102
}
330
1A
100
AcDbPlotSettings
  1

  2
none_device
  4

  6

 40
0.0
 41
0.0
 42
0.0
 43
0.0
 44
0.0
 45
0.0
 46
0.0
 47
0.0
 48
0.0
 49
0.0
140
0.0
141
0.0
142
1.0
143
1.0
 70
   688
 72
     1
 73
     0
 74
     5
  7

 75
    16
147
1.0
148
0.0
149
0.0
100
AcDbLayout
  1
Layout1
 70
     1
 71
     1
 10
0.0
 20
0.0
 11
420.0
 21
297.0
 12
0.0
 22
0.0
 32
0.0
 14
1.0000000000E+20
 24
1.0000000000E+20
 34
1.0000000000E+20
 15
-1.0000000000E+20
 25
-1.0000000000E+20
 35
-1.0000000000E+20
146
0.0
 13
0.0
 23
0.0
 33
0.0
 16
1.0
 26
0.0
 36
0.0
 17
0.0
 27
1.0
 37
0.0
 76
     0
330
1B
  0
LAYOUT
  5
26
102
{ACAD_REACTORS
330
1A
102
}
330
1A
100
AcDbPlotSettings
  1

  2
none_device
  4

  6

 40
0.0
 41
0.0
 42
0.0
 43
0.0
 44
0.0
 45
0.0
 46
0.0
 47
0.0
 48
0.0
 49
0.0
140
0.0
141
0.0
142
1.0
143
1.0
 70
   688
 72
     1
 73
     0
 74
     5
  7

 75
    16
147
1.0
148
0.0
149
0.0
100
AcDbLayout
  1
Layout2
 70
     1
 71
     2
 10
0.0
 20
0.0
 11
0.0
 21
0.0
 12
0.0
 22
0.0
 32
0.0
 14
0.0
 24
0.0
 34
0.0
 15
0.0
 25
0.0
 35
0.0
146
0.0
 13
0.0
 23
0.0
 33
0.0
 16
1.0
 26
0.0
 36
0.0
 17
0.0
 27
1.0
 37
0.0
 76
     0
330
23
  0
LAYOUT
  5
22
102
{ACAD_REACTORS
330
1A
102
}
330
1A
100
AcDbPlotSettings
  1

  2
none_device
  4
ANSI_A_(11.00_x_8.50_Inches)
  6

 40
6.35
 41
19.05
 42
6.35000508
 43
19.05000254
 44
279.4
 45
215.9
 46
133.34999746
 47
64.0482938925
 48
0.0
 49
0.0
140
0.0
141
0.0
142
0.0534566933
143
1.0
 70
  1696
 72
     0
 73
     0
 74
     0
  7

 75
     0
147
0.0179189148
148
-1300.4909072572
149
0.0
100
AcDbLayout
  1
Model
 70
     1
 71
     0
 10
0.0
 20
0.0
 11
420.0
 21
297.0
 12
0.0
 22
0.0
 32
0.0
 14
-101.8581521629
 24
-55.0
 34
0.0
 15
101.8581521629
 25
91.6058398278
 35
0.0
146
0.0
 13
0.0
 23
0.0
 33
0.0
 16
1.0
 26
0.0
 36
0.0
 17
0.0
 27
1.0
 37
0.0
 76
     0
330
1F
331
29
  0
MLINESTYLE
  5
18
102
{ACAD_REACTORS
330
17
102
}
330
17
100
AcDbMlineStyle
  2
Standard
 70
     0
  3

 62
   256
 51
90.0
 52
90.0
 71
     2
 49
0.5
 62
   256
  6
BYLAYER
 49
-0.5
 62
   256
  6
BYLAYER
  0
ACDBPLACEHOLDER
  5
F
102
{ACAD_REACTORS
330
E
102
}
330
E
  0
SCALE
  5
48
102
{ACAD_REACTORS
330
47
102
}
330
47
100
AcDbScale
 70
     0
300
1:1
140
1.0
141
1.0
290
     1
  0
SCALE
  5
49
102
{ACAD_REACTORS
330
47
102
}
330
47
100
AcDbScale
 70
     0
300
1:2
140
1.0
141
2.0
290
     0
  0
SCALE
  5
4A
102
{ACAD_REACTORS
330
47
102
}
330
47
100
AcDbScale
 70
     0
300
1:4
140
1.0
141
4.0
290
     0
  0
SCALE
  5
4B
102
{ACAD_REACTORS
330
47
102
}
330
47
100
AcDbScale
 70
     0
300
1:5
140
1.0
141
5.0
290
     0
  0
SCALE
  5
4C
102
{ACAD_REACTORS
330
47
102
}
330
47
100
AcDbScale
 70
     0
300
1:8
140
1.0
141
8.0
290
     0
  0
SCALE
  5
4D
102
{ACAD_REACTORS
330
47
102
}
330
47
100
AcDbScale
 70
     0
300
1:10
140
1.0
141
10.0
290
     0
  0
SCALE
  5
4E
102
{ACAD_REACTORS
330
47
102
}
330
47
100
AcDbScale
 70
     0
300
1:16
140
1.0
141
16.0
290
     0
  0
SCALE
  5
4F
102
{ACAD_REACTORS
330
47
102
}
330
47
100
AcDbScale
 70
     0
300
1:20
140
1.0
141
20.0
290
     0
  0
SCALE
  5
50
102
{ACAD_REACTORS
330
47
102
}
330
47
100
AcDbScale
 70
     0
300
1:30
140
1.0
141
30.0
290
     0
  0
SCALE
  5
51
102
{ACAD_REACTORS
330
47
102
}
330
47
100
AcDbScale
 70
     0
300
1:40
140
1.0
141
40.0
290
     0
  0
SCALE
  5
52
102
{ACAD_REACTORS
330
47
102
}
330
47
100
AcDbScale
 70
     0
300
1:50
140
1.0
141
50.0
290
     0
  0
SCALE
  5
53
102
{ACAD_REACTORS
330
47
102
}
330
47
100
AcDbScale
 70
     0
300
1:100
140
1.0
141
100.0
290
     0
  0
SCALE
  5
54
102
{ACAD_REACTORS
330
47
102
}
330
47
100
AcDbScale
 70
     0
300
2:1
140
2.0
141
1.0
290
     0
  0
SCALE
  5
55
102
{ACAD_REACTORS
330
47
102
}
330
47
100
AcDbScale
 70
     0
300
4:1
140
4.0
141
1.0
290
     0
  0
SCALE
  5
56
102
{ACAD_REACTORS
330
47
102
}
330
47
100
AcDbScale
 70
     0
300
8:1
140
8.0
141
1.0
290
     0
  0
SCALE
  5
57
102
{ACAD_REACTORS
330
47
102
}
330
47
100
AcDbScale
 70
     0
300
10:1
140
10.0
141
1.0
290
     0
  0
SCALE
  5
58
102
{ACAD_REACTORS
330
47
102
}
330
47
100
AcDbScale
 70
     0
300
100:1
140
100.0
141
1.0
290
     0
  0
SCALE
  5
59
102
{ACAD_REACTORS
330
47
102
}
330
47
100
AcDbScale
 70
     0
300
1/128" = 1'-0"
140
0.0078125
141
12.0
290
     0
  0
SCALE
  5
5A
102
{ACAD_REACTORS
330
47
102
}
330
47
100
AcDbScale
 70
     0
300
1/64" = 1'-0"
140
0.015625
141
12.0
290
     0
  0
SCALE
  5
5B
102
{ACAD_REACTORS
330
47
102
}
330
47
100
AcDbScale
 70
     0
300
1/32" = 1'-0"
140
0.03125
141
12.0
290
     0
  0
SCALE
  5
5C
102
{ACAD_REACTORS
330
47
102
}
330
47
100
AcDbScale
 70
     0
300
1/16" = 1'-0"
140
0.0625
141
12.0
290
     0
  0
SCALE
  5
5D
102
{ACAD_REACTORS
330
47
102
}
330
47
100
AcDbScale
 70
     0
300
3/32" = 1'-0"
140
0.09375
141
12.0
290
     0
  0
SCALE
  5
5E
102
{ACAD_REACTORS
330
47
102
}
330
47
100
AcDbScale
 70
     0
300
1/8" = 1'-0"
140
0.125
141
12.0
290
     0
  0
SCALE
  5
5F
102
{ACAD_REACTORS
330
47
102
}
330
47
100
AcDbScale
 70
     0
300
3/16" = 1'-0"
140
0.1875
141
12.0
290
     0
  0
SCALE
  5
60
102
{ACAD_REACTORS
330
47
102
}
330
47
100
AcDbScale
 70
     0
300
1/4" = 1'-0"
140
0.25
141
12.0
290
     0
  0
SCALE
  5
61
102
{ACAD_REACTORS
330
47
102
}
330
47
100
AcDbScale
 70
     0
300
3/8" = 1'-0"
140
0.375
141
12.0
290
     0
  0
SCALE
  5
62
102
{ACAD_REACTORS
330
47
102
}
330
47
100
AcDbScale
 70
     0
300
1/2" = 1'-0"
140
0.5
141
12.0
290
     0
  0
SCALE
  5
63
102
{ACAD_REACTORS
330
47
102
}
330
47
100
AcDbScale
 70
     0
300
3/4" = 1'-0"
140
0.75
141
12.0
290
     0
  0
SCALE
  5
64
102
{ACAD_REACTORS
330
47
102
}
330
47
100
AcDbScale
 70
     0
300
1" = 1'-0"
140
1.0
141
12.0
290
     0
  0
SCALE
  5
65
102
{ACAD_REACTORS
330
47
102
}
330
47
100
AcDbScale
 70
     0
300
1-1/2" = 1'-0"
140
1.5
141
12.0
290
     0
  0
SCALE
  5
66
102
{ACAD_REACTORS
330
47
102
}
330
47
100
AcDbScale
 70
     0
300
3" = 1'-0"
140
3.0
141
12.0
290
     0
  0
SCALE
  5
67
102
{ACAD_REACTORS
330
47
102
}
330
47
100
AcDbScale
 70
     0
300
6" = 1'-0"
140
6.0
141
12.0
290
     0
  0
SCALE
  5
68
102
{ACAD_REACTORS
330
47
102
}
330
47
100
AcDbScale
 70
     0
300
1'-0" = 1'-0"
140
12.0
141
12.0
290
     0
  0
ENDSEC
  0
EOF
