  0
SECTION
  2
HEADER
  9
$ACADVER
  1
AC1015
  9
$ACADMAINTVER
 70
     6
  9
$DWGCODEPAGE
  3
ANSI_1252
  9
$INSBASE
 10
0.0
 20
0.0
 30
0.0
  9
$EXTMIN
 10
-122.1390739269
 20
-54.6870178255
 30
0.0
  9
$EXTMAX
 10
122.1390739269
 20
114.0594271097
 30
0.0
  9
$LIMMIN
 10
0.0
 20
0.0
  9
$LIMMAX
 10
420.0
 20
297.0
  9
$ORTHOMODE
 70
     0
  9
$REGENMODE
 70
     1
  9
$FILLMODE
 70
     1
  9
$QTEXTMODE
 70
     0
  9
$MIRRTEXT
 70
     1
  9
$LTSCALE
 40
1.0
  9
$ATTMODE
 70
     1
  9
$TEXTSIZE
 40
3.5
  9
$TRACEWID
 40
1.0
  9
$TEXTSTYLE
  7
Standard
  9
$CLAYER
  8
0
  9
$CELTYPE
  6
ByLayer
  9
$CECOLOR
 62
   256
  9
$CELTSCALE
 40
1.0
  9
$DISPSILH
 70
     0
  9
$DIMSCALE
 40
1.0
  9
$DIMASZ
 40
3.302
  9
$DIMEXO
 40
1.0
  9
$DIMDLI
 40
3.75
  9
$DIMRND
 40
0.0
  9
$DIMDLE
 40
0.0
  9
$DIMEXE
 40
1.0
  9
$DIMTP
 40
0.0
  9
$DIMTM
 40
0.0
  9
$DIMTXT
 40
3.5
  9
$DIMCEN
 40
2.5
  9
$DIMTSZ
 40
0.0
  9
$DIMTOL
 70
     0
  9
$DIMLIM
 70
     0
  9
$DIMTIH
 70
     1
  9
$DIMTOH
 70
     1
  9
$DIMSE1
 70
     0
  9
$DIMSE2
 70
     0
  9
$DIMTAD
 70
     1
  9
$DIMZIN
 70
     1
  9
$DIMBLK
  1

  9
$DIMASO
 70
     1
  9
$DIMSHO
 70
     1
  9
$DIMPOST
  1

  9
$DIMAPOST
  1

  9
$DIMALT
 70
     0
  9
$DIMALTD
 70
     3
  9
$DIMALTF
 40
0.0393700787
  9
$DIMLFAC
 40
1.0
  9
$DIMTOFL
 70
     1
  9
$DIMTVP
 40
0.0
  9
$DIMTIX
 70
     0
  9
$DIMSOXD
 70
     0
  9
$DIMSAH
 70
     0
  9
$DIMBLK1
  1

  9
$DIMBLK2
  1

  9
$DIMSTYLE
  2
ISO-25
  9
$DIMCLRD
 70
     0
  9
$DIMCLRE
 70
     0
  9
$DIMCLRT
 70
     0
  9
$DIMTFAC
 40
1.0
  9
$DIMGAP
 40
1.524
  9
$DIMJUST
 70
     0
  9
$DIMSD1
 70
     0
  9
$DIMSD2
 70
     0
  9
$DIMTOLJ
 70
     0
  9
$DIMTZIN
 70
     1
  9
$DIMALTZ
 70
     0
  9
$DIMALTTZ
 70
     0
  9
$DIMUPT
 70
     0
  9
$DIMDEC
 70
     2
  9
$DIMTDEC
 70
     2
  9
$DIMALTU
 70
     2
  9
$DIMALTTD
 70
     3
  9
$DIMTXSTY
  7
Standard
  9
$DIMAUNIT
 70
     0
  9
$DIMADEC
 70
     2
  9
$DIMALTRND
 40
0.0
  9
$DIMAZIN
 70
     0
  9
$DIMDSEP
 70
    44
  9
$DIMATFIT
 70
     3
  9
$DIMFRAC
 70
     0
  9
$DIMLDRBLK
  1

  9
$DIMLUNIT
 70
     2
  9
$DIMLWD
 70
    -2
  9
$DIMLWE
 70
    -2
  9
$DIMTMOVE
 70
     0
  9
$LUNITS
 70
     2
  9
$LUPREC
 70
     2
  9
$SKETCHINC
 40
1.0
  9
$FILLETRAD
 40
10.0
  9
$AUNITS
 70
     0
  9
$AUPREC
 70
     2
  9
$MENU
  1
.
  9
$ELEVATION
 40
0.0
  9
$PELEVATION
 40
0.0
  9
$THICKNESS
 40
0.0
  9
$LIMCHECK
 70
     0
  9
$CHAMFERA
 40
0.0
  9
$CHAMFERB
 40
0.0
  9
$CHAMFERC
 40
0.0
  9
$CHAMFERD
 40
0.0
  9
$SKPOLY
 70
     0
  9
$TDCREATE
 40
2459065.661624178
  9
$TDUCREATE
 40
2459065.953290845
  9
$TDUPDATE
 40
2459065.66164971
  9
$TDUUPDATE
 40
2459065.953316377
  9
$TDINDWG
 40
0.0000000116
  9
$TDUSRTIMER
 40
0.0000000116
  9
$USRTIMER
 70
     1
  9
$ANGBASE
 50
0.0
  9
$ANGDIR
 70
     0
  9
$PDMODE
 70
     0
  9
$PDSIZE
 40
-1.0
  9
$PLINEWID
 40
0.0
  9
$SPLFRAME
 70
     0
  9
$SPLINETYPE
 70
     6
  9
$SPLINESEGS
 70
     8
  9
$HANDSEED
  5
AF
  9
$SURFTAB1
 70
     6
  9
$SURFTAB2
 70
     6
  9
$SURFTYPE
 70
     6
  9
$SURFU
 70
     6
  9
$SURFV
 70
     6
  9
$UCSBASE
  2

  9
$UCSNAME
  2

  9
$UCSORG
 10
0.0
 20
0.0
 30
0.0
  9
$UCSXDIR
 10
1.0
 20
0.0
 30
0.0
  9
$UCSYDIR
 10
0.0
 20
1.0
 30
0.0
  9
$UCSORTHOREF
  2

  9
$UCSORTHOVIEW
 70
     0
  9
$UCSORGTOP
 10
0.0
 20
0.0
 30
0.0
  9
$UCSORGBOTTOM
 10
0.0
 20
0.0
 30
0.0
  9
$UCSORGLEFT
 10
0.0
 20
0.0
 30
0.0
  9
$UCSORGRIGHT
 10
0.0
 20
0.0
 30
0.0
  9
$UCSORGFRONT
 10
0.0
 20
0.0
 30
0.0
  9
$UCSORGBACK
 10
0.0
 20
0.0
 30
0.0
  9
$PUCSBASE
  2

  9
$PUCSNAME
  2

  9
$PUCSORG
 10
0.0
 20
0.0
 30
0.0
  9
$PUCSXDIR
 10
1.0
 20
0.0
 30
0.0
  9
$PUCSYDIR
 10
0.0
 20
1.0
 30
0.0
  9
$PUCSORTHOREF
  2

  9
$PUCSORTHOVIEW
 70
     0
  9
$PUCSORGTOP
 10
0.0
 20
0.0
 30
0.0
  9
$PUCSORGBOTTOM
 10
0.0
 20
0.0
 30
0.0
  9
$PUCSORGLEFT
 10
0.0
 20
0.0
 30
0.0
  9
$PUCSORGRIGHT
 10
0.0
 20
0.0
 30
0.0
  9
$PUCSORGFRONT
 10
0.0
 20
0.0
 30
0.0
  9
$PUCSORGBACK
 10
0.0
 20
0.0
 30
0.0
  9
$USERI1
 70
     0
  9
$USERI2
 70
     0
  9
$USERI3
 70
     0
  9
$USERI4
 70
     0
  9
$USERI5
 70
     0
  9
$USERR1
 40
0.0
  9
$USERR2
 40
0.0
  9
$USERR3
 40
0.0
  9
$USERR4
 40
0.0
  9
$USERR5
 40
0.0
  9
$WORLDVIEW
 70
     1
  9
$SHADEDGE
 70
     3
  9
$SHADEDIF
 70
    70
  9
$TILEMODE
 70
     1
  9
$MAXACTVP
 70
    64
  9
$PINSBASE
 10
0.0
 20
0.0
 30
0.0
  9
$PLIMCHECK
 70
     0
  9
$PEXTMIN
 10
1.0000000000E+20
 20
1.0000000000E+20
 30
1.0000000000E+20
  9
$PEXTMAX
 10
-1.0000000000E+20
 20
-1.0000000000E+20
 30
-1.0000000000E+20
  9
$PLIMMIN
 10
0.0
 20
0.0
  9
$PLIMMAX
 10
420.0
 20
297.0
  9
$UNITMODE
 70
     0
  9
$VISRETAIN
 70
     1
  9
$PLINEGEN
 70
     0
  9
$PSLTSCALE
 70
     1
  9
$TREEDEPTH
 70
  3020
  9
$CMLSTYLE
  2
Standard
  9
$CMLJUST
 70
     0
  9
$CMLSCALE
 40
20.0
  9
$PROXYGRAPHICS
 70
     1
  9
$MEASUREMENT
 70
     1
  9
$CELWEIGHT
370
    -1
  9
$ENDCAPS
280
     0
  9
$JOINSTYLE
280
     0
  9
$LWDISPLAY
290
     1
  9
$INSUNITS
 70
     4
  9
$HYPERLINKBASE
  1

  9
$STYLESHEET
  1

  9
$XEDIT
290
     1
  9
$CEPSNTYPE
380
     0
  9
$PSTYLEMODE
290
     1
  9
$FINGERPRINTGUID
  2
{ccecd27d-6c60-4f22-8792-86617c245b93}
  9
$VERSIONGUID
  2
{FAEB1C32-E019-11D5-929B-00C0DF256EC4}
  9
$EXTNAMES
290
     1
  9
$PSVPSCALE
 40
0.0
  9
$OLESTARTUP
290
     0
  0
ENDSEC
  0
SECTION
  2
CLASSES
  0
CLASS
  1
ACDBDICTIONARYWDFLT
  2
AcDbDictionaryWithDefault
  3
ObjectDBX Classes
 90
        0
280
     0
281
     0
  0
CLASS
  1
VISUALSTYLE
  2
AcDbVisualStyle
  3
ObjectDBX Classes
 90
     4095
280
     0
281
     0
  0
CLASS
  1
MATERIAL
  2
AcDbMaterial
  3
ObjectDBX Classes
 90
     1153
280
     0
281
     0
  0
CLASS
  1
SCALE
  2
AcDbScale
  3
ObjectDBX Classes
 90
     1153
280
     0
281
     0
  0
CLASS
  1
TABLESTYLE
  2
AcDbTableStyle
  3
ObjectDBX Classes
 90
     4095
280
     0
281
     0
  0
CLASS
  1
MLEADERSTYLE
  2
AcDbMLeaderStyle
  3
ACDB_MLEADERSTYLE_CLASS
 90
     4095
280
     0
281
     0
  0
CLASS
  1
SUN
  2
AcDbSun
  3
SCENEOE
 90
     1153
280
     0
281
     0
  0
CLASS
  1
ACDBPLACEHOLDER
  2
AcDbPlaceHolder
  3
ObjectDBX Classes
 90
        0
280
     0
281
     0
  0
CLASS
  1
LAYOUT
  2
AcDbLayout
  3
ObjectDBX Classes
 90
        0
280
     0
281
     0
  0
ENDSEC
  0
SECTION
  2
TABLES
  0
TABLE
  2
VPORT
  5
8
330
0
100
AcDbSymbolTable
 70
     1
  0
VPORT
  5
29
330
8
100
AcDbSymbolTableRecord
100
AcDbViewportTableRecord
  2
*Active
 70
     0
 10
0.0
 20
0.0
 11
1.0
 21
1.0
 12
0.0
 22
29.6862046421
 13
0.0
 23
0.0
 14
10.0
 24
10.0
 15
10.0
 25
10.0
 16
0.0
 26
0.0
 36
1.0
 17
0.0
 27
0.0
 37
0.0
 40
172.1213738339
 41
1.4476047063
 42
50.0
 43
0.0
 44
0.0
 50
0.0
 51
0.0
 71
     0
 72
   100
 73
     1
 74
     3
 75
     0
 76
     0
 77
     0
 78
     0
281
     0
 65
     1
110
0.0
120
0.0
130
0.0
111
1.0
121
0.0
131
0.0
112
0.0
122
1.0
132
0.0
 79
     0
146
0.0
  0
ENDTAB
  0
TABLE
  2
LTYPE
  5
5
330
0
100
AcDbSymbolTable
 70
     6
  0
LTYPE
  5
14
330
5
100
AcDbSymbolTableRecord
100
AcDbLinetypeTableRecord
  2
ByBlock
 70
     0
  3

 72
    65
 73
     0
 40
0.0
  0
LTYPE
  5
15
330
5
100
AcDbSymbolTableRecord
100
AcDbLinetypeTableRecord
  2
ByLayer
 70
     0
  3

 72
    65
 73
     0
 40
0.0
  0
LTYPE
  5
16
330
5
100
AcDbSymbolTableRecord
100
AcDbLinetypeTableRecord
  2
Continuous
 70
     0
  3
Solid line
 72
    65
 73
     0
 40
0.0
  0
LTYPE
  5
6E
330
5
100
AcDbSymbolTableRecord
100
AcDbLinetypeTableRecord
  2
HIDDEN
 70
     0
  3
Hidden __ __ __ __ __ __ __ __ __ __ __ __ __ __
 72
    65
 73
     2
 40
1.905
 49
1.27
 74
     0
 49
-0.635
 74
     0
  0
LTYPE
  5
6F
330
5
100
AcDbSymbolTableRecord
100
AcDbLinetypeTableRecord
  2
PHANTOM
 70
     0
  3
Phantom ______  __  __  ______  __  __  ______
 72
    65
 73
     6
 40
12.7
 49
6.35
 74
     0
 49
-1.27
 74
     0
 49
1.27
 74
     0
 49
-1.27
 74
     0
 49
1.27
 74
     0
 49
-1.27
 74
     0
  0
LTYPE
  5
70
330
5
100
AcDbSymbolTableRecord
100
AcDbLinetypeTableRecord
  2
CENTER
 70
     0
  3
Center ____ _ ____ _ ____ _ ____ _ ____ _ ____
 72
    65
 73
     4
 40
10.16
 49
6.35
 74
     0
 49
-1.27
 74
     0
 49
1.27
 74
     0
 49
-1.27
 74
     0
  0
LTYPE
  5
71
330
5
100
AcDbSymbolTableRecord
100
AcDbLinetypeTableRecord
  2
CENTERX2
 70
     0
  3
Center (2x) ________  __  ________  __  _____
 72
    65
 73
     4
 40
20.32
 49
12.7
 74
     0
 49
-2.54
 74
     0
 49
2.54
 74
     0
 49
-2.54
 74
     0
  0
LTYPE
  5
72
330
5
100
AcDbSymbolTableRecord
100
AcDbLinetypeTableRecord
  2
DOT2
 70
     0
  3
Dot (.5x) ........................................
 72
    65
 73
     2
 40
0.635
 49
0.0
 74
     0
 49
-0.635
 74
     0
  0
ENDTAB
  0
TABLE
  2
LAYER
  5
2
330
0
100
AcDbSymbolTable
 70
     1
  0
LAYER
  5
10
330
2
100
AcDbSymbolTableRecord
100
AcDbLayerTableRecord
  2
0
 70
     0
 62
     7
  6
Continuous
370
    -3
390
F
  0
ENDTAB
  0
TABLE
  2
STYLE
  5
3
330
0
100
AcDbSymbolTable
 70
     2
  0
STYLE
  5
11
330
3
100
AcDbSymbolTableRecord
100
AcDbTextStyleTableRecord
  2
Standard
 70
     0
 40
0.0
 41
1.0
 50
0.0
 71
     0
 42
3.5
  3
txt
  4

  0
STYLE
  5
AC
330
3
100
AcDbSymbolTableRecord
100
AcDbTextStyleTableRecord
  2
SLDTEXTSTYLE0
 70
     0
 40
0.0
 41
0.7
 50
0.0
 71
     0
 42
3.5
  3
TXT
  4

  0
ENDTAB
  0
TABLE
  2
VIEW
  5
6
330
0
100
AcDbSymbolTable
 70
     0
  0
ENDTAB
  0
TABLE
  2
UCS
  5
7
330
0
100
AcDbSymbolTable
 70
     0
  0
ENDTAB
  0
TABLE
  2
APPID
  5
9
330
0
100
AcDbSymbolTable
 70
     1
  0
APPID
  5
12
330
9
100
AcDbSymbolTableRecord
100
AcDbRegAppTableRecord
  2
ACAD
 70
     0
  0
ENDTAB
  0
TABLE
  2
DIMSTYLE
  5
A
330
0
100
AcDbSymbolTable
 70
     1
100
AcDbDimStyleTable
  0
DIMSTYLE
105
27
330
A
100
AcDbSymbolTableRecord
100
AcDbDimStyleTableRecord
  2
ISO-25
 70
     0
 41
2.5
 42
0.625
 43
3.75
 44
1.25
 73
     0
 74
     0
 77
     1
 78
     8
140
2.5
141
2.5
143
0.0393700787
147
0.625
171
     3
172
     1
178
     0
271
     2
272
     2
274
     3
278
    44
283
     0
284
     8
340
11
  0
ENDTAB
  0
TABLE
  2
BLOCK_RECORD
  5
1
330
0
100
AcDbSymbolTable
 70
     1
  0
BLOCK_RECORD
  5
1F
330
1
100
AcDbSymbolTableRecord
100
AcDbBlockTableRecord
  2
*Model_Space
340
22
  0
BLOCK_RECORD
  5
1B
330
1
100
AcDbSymbolTableRecord
100
AcDbBlockTableRecord
  2
*Paper_Space
340
1E
  0
BLOCK_RECORD
  5
23
330
1
100
AcDbSymbolTableRecord
100
AcDbBlockTableRecord
  2
*Paper_Space0
340
26
  0
ENDTAB
  0
ENDSEC
  0
SECTION
  2
BLOCKS
  0
BLOCK
  5
20
330
1F
100
AcDbEntity
  8
0
100
AcDbBlockBegin
  2
*Model_Space
 70
     0
 10
0.0
 20
0.0
 30
0.0
  3
*Model_Space
  1

  0
ENDBLK
  5
21
330
1F
100
AcDbEntity
  8
0
100
AcDbBlockEnd
  0
BLOCK
  5
1C
330
1B
100
AcDbEntity
 67
     1
  8
0
100
AcDbBlockBegin
  2
*Paper_Space
 70
     0
 10
0.0
 20
0.0
 30
0.0
  3
*Paper_Space
  1

  0
ENDBLK
  5
1D
330
1B
100
AcDbEntity
 67
     1
  8
0
100
AcDbBlockEnd
  0
BLOCK
  5
24
330
23
100
AcDbEntity
  8
0
100
AcDbBlockBegin
  2
*Paper_Space0
 70
     0
 10
0.0
 20
0.0
 30
0.0
  3
*Paper_Space0
  1

  0
ENDBLK
  5
25
330
23
100
AcDbEntity
  8
0
100
AcDbBlockEnd
  0
ENDSEC
  0
SECTION
  2
ENTITIES
  0
SPLINE
  5
73
330
1F
100
AcDbEntity
  8
0
  6
Continuous
 62
     7
370
    25
100
AcDbSpline
210
0.0
220
0.0
230
1.0
 70
     8
 71
     3
 72
    32
 73
    28
 74
     0
 42
0.000000001
 43
0.00000001
 40
0.0
 40
0.0
 40
0.0
 40
0.0
 40
0.0078125
 40
0.015625
 40
0.03125
 40
0.046875
 40
0.0625
 40
0.09375
 40
0.125
 40
0.15625
 40
0.1875
 40
0.25
 40
0.3125
 40
0.375
 40
0.4375
 40
0.5
 40
0.5625
 40
0.625
 40
0.6875
 40
0.75
 40
0.8125
 40
0.875
 40
0.90625
 40
0.9375
 40
0.96875
 40
0.984375
 40
1.0
 40
1.0
 40
1.0
 40
1.0
 10
20.0
 20
100.0
 30
0.0
 10
20.66129894393713
 20
100.0
 30
0.0
 10
21.99195455502417
 20
99.99300374227815
 30
0.0
 10
24.58858419610096
 20
99.9514542037922
 30
0.0
 10
27.7579422554894
 20
99.84865417258709
 30
0.0
 10
31.42544553959729
 20
99.6465213067335
 30
0.0
 10
36.14022313833345
 20
99.27551561117318
 30
0.0
 10
41.70428865088896
 20
98.62815467566513
 30
0.0
 10
47.8595505182932
 20
97.5796328511427
 30
0.0
 10
53.49796728685237
 20
96.28237753547225
 30
0.0
 10
60.33429874838706
 20
94.25309612582824
 30
0.0
 10
67.61693414228698
 20
91.21679183689915
 30
0.0
 10
74.40496712924069
 20
86.98622216267405
 30
0.0
 10
79.35671722884467
 20
82.38695075658649
 30
0.0
 10
82.65080840601824
 20
77.60242084654394
 30
0.0
 10
84.50521081487275
 20
72.71804172283699
 30
0.0
 10
85.08464277203004
 20
67.703110424435
 30
0.0
 10
84.4245531461374
 20
62.50030283070769
 30
0.0
 10
82.46727811884054
 20
57.13210107163945
 30
0.0
 10
79.14674474621083
 20
51.71572452922722
 30
0.0
 10
74.43068984295446
 20
46.42002037081608
 30
0.0
 10
69.33983871114042
 20
42.26017440951877
 30
0.0
 10
64.58253068855214
 20
39.17391869075673
 30
0.0
 10
60.6781900850017
 20
37.00227889797299
 30
0.0
 10
57.14312952545428
 20
35.32773348843678
 30
0.0
 10
54.1602434594093
 20
34.08379683881923
 30
0.0
 10
52.59815340390583
 20
33.48835320492892
 30
0.0
 10
51.81938642877768
 20
33.20490520655274
 30
0.0
  0
LINE
  5
74
330
1F
100
AcDbEntity
  8
0
  6
Continuous
 62
     7
370
    25
100
AcDbLine
 10
51.8193864288
 20
33.2049052066
 30
0.0
 11
38.7774307517
 21
28.4580215541
 31
0.0
  0
SPLINE
  5
75
330
1F
100
AcDbEntity
  8
0
  6
Continuous
 62
     7
370
    25
100
AcDbSpline
210
0.0
220
0.0
230
1.0
 70
     8
 71
     3
 72
    16
 73
    12
 74
     0
 42
0.000000001
 43
0.00000001
 40
0.826007581197329
 40
0.826007581197329
 40
0.826007581197329
 40
0.826007581197329
 40
0.828125
 40
0.84375
 40
0.859375
 40
0.875
 40
0.8828125
 40
0.890625
 40
0.90625
 40
0.9140625
 40
0.9187220855479639
 40
0.9187220855479639
 40
0.9187220855479639
 40
0.9187220855479639
 10
38.77743075169277
 20
28.45802155407365
 30
0.0
 10
38.63762480470493
 20
28.6362478233337
 30
0.0
 10
37.45514411246335
 20
30.13524723997475
 30
0.0
 10
35.06387668010884
 20
33.0305148372194
 30
0.0
 10
31.35131045125062
 20
37.13919701551514
 30
0.0
 10
28.048261604004
 20
40.43566864600978
 30
0.0
 10
25.20768869040944
 20
42.97009982047784
 30
0.0
 10
22.68666891643462
 20
45.07326567308504
 30
0.0
 10
20.80685189001013
 20
46.65259572586781
 30
0.0
 10
19.81996816303462
 20
47.63643394928594
 30
0.0
 10
19.53116457531214
 20
47.96636289263719
 30
0.0
 10
19.44069605584756
 20
48.07539086820166
 30
0.0
  0
ARC
  5
76
330
1F
100
AcDbEntity
  8
0
  6
Continuous
 62
     7
370
    25
100
AcDbCircle
 10
20.2102629627
 20
48.7139570557
 30
0.0
 40
1.000000000000092
100
AcDbArc
 50
167.2043826894
 51
219.6849866173
  0
LINE
  5
77
330
1F
100
AcDbEntity
  8
0
  6
Continuous
 62
     7
370
    25
100
AcDbLine
 10
19.2350966645
 20
48.9354309612
 30
0.0
 11
19.6328107885
 21
50.6865962246
 31
0.0
  0
ARC
  5
78
330
1F
100
AcDbEntity
  8
0
  6
Continuous
 62
     7
370
    25
100
AcDbCircle
 10
18.6576444902
 20
50.9080701301
 30
0.0
 40
0.9999999999999998
100
AcDbArc
 50
347.2043826894
 51
77.2043826894
  0
LINE
  5
79
330
1F
100
AcDbEntity
  8
0
  6
Continuous
 62
     7
370
    25
100
AcDbLine
 10
18.8791183957
 20
51.8832364283
 30
0.0
 11
18.7783233182
 21
51.9061284002
 31
0.0
  0
ARC
  5
7A
330
1F
100
AcDbEntity
  8
0
  6
Continuous
 62
     7
370
    25
100
AcDbCircle
 10
18.9997972237
 20
52.8812946984
 30
0.0
 40
1.000000000000015
100
AcDbArc
 50
192.6814075519
 51
257.2043826894
  0
SPLINE
  5
7B
330
1F
100
AcDbEntity
  8
0
  6
Continuous
 62
     7
370
    25
100
AcDbSpline
210
0.0
220
0.0
230
1.0
 70
     8
 71
     3
 72
    28
 73
    24
 74
     0
 42
0.000000001
 43
0.00000001
 40
0.9567893565889807
 40
0.9567893565889807
 40
0.9567893565889807
 40
0.9567893565889807
 40
0.9609375
 40
0.96484375
 40
0.96875
 40
0.97265625
 40
0.9765625
 40
0.98046875
 40
0.984375
 40
0.9921875
 40
0.99609375
 40
1.0
 40
1.00390625
 40
1.0078125
 40
1.015625
 40
1.01953125
 40
1.0234375
 40
1.02734375
 40
1.029296875
 40
1.03125
 40
1.03515625
 40
1.0390625
 40
1.043905862717612
 40
1.043905862717612
 40
1.043905862717612
 40
1.043905862717612
 10
18.024191391166
 20
52.66176506601664
 30
0.0
 10
17.91420408761569
 20
53.15055673249684
 30
0.0
 10
17.66782843450959
 20
54.18507682164942
 30
0.0
 10
17.15082550703205
 20
55.98497998002743
 30
0.0
 10
16.39396481915222
 20
58.04647177714013
 30
0.0
 10
15.09719539069034
 20
60.53769627181434
 30
0.0
 10
13.41252887908012
 20
62.78929890098389
 30
0.0
 10
11.40798972995038
 20
64.73679590673221
 30
0.0
 10
8.451488048201336
 20
66.80879854481144
 30
0.0
 10
5.344870138678413
 20
68.04569588181346
 30
0.0
 10
2.40170779780089
 20
68.61835156669567
 30
0.0
 10
0.3419831161769022
 20
68.78111096526415
 30
0.0
 10
-1.750380749798695
 20
68.73001691792632
 30
0.0
 10
-4.818103006752576
 20
68.28977686304933
 30
0.0
 10
-8.141369097634726
 20
67.09574120390346
 30
0.0
 10
-11.24448545456027
 20
64.98004010123702
 30
0.0
 10
-13.29300206225857
 20
63.00818772762473
 30
0.0
 10
-14.68562038052841
 20
61.14197147191997
 30
0.0
 10
-15.59784930704287
 20
59.58498887538919
 30
0.0
 10
-16.3831152386028
 20
57.98613265919589
 30
0.0
 10
-17.03010735229674
 20
56.25899364944618
 30
0.0
 10
-17.58876147134982
 20
54.35229993079492
 30
0.0
 10
-17.85852970224903
 20
53.23170797103199
 30
0.0
 10
-17.98767600134068
 20
52.66686988055768
 30
0.0
  0
ARC
  5
7C
330
1F
100
AcDbEntity
  8
0
  6
Continuous
 62
     7
370
    25
100
AcDbCircle
 10
-18.962519341
 20
52.8897610269
 30
0.0
 40
1.00000000000003
100
AcDbArc
 50
282.7956173106
 51
347.1210990934
  0
LINE
  5
7D
330
1F
100
AcDbEntity
  8
0
  6
Continuous
 62
     7
370
    25
100
AcDbLine
 10
-18.7410454355
 20
51.9145947287
 30
0.0
 11
-18.8791183957
 21
51.8832364283
 31
0.0
  0
ARC
  5
7E
330
1F
100
AcDbEntity
  8
0
  6
Continuous
 62
     7
370
    25
100
AcDbCircle
 10
-18.6576444902
 20
50.9080701301
 30
0.0
 40
0.9999999999999998
100
AcDbArc
 50
102.7956173106
 51
192.7956173106
  0
LINE
  5
7F
330
1F
100
AcDbEntity
  8
0
  6
Continuous
 62
     7
370
    25
100
AcDbLine
 10
-19.6328107885
 20
50.6865962246
 30
0.0
 11
-19.2276235339
 21
48.9025262042
 31
0.0
  0
ARC
  5
80
330
1F
100
AcDbEntity
  8
0
  6
Continuous
 62
     7
370
    25
100
AcDbCircle
 10
-20.2027898322
 20
48.6810522988
 30
0.0
 40
1.000000000000049
100
AcDbArc
 50
321.2425349167
 51
12.7956173106
  0
SPLINE
  5
81
330
1F
100
AcDbEntity
  8
0
  6
Continuous
 62
     7
370
    25
100
AcDbSpline
210
0.0
220
0.0
230
1.0
 70
     8
 71
     3
 72
    16
 73
    12
 74
     0
 42
0.000000001
 43
0.00000001
 40
0.0801602602062586
 40
0.0801602602062586
 40
0.0801602602062586
 40
0.0801602602062586
 40
0.0859375
 40
0.09375
 40
0.109375
 40
0.1171875
 40
0.125
 40
0.140625
 40
0.15625
 40
0.171875
 40
0.1739336310768544
 40
0.1739336310768544
 40
0.1739336310768544
 40
0.1739336310768544
 10
-19.42298690743698
 20
48.05502722051098
 30
0.0
 10
-19.52204862056634
 20
47.93163182260786
 30
0.0
 10
-19.81005355416178
 20
47.59650253761138
 30
0.0
 10
-20.79650284626683
 20
46.61566218460784
 30
0.0
 10
-22.64232254241513
 20
45.08078179235496
 30
0.0
 10
-25.16082469193807
 20
43.00443448250239
 30
0.0
 10
-28.01438988898318
 20
40.48109285243447
 30
0.0
 10
-31.32952756967543
 20
37.18857403529296
 30
0.0
 10
-35.06101524613624
 20
33.06438607295314
 30
0.0
 10
-37.46276695069628
 20
30.14900549256866
 30
0.0
 10
-38.64953381027536
 20
28.63678830833268
 30
0.0
 10
-38.78645222997601
 20
28.46130509265263
 30
0.0
  0
LINE
  5
82
330
1F
100
AcDbEntity
  8
0
  6
Continuous
 62
     7
370
    25
100
AcDbLine
 10
-38.78645223
 20
28.4613050927
 30
0.0
 11
-51.8193864288
 21
33.2049052066
 31
0.0
  0
SPLINE
  5
83
330
1F
100
AcDbEntity
  8
0
  6
Continuous
 62
     7
370
    25
100
AcDbSpline
210
0.0
220
0.0
230
1.0
 70
     8
 71
     3
 72
    32
 73
    28
 74
     0
 42
0.000000001
 43
0.00000001
 40
0.0
 40
0.0
 40
0.0
 40
0.0
 40
0.015625
 40
0.03125
 40
0.0625
 40
0.09375
 40
0.125
 40
0.1875
 40
0.25
 40
0.3125
 40
0.375
 40
0.4375
 40
0.5
 40
0.5625
 40
0.625
 40
0.6875
 40
0.75
 40
0.8125
 40
0.84375
 40
0.875
 40
0.90625
 40
0.9375
 40
0.953125
 40
0.96875
 40
0.984375
 40
0.9921875
 40
1.0
 40
1.0
 40
1.0
 40
1.0
 10
-51.81938642877768
 20
33.20490520655274
 30
0.0
 10
-52.59815340390583
 20
33.48835320492892
 30
0.0
 10
-54.1602434594093
 20
34.08379683881923
 30
0.0
 10
-57.14312952545428
 20
35.32773348843678
 30
0.0
 10
-60.6781900850017
 20
37.00227889797299
 30
0.0
 10
-64.58253068855214
 20
39.17391869075673
 30
0.0
 10
-69.33983871114042
 20
42.26017440951877
 30
0.0
 10
-74.43068984295446
 20
46.42002037081608
 30
0.0
 10
-79.14674474621083
 20
51.71572452922722
 30
0.0
 10
-82.46727811884054
 20
57.13210107163945
 30
0.0
 10
-84.4245531461374
 20
62.50030283070769
 30
0.0
 10
-85.08464277203004
 20
67.703110424435
 30
0.0
 10
-84.50521081487275
 20
72.71804172283699
 30
0.0
 10
-82.65080840601824
 20
77.60242084654394
 30
0.0
 10
-79.35671722884467
 20
82.38695075658649
 30
0.0
 10
-74.40496712924069
 20
86.98622216267405
 30
0.0
 10
-67.61693414228698
 20
91.21679183689915
 30
0.0
 10
-60.33429874838706
 20
94.25309612582824
 30
0.0
 10
-53.49796728685237
 20
96.28237753547225
 30
0.0
 10
-47.8595505182932
 20
97.5796328511427
 30
0.0
 10
-41.70428865088896
 20
98.62815467566513
 30
0.0
 10
-36.14022313833345
 20
99.27551561117318
 30
0.0
 10
-31.42544553959729
 20
99.6465213067335
 30
0.0
 10
-27.7579422554894
 20
99.84865417258709
 30
0.0
 10
-24.58858419610096
 20
99.9514542037922
 30
0.0
 10
-21.99195455502417
 20
99.99300374227815
 30
0.0
 10
-20.66129894393713
 20
100.0
 30
0.0
 10
-20.0
 20
100.0
 30
0.0
  0
LINE
  5
84
330
1F
100
AcDbEntity
  8
0
  6
Continuous
 62
     7
370
    25
100
AcDbLine
 10
-20.0
 20
100.0
 30
0.0
 11
20.0
 21
100.0
 31
0.0
  0
LINE
  5
85
330
1F
100
AcDbEntity
  8
0
  6
Continuous
 62
     7
370
    25
100
AcDbLine
 10
55.1474027909
 20
21.1139819456
 30
0.0
 11
56.0946382203
 21
21.4587474467
 31
0.0
  0
SPLINE
  5
86
330
1F
100
AcDbEntity
  8
0
  6
Continuous
 62
     7
370
    25
100
AcDbSpline
210
0.0
220
0.0
230
1.0
 70
     8
 71
     3
 72
    31
 73
    27
 74
     0
 42
0.000000001
 43
0.00000001
 40
0.0
 40
0.0
 40
0.0
 40
0.0
 40
0.015625
 40
0.03125
 40
0.0625
 40
0.09375
 40
0.125
 40
0.1875
 40
0.25
 40
0.3125
 40
0.375
 40
0.4375
 40
0.5
 40
0.5625
 40
0.625
 40
0.6875
 40
0.75
 40
0.8125
 40
0.84375
 40
0.875
 40
0.90625
 40
0.9375
 40
0.953125
 40
0.96875
 40
0.984375
 40
1.0
 40
1.0
 40
1.0
 40
1.0
 10
56.09463822034856
 20
21.4587474467289
 30
0.0
 10
56.99246217394324
 20
21.78552864144856
 30
0.0
 10
58.78980005210349
 20
22.47062068066334
 30
0.0
 10
62.24996875248849
 20
23.91332049626836
 30
0.0
 10
66.38526205076025
 20
25.87127862340632
 30
0.0
 10
71.01621877865685
 20
28.44554233984429
 30
0.0
 10
76.74588057363573
 20
32.16042942942116
 30
0.0
 10
83.0504219006558
 20
37.29650595510491
 30
0.0
 10
89.17025739509091
 20
44.13887566282394
 30
0.0
 10
93.74695703679681
 20
51.5542943670892
 30
0.0
 10
96.64893320690837
 20
59.42263758359893
 30
0.0
 10
97.71058691896043
 20
67.57207966493517
 30
0.0
 10
96.77478235104861
 20
75.73607737318078
 30
0.0
 10
93.7774818212892
 20
83.56827595151822
 30
0.0
 10
88.78392124471036
 20
90.74894321435956
 30
0.0
 10
81.91258632506174
 20
97.0744588492039
 30
0.0
 10
73.24262062303535
 20
102.4392365824735
 30
0.0
 10
64.53158360134827
 20
106.0503308315297
 30
0.0
 10
56.65605200402443
 20
108.3852189104064
 30
0.0
 10
50.28962073717187
 20
109.8480873504997
 30
0.0
 10
43.45686317935403
 20
111.0105572275233
 30
0.0
 10
37.36723484299523
 20
111.7179720997106
 30
0.0
 10
32.25613840950885
 20
112.1200923160585
 30
0.0
 10
28.29738491927941
 20
112.3379404891288
 30
0.0
 10
24.23157705999665
 20
112.4701817714632
 30
0.0
 10
21.40056439162231
 20
112.5
 30
0.0
 10
20.0
 20
112.5
 30
0.0
  0
LINE
  5
87
330
1F
100
AcDbEntity
  8
0
  6
Continuous
 62
     7
370
    25
100
AcDbLine
 10
20.0
 20
112.5
 30
0.0
 11
-20.0
 21
112.5
 31
0.0
  0
SPLINE
  5
88
330
1F
100
AcDbEntity
  8
0
  6
Continuous
 62
     7
370
    25
100
AcDbSpline
210
0.0
220
0.0
230
1.0
 70
     8
 71
     3
 72
    31
 73
    27
 74
     0
 42
0.000000001
 43
0.00000001
 40
0.0
 40
0.0
 40
0.0
 40
0.0
 40
0.015625
 40
0.03125
 40
0.046875
 40
0.0625
 40
0.09375
 40
0.125
 40
0.15625
 40
0.1875
 40
0.25
 40
0.3125
 40
0.375
 40
0.4375
 40
0.5
 40
0.5625
 40
0.625
 40
0.6875
 40
0.75
 40
0.8125
 40
0.875
 40
0.90625
 40
0.9375
 40
0.96875
 40
0.984375
 40
1.0
 40
1.0
 40
1.0
 40
1.0
 10
-20.0
 20
112.5
 30
0.0
 10
-21.40056439162231
 20
112.5
 30
0.0
 10
-24.23157705999665
 20
112.4701817714632
 30
0.0
 10
-28.29738491927941
 20
112.3379404891288
 30
0.0
 10
-32.25613840950885
 20
112.1200923160585
 30
0.0
 10
-37.36723484299523
 20
111.7179720997106
 30
0.0
 10
-43.45686317935403
 20
111.0105572275233
 30
0.0
 10
-50.28962073717187
 20
109.8480873504997
 30
0.0
 10
-56.65605200402443
 20
108.3852189104064
 30
0.0
 10
-64.53158360134827
 20
106.0503308315297
 30
0.0
 10
-73.24262062303535
 20
102.4392365824735
 30
0.0
 10
-81.91258632506174
 20
97.0744588492039
 30
0.0
 10
-88.78392124471036
 20
90.74894321435956
 30
0.0
 10
-93.7774818212892
 20
83.56827595151822
 30
0.0
 10
-96.77478235104861
 20
75.73607737318078
 30
0.0
 10
-97.71058691896043
 20
67.57207966493517
 30
0.0
 10
-96.64893320690837
 20
59.42263758359893
 30
0.0
 10
-93.74695703679681
 20
51.5542943670892
 30
0.0
 10
-89.17025739509091
 20
44.13887566282394
 30
0.0
 10
-83.0504219006558
 20
37.29650595510491
 30
0.0
 10
-76.74588057363573
 20
32.16042942942116
 30
0.0
 10
-71.01621877865685
 20
28.44554233984429
 30
0.0
 10
-66.38526205076025
 20
25.87127862340632
 30
0.0
 10
-62.24996875248849
 20
23.91332049626836
 30
0.0
 10
-58.78980005210349
 20
22.47062068066334
 30
0.0
 10
-56.99246217394324
 20
21.78552864144856
 30
0.0
 10
-56.09463822034856
 20
21.4587474467289
 30
0.0
  0
LINE
  5
89
330
1F
100
AcDbEntity
  8
0
  6
Continuous
 62
     7
370
    25
100
AcDbLine
 10
-56.0946382203
 20
21.4587474467
 30
0.0
 11
-55.1142560097
 21
21.1019175039
 31
0.0
  0
ARC
  5
8A
330
1F
100
AcDbEntity
  8
0
  6
Continuous
 62
     7
370
    25
100
AcDbCircle
 10
-58.534457443
 20
11.704991296
 30
0.0
 40
9.999999999999993
100
AcDbArc
 50
346.8437664725
 51
70.0
  0
SPLINE
  5
8B
330
1F
100
AcDbEntity
  8
0
  6
Continuous
 62
     7
370
    25
100
AcDbSpline
210
0.0
220
0.0
230
1.0
 70
     8
 71
     3
 72
    13
 73
     9
 74
     0
 42
0.000000001
 43
0.00000001
 40
0.2411699515653095
 40
0.2411699515653095
 40
0.2411699515653095
 40
0.2411699515653095
 40
0.25
 40
0.265625
 40
0.28125
 40
0.296875
 40
0.3125
 40
0.3168823094606467
 40
0.3168823094606467
 40
0.3168823094606467
 40
0.3168823094606467
 10
-48.79692695321877
 20
9.42892012827085
 30
0.0
 10
-49.0282911565635
 20
8.439093440840942
 30
0.0
 10
-49.57184831635889
 20
5.654869231314733
 30
0.0
 10
-50.04803080087615
 20
0.9397562885875367
 30
0.0
 10
-50.145585694351
 20
-5.048231624442735
 30
0.0
 10
-49.79164662862559
 20
-11.50905567567638
 30
0.0
 10
-49.13639936645082
 20
-16.60473947160956
 30
0.0
 10
-48.60086146887975
 20
-19.48182773517367
 30
0.0
 10
-48.47493613969263
 20
-20.11210176521687
 30
0.0
  0
ARC
  5
8C
330
1F
100
AcDbEntity
  8
0
  6
Continuous
 62
     7
370
    25
100
AcDbCircle
 10
-58.2811301054
 20
-22.0713260777
 30
0.0
 40
9.999999999999984
100
AcDbArc
 50
295.0
 51
11.2986144904
  0
LINE
  5
8D
330
1F
100
AcDbEntity
  8
0
  6
Continuous
 62
     7
370
    25
100
AcDbLine
 10
-54.054947488
 20
-31.1344039481
 30
0.0
 11
-58.1115588118
 21
-33.0260328745
 31
0.0
  0
SPLINE
  5
8E
330
1F
100
AcDbEntity
  8
0
  6
Continuous
 62
     7
370
    25
100
AcDbSpline
210
0.0
220
0.0
230
1.0
 70
     8
 71
     3
 72
    32
 73
    28
 74
     0
 42
0.000000001
 43
0.00000001
 40
0.0
 40
0.0
 40
0.0
 40
0.0
 40
0.0078125
 40
0.015625
 40
0.03125
 40
0.046875
 40
0.0625
 40
0.09375
 40
0.125
 40
0.15625
 40
0.1875
 40
0.25
 40
0.3125
 40
0.375
 40
0.4375
 40
0.5
 40
0.5625
 40
0.625
 40
0.6875
 40
0.75
 40
0.8125
 40
0.875
 40
0.90625
 40
0.9375
 40
0.96875
 40
0.984375
 40
1.0
 40
1.0
 40
1.0
 40
1.0
 10
-58.11155881179562
 20
-33.02603287453845
 30
0.0
 10
-58.62125971275984
 20
-33.26371030802657
 30
0.0
 10
-59.66254905654776
 20
-33.7294289520179
 30
0.0
 10
-61.6586675970189
 20
-34.54387616919347
 30
0.0
 10
-64.07121567910993
 20
-35.38481168903224
 30
0.0
 10
-66.80892381562091
 20
-36.11586963108514
 30
0.0
 10
-70.26201196357765
 20
-36.74812190975289
 30
0.0
 10
-74.21704795774365
 20
-36.94150763077774
 30
0.0
 10
-78.47732908880216
 20
-36.35449807939538
 30
0.0
 10
-82.38612580202894
 20
-35.02533302741092
 30
0.0
 10
-87.27833907490025
 20
-32.27729645612471
 30
0.0
 10
-92.9356396249826
 20
-26.94258248555639
 30
0.0
 10
-98.82035791065924
 20
-17.61212135910258
 30
0.0
 10
-103.52950789145
 20
-5.891677792495065
 30
0.0
 10
-106.9509379040991
 20
7.573651365448923
 30
0.0
 10
-109.0537419818701
 20
22.13551869000123
 30
0.0
 10
-109.8511561656167
 20
37.15813923630187
 30
0.0
 10
-109.3788139336982
 20
52.0127790677678
 30
0.0
 10
-107.6897763310589
 20
66.06873633774809
 30
0.0
 10
-104.8600313108266
 20
78.67918109108774
 30
0.0
 10
-101.0174982267871
 20
89.16835218725846
 30
0.0
 10
-97.18449674399898
 20
95.52373846058528
 30
0.0
 10
-94.05709644464085
 20
98.86314207360283
 30
0.0
 10
-91.80797385841069
 20
100.4948244366627
 30
0.0
 10
-90.06266764382451
 20
101.2218612333006
 30
0.0
 10
-88.68226952854488
 20
101.5093962988978
 30
0.0
 10
-87.94410933876709
 20
101.5594271097285
 30
0.0
 10
-87.57978847510637
 20
101.5594271097285
 30
0.0
  0
LINE
  5
8F
330
1F
100
AcDbEntity
  8
0
  6
Continuous
 62
     7
370
    25
100
AcDbLine
 10
-87.5797884751
 20
101.5594271097
 30
0.0
 11
-87.5797884751
 21
114.0594271097
 31
0.0
  0
SPLINE
  5
90
330
1F
100
AcDbEntity
  8
0
  6
Continuous
 62
     7
370
    25
100
AcDbSpline
210
0.0
220
0.0
230
1.0
 70
     8
 71
     3
 72
    30
 73
    26
 74
     0
 42
0.000000001
 43
0.00000001
 40
0.0
 40
0.0
 40
0.0
 40
0.0
 40
0.015625
 40
0.03125
 40
0.0625
 40
0.09375
 40
0.125
 40
0.1875
 40
0.25
 40
0.3125
 40
0.375
 40
0.5
 40
0.625
 40
0.6875
 40
0.75
 40
0.8125
 40
0.84375
 40
0.875
 40
0.90625
 40
0.9375
 40
0.953125
 40
0.96875
 40
0.984375
 40
0.9921875
 40
1.0
 40
1.0
 40
1.0
 40
1.0
 10
-87.57978847510637
 20
114.0594271097285
 30
0.0
 10
-88.5099327743787
 20
114.0594271097285
 30
0.0
 10
-90.38056078395667
 20
113.9326496139463
 30
0.0
 10
-93.98798898258326
 20
113.1835447474645
 30
0.0
 10
-98.18447620431417
 20
111.3795065332024
 30
0.0
 10
-102.5405863555232
 20
108.1427180346472
 30
0.0
 10
-107.5203511044098
 20
102.7429328468914
 30
0.0
 10
-112.4725115793039
 20
94.32267420175125
 30
0.0
 10
-116.9222716161963
 20
82.08052122347482
 30
0.0
 10
-120.0403641851344
 20
68.12107035383835
 30
0.0
 10
-122.4669848241437
 20
47.86763945739414
 30
0.0
 10
-122.21402216158
 20
20.75904464073864
 30
0.0
 10
-117.2736774915819
 20
-5.180810856817019
 30
0.0
 10
-110.0958861804431
 20
-23.14906445479892
 30
0.0
 10
-102.8829378914676
 20
-34.71993591595183
 30
0.0
 10
-95.04520559652586
 20
-42.25440714130823
 30
0.0
 10
-87.54574008207567
 20
-46.49165433362447
 30
0.0
 10
-81.3512998327054
 20
-48.6011564073659
 30
0.0
 10
-74.68692945252394
 20
-49.50719037776841
 30
0.0
 10
-68.84428124338349
 20
-49.20260787472579
 30
0.0
 10
-64.03593891542565
 20
-48.31803194824287
 30
0.0
 10
-60.36731330304773
 20
-47.33541361662181
 30
0.0
 10
-57.25513568432781
 20
-46.24859836212448
 30
0.0
 10
-54.74085760436149
 20
-45.22211354974756
 30
0.0
 10
-53.45957878420786
 20
-44.64900294912134
 30
0.0
 10
-52.82883054003686
 20
-44.35488021249657
 30
0.0
  0
LINE
  5
91
330
1F
100
AcDbEntity
  8
0
  6
Continuous
 62
     7
370
    25
100
AcDbLine
 10
-52.82883054
 20
-44.3548802125
 30
0.0
 11
-47.5192999048
 21
-41.8790054161
 31
0.0
  0
ARC
  5
92
330
1F
100
AcDbEntity
  8
0
  6
Continuous
 62
     7
370
    25
100
AcDbCircle
 10
-43.2931172874
 20
-50.9420832865
 30
0.0
 40
10.00000000000018
100
AcDbArc
 50
47.5585939498
 51
115.0
  0
SPLINE
  5
93
330
1F
100
AcDbEntity
  8
0
  6
Continuous
 62
     7
370
    25
100
AcDbSpline
210
0.0
220
0.0
230
1.0
 70
     8
 71
     3
 72
    24
 73
    20
 74
     0
 42
0.000000001
 43
0.00000001
 40
0.3766911079775648
 40
0.3766911079775648
 40
0.3766911079775648
 40
0.3766911079775648
 40
0.390625
 40
0.40625
 40
0.421875
 40
0.4375
 40
0.453125
 40
0.46875
 40
0.484375
 40
0.5
 40
0.515625
 40
0.53125
 40
0.546875
 40
0.5625
 40
0.578125
 40
0.59375
 40
0.609375
 40
0.625
 40
0.6250030579023296
 40
0.6250030579023296
 40
0.6250030579023296
 40
0.6250030579023296
 10
-36.54475856355537
 20
-43.56240480199567
 30
0.0
 10
-35.10448307402965
 20
-44.87946701344251
 30
0.0
 10
-31.90304439067477
 20
-47.3167233273851
 30
0.0
 10
-26.90024576669726
 20
-49.97290486718402
 30
0.0
 10
-21.88107285140921
 20
-51.81739625080573
 30
0.0
 10
-17.25722063018496
 20
-53.03542717474296
 30
0.0
 10
-12.70708199874419
 20
-53.88261402307511
 30
0.0
 10
-8.301204135604491
 20
-54.39501409976582
 30
0.0
 10
-4.03735559847471
 20
-54.64904855120474
 30
0.0
 10
0.0204979679345818
 20
-54.70927921536862
 30
0.0
 10
4.050607637707511
 20
-54.63877411127927
 30
0.0
 10
8.243750501115096
 20
-54.38225941611223
 30
0.0
 10
12.54360385060639
 20
-53.88575655858414
 30
0.0
 10
16.9691403318028
 20
-53.08232991985196
 30
0.0
 10
21.4316448912586
 20
-51.95781090084957
 30
0.0
 10
26.3606605157444
 20
-50.2501521301813
 30
0.0
 10
31.54381575671474
 20
-47.63946437216509
 30
0.0
 10
34.96366769673737
 20
-45.10220149296529
 30
0.0
 10
36.58530994441231
 20
-43.61083274596904
 30
0.0
 10
36.58562724363825
 20
-43.61054092511786
 30
0.0
  0
ARC
  5
94
330
1F
100
AcDbEntity
  8
0
  6
Continuous
 62
     7
370
    25
100
AcDbCircle
 10
43.3550060193
 20
-50.9709424761
 30
0.0
 40
10.0
100
AcDbArc
 50
65.0
 51
132.6048189264
  0
LINE
  5
95
330
1F
100
AcDbEntity
  8
0
  6
Continuous
 62
     7
370
    25
100
AcDbLine
 10
47.5811886367
 20
-41.9078646057
 30
0.0
 11
52.82883054
 21
-44.3548802125
 31
0.0
  0
SPLINE
  5
96
330
1F
100
AcDbEntity
  8
0
  6
Continuous
 62
     7
370
    25
100
AcDbSpline
210
0.0
220
0.0
230
1.0
 70
     8
 71
     3
 72
    30
 73
    26
 74
     0
 42
0.000000001
 43
0.00000001
 40
0.0
 40
0.0
 40
0.0
 40
0.0
 40
0.0078125
 40
0.015625
 40
0.03125
 40
0.046875
 40
0.0625
 40
0.09375
 40
0.125
 40
0.15625
 40
0.1875
 40
0.25
 40
0.3125
 40
0.375
 40
0.5
 40
0.625
 40
0.6875
 40
0.75
 40
0.8125
 40
0.875
 40
0.90625
 40
0.9375
 40
0.96875
 40
0.984375
 40
1.0
 40
1.0
 40
1.0
 40
1.0
 10
52.82883054003686
 20
-44.35488021249657
 30
0.0
 10
53.45957878420786
 20
-44.64900294912134
 30
0.0
 10
54.74085760436149
 20
-45.22211354974756
 30
0.0
 10
57.25513568432781
 20
-46.24859836212448
 30
0.0
 10
60.36731330304773
 20
-47.33541361662181
 30
0.0
 10
64.03593891542565
 20
-48.31803194824287
 30
0.0
 10
68.84428124338349
 20
-49.20260787472579
 30
0.0
 10
74.68692945252394
 20
-49.50719037776841
 30
0.0
 10
81.35129983270538
 20
-48.6011564073659
 30
0.0
 10
87.5457400820757
 20
-46.49165433362447
 30
0.0
 10
95.04520559652588
 20
-42.25440714130823
 30
0.0
 10
102.8829378914676
 20
-34.71993591595184
 30
0.0
 10
110.0958861804431
 20
-23.14906445479892
 30
0.0
 10
117.2736774915819
 20
-5.180810856817021
 30
0.0
 10
122.21402216158
 20
20.75904464073864
 30
0.0
 10
122.4669848241437
 20
47.86763945739414
 30
0.0
 10
120.0403641851344
 20
68.12107035383835
 30
0.0
 10
116.9222716161964
 20
82.08052122347482
 30
0.0
 10
112.4725115793039
 20
94.32267420175125
 30
0.0
 10
107.5203511044098
 20
102.7429328468914
 30
0.0
 10
102.5405863555232
 20
108.1427180346472
 30
0.0
 10
98.18447620431411
 20
111.3795065332024
 30
0.0
 10
93.98798898258332
 20
113.1835447474645
 30
0.0
 10
90.38056078395667
 20
113.9326496139463
 30
0.0
 10
88.5099327743787
 20
114.0594271097285
 30
0.0
 10
87.57978847510637
 20
114.0594271097285
 30
0.0
  0
LINE
  5
97
330
1F
100
AcDbEntity
  8
0
  6
Continuous
 62
     7
370
    25
100
AcDbLine
 10
87.5797884751
 20
114.0594271097
 30
0.0
 11
87.5797884751
 21
101.5594271097
 31
0.0
  0
SPLINE
  5
98
330
1F
100
AcDbEntity
  8
0
  6
Continuous
 62
     7
370
    25
100
AcDbSpline
210
0.0
220
0.0
230
1.0
 70
     8
 71
     3
 72
    32
 73
    28
 74
     0
 42
0.000000001
 43
0.00000001
 40
0.0
 40
0.0
 40
0.0
 40
0.0
 40
0.015625
 40
0.03125
 40
0.0625
 40
0.09375
 40
0.125
 40
0.1875
 40
0.25
 40
0.3125
 40
0.375
 40
0.4375
 40
0.5
 40
0.5625
 40
0.625
 40
0.6875
 40
0.75
 40
0.8125
 40
0.84375
 40
0.875
 40
0.90625
 40
0.9375
 40
0.953125
 40
0.96875
 40
0.984375
 40
0.9921875
 40
1.0
 40
1.0
 40
1.0
 40
1.0
 10
87.57978847510637
 20
101.5594271097285
 30
0.0
 10
87.94410933876709
 20
101.5594271097285
 30
0.0
 10
88.68226952854488
 20
101.5093962988978
 30
0.0
 10
90.06266764382454
 20
101.2218612333006
 30
0.0
 10
91.80797385841072
 20
100.4948244366627
 30
0.0
 10
94.05709644464085
 20
98.86314207360283
 30
0.0
 10
97.184496743999
 20
95.52373846058528
 30
0.0
 10
101.0174982267871
 20
89.16835218725846
 30
0.0
 10
104.8600313108266
 20
78.67918109108774
 30
0.0
 10
107.689776331059
 20
66.06873633774809
 30
0.0
 10
109.3788139336982
 20
52.0127790677678
 30
0.0
 10
109.8511561656167
 20
37.15813923630187
 30
0.0
 10
109.0537419818702
 20
22.13551869000123
 30
0.0
 10
106.9509379040991
 20
7.573651365448925
 30
0.0
 10
103.5295078914501
 20
-5.891677792495066
 30
0.0
 10
98.82035791065924
 20
-17.61212135910258
 30
0.0
 10
92.9356396249826
 20
-26.94258248555639
 30
0.0
 10
87.27833907490027
 20
-32.27729645612471
 30
0.0
 10
82.38612580202896
 20
-35.02533302741092
 30
0.0
 10
78.47732908880215
 20
-36.35449807939538
 30
0.0
 10
74.21704795774365
 20
-36.94150763077774
 30
0.0
 10
70.26201196357765
 20
-36.74812190975289
 30
0.0
 10
66.80892381562091
 20
-36.11586963108514
 30
0.0
 10
64.07121567910993
 20
-35.38481168903224
 30
0.0
 10
61.6586675970189
 20
-34.54387616919347
 30
0.0
 10
59.66254905654776
 20
-33.7294289520179
 30
0.0
 10
58.62125971275984
 20
-33.26371030802657
 30
0.0
 10
58.11155881179562
 20
-33.02603287453845
 30
0.0
  0
LINE
  5
99
330
1F
100
AcDbEntity
  8
0
  6
Continuous
 62
     7
370
    25
100
AcDbLine
 10
58.1115588118
 20
-33.0260328745
 30
0.0
 11
54.0035561928
 21
-31.1104397936
 31
0.0
  0
ARC
  5
9A
330
1F
100
AcDbEntity
  8
0
  6
Continuous
 62
     7
370
    25
100
AcDbCircle
 10
58.2297388102
 20
-22.0473619232
 30
0.0
 40
10.00000000000002
100
AcDbArc
 50
168.7534124357
 51
245.0
  0
SPLINE
  5
9B
330
1F
100
AcDbEntity
  8
0
  6
Continuous
 62
     7
370
    25
100
AcDbSpline
210
0.0
220
0.0
230
1.0
 70
     8
 71
     3
 72
    13
 73
     9
 74
     0
 42
0.000000001
 43
0.00000001
 40
0.6842196013315113
 40
0.6842196013315113
 40
0.6842196013315113
 40
0.6842196013315113
 40
0.6875
 40
0.703125
 40
0.71875
 40
0.734375
 40
0.75
 40
0.7587489608503134
 40
0.7587489608503134
 40
0.7587489608503134
 40
0.7587489608503134
 10
48.42176983120527
 20
-20.09704284494196
 30
0.0
 10
48.51710669525763
 20
-19.6176028314595
 30
0.0
 10
49.03877289521756
 20
-16.85431068646633
 30
0.0
 10
49.71520304053156
 20
-11.82099799718885
 30
0.0
 10
50.11697638867997
 20
-5.228444327067242
 30
0.0
 10
50.05554488389925
 20
0.8778620454816325
 30
0.0
 10
49.59567771835991
 20
5.65775674137356
 30
0.0
 10
49.05497336162323
 20
8.469262729957537
 30
0.0
 10
48.82518815014367
 20
9.461988324011719
 30
0.0
  0
ARC
  5
9C
330
1F
100
AcDbEntity
  8
0
  6
Continuous
 62
     7
370
    25
100
AcDbCircle
 10
58.5676042242
 20
11.7170557377
 30
0.0
 40
10.00000000000004
100
AcDbArc
 50
110.0
 51
193.0326781584
  0
LINE
  5
9D
330
1F
100
AcDbEntity
  8
0
  6
Continuous
 62
     7
370
    25
100
AcDbLine
 10
2.6156171376
 20
55.5769050336
 30
0.0
 11
0.8642961317
 21
43.5372423762
 31
0.0
  0
ARC
  5
9E
330
1F
100
AcDbEntity
  8
0
  6
Continuous
 62
     7
370
    25
100
AcDbCircle
 10
5.8122226294
 20
42.8175039701
 30
0.0
 40
5.000000000000004
100
AcDbArc
 50
171.7236535072
 51
252.6851118716
  0
LINE
  5
9F
330
1F
100
AcDbEntity
  8
0
  6
Continuous
 62
     7
370
    25
100
AcDbLine
 10
4.3241078513
 20
38.0440864934
 30
0.0
 11
15.9391421832
 21
34.4230949664
 31
0.0
  0
SPLINE
  5
A0
330
1F
100
AcDbEntity
  8
0
  6
Continuous
 62
     7
370
    25
100
AcDbSpline
210
0.0
220
0.0
230
1.0
 70
     8
 71
     3
 72
    11
 73
     7
 74
     0
 42
0.000000001
 43
0.00000001
 40
0.6574875800632409
 40
0.6574875800632409
 40
0.6574875800632409
 40
0.6574875800632409
 40
0.733865383076036
 40
0.8170163240616954
 40
0.8795182264690369
 40
0.8879704339908093
 40
0.8879704339908093
 40
0.8879704339908093
 40
0.8879704339908093
 10
33.46705925886962
 20
-26.72129313947011
 30
0.0
 10
36.77740855191525
 20
-19.07944689604771
 30
0.0
 10
39.07166498392677
 20
4.521002646304269
 30
0.0
 10
33.31339242972024
 20
16.0012572813815
 30
0.0
 10
21.82042973889984
 20
29.42678677902835
 30
0.0
 10
16.55843945615155
 20
33.90316789799346
 30
0.0
 10
15.93914218316245
 20
34.42309496639803
 30
0.0
  0
LINE
  5
A1
330
1F
100
AcDbEntity
  8
0
  6
Continuous
 62
     7
370
    25
100
AcDbLine
 10
33.4670592589
 20
-26.7212931395
 30
0.0
 11
32.8125
 21
-28.125
 31
0.0
  0
SPLINE
  5
A2
330
1F
100
AcDbEntity
  8
0
  6
Continuous
 62
     7
370
    25
100
AcDbSpline
210
0.0
220
0.0
230
1.0
 70
     8
 71
     3
 72
    11
 73
     7
 74
     0
 42
0.000000001
 43
0.00000001
 40
0.3491034460595465
 40
0.3491034460595465
 40
0.3491034460595465
 40
0.3491034460595465
 40
0.4294159926801948
 40
0.5
 40
0.571597831517412
 40
0.6526589018991235
 40
0.6526589018991235
 40
0.6526589018991235
 40
0.6526589018991235
 10
-32.8125
 20
-28.12500000000002
 30
0.0
 10
-29.01715058345195
 20
-35.5114293829586
 30
0.0
 10
-17.12159003432851
 20
-41.35162793299657
 30
0.0
 10
0.1497008318584934
 20
-42.59423358120785
 30
0.0
 10
17.0267411527188
 20
-41.28578393887716
 30
0.0
 10
28.99921122688874
 20
-35.71417907831015
 30
0.0
 10
32.8124999999998
 20
-28.12500000000039
 30
0.0
  0
LINE
  5
A3
330
1F
100
AcDbEntity
  8
0
  6
Continuous
 62
     7
370
    25
100
AcDbLine
 10
-32.8125
 20
-28.125
 30
0.0
 11
-33.670892476
 21
-26.2841713947
 31
0.0
  0
SPLINE
  5
A4
330
1F
100
AcDbEntity
  8
0
  6
Continuous
 62
     7
370
    25
100
AcDbSpline
210
0.0
220
0.0
230
1.0
 70
     8
 71
     3
 72
    10
 73
     6
 74
     0
 42
0.000000001
 43
0.00000001
 40
0.1795948701171008
 40
0.1795948701171008
 40
0.1795948701171008
 40
0.1795948701171008
 40
0.1829836759383044
 40
0.2661346169239639
 40
0.342712230701988
 40
0.342712230701988
 40
0.342712230701988
 40
0.342712230701988
 10
-29.91149565820288
 20
19.49548637850167
 30
0.0
 10
-30.10099571325507
 20
19.24452340912654
 30
0.0
 10
-34.84640036534215
 20
12.89557103480772
 30
0.0
 10
-39.00214343588996
 20
4.263645053130347
 30
0.0
 10
-36.91061820174354
 20
-18.63837899936827
 30
0.0
 10
-33.67089247602053
 20
-26.28417139466059
 30
0.0
  0
LINE
  5
A5
330
1F
100
AcDbEntity
  8
0
  6
Continuous
 62
     7
370
    25
100
AcDbLine
 10
-29.9114956582
 20
19.4954863785
 30
0.0
 11
-28.3876862536
 21
21.4626718587
 31
0.0
  0
SPLINE
  5
A6
330
1F
100
AcDbEntity
  8
0
  6
Continuous
 62
     7
370
    25
100
AcDbSpline
210
0.0
220
0.0
230
1.0
 70
     8
 71
     3
 72
     9
 73
     5
 74
     0
 42
0.000000001
 43
0.00000001
 40
0.1118394112649676
 40
0.1118394112649676
 40
0.1118394112649676
 40
0.1118394112649676
 40
0.120481773530963
 40
0.1709200639087021
 40
0.1709200639087021
 40
0.1709200639087021
 40
0.1709200639087021
 10
-15.90657521055426
 20
34.43324773729
 30
0.0
 10
-16.53597360061443
 20
33.91114064891269
 30
0.0
 10
-20.8952917466972
 20
30.24670512199981
 30
0.0
 10
-25.30871437134993
 20
25.34066704264896
 30
0.0
 10
-28.38768625358887
 20
21.46267185871524
 30
0.0
  0
LINE
  5
A7
330
1F
100
AcDbEntity
  8
0
  6
Continuous
 62
     7
370
    25
100
AcDbLine
 10
-15.9065752077
 20
34.4332477338
 30
0.0
 11
-4.3241078513
 21
38.0440864934
 31
0.0
  0
ARC
  5
A8
330
1F
100
AcDbEntity
  8
0
  6
Continuous
 62
     7
370
    25
100
AcDbCircle
 10
-5.8122226294
 20
42.8175039701
 30
0.0
 40
5.000000000000004
100
AcDbArc
 50
287.3148881284
 51
8.2763464928
  0
LINE
  5
A9
330
1F
100
AcDbEntity
  8
0
  6
Continuous
 62
     7
370
    25
100
AcDbLine
 10
-0.8642961317
 20
43.5372423762
 30
0.0
 11
-2.6156171376
 21
55.5769050336
 31
0.0
  0
LINE
  5
AA
330
1F
100
AcDbEntity
  8
0
  6
Continuous
 62
     7
370
    25
100
AcDbLine
 10
-2.6156171376
 20
55.5769050336
 30
0.0
 11
-2.9065917513
 21
55.5108206291
 31
0.0
  0
SPLINE
  5
AB
330
1F
100
AcDbEntity
  8
0
  6
Continuous
 62
     7
370
    25
100
AcDbSpline
210
0.0
220
0.0
230
1.0
 70
     8
 71
     3
 72
     9
 73
     5
 74
     0
 42
0.000000001
 43
0.00000001
 40
0.9853328994316879
 40
0.9853328994316879
 40
0.9853328994316879
 40
0.9853328994316879
 40
1.0
 40
1.016863496943659
 40
1.016863496943659
 40
1.016863496943659
 40
1.016863496943659
 10
2.615617137564947
 20
55.57690503360195
 30
0.0
 10
1.798756294928655
 20
56.02447844940504
 30
0.0
 10
-0.1501731266779082
 20
56.4576368862535
 30
0.0
 10
-2.032497416802011
 20
56.07066155629725
 30
0.0
 10
-2.906591741506141
 20
55.51082061379831
 30
0.0
  0
MTEXT
  5
AD
330
1F
100
AcDbEntity
  8
0
  6
Continuous
 62
     7
100
AcDbMText
 10
-122.1390739269
 20
-55.7065842172
 30
0.0
 40
4.83362
 41
0.0
 71
     1
 72
     1
  1
SOLIDWORKS Educational Product.
  7
SLDTEXTSTYLE0
 73
     1
 44
1.0
  0
MTEXT
  5
AE
330
1F
100
AcDbEntity
  8
0
  6
Continuous
 62
     7
100
AcDbMText
 10
-122.1390739269
 20
-62.9570142172
 30
0.0
 40
4.83362
 41
0.0
 71
     1
 72
     1
  1
For Instructional Use Only.
  7
SLDTEXTSTYLE0
 73
     1
 44
1.0
  0
ENDSEC
  0
SECTION
  2
OBJECTS
  0
DICTIONARY
  5
C
330
0
100
AcDbDictionary
281
     1
  3
ACAD_GROUP
350
D
  3
ACAD_LAYOUT
350
1A
  3
ACAD_MLINESTYLE
350
17
  3
ACAD_PLOTSETTINGS
350
19
  3
ACAD_PLOTSTYLENAME
350
E
  3
ACAD_SCALELIST
350
47
  0
DICTIONARY
  5
D
102
{ACAD_REACTORS
330
C
102
}
330
C
100
AcDbDictionary
281
     1
  0
DICTIONARY
  5
1A
102
{ACAD_REACTORS
330
C
102
}
330
C
100
AcDbDictionary
281
     1
  3
Layout1
350
1E
  3
Layout2
350
26
  3
Model
350
22
  0
DICTIONARY
  5
17
102
{ACAD_REACTORS
330
C
102
}
330
C
100
AcDbDictionary
281
     1
  3
Standard
350
18
  0
DICTIONARY
  5
19
102
{ACAD_REACTORS
330
C
102
}
330
C
100
AcDbDictionary
281
     1
  0
ACDBDICTIONARYWDFLT
  5
E
102
{ACAD_REACTORS
330
C
102
}
330
C
100
AcDbDictionary
281
     1
  3
Normal
350
F
100
AcDbDictionaryWithDefault
340
F
  0
DICTIONARY
  5
47
102
{ACAD_REACTORS
330
C
102
}
330
C
100
AcDbDictionary
281
     1
  3
A0
350
48
  3
A1
350
49
  3
A2
350
4A
  3
A3
350
4B
  3
A4
350
4C
  3
A5
350
4D
  3
A6
350
4E
  3
A7
350
4F
  3
A8
350
50
  3
A9
350
51
  3
B0
350
52
  3
B1
350
53
  3
B2
350
54
  3
B3
350
55
  3
B4
350
56
  3
B5
350
57
  3
B6
350
58
  3
B7
350
59
  3
B8
350
5A
  3
B9
350
5B
  3
C0
350
5C
  3
C1
350
5D
  3
C2
350
5E
  3
C3
350
5F
  3
C4
350
60
  3
C5
350
61
  3
C6
350
62
  3
C7
350
63
  3
C8
350
64
  3
C9
350
65
  3
D0
350
66
  3
D1
350
67
  3
D2
350
68
  0
LAYOUT
  5
1E
102
{ACAD_REACTORS
330
1A
102
}
330
1A
100
AcDbPlotSettings
  1

  2
none_device
  4

  6

 40
0.0
 41
0.0
 42
0.0
 43
0.0
 44
0.0
 45
0.0
 46
0.0
 47
0.0
 48
0.0
 49
0.0
140
0.0
141
0.0
142
1.0
143
1.0
 70
   688
 72
     1
 73
     0
 74
     5
  7

 75
    16
147
1.0
148
0.0
149
0.0
100
AcDbLayout
  1
Layout1
 70
     1
 71
     1
 10
0.0
 20
0.0
 11
420.0
 21
297.0
 12
0.0
 22
0.0
 32
0.0
 14
1.0000000000E+20
 24
1.0000000000E+20
 34
1.0000000000E+20
 15
-1.0000000000E+20
 25
-1.0000000000E+20
 35
-1.0000000000E+20
146
0.0
 13
0.0
 23
0.0
 33
0.0
 16
1.0
 26
0.0
 36
0.0
 17
0.0
 27
1.0
 37
0.0
 76
     0
330
1B
  0
LAYOUT
  5
26
102
{ACAD_REACTORS
330
1A
102
}
330
1A
100
AcDbPlotSettings
  1

  2
none_device
  4

  6

 40
0.0
 41
0.0
 42
0.0
 43
0.0
 44
0.0
 45
0.0
 46
0.0
 47
0.0
 48
0.0
 49
0.0
140
0.0
141
0.0
142
1.0
143
1.0
 70
   688
 72
     1
 73
     0
 74
     5
  7

 75
    16
147
1.0
148
0.0
149
0.0
100
AcDbLayout
  1
Layout2
 70
     1
 71
     2
 10
0.0
 20
0.0
 11
0.0
 21
0.0
 12
0.0
 22
0.0
 32
0.0
 14
0.0
 24
0.0
 34
0.0
 15
0.0
 25
0.0
 35
0.0
146
0.0
 13
0.0
 23
0.0
 33
0.0
 16
1.0
 26
0.0
 36
0.0
 17
0.0
 27
1.0
 37
0.0
 76
     0
330
23
  0
LAYOUT
  5
22
102
{ACAD_REACTORS
330
1A
102
}
330
1A
100
AcDbPlotSettings
  1

  2
none_device
  4
ANSI_A_(11.00_x_8.50_Inches)
  6

 40
6.35
 41
19.05
 42
6.35000508
 43
19.05000254
 44
279.4
 45
215.9
 46
133.34999746
 47
55.2851117932
 48
0.0
 49
0.0
140
0.0
141
0.0
142
0.0445803282
143
1.0
 70
  1696
 72
     0
 73
     0
 74
     0
  7

 75
     0
147
0.0179189148
148
-1300.4909072572
149
0.0
100
AcDbLayout
  1
Model
 70
     1
 71
     0
 10
0.0
 20
0.0
 11
420.0
 21
297.0
 12
0.0
 22
0.0
 32
0.0
 14
-122.1390739269
 24
-54.6870178255
 34
0.0
 15
122.1390739269
 25
114.0594271097
 35
0.0
146
0.0
 13
0.0
 23
0.0
 33
0.0
 16
1.0
 26
0.0
 36
0.0
 17
0.0
 27
1.0
 37
0.0
 76
     0
330
1F
331
29
  0
MLINESTYLE
  5
18
102
{ACAD_REACTORS
330
17
102
}
330
17
100
AcDbMlineStyle
  2
Standard
 70
     0
  3

 62
   256
 51
90.0
 52
90.0
 71
     2
 49
0.5
 62
   256
  6
BYLAYER
 49
-0.5
 62
   256
  6
BYLAYER
  0
ACDBPLACEHOLDER
  5
F
102
{ACAD_REACTORS
330
E
102
}
330
E
  0
SCALE
  5
48
102
{ACAD_REACTORS
330
47
102
}
330
47
100
AcDbScale
 70
     0
300
1:1
140
1.0
141
1.0
290
     1
  0
SCALE
  5
49
102
{ACAD_REACTORS
330
47
102
}
330
47
100
AcDbScale
 70
     0
300
1:2
140
1.0
141
2.0
290
     0
  0
SCALE
  5
4A
102
{ACAD_REACTORS
330
47
102
}
330
47
100
AcDbScale
 70
     0
300
1:4
140
1.0
141
4.0
290
     0
  0
SCALE
  5
4B
102
{ACAD_REACTORS
330
47
102
}
330
47
100
AcDbScale
 70
     0
300
1:5
140
1.0
141
5.0
290
     0
  0
SCALE
  5
4C
102
{ACAD_REACTORS
330
47
102
}
330
47
100
AcDbScale
 70
     0
300
1:8
140
1.0
141
8.0
290
     0
  0
SCALE
  5
4D
102
{ACAD_REACTORS
330
47
102
}
330
47
100
AcDbScale
 70
     0
300
1:10
140
1.0
141
10.0
290
     0
  0
SCALE
  5
4E
102
{ACAD_REACTORS
330
47
102
}
330
47
100
AcDbScale
 70
     0
300
1:16
140
1.0
141
16.0
290
     0
  0
SCALE
  5
4F
102
{ACAD_REACTORS
330
47
102
}
330
47
100
AcDbScale
 70
     0
300
1:20
140
1.0
141
20.0
290
     0
  0
SCALE
  5
50
102
{ACAD_REACTORS
330
47
102
}
330
47
100
AcDbScale
 70
     0
300
1:30
140
1.0
141
30.0
290
     0
  0
SCALE
  5
51
102
{ACAD_REACTORS
330
47
102
}
330
47
100
AcDbScale
 70
     0
300
1:40
140
1.0
141
40.0
290
     0
  0
SCALE
  5
52
102
{ACAD_REACTORS
330
47
102
}
330
47
100
AcDbScale
 70
     0
300
1:50
140
1.0
141
50.0
290
     0
  0
SCALE
  5
53
102
{ACAD_REACTORS
330
47
102
}
330
47
100
AcDbScale
 70
     0
300
1:100
140
1.0
141
100.0
290
     0
  0
SCALE
  5
54
102
{ACAD_REACTORS
330
47
102
}
330
47
100
AcDbScale
 70
     0
300
2:1
140
2.0
141
1.0
290
     0
  0
SCALE
  5
55
102
{ACAD_REACTORS
330
47
102
}
330
47
100
AcDbScale
 70
     0
300
4:1
140
4.0
141
1.0
290
     0
  0
SCALE
  5
56
102
{ACAD_REACTORS
330
47
102
}
330
47
100
AcDbScale
 70
     0
300
8:1
140
8.0
141
1.0
290
     0
  0
SCALE
  5
57
102
{ACAD_REACTORS
330
47
102
}
330
47
100
AcDbScale
 70
     0
300
10:1
140
10.0
141
1.0
290
     0
  0
SCALE
  5
58
102
{ACAD_REACTORS
330
47
102
}
330
47
100
AcDbScale
 70
     0
300
100:1
140
100.0
141
1.0
290
     0
  0
SCALE
  5
59
102
{ACAD_REACTORS
330
47
102
}
330
47
100
AcDbScale
 70
     0
300
1/128" = 1'-0"
140
0.0078125
141
12.0
290
     0
  0
SCALE
  5
5A
102
{ACAD_REACTORS
330
47
102
}
330
47
100
AcDbScale
 70
     0
300
1/64" = 1'-0"
140
0.015625
141
12.0
290
     0
  0
SCALE
  5
5B
102
{ACAD_REACTORS
330
47
102
}
330
47
100
AcDbScale
 70
     0
300
1/32" = 1'-0"
140
0.03125
141
12.0
290
     0
  0
SCALE
  5
5C
102
{ACAD_REACTORS
330
47
102
}
330
47
100
AcDbScale
 70
     0
300
1/16" = 1'-0"
140
0.0625
141
12.0
290
     0
  0
SCALE
  5
5D
102
{ACAD_REACTORS
330
47
102
}
330
47
100
AcDbScale
 70
     0
300
3/32" = 1'-0"
140
0.09375
141
12.0
290
     0
  0
SCALE
  5
5E
102
{ACAD_REACTORS
330
47
102
}
330
47
100
AcDbScale
 70
     0
300
1/8" = 1'-0"
140
0.125
141
12.0
290
     0
  0
SCALE
  5
5F
102
{ACAD_REACTORS
330
47
102
}
330
47
100
AcDbScale
 70
     0
300
3/16" = 1'-0"
140
0.1875
141
12.0
290
     0
  0
SCALE
  5
60
102
{ACAD_REACTORS
330
47
102
}
330
47
100
AcDbScale
 70
     0
300
1/4" = 1'-0"
140
0.25
141
12.0
290
     0
  0
SCALE
  5
61
102
{ACAD_REACTORS
330
47
102
}
330
47
100
AcDbScale
 70
     0
300
3/8" = 1'-0"
140
0.375
141
12.0
290
     0
  0
SCALE
  5
62
102
{ACAD_REACTORS
330
47
102
}
330
47
100
AcDbScale
 70
     0
300
1/2" = 1'-0"
140
0.5
141
12.0
290
     0
  0
SCALE
  5
63
102
{ACAD_REACTORS
330
47
102
}
330
47
100
AcDbScale
 70
     0
300
3/4" = 1'-0"
140
0.75
141
12.0
290
     0
  0
SCALE
  5
64
102
{ACAD_REACTORS
330
47
102
}
330
47
100
AcDbScale
 70
     0
300
1" = 1'-0"
140
1.0
141
12.0
290
     0
  0
SCALE
  5
65
102
{ACAD_REACTORS
330
47
102
}
330
47
100
AcDbScale
 70
     0
300
1-1/2" = 1'-0"
140
1.5
141
12.0
290
     0
  0
SCALE
  5
66
102
{ACAD_REACTORS
330
47
102
}
330
47
100
AcDbScale
 70
     0
300
3" = 1'-0"
140
3.0
141
12.0
290
     0
  0
SCALE
  5
67
102
{ACAD_REACTORS
330
47
102
}
330
47
100
AcDbScale
 70
     0
300
6" = 1'-0"
140
6.0
141
12.0
290
     0
  0
SCALE
  5
68
102
{ACAD_REACTORS
330
47
102
}
330
47
100
AcDbScale
 70
     0
300
1'-0" = 1'-0"
140
12.0
141
12.0
290
     0
  0
ENDSEC
  0
EOF
