  0
SECTION
  2
HEADER
  9
$ACADVER
  1
AC1015
  9
$ACADMAINTVER
 70
     6
  9
$DWGCODEPAGE
  3
ANSI_1252
  9
$INSBASE
 10
0.0
 20
0.0
 30
0.0
  9
$EXTMIN
 10
-92.2381797406
 20
-132.9632686634
 30
0.0
  9
$EXTMAX
 10
92.2381797406
 20
133.3065263603
 30
0.0
  9
$LIMMIN
 10
0.0
 20
0.0
  9
$LIMMAX
 10
420.0
 20
297.0
  9
$ORTHOMODE
 70
     0
  9
$REGENMODE
 70
     1
  9
$FILLMODE
 70
     1
  9
$QTEXTMODE
 70
     0
  9
$MIRRTEXT
 70
     1
  9
$LTSCALE
 40
1.0
  9
$ATTMODE
 70
     1
  9
$TEXTSIZE
 40
3.5
  9
$TRACEWID
 40
1.0
  9
$TEXTSTYLE
  7
Standard
  9
$CLAYER
  8
0
  9
$CELTYPE
  6
ByLayer
  9
$CECOLOR
 62
   256
  9
$CELTSCALE
 40
1.0
  9
$DISPSILH
 70
     0
  9
$DIMSCALE
 40
1.0
  9
$DIMASZ
 40
3.302
  9
$DIMEXO
 40
1.0
  9
$DIMDLI
 40
3.75
  9
$DIMRND
 40
0.0
  9
$DIMDLE
 40
0.0
  9
$DIMEXE
 40
1.0
  9
$DIMTP
 40
0.0
  9
$DIMTM
 40
0.0
  9
$DIMTXT
 40
3.5
  9
$DIMCEN
 40
2.5
  9
$DIMTSZ
 40
0.0
  9
$DIMTOL
 70
     0
  9
$DIMLIM
 70
     0
  9
$DIMTIH
 70
     1
  9
$DIMTOH
 70
     1
  9
$DIMSE1
 70
     0
  9
$DIMSE2
 70
     0
  9
$DIMTAD
 70
     1
  9
$DIMZIN
 70
     1
  9
$DIMBLK
  1

  9
$DIMASO
 70
     1
  9
$DIMSHO
 70
     1
  9
$DIMPOST
  1

  9
$DIMAPOST
  1

  9
$DIMALT
 70
     0
  9
$DIMALTD
 70
     3
  9
$DIMALTF
 40
0.0393700787
  9
$DIMLFAC
 40
1.0
  9
$DIMTOFL
 70
     1
  9
$DIMTVP
 40
0.0
  9
$DIMTIX
 70
     0
  9
$DIMSOXD
 70
     0
  9
$DIMSAH
 70
     0
  9
$DIMBLK1
  1

  9
$DIMBLK2
  1

  9
$DIMSTYLE
  2
ISO-25
  9
$DIMCLRD
 70
     0
  9
$DIMCLRE
 70
     0
  9
$DIMCLRT
 70
     0
  9
$DIMTFAC
 40
1.0
  9
$DIMGAP
 40
1.524
  9
$DIMJUST
 70
     0
  9
$DIMSD1
 70
     0
  9
$DIMSD2
 70
     0
  9
$DIMTOLJ
 70
     0
  9
$DIMTZIN
 70
     1
  9
$DIMALTZ
 70
     0
  9
$DIMALTTZ
 70
     0
  9
$DIMUPT
 70
     0
  9
$DIMDEC
 70
     2
  9
$DIMTDEC
 70
     2
  9
$DIMALTU
 70
     2
  9
$DIMALTTD
 70
     3
  9
$DIMTXSTY
  7
Standard
  9
$DIMAUNIT
 70
     0
  9
$DIMADEC
 70
     2
  9
$DIMALTRND
 40
0.0
  9
$DIMAZIN
 70
     0
  9
$DIMDSEP
 70
    44
  9
$DIMATFIT
 70
     3
  9
$DIMFRAC
 70
     0
  9
$DIMLDRBLK
  1

  9
$DIMLUNIT
 70
     2
  9
$DIMLWD
 70
    -2
  9
$DIMLWE
 70
    -2
  9
$DIMTMOVE
 70
     0
  9
$LUNITS
 70
     2
  9
$LUPREC
 70
     2
  9
$SKETCHINC
 40
1.0
  9
$FILLETRAD
 40
10.0
  9
$AUNITS
 70
     0
  9
$AUPREC
 70
     2
  9
$MENU
  1
.
  9
$ELEVATION
 40
0.0
  9
$PELEVATION
 40
0.0
  9
$THICKNESS
 40
0.0
  9
$LIMCHECK
 70
     0
  9
$CHAMFERA
 40
0.0
  9
$CHAMFERB
 40
0.0
  9
$CHAMFERC
 40
0.0
  9
$CHAMFERD
 40
0.0
  9
$SKPOLY
 70
     0
  9
$TDCREATE
 40
2459047.492082639
  9
$TDUCREATE
 40
2459047.783749306
  9
$TDUPDATE
 40
2459047.492108507
  9
$TDUUPDATE
 40
2459047.783775174
  9
$TDINDWG
 40
0.0000000116
  9
$TDUSRTIMER
 40
0.0000000116
  9
$USRTIMER
 70
     1
  9
$ANGBASE
 50
0.0
  9
$ANGDIR
 70
     0
  9
$PDMODE
 70
     0
  9
$PDSIZE
 40
-1.0
  9
$PLINEWID
 40
0.0
  9
$SPLFRAME
 70
     0
  9
$SPLINETYPE
 70
     6
  9
$SPLINESEGS
 70
     8
  9
$HANDSEED
  5
8B
  9
$SURFTAB1
 70
     6
  9
$SURFTAB2
 70
     6
  9
$SURFTYPE
 70
     6
  9
$SURFU
 70
     6
  9
$SURFV
 70
     6
  9
$UCSBASE
  2

  9
$UCSNAME
  2

  9
$UCSORG
 10
0.0
 20
0.0
 30
0.0
  9
$UCSXDIR
 10
1.0
 20
0.0
 30
0.0
  9
$UCSYDIR
 10
0.0
 20
1.0
 30
0.0
  9
$UCSORTHOREF
  2

  9
$UCSORTHOVIEW
 70
     0
  9
$UCSORGTOP
 10
0.0
 20
0.0
 30
0.0
  9
$UCSORGBOTTOM
 10
0.0
 20
0.0
 30
0.0
  9
$UCSORGLEFT
 10
0.0
 20
0.0
 30
0.0
  9
$UCSORGRIGHT
 10
0.0
 20
0.0
 30
0.0
  9
$UCSORGFRONT
 10
0.0
 20
0.0
 30
0.0
  9
$UCSORGBACK
 10
0.0
 20
0.0
 30
0.0
  9
$PUCSBASE
  2

  9
$PUCSNAME
  2

  9
$PUCSORG
 10
0.0
 20
0.0
 30
0.0
  9
$PUCSXDIR
 10
1.0
 20
0.0
 30
0.0
  9
$PUCSYDIR
 10
0.0
 20
1.0
 30
0.0
  9
$PUCSORTHOREF
  2

  9
$PUCSORTHOVIEW
 70
     0
  9
$PUCSORGTOP
 10
0.0
 20
0.0
 30
0.0
  9
$PUCSORGBOTTOM
 10
0.0
 20
0.0
 30
0.0
  9
$PUCSORGLEFT
 10
0.0
 20
0.0
 30
0.0
  9
$PUCSORGRIGHT
 10
0.0
 20
0.0
 30
0.0
  9
$PUCSORGFRONT
 10
0.0
 20
0.0
 30
0.0
  9
$PUCSORGBACK
 10
0.0
 20
0.0
 30
0.0
  9
$USERI1
 70
     0
  9
$USERI2
 70
     0
  9
$USERI3
 70
     0
  9
$USERI4
 70
     0
  9
$USERI5
 70
     0
  9
$USERR1
 40
0.0
  9
$USERR2
 40
0.0
  9
$USERR3
 40
0.0
  9
$USERR4
 40
0.0
  9
$USERR5
 40
0.0
  9
$WORLDVIEW
 70
     1
  9
$SHADEDGE
 70
     3
  9
$SHADEDIF
 70
    70
  9
$TILEMODE
 70
     1
  9
$MAXACTVP
 70
    64
  9
$PINSBASE
 10
0.0
 20
0.0
 30
0.0
  9
$PLIMCHECK
 70
     0
  9
$PEXTMIN
 10
1.0000000000E+20
 20
1.0000000000E+20
 30
1.0000000000E+20
  9
$PEXTMAX
 10
-1.0000000000E+20
 20
-1.0000000000E+20
 30
-1.0000000000E+20
  9
$PLIMMIN
 10
0.0
 20
0.0
  9
$PLIMMAX
 10
420.0
 20
297.0
  9
$UNITMODE
 70
     0
  9
$VISRETAIN
 70
     1
  9
$PLINEGEN
 70
     0
  9
$PSLTSCALE
 70
     1
  9
$TREEDEPTH
 70
  3020
  9
$CMLSTYLE
  2
Standard
  9
$CMLJUST
 70
     0
  9
$CMLSCALE
 40
20.0
  9
$PROXYGRAPHICS
 70
     1
  9
$MEASUREMENT
 70
     1
  9
$CELWEIGHT
370
    -1
  9
$ENDCAPS
280
     0
  9
$JOINSTYLE
280
     0
  9
$LWDISPLAY
290
     1
  9
$INSUNITS
 70
     4
  9
$HYPERLINKBASE
  1

  9
$STYLESHEET
  1

  9
$XEDIT
290
     1
  9
$CEPSNTYPE
380
     0
  9
$PSTYLEMODE
290
     1
  9
$FINGERPRINTGUID
  2
{8c8cef1e-39db-418b-a69b-b654e8201212}
  9
$VERSIONGUID
  2
{FAEB1C32-E019-11D5-929B-00C0DF256EC4}
  9
$EXTNAMES
290
     1
  9
$PSVPSCALE
 40
0.0
  9
$OLESTARTUP
290
     0
  0
ENDSEC
  0
SECTION
  2
CLASSES
  0
CLASS
  1
ACDBDICTIONARYWDFLT
  2
AcDbDictionaryWithDefault
  3
ObjectDBX Classes
 90
        0
280
     0
281
     0
  0
CLASS
  1
VISUALSTYLE
  2
AcDbVisualStyle
  3
ObjectDBX Classes
 90
     4095
280
     0
281
     0
  0
CLASS
  1
MATERIAL
  2
AcDbMaterial
  3
ObjectDBX Classes
 90
     1153
280
     0
281
     0
  0
CLASS
  1
SCALE
  2
AcDbScale
  3
ObjectDBX Classes
 90
     1153
280
     0
281
     0
  0
CLASS
  1
TABLESTYLE
  2
AcDbTableStyle
  3
ObjectDBX Classes
 90
     4095
280
     0
281
     0
  0
CLASS
  1
MLEADERSTYLE
  2
AcDbMLeaderStyle
  3
ACDB_MLEADERSTYLE_CLASS
 90
     4095
280
     0
281
     0
  0
CLASS
  1
SUN
  2
AcDbSun
  3
SCENEOE
 90
     1153
280
     0
281
     0
  0
CLASS
  1
ACDBPLACEHOLDER
  2
AcDbPlaceHolder
  3
ObjectDBX Classes
 90
        0
280
     0
281
     0
  0
CLASS
  1
LAYOUT
  2
AcDbLayout
  3
ObjectDBX Classes
 90
        0
280
     0
281
     0
  0
ENDSEC
  0
SECTION
  2
TABLES
  0
TABLE
  2
VPORT
  5
8
330
0
100
AcDbSymbolTable
 70
     1
  0
VPORT
  5
29
330
8
100
AcDbSymbolTableRecord
100
AcDbViewportTableRecord
  2
*Active
 70
     0
 10
0.0
 20
0.0
 11
1.0
 21
1.0
 12
0.0
 22
0.1716288484
 13
0.0
 23
0.0
 14
10.0
 24
10.0
 15
10.0
 25
10.0
 16
0.0
 26
0.0
 36
1.0
 17
0.0
 27
0.0
 37
0.0
 40
271.5951909242
 41
0.6928174465
 42
50.0
 43
0.0
 44
0.0
 50
0.0
 51
0.0
 71
     0
 72
   100
 73
     1
 74
     3
 75
     0
 76
     0
 77
     0
 78
     0
281
     0
 65
     1
110
0.0
120
0.0
130
0.0
111
1.0
121
0.0
131
0.0
112
0.0
122
1.0
132
0.0
 79
     0
146
0.0
  0
ENDTAB
  0
TABLE
  2
LTYPE
  5
5
330
0
100
AcDbSymbolTable
 70
     6
  0
LTYPE
  5
14
330
5
100
AcDbSymbolTableRecord
100
AcDbLinetypeTableRecord
  2
ByBlock
 70
     0
  3

 72
    65
 73
     0
 40
0.0
  0
LTYPE
  5
15
330
5
100
AcDbSymbolTableRecord
100
AcDbLinetypeTableRecord
  2
ByLayer
 70
     0
  3

 72
    65
 73
     0
 40
0.0
  0
LTYPE
  5
16
330
5
100
AcDbSymbolTableRecord
100
AcDbLinetypeTableRecord
  2
Continuous
 70
     0
  3
Solid line
 72
    65
 73
     0
 40
0.0
  0
LTYPE
  5
6E
330
5
100
AcDbSymbolTableRecord
100
AcDbLinetypeTableRecord
  2
HIDDEN
 70
     0
  3
Hidden __ __ __ __ __ __ __ __ __ __ __ __ __ __
 72
    65
 73
     2
 40
1.905
 49
1.27
 74
     0
 49
-0.635
 74
     0
  0
LTYPE
  5
6F
330
5
100
AcDbSymbolTableRecord
100
AcDbLinetypeTableRecord
  2
PHANTOM
 70
     0
  3
Phantom ______  __  __  ______  __  __  ______
 72
    65
 73
     6
 40
12.7
 49
6.35
 74
     0
 49
-1.27
 74
     0
 49
1.27
 74
     0
 49
-1.27
 74
     0
 49
1.27
 74
     0
 49
-1.27
 74
     0
  0
LTYPE
  5
70
330
5
100
AcDbSymbolTableRecord
100
AcDbLinetypeTableRecord
  2
CENTER
 70
     0
  3
Center ____ _ ____ _ ____ _ ____ _ ____ _ ____
 72
    65
 73
     4
 40
10.16
 49
6.35
 74
     0
 49
-1.27
 74
     0
 49
1.27
 74
     0
 49
-1.27
 74
     0
  0
LTYPE
  5
71
330
5
100
AcDbSymbolTableRecord
100
AcDbLinetypeTableRecord
  2
CENTERX2
 70
     0
  3
Center (2x) ________  __  ________  __  _____
 72
    65
 73
     4
 40
20.32
 49
12.7
 74
     0
 49
-2.54
 74
     0
 49
2.54
 74
     0
 49
-2.54
 74
     0
  0
LTYPE
  5
72
330
5
100
AcDbSymbolTableRecord
100
AcDbLinetypeTableRecord
  2
DOT2
 70
     0
  3
Dot (.5x) ........................................
 72
    65
 73
     2
 40
0.635
 49
0.0
 74
     0
 49
-0.635
 74
     0
  0
ENDTAB
  0
TABLE
  2
LAYER
  5
2
330
0
100
AcDbSymbolTable
 70
     1
  0
LAYER
  5
10
330
2
100
AcDbSymbolTableRecord
100
AcDbLayerTableRecord
  2
0
 70
     0
 62
     7
  6
Continuous
370
    -3
390
F
  0
ENDTAB
  0
TABLE
  2
STYLE
  5
3
330
0
100
AcDbSymbolTable
 70
     2
  0
STYLE
  5
11
330
3
100
AcDbSymbolTableRecord
100
AcDbTextStyleTableRecord
  2
Standard
 70
     0
 40
0.0
 41
1.0
 50
0.0
 71
     0
 42
3.5
  3
txt
  4

  0
STYLE
  5
88
330
3
100
AcDbSymbolTableRecord
100
AcDbTextStyleTableRecord
  2
SLDTEXTSTYLE0
 70
     0
 40
0.0
 41
0.7
 50
0.0
 71
     0
 42
3.5
  3
TXT
  4

  0
ENDTAB
  0
TABLE
  2
VIEW
  5
6
330
0
100
AcDbSymbolTable
 70
     0
  0
ENDTAB
  0
TABLE
  2
UCS
  5
7
330
0
100
AcDbSymbolTable
 70
     0
  0
ENDTAB
  0
TABLE
  2
APPID
  5
9
330
0
100
AcDbSymbolTable
 70
     1
  0
APPID
  5
12
330
9
100
AcDbSymbolTableRecord
100
AcDbRegAppTableRecord
  2
ACAD
 70
     0
  0
ENDTAB
  0
TABLE
  2
DIMSTYLE
  5
A
330
0
100
AcDbSymbolTable
 70
     1
100
AcDbDimStyleTable
  0
DIMSTYLE
105
27
330
A
100
AcDbSymbolTableRecord
100
AcDbDimStyleTableRecord
  2
ISO-25
 70
     0
 41
2.5
 42
0.625
 43
3.75
 44
1.25
 73
     0
 74
     0
 77
     1
 78
     8
140
2.5
141
2.5
143
0.0393700787
147
0.625
171
     3
172
     1
178
     0
271
     2
272
     2
274
     3
278
    44
283
     0
284
     8
340
11
  0
ENDTAB
  0
TABLE
  2
BLOCK_RECORD
  5
1
330
0
100
AcDbSymbolTable
 70
     1
  0
BLOCK_RECORD
  5
1F
330
1
100
AcDbSymbolTableRecord
100
AcDbBlockTableRecord
  2
*Model_Space
340
22
  0
BLOCK_RECORD
  5
1B
330
1
100
AcDbSymbolTableRecord
100
AcDbBlockTableRecord
  2
*Paper_Space
340
1E
  0
BLOCK_RECORD
  5
23
330
1
100
AcDbSymbolTableRecord
100
AcDbBlockTableRecord
  2
*Paper_Space0
340
26
  0
ENDTAB
  0
ENDSEC
  0
SECTION
  2
BLOCKS
  0
BLOCK
  5
20
330
1F
100
AcDbEntity
  8
0
100
AcDbBlockBegin
  2
*Model_Space
 70
     0
 10
0.0
 20
0.0
 30
0.0
  3
*Model_Space
  1

  0
ENDBLK
  5
21
330
1F
100
AcDbEntity
  8
0
100
AcDbBlockEnd
  0
BLOCK
  5
1C
330
1B
100
AcDbEntity
 67
     1
  8
0
100
AcDbBlockBegin
  2
*Paper_Space
 70
     0
 10
0.0
 20
0.0
 30
0.0
  3
*Paper_Space
  1

  0
ENDBLK
  5
1D
330
1B
100
AcDbEntity
 67
     1
  8
0
100
AcDbBlockEnd
  0
BLOCK
  5
24
330
23
100
AcDbEntity
  8
0
100
AcDbBlockBegin
  2
*Paper_Space0
 70
     0
 10
0.0
 20
0.0
 30
0.0
  3
*Paper_Space0
  1

  0
ENDBLK
  5
25
330
23
100
AcDbEntity
  8
0
100
AcDbBlockEnd
  0
ENDSEC
  0
SECTION
  2
ENTITIES
  0
SPLINE
  5
73
330
1F
100
AcDbEntity
  8
0
  6
Continuous
 62
     7
370
    25
100
AcDbSpline
210
0.0
220
0.0
230
1.0
 70
     8
 71
     3
 72
   145
 73
   141
 74
     0
 42
0.000000001
 43
0.00000001
 40
0.0039335889484486
 40
0.0039335889484486
 40
0.0039335889484486
 40
0.0039335889484486
 40
0.0078125
 40
0.01171875
 40
0.015625
 40
0.0234375
 40
0.03125
 40
0.0390625
 40
0.046875
 40
0.0625
 40
0.078125
 40
0.09375
 40
0.109375
 40
0.125
 40
0.140625
 40
0.15625
 40
0.171875
 40
0.1796875
 40
0.1875
 40
0.203125
 40
0.21875
 40
0.234375
 40
0.25
 40
0.2578125
 40
0.265625
 40
0.2734375
 40
0.28125
 40
0.2890625
 40
0.296875
 40
0.3125
 40
0.328125
 40
0.3359375
 40
0.34375
 40
0.3515625
 40
0.359375
 40
0.375
 40
0.390625
 40
0.40625
 40
0.4140625
 40
0.421875
 40
0.4296875
 40
0.4375
 40
0.453125
 40
0.46875
 40
0.4765625
 40
0.484375
 40
0.4921875
 40
0.5
 40
0.515625
 40
0.5234375
 40
0.53125
 40
0.5390625
 40
0.546875
 40
0.5546875
 40
0.5625
 40
0.578125
 40
0.5859375
 40
0.59375
 40
0.6015625
 40
0.609375
 40
0.6171875
 40
0.625
 40
0.6328125
 40
0.640625
 40
0.6484375
 40
0.65234375
 40
0.65625
 40
0.66015625
 40
0.6640625
 40
0.671875
 40
0.6796875
 40
0.6875
 40
0.6953125
 40
0.69921875
 40
0.703125
 40
0.7109375
 40
0.71875
 40
0.7265625
 40
0.734375
 40
0.7421875
 40
0.74609375
 40
0.75
 40
0.7578125
 40
0.765625
 40
0.7734375
 40
0.78125
 40
0.78515625
 40
0.7890625
 40
0.796875
 40
0.8046875
 40
0.8125
 40
0.8203125
 40
0.82421875
 40
0.828125
 40
0.83203125
 40
0.8359375
 40
0.84375
 40
0.8515625
 40
0.85546875
 40
0.859375
 40
0.8671875
 40
0.875
 40
0.8828125
 40
0.88671875
 40
0.890625
 40
0.89453125
 40
0.8984375
 40
0.90234375
 40
0.90625
 40
0.9140625
 40
0.91796875
 40
0.921875
 40
0.92578125
 40
0.9296875
 40
0.93359375
 40
0.9375
 40
0.94140625
 40
0.9453125
 40
0.947265625
 40
0.94921875
 40
0.953125
 40
0.95703125
 40
0.9609375
 40
0.962890625
 40
0.96484375
 40
0.96875
 40
0.97265625
 40
0.974609375
 40
0.9765625
 40
0.978515625
 40
0.98046875
 40
0.982421875
 40
0.984375
 40
0.986328125
 40
0.98828125
 40
0.9921875
 40
0.994140625
 40
0.99609375
 40
0.998046875
 40
1.0
 40
1.0
 40
1.0
 40
1.0
 10
-41.06328767934119
 20
24.50460892268719
 30
0.0
 10
-41.62837724461145
 20
25.06753819384403
 30
0.0
 10
-42.7125119186808
 20
26.18233869616141
 30
0.0
 10
-44.26881672233242
 20
27.73748509295345
 30
0.0
 10
-46.33652201013793
 20
29.72885498793694
 30
0.0
 10
-48.86202970314195
 20
32.04142433174815
 30
0.0
 10
-51.8067717459863
 20
34.5850216399526
 30
0.0
 10
-54.66059798331015
 20
36.93751917289495
 30
0.0
 10
-58.34277378506689
 20
39.87712856157565
 30
0.0
 10
-62.70936410681566
 20
43.2886941087907
 30
0.0
 10
-67.54675772488066
 20
47.30916748446438
 30
0.0
 10
-71.93219757641282
 20
51.61032304361093
 30
0.0
 10
-75.77034304718053
 20
56.53276672570971
 30
0.0
 10
-78.94043150628976
 20
62.36729119150103
 30
0.0
 10
-81.33868984343822
 20
69.35345260195702
 30
0.0
 10
-82.98349601295271
 20
77.78769784006647
 30
0.0
 10
-83.53976723057957
 20
86.2273844866989
 30
0.0
 10
-82.92045937443226
 20
93.41439386560856
 30
0.0
 10
-81.4723042936219
 20
100.6901888550509
 30
0.0
 10
-78.17527338415262
 20
109.6742380664487
 30
0.0
 10
-71.89687247225926
 20
119.4817445652221
 30
0.0
 10
-63.32083417152022
 20
127.4569990773894
 30
0.0
 10
-54.30815948873899
 20
131.7756234474735
 30
0.0
 10
-46.05644838739678
 20
133.3329438503705
 30
0.0
 10
-39.55590500931802
 20
133.4124659817646
 30
0.0
 10
-33.044286283684
 20
132.1622217180176
 30
0.0
 10
-26.89785375884211
 20
129.6087262692161
 30
0.0
 10
-21.19371909157774
 20
125.9660555354631
 30
0.0
 10
-14.32276501299772
 20
119.8588350807139
 30
0.0
 10
-7.351976624398094
 20
110.2622172594851
 30
0.0
 10
-3.263265829939646
 20
98.96852070254732
 30
0.0
 10
-2.204355162032977
 20
89.46613259284722
 30
0.0
 10
-2.680426842325672
 20
82.24194548251019
 30
0.0
 10
-4.411940058249604
 20
75.19495687396959
 30
0.0
 10
-8.13690828105768
 20
66.23178752308331
 30
0.0
 10
-15.09374226435438
 20
56.21846897211974
 30
0.0
 10
-26.01481112692583
 20
47.3200595286535
 30
0.0
 10
-36.53536805227281
 20
43.64335981198018
 30
0.0
 10
-45.17452329167261
 20
43.76141036737741
 30
0.0
 10
-51.52183317854909
 20
45.42933608528326
 30
0.0
 10
-57.46820762609805
 20
48.53197844916415
 30
0.0
 10
-64.7159527232167
 20
54.2360186169326
 30
0.0
 10
-72.21275495659805
 20
63.81408329230661
 30
0.0
 10
-76.77034991059223
 20
75.44029355863006
 30
0.0
 10
-78.04755906979602
 20
85.29657181742476
 30
0.0
 10
-77.63738243660178
 20
92.73722326678165
 30
0.0
 10
-75.97864111453079
 20
99.95257796827393
 30
0.0
 10
-72.27267738926726
 20
109.0419914720924
 30
0.0
 10
-66.55400519919527
 20
116.949957213264
 30
0.0
 10
-59.22049245534961
 20
122.8795231393382
 30
0.0
 10
-53.00743396401739
 20
126.1102883262142
 30
0.0
 10
-46.19188918003154
 20
127.8819042969572
 30
0.0
 10
-38.95413325087899
 20
127.9260105502708
 30
0.0
 10
-31.7753468302476
 20
125.8158075361964
 30
0.0
 10
-22.9612767728485
 20
120.5758758090211
 30
0.0
 10
-15.56847812399356
 20
112.4435175181455
 30
0.0
 10
-10.53682637589476
 20
102.566480696161
 30
0.0
 10
-8.211708431061174
 20
94.56065127116013
 30
0.0
 10
-7.624209109875938
 20
86.20861249891354
 30
0.0
 10
-9.114245177980049
 20
77.91844098654313
 30
0.0
 10
-12.34133718638642
 20
70.14913767817886
 30
0.0
 10
-16.97324702683122
 20
63.14378049014302
 30
0.0
 10
-22.71878988775766
 20
57.19830162509693
 30
0.0
 10
-29.31040617183015
 20
52.60962206556439
 30
0.0
 10
-35.30628588970722
 20
50.19900572031197
 30
0.0
 10
-40.2769808189578
 20
49.31155263833755
 30
0.0
 10
-44.10366903944193
 20
49.25712588588045
 30
0.0
 10
-47.99626261443977
 20
49.95940776344125
 30
0.0
 10
-53.04911782303888
 20
51.95850136030322
 30
0.0
 10
-58.92651238134179
 20
56.10651453825064
 30
0.0
 10
-64.97697289759417
 20
63.08418891263741
 30
0.0
 10
-69.60462390608846
 20
71.52413492122317
 30
0.0
 10
-71.87140391956216
 20
79.34279745883907
 30
0.0
 10
-72.45102267821404
 20
85.82583627927664
 30
0.0
 10
-72.10404845586275
 20
92.31153927132839
 30
0.0
 10
-70.10117990368934
 20
100.1463479590845
 30
0.0
 10
-65.67360534873475
 20
108.6104450161245
 30
0.0
 10
-59.64008728185812
 20
115.608813121492
 30
0.0
 10
-52.36287788866387
 20
120.5863655177016
 30
0.0
 10
-45.50344727818571
 20
122.4996117198343
 30
0.0
 10
-39.82319160145659
 20
122.2329498660571
 30
0.0
 10
-34.30420997401271
 20
120.8373464474372
 30
0.0
 10
-27.83161018166206
 20
117.2822866380557
 30
0.0
 10
-21.20435566230076
 20
110.7970694006254
 30
0.0
 10
-16.17985080433786
 20
102.642464840196
 30
0.0
 10
-13.78817129347198
 20
94.87523474454973
 30
0.0
 10
-13.25839852997917
 20
88.34855488387693
 30
0.0
 10
-13.79009552665488
 20
81.70036362022645
 30
0.0
 10
-16.39882004218287
 20
73.63044342112748
 30
0.0
 10
-21.84375328493565
 20
65.0752274496212
 30
0.0
 10
-29.00687876491144
 20
58.4260495802687
 30
0.0
 10
-36.01929420566075
 20
55.18161459446043
 30
0.0
 10
-41.99437603799605
 20
54.5780090702097
 30
0.0
 10
-46.48538333983299
 20
55.24761659471589
 30
0.0
 10
-50.78793307887669
 20
57.0585830037468
 30
0.0
 10
-56.04843332318221
 20
60.70512117925913
 30
0.0
 10
-61.63399192042875
 20
67.17147286031815
 30
0.0
 10
-65.3470782489198
 20
75.32862638542123
 30
0.0
 10
-66.77975203539049
 20
82.39326706366012
 30
0.0
 10
-66.98972361132753
 20
89.67924667675008
 30
0.0
 10
-64.8881623596017
 20
98.55396786493642
 30
0.0
 10
-59.57495265004084
 20
107.7860857345044
 30
0.0
 10
-53.39664480935567
 20
113.4603778359083
 30
0.0
 10
-47.6632359819072
 20
116.1602138362787
 30
0.0
 10
-43.03580124449849
 20
117.0671176941343
 30
0.0
 10
-38.12517828614306
 20
116.4830939702096
 30
0.0
 10
-33.41662845283491
 20
114.3606822368444
 30
0.0
 10
-29.06878483007704
 20
111.0775059763024
 30
0.0
 10
-23.939083160093
 20
105.3984552661429
 30
0.0
 10
-20.18110299759113
 20
98.1239779125351
 30
0.0
 10
-18.6954176075206
 20
89.94392708238358
 30
0.0
 10
-19.03873046492662
 20
83.50950445175
 30
0.0
 10
-20.90912731085594
 20
77.2582092681366
 30
0.0
 10
-23.94649310249075
 20
71.50379862994075
 30
0.0
 10
-27.93122144033829
 20
66.5374627415312
 30
0.0
 10
-32.66578496599379
 20
62.67958688084246
 30
0.0
 10
-38.01785232999087
 20
60.30717013374094
 30
0.0
 10
-42.87448551090211
 20
60.02279780897283
 30
0.0
 10
-46.81198982601829
 20
61.21244383240204
 30
0.0
 10
-50.55242995252463
 20
63.2751692570937
 30
0.0
 10
-54.80506916974613
 20
67.17717634451012
 30
0.0
 10
-58.872671437289
 20
73.46440861444428
 30
0.0
 10
-60.93346335213187
 20
79.66412402386655
 30
0.0
 10
-61.45189753231848
 20
84.9751602731651
 30
0.0
 10
-61.06316985337208
 20
90.39120304340645
 30
0.0
 10
-59.09523878783931
 20
96.88141782683617
 30
0.0
 10
-55.83185140339911
 20
102.5494397908856
 30
0.0
 10
-52.74818131341006
 20
106.2702690619099
 30
0.0
 10
-50.25086093271471
 20
108.5760413570897
 30
0.0
 10
-47.60556308996706
 20
110.3093951063822
 30
0.0
 10
-44.73722843721507
 20
111.3437644442653
 30
0.0
 10
-41.77948876482772
 20
111.3812042197879
 30
0.0
 10
-39.0681501423181
 20
110.4515301466795
 30
0.0
 10
-36.73411164337596
 20
108.8289977353683
 30
0.0
 10
-34.00518905342396
 20
105.9937544391247
 30
0.0
 10
-31.63858952477297
 20
102.3117621387911
 30
0.0
 10
-29.42323067857012
 20
97.9757948000803
 30
0.0
 10
-27.81368819090363
 20
94.44041335242446
 30
0.0
 10
-26.24048058649839
 20
90.69222758123873
 30
0.0
 10
-25.18682304597495
 20
88.04311919142556
 30
0.0
 10
-24.67268576215795
 20
86.73257076244286
 30
0.0
  0
SPLINE
  5
74
330
1F
100
AcDbEntity
  8
0
  6
Continuous
 62
     7
370
    25
100
AcDbSpline
210
0.0
220
0.0
230
1.0
 70
     8
 71
     3
 72
     8
 73
     4
 74
     0
 42
0.000000001
 43
0.00000001
 40
0.9989027635881993
 40
0.9989027635881993
 40
0.9989027635881993
 40
0.9989027635881993
 40
1.0
 40
1.0
 40
1.0
 40
1.0
 10
-41.06328767934224
 20
24.50460892268613
 30
0.0
 10
-41.06667575987745
 20
24.46156746495123
 30
0.0
 10
-41.06945357731772
 20
24.4186414924495
 30
0.0
 10
-41.07161517157445
 20
24.37583109756159
 30
0.0
  0
SPLINE
  5
75
330
1F
100
AcDbEntity
  8
0
  6
Continuous
 62
     7
370
    25
100
AcDbSpline
210
0.0
220
0.0
230
1.0
 70
     8
 71
     3
 72
    18
 73
    14
 74
     0
 42
0.000000001
 43
0.00000001
 40
0.1911958375704371
 40
0.1911958375704371
 40
0.1911958375704371
 40
0.1911958375704371
 40
0.203125
 40
0.21875
 40
0.234375
 40
0.25
 40
0.265625
 40
0.28125
 40
0.296875
 40
0.3125
 40
0.328125
 40
0.34375
 40
0.347798742988463
 40
0.347798742988463
 40
0.347798742988463
 40
0.347798742988463
 10
-41.07161517183864
 20
24.37583109720465
 30
0.0
 10
-41.95580179821746
 20
23.1812804617339
 30
0.0
 10
-43.75022997964868
 20
20.28929023764993
 30
0.0
 10
-45.80484171048882
 20
15.45878074192449
 30
0.0
 10
-47.34838751117551
 20
10.01029806941307
 30
0.0
 10
-48.41999246459215
 20
4.454868395588544
 30
0.0
 10
-49.21720910290388
 20
-1.048797750845855
 30
0.0
 10
-49.85650768674417
 20
-6.674544380068451
 30
0.0
 10
-50.16794263621473
 20
-12.36440955024739
 30
0.0
 10
-50.0054069907825
 20
-18.04347673012217
 30
0.0
 10
-49.19091453991262
 20
-23.6463795453337
 30
0.0
 10
-47.92777913880257
 20
-27.74171254646942
 30
0.0
 10
-46.93779197925374
 20
-29.9387985963982
 30
0.0
 10
-46.7212821300651
 20
-30.3864789081941
 30
0.0
  0
SPLINE
  5
76
330
1F
100
AcDbEntity
  8
0
  6
Continuous
 62
     7
370
    25
100
AcDbSpline
210
0.0
220
0.0
230
1.0
 70
     8
 71
     3
 72
   145
 73
   141
 74
     0
 42
0.000000001
 43
0.00000001
 40
0.0
 40
0.0
 40
0.0
 40
0.0
 40
0.001953125
 40
0.00390625
 40
0.0078125
 40
0.01171875
 40
0.015625
 40
0.017578125
 40
0.01953125
 40
0.021484375
 40
0.0234375
 40
0.02734375
 40
0.03125
 40
0.03515625
 40
0.0390625
 40
0.04296875
 40
0.046875
 40
0.05078125
 40
0.0546875
 40
0.056640625
 40
0.05859375
 40
0.0625
 40
0.06640625
 40
0.0703125
 40
0.072265625
 40
0.07421875
 40
0.076171875
 40
0.078125
 40
0.08203125
 40
0.0859375
 40
0.08984375
 40
0.09375
 40
0.09765625
 40
0.1015625
 40
0.10546875
 40
0.109375
 40
0.11328125
 40
0.1171875
 40
0.119140625
 40
0.12109375
 40
0.123046875
 40
0.125
 40
0.126953125
 40
0.12890625
 40
0.1328125
 40
0.13671875
 40
0.138671875
 40
0.140625
 40
0.142578125
 40
0.14453125
 40
0.1484375
 40
0.15234375
 40
0.15625
 40
0.16015625
 40
0.162109375
 40
0.1640625
 40
0.16796875
 40
0.171875
 40
0.1796875
 40
0.18359375
 40
0.1875
 40
0.19140625
 40
0.1953125
 40
0.203125
 40
0.20703125
 40
0.2109375
 40
0.21484375
 40
0.21875
 40
0.22265625
 40
0.2265625
 40
0.23046875
 40
0.234375
 40
0.2421875
 40
0.25
 40
0.2578125
 40
0.265625
 40
0.2734375
 40
0.28125
 40
0.28515625
 40
0.2890625
 40
0.29296875
 40
0.296875
 40
0.30078125
 40
0.3046875
 40
0.3125
 40
0.3203125
 40
0.328125
 40
0.3359375
 40
0.34375
 40
0.3515625
 40
0.359375
 40
0.3671875
 40
0.375
 40
0.390625
 40
0.40625
 40
0.421875
 40
0.4296875
 40
0.4375
 40
0.4453125
 40
0.453125
 40
0.4609375
 40
0.46875
 40
0.484375
 40
0.5
 40
0.5078125
 40
0.515625
 40
0.5234375
 40
0.53125
 40
0.5390625
 40
0.546875
 40
0.5625
 40
0.578125
 40
0.59375
 40
0.609375
 40
0.625
 40
0.640625
 40
0.65625
 40
0.671875
 40
0.6875
 40
0.703125
 40
0.71875
 40
0.75
 40
0.765625
 40
0.78125
 40
0.8125
 40
0.84375
 40
0.859375
 40
0.875
 40
0.8828125
 40
0.890625
 40
0.90625
 40
0.921875
 40
0.9375
 40
0.953125
 40
0.96875
 40
0.9765625
 40
0.984375
 40
0.9921875
 40
0.99609375
 40
0.9974719535566173
 40
0.9974719535566173
 40
0.9974719535566173
 40
0.9974719535566173
 10
-24.50064505543014
 20
-85.52090779080838
 30
0.0
 10
-24.53056735571872
 20
-86.83785209988856
 30
0.0
 10
-24.79406749938886
 20
-89.48599030637448
 30
0.0
 10
-26.04929628596843
 20
-94.5264683568939
 30
0.0
 10
-28.8377540418339
 20
-100.3106429010651
 30
0.0
 10
-33.71753850966172
 20
-105.9627248053362
 30
0.0
 10
-38.78375893907834
 20
-109.2280072021986
 30
0.0
 10
-43.27308537054761
 20
-110.6785125087451
 30
0.0
 10
-46.80906482563178
 20
-111.0970453477132
 30
0.0
 10
-50.39844485745203
 20
-110.7445237452541
 30
0.0
 10
-55.00602491641028
 20
-109.3663025530948
 30
0.0
 10
-60.34145766286979
 20
-106.2136169304338
 30
0.0
 10
-65.6264829678079
 20
-100.7517830425244
 30
0.0
 10
-69.32096754083645
 20
-94.09169959286363
 30
0.0
 10
-70.76437730201279
 20
-86.6454366152895
 30
0.0
 10
-69.33849081208454
 20
-79.04504940644348
 30
0.0
 10
-65.58447485873329
 20
-71.70759092190926
 30
0.0
 10
-60.09027249512769
 20
-65.38993017989158
 30
0.0
 10
-54.39439902728444
 20
-61.63222359669793
 30
0.0
 10
-49.3163421374908
 20
-60.06988352365396
 30
0.0
 10
-44.04321826343925
 20
-59.65518334377158
 30
0.0
 10
-37.29933009863919
 20
-61.32766364792391
 30
0.0
 10
-29.81080259575463
 20
-65.89539253511875
 30
0.0
 10
-24.61197810472201
 20
-71.23355833468476
 30
0.0
 10
-21.50839614387831
 20
-76.14366053429579
 30
0.0
 10
-19.82330538159053
 20
-80.09006528111982
 30
0.0
 10
-18.95860763345429
 20
-84.22615960501444
 30
0.0
 10
-18.903279478588
 20
-89.68578186009948
 30
0.0
 10
-20.51897014783145
 20
-96.26694408429854
 30
0.0
 10
-24.49394657488008
 20
-103.3988385831118
 30
0.0
 10
-29.97656529599254
 20
-109.4096176699865
 30
0.0
 10
-36.50001103311998
 20
-113.9257950181987
 30
0.0
 10
-43.68975722073492
 20
-116.5204362434502
 30
0.0
 10
-51.06222109710139
 20
-116.6126499082715
 30
0.0
 10
-58.18634539117915
 20
-114.2319815661382
 30
0.0
 10
-64.62118005009793
 20
-109.8340239377669
 30
0.0
 10
-70.01561034689973
 20
-103.7576903636791
 30
0.0
 10
-73.30964156865144
 20
-97.54245924001636
 30
0.0
 10
-74.99730760555391
 20
-92.03177015528263
 30
0.0
 10
-75.74319362208672
 20
-87.66283254426213
 30
0.0
 10
-75.8279839463633
 20
-83.05018802016674
 30
0.0
 10
-74.97238305681799
 20
-78.31334264053217
 30
0.0
 10
-73.22803434967585
 20
-73.75965665607075
 30
0.0
 10
-69.94953184617232
 20
-68.00880748932154
 30
0.0
 10
-64.36218118474547
 20
-61.66091613384286
 30
0.0
 10
-57.53735841606465
 20
-57.08657061051782
 30
0.0
 10
-51.66593076840583
 20
-54.96093443416343
 30
0.0
 10
-47.20861274025359
 20
-54.31095013788541
 30
0.0
 10
-42.85567850800951
 20
-54.50255566843192
 30
0.0
 10
-37.20979313283273
 20
-55.67720170296361
 30
0.0
 10
-30.53767131097976
 20
-58.67079738499773
 30
0.0
 10
-23.5603499598146
 20
-64.14607611900087
 30
0.0
 10
-17.99959730789887
 20
-71.03144162535017
 30
0.0
 10
-14.91298466650305
 20
-77.59210677482088
 30
0.0
 10
-13.6246855339169
 20
-83.12555831940533
 30
0.0
 10
-13.24494608055456
 20
-88.78139398427484
 30
0.0
 10
-14.48605180618168
 20
-95.6947056716068
 30
0.0
 10
-19.27173088713927
 20
-105.93626220687
 30
0.0
 10
-27.20558710164401
 20
-114.3887522692164
 30
0.0
 10
-36.51335109972847
 20
-119.8543478401313
 30
0.0
 10
-43.84975539813986
 20
-122.0852960671449
 30
0.0
 10
-51.05364100719346
 20
-122.022172351197
 30
0.0
 10
-60.26523023594087
 20
-119.2718509714936
 30
0.0
 10
-68.51392303731429
 20
-113.3562823868745
 30
0.0
 10
-74.96170412605096
 20
-105.5758911140734
 30
0.0
 10
-78.65519741009878
 20
-99.08213726015109
 30
0.0
 10
-80.96774443834
 20
-92.18203859185573
 30
0.0
 10
-81.49990826958481
 20
-85.17958642220293
 30
0.0
 10
-80.49237146835766
 20
-78.56655784220925
 30
0.0
 10
-78.38266411953443
 20
-72.37702719864049
 30
0.0
 10
-75.32305524877894
 20
-66.70011549583785
 30
0.0
 10
-70.22314974952079
 20
-59.94145794825481
 30
0.0
 10
-62.35556321445178
 20
-53.2397597271306
 30
0.0
 10
-51.6964951759341
 20
-48.72382767664929
 30
0.0
 10
-41.00841064065013
 20
-48.82142388378281
 30
0.0
 10
-30.3262455102636
 20
-52.82768167077393
 30
0.0
 10
-20.57763035445362
 20
-59.67401763758831
 30
0.0
 10
-14.06511334110475
 20
-67.10510574780498
 30
0.0
 10
-10.38724917793152
 20
-73.73202135379036
 30
0.0
 10
-8.545479845868089
 20
-78.98039609734829
 30
0.0
 10
-7.854758397200272
 20
-84.36678308909384
 30
0.0
 10
-8.151813915400355
 20
-89.57161072720749
 30
0.0
 10
-9.129001439650938
 20
-94.49428870557195
 30
0.0
 10
-11.11351903127694
 20
-100.6685605561339
 30
0.0
 10
-14.75773024438339
 20
-107.6435958660386
 30
0.0
 10
-20.48092543814539
 20
-114.6934732637952
 30
0.0
 10
-27.08848590060634
 20
-120.3340590696482
 30
0.0
 10
-34.13426919359605
 20
-124.4649083629249
 30
0.0
 10
-41.22598165190882
 20
-127.0006851142478
 30
0.0
 10
-47.94182300021094
 20
-127.7115359445989
 30
0.0
 10
-53.98642810693804
 20
-126.9444519586925
 30
0.0
 10
-59.56409708073834
 20
-125.314164315236
 30
0.0
 10
-66.48392286166057
 20
-122.0776764112128
 30
0.0
 10
-73.97520740446265
 20
-116.2953711990586
 30
0.0
 10
-80.85965333517866
 20
-107.3068663739279
 30
0.0
 10
-84.62659865819015
 20
-98.66512114354178
 30
0.0
 10
-86.3171803845191
 20
-91.39161104437676
 30
0.0
 10
-86.88370193661342
 20
-85.80885447808551
 30
0.0
 10
-86.60514083942323
 20
-80.1369483607836
 30
0.0
 10
-85.31407035229505
 20
-74.50726586965706
 30
0.0
 10
-83.13718623330011
 20
-69.11364665091338
 30
0.0
 10
-79.24192165933353
 20
-62.3068117952532
 30
0.0
 10
-72.82255333651649
 20
-54.72494835011113
 30
0.0
 10
-65.09722865260674
 20
-48.90530474047613
 30
0.0
 10
-58.54734807409443
 20
-45.66586969393999
 30
0.0
 10
-53.52901461137203
 20
-44.03929131739945
 30
0.0
 10
-48.54606201832427
 20
-43.36627264264138
 30
0.0
 10
-43.7350868293729
 20
-43.51724678695894
 30
0.0
 10
-39.077655190803
 20
-44.25084825825407
 30
0.0
 10
-32.94057274858385
 20
-45.84411240735718
 30
0.0
 10
-25.54099673652629
 20
-48.97742746594514
 30
0.0
 10
-17.4900474042305
 20
-54.39353773665874
 30
0.0
 10
-10.68309473481466
 20
-61.33652715041305
 30
0.0
 10
-5.557582736586741
 20
-69.65444922421307
 30
0.0
 10
-2.603830354123274
 20
-79.25095410568515
 30
0.0
 10
-2.249848144908993
 20
-89.6495242333225
 30
0.0
 10
-4.059981373781722
 20
-99.44785191973357
 30
0.0
 10
-7.712948296380867
 20
-108.0923194398038
 30
0.0
 10
-12.82884527214546
 20
-115.5762329142578
 30
0.0
 10
-19.04504205041275
 20
-121.8120401799382
 30
0.0
 10
-28.33732824390325
 20
-128.3990877701306
 30
0.0
 10
-38.47529031087809
 20
-132.3007635080037
 30
0.0
 10
-48.21828911316973
 20
-133.219055730352
 30
0.0
 10
-57.9790520078043
 20
-132.1150768982211
 30
0.0
 10
-70.45436402987269
 20
-127.1101991393779
 30
0.0
 10
-81.2654218105182
 20
-117.431958547679
 30
0.0
 10
-87.6596166184839
 20
-106.9598200348516
 30
0.0
 10
-90.4367552442589
 20
-99.32421926487483
 30
0.0
 10
-91.76769856139187
 20
-92.57148293758746
 30
0.0
 10
-92.45405270361321
 20
-85.48745142833478
 30
0.0
 10
-91.99649777405561
 20
-76.52903574965094
 30
0.0
 10
-88.9757439192269
 20
-67.02868456604205
 30
0.0
 10
-83.72458643315194
 20
-58.58852567387279
 30
0.0
 10
-76.51256607808698
 20
-50.95805661965296
 30
0.0
 10
-69.04149702646453
 20
-44.96435297964747
 30
0.0
 10
-62.25852479075555
 20
-40.20542504792973
 30
0.0
 10
-56.78617790614233
 20
-36.61198535790742
 30
0.0
 10
-51.9106825417318
 20
-33.55731377946705
 30
0.0
 10
-48.50315787330602
 20
-31.46965978880632
 30
0.0
 10
-47.09088255032644
 20
-30.61085715340587
 30
0.0
 10
-46.72128213006837
 20
-30.38647890818781
 30
0.0
  0
LINE
  5
77
330
1F
100
AcDbEntity
  8
0
  6
Continuous
 62
     7
370
    25
100
AcDbLine
 10
-29.4993549446
 20
-85.4073320706
 30
0.0
 11
-24.5006450554
 21
-85.5209077908
 31
0.0
  0
SPLINE
  5
78
330
1F
100
AcDbEntity
  8
0
  6
Continuous
 62
     7
370
    25
100
AcDbSpline
210
0.0
220
0.0
230
1.0
 70
     8
 71
     3
 72
   149
 73
   145
 74
     0
 42
0.000000001
 43
0.00000001
 40
0.0025417565559832
 40
0.0025417565559832
 40
0.0025417565559832
 40
0.0025417565559832
 40
0.00390625
 40
0.0078125
 40
0.015625
 40
0.0234375
 40
0.03125
 40
0.046875
 40
0.0625
 40
0.078125
 40
0.09375
 40
0.1015625
 40
0.109375
 40
0.1171875
 40
0.125
 40
0.140625
 40
0.15625
 40
0.1875
 40
0.203125
 40
0.21875
 40
0.234375
 40
0.25
 40
0.28125
 40
0.296875
 40
0.3125
 40
0.328125
 40
0.34375
 40
0.3515625
 40
0.359375
 40
0.375
 40
0.390625
 40
0.40625
 40
0.421875
 40
0.4375
 40
0.453125
 40
0.46875
 40
0.4765625
 40
0.484375
 40
0.5
 40
0.515625
 40
0.53125
 40
0.546875
 40
0.5546875
 40
0.5625
 40
0.578125
 40
0.59375
 40
0.609375
 40
0.625
 40
0.6328125
 40
0.640625
 40
0.6484375
 40
0.65625
 40
0.6640625
 40
0.671875
 40
0.6796875
 40
0.6875
 40
0.6953125
 40
0.69921875
 40
0.703125
 40
0.70703125
 40
0.7109375
 40
0.71484375
 40
0.71875
 40
0.7265625
 40
0.734375
 40
0.7421875
 40
0.74609375
 40
0.75
 40
0.75390625
 40
0.7578125
 40
0.765625
 40
0.7734375
 40
0.77734375
 40
0.78125
 40
0.78515625
 40
0.7890625
 40
0.79296875
 40
0.796875
 40
0.80078125
 40
0.8046875
 40
0.80859375
 40
0.8125
 40
0.814453125
 40
0.81640625
 40
0.8203125
 40
0.82421875
 40
0.828125
 40
0.83203125
 40
0.8359375
 40
0.837890625
 40
0.83984375
 40
0.84375
 40
0.84765625
 40
0.8515625
 40
0.85546875
 40
0.857421875
 40
0.859375
 40
0.861328125
 40
0.86328125
 40
0.8671875
 40
0.87109375
 40
0.875
 40
0.876953125
 40
0.87890625
 40
0.880859375
 40
0.8828125
 40
0.88671875
 40
0.890625
 40
0.89453125
 40
0.8984375
 40
0.90234375
 40
0.90625
 40
0.91015625
 40
0.9140625
 40
0.91796875
 40
0.921875
 40
0.923828125
 40
0.92578125
 40
0.9296875
 40
0.93359375
 40
0.9375
 40
0.939453125
 40
0.94140625
 40
0.943359375
 40
0.9453125
 40
0.94921875
 40
0.953125
 40
0.95703125
 40
0.958984375
 40
0.9609375
 40
0.962890625
 40
0.96484375
 40
0.96875
 40
0.97265625
 40
0.9765625
 40
0.978515625
 40
0.98046875
 40
0.982421875
 40
0.984375
 40
0.98828125
 40
0.9921875
 40
0.99609375
 40
0.998046875
 40
1.0
 40
1.0
 40
1.0
 40
1.0
 10
-44.13708270317077
 20
-34.6669086672341
 30
0.0
 10
-44.5010071331138
 20
-34.88784794671353
 30
0.0
 10
-45.90150653238549
 20
-35.73950290310668
 30
0.0
 10
-49.27768283125365
 20
-37.8079731904506
 30
0.0
 10
-54.09363374807626
 20
-40.82549689217895
 30
0.0
 10
-59.45836158190917
 20
-44.34873632950797
 30
0.0
 10
-66.04534560472067
 20
-48.97084819262775
 30
0.0
 10
-73.16289421308072
 20
-54.69011210758366
 30
0.0
 10
-79.78099055704226
 20
-61.71721827261175
 30
0.0
 10
-84.39664493967894
 20
-69.17099879105133
 30
0.0
 10
-86.57437994759728
 20
-76.01679882222223
 30
0.0
 10
-87.27056006053532
 20
-82.16493739300506
 30
0.0
 10
-87.28001371006688
 20
-87.017835426105
 30
0.0
 10
-86.81156166621838
 20
-91.85386311224434
 30
0.0
 10
-85.60872126205082
 20
-97.94906365088688
 30
0.0
 10
-83.11874609640508
 20
-104.7869224442551
 30
0.0
 10
-77.41481896115329
 20
-114.1302119509743
 30
0.0
 10
-69.67680327725745
 20
-121.0551277313974
 30
0.0
 10
-61.0745941175777
 20
-125.4601327613437
 30
0.0
 10
-54.48351024862317
 20
-127.4740848290987
 30
0.0
 10
-48.16306905253833
 20
-128.1815864233065
 30
0.0
 10
-39.80624144230698
 20
-127.404297787372
 30
0.0
 10
-30.67315051962282
 20
-123.9233038062202
 30
0.0
 10
-22.28745357794108
 20
-117.9737830332938
 30
0.0
 10
-16.69612688070308
 20
-112.3619712237809
 30
0.0
 10
-12.12907268951204
 20
-105.6797392687879
 30
0.0
 10
-9.429051029701291
 20
-99.27238681455877
 30
0.0
 10
-8.082144188559127
 20
-93.66866837116083
 30
0.0
 10
-7.328490350053001
 20
-87.72492610194303
 30
0.0
 10
-7.600302901785587
 20
-80.03138422938552
 30
0.0
 10
-10.15263109631766
 20
-71.7695001231988
 30
0.0
 10
-14.6421724671081
 20
-64.45538837739853
 30
0.0
 10
-20.69750167039033
 20
-58.27481752681153
 30
0.0
 10
-27.93521860378469
 20
-53.39874644878882
 30
0.0
 10
-35.92949815667253
 20
-50.02702095418118
 30
0.0
 10
-42.88291802582099
 20
-48.54828291856791
 30
0.0
 10
-48.31098834626823
 20
-48.38487866279729
 30
0.0
 10
-53.73566640653009
 20
-49.11541966821247
 30
0.0
 10
-60.98146020992951
 20
-52.08902093899648
 30
0.0
 10
-69.35645146316453
 20
-58.38194160577321
 30
0.0
 10
-76.32734821997053
 20
-66.6249924680637
 30
0.0
 10
-80.16772496124706
 20
-74.44827644002252
 30
0.0
 10
-81.62574100734827
 20
-80.81714218578709
 30
0.0
 10
-81.94457657610721
 20
-87.26971979268981
 30
0.0
 10
-80.5371647307225
 20
-95.49021507377427
 30
0.0
 10
-76.50771110409677
 20
-104.7495515732294
 30
0.0
 10
-70.37839011327534
 20
-112.7425487058264
 30
0.0
 10
-63.793581891325
 20
-117.8109668495618
 30
0.0
 10
-57.79868870846747
 20
-120.6162835488707
 30
0.0
 10
-52.93434594803315
 20
-122.0353032308459
 30
0.0
 10
-47.85656842950458
 20
-122.6642380024597
 30
0.0
 10
-42.43812932616839
 20
-122.0995713473491
 30
0.0
 10
-36.29597056046304
 20
-119.9268711076055
 30
0.0
 10
-30.01391146376466
 20
-116.2476891939492
 30
0.0
 10
-24.07841426618645
 20
-111.1819652230832
 30
0.0
 10
-18.95803608985208
 20
-104.8696537733708
 30
0.0
 10
-15.73033024598475
 20
-98.68466059381925
 30
0.0
 10
-13.98069501331813
 20
-93.24017345816374
 30
0.0
 10
-13.12278519074873
 20
-88.91242219751666
 30
0.0
 10
-12.88363110594223
 20
-84.505661807456
 30
0.0
 10
-13.43929490618218
 20
-80.17171894895873
 30
0.0
 10
-14.95676463210875
 20
-75.82057879335983
 30
0.0
 10
-18.12513224841455
 20
-70.09128857788333
 30
0.0
 10
-23.93732921459715
 20
-63.43791673377319
 30
0.0
 10
-32.72879850255772
 20
-57.26499895365038
 30
0.0
 10
-40.53706323834352
 20
-54.38532787575529
 30
0.0
 10
-46.37034447038118
 20
-53.79787775457884
 30
0.0
 10
-50.64543974190003
 20
-54.22749368618565
 30
0.0
 10
-55.07708091942326
 20
-55.61760795833849
 30
0.0
 10
-61.02040439477656
 20
-58.70107107813149
 30
0.0
 10
-67.99168641533825
 20
-64.62766924224745
 30
0.0
 10
-73.17285943852764
 20
-72.60455198504852
 30
0.0
 10
-75.61336700391182
 20
-79.7680164978963
 30
0.0
 10
-76.45963491736174
 20
-85.42143983220359
 30
0.0
 10
-76.02830948998569
 20
-91.1211427368322
 30
0.0
 10
-74.07685179164133
 20
-96.99867657783305
 30
0.0
 10
-70.83452210742612
 20
-102.7094865778725
 30
0.0
 10
-66.54198850139606
 20
-107.8914598832886
 30
0.0
 10
-61.47931740532677
 20
-112.2071358659683
 30
0.0
 10
-55.93745095599002
 20
-115.3434525949351
 30
0.0
 10
-50.25150779460596
 20
-117.0162427131043
 30
0.0
 10
-45.55395701418747
 20
-117.0524447236722
 30
0.0
 10
-41.63354569367251
 20
-116.1731117129121
 30
0.0
 10
-37.58659549988406
 20
-114.6666071869348
 30
0.0
 10
-32.51027430761079
 20
-111.7027847391574
 30
0.0
 10
-26.92944214686784
 20
-106.7377494936189
 30
0.0
 10
-22.36757393375128
 20
-100.7422785558159
 30
0.0
 10
-19.2892334367129
 20
-94.11647983004954
 30
0.0
 10
-18.28568970629504
 20
-88.4080260952408
 30
0.0
 10
-18.58901229565555
 20
-83.88754752266452
 30
0.0
 10
-19.6435705946963
 20
-79.3282507276532
 30
0.0
 10
-22.26020021881622
 20
-73.73668896420239
 30
0.0
 10
-27.10069234173063
 20
-67.7347931101606
 30
0.0
 10
-33.17714797755186
 20
-62.97456191619549
 30
0.0
 10
-38.84558952249868
 20
-60.44590737189387
 30
0.0
 10
-43.49776198706008
 20
-59.48282012188679
 30
0.0
 10
-46.97320441300556
 20
-59.33672678670149
 30
0.0
 10
-50.41457350616279
 20
-59.83744801792248
 30
0.0
 10
-55.1199244792612
 20
-61.52723001447455
 30
0.0
 10
-61.0143896419539
 20
-65.44065563917107
 30
0.0
 10
-66.87582865541508
 20
-72.11250756911096
 30
0.0
 10
-69.91714952228372
 20
-78.47186978457704
 30
0.0
 10
-70.80870343712036
 20
-83.4270601183725
 30
0.0
 10
-70.74951243298257
 20
-87.16669599638801
 30
0.0
 10
-70.11890025450191
 20
-90.87557658587103
 30
0.0
 10
-68.68107780758933
 20
-95.57051155442666
 30
0.0
 10
-65.86457306714283
 20
-100.8865806229178
 30
0.0
 10
-61.26357387784527
 20
-106.0632887653204
 30
0.0
 10
-55.88159899521533
 20
-109.724092702081
 30
0.0
 10
-50.22179021651205
 20
-111.5824322016022
 30
0.0
 10
-44.66751749687943
 20
-111.5178611365189
 30
0.0
 10
-38.87707125404876
 20
-109.4650778102624
 30
0.0
 10
-33.30551792749958
 20
-105.6252465183846
 30
0.0
 10
-28.57664457714855
 20
-100.4376325895219
 30
0.0
 10
-25.20979305007488
 20
-94.37330096006949
 30
0.0
 10
-23.91180470044074
 20
-88.99916329610183
 30
0.0
 10
-23.96524361917173
 20
-84.74808361605535
 30
0.0
 10
-24.82765694285828
 20
-80.60092108433109
 30
0.0
 10
-27.61750680601338
 20
-75.34549037569136
 30
0.0
 10
-32.96717805287366
 20
-69.83337587233056
 30
0.0
 10
-38.28904944087144
 20
-66.61410988732585
 30
0.0
 10
-42.53084431524216
 20
-65.20584123935575
 30
0.0
 10
-45.53224913491121
 20
-64.79695499367638
 30
0.0
 10
-48.36684634042484
 20
-65.02176165785495
 30
0.0
 10
-52.08218810647807
 20
-66.15136373888261
 30
0.0
 10
-56.71241114675543
 20
-69.151861500711
 30
0.0
 10
-61.409126197147
 20
-74.53965301568414
 30
0.0
 10
-64.04777719018051
 20
-79.73444661873815
 30
0.0
 10
-65.11466057483919
 20
-83.76025628529474
 30
0.0
 10
-65.37259673910968
 20
-86.63011993974153
 30
0.0
 10
-65.1119202525617
 20
-89.43410263437384
 30
0.0
 10
-64.06839023977972
 20
-93.19383587837989
 30
0.0
 10
-61.57686386706116
 20
-97.72812957245613
 30
0.0
 10
-57.18150474997177
 20
-102.2642100597262
 30
0.0
 10
-52.87866597228753
 20
-104.7841901301727
 30
0.0
 10
-49.39354809000402
 20
-105.8136218288144
 30
0.0
 10
-46.86335553361917
 20
-106.0583438633452
 30
0.0
 10
-44.36440045485327
 20
-105.7657564272133
 30
0.0
 10
-41.0516809689705
 20
-104.7041046850715
 30
0.0
 10
-37.08021461234796
 20
-102.1722789576212
 30
0.0
 10
-33.07251888394951
 20
-97.54762549253509
 30
0.0
 10
-30.76479900506727
 20
-92.75897285821976
 30
0.0
 10
-29.73686056504557
 20
-88.62131585397698
 30
0.0
 10
-29.52366337670199
 20
-86.47719805853751
 30
0.0
 10
-29.49935494456979
 20
-85.407332070615
 30
0.0
  0
SPLINE
  5
79
330
1F
100
AcDbEntity
  8
0
  6
Continuous
 62
     7
370
    25
100
AcDbSpline
210
0.0
220
0.0
230
1.0
 70
     8
 71
     3
 72
    25
 73
    21
 74
     0
 42
0.000000001
 43
0.00000001
 40
0.3612988467584215
 40
0.3612988467584215
 40
0.3612988467584215
 40
0.3612988467584215
 40
0.375
 40
0.390625
 40
0.40625
 40
0.421875
 40
0.4375
 40
0.453125
 40
0.46875
 40
0.484375
 40
0.5
 40
0.515625
 40
0.53125
 40
0.546875
 40
0.5625
 40
0.578125
 40
0.59375
 40
0.609375
 40
0.625
 40
0.638701153241712
 40
0.638701153241712
 40
0.638701153241712
 40
0.638701153241712
 10
-44.13708270314599
 20
-34.66690866727662
 30
0.0
 10
-43.1360891099317
 20
-36.02629757015775
 30
0.0
 10
-40.75353218554904
 20
-38.71194281007416
 30
0.0
 10
-36.53175956805858
 20
-42.20653470941003
 30
0.0
 10
-31.70296712537798
 20
-45.27367832591127
 30
0.0
 10
-26.61471203156412
 20
-47.87358548316071
 30
0.0
 10
-21.42178446591723
 20
-50.08078529009252
 30
0.0
 10
-16.28840394470977
 20
-51.98919776512322
 30
0.0
 10
-11.01310174826501
 20
-53.59617350162596
 30
0.0
 10
-5.608553422809871
 20
-54.70769408965375
 30
0.0
 10
0.0000000000000236
 20
-55.14615295517311
 30
0.0
 10
5.608553422809922
 20
-54.70769408965374
 30
0.0
 10
11.01310174826504
 20
-53.59617350162593
 30
0.0
 10
16.28840394470981
 20
-51.98919776512323
 30
0.0
 10
21.42178446591725
 20
-50.0807852900925
 30
0.0
 10
26.61471203156412
 20
-47.87358548316072
 30
0.0
 10
31.70296712537799
 20
-45.27367832591125
 30
0.0
 10
36.53175956805858
 20
-42.20653470941002
 30
0.0
 10
40.75353218556158
 20
-38.7119428100638
 30
0.0
 10
43.1360891099534
 20
-36.02629757013331
 30
0.0
 10
44.13708270317527
 20
-34.66690866723689
 30
0.0
  0
SPLINE
  5
7A
330
1F
100
AcDbEntity
  8
0
  6
Continuous
 62
     7
370
    25
100
AcDbSpline
210
0.0
220
0.0
230
1.0
 70
     8
 71
     3
 72
   149
 73
   145
 74
     0
 42
0.000000001
 43
0.00000001
 40
0.0025417565559879
 40
0.0025417565559879
 40
0.0025417565559879
 40
0.0025417565559879
 40
0.00390625
 40
0.0078125
 40
0.015625
 40
0.0234375
 40
0.03125
 40
0.046875
 40
0.0625
 40
0.078125
 40
0.09375
 40
0.1015625
 40
0.109375
 40
0.1171875
 40
0.125
 40
0.140625
 40
0.15625
 40
0.1875
 40
0.203125
 40
0.21875
 40
0.234375
 40
0.25
 40
0.28125
 40
0.296875
 40
0.3125
 40
0.328125
 40
0.34375
 40
0.3515625
 40
0.359375
 40
0.375
 40
0.390625
 40
0.40625
 40
0.421875
 40
0.4375
 40
0.453125
 40
0.46875
 40
0.4765625
 40
0.484375
 40
0.5
 40
0.515625
 40
0.53125
 40
0.546875
 40
0.5546875
 40
0.5625
 40
0.578125
 40
0.59375
 40
0.609375
 40
0.625
 40
0.6328125
 40
0.640625
 40
0.6484375
 40
0.65625
 40
0.6640625
 40
0.671875
 40
0.6796875
 40
0.6875
 40
0.6953125
 40
0.69921875
 40
0.703125
 40
0.70703125
 40
0.7109375
 40
0.71484375
 40
0.71875
 40
0.7265625
 40
0.734375
 40
0.7421875
 40
0.74609375
 40
0.75
 40
0.75390625
 40
0.7578125
 40
0.765625
 40
0.7734375
 40
0.77734375
 40
0.78125
 40
0.78515625
 40
0.7890625
 40
0.79296875
 40
0.796875
 40
0.80078125
 40
0.8046875
 40
0.80859375
 40
0.8125
 40
0.814453125
 40
0.81640625
 40
0.8203125
 40
0.82421875
 40
0.828125
 40
0.83203125
 40
0.8359375
 40
0.837890625
 40
0.83984375
 40
0.84375
 40
0.84765625
 40
0.8515625
 40
0.85546875
 40
0.857421875
 40
0.859375
 40
0.861328125
 40
0.86328125
 40
0.8671875
 40
0.87109375
 40
0.875
 40
0.876953125
 40
0.87890625
 40
0.880859375
 40
0.8828125
 40
0.88671875
 40
0.890625
 40
0.89453125
 40
0.8984375
 40
0.90234375
 40
0.90625
 40
0.91015625
 40
0.9140625
 40
0.91796875
 40
0.921875
 40
0.923828125
 40
0.92578125
 40
0.9296875
 40
0.93359375
 40
0.9375
 40
0.939453125
 40
0.94140625
 40
0.943359375
 40
0.9453125
 40
0.94921875
 40
0.953125
 40
0.95703125
 40
0.958984375
 40
0.9609375
 40
0.962890625
 40
0.96484375
 40
0.96875
 40
0.97265625
 40
0.9765625
 40
0.978515625
 40
0.98046875
 40
0.982421875
 40
0.984375
 40
0.98828125
 40
0.9921875
 40
0.99609375
 40
0.998046875
 40
1.0
 40
1.0
 40
1.0
 40
1.0
 10
44.13708270317453
 20
-34.66690866723638
 30
0.0
 10
44.50100713311628
 20
-34.88784794671505
 30
0.0
 10
45.9015065323867
 20
-35.73950290310742
 30
0.0
 10
49.27768283125365
 20
-37.8079731904506
 30
0.0
 10
54.09363374807626
 20
-40.82549689217895
 30
0.0
 10
59.45836158190917
 20
-44.34873632950797
 30
0.0
 10
66.04534560472067
 20
-48.97084819262775
 30
0.0
 10
73.16289421308072
 20
-54.69011210758366
 30
0.0
 10
79.78099055704226
 20
-61.71721827261175
 30
0.0
 10
84.39664493967894
 20
-69.17099879105133
 30
0.0
 10
86.57437994759728
 20
-76.01679882222223
 30
0.0
 10
87.27056006053532
 20
-82.16493739300506
 30
0.0
 10
87.28001371006688
 20
-87.017835426105
 30
0.0
 10
86.81156166621838
 20
-91.85386311224434
 30
0.0
 10
85.60872126205082
 20
-97.94906365088688
 30
0.0
 10
83.11874609640508
 20
-104.7869224442551
 30
0.0
 10
77.41481896115329
 20
-114.1302119509743
 30
0.0
 10
69.67680327725745
 20
-121.0551277313974
 30
0.0
 10
61.0745941175777
 20
-125.4601327613437
 30
0.0
 10
54.48351024862317
 20
-127.4740848290987
 30
0.0
 10
48.16306905253833
 20
-128.1815864233065
 30
0.0
 10
39.80624144230698
 20
-127.404297787372
 30
0.0
 10
30.67315051962282
 20
-123.9233038062202
 30
0.0
 10
22.28745357794108
 20
-117.9737830332938
 30
0.0
 10
16.69612688070308
 20
-112.3619712237809
 30
0.0
 10
12.12907268951204
 20
-105.6797392687879
 30
0.0
 10
9.429051029701291
 20
-99.27238681455877
 30
0.0
 10
8.082144188559127
 20
-93.66866837116083
 30
0.0
 10
7.328490350053001
 20
-87.72492610194303
 30
0.0
 10
7.600302901785587
 20
-80.03138422938552
 30
0.0
 10
10.15263109631766
 20
-71.7695001231988
 30
0.0
 10
14.6421724671081
 20
-64.45538837739853
 30
0.0
 10
20.69750167039033
 20
-58.27481752681153
 30
0.0
 10
27.93521860378469
 20
-53.39874644878882
 30
0.0
 10
35.92949815667253
 20
-50.02702095418118
 30
0.0
 10
42.88291802582099
 20
-48.54828291856791
 30
0.0
 10
48.31098834626823
 20
-48.38487866279729
 30
0.0
 10
53.73566640653009
 20
-49.11541966821247
 30
0.0
 10
60.98146020992951
 20
-52.08902093899648
 30
0.0
 10
69.35645146316453
 20
-58.38194160577321
 30
0.0
 10
76.32734821997053
 20
-66.6249924680637
 30
0.0
 10
80.16772496124706
 20
-74.44827644002252
 30
0.0
 10
81.62574100734827
 20
-80.81714218578709
 30
0.0
 10
81.94457657610721
 20
-87.26971979268981
 30
0.0
 10
80.5371647307225
 20
-95.49021507377427
 30
0.0
 10
76.50771110409677
 20
-104.7495515732294
 30
0.0
 10
70.37839011327534
 20
-112.7425487058264
 30
0.0
 10
63.793581891325
 20
-117.8109668495618
 30
0.0
 10
57.79868870846747
 20
-120.6162835488707
 30
0.0
 10
52.93434594803315
 20
-122.0353032308459
 30
0.0
 10
47.85656842950458
 20
-122.6642380024597
 30
0.0
 10
42.43812932616839
 20
-122.0995713473491
 30
0.0
 10
36.29597056046304
 20
-119.9268711076055
 30
0.0
 10
30.01391146376466
 20
-116.2476891939492
 30
0.0
 10
24.07841426618645
 20
-111.1819652230832
 30
0.0
 10
18.95803608985208
 20
-104.8696537733708
 30
0.0
 10
15.73033024598475
 20
-98.68466059381925
 30
0.0
 10
13.98069501331813
 20
-93.24017345816374
 30
0.0
 10
13.12278519074873
 20
-88.91242219751666
 30
0.0
 10
12.88363110594223
 20
-84.505661807456
 30
0.0
 10
13.43929490618218
 20
-80.17171894895873
 30
0.0
 10
14.95676463210875
 20
-75.82057879335983
 30
0.0
 10
18.12513224841455
 20
-70.09128857788333
 30
0.0
 10
23.93732921459715
 20
-63.43791673377319
 30
0.0
 10
32.72879850255772
 20
-57.26499895365038
 30
0.0
 10
40.53706323834352
 20
-54.38532787575529
 30
0.0
 10
46.37034447038118
 20
-53.79787775457884
 30
0.0
 10
50.64543974190003
 20
-54.22749368618565
 30
0.0
 10
55.07708091942326
 20
-55.61760795833849
 30
0.0
 10
61.02040439477656
 20
-58.70107107813149
 30
0.0
 10
67.99168641533825
 20
-64.62766924224745
 30
0.0
 10
73.17285943852764
 20
-72.60455198504852
 30
0.0
 10
75.61336700391182
 20
-79.7680164978963
 30
0.0
 10
76.45963491736174
 20
-85.42143983220359
 30
0.0
 10
76.02830948998569
 20
-91.1211427368322
 30
0.0
 10
74.07685179164133
 20
-96.99867657783305
 30
0.0
 10
70.83452210742612
 20
-102.7094865778725
 30
0.0
 10
66.54198850139606
 20
-107.8914598832886
 30
0.0
 10
61.47931740532677
 20
-112.2071358659683
 30
0.0
 10
55.93745095599002
 20
-115.3434525949351
 30
0.0
 10
50.25150779460596
 20
-117.0162427131043
 30
0.0
 10
45.55395701418747
 20
-117.0524447236722
 30
0.0
 10
41.63354569367251
 20
-116.1731117129121
 30
0.0
 10
37.58659549988406
 20
-114.6666071869348
 30
0.0
 10
32.51027430761079
 20
-111.7027847391574
 30
0.0
 10
26.92944214686784
 20
-106.7377494936189
 30
0.0
 10
22.36757393375128
 20
-100.7422785558159
 30
0.0
 10
19.2892334367129
 20
-94.11647983004954
 30
0.0
 10
18.28568970629504
 20
-88.4080260952408
 30
0.0
 10
18.58901229565555
 20
-83.88754752266452
 30
0.0
 10
19.6435705946963
 20
-79.3282507276532
 30
0.0
 10
22.26020021881622
 20
-73.73668896420239
 30
0.0
 10
27.10069234173063
 20
-67.7347931101606
 30
0.0
 10
33.17714797755186
 20
-62.97456191619549
 30
0.0
 10
38.84558952249868
 20
-60.44590737189387
 30
0.0
 10
43.49776198706008
 20
-59.48282012188679
 30
0.0
 10
46.97320441300556
 20
-59.33672678670149
 30
0.0
 10
50.41457350616279
 20
-59.83744801792248
 30
0.0
 10
55.1199244792612
 20
-61.52723001447455
 30
0.0
 10
61.0143896419539
 20
-65.44065563917107
 30
0.0
 10
66.87582865541508
 20
-72.11250756911096
 30
0.0
 10
69.91714952228372
 20
-78.47186978457704
 30
0.0
 10
70.80870343712036
 20
-83.4270601183725
 30
0.0
 10
70.74951243298257
 20
-87.16669599638801
 30
0.0
 10
70.11890025450191
 20
-90.87557658587103
 30
0.0
 10
68.68107780758933
 20
-95.57051155442666
 30
0.0
 10
65.86457306714283
 20
-100.8865806229178
 30
0.0
 10
61.26357387784527
 20
-106.0632887653204
 30
0.0
 10
55.88159899521533
 20
-109.724092702081
 30
0.0
 10
50.22179021651205
 20
-111.5824322016022
 30
0.0
 10
44.66751749687943
 20
-111.5178611365189
 30
0.0
 10
38.87707125404876
 20
-109.4650778102624
 30
0.0
 10
33.30551792749958
 20
-105.6252465183846
 30
0.0
 10
28.57664457714855
 20
-100.4376325895219
 30
0.0
 10
25.20979305007488
 20
-94.37330096006949
 30
0.0
 10
23.91180470044074
 20
-88.99916329610183
 30
0.0
 10
23.96524361917173
 20
-84.74808361605535
 30
0.0
 10
24.82765694285828
 20
-80.60092108433109
 30
0.0
 10
27.61750680601338
 20
-75.34549037569136
 30
0.0
 10
32.96717805287366
 20
-69.83337587233056
 30
0.0
 10
38.28904944087144
 20
-66.61410988732585
 30
0.0
 10
42.53084431524216
 20
-65.20584123935575
 30
0.0
 10
45.53224913491121
 20
-64.79695499367638
 30
0.0
 10
48.36684634042484
 20
-65.02176165785495
 30
0.0
 10
52.08218810647807
 20
-66.15136373888261
 30
0.0
 10
56.71241114675543
 20
-69.151861500711
 30
0.0
 10
61.409126197147
 20
-74.53965301568414
 30
0.0
 10
64.04777719018051
 20
-79.73444661873815
 30
0.0
 10
65.11466057483919
 20
-83.76025628529474
 30
0.0
 10
65.37259673910968
 20
-86.63011993974153
 30
0.0
 10
65.1119202525617
 20
-89.43410263437384
 30
0.0
 10
64.06839023977972
 20
-93.19383587837989
 30
0.0
 10
61.57686386706116
 20
-97.72812957245613
 30
0.0
 10
57.18150474997177
 20
-102.2642100597262
 30
0.0
 10
52.87866597228753
 20
-104.7841901301727
 30
0.0
 10
49.39354809000402
 20
-105.8136218288144
 30
0.0
 10
46.86335553361917
 20
-106.0583438633452
 30
0.0
 10
44.36440045485327
 20
-105.7657564272133
 30
0.0
 10
41.0516809689705
 20
-104.7041046850715
 30
0.0
 10
37.08021461234796
 20
-102.1722789576212
 30
0.0
 10
33.07251888394951
 20
-97.54762549253509
 30
0.0
 10
30.76479900506727
 20
-92.75897285821976
 30
0.0
 10
29.73686056504557
 20
-88.62131585397698
 30
0.0
 10
29.52366337670199
 20
-86.47719805853751
 30
0.0
 10
29.49935494456979
 20
-85.407332070615
 30
0.0
  0
LINE
  5
7B
330
1F
100
AcDbEntity
  8
0
  6
Continuous
 62
     7
370
    25
100
AcDbLine
 10
29.4993549446
 20
-85.4073320706
 30
0.0
 11
24.5006450554
 21
-85.5209077908
 31
0.0
  0
SPLINE
  5
7C
330
1F
100
AcDbEntity
  8
0
  6
Continuous
 62
     7
370
    25
100
AcDbSpline
210
0.0
220
0.0
230
1.0
 70
     8
 71
     3
 72
   145
 73
   141
 74
     0
 42
0.000000001
 43
0.00000001
 40
0.0
 40
0.0
 40
0.0
 40
0.0
 40
0.001953125
 40
0.00390625
 40
0.0078125
 40
0.01171875
 40
0.015625
 40
0.017578125
 40
0.01953125
 40
0.021484375
 40
0.0234375
 40
0.02734375
 40
0.03125
 40
0.03515625
 40
0.0390625
 40
0.04296875
 40
0.046875
 40
0.05078125
 40
0.0546875
 40
0.056640625
 40
0.05859375
 40
0.0625
 40
0.06640625
 40
0.0703125
 40
0.072265625
 40
0.07421875
 40
0.076171875
 40
0.078125
 40
0.08203125
 40
0.0859375
 40
0.08984375
 40
0.09375
 40
0.09765625
 40
0.1015625
 40
0.10546875
 40
0.109375
 40
0.11328125
 40
0.1171875
 40
0.119140625
 40
0.12109375
 40
0.123046875
 40
0.125
 40
0.126953125
 40
0.12890625
 40
0.1328125
 40
0.13671875
 40
0.138671875
 40
0.140625
 40
0.142578125
 40
0.14453125
 40
0.1484375
 40
0.15234375
 40
0.15625
 40
0.16015625
 40
0.162109375
 40
0.1640625
 40
0.16796875
 40
0.171875
 40
0.1796875
 40
0.18359375
 40
0.1875
 40
0.19140625
 40
0.1953125
 40
0.203125
 40
0.20703125
 40
0.2109375
 40
0.21484375
 40
0.21875
 40
0.22265625
 40
0.2265625
 40
0.23046875
 40
0.234375
 40
0.2421875
 40
0.25
 40
0.2578125
 40
0.265625
 40
0.2734375
 40
0.28125
 40
0.28515625
 40
0.2890625
 40
0.29296875
 40
0.296875
 40
0.30078125
 40
0.3046875
 40
0.3125
 40
0.3203125
 40
0.328125
 40
0.3359375
 40
0.34375
 40
0.3515625
 40
0.359375
 40
0.3671875
 40
0.375
 40
0.390625
 40
0.40625
 40
0.421875
 40
0.4296875
 40
0.4375
 40
0.4453125
 40
0.453125
 40
0.4609375
 40
0.46875
 40
0.484375
 40
0.5
 40
0.5078125
 40
0.515625
 40
0.5234375
 40
0.53125
 40
0.5390625
 40
0.546875
 40
0.5625
 40
0.578125
 40
0.59375
 40
0.609375
 40
0.625
 40
0.640625
 40
0.65625
 40
0.671875
 40
0.6875
 40
0.703125
 40
0.71875
 40
0.75
 40
0.765625
 40
0.78125
 40
0.8125
 40
0.84375
 40
0.859375
 40
0.875
 40
0.8828125
 40
0.890625
 40
0.90625
 40
0.921875
 40
0.9375
 40
0.953125
 40
0.96875
 40
0.9765625
 40
0.984375
 40
0.9921875
 40
0.99609375
 40
0.997471953556619
 40
0.997471953556619
 40
0.997471953556619
 40
0.997471953556619
 10
24.50064505543014
 20
-85.52090779080838
 30
0.0
 10
24.53056735571872
 20
-86.83785209988856
 30
0.0
 10
24.79406749938886
 20
-89.48599030637448
 30
0.0
 10
26.04929628596843
 20
-94.5264683568939
 30
0.0
 10
28.8377540418339
 20
-100.3106429010651
 30
0.0
 10
33.71753850966172
 20
-105.9627248053362
 30
0.0
 10
38.78375893907834
 20
-109.2280072021986
 30
0.0
 10
43.27308537054761
 20
-110.6785125087451
 30
0.0
 10
46.80906482563178
 20
-111.0970453477132
 30
0.0
 10
50.39844485745203
 20
-110.7445237452541
 30
0.0
 10
55.00602491641028
 20
-109.3663025530948
 30
0.0
 10
60.34145766286979
 20
-106.2136169304338
 30
0.0
 10
65.6264829678079
 20
-100.7517830425244
 30
0.0
 10
69.32096754083645
 20
-94.09169959286363
 30
0.0
 10
70.76437730201279
 20
-86.6454366152895
 30
0.0
 10
69.33849081208454
 20
-79.04504940644348
 30
0.0
 10
65.58447485873329
 20
-71.70759092190926
 30
0.0
 10
60.09027249512769
 20
-65.38993017989158
 30
0.0
 10
54.39439902728444
 20
-61.63222359669793
 30
0.0
 10
49.3163421374908
 20
-60.06988352365396
 30
0.0
 10
44.04321826343925
 20
-59.65518334377158
 30
0.0
 10
37.29933009863919
 20
-61.32766364792391
 30
0.0
 10
29.81080259575463
 20
-65.89539253511875
 30
0.0
 10
24.61197810472201
 20
-71.23355833468476
 30
0.0
 10
21.50839614387831
 20
-76.14366053429579
 30
0.0
 10
19.82330538159053
 20
-80.09006528111982
 30
0.0
 10
18.95860763345429
 20
-84.22615960501444
 30
0.0
 10
18.903279478588
 20
-89.68578186009948
 30
0.0
 10
20.51897014783145
 20
-96.26694408429854
 30
0.0
 10
24.49394657488008
 20
-103.3988385831118
 30
0.0
 10
29.97656529599254
 20
-109.4096176699865
 30
0.0
 10
36.50001103311998
 20
-113.9257950181987
 30
0.0
 10
43.68975722073492
 20
-116.5204362434502
 30
0.0
 10
51.06222109710139
 20
-116.6126499082715
 30
0.0
 10
58.18634539117915
 20
-114.2319815661382
 30
0.0
 10
64.62118005009793
 20
-109.8340239377669
 30
0.0
 10
70.01561034689973
 20
-103.7576903636791
 30
0.0
 10
73.30964156865144
 20
-97.54245924001636
 30
0.0
 10
74.99730760555391
 20
-92.03177015528263
 30
0.0
 10
75.74319362208672
 20
-87.66283254426213
 30
0.0
 10
75.8279839463633
 20
-83.05018802016674
 30
0.0
 10
74.97238305681799
 20
-78.31334264053217
 30
0.0
 10
73.22803434967585
 20
-73.75965665607075
 30
0.0
 10
69.94953184617232
 20
-68.00880748932154
 30
0.0
 10
64.36218118474547
 20
-61.66091613384286
 30
0.0
 10
57.53735841606465
 20
-57.08657061051782
 30
0.0
 10
51.66593076840583
 20
-54.96093443416343
 30
0.0
 10
47.20861274025359
 20
-54.31095013788541
 30
0.0
 10
42.85567850800951
 20
-54.50255566843192
 30
0.0
 10
37.20979313283273
 20
-55.67720170296361
 30
0.0
 10
30.53767131097976
 20
-58.67079738499773
 30
0.0
 10
23.5603499598146
 20
-64.14607611900087
 30
0.0
 10
17.99959730789887
 20
-71.03144162535017
 30
0.0
 10
14.91298466650305
 20
-77.59210677482088
 30
0.0
 10
13.6246855339169
 20
-83.12555831940533
 30
0.0
 10
13.24494608055456
 20
-88.78139398427484
 30
0.0
 10
14.48605180618168
 20
-95.6947056716068
 30
0.0
 10
19.27173088713927
 20
-105.93626220687
 30
0.0
 10
27.20558710164401
 20
-114.3887522692164
 30
0.0
 10
36.51335109972847
 20
-119.8543478401313
 30
0.0
 10
43.84975539813986
 20
-122.0852960671449
 30
0.0
 10
51.05364100719346
 20
-122.022172351197
 30
0.0
 10
60.26523023594087
 20
-119.2718509714936
 30
0.0
 10
68.51392303731429
 20
-113.3562823868745
 30
0.0
 10
74.96170412605096
 20
-105.5758911140734
 30
0.0
 10
78.65519741009878
 20
-99.08213726015109
 30
0.0
 10
80.96774443834
 20
-92.18203859185573
 30
0.0
 10
81.49990826958481
 20
-85.17958642220293
 30
0.0
 10
80.49237146835766
 20
-78.56655784220925
 30
0.0
 10
78.38266411953443
 20
-72.37702719864049
 30
0.0
 10
75.32305524877894
 20
-66.70011549583785
 30
0.0
 10
70.22314974952079
 20
-59.94145794825481
 30
0.0
 10
62.35556321445178
 20
-53.2397597271306
 30
0.0
 10
51.6964951759341
 20
-48.72382767664929
 30
0.0
 10
41.00841064065013
 20
-48.82142388378281
 30
0.0
 10
30.3262455102636
 20
-52.82768167077393
 30
0.0
 10
20.57763035445362
 20
-59.67401763758831
 30
0.0
 10
14.06511334110475
 20
-67.10510574780498
 30
0.0
 10
10.38724917793152
 20
-73.73202135379036
 30
0.0
 10
8.545479845868089
 20
-78.98039609734829
 30
0.0
 10
7.854758397200272
 20
-84.36678308909384
 30
0.0
 10
8.151813915400355
 20
-89.57161072720749
 30
0.0
 10
9.129001439650938
 20
-94.49428870557195
 30
0.0
 10
11.11351903127694
 20
-100.6685605561339
 30
0.0
 10
14.75773024438339
 20
-107.6435958660386
 30
0.0
 10
20.48092543814539
 20
-114.6934732637952
 30
0.0
 10
27.08848590060634
 20
-120.3340590696482
 30
0.0
 10
34.13426919359605
 20
-124.4649083629249
 30
0.0
 10
41.22598165190882
 20
-127.0006851142478
 30
0.0
 10
47.94182300021094
 20
-127.7115359445989
 30
0.0
 10
53.98642810693804
 20
-126.9444519586925
 30
0.0
 10
59.56409708073834
 20
-125.314164315236
 30
0.0
 10
66.48392286166057
 20
-122.0776764112128
 30
0.0
 10
73.97520740446265
 20
-116.2953711990586
 30
0.0
 10
80.85965333517866
 20
-107.3068663739279
 30
0.0
 10
84.62659865819015
 20
-98.66512114354178
 30
0.0
 10
86.3171803845191
 20
-91.39161104437676
 30
0.0
 10
86.88370193661342
 20
-85.80885447808551
 30
0.0
 10
86.60514083942323
 20
-80.1369483607836
 30
0.0
 10
85.31407035229505
 20
-74.50726586965706
 30
0.0
 10
83.13718623330011
 20
-69.11364665091338
 30
0.0
 10
79.24192165933353
 20
-62.3068117952532
 30
0.0
 10
72.82255333651649
 20
-54.72494835011113
 30
0.0
 10
65.09722865260674
 20
-48.90530474047613
 30
0.0
 10
58.54734807409443
 20
-45.66586969393999
 30
0.0
 10
53.52901461137203
 20
-44.03929131739945
 30
0.0
 10
48.54606201832427
 20
-43.36627264264138
 30
0.0
 10
43.7350868293729
 20
-43.51724678695894
 30
0.0
 10
39.077655190803
 20
-44.25084825825407
 30
0.0
 10
32.94057274858385
 20
-45.84411240735718
 30
0.0
 10
25.54099673652629
 20
-48.97742746594514
 30
0.0
 10
17.4900474042305
 20
-54.39353773665874
 30
0.0
 10
10.68309473481466
 20
-61.33652715041305
 30
0.0
 10
5.557582736586741
 20
-69.65444922421307
 30
0.0
 10
2.603830354123274
 20
-79.25095410568515
 30
0.0
 10
2.249848144908993
 20
-89.6495242333225
 30
0.0
 10
4.059981373781722
 20
-99.44785191973357
 30
0.0
 10
7.712948296380867
 20
-108.0923194398038
 30
0.0
 10
12.82884527214546
 20
-115.5762329142578
 30
0.0
 10
19.04504205041275
 20
-121.8120401799382
 30
0.0
 10
28.33732824390325
 20
-128.3990877701306
 30
0.0
 10
38.47529031087809
 20
-132.3007635080037
 30
0.0
 10
48.21828911316973
 20
-133.219055730352
 30
0.0
 10
57.9790520078043
 20
-132.1150768982211
 30
0.0
 10
70.45436402987269
 20
-127.1101991393779
 30
0.0
 10
81.2654218105182
 20
-117.431958547679
 30
0.0
 10
87.6596166184839
 20
-106.9598200348516
 30
0.0
 10
90.4367552442589
 20
-99.32421926487483
 30
0.0
 10
91.76769856139187
 20
-92.57148293758746
 30
0.0
 10
92.45405270361321
 20
-85.48745142833478
 30
0.0
 10
91.99649777405561
 20
-76.52903574965094
 30
0.0
 10
88.9757439192269
 20
-67.02868456604205
 30
0.0
 10
83.72458643315194
 20
-58.58852567387279
 30
0.0
 10
76.51256607808698
 20
-50.95805661965296
 30
0.0
 10
69.04149702646453
 20
-44.96435297964747
 30
0.0
 10
62.25852479075555
 20
-40.20542504792973
 30
0.0
 10
56.78617790614233
 20
-36.61198535790742
 30
0.0
 10
51.9106825417318
 20
-33.55731377946705
 30
0.0
 10
48.50315787330558
 20
-31.46965978880605
 30
0.0
 10
47.09088255032554
 20
-30.61085715340532
 30
0.0
 10
46.72128213006703
 20
-30.38647890818699
 30
0.0
  0
SPLINE
  5
7D
330
1F
100
AcDbEntity
  8
0
  6
Continuous
 62
     7
370
    25
100
AcDbSpline
210
0.0
220
0.0
230
1.0
 70
     8
 71
     3
 72
    18
 73
    14
 74
     0
 42
0.000000001
 43
0.00000001
 40
0.6522012570115823
 40
0.6522012570115823
 40
0.6522012570115823
 40
0.6522012570115823
 40
0.65625
 40
0.671875
 40
0.6875
 40
0.703125
 40
0.71875
 40
0.734375
 40
0.75
 40
0.765625
 40
0.78125
 40
0.796875
 40
0.8088041624293575
 40
0.8088041624293575
 40
0.8088041624293575
 40
0.8088041624293575
 10
46.72128213007237
 20
-30.38647890817907
 30
0.0
 10
46.93779197925831
 20
-29.93879859638808
 30
0.0
 10
47.9277791388042
 20
-27.74171254646417
 30
0.0
 10
49.19091453991263
 20
-23.64637954533369
 30
0.0
 10
50.0054069907825
 20
-18.04347673012216
 30
0.0
 10
50.16794263621478
 20
-12.36440955024737
 30
0.0
 10
49.85650768674417
 20
-6.674544380068435
 30
0.0
 10
49.21720910290389
 20
-1.04879775084583
 30
0.0
 10
48.41999246459214
 20
4.454868395588565
 30
0.0
 10
47.34838751117551
 20
10.0102980694131
 30
0.0
 10
45.80484171048881
 20
15.45878074192451
 30
0.0
 10
43.75022997965846
 20
20.28929023762696
 30
0.0
 10
41.95580179824423
 20
23.18128046169079
 30
0.0
 10
41.07161517188434
 20
24.37583109714295
 30
0.0
  0
SPLINE
  5
7E
330
1F
100
AcDbEntity
  8
0
  6
Continuous
 62
     7
370
    25
100
AcDbSpline
210
0.0
220
0.0
230
1.0
 70
     8
 71
     3
 72
     8
 73
     4
 74
     0
 42
0.000000001
 43
0.00000001
 40
0.4064206079627206
 40
0.4064206079627206
 40
0.4064206079627206
 40
0.4064206079627206
 40
0.4075178443746897
 40
0.4075178443746897
 40
0.4075178443746897
 40
0.4075178443746897
 10
41.07161517160305
 20
24.37583109712874
 30
0.0
 10
41.06945357735
 20
24.41864149202361
 30
0.0
 10
41.06667575991319
 20
24.46156746453233
 30
0.0
 10
41.0632876793812
 20
24.50460892227425
 30
0.0
  0
SPLINE
  5
7F
330
1F
100
AcDbEntity
  8
0
  6
Continuous
 62
     7
370
    25
100
AcDbSpline
210
0.0
220
0.0
230
1.0
 70
     8
 71
     3
 72
   145
 73
   141
 74
     0
 42
0.000000001
 43
0.00000001
 40
0.0039335889484666
 40
0.0039335889484666
 40
0.0039335889484666
 40
0.0039335889484666
 40
0.0078125
 40
0.01171875
 40
0.015625
 40
0.0234375
 40
0.03125
 40
0.0390625
 40
0.046875
 40
0.0625
 40
0.078125
 40
0.09375
 40
0.109375
 40
0.125
 40
0.140625
 40
0.15625
 40
0.171875
 40
0.1796875
 40
0.1875
 40
0.203125
 40
0.21875
 40
0.234375
 40
0.25
 40
0.2578125
 40
0.265625
 40
0.2734375
 40
0.28125
 40
0.2890625
 40
0.296875
 40
0.3125
 40
0.328125
 40
0.3359375
 40
0.34375
 40
0.3515625
 40
0.359375
 40
0.375
 40
0.390625
 40
0.40625
 40
0.4140625
 40
0.421875
 40
0.4296875
 40
0.4375
 40
0.453125
 40
0.46875
 40
0.4765625
 40
0.484375
 40
0.4921875
 40
0.5
 40
0.515625
 40
0.5234375
 40
0.53125
 40
0.5390625
 40
0.546875
 40
0.5546875
 40
0.5625
 40
0.578125
 40
0.5859375
 40
0.59375
 40
0.6015625
 40
0.609375
 40
0.6171875
 40
0.625
 40
0.6328125
 40
0.640625
 40
0.6484375
 40
0.65234375
 40
0.65625
 40
0.66015625
 40
0.6640625
 40
0.671875
 40
0.6796875
 40
0.6875
 40
0.6953125
 40
0.69921875
 40
0.703125
 40
0.7109375
 40
0.71875
 40
0.7265625
 40
0.734375
 40
0.7421875
 40
0.74609375
 40
0.75
 40
0.7578125
 40
0.765625
 40
0.7734375
 40
0.78125
 40
0.78515625
 40
0.7890625
 40
0.796875
 40
0.8046875
 40
0.8125
 40
0.8203125
 40
0.82421875
 40
0.828125
 40
0.83203125
 40
0.8359375
 40
0.84375
 40
0.8515625
 40
0.85546875
 40
0.859375
 40
0.8671875
 40
0.875
 40
0.8828125
 40
0.88671875
 40
0.890625
 40
0.89453125
 40
0.8984375
 40
0.90234375
 40
0.90625
 40
0.9140625
 40
0.91796875
 40
0.921875
 40
0.92578125
 40
0.9296875
 40
0.93359375
 40
0.9375
 40
0.94140625
 40
0.9453125
 40
0.947265625
 40
0.94921875
 40
0.953125
 40
0.95703125
 40
0.9609375
 40
0.962890625
 40
0.96484375
 40
0.96875
 40
0.97265625
 40
0.974609375
 40
0.9765625
 40
0.978515625
 40
0.98046875
 40
0.982421875
 40
0.984375
 40
0.986328125
 40
0.98828125
 40
0.9921875
 40
0.994140625
 40
0.99609375
 40
0.998046875
 40
1.0
 40
1.0
 40
1.0
 40
1.0
 10
41.06328767934907
 20
24.50460892269504
 30
0.0
 10
41.62837724461648
 20
25.06753819384921
 30
0.0
 10
42.71251191868321
 20
26.18233869616381
 30
0.0
 10
44.26881672233242
 20
27.73748509295345
 30
0.0
 10
46.33652201013793
 20
29.72885498793694
 30
0.0
 10
48.86202970314195
 20
32.04142433174815
 30
0.0
 10
51.8067717459863
 20
34.5850216399526
 30
0.0
 10
54.66059798331015
 20
36.93751917289495
 30
0.0
 10
58.34277378506689
 20
39.87712856157565
 30
0.0
 10
62.70936410681566
 20
43.2886941087907
 30
0.0
 10
67.54675772488066
 20
47.30916748446438
 30
0.0
 10
71.93219757641282
 20
51.61032304361093
 30
0.0
 10
75.77034304718053
 20
56.53276672570971
 30
0.0
 10
78.94043150628976
 20
62.36729119150103
 30
0.0
 10
81.33868984343822
 20
69.35345260195702
 30
0.0
 10
82.98349601295271
 20
77.78769784006647
 30
0.0
 10
83.53976723057957
 20
86.2273844866989
 30
0.0
 10
82.92045937443226
 20
93.41439386560856
 30
0.0
 10
81.4723042936219
 20
100.6901888550509
 30
0.0
 10
78.17527338415262
 20
109.6742380664487
 30
0.0
 10
71.89687247225926
 20
119.4817445652221
 30
0.0
 10
63.32083417152022
 20
127.4569990773894
 30
0.0
 10
54.30815948873899
 20
131.7756234474735
 30
0.0
 10
46.05644838739678
 20
133.3329438503705
 30
0.0
 10
39.55590500931802
 20
133.4124659817646
 30
0.0
 10
33.044286283684
 20
132.1622217180176
 30
0.0
 10
26.89785375884211
 20
129.6087262692161
 30
0.0
 10
21.19371909157774
 20
125.9660555354631
 30
0.0
 10
14.32276501299772
 20
119.8588350807139
 30
0.0
 10
7.351976624398094
 20
110.2622172594851
 30
0.0
 10
3.263265829939646
 20
98.96852070254732
 30
0.0
 10
2.204355162032977
 20
89.46613259284722
 30
0.0
 10
2.680426842325672
 20
82.24194548251019
 30
0.0
 10
4.411940058249604
 20
75.19495687396959
 30
0.0
 10
8.13690828105768
 20
66.23178752308331
 30
0.0
 10
15.09374226435438
 20
56.21846897211974
 30
0.0
 10
26.01481112692583
 20
47.3200595286535
 30
0.0
 10
36.53536805227281
 20
43.64335981198018
 30
0.0
 10
45.17452329167261
 20
43.76141036737741
 30
0.0
 10
51.52183317854909
 20
45.42933608528326
 30
0.0
 10
57.46820762609805
 20
48.53197844916415
 30
0.0
 10
64.7159527232167
 20
54.2360186169326
 30
0.0
 10
72.21275495659805
 20
63.81408329230661
 30
0.0
 10
76.77034991059223
 20
75.44029355863006
 30
0.0
 10
78.04755906979602
 20
85.29657181742476
 30
0.0
 10
77.63738243660178
 20
92.73722326678165
 30
0.0
 10
75.97864111453079
 20
99.95257796827393
 30
0.0
 10
72.27267738926726
 20
109.0419914720924
 30
0.0
 10
66.55400519919527
 20
116.949957213264
 30
0.0
 10
59.22049245534961
 20
122.8795231393382
 30
0.0
 10
53.00743396401739
 20
126.1102883262142
 30
0.0
 10
46.19188918003154
 20
127.8819042969572
 30
0.0
 10
38.95413325087899
 20
127.9260105502708
 30
0.0
 10
31.7753468302476
 20
125.8158075361964
 30
0.0
 10
22.9612767728485
 20
120.5758758090211
 30
0.0
 10
15.56847812399356
 20
112.4435175181455
 30
0.0
 10
10.53682637589476
 20
102.566480696161
 30
0.0
 10
8.211708431061174
 20
94.56065127116013
 30
0.0
 10
7.624209109875938
 20
86.20861249891354
 30
0.0
 10
9.114245177980049
 20
77.91844098654313
 30
0.0
 10
12.34133718638642
 20
70.14913767817886
 30
0.0
 10
16.97324702683122
 20
63.14378049014302
 30
0.0
 10
22.71878988775766
 20
57.19830162509693
 30
0.0
 10
29.31040617183015
 20
52.60962206556439
 30
0.0
 10
35.30628588970722
 20
50.19900572031197
 30
0.0
 10
40.2769808189578
 20
49.31155263833755
 30
0.0
 10
44.10366903944193
 20
49.25712588588045
 30
0.0
 10
47.99626261443977
 20
49.95940776344125
 30
0.0
 10
53.04911782303888
 20
51.95850136030322
 30
0.0
 10
58.92651238134179
 20
56.10651453825064
 30
0.0
 10
64.97697289759417
 20
63.08418891263741
 30
0.0
 10
69.60462390608846
 20
71.52413492122317
 30
0.0
 10
71.87140391956216
 20
79.34279745883907
 30
0.0
 10
72.45102267821404
 20
85.82583627927664
 30
0.0
 10
72.10404845586275
 20
92.31153927132839
 30
0.0
 10
70.10117990368934
 20
100.1463479590845
 30
0.0
 10
65.67360534873475
 20
108.6104450161245
 30
0.0
 10
59.64008728185812
 20
115.608813121492
 30
0.0
 10
52.36287788866387
 20
120.5863655177016
 30
0.0
 10
45.50344727818571
 20
122.4996117198343
 30
0.0
 10
39.82319160145659
 20
122.2329498660571
 30
0.0
 10
34.30420997401271
 20
120.8373464474372
 30
0.0
 10
27.83161018166206
 20
117.2822866380557
 30
0.0
 10
21.20435566230076
 20
110.7970694006254
 30
0.0
 10
16.17985080433786
 20
102.642464840196
 30
0.0
 10
13.78817129347198
 20
94.87523474454973
 30
0.0
 10
13.25839852997917
 20
88.34855488387693
 30
0.0
 10
13.79009552665488
 20
81.70036362022645
 30
0.0
 10
16.39882004218287
 20
73.63044342112748
 30
0.0
 10
21.84375328493565
 20
65.0752274496212
 30
0.0
 10
29.00687876491144
 20
58.4260495802687
 30
0.0
 10
36.01929420566075
 20
55.18161459446043
 30
0.0
 10
41.99437603799605
 20
54.5780090702097
 30
0.0
 10
46.48538333983299
 20
55.24761659471589
 30
0.0
 10
50.78793307887669
 20
57.0585830037468
 30
0.0
 10
56.04843332318221
 20
60.70512117925913
 30
0.0
 10
61.63399192042875
 20
67.17147286031815
 30
0.0
 10
65.3470782489198
 20
75.32862638542123
 30
0.0
 10
66.77975203539049
 20
82.39326706366012
 30
0.0
 10
66.98972361132753
 20
89.67924667675008
 30
0.0
 10
64.8881623596017
 20
98.55396786493642
 30
0.0
 10
59.57495265004084
 20
107.7860857345044
 30
0.0
 10
53.39664480935567
 20
113.4603778359083
 30
0.0
 10
47.6632359819072
 20
116.1602138362787
 30
0.0
 10
43.03580124449849
 20
117.0671176941343
 30
0.0
 10
38.12517828614306
 20
116.4830939702096
 30
0.0
 10
33.41662845283491
 20
114.3606822368444
 30
0.0
 10
29.06878483007704
 20
111.0775059763024
 30
0.0
 10
23.939083160093
 20
105.3984552661429
 30
0.0
 10
20.18110299759113
 20
98.1239779125351
 30
0.0
 10
18.6954176075206
 20
89.94392708238358
 30
0.0
 10
19.03873046492662
 20
83.50950445175
 30
0.0
 10
20.90912731085594
 20
77.2582092681366
 30
0.0
 10
23.94649310249075
 20
71.50379862994075
 30
0.0
 10
27.93122144033829
 20
66.5374627415312
 30
0.0
 10
32.66578496599379
 20
62.67958688084246
 30
0.0
 10
38.01785232999087
 20
60.30717013374094
 30
0.0
 10
42.87448551090211
 20
60.02279780897283
 30
0.0
 10
46.81198982601829
 20
61.21244383240204
 30
0.0
 10
50.55242995252463
 20
63.2751692570937
 30
0.0
 10
54.80506916974613
 20
67.17717634451012
 30
0.0
 10
58.872671437289
 20
73.46440861444428
 30
0.0
 10
60.93346335213187
 20
79.66412402386655
 30
0.0
 10
61.45189753231848
 20
84.9751602731651
 30
0.0
 10
61.06316985337208
 20
90.39120304340645
 30
0.0
 10
59.09523878783931
 20
96.88141782683617
 30
0.0
 10
55.83185140339911
 20
102.5494397908856
 30
0.0
 10
52.74818131341006
 20
106.2702690619099
 30
0.0
 10
50.25086093271471
 20
108.5760413570897
 30
0.0
 10
47.60556308996706
 20
110.3093951063822
 30
0.0
 10
44.73722843721507
 20
111.3437644442653
 30
0.0
 10
41.77948876482772
 20
111.3812042197879
 30
0.0
 10
39.0681501423181
 20
110.4515301466795
 30
0.0
 10
36.73411164337596
 20
108.8289977353683
 30
0.0
 10
34.00518905342396
 20
105.9937544391247
 30
0.0
 10
31.63858952477297
 20
102.3117621387911
 30
0.0
 10
29.42323067857012
 20
97.9757948000803
 30
0.0
 10
27.81368819090363
 20
94.44041335242446
 30
0.0
 10
26.24048058649839
 20
90.69222758123873
 30
0.0
 10
25.18682304597495
 20
88.04311919142556
 30
0.0
 10
24.67268576215795
 20
86.73257076244286
 30
0.0
  0
LINE
  5
80
330
1F
100
AcDbEntity
  8
0
  6
Continuous
 62
     7
370
    25
100
AcDbLine
 10
24.6726857622
 20
86.7325707624
 30
0.0
 11
29.3273142378
 21
84.9065275665
 31
0.0
  0
SPLINE
  5
81
330
1F
100
AcDbEntity
  8
0
  6
Continuous
 62
     7
370
    25
100
AcDbSpline
210
0.0
220
0.0
230
1.0
 70
     8
 71
     3
 72
   142
 73
   138
 74
     0
 42
0.000000001
 43
0.00000001
 40
0.0
 40
0.0
 40
0.0
 40
0.0
 40
0.0009765625
 40
0.001953125
 40
0.00390625
 40
0.005859375
 40
0.0078125
 40
0.01171875
 40
0.013671875
 40
0.015625
 40
0.017578125
 40
0.01953125
 40
0.021484375
 40
0.0234375
 40
0.025390625
 40
0.02734375
 40
0.03125
 40
0.03515625
 40
0.0390625
 40
0.04296875
 40
0.046875
 40
0.048828125
 40
0.05078125
 40
0.052734375
 40
0.0546875
 40
0.056640625
 40
0.05859375
 40
0.0625
 40
0.06640625
 40
0.0703125
 40
0.07421875
 40
0.078125
 40
0.08203125
 40
0.0859375
 40
0.08984375
 40
0.09375
 40
0.09765625
 40
0.1015625
 40
0.10546875
 40
0.109375
 40
0.11328125
 40
0.1171875
 40
0.12109375
 40
0.125
 40
0.1328125
 40
0.140625
 40
0.14453125
 40
0.1484375
 40
0.15625
 40
0.1640625
 40
0.16796875
 40
0.171875
 40
0.17578125
 40
0.1796875
 40
0.1875
 40
0.1953125
 40
0.203125
 40
0.2109375
 40
0.21875
 40
0.2265625
 40
0.234375
 40
0.2421875
 40
0.25
 40
0.25390625
 40
0.2578125
 40
0.265625
 40
0.2734375
 40
0.28125
 40
0.2890625
 40
0.296875
 40
0.3046875
 40
0.3125
 40
0.3203125
 40
0.328125
 40
0.3359375
 40
0.33984375
 40
0.34375
 40
0.34765625
 40
0.3515625
 40
0.359375
 40
0.3671875
 40
0.375
 40
0.3828125
 40
0.390625
 40
0.3984375
 40
0.40625
 40
0.4140625
 40
0.421875
 40
0.4296875
 40
0.4375
 40
0.4453125
 40
0.453125
 40
0.4609375
 40
0.46875
 40
0.484375
 40
0.5
 40
0.515625
 40
0.5234375
 40
0.53125
 40
0.546875
 40
0.5625
 40
0.578125
 40
0.59375
 40
0.609375
 40
0.625
 40
0.640625
 40
0.65625
 40
0.6640625
 40
0.671875
 40
0.6875
 40
0.703125
 40
0.71875
 40
0.7265625
 40
0.734375
 40
0.7421875
 40
0.75
 40
0.765625
 40
0.78125
 40
0.796875
 40
0.8125
 40
0.8203125
 40
0.828125
 40
0.84375
 40
0.8515625
 40
0.859375
 40
0.875
 40
0.890625
 40
0.90625
 40
0.921875
 40
0.9375
 40
0.953125
 40
0.96875
 40
0.9765625
 40
0.984375
 40
0.98828125
 40
0.9921875
 40
0.9929804698477083
 40
0.9929804698477083
 40
0.9929804698477083
 40
0.9929804698477083
 10
29.32731423784118
 20
84.90652756652473
 30
0.0
 10
29.58284856418093
 20
85.55789077335046
 30
0.0
 10
30.10081467246819
 20
86.86910143349725
 30
0.0
 10
31.12386266384211
 20
89.40698990105214
 30
0.0
 10
32.40127360307061
 20
92.4507252944882
 30
0.0
 10
33.93518795871362
 20
95.81649745301019
 30
0.0
 10
35.98884289489001
 20
99.83712169091366
 30
0.0
 10
38.06330299797656
 20
103.0106140392443
 30
0.0
 10
40.05265302577823
 20
105.0467999960981
 30
0.0
 10
41.42205272226272
 20
105.9663021269536
 30
0.0
 10
42.60673290803947
 20
106.344483270101
 30
0.0
 10
43.75846015067773
 20
106.3438141442727
 30
0.0
 10
45.26010591940018
 20
105.8420293536493
 30
0.0
 10
47.12350675637321
 20
104.6485299581495
 30
0.0
 10
49.08649470540755
 20
102.843930965776
 30
0.0
 10
51.65859340066203
 20
99.74990824727111
 30
0.0
 10
54.47404392113934
 20
94.86831331113291
 30
0.0
 10
56.46292010107391
 20
88.2567044465029
 30
0.0
 10
56.36650954872987
 20
81.82614170811956
 30
0.0
 10
54.31913210225469
 20
75.65452020538436
 30
0.0
 10
51.48302711612674
 20
71.27538237126194
 30
0.0
 10
48.85796744988109
 20
68.53064148446373
 30
0.0
 10
46.81297629579158
 20
66.92442604089439
 30
0.0
 10
44.80170168238782
 20
65.83140489029753
 30
0.0
 10
42.96309557436643
 20
65.28636015940603
 30
0.0
 10
41.16091440290978
 20
65.1694964419286
 30
0.0
 10
38.66289629674757
 20
65.5305221179145
 30
0.0
 10
35.38064476486201
 20
66.94628813272732
 30
0.0
 10
31.53471184856731
 20
70.0546227947453
 30
0.0
 10
28.15647673257414
 20
74.25531085491826
 30
0.0
 10
25.55951082735115
 20
79.17582686731024
 30
0.0
 10
24.00263865609068
 20
84.42444014076034
 30
0.0
 10
23.73100894234004
 20
89.59087715669025
 30
0.0
 10
24.64372211342118
 20
94.68477529299483
 30
0.0
 10
26.54574438816558
 20
99.4904038899627
 30
0.0
 10
29.23843558586359
 20
103.7989256551347
 30
0.0
 10
32.48897713980658
 20
107.3902772355466
 30
0.0
 10
36.03667267491331
 20
110.056521644812
 30
0.0
 10
39.58305789520122
 20
111.6163579155223
 30
0.0
 10
42.80046749107009
 20
111.9852576211718
 30
0.0
 10
46.04925948380322
 20
111.374469515496
 30
0.0
 10
49.32464863607672
 20
109.8478387929084
 30
0.0
 10
52.47832194327052
 20
107.4760083374529
 30
0.0
 10
56.34011092872479
 20
103.3377310448554
 30
0.0
 10
60.18180326625433
 20
96.67896158892982
 30
0.0
 10
61.96641463259943
 20
89.05730454750278
 30
0.0
 10
61.7898193639699
 20
82.99084715681371
 30
0.0
 10
60.57464581359962
 20
76.95888358952868
 30
0.0
 10
57.35396320851288
 20
69.87836174895024
 30
0.0
 10
52.56704785990514
 20
64.37236456823123
 30
0.0
 10
48.31917388354298
 20
61.44906594515744
 30
0.0
 10
45.09785560783616
 20
60.10580443020358
 30
0.0
 10
41.88108161194743
 20
59.63154572374459
 30
0.0
 10
37.52904935311157
 20
60.05526027874715
 30
0.0
 10
31.92759267340345
 20
62.58164811201637
 30
0.0
 10
25.74515947428564
 20
68.28235934384179
 30
0.0
 10
20.96216012678047
 20
75.80008287437037
 30
0.0
 10
18.26737599417542
 20
84.18293509976445
 30
0.0
 10
18.30821656453107
 20
92.50346580841376
 30
0.0
 10
20.77658313749055
 20
100.5433107562439
 30
0.0
 10
25.15726049372336
 20
107.657981691624
 30
0.0
 10
30.89585266763221
 20
113.255250935473
 30
0.0
 10
36.26833015236511
 20
116.176821545401
 30
0.0
 10
40.59502366988199
 20
117.2571696281053
 30
0.0
 10
44.81925141793376
 20
117.4539653865392
 30
0.0
 10
50.12357600773809
 20
116.0134934184025
 30
0.0
 10
56.2296078587948
 20
111.880413493919
 30
0.0
 10
61.49145324725226
 20
105.7930792506796
 30
0.0
 10
65.39298105572642
 20
98.33313261063266
 30
0.0
 10
67.49738512814174
 20
90.10232719792468
 30
0.0
 10
67.34639651863348
 20
81.73056063208247
 30
0.0
 10
64.95118788948292
 20
73.46080002984128
 30
0.0
 10
60.83286722744605
 20
65.94601637318848
 30
0.0
 10
55.49429201663823
 20
59.80416293957241
 30
0.0
 10
50.52360650310844
 20
56.33487039287657
 30
0.0
 10
46.58400813095333
 20
54.79042628901319
 30
0.0
 10
43.70825952707379
 20
54.27440886676793
 30
0.0
 10
40.78032799188316
 20
54.30784317822992
 30
0.0
 10
36.78311070336444
 20
55.01589033269324
 30
0.0
 10
31.74711767888852
 20
57.02319881194232
 30
0.0
 10
25.99862232637768
 20
61.01271905142208
 30
0.0
 10
20.89713594333294
 20
66.28771144865968
 30
0.0
 10
16.77619549545526
 20
72.51960309374641
 30
0.0
 10
13.93947430366012
 20
79.37656299090742
 30
0.0
 10
12.6683962897486
 20
86.47405842813578
 30
0.0
 10
13.16679801728185
 20
93.64514914971211
 30
0.0
 10
15.20768463035763
 20
100.7037729993074
 30
0.0
 10
18.56836796325052
 20
107.3045126483306
 30
0.0
 10
22.98974820991344
 20
113.130623340083
 30
0.0
 10
28.1854192929077
 20
117.8623532251986
 30
0.0
 10
33.86473624900862
 20
121.2118189161396
 30
0.0
 10
39.65058698869113
 20
122.9027111188562
 30
0.0
 10
45.51444553740644
 20
122.8742290056336
 30
0.0
 10
53.06975909336692
 20
120.9233119117748
 30
0.0
 10
61.52199494113727
 20
115.3091340540991
 30
0.0
 10
69.1626635738306
 20
104.7871474450148
 30
0.0
 10
72.5444765412468
 20
94.19614025925273
 30
0.0
 10
73.02298301589198
 20
85.48867319562925
 30
0.0
 10
71.90168404795149
 20
76.79728309463995
 30
0.0
 10
67.81066390438636
 20
66.3189874241419
 30
0.0
 10
59.70693069299056
 20
56.00015746854635
 30
0.0
 10
49.71965204519479
 20
49.47799295401664
 30
0.0
 10
39.26245993641881
 20
48.05536808522706
 30
0.0
 10
28.62200499998639
 20
51.70592075683368
 30
0.0
 10
18.82687906886355
 20
59.63144846318536
 30
0.0
 10
11.26330095598018
 20
70.53055187050211
 30
0.0
 10
7.782386524321467
 20
80.93505883033909
 30
0.0
 10
7.229375965365833
 20
89.333499976153
 30
0.0
 10
8.159143409883114
 20
97.73676972632704
 30
0.0
 10
11.82063621105283
 20
107.8797496317888
 30
0.0
 10
19.37309318614614
 20
118.2701581158991
 30
0.0
 10
27.47791547378367
 20
124.4352551442365
 30
0.0
 10
34.52442129288196
 20
127.3485054378855
 30
0.0
 10
39.97130616005622
 20
128.394921011333
 30
0.0
 10
45.5576656279275
 20
128.3334871368426
 30
0.0
 10
52.68095378186537
 20
126.9864948986975
 30
0.0
 10
60.42890626094509
 20
123.2807774622164
 30
0.0
 10
67.9936791355231
 20
116.274151666036
 30
0.0
 10
73.6548525035065
 20
107.449509157343
 30
0.0
 10
76.65356657967348
 20
99.27873303099956
 30
0.0
 10
77.96141604287186
 20
92.70133399539618
 30
0.0
 10
78.51820668907027
 20
86.23644628993208
 30
0.0
 10
78.12377710337793
 20
80.02171834669723
 30
0.0
 10
77.23405983701613
 20
74.49340882829605
 30
0.0
 10
76.12543019422263
 20
69.55860839433304
 30
0.0
 10
74.32567128807352
 20
64.35689932544122
 30
0.0
 10
71.56927427105967
 20
59.2875930633287
 30
0.0
 10
68.21447949377543
 20
54.97650126090073
 30
0.0
 10
64.22792765868817
 20
51.05593405227776
 30
0.0
 10
59.60554387077328
 20
47.20911737113256
 30
0.0
 10
54.38836365366055
 20
43.13274479763706
 30
0.0
 10
49.59927415279923
 20
39.28519418413997
 30
0.0
 10
45.54127807420772
 20
35.78048681727247
 30
0.0
 10
42.9157758117565
 20
33.37606554512687
 30
0.0
 10
40.77235622818484
 20
31.31229322405023
 30
0.0
 10
39.56543880268234
 20
30.10568994092406
 30
0.0
 10
38.91459129549528
 20
29.44403381090309
 30
0.0
 10
38.80498310263794
 20
29.33249601272939
 30
0.0
  0
SPLINE
  5
82
330
1F
100
AcDbEntity
  8
0
  6
Continuous
 62
     7
370
    25
100
AcDbSpline
210
0.0
220
0.0
230
1.0
 70
     8
 71
     3
 72
     9
 73
     5
 74
     0
 42
0.000000001
 43
0.00000001
 40
0.4451174314386104
 40
0.4451174314386104
 40
0.4451174314386104
 40
0.4451174314386104
 40
0.5400866594992736
 40
0.6341939077961545
 40
0.6341939077961545
 40
0.6341939077961545
 40
0.6341939077961545
 10
38.80498310284108
 20
29.33249601252979
 30
0.0
 10
35.49746082794007
 20
33.73352857756328
 30
0.0
 10
22.85661124016126
 20
44.17088198207338
 30
0.0
 10
13.4773553658387
 20
57.70606651760943
 30
0.0
 10
9.150957569858939
 20
62.33804185479983
 30
0.0
  0
SPLINE
  5
83
330
1F
100
AcDbEntity
  8
0
  6
Continuous
 62
     7
370
    25
100
AcDbSpline
210
0.0
220
0.0
230
1.0
 70
     8
 71
     3
 72
    29
 73
    25
 74
     0
 42
0.000000001
 43
0.00000001
 40
0.9839031821168
 40
0.9839031821168
 40
0.9839031821168
 40
0.9839031821168
 40
0.984375
 40
0.986328125
 40
0.9873046875
 40
0.98828125
 40
0.9892578125
 40
0.990234375
 40
0.9921875
 40
0.994140625
 40
0.99609375
 40
0.998046875
 40
1.0
 40
1.001953125
 40
1.00390625
 40
1.005859375
 40
1.0078125
 40
1.009765625
 40
1.0107421875
 40
1.01171875
 40
1.0126953125
 40
1.013671875
 40
1.015625
 40
1.016096817871441
 40
1.016096817871441
 40
1.016096817871441
 40
1.016096817871441
 10
9.150957567117244
 20
62.33804185223908
 30
0.0
 10
9.12644097594136
 20
62.4359277459132
 30
0.0
 10
8.989158913019041
 20
62.95384038583506
 30
0.0
 10
8.702261378382273
 20
63.78900068653729
 30
0.0
 10
8.071785616924302
 20
64.90786023581424
 30
0.0
 10
7.346603187702351
 20
65.81384200827463
 30
0.0
 10
6.494121542437858
 20
66.54925914480339
 30
0.0
 10
5.328232552319474
 20
67.26466519573492
 30
0.0
 10
3.975675477153787
 20
67.73303922244534
 30
0.0
 10
2.663266621156536
 20
67.94233271250427
 30
0.0
 10
1.591414552835395
 20
68.00252098911665
 30
0.0
 10
0.6898650489103223
 20
68.0049747284117
 30
0.0
 10
-0.0000000000000079
 20
67.99751263579417
 30
0.0
 10
-0.6898650489103367
 20
68.00497472841167
 30
0.0
 10
-1.591414552835414
 20
68.00252098911669
 30
0.0
 10
-2.663266621156552
 20
67.94233271250424
 30
0.0
 10
-3.975675477153798
 20
67.73303922244537
 30
0.0
 10
-5.328232552319459
 20
67.26466519573495
 30
0.0
 10
-6.494121542437834
 20
66.5492591448034
 30
0.0
 10
-7.346603187702326
 20
65.81384200827466
 30
0.0
 10
-8.071785616924275
 20
64.90786023581425
 30
0.0
 10
-8.702261378382266
 20
63.78900068653733
 30
0.0
 10
-8.989158912027214
 20
62.9538403887223
 30
0.0
 10
-9.126440974609926
 20
62.43592775093623
 30
0.0
 10
-9.150957565284152
 20
62.33804185955799
 30
0.0
  0
SPLINE
  5
84
330
1F
100
AcDbEntity
  8
0
  6
Continuous
 62
     7
370
    25
100
AcDbSpline
210
0.0
220
0.0
230
1.0
 70
     8
 71
     3
 72
     9
 73
     5
 74
     0
 42
0.000000001
 43
0.00000001
 40
0.7722267001339602
 40
0.7722267001339602
 40
0.7722267001339602
 40
0.7722267001339602
 40
0.8663339484635071
 40
0.9613031765250556
 40
0.9613031765250556
 40
0.9613031765250556
 40
0.9613031765250556
 10
-9.15095756535376
 20
62.33804185962288
 30
0.0
 10
-13.477355362598
 20
57.70606652228573
 30
0.0
 10
-22.85661123802144
 20
44.17088198381281
 30
0.0
 10
-35.49746082805797
 20
33.73352857746696
 30
0.0
 10
-38.80498310293072
 20
29.33249601240881
 30
0.0
  0
SPLINE
  5
85
330
1F
100
AcDbEntity
  8
0
  6
Continuous
 62
     7
370
    25
100
AcDbSpline
210
0.0
220
0.0
230
1.0
 70
     8
 71
     3
 72
   142
 73
   138
 74
     0
 42
0.000000001
 43
0.00000001
 40
0.0
 40
0.0
 40
0.0
 40
0.0
 40
0.0009765625
 40
0.001953125
 40
0.00390625
 40
0.005859375
 40
0.0078125
 40
0.01171875
 40
0.013671875
 40
0.015625
 40
0.017578125
 40
0.01953125
 40
0.021484375
 40
0.0234375
 40
0.025390625
 40
0.02734375
 40
0.03125
 40
0.03515625
 40
0.0390625
 40
0.04296875
 40
0.046875
 40
0.048828125
 40
0.05078125
 40
0.052734375
 40
0.0546875
 40
0.056640625
 40
0.05859375
 40
0.0625
 40
0.06640625
 40
0.0703125
 40
0.07421875
 40
0.078125
 40
0.08203125
 40
0.0859375
 40
0.08984375
 40
0.09375
 40
0.09765625
 40
0.1015625
 40
0.10546875
 40
0.109375
 40
0.11328125
 40
0.1171875
 40
0.12109375
 40
0.125
 40
0.1328125
 40
0.140625
 40
0.14453125
 40
0.1484375
 40
0.15625
 40
0.1640625
 40
0.16796875
 40
0.171875
 40
0.17578125
 40
0.1796875
 40
0.1875
 40
0.1953125
 40
0.203125
 40
0.2109375
 40
0.21875
 40
0.2265625
 40
0.234375
 40
0.2421875
 40
0.25
 40
0.25390625
 40
0.2578125
 40
0.265625
 40
0.2734375
 40
0.28125
 40
0.2890625
 40
0.296875
 40
0.3046875
 40
0.3125
 40
0.3203125
 40
0.328125
 40
0.3359375
 40
0.33984375
 40
0.34375
 40
0.34765625
 40
0.3515625
 40
0.359375
 40
0.3671875
 40
0.375
 40
0.3828125
 40
0.390625
 40
0.3984375
 40
0.40625
 40
0.4140625
 40
0.421875
 40
0.4296875
 40
0.4375
 40
0.4453125
 40
0.453125
 40
0.4609375
 40
0.46875
 40
0.484375
 40
0.5
 40
0.515625
 40
0.5234375
 40
0.53125
 40
0.546875
 40
0.5625
 40
0.578125
 40
0.59375
 40
0.609375
 40
0.625
 40
0.640625
 40
0.65625
 40
0.6640625
 40
0.671875
 40
0.6875
 40
0.703125
 40
0.71875
 40
0.7265625
 40
0.734375
 40
0.7421875
 40
0.75
 40
0.765625
 40
0.78125
 40
0.796875
 40
0.8125
 40
0.8203125
 40
0.828125
 40
0.84375
 40
0.8515625
 40
0.859375
 40
0.875
 40
0.890625
 40
0.90625
 40
0.921875
 40
0.9375
 40
0.953125
 40
0.96875
 40
0.9765625
 40
0.984375
 40
0.98828125
 40
0.9921875
 40
0.9929804698477479
 40
0.9929804698477479
 40
0.9929804698477479
 40
0.9929804698477479
 10
-29.32731423784118
 20
84.90652756652473
 30
0.0
 10
-29.58284856418093
 20
85.55789077335046
 30
0.0
 10
-30.10081467246819
 20
86.86910143349725
 30
0.0
 10
-31.12386266384211
 20
89.40698990105214
 30
0.0
 10
-32.40127360307061
 20
92.4507252944882
 30
0.0
 10
-33.93518795871362
 20
95.81649745301019
 30
0.0
 10
-35.98884289489001
 20
99.83712169091366
 30
0.0
 10
-38.06330299797656
 20
103.0106140392443
 30
0.0
 10
-40.05265302577823
 20
105.0467999960981
 30
0.0
 10
-41.42205272226272
 20
105.9663021269536
 30
0.0
 10
-42.60673290803947
 20
106.344483270101
 30
0.0
 10
-43.75846015067773
 20
106.3438141442727
 30
0.0
 10
-45.26010591940018
 20
105.8420293536493
 30
0.0
 10
-47.12350675637321
 20
104.6485299581495
 30
0.0
 10
-49.08649470540755
 20
102.843930965776
 30
0.0
 10
-51.65859340066203
 20
99.74990824727111
 30
0.0
 10
-54.47404392113934
 20
94.86831331113291
 30
0.0
 10
-56.46292010107391
 20
88.2567044465029
 30
0.0
 10
-56.36650954872987
 20
81.82614170811956
 30
0.0
 10
-54.31913210225469
 20
75.65452020538436
 30
0.0
 10
-51.48302711612674
 20
71.27538237126194
 30
0.0
 10
-48.85796744988109
 20
68.53064148446373
 30
0.0
 10
-46.81297629579158
 20
66.92442604089439
 30
0.0
 10
-44.80170168238782
 20
65.83140489029753
 30
0.0
 10
-42.96309557436643
 20
65.28636015940603
 30
0.0
 10
-41.16091440290978
 20
65.1694964419286
 30
0.0
 10
-38.66289629674757
 20
65.5305221179145
 30
0.0
 10
-35.38064476486201
 20
66.94628813272732
 30
0.0
 10
-31.53471184856731
 20
70.0546227947453
 30
0.0
 10
-28.15647673257414
 20
74.25531085491826
 30
0.0
 10
-25.55951082735115
 20
79.17582686731024
 30
0.0
 10
-24.00263865609068
 20
84.42444014076034
 30
0.0
 10
-23.73100894234004
 20
89.59087715669025
 30
0.0
 10
-24.64372211342118
 20
94.68477529299483
 30
0.0
 10
-26.54574438816558
 20
99.4904038899627
 30
0.0
 10
-29.23843558586359
 20
103.7989256551347
 30
0.0
 10
-32.48897713980658
 20
107.3902772355466
 30
0.0
 10
-36.03667267491331
 20
110.056521644812
 30
0.0
 10
-39.58305789520122
 20
111.6163579155223
 30
0.0
 10
-42.80046749107009
 20
111.9852576211718
 30
0.0
 10
-46.04925948380322
 20
111.374469515496
 30
0.0
 10
-49.32464863607672
 20
109.8478387929084
 30
0.0
 10
-52.47832194327052
 20
107.4760083374529
 30
0.0
 10
-56.34011092872479
 20
103.3377310448554
 30
0.0
 10
-60.18180326625433
 20
96.67896158892982
 30
0.0
 10
-61.96641463259943
 20
89.05730454750278
 30
0.0
 10
-61.7898193639699
 20
82.99084715681371
 30
0.0
 10
-60.57464581359962
 20
76.95888358952868
 30
0.0
 10
-57.35396320851288
 20
69.87836174895024
 30
0.0
 10
-52.56704785990514
 20
64.37236456823123
 30
0.0
 10
-48.31917388354298
 20
61.44906594515744
 30
0.0
 10
-45.09785560783616
 20
60.10580443020358
 30
0.0
 10
-41.88108161194743
 20
59.63154572374459
 30
0.0
 10
-37.52904935311157
 20
60.05526027874715
 30
0.0
 10
-31.92759267340345
 20
62.58164811201637
 30
0.0
 10
-25.74515947428564
 20
68.28235934384179
 30
0.0
 10
-20.96216012678047
 20
75.80008287437037
 30
0.0
 10
-18.26737599417542
 20
84.18293509976445
 30
0.0
 10
-18.30821656453107
 20
92.50346580841376
 30
0.0
 10
-20.77658313749055
 20
100.5433107562439
 30
0.0
 10
-25.15726049372336
 20
107.657981691624
 30
0.0
 10
-30.89585266763221
 20
113.255250935473
 30
0.0
 10
-36.26833015236511
 20
116.176821545401
 30
0.0
 10
-40.59502366988199
 20
117.2571696281053
 30
0.0
 10
-44.81925141793376
 20
117.4539653865392
 30
0.0
 10
-50.12357600773809
 20
116.0134934184025
 30
0.0
 10
-56.2296078587948
 20
111.880413493919
 30
0.0
 10
-61.49145324725226
 20
105.7930792506796
 30
0.0
 10
-65.39298105572642
 20
98.33313261063266
 30
0.0
 10
-67.49738512814174
 20
90.10232719792468
 30
0.0
 10
-67.34639651863348
 20
81.73056063208247
 30
0.0
 10
-64.95118788948292
 20
73.46080002984128
 30
0.0
 10
-60.83286722744605
 20
65.94601637318848
 30
0.0
 10
-55.49429201663823
 20
59.80416293957241
 30
0.0
 10
-50.52360650310844
 20
56.33487039287657
 30
0.0
 10
-46.58400813095333
 20
54.79042628901319
 30
0.0
 10
-43.70825952707379
 20
54.27440886676793
 30
0.0
 10
-40.78032799188316
 20
54.30784317822992
 30
0.0
 10
-36.78311070336444
 20
55.01589033269324
 30
0.0
 10
-31.74711767888852
 20
57.02319881194232
 30
0.0
 10
-25.99862232637768
 20
61.01271905142208
 30
0.0
 10
-20.89713594333294
 20
66.28771144865968
 30
0.0
 10
-16.77619549545526
 20
72.51960309374641
 30
0.0
 10
-13.93947430366012
 20
79.37656299090742
 30
0.0
 10
-12.6683962897486
 20
86.47405842813578
 30
0.0
 10
-13.16679801728185
 20
93.64514914971211
 30
0.0
 10
-15.20768463035763
 20
100.7037729993074
 30
0.0
 10
-18.56836796325052
 20
107.3045126483306
 30
0.0
 10
-22.98974820991344
 20
113.130623340083
 30
0.0
 10
-28.1854192929077
 20
117.8623532251986
 30
0.0
 10
-33.86473624900862
 20
121.2118189161396
 30
0.0
 10
-39.65058698869113
 20
122.9027111188562
 30
0.0
 10
-45.51444553740644
 20
122.8742290056336
 30
0.0
 10
-53.06975909336692
 20
120.9233119117748
 30
0.0
 10
-61.52199494113727
 20
115.3091340540991
 30
0.0
 10
-69.1626635738306
 20
104.7871474450148
 30
0.0
 10
-72.5444765412468
 20
94.19614025925273
 30
0.0
 10
-73.02298301589198
 20
85.48867319562925
 30
0.0
 10
-71.90168404795149
 20
76.79728309463995
 30
0.0
 10
-67.81066390438636
 20
66.3189874241419
 30
0.0
 10
-59.70693069299056
 20
56.00015746854635
 30
0.0
 10
-49.71965204519479
 20
49.47799295401664
 30
0.0
 10
-39.26245993641881
 20
48.05536808522706
 30
0.0
 10
-28.62200499998639
 20
51.70592075683368
 30
0.0
 10
-18.82687906886355
 20
59.63144846318536
 30
0.0
 10
-11.26330095598018
 20
70.53055187050211
 30
0.0
 10
-7.782386524321467
 20
80.93505883033909
 30
0.0
 10
-7.229375965365833
 20
89.333499976153
 30
0.0
 10
-8.159143409883114
 20
97.73676972632704
 30
0.0
 10
-11.82063621105283
 20
107.8797496317888
 30
0.0
 10
-19.37309318614614
 20
118.2701581158991
 30
0.0
 10
-27.47791547378367
 20
124.4352551442365
 30
0.0
 10
-34.52442129288196
 20
127.3485054378855
 30
0.0
 10
-39.97130616005622
 20
128.394921011333
 30
0.0
 10
-45.5576656279275
 20
128.3334871368426
 30
0.0
 10
-52.68095378186537
 20
126.9864948986975
 30
0.0
 10
-60.42890626094509
 20
123.2807774622164
 30
0.0
 10
-67.9936791355231
 20
116.274151666036
 30
0.0
 10
-73.6548525035065
 20
107.449509157343
 30
0.0
 10
-76.65356657967348
 20
99.27873303099956
 30
0.0
 10
-77.96141604287186
 20
92.70133399539618
 30
0.0
 10
-78.51820668907027
 20
86.23644628993208
 30
0.0
 10
-78.12377710337793
 20
80.02171834669723
 30
0.0
 10
-77.23405983701613
 20
74.49340882829605
 30
0.0
 10
-76.12543019422263
 20
69.55860839433304
 30
0.0
 10
-74.32567128807352
 20
64.35689932544122
 30
0.0
 10
-71.56927427105967
 20
59.2875930633287
 30
0.0
 10
-68.21447949377543
 20
54.97650126090073
 30
0.0
 10
-64.22792765868817
 20
51.05593405227776
 30
0.0
 10
-59.60554387077328
 20
47.20911737113256
 30
0.0
 10
-54.38836365366055
 20
43.13274479763706
 30
0.0
 10
-49.59927415279923
 20
39.28519418413997
 30
0.0
 10
-45.54127807420772
 20
35.78048681727247
 30
0.0
 10
-42.9157758117565
 20
33.37606554512687
 30
0.0
 10
-40.77235622818484
 20
31.31229322405023
 30
0.0
 10
-39.56543880267677
 20
30.10568994091851
 30
0.0
 10
-38.9145912954843
 20
29.44403381089193
 30
0.0
 10
-38.8049831026215
 20
29.33249601271267
 30
0.0
  0
LINE
  5
86
330
1F
100
AcDbEntity
  8
0
  6
Continuous
 62
     7
370
    25
100
AcDbLine
 10
-24.6726857622
 20
86.7325707624
 30
0.0
 11
-29.3273142378
 21
84.9065275665
 31
0.0
  0
SPLINE
  5
87
330
1F
100
AcDbEntity
  8
0
  6
Continuous
 62
     7
370
    25
100
AcDbSpline
210
0.0
220
0.0
230
1.0
 70
    11
 71
     3
 72
    27
 73
    23
 74
     0
 42
0.000000001
 43
0.00000001
 40
0.0
 40
0.0
 40
0.0
 40
0.0
 40
0.0120286034633262
 40
0.0193874883079953
 40
0.066377658474068
 40
0.095784614702608
 40
0.1236650830723985
 40
0.1844741119114328
 40
0.2606407820249133
 40
0.3545467823173052
 40
0.4425229420098307
 40
0.4999999999999999
 40
0.5574770579901693
 40
0.6454532176826948
 40
0.7393592179750866
 40
0.8155258880885672
 40
0.8763349169276016
 40
0.904215385297392
 40
0.933622341525932
 40
0.9806125116920048
 40
0.9879713965366739
 40
1.0
 40
1.0
 40
1.0
 40
1.0
 10
-0.0000000000000077
 20
63.0
 30
0.0
 10
-1.526520890270529
 20
63.0
 30
0.0
 10
-3.986940007274676
 20
63.15948151420184
 30
0.0
 10
-5.34619617418684
 20
55.27462007778994
 30
0.0
 10
-4.149353372585678
 20
46.81019566761893
 30
0.0
 10
-10.24271656874441
 20
36.15196923462492
 30
0.0
 10
-22.37027006937344
 20
31.93643442184342
 30
0.0
 10
-39.51085416655695
 20
23.94808279610379
 30
0.0
 10
-45.00789679821537
 20
-1.712817306335645
 30
0.0
 10
-46.72215447756822
 20
-32.3508626114132
 30
0.0
 10
-21.10234368127349
 20
-45.68813574468696
 30
0.0
 10
0.0000000000000266
 20
-51.70386929761164
 30
0.0
 10
21.10234368127347
 20
-45.68813574468697
 30
0.0
 10
46.72215447756823
 20
-32.35086261141319
 30
0.0
 10
45.00789679821537
 20
-1.71281730633563
 30
0.0
 10
39.51085416655692
 20
23.94808279610381
 30
0.0
 10
22.37027006937349
 20
31.9364344218434
 30
0.0
 10
10.24271656874437
 20
36.15196923462494
 30
0.0
 10
4.149353372585685
 20
46.81019566761891
 30
0.0
 10
5.346196174186819
 20
55.27462007778995
 30
0.0
 10
3.986940007274669
 20
63.15948151420182
 30
0.0
 10
1.526520890270503
 20
63.0
 30
0.0
 10
-0.0000000000000077
 20
63.0
 30
0.0
  0
MTEXT
  5
89
330
1F
100
AcDbEntity
  8
0
  6
Continuous
 62
     7
100
AcDbMText
 10
-92.2381797406
 20
-133.9828350551
 30
0.0
 40
4.83362
 41
0.0
 71
     1
 72
     1
  1
SOLIDWORKS Educational Product.
  7
SLDTEXTSTYLE0
 73
     1
 44
1.0
  0
MTEXT
  5
8A
330
1F
100
AcDbEntity
  8
0
  6
Continuous
 62
     7
100
AcDbMText
 10
-92.2381797406
 20
-141.2332650551
 30
0.0
 40
4.83362
 41
0.0
 71
     1
 72
     1
  1
For Instructional Use Only.
  7
SLDTEXTSTYLE0
 73
     1
 44
1.0
  0
ENDSEC
  0
SECTION
  2
OBJECTS
  0
DICTIONARY
  5
C
330
0
100
AcDbDictionary
281
     1
  3
ACAD_GROUP
350
D
  3
ACAD_LAYOUT
350
1A
  3
ACAD_MLINESTYLE
350
17
  3
ACAD_PLOTSETTINGS
350
19
  3
ACAD_PLOTSTYLENAME
350
E
  3
ACAD_SCALELIST
350
47
  0
DICTIONARY
  5
D
102
{ACAD_REACTORS
330
C
102
}
330
C
100
AcDbDictionary
281
     1
  0
DICTIONARY
  5
1A
102
{ACAD_REACTORS
330
C
102
}
330
C
100
AcDbDictionary
281
     1
  3
Layout1
350
1E
  3
Layout2
350
26
  3
Model
350
22
  0
DICTIONARY
  5
17
102
{ACAD_REACTORS
330
C
102
}
330
C
100
AcDbDictionary
281
     1
  3
Standard
350
18
  0
DICTIONARY
  5
19
102
{ACAD_REACTORS
330
C
102
}
330
C
100
AcDbDictionary
281
     1
  0
ACDBDICTIONARYWDFLT
  5
E
102
{ACAD_REACTORS
330
C
102
}
330
C
100
AcDbDictionary
281
     1
  3
Normal
350
F
100
AcDbDictionaryWithDefault
340
F
  0
DICTIONARY
  5
47
102
{ACAD_REACTORS
330
C
102
}
330
C
100
AcDbDictionary
281
     1
  3
A0
350
48
  3
A1
350
49
  3
A2
350
4A
  3
A3
350
4B
  3
A4
350
4C
  3
A5
350
4D
  3
A6
350
4E
  3
A7
350
4F
  3
A8
350
50
  3
A9
350
51
  3
B0
350
52
  3
B1
350
53
  3
B2
350
54
  3
B3
350
55
  3
B4
350
56
  3
B5
350
57
  3
B6
350
58
  3
B7
350
59
  3
B8
350
5A
  3
B9
350
5B
  3
C0
350
5C
  3
C1
350
5D
  3
C2
350
5E
  3
C3
350
5F
  3
C4
350
60
  3
C5
350
61
  3
C6
350
62
  3
C7
350
63
  3
C8
350
64
  3
C9
350
65
  3
D0
350
66
  3
D1
350
67
  3
D2
350
68
  0
LAYOUT
  5
1E
102
{ACAD_REACTORS
330
1A
102
}
330
1A
100
AcDbPlotSettings
  1

  2
none_device
  4

  6

 40
0.0
 41
0.0
 42
0.0
 43
0.0
 44
0.0
 45
0.0
 46
0.0
 47
0.0
 48
0.0
 49
0.0
140
0.0
141
0.0
142
1.0
143
1.0
 70
   688
 72
     1
 73
     0
 74
     5
  7

 75
    16
147
1.0
148
0.0
149
0.0
100
AcDbLayout
  1
Layout1
 70
     1
 71
     1
 10
0.0
 20
0.0
 11
420.0
 21
297.0
 12
0.0
 22
0.0
 32
0.0
 14
1.0000000000E+20
 24
1.0000000000E+20
 34
1.0000000000E+20
 15
-1.0000000000E+20
 25
-1.0000000000E+20
 35
-1.0000000000E+20
146
0.0
 13
0.0
 23
0.0
 33
0.0
 16
1.0
 26
0.0
 36
0.0
 17
0.0
 27
1.0
 37
0.0
 76
     0
330
1B
  0
LAYOUT
  5
26
102
{ACAD_REACTORS
330
1A
102
}
330
1A
100
AcDbPlotSettings
  1

  2
none_device
  4

  6

 40
0.0
 41
0.0
 42
0.0
 43
0.0
 44
0.0
 45
0.0
 46
0.0
 47
0.0
 48
0.0
 49
0.0
140
0.0
141
0.0
142
1.0
143
1.0
 70
   688
 72
     1
 73
     0
 74
     5
  7

 75
    16
147
1.0
148
0.0
149
0.0
100
AcDbLayout
  1
Layout2
 70
     1
 71
     2
 10
0.0
 20
0.0
 11
0.0
 21
0.0
 12
0.0
 22
0.0
 32
0.0
 14
0.0
 24
0.0
 34
0.0
 15
0.0
 25
0.0
 35
0.0
146
0.0
 13
0.0
 23
0.0
 33
0.0
 16
1.0
 26
0.0
 36
0.0
 17
0.0
 27
1.0
 37
0.0
 76
     0
330
23
  0
LAYOUT
  5
22
102
{ACAD_REACTORS
330
1A
102
}
330
1A
100
AcDbPlotSettings
  1

  2
none_device
  4
ANSI_A_(11.00_x_8.50_Inches)
  6

 40
6.35
 41
19.05
 42
6.35000508
 43
19.05000254
 44
279.4
 45
215.9
 46
133.34999746
 47
88.7622282341
 48
0.0
 49
0.0
140
0.0
141
0.0
142
0.0316032842
143
1.0
 70
  1696
 72
     0
 73
     0
 74
     0
  7

 75
     0
147
0.0179189148
148
-1300.4909072572
149
0.0
100
AcDbLayout
  1
Model
 70
     1
 71
     0
 10
0.0
 20
0.0
 11
420.0
 21
297.0
 12
0.0
 22
0.0
 32
0.0
 14
-92.2381797406
 24
-132.9632686634
 34
0.0
 15
92.2381797406
 25
133.3065263603
 35
0.0
146
0.0
 13
0.0
 23
0.0
 33
0.0
 16
1.0
 26
0.0
 36
0.0
 17
0.0
 27
1.0
 37
0.0
 76
     0
330
1F
331
29
  0
MLINESTYLE
  5
18
102
{ACAD_REACTORS
330
17
102
}
330
17
100
AcDbMlineStyle
  2
Standard
 70
     0
  3

 62
   256
 51
90.0
 52
90.0
 71
     2
 49
0.5
 62
   256
  6
BYLAYER
 49
-0.5
 62
   256
  6
BYLAYER
  0
ACDBPLACEHOLDER
  5
F
102
{ACAD_REACTORS
330
E
102
}
330
E
  0
SCALE
  5
48
102
{ACAD_REACTORS
330
47
102
}
330
47
100
AcDbScale
 70
     0
300
1:1
140
1.0
141
1.0
290
     1
  0
SCALE
  5
49
102
{ACAD_REACTORS
330
47
102
}
330
47
100
AcDbScale
 70
     0
300
1:2
140
1.0
141
2.0
290
     0
  0
SCALE
  5
4A
102
{ACAD_REACTORS
330
47
102
}
330
47
100
AcDbScale
 70
     0
300
1:4
140
1.0
141
4.0
290
     0
  0
SCALE
  5
4B
102
{ACAD_REACTORS
330
47
102
}
330
47
100
AcDbScale
 70
     0
300
1:5
140
1.0
141
5.0
290
     0
  0
SCALE
  5
4C
102
{ACAD_REACTORS
330
47
102
}
330
47
100
AcDbScale
 70
     0
300
1:8
140
1.0
141
8.0
290
     0
  0
SCALE
  5
4D
102
{ACAD_REACTORS
330
47
102
}
330
47
100
AcDbScale
 70
     0
300
1:10
140
1.0
141
10.0
290
     0
  0
SCALE
  5
4E
102
{ACAD_REACTORS
330
47
102
}
330
47
100
AcDbScale
 70
     0
300
1:16
140
1.0
141
16.0
290
     0
  0
SCALE
  5
4F
102
{ACAD_REACTORS
330
47
102
}
330
47
100
AcDbScale
 70
     0
300
1:20
140
1.0
141
20.0
290
     0
  0
SCALE
  5
50
102
{ACAD_REACTORS
330
47
102
}
330
47
100
AcDbScale
 70
     0
300
1:30
140
1.0
141
30.0
290
     0
  0
SCALE
  5
51
102
{ACAD_REACTORS
330
47
102
}
330
47
100
AcDbScale
 70
     0
300
1:40
140
1.0
141
40.0
290
     0
  0
SCALE
  5
52
102
{ACAD_REACTORS
330
47
102
}
330
47
100
AcDbScale
 70
     0
300
1:50
140
1.0
141
50.0
290
     0
  0
SCALE
  5
53
102
{ACAD_REACTORS
330
47
102
}
330
47
100
AcDbScale
 70
     0
300
1:100
140
1.0
141
100.0
290
     0
  0
SCALE
  5
54
102
{ACAD_REACTORS
330
47
102
}
330
47
100
AcDbScale
 70
     0
300
2:1
140
2.0
141
1.0
290
     0
  0
SCALE
  5
55
102
{ACAD_REACTORS
330
47
102
}
330
47
100
AcDbScale
 70
     0
300
4:1
140
4.0
141
1.0
290
     0
  0
SCALE
  5
56
102
{ACAD_REACTORS
330
47
102
}
330
47
100
AcDbScale
 70
     0
300
8:1
140
8.0
141
1.0
290
     0
  0
SCALE
  5
57
102
{ACAD_REACTORS
330
47
102
}
330
47
100
AcDbScale
 70
     0
300
10:1
140
10.0
141
1.0
290
     0
  0
SCALE
  5
58
102
{ACAD_REACTORS
330
47
102
}
330
47
100
AcDbScale
 70
     0
300
100:1
140
100.0
141
1.0
290
     0
  0
SCALE
  5
59
102
{ACAD_REACTORS
330
47
102
}
330
47
100
AcDbScale
 70
     0
300
1/128" = 1'-0"
140
0.0078125
141
12.0
290
     0
  0
SCALE
  5
5A
102
{ACAD_REACTORS
330
47
102
}
330
47
100
AcDbScale
 70
     0
300
1/64" = 1'-0"
140
0.015625
141
12.0
290
     0
  0
SCALE
  5
5B
102
{ACAD_REACTORS
330
47
102
}
330
47
100
AcDbScale
 70
     0
300
1/32" = 1'-0"
140
0.03125
141
12.0
290
     0
  0
SCALE
  5
5C
102
{ACAD_REACTORS
330
47
102
}
330
47
100
AcDbScale
 70
     0
300
1/16" = 1'-0"
140
0.0625
141
12.0
290
     0
  0
SCALE
  5
5D
102
{ACAD_REACTORS
330
47
102
}
330
47
100
AcDbScale
 70
     0
300
3/32" = 1'-0"
140
0.09375
141
12.0
290
     0
  0
SCALE
  5
5E
102
{ACAD_REACTORS
330
47
102
}
330
47
100
AcDbScale
 70
     0
300
1/8" = 1'-0"
140
0.125
141
12.0
290
     0
  0
SCALE
  5
5F
102
{ACAD_REACTORS
330
47
102
}
330
47
100
AcDbScale
 70
     0
300
3/16" = 1'-0"
140
0.1875
141
12.0
290
     0
  0
SCALE
  5
60
102
{ACAD_REACTORS
330
47
102
}
330
47
100
AcDbScale
 70
     0
300
1/4" = 1'-0"
140
0.25
141
12.0
290
     0
  0
SCALE
  5
61
102
{ACAD_REACTORS
330
47
102
}
330
47
100
AcDbScale
 70
     0
300
3/8" = 1'-0"
140
0.375
141
12.0
290
     0
  0
SCALE
  5
62
102
{ACAD_REACTORS
330
47
102
}
330
47
100
AcDbScale
 70
     0
300
1/2" = 1'-0"
140
0.5
141
12.0
290
     0
  0
SCALE
  5
63
102
{ACAD_REACTORS
330
47
102
}
330
47
100
AcDbScale
 70
     0
300
3/4" = 1'-0"
140
0.75
141
12.0
290
     0
  0
SCALE
  5
64
102
{ACAD_REACTORS
330
47
102
}
330
47
100
AcDbScale
 70
     0
300
1" = 1'-0"
140
1.0
141
12.0
290
     0
  0
SCALE
  5
65
102
{ACAD_REACTORS
330
47
102
}
330
47
100
AcDbScale
 70
     0
300
1-1/2" = 1'-0"
140
1.5
141
12.0
290
     0
  0
SCALE
  5
66
102
{ACAD_REACTORS
330
47
102
}
330
47
100
AcDbScale
 70
     0
300
3" = 1'-0"
140
3.0
141
12.0
290
     0
  0
SCALE
  5
67
102
{ACAD_REACTORS
330
47
102
}
330
47
100
AcDbScale
 70
     0
300
6" = 1'-0"
140
6.0
141
12.0
290
     0
  0
SCALE
  5
68
102
{ACAD_REACTORS
330
47
102
}
330
47
100
AcDbScale
 70
     0
300
1'-0" = 1'-0"
140
12.0
141
12.0
290
     0
  0
ENDSEC
  0
EOF
