  0
SECTION
  2
HEADER
  9
$ACADVER
  1
AC1015
  9
$ACADMAINTVER
 70
     6
  9
$DWGCODEPAGE
  3
ANSI_1252
  9
$INSBASE
 10
0.0
 20
0.0
 30
0.0
  9
$EXTMIN
 10
-106.2572140791
 20
-95.5
 30
0.0
  9
$EXTMAX
 10
106.2572140791
 20
55.0
 30
0.0
  9
$LIMMIN
 10
0.0
 20
0.0
  9
$LIMMAX
 10
420.0
 20
297.0
  9
$ORTHOMODE
 70
     0
  9
$REGENMODE
 70
     1
  9
$FILLMODE
 70
     1
  9
$QTEXTMODE
 70
     0
  9
$MIRRTEXT
 70
     1
  9
$LTSCALE
 40
1.0
  9
$ATTMODE
 70
     1
  9
$TEXTSIZE
 40
3.5
  9
$TRACEWID
 40
1.0
  9
$TEXTSTYLE
  7
Standard
  9
$CLAYER
  8
0
  9
$CELTYPE
  6
ByLayer
  9
$CECOLOR
 62
   256
  9
$CELTSCALE
 40
1.0
  9
$DISPSILH
 70
     0
  9
$DIMSCALE
 40
1.0
  9
$DIMASZ
 40
3.302
  9
$DIMEXO
 40
1.0
  9
$DIMDLI
 40
3.75
  9
$DIMRND
 40
0.0
  9
$DIMDLE
 40
0.0
  9
$DIMEXE
 40
1.0
  9
$DIMTP
 40
0.0
  9
$DIMTM
 40
0.0
  9
$DIMTXT
 40
3.5
  9
$DIMCEN
 40
2.5
  9
$DIMTSZ
 40
0.0
  9
$DIMTOL
 70
     0
  9
$DIMLIM
 70
     0
  9
$DIMTIH
 70
     1
  9
$DIMTOH
 70
     1
  9
$DIMSE1
 70
     0
  9
$DIMSE2
 70
     0
  9
$DIMTAD
 70
     1
  9
$DIMZIN
 70
     1
  9
$DIMBLK
  1

  9
$DIMASO
 70
     1
  9
$DIMSHO
 70
     1
  9
$DIMPOST
  1

  9
$DIMAPOST
  1

  9
$DIMALT
 70
     0
  9
$DIMALTD
 70
     3
  9
$DIMALTF
 40
0.0393700787
  9
$DIMLFAC
 40
1.0
  9
$DIMTOFL
 70
     1
  9
$DIMTVP
 40
0.0
  9
$DIMTIX
 70
     0
  9
$DIMSOXD
 70
     0
  9
$DIMSAH
 70
     0
  9
$DIMBLK1
  1

  9
$DIMBLK2
  1

  9
$DIMSTYLE
  2
ISO-25
  9
$DIMCLRD
 70
     0
  9
$DIMCLRE
 70
     0
  9
$DIMCLRT
 70
     0
  9
$DIMTFAC
 40
1.0
  9
$DIMGAP
 40
1.524
  9
$DIMJUST
 70
     0
  9
$DIMSD1
 70
     0
  9
$DIMSD2
 70
     0
  9
$DIMTOLJ
 70
     0
  9
$DIMTZIN
 70
     1
  9
$DIMALTZ
 70
     0
  9
$DIMALTTZ
 70
     0
  9
$DIMUPT
 70
     0
  9
$DIMDEC
 70
     2
  9
$DIMTDEC
 70
     2
  9
$DIMALTU
 70
     2
  9
$DIMALTTD
 70
     3
  9
$DIMTXSTY
  7
Standard
  9
$DIMAUNIT
 70
     0
  9
$DIMADEC
 70
     2
  9
$DIMALTRND
 40
0.0
  9
$DIMAZIN
 70
     0
  9
$DIMDSEP
 70
    44
  9
$DIMATFIT
 70
     3
  9
$DIMFRAC
 70
     0
  9
$DIMLDRBLK
  1

  9
$DIMLUNIT
 70
     2
  9
$DIMLWD
 70
    -2
  9
$DIMLWE
 70
    -2
  9
$DIMTMOVE
 70
     0
  9
$LUNITS
 70
     2
  9
$LUPREC
 70
     2
  9
$SKETCHINC
 40
1.0
  9
$FILLETRAD
 40
10.0
  9
$AUNITS
 70
     0
  9
$AUPREC
 70
     2
  9
$MENU
  1
.
  9
$ELEVATION
 40
0.0
  9
$PELEVATION
 40
0.0
  9
$THICKNESS
 40
0.0
  9
$LIMCHECK
 70
     0
  9
$CHAMFERA
 40
0.0
  9
$CHAMFERB
 40
0.0
  9
$CHAMFERC
 40
0.0
  9
$CHAMFERD
 40
0.0
  9
$SKPOLY
 70
     0
  9
$TDCREATE
 40
2459041.467013912
  9
$TDUCREATE
 40
2459041.758680579
  9
$TDUPDATE
 40
2459041.46703912
  9
$TDUUPDATE
 40
2459041.758705787
  9
$TDINDWG
 40
0.0000000116
  9
$TDUSRTIMER
 40
0.0000000116
  9
$USRTIMER
 70
     1
  9
$ANGBASE
 50
0.0
  9
$ANGDIR
 70
     0
  9
$PDMODE
 70
     0
  9
$PDSIZE
 40
-1.0
  9
$PLINEWID
 40
0.0
  9
$SPLFRAME
 70
     0
  9
$SPLINETYPE
 70
     6
  9
$SPLINESEGS
 70
     8
  9
$HANDSEED
  5
8B
  9
$SURFTAB1
 70
     6
  9
$SURFTAB2
 70
     6
  9
$SURFTYPE
 70
     6
  9
$SURFU
 70
     6
  9
$SURFV
 70
     6
  9
$UCSBASE
  2

  9
$UCSNAME
  2

  9
$UCSORG
 10
0.0
 20
0.0
 30
0.0
  9
$UCSXDIR
 10
1.0
 20
0.0
 30
0.0
  9
$UCSYDIR
 10
0.0
 20
1.0
 30
0.0
  9
$UCSORTHOREF
  2

  9
$UCSORTHOVIEW
 70
     0
  9
$UCSORGTOP
 10
0.0
 20
0.0
 30
0.0
  9
$UCSORGBOTTOM
 10
0.0
 20
0.0
 30
0.0
  9
$UCSORGLEFT
 10
0.0
 20
0.0
 30
0.0
  9
$UCSORGRIGHT
 10
0.0
 20
0.0
 30
0.0
  9
$UCSORGFRONT
 10
0.0
 20
0.0
 30
0.0
  9
$UCSORGBACK
 10
0.0
 20
0.0
 30
0.0
  9
$PUCSBASE
  2

  9
$PUCSNAME
  2

  9
$PUCSORG
 10
0.0
 20
0.0
 30
0.0
  9
$PUCSXDIR
 10
1.0
 20
0.0
 30
0.0
  9
$PUCSYDIR
 10
0.0
 20
1.0
 30
0.0
  9
$PUCSORTHOREF
  2

  9
$PUCSORTHOVIEW
 70
     0
  9
$PUCSORGTOP
 10
0.0
 20
0.0
 30
0.0
  9
$PUCSORGBOTTOM
 10
0.0
 20
0.0
 30
0.0
  9
$PUCSORGLEFT
 10
0.0
 20
0.0
 30
0.0
  9
$PUCSORGRIGHT
 10
0.0
 20
0.0
 30
0.0
  9
$PUCSORGFRONT
 10
0.0
 20
0.0
 30
0.0
  9
$PUCSORGBACK
 10
0.0
 20
0.0
 30
0.0
  9
$USERI1
 70
     0
  9
$USERI2
 70
     0
  9
$USERI3
 70
     0
  9
$USERI4
 70
     0
  9
$USERI5
 70
     0
  9
$USERR1
 40
0.0
  9
$USERR2
 40
0.0
  9
$USERR3
 40
0.0
  9
$USERR4
 40
0.0
  9
$USERR5
 40
0.0
  9
$WORLDVIEW
 70
     1
  9
$SHADEDGE
 70
     3
  9
$SHADEDIF
 70
    70
  9
$TILEMODE
 70
     1
  9
$MAXACTVP
 70
    64
  9
$PINSBASE
 10
0.0
 20
0.0
 30
0.0
  9
$PLIMCHECK
 70
     0
  9
$PEXTMIN
 10
1.0000000000E+20
 20
1.0000000000E+20
 30
1.0000000000E+20
  9
$PEXTMAX
 10
-1.0000000000E+20
 20
-1.0000000000E+20
 30
-1.0000000000E+20
  9
$PLIMMIN
 10
0.0
 20
0.0
  9
$PLIMMAX
 10
420.0
 20
297.0
  9
$UNITMODE
 70
     0
  9
$VISRETAIN
 70
     1
  9
$PLINEGEN
 70
     0
  9
$PSLTSCALE
 70
     1
  9
$TREEDEPTH
 70
  3020
  9
$CMLSTYLE
  2
Standard
  9
$CMLJUST
 70
     0
  9
$CMLSCALE
 40
20.0
  9
$PROXYGRAPHICS
 70
     1
  9
$MEASUREMENT
 70
     1
  9
$CELWEIGHT
370
    -1
  9
$ENDCAPS
280
     0
  9
$JOINSTYLE
280
     0
  9
$LWDISPLAY
290
     1
  9
$INSUNITS
 70
     4
  9
$HYPERLINKBASE
  1

  9
$STYLESHEET
  1

  9
$XEDIT
290
     1
  9
$CEPSNTYPE
380
     0
  9
$PSTYLEMODE
290
     1
  9
$FINGERPRINTGUID
  2
{3c62da01-f72b-4822-956b-5de2f86e0f3e}
  9
$VERSIONGUID
  2
{FAEB1C32-E019-11D5-929B-00C0DF256EC4}
  9
$EXTNAMES
290
     1
  9
$PSVPSCALE
 40
0.0
  9
$OLESTARTUP
290
     0
  0
ENDSEC
  0
SECTION
  2
CLASSES
  0
CLASS
  1
ACDBDICTIONARYWDFLT
  2
AcDbDictionaryWithDefault
  3
ObjectDBX Classes
 90
        0
280
     0
281
     0
  0
CLASS
  1
VISUALSTYLE
  2
AcDbVisualStyle
  3
ObjectDBX Classes
 90
     4095
280
     0
281
     0
  0
CLASS
  1
MATERIAL
  2
AcDbMaterial
  3
ObjectDBX Classes
 90
     1153
280
     0
281
     0
  0
CLASS
  1
SCALE
  2
AcDbScale
  3
ObjectDBX Classes
 90
     1153
280
     0
281
     0
  0
CLASS
  1
TABLESTYLE
  2
AcDbTableStyle
  3
ObjectDBX Classes
 90
     4095
280
     0
281
     0
  0
CLASS
  1
MLEADERSTYLE
  2
AcDbMLeaderStyle
  3
ACDB_MLEADERSTYLE_CLASS
 90
     4095
280
     0
281
     0
  0
CLASS
  1
SUN
  2
AcDbSun
  3
SCENEOE
 90
     1153
280
     0
281
     0
  0
CLASS
  1
ACDBPLACEHOLDER
  2
AcDbPlaceHolder
  3
ObjectDBX Classes
 90
        0
280
     0
281
     0
  0
CLASS
  1
LAYOUT
  2
AcDbLayout
  3
ObjectDBX Classes
 90
        0
280
     0
281
     0
  0
ENDSEC
  0
SECTION
  2
TABLES
  0
TABLE
  2
VPORT
  5
8
330
0
100
AcDbSymbolTable
 70
     1
  0
VPORT
  5
29
330
8
100
AcDbSymbolTableRecord
100
AcDbViewportTableRecord
  2
*Active
 70
     0
 10
0.0
 20
0.0
 11
1.0
 21
1.0
 12
0.0
 22
-20.25
 13
0.0
 23
0.0
 14
10.0
 24
10.0
 15
10.0
 25
10.0
 16
0.0
 26
0.0
 36
1.0
 17
0.0
 27
0.0
 37
0.0
 40
153.51
 41
1.4120560011
 42
50.0
 43
0.0
 44
0.0
 50
0.0
 51
0.0
 71
     0
 72
   100
 73
     1
 74
     3
 75
     0
 76
     0
 77
     0
 78
     0
281
     0
 65
     1
110
0.0
120
0.0
130
0.0
111
1.0
121
0.0
131
0.0
112
0.0
122
1.0
132
0.0
 79
     0
146
0.0
  0
ENDTAB
  0
TABLE
  2
LTYPE
  5
5
330
0
100
AcDbSymbolTable
 70
     6
  0
LTYPE
  5
14
330
5
100
AcDbSymbolTableRecord
100
AcDbLinetypeTableRecord
  2
ByBlock
 70
     0
  3

 72
    65
 73
     0
 40
0.0
  0
LTYPE
  5
15
330
5
100
AcDbSymbolTableRecord
100
AcDbLinetypeTableRecord
  2
ByLayer
 70
     0
  3

 72
    65
 73
     0
 40
0.0
  0
LTYPE
  5
16
330
5
100
AcDbSymbolTableRecord
100
AcDbLinetypeTableRecord
  2
Continuous
 70
     0
  3
Solid line
 72
    65
 73
     0
 40
0.0
  0
LTYPE
  5
6E
330
5
100
AcDbSymbolTableRecord
100
AcDbLinetypeTableRecord
  2
HIDDEN
 70
     0
  3
Hidden __ __ __ __ __ __ __ __ __ __ __ __ __ __
 72
    65
 73
     2
 40
1.905
 49
1.27
 74
     0
 49
-0.635
 74
     0
  0
LTYPE
  5
6F
330
5
100
AcDbSymbolTableRecord
100
AcDbLinetypeTableRecord
  2
PHANTOM
 70
     0
  3
Phantom ______  __  __  ______  __  __  ______
 72
    65
 73
     6
 40
12.7
 49
6.35
 74
     0
 49
-1.27
 74
     0
 49
1.27
 74
     0
 49
-1.27
 74
     0
 49
1.27
 74
     0
 49
-1.27
 74
     0
  0
LTYPE
  5
70
330
5
100
AcDbSymbolTableRecord
100
AcDbLinetypeTableRecord
  2
CENTER
 70
     0
  3
Center ____ _ ____ _ ____ _ ____ _ ____ _ ____
 72
    65
 73
     4
 40
10.16
 49
6.35
 74
     0
 49
-1.27
 74
     0
 49
1.27
 74
     0
 49
-1.27
 74
     0
  0
LTYPE
  5
71
330
5
100
AcDbSymbolTableRecord
100
AcDbLinetypeTableRecord
  2
CENTERX2
 70
     0
  3
Center (2x) ________  __  ________  __  _____
 72
    65
 73
     4
 40
20.32
 49
12.7
 74
     0
 49
-2.54
 74
     0
 49
2.54
 74
     0
 49
-2.54
 74
     0
  0
LTYPE
  5
72
330
5
100
AcDbSymbolTableRecord
100
AcDbLinetypeTableRecord
  2
DOT2
 70
     0
  3
Dot (.5x) ........................................
 72
    65
 73
     2
 40
0.635
 49
0.0
 74
     0
 49
-0.635
 74
     0
  0
ENDTAB
  0
TABLE
  2
LAYER
  5
2
330
0
100
AcDbSymbolTable
 70
     1
  0
LAYER
  5
10
330
2
100
AcDbSymbolTableRecord
100
AcDbLayerTableRecord
  2
0
 70
     0
 62
     7
  6
Continuous
370
    -3
390
F
  0
ENDTAB
  0
TABLE
  2
STYLE
  5
3
330
0
100
AcDbSymbolTable
 70
     2
  0
STYLE
  5
11
330
3
100
AcDbSymbolTableRecord
100
AcDbTextStyleTableRecord
  2
Standard
 70
     0
 40
0.0
 41
1.0
 50
0.0
 71
     0
 42
3.5
  3
txt
  4

  0
STYLE
  5
88
330
3
100
AcDbSymbolTableRecord
100
AcDbTextStyleTableRecord
  2
SLDTEXTSTYLE0
 70
     0
 40
0.0
 41
0.7
 50
0.0
 71
     0
 42
3.5
  3
TXT
  4

  0
ENDTAB
  0
TABLE
  2
VIEW
  5
6
330
0
100
AcDbSymbolTable
 70
     0
  0
ENDTAB
  0
TABLE
  2
UCS
  5
7
330
0
100
AcDbSymbolTable
 70
     0
  0
ENDTAB
  0
TABLE
  2
APPID
  5
9
330
0
100
AcDbSymbolTable
 70
     1
  0
APPID
  5
12
330
9
100
AcDbSymbolTableRecord
100
AcDbRegAppTableRecord
  2
ACAD
 70
     0
  0
ENDTAB
  0
TABLE
  2
DIMSTYLE
  5
A
330
0
100
AcDbSymbolTable
 70
     1
100
AcDbDimStyleTable
  0
DIMSTYLE
105
27
330
A
100
AcDbSymbolTableRecord
100
AcDbDimStyleTableRecord
  2
ISO-25
 70
     0
 41
2.5
 42
0.625
 43
3.75
 44
1.25
 73
     0
 74
     0
 77
     1
 78
     8
140
2.5
141
2.5
143
0.0393700787
147
0.625
171
     3
172
     1
178
     0
271
     2
272
     2
274
     3
278
    44
283
     0
284
     8
340
11
  0
ENDTAB
  0
TABLE
  2
BLOCK_RECORD
  5
1
330
0
100
AcDbSymbolTable
 70
     1
  0
BLOCK_RECORD
  5
1F
330
1
100
AcDbSymbolTableRecord
100
AcDbBlockTableRecord
  2
*Model_Space
340
22
  0
BLOCK_RECORD
  5
1B
330
1
100
AcDbSymbolTableRecord
100
AcDbBlockTableRecord
  2
*Paper_Space
340
1E
  0
BLOCK_RECORD
  5
23
330
1
100
AcDbSymbolTableRecord
100
AcDbBlockTableRecord
  2
*Paper_Space0
340
26
  0
ENDTAB
  0
ENDSEC
  0
SECTION
  2
BLOCKS
  0
BLOCK
  5
20
330
1F
100
AcDbEntity
  8
0
100
AcDbBlockBegin
  2
*Model_Space
 70
     0
 10
0.0
 20
0.0
 30
0.0
  3
*Model_Space
  1

  0
ENDBLK
  5
21
330
1F
100
AcDbEntity
  8
0
100
AcDbBlockEnd
  0
BLOCK
  5
1C
330
1B
100
AcDbEntity
 67
     1
  8
0
100
AcDbBlockBegin
  2
*Paper_Space
 70
     0
 10
0.0
 20
0.0
 30
0.0
  3
*Paper_Space
  1

  0
ENDBLK
  5
1D
330
1B
100
AcDbEntity
 67
     1
  8
0
100
AcDbBlockEnd
  0
BLOCK
  5
24
330
23
100
AcDbEntity
  8
0
100
AcDbBlockBegin
  2
*Paper_Space0
 70
     0
 10
0.0
 20
0.0
 30
0.0
  3
*Paper_Space0
  1

  0
ENDBLK
  5
25
330
23
100
AcDbEntity
  8
0
100
AcDbBlockEnd
  0
ENDSEC
  0
SECTION
  2
ENTITIES
  0
ELLIPSE
  5
73
330
1F
100
AcDbEntity
  8
0
  6
Continuous
 62
     7
370
    25
100
AcDbEllipse
 10
0.0
 20
-88.0
 30
0.0
 11
-10.00000000002449
 21
0.0
 31
0.0
210
0.0
220
0.0
230
1.0
 40
0.75
 41
0.7439492673255568
 42
2.397643386264237
  0
ARC
  5
74
330
1F
100
AcDbEntity
  8
0
  6
Continuous
 62
     7
370
    25
100
AcDbCircle
 10
14.9385534795
 20
-102.3814220753
 30
0.0
 40
12.00000000000001
100
AcDbArc
 50
94.4664448547
 51
129.1766108243
  0
SPLINE
  5
75
330
1F
100
AcDbEntity
  8
0
  6
Continuous
 62
     7
370
    25
100
AcDbSpline
210
0.0
220
0.0
230
1.0
 70
     8
 71
     3
 72
   117
 73
   113
 74
     0
 42
0.000000001
 43
0.00000001
 40
0.0851384970635997
 40
0.0851384970635997
 40
0.0851384970635997
 40
0.0851384970635997
 40
0.0859375
 40
0.08984375
 40
0.09375
 40
0.1015625
 40
0.109375
 40
0.125
 40
0.1328125
 40
0.140625
 40
0.1484375
 40
0.15234375
 40
0.15625
 40
0.16015625
 40
0.1640625
 40
0.171875
 40
0.1796875
 40
0.1875
 40
0.1953125
 40
0.203125
 40
0.2109375
 40
0.21875
 40
0.22265625
 40
0.2265625
 40
0.234375
 40
0.2421875
 40
0.25
 40
0.2578125
 40
0.265625
 40
0.2734375
 40
0.28125
 40
0.28515625
 40
0.2890625
 40
0.296875
 40
0.3046875
 40
0.3125
 40
0.328125
 40
0.3359375
 40
0.34375
 40
0.3515625
 40
0.359375
 40
0.3671875
 40
0.375
 40
0.390625
 40
0.40625
 40
0.4140625
 40
0.421875
 40
0.4296875
 40
0.43359375
 40
0.4375
 40
0.44140625
 40
0.4453125
 40
0.44921875
 40
0.453125
 40
0.45703125
 40
0.4609375
 40
0.46875
 40
0.484375
 40
0.5
 40
0.53125
 40
0.5625
 40
0.578125
 40
0.59375
 40
0.609375
 40
0.6171875
 40
0.625
 40
0.640625
 40
0.65625
 40
0.6640625
 40
0.671875
 40
0.6796875
 40
0.6875
 40
0.6953125
 40
0.703125
 40
0.7109375
 40
0.71875
 40
0.7265625
 40
0.734375
 40
0.7421875
 40
0.74609375
 40
0.75
 40
0.7578125
 40
0.765625
 40
0.7734375
 40
0.78125
 40
0.7890625
 40
0.796875
 40
0.8046875
 40
0.80859375
 40
0.8125
 40
0.81640625
 40
0.8203125
 40
0.828125
 40
0.8359375
 40
0.84375
 40
0.8515625
 40
0.859375
 40
0.8671875
 40
0.875
 40
0.8828125
 40
0.890625
 40
0.8984375
 40
0.90625
 40
0.921875
 40
0.9296875
 40
0.9375
 40
0.9453125
 40
0.953125
 40
0.9609375
 40
0.96875
 40
0.9765625
 40
0.9804558692451036
 40
0.9804558692451036
 40
0.9804558692451036
 40
0.9804558692451036
 10
53.86368834468308
 20
-27.60333347816259
 30
0.0
 10
53.92893795553559
 20
-27.62728938055187
 30
0.0
 10
54.31324948514296
 20
-27.77346858171158
 30
0.0
 10
55.01620629646945
 20
-28.09838567868631
 30
0.0
 10
56.25112567601371
 20
-28.90323613531039
 30
0.0
 10
57.47009752286645
 20
-30.11446412021555
 30
0.0
 10
58.99785637220902
 20
-32.21603295390516
 30
0.0
 10
60.1605697511454
 20
-34.36720159824173
 30
0.0
 10
61.21283552982492
 20
-36.1586230696706
 30
0.0
 10
61.94612514042784
 20
-37.19243518899393
 30
0.0
 10
62.45492968286762
 20
-37.68230565161053
 30
0.0
 10
62.73026808698784
 20
-37.85317646960747
 30
0.0
 10
62.85635694721531
 20
-37.90359401532594
 30
0.0
 10
62.98955895194173
 20
-37.93267968222121
 30
0.0
 10
63.37561060173745
 20
-37.9483370480204
 30
0.0
 10
64.18273186772691
 20
-37.8168007877987
 30
0.0
 10
65.50477562626008
 20
-37.37301932703316
 30
0.0
 10
67.03295242427441
 20
-36.73617254860557
 30
0.0
 10
68.69359822669118
 20
-36.02261687563033
 30
0.0
 10
70.45440096966873
 20
-35.35326371801845
 30
0.0
 10
72.33665341390642
 20
-34.86348308351215
 30
0.0
 10
74.07398873380262
 20
-34.76760985397944
 30
0.0
 10
75.58981725349783
 20
-35.10499259518996
 30
0.0
 10
76.97585021654238
 20
-35.74340122141059
 30
0.0
 10
78.30081729969201
 20
-36.85727074814464
 30
0.0
 10
79.48637333847151
 20
-38.36467193678465
 30
0.0
 10
80.46434275643618
 20
-39.93471438418548
 30
0.0
 10
81.33738688936224
 20
-41.47930922093301
 30
0.0
 10
82.15988893246825
 20
-42.89183557623696
 30
0.0
 10
82.94999343508107
 20
-44.04677955450772
 30
0.0
 10
83.54511604795
 20
-44.67802625428105
 30
0.0
 10
83.92897757595001
 20
-44.9583547419915
 30
0.0
 10
84.21725732510258
 20
-45.10857826520604
 30
0.0
 10
84.73524054522974
 20
-45.24941476775292
 30
0.0
 10
85.74071564439204
 20
-45.25682732319242
 30
0.0
 10
87.48668967946905
 20
-44.99520736968267
 30
0.0
 10
89.63073590339295
 20
-44.41910128431525
 30
0.0
 10
91.97203982819659
 20
-43.88677974622365
 30
0.0
 10
93.82200831325588
 20
-43.62501460712606
 30
0.0
 10
95.81241163423269
 20
-43.64461783634003
 30
0.0
 10
97.83870088042511
 20
-44.20308828223624
 30
0.0
 10
99.54614899809741
 20
-45.20159646183754
 30
0.0
 10
101.4541783344879
 20
-46.93100692655655
 30
0.0
 10
103.2242069851672
 20
-49.59332192067716
 30
0.0
 10
104.4548101611454
 20
-52.60482678256398
 30
0.0
 10
105.1885986664597
 20
-55.09098045558844
 30
0.0
 10
105.6241073419373
 20
-56.95658387798182
 30
0.0
 10
105.8986393612238
 20
-58.4847238368943
 30
0.0
 10
106.0689749011216
 20
-59.66701972129471
 30
0.0
 10
106.1719932493548
 20
-60.54479043250138
 30
0.0
 10
106.2542948408305
 20
-61.34585629625926
 30
0.0
 10
106.3075799841998
 20
-62.38859624101092
 30
0.0
 10
106.217524123977
 20
-63.43769128373493
 30
0.0
 10
106.0524141379083
 20
-64.36674258826703
 30
0.0
 10
105.8554099197014
 20
-65.22385142174969
 30
0.0
 10
105.5408942565824
 20
-66.37654572624677
 30
0.0
 10
104.8632545850288
 20
-68.36795103519829
 30
0.0
 10
103.5565411014602
 20
-71.14608639622102
 30
0.0
 10
100.839018006651
 20
-75.36035306622
 30
0.0
 10
96.42102139855426
 20
-80.04345918955822
 30
0.0
 10
90.98491463942888
 20
-83.46874635996296
 30
0.0
 10
86.20268990514069
 20
-85.09810101124741
 30
0.0
 10
82.44760740373846
 20
-85.65122746560502
 30
0.0
 10
79.25204483758333
 20
-85.45539645525494
 30
0.0
 10
76.69098876894913
 20
-84.84291292876436
 30
0.0
 10
74.23102863482544
 20
-83.93536622184298
 30
0.0
 10
71.49877259555426
 20
-82.56153325938786
 30
0.0
 10
69.14747788879
 20
-81.42294546535297
 30
0.0
 10
67.651392623102
 20
-80.94363625518591
 30
0.0
 10
66.79445913019008
 20
-80.82822054609362
 30
0.0
 10
66.24697321144912
 20
-80.89751683336921
 30
0.0
 10
65.78985902317226
 20
-81.08712499835
 30
0.0
 10
64.9631147077367
 20
-81.7239333814656
 30
0.0
 10
64.01220983169742
 20
-82.73750631556625
 30
0.0
 10
62.9757485448166
 20
-84.00212596336426
 30
0.0
 10
61.86910029748252
 20
-85.39135772058644
 30
0.0
 10
60.66150759107733
 20
-86.79405786231926
 30
0.0
 10
59.28493499216219
 20
-88.10926253503347
 30
0.0
 10
57.86652051297953
 20
-89.03440215618586
 30
0.0
 10
56.48522669048467
 20
-89.52419975515336
 30
0.0
 10
54.93585909486788
 20
-89.74133433364617
 30
0.0
 10
53.17951479589122
 20
-89.4597846017927
 30
0.0
 10
51.37901262699024
 20
-88.72978524283859
 30
0.0
 10
49.74384655109293
 20
-87.81686377091657
 30
0.0
 10
48.21767933912859
 20
-86.85329916121933
 30
0.0
 10
46.79736133868767
 20
-85.96011638609197
 30
0.0
 10
45.52285610635116
 20
-85.25950018713996
 30
0.0
 10
44.66349623710799
 20
-84.93217550208668
 30
0.0
 10
44.1721371832994
 20
-84.83522424151334
 30
0.0
 10
43.92035974035468
 20
-84.82558575200623
 30
0.0
 10
43.74434334833444
 20
-84.84896875233761
 30
0.0
 10
43.39817479388896
 20
-84.95132447135398
 30
0.0
 10
42.77904831686634
 20
-85.28874438405283
 30
0.0
 10
41.82319172235297
 20
-86.08154090798153
 30
0.0
 10
40.75459429471134
 20
-87.16342625873352
 30
0.0
 10
39.59812638201952
 20
-88.41572779072942
 30
0.0
 10
38.34281116511552
 20
-89.72637579039326
 30
0.0
 10
36.93545840759007
 20
-90.98660941741333
 30
0.0
 10
35.2904394712822
 20
-92.09460640200143
 30
0.0
 10
33.21027055057528
 20
-92.79654328352656
 30
0.0
 10
31.20978320731029
 20
-92.85479397365958
 30
0.0
 10
29.36492963714066
 20
-92.5546464603165
 30
0.0
 10
27.07823439465039
 20
-91.88377433397878
 30
0.0
 10
24.97768560362289
 20
-91.04956516452408
 30
0.0
 10
23.05219386563893
 20
-90.39527514818512
 30
0.0
 10
21.76488731147776
 20
-90.07005872627684
 30
0.0
 10
20.54379660712537
 20
-89.93121818616018
 30
0.0
 10
19.22581632174879
 20
-89.9212072142055
 30
0.0
 10
17.83862310975786
 20
-90.01665296776714
 30
0.0
 10
16.3692781141866
 20
-90.1766420863053
 30
0.0
 10
15.0852016030577
 20
-90.32330532276416
 30
0.0
 10
14.27557245512543
 20
-90.39665548976676
 30
0.0
 10
14.00405060078855
 20
-90.41786472939206
 30
0.0
  0
ARC
  5
76
330
1F
100
AcDbEntity
  8
0
  6
Continuous
 62
     7
370
    25
100
AcDbCircle
 10
57.9994682554
 20
-16.3385509889
 30
0.0
 40
12.00000000000001
100
AcDbArc
 50
163.6297905234
 51
249.8396702436
  0
SPLINE
  5
77
330
1F
100
AcDbEntity
  8
0
  6
Continuous
 62
     7
370
    25
100
AcDbSpline
210
0.0
220
0.0
230
1.0
 70
     8
 71
     3
 72
    45
 73
    41
 74
     0
 42
0.000000001
 43
0.00000001
 40
0.2259056648767955
 40
0.2259056648767955
 40
0.2259056648767955
 40
0.2259056648767955
 40
0.234375
 40
0.25
 40
0.265625
 40
0.28125
 40
0.296875
 40
0.3125
 40
0.328125
 40
0.34375
 40
0.3515625
 40
0.359375
 40
0.375
 40
0.390625
 40
0.40625
 40
0.421875
 40
0.4375
 40
0.453125
 40
0.46875
 40
0.484375
 40
0.5
 40
0.515625
 40
0.53125
 40
0.546875
 40
0.5625
 40
0.578125
 40
0.59375
 40
0.609375
 40
0.625
 40
0.640625
 40
0.6484375
 40
0.65625
 40
0.671875
 40
0.6875
 40
0.703125
 40
0.71875
 40
0.734375
 40
0.75
 40
0.765625
 40
0.7740943351232041
 40
0.7740943351232041
 40
0.7740943351232041
 40
0.7740943351232041
 10
-46.48594050046776
 20
-12.95643942431701
 30
0.0
 10
-46.77411775819194
 20
-11.97541417078099
 30
0.0
 10
-47.51197249095075
 20
-9.162238485573202
 30
0.0
 10
-48.41999246459216
 20
-4.454868395588544
 30
0.0
 10
-49.21720910290388
 20
1.048797750845856
 30
0.0
 10
-49.85650768674417
 20
6.674544380068455
 30
0.0
 10
-50.16794263621473
 20
12.36440955024739
 30
0.0
 10
-50.0054069907825
 20
18.04347673012217
 30
0.0
 10
-49.19091453991262
 20
23.6463795453337
 30
0.0
 10
-47.79309630536562
 20
28.17838073894984
 30
0.0
 10
-46.13368688390119
 20
31.64229232553443
 30
0.0
 10
-44.07530684596087
 20
34.94963681303789
 30
0.0
 10
-40.93421817421103
 20
38.56237914345559
 30
0.0
 10
-36.53175956805858
 20
42.20653470941003
 30
0.0
 10
-31.70296712537798
 20
45.27367832591127
 30
0.0
 10
-26.61471203156412
 20
47.87358548316071
 30
0.0
 10
-21.42178446591723
 20
50.08078529009252
 30
0.0
 10
-16.28840394470977
 20
51.98919776512322
 30
0.0
 10
-11.01310174826501
 20
53.59617350162596
 30
0.0
 10
-5.608553422809869
 20
54.70769408965375
 30
0.0
 10
0.0000000000000234
 20
55.14615295517311
 30
0.0
 10
5.608553422809921
 20
54.70769408965374
 30
0.0
 10
11.01310174826503
 20
53.59617350162593
 30
0.0
 10
16.28840394470981
 20
51.98919776512324
 30
0.0
 10
21.42178446591724
 20
50.0807852900925
 30
0.0
 10
26.61471203156412
 20
47.87358548316072
 30
0.0
 10
31.70296712537798
 20
45.27367832591125
 30
0.0
 10
36.53175956805858
 20
42.20653470941002
 30
0.0
 10
40.93421817421104
 20
38.5623791434556
 30
0.0
 10
44.0753068459609
 20
34.94963681303788
 30
0.0
 10
46.1336868839012
 20
31.64229232553442
 30
0.0
 10
47.79309630536564
 20
28.17838073894985
 30
0.0
 10
49.19091453991263
 20
23.64637954533368
 30
0.0
 10
50.0054069907825
 20
18.04347673012216
 30
0.0
 10
50.16794263621478
 20
12.36440955024737
 30
0.0
 10
49.85650768674417
 20
6.674544380068434
 30
0.0
 10
49.21720910290389
 20
1.04879775084583
 30
0.0
 10
48.41999246459214
 20
-4.454868395588568
 30
0.0
 10
47.51197249095074
 20
-9.162238485573182
 30
0.0
 10
46.77411775819196
 20
-11.97541417078093
 30
0.0
 10
46.48594050046778
 20
-12.95643942431692
 30
0.0
  0
ARC
  5
78
330
1F
100
AcDbEntity
  8
0
  6
Continuous
 62
     7
370
    25
100
AcDbCircle
 10
-57.9994682554
 20
-16.3385509889
 30
0.0
 40
12.0
100
AcDbArc
 50
290.1603297564
 51
16.3702094766
  0
SPLINE
  5
79
330
1F
100
AcDbEntity
  8
0
  6
Continuous
 62
     7
370
    25
100
AcDbSpline
210
0.0
220
0.0
230
1.0
 70
     8
 71
     3
 72
   117
 73
   113
 74
     0
 42
0.000000001
 43
0.00000001
 40
0.0851384970635999
 40
0.0851384970635999
 40
0.0851384970635999
 40
0.0851384970635999
 40
0.0859375
 40
0.08984375
 40
0.09375
 40
0.1015625
 40
0.109375
 40
0.125
 40
0.1328125
 40
0.140625
 40
0.1484375
 40
0.15234375
 40
0.15625
 40
0.16015625
 40
0.1640625
 40
0.171875
 40
0.1796875
 40
0.1875
 40
0.1953125
 40
0.203125
 40
0.2109375
 40
0.21875
 40
0.22265625
 40
0.2265625
 40
0.234375
 40
0.2421875
 40
0.25
 40
0.2578125
 40
0.265625
 40
0.2734375
 40
0.28125
 40
0.28515625
 40
0.2890625
 40
0.296875
 40
0.3046875
 40
0.3125
 40
0.328125
 40
0.3359375
 40
0.34375
 40
0.3515625
 40
0.359375
 40
0.3671875
 40
0.375
 40
0.390625
 40
0.40625
 40
0.4140625
 40
0.421875
 40
0.4296875
 40
0.43359375
 40
0.4375
 40
0.44140625
 40
0.4453125
 40
0.44921875
 40
0.453125
 40
0.45703125
 40
0.4609375
 40
0.46875
 40
0.484375
 40
0.5
 40
0.53125
 40
0.5625
 40
0.578125
 40
0.59375
 40
0.609375
 40
0.6171875
 40
0.625
 40
0.640625
 40
0.65625
 40
0.6640625
 40
0.671875
 40
0.6796875
 40
0.6875
 40
0.6953125
 40
0.703125
 40
0.7109375
 40
0.71875
 40
0.7265625
 40
0.734375
 40
0.7421875
 40
0.74609375
 40
0.75
 40
0.7578125
 40
0.765625
 40
0.7734375
 40
0.78125
 40
0.7890625
 40
0.796875
 40
0.8046875
 40
0.80859375
 40
0.8125
 40
0.81640625
 40
0.8203125
 40
0.828125
 40
0.8359375
 40
0.84375
 40
0.8515625
 40
0.859375
 40
0.8671875
 40
0.875
 40
0.8828125
 40
0.890625
 40
0.8984375
 40
0.90625
 40
0.921875
 40
0.9296875
 40
0.9375
 40
0.9453125
 40
0.953125
 40
0.9609375
 40
0.96875
 40
0.9765625
 40
0.9804558692451028
 40
0.9804558692451028
 40
0.9804558692451028
 40
0.9804558692451028
 10
-53.86368834468312
 20
-27.6033334781626
 30
0.0
 10
-53.92893795553562
 20
-27.62728938055188
 30
0.0
 10
-54.31324948514298
 20
-27.77346858171159
 30
0.0
 10
-55.01620629646945
 20
-28.09838567868631
 30
0.0
 10
-56.25112567601371
 20
-28.90323613531039
 30
0.0
 10
-57.47009752286645
 20
-30.11446412021555
 30
0.0
 10
-58.99785637220902
 20
-32.21603295390516
 30
0.0
 10
-60.1605697511454
 20
-34.36720159824173
 30
0.0
 10
-61.21283552982492
 20
-36.1586230696706
 30
0.0
 10
-61.94612514042784
 20
-37.19243518899393
 30
0.0
 10
-62.45492968286762
 20
-37.68230565161053
 30
0.0
 10
-62.73026808698784
 20
-37.85317646960747
 30
0.0
 10
-62.85635694721531
 20
-37.90359401532594
 30
0.0
 10
-62.98955895194173
 20
-37.93267968222121
 30
0.0
 10
-63.37561060173745
 20
-37.9483370480204
 30
0.0
 10
-64.18273186772691
 20
-37.8168007877987
 30
0.0
 10
-65.50477562626008
 20
-37.37301932703316
 30
0.0
 10
-67.03295242427441
 20
-36.73617254860557
 30
0.0
 10
-68.69359822669118
 20
-36.02261687563033
 30
0.0
 10
-70.45440096966873
 20
-35.35326371801845
 30
0.0
 10
-72.33665341390642
 20
-34.86348308351215
 30
0.0
 10
-74.07398873380262
 20
-34.76760985397944
 30
0.0
 10
-75.58981725349783
 20
-35.10499259518996
 30
0.0
 10
-76.97585021654238
 20
-35.74340122141059
 30
0.0
 10
-78.30081729969201
 20
-36.85727074814464
 30
0.0
 10
-79.48637333847151
 20
-38.36467193678465
 30
0.0
 10
-80.46434275643618
 20
-39.93471438418548
 30
0.0
 10
-81.33738688936224
 20
-41.47930922093301
 30
0.0
 10
-82.15988893246825
 20
-42.89183557623696
 30
0.0
 10
-82.94999343508107
 20
-44.04677955450772
 30
0.0
 10
-83.54511604795
 20
-44.67802625428105
 30
0.0
 10
-83.92897757595001
 20
-44.9583547419915
 30
0.0
 10
-84.21725732510258
 20
-45.10857826520604
 30
0.0
 10
-84.73524054522974
 20
-45.24941476775292
 30
0.0
 10
-85.74071564439204
 20
-45.25682732319242
 30
0.0
 10
-87.48668967946905
 20
-44.99520736968267
 30
0.0
 10
-89.63073590339295
 20
-44.41910128431525
 30
0.0
 10
-91.97203982819659
 20
-43.88677974622365
 30
0.0
 10
-93.82200831325588
 20
-43.62501460712606
 30
0.0
 10
-95.81241163423269
 20
-43.64461783634003
 30
0.0
 10
-97.83870088042511
 20
-44.20308828223624
 30
0.0
 10
-99.54614899809741
 20
-45.20159646183754
 30
0.0
 10
-101.4541783344879
 20
-46.93100692655655
 30
0.0
 10
-103.2242069851672
 20
-49.59332192067716
 30
0.0
 10
-104.4548101611454
 20
-52.60482678256398
 30
0.0
 10
-105.1885986664597
 20
-55.09098045558844
 30
0.0
 10
-105.6241073419373
 20
-56.95658387798182
 30
0.0
 10
-105.8986393612238
 20
-58.4847238368943
 30
0.0
 10
-106.0689749011216
 20
-59.66701972129471
 30
0.0
 10
-106.1719932493548
 20
-60.54479043250138
 30
0.0
 10
-106.2542948408305
 20
-61.34585629625926
 30
0.0
 10
-106.3075799841998
 20
-62.38859624101092
 30
0.0
 10
-106.217524123977
 20
-63.43769128373493
 30
0.0
 10
-106.0524141379083
 20
-64.36674258826703
 30
0.0
 10
-105.8554099197014
 20
-65.22385142174969
 30
0.0
 10
-105.5408942565824
 20
-66.37654572624677
 30
0.0
 10
-104.8632545850288
 20
-68.36795103519829
 30
0.0
 10
-103.5565411014602
 20
-71.14608639622102
 30
0.0
 10
-100.839018006651
 20
-75.36035306622
 30
0.0
 10
-96.42102139855426
 20
-80.04345918955822
 30
0.0
 10
-90.98491463942888
 20
-83.46874635996296
 30
0.0
 10
-86.20268990514069
 20
-85.09810101124741
 30
0.0
 10
-82.44760740373846
 20
-85.65122746560502
 30
0.0
 10
-79.25204483758333
 20
-85.45539645525494
 30
0.0
 10
-76.69098876894913
 20
-84.84291292876436
 30
0.0
 10
-74.23102863482544
 20
-83.93536622184298
 30
0.0
 10
-71.49877259555426
 20
-82.56153325938786
 30
0.0
 10
-69.14747788879
 20
-81.42294546535297
 30
0.0
 10
-67.651392623102
 20
-80.94363625518591
 30
0.0
 10
-66.79445913019008
 20
-80.82822054609362
 30
0.0
 10
-66.24697321144912
 20
-80.89751683336921
 30
0.0
 10
-65.78985902317226
 20
-81.08712499835
 30
0.0
 10
-64.9631147077367
 20
-81.7239333814656
 30
0.0
 10
-64.01220983169742
 20
-82.73750631556625
 30
0.0
 10
-62.9757485448166
 20
-84.00212596336426
 30
0.0
 10
-61.86910029748252
 20
-85.39135772058644
 30
0.0
 10
-60.66150759107733
 20
-86.79405786231926
 30
0.0
 10
-59.28493499216219
 20
-88.10926253503347
 30
0.0
 10
-57.86652051297953
 20
-89.03440215618586
 30
0.0
 10
-56.48522669048467
 20
-89.52419975515336
 30
0.0
 10
-54.93585909486788
 20
-89.74133433364617
 30
0.0
 10
-53.17951479589122
 20
-89.4597846017927
 30
0.0
 10
-51.37901262699024
 20
-88.72978524283859
 30
0.0
 10
-49.74384655109293
 20
-87.81686377091657
 30
0.0
 10
-48.21767933912859
 20
-86.85329916121933
 30
0.0
 10
-46.79736133868767
 20
-85.96011638609197
 30
0.0
 10
-45.52285610635116
 20
-85.25950018713996
 30
0.0
 10
-44.66349623710799
 20
-84.93217550208668
 30
0.0
 10
-44.1721371832994
 20
-84.83522424151334
 30
0.0
 10
-43.92035974035468
 20
-84.82558575200623
 30
0.0
 10
-43.74434334833444
 20
-84.84896875233761
 30
0.0
 10
-43.39817479388896
 20
-84.95132447135398
 30
0.0
 10
-42.77904831686634
 20
-85.28874438405283
 30
0.0
 10
-41.82319172235297
 20
-86.08154090798153
 30
0.0
 10
-40.75459429471134
 20
-87.16342625873352
 30
0.0
 10
-39.59812638201952
 20
-88.41572779072942
 30
0.0
 10
-38.34281116511552
 20
-89.72637579039326
 30
0.0
 10
-36.93545840759007
 20
-90.98660941741333
 30
0.0
 10
-35.2904394712822
 20
-92.09460640200143
 30
0.0
 10
-33.21027055057528
 20
-92.79654328352656
 30
0.0
 10
-31.20978320731029
 20
-92.85479397365958
 30
0.0
 10
-29.36492963714066
 20
-92.5546464603165
 30
0.0
 10
-27.07823439465039
 20
-91.88377433397878
 30
0.0
 10
-24.97768560362289
 20
-91.04956516452408
 30
0.0
 10
-23.05219386563893
 20
-90.39527514818512
 30
0.0
 10
-21.76488731147776
 20
-90.07005872627684
 30
0.0
 10
-20.54379660712537
 20
-89.93121818616018
 30
0.0
 10
-19.22581632174879
 20
-89.9212072142055
 30
0.0
 10
-17.83862310975786
 20
-90.01665296776714
 30
0.0
 10
-16.3692781141866
 20
-90.1766420863053
 30
0.0
 10
-15.08520160305775
 20
-90.32330532276414
 30
0.0
 10
-14.27557245512555
 20
-90.39665548976674
 30
0.0
 10
-14.00405060078874
 20
-90.41786472939205
 30
0.0
  0
ARC
  5
7A
330
1F
100
AcDbEntity
  8
0
  6
Continuous
 62
     7
370
    25
100
AcDbCircle
 10
-14.9385534795
 20
-102.3814220753
 30
0.0
 40
12.0
100
AcDbArc
 50
50.8233891757
 51
85.5335551453
  0
SPLINE
  5
7B
330
1F
100
AcDbEntity
  8
0
  6
Continuous
 62
     7
370
    25
100
AcDbSpline
210
0.0
220
0.0
230
1.0
 70
     8
 71
     3
 72
   118
 73
   114
 74
     0
 42
0.000000001
 43
0.00000001
 40
0.0314439426681128
 40
0.0314439426681128
 40
0.0314439426681128
 40
0.0314439426681128
 40
0.0390625
 40
0.046875
 40
0.0546875
 40
0.0625
 40
0.0703125
 40
0.078125
 40
0.09375
 40
0.1015625
 40
0.109375
 40
0.1171875
 40
0.125
 40
0.1328125
 40
0.140625
 40
0.15625
 40
0.1640625
 40
0.171875
 40
0.1796875
 40
0.18359375
 40
0.1875
 40
0.19140625
 40
0.1953125
 40
0.203125
 40
0.2109375
 40
0.21875
 40
0.2265625
 40
0.234375
 40
0.2421875
 40
0.25
 40
0.25390625
 40
0.2578125
 40
0.265625
 40
0.2734375
 40
0.28125
 40
0.2890625
 40
0.296875
 40
0.3046875
 40
0.3125
 40
0.3203125
 40
0.328125
 40
0.3359375
 40
0.34375
 40
0.359375
 40
0.375
 40
0.390625
 40
0.40625
 40
0.4375
 40
0.46875
 40
0.484375
 40
0.5
 40
0.515625
 40
0.5234375
 40
0.53125
 40
0.5390625
 40
0.54296875
 40
0.546875
 40
0.55078125
 40
0.5546875
 40
0.55859375
 40
0.5625
 40
0.56640625
 40
0.5703125
 40
0.578125
 40
0.5859375
 40
0.59375
 40
0.609375
 40
0.625
 40
0.6328125
 40
0.640625
 40
0.6484375
 40
0.65625
 40
0.6640625
 40
0.671875
 40
0.6875
 40
0.6953125
 40
0.703125
 40
0.7109375
 40
0.71484375
 40
0.71875
 40
0.7265625
 40
0.734375
 40
0.7421875
 40
0.75
 40
0.7578125
 40
0.765625
 40
0.7734375
 40
0.78125
 40
0.7890625
 40
0.796875
 40
0.8046875
 40
0.8125
 40
0.8203125
 40
0.828125
 40
0.8359375
 40
0.83984375
 40
0.84375
 40
0.84765625
 40
0.8515625
 40
0.859375
 40
0.8671875
 40
0.875
 40
0.890625
 40
0.8984375
 40
0.90625
 40
0.91015625
 40
0.9140625
 40
0.921875
 40
0.9296875
 40
0.9375
 40
0.9453125
 40
0.953125
 40
0.9566188145646646
 40
0.9566188145646646
 40
0.9566188145646646
 40
0.9566188145646646
 10
15.84060933190441
 20
-85.20594305156709
 30
0.0
 10
16.33911050897411
 20
-85.15039040169135
 30
0.0
 10
17.37729748357806
 20
-85.03694092224121
 30
0.0
 10
19.03960922248447
 20
-84.92081725153403
 30
0.0
 10
20.80536229277872
 20
-84.92683577662325
 30
0.0
 10
22.69048272958191
 20
-85.14116797462728
 30
0.0
 10
24.53383272932101
 20
-85.61360042742832
 30
0.0
 10
26.78423701498506
 20
-86.38738653057045
 30
0.0
 10
28.81589089949955
 20
-87.1877660057362
 30
0.0
 10
30.52542497934226
 20
-87.67814634986803
 30
0.0
 10
31.58629005022053
 20
-87.83960553088257
 30
0.0
 10
32.37842437196322
 20
-87.78995035123721
 30
0.0
 10
32.94918190330258
 20
-87.60663385684387
 30
0.0
 10
33.81680459335014
 20
-87.06207458650861
 30
0.0
 10
35.16608696750232
 20
-85.8639834090068
 30
0.0
 10
36.68113126082687
 20
-84.17765831505807
 30
0.0
 10
38.37851593593152
 20
-82.44931255844233
 30
0.0
 10
39.81392064217863
 20
-81.23261043146745
 30
0.0
 10
41.25668214280964
 20
-80.38750966955719
 30
0.0
 10
42.61979986558328
 20
-79.94847016165883
 30
0.0
 10
43.76048770287309
 20
-79.79828746337421
 30
0.0
 10
44.86290516462665
 20
-79.86412038128832
 30
0.0
 10
46.21950667745771
 20
-80.1518102306247
 30
0.0
 10
47.73794986803416
 20
-80.76447199218853
 30
0.0
 10
49.38642224547325
 20
-81.68025131982407
 30
0.0
 10
50.91996265235246
 20
-82.64693343998155
 30
0.0
 10
52.33972738045359
 20
-83.54130195749349
 30
0.0
 10
53.60383932598239
 20
-84.23947368505333
 30
0.0
 10
54.61698867917732
 20
-84.62730624454007
 30
0.0
 10
55.10227200177118
 20
-84.66551408069822
 30
0.0
 10
55.26364253389814
 20
-84.64059951906853
 30
0.0
 10
55.53785611948969
 20
-84.5543076936576
 30
0.0
 10
56.0996044311298
 20
-84.21967203432466
 30
0.0
 10
56.99405539969136
 20
-83.38581673311216
 30
0.0
 10
57.9908285473963
 20
-82.23399873992715
 30
0.0
 10
59.06018003227051
 20
-80.89379014274753
 30
0.0
 10
60.20960235508008
 20
-79.48418578387205
 30
0.0
 10
61.4931038105992
 20
-78.11181465826556
 30
0.0
 10
62.98641360504909
 20
-76.87271977407059
 30
0.0
 10
64.97779266814932
 20
-75.96051229277295
 30
0.0
 10
67.02538460818347
 20
-75.7822124844415
 30
0.0
 10
68.89132006518521
 20
-76.07800998487578
 30
0.0
 10
71.18052368293394
 20
-76.8351086270338
 30
0.0
 10
73.81641390598837
 20
-78.13754940133963
 30
0.0
 10
76.82887235236103
 20
-79.63502362742165
 30
0.0
 10
79.48235029826763
 20
-80.45095617055362
 30
0.0
 10
83.12871999784487
 20
-80.67639370531793
 30
0.0
 10
87.81424163302287
 20
-79.52114717121786
 30
0.0
 10
92.2941390241305
 20
-76.7217429723995
 30
0.0
 10
95.4293663368678
 20
-73.78918784272945
 30
0.0
 10
97.48570781174583
 20
-71.33002473678964
 30
0.0
 10
98.89578929458678
 20
-69.13995904319621
 30
0.0
 10
99.81119365127797
 20
-67.35179067233376
 30
0.0
 10
100.3844901601449
 20
-66.0060116278788
 30
0.0
 10
100.7636465570754
 20
-64.8889794023212
 30
0.0
 10
101.0036588754953
 20
-64.00989375982259
 30
0.0
 10
101.1560282846416
 20
-63.34565214752438
 30
0.0
 10
101.256543973946
 20
-62.75759535725685
 30
0.0
 10
101.2945754072159
 20
-62.29073675671168
 30
0.0
 10
101.2732000491522
 20
-61.82210020402907
 30
0.0
 10
101.199706428731
 20
-61.06396032441253
 30
0.0
 10
101.1114013328782
 20
-60.32367783886144
 30
0.0
 10
100.9633009604669
 20
-59.29114080194522
 30
0.0
 10
100.7249102128508
 20
-57.96684297080564
 30
0.0
 10
100.3500952607674
 20
-56.36224136737467
 30
0.0
 10
99.7325526145234
 20
-54.27270056477224
 30
0.0
 10
98.74338323766688
 20
-51.87589555911424
 30
0.0
 10
97.52692117518218
 20
-50.11772639566389
 30
0.0
 10
96.54976624590017
 20
-49.24827854475739
 30
0.0
 10
95.8370951944119
 20
-48.85012713443933
 30
0.0
 10
95.1753415250623
 20
-48.65961390451081
 30
0.0
 10
94.21162995888896
 20
-48.62812779092909
 30
0.0
 10
92.92231653794451
 20
-48.80088675793326
 30
0.0
 10
90.92816139844118
 20
-49.24800819537568
 30
0.0
 10
88.66211810080523
 20
-49.86616771685927
 30
0.0
 10
86.2212498994558
 20
-50.24987527599544
 30
0.0
 10
84.2731666900261
 20
-50.2745650676796
 30
0.0
 10
82.54621261765175
 20
-49.88480256472045
 30
0.0
 10
81.20842438222445
 20
-49.18065433318906
 30
0.0
 10
80.07844562629413
 20
-48.32335964405861
 30
0.0
 10
78.95998129990642
 20
-47.08570019619506
 30
0.0
 10
77.89529687469302
 20
-45.50788346904098
 30
0.0
 10
76.97806426587316
 20
-43.927642985868
 30
0.0
 10
76.1408772351127
 20
-42.44783985604294
 30
0.0
 10
75.35096190469929
 20
-41.1918599338075
 30
0.0
 10
74.6293373428383
 20
-40.29678638472992
 30
0.0
 10
74.0707261859735
 20
-39.8973817861167
 30
0.0
 10
73.89704430173485
 20
-39.83591550885866
 30
0.0
 10
73.19211450401814
 20
-39.81924903185869
 30
0.0
 10
72.03522308889205
 20
-40.10659044849874
 30
0.0
 10
70.61050519814228
 20
-40.64146159539425
 30
0.0
 10
69.02269376173653
 20
-41.32298518607666
 30
0.0
 10
67.32817662640123
 20
-42.03167751782733
 30
0.0
 10
65.54054543656702
 20
-42.64470006967091
 30
0.0
 10
63.92359745177254
 20
-42.95334807212419
 30
0.0
 10
62.51436380553562
 20
-42.93764312665891
 30
0.0
 10
61.38456041064831
 20
-42.72017578402264
 30
0.0
 10
60.33986865619238
 20
-42.27663859972384
 30
0.0
 10
59.16035455728528
 20
-41.49920067907383
 30
0.0
 10
58.02267845507141
 20
-40.32446922568936
 30
0.0
 10
56.96600451198118
 20
-38.80656410970161
 30
0.0
 10
55.7604566994483
 20
-36.73909107139841
 30
0.0
 10
54.68021732939759
 20
-34.76982985999482
 30
0.0
 10
53.62225290136349
 20
-33.33826629269543
 30
0.0
 10
53.00914423058547
 20
-32.7598567910085
 30
0.0
 10
52.60125843080271
 20
-32.49661922781346
 30
0.0
 10
52.11400981626878
 20
-32.26642988074173
 30
0.0
 10
51.31684577707463
 20
-32.04626330847206
 30
0.0
 10
50.05347366336207
 20
-31.90779124902551
 30
0.0
 10
48.55918918882975
 20
-31.86684216650312
 30
0.0
 10
46.8990015216037
 20
-31.84834305567928
 30
0.0
 10
45.43952344986227
 20
-31.76155831671754
 30
0.0
 10
44.54395552232931
 20
-31.63843977931591
 30
0.0
 10
44.26395026515272
 20
-31.58951140805037
 30
0.0
  0
ARC
  5
7C
330
1F
100
AcDbEntity
  8
0
  6
Continuous
 62
     7
370
    25
100
AcDbCircle
 10
14.5115641293
 20
-73.2797685245
 30
0.0
 40
12.00000000000001
100
AcDbArc
 50
232.311295956
 51
276.3587687388
  0
ELLIPSE
  5
7D
330
1F
100
AcDbEntity
  8
0
  6
Continuous
 62
     7
370
    25
100
AcDbEllipse
 10
0.0
 20
-88.0
 30
0.0
 11
-10.00000000002449
 21
0.0
 31
0.0
210
0.0
220
0.0
230
1.0
 40
0.75
 41
3.912166368704277
 42
5.512611592065129
  0
ARC
  5
7E
330
1F
100
AcDbEntity
  8
0
  6
Continuous
 62
     7
370
    25
100
AcDbCircle
 10
-14.5115641293
 20
-73.2797685245
 30
0.0
 40
12.00000000000004
100
AcDbArc
 50
263.6412312612
 51
307.688704044
  0
SPLINE
  5
7F
330
1F
100
AcDbEntity
  8
0
  6
Continuous
 62
     7
370
    25
100
AcDbSpline
210
0.0
220
0.0
230
1.0
 70
     8
 71
     3
 72
   118
 73
   114
 74
     0
 42
0.000000001
 43
0.00000001
 40
0.0314439426681152
 40
0.0314439426681152
 40
0.0314439426681152
 40
0.0314439426681152
 40
0.0390625
 40
0.046875
 40
0.0546875
 40
0.0625
 40
0.0703125
 40
0.078125
 40
0.09375
 40
0.1015625
 40
0.109375
 40
0.1171875
 40
0.125
 40
0.1328125
 40
0.140625
 40
0.15625
 40
0.1640625
 40
0.171875
 40
0.1796875
 40
0.18359375
 40
0.1875
 40
0.19140625
 40
0.1953125
 40
0.203125
 40
0.2109375
 40
0.21875
 40
0.2265625
 40
0.234375
 40
0.2421875
 40
0.25
 40
0.25390625
 40
0.2578125
 40
0.265625
 40
0.2734375
 40
0.28125
 40
0.2890625
 40
0.296875
 40
0.3046875
 40
0.3125
 40
0.3203125
 40
0.328125
 40
0.3359375
 40
0.34375
 40
0.359375
 40
0.375
 40
0.390625
 40
0.40625
 40
0.4375
 40
0.46875
 40
0.484375
 40
0.5
 40
0.515625
 40
0.5234375
 40
0.53125
 40
0.5390625
 40
0.54296875
 40
0.546875
 40
0.55078125
 40
0.5546875
 40
0.55859375
 40
0.5625
 40
0.56640625
 40
0.5703125
 40
0.578125
 40
0.5859375
 40
0.59375
 40
0.609375
 40
0.625
 40
0.6328125
 40
0.640625
 40
0.6484375
 40
0.65625
 40
0.6640625
 40
0.671875
 40
0.6875
 40
0.6953125
 40
0.703125
 40
0.7109375
 40
0.71484375
 40
0.71875
 40
0.7265625
 40
0.734375
 40
0.7421875
 40
0.75
 40
0.7578125
 40
0.765625
 40
0.7734375
 40
0.78125
 40
0.7890625
 40
0.796875
 40
0.8046875
 40
0.8125
 40
0.8203125
 40
0.828125
 40
0.8359375
 40
0.83984375
 40
0.84375
 40
0.84765625
 40
0.8515625
 40
0.859375
 40
0.8671875
 40
0.875
 40
0.890625
 40
0.8984375
 40
0.90625
 40
0.91015625
 40
0.9140625
 40
0.921875
 40
0.9296875
 40
0.9375
 40
0.9453125
 40
0.953125
 40
0.956618814564664
 40
0.956618814564664
 40
0.956618814564664
 40
0.956618814564664
 10
-15.84060933190488
 20
-85.20594305156705
 30
0.0
 10
-16.33911050897444
 20
-85.1503904016913
 30
0.0
 10
-17.37729748357823
 20
-85.03694092224119
 30
0.0
 10
-19.03960922248447
 20
-84.92081725153403
 30
0.0
 10
-20.80536229277872
 20
-84.92683577662325
 30
0.0
 10
-22.69048272958191
 20
-85.14116797462728
 30
0.0
 10
-24.53383272932101
 20
-85.61360042742832
 30
0.0
 10
-26.78423701498506
 20
-86.38738653057045
 30
0.0
 10
-28.81589089949955
 20
-87.1877660057362
 30
0.0
 10
-30.52542497934226
 20
-87.67814634986803
 30
0.0
 10
-31.58629005022053
 20
-87.83960553088257
 30
0.0
 10
-32.37842437196322
 20
-87.78995035123721
 30
0.0
 10
-32.94918190330258
 20
-87.60663385684387
 30
0.0
 10
-33.81680459335014
 20
-87.06207458650861
 30
0.0
 10
-35.16608696750232
 20
-85.8639834090068
 30
0.0
 10
-36.68113126082687
 20
-84.17765831505807
 30
0.0
 10
-38.37851593593152
 20
-82.44931255844233
 30
0.0
 10
-39.81392064217863
 20
-81.23261043146745
 30
0.0
 10
-41.25668214280964
 20
-80.38750966955719
 30
0.0
 10
-42.61979986558328
 20
-79.94847016165883
 30
0.0
 10
-43.76048770287309
 20
-79.79828746337421
 30
0.0
 10
-44.86290516462665
 20
-79.86412038128832
 30
0.0
 10
-46.21950667745771
 20
-80.1518102306247
 30
0.0
 10
-47.73794986803416
 20
-80.76447199218853
 30
0.0
 10
-49.38642224547325
 20
-81.68025131982407
 30
0.0
 10
-50.91996265235246
 20
-82.64693343998155
 30
0.0
 10
-52.33972738045359
 20
-83.54130195749349
 30
0.0
 10
-53.60383932598239
 20
-84.23947368505333
 30
0.0
 10
-54.61698867917732
 20
-84.62730624454007
 30
0.0
 10
-55.10227200177118
 20
-84.66551408069822
 30
0.0
 10
-55.26364253389814
 20
-84.64059951906853
 30
0.0
 10
-55.53785611948969
 20
-84.5543076936576
 30
0.0
 10
-56.0996044311298
 20
-84.21967203432466
 30
0.0
 10
-56.99405539969136
 20
-83.38581673311216
 30
0.0
 10
-57.9908285473963
 20
-82.23399873992715
 30
0.0
 10
-59.06018003227051
 20
-80.89379014274753
 30
0.0
 10
-60.20960235508008
 20
-79.48418578387205
 30
0.0
 10
-61.4931038105992
 20
-78.11181465826556
 30
0.0
 10
-62.98641360504909
 20
-76.87271977407059
 30
0.0
 10
-64.97779266814932
 20
-75.96051229277295
 30
0.0
 10
-67.02538460818347
 20
-75.7822124844415
 30
0.0
 10
-68.89132006518521
 20
-76.07800998487578
 30
0.0
 10
-71.18052368293394
 20
-76.8351086270338
 30
0.0
 10
-73.81641390598837
 20
-78.13754940133963
 30
0.0
 10
-76.82887235236103
 20
-79.63502362742165
 30
0.0
 10
-79.48235029826763
 20
-80.45095617055362
 30
0.0
 10
-83.12871999784487
 20
-80.67639370531793
 30
0.0
 10
-87.81424163302287
 20
-79.52114717121786
 30
0.0
 10
-92.2941390241305
 20
-76.7217429723995
 30
0.0
 10
-95.4293663368678
 20
-73.78918784272945
 30
0.0
 10
-97.48570781174583
 20
-71.33002473678964
 30
0.0
 10
-98.89578929458678
 20
-69.13995904319621
 30
0.0
 10
-99.81119365127797
 20
-67.35179067233376
 30
0.0
 10
-100.3844901601449
 20
-66.0060116278788
 30
0.0
 10
-100.7636465570754
 20
-64.8889794023212
 30
0.0
 10
-101.0036588754953
 20
-64.00989375982259
 30
0.0
 10
-101.1560282846416
 20
-63.34565214752438
 30
0.0
 10
-101.256543973946
 20
-62.75759535725685
 30
0.0
 10
-101.2945754072159
 20
-62.29073675671168
 30
0.0
 10
-101.2732000491522
 20
-61.82210020402907
 30
0.0
 10
-101.199706428731
 20
-61.06396032441253
 30
0.0
 10
-101.1114013328782
 20
-60.32367783886144
 30
0.0
 10
-100.9633009604669
 20
-59.29114080194522
 30
0.0
 10
-100.7249102128508
 20
-57.96684297080564
 30
0.0
 10
-100.3500952607674
 20
-56.36224136737467
 30
0.0
 10
-99.7325526145234
 20
-54.27270056477224
 30
0.0
 10
-98.74338323766688
 20
-51.87589555911424
 30
0.0
 10
-97.52692117518218
 20
-50.11772639566389
 30
0.0
 10
-96.54976624590017
 20
-49.24827854475739
 30
0.0
 10
-95.8370951944119
 20
-48.85012713443933
 30
0.0
 10
-95.1753415250623
 20
-48.65961390451081
 30
0.0
 10
-94.21162995888896
 20
-48.62812779092909
 30
0.0
 10
-92.92231653794451
 20
-48.80088675793326
 30
0.0
 10
-90.92816139844118
 20
-49.24800819537568
 30
0.0
 10
-88.66211810080523
 20
-49.86616771685927
 30
0.0
 10
-86.2212498994558
 20
-50.24987527599544
 30
0.0
 10
-84.2731666900261
 20
-50.2745650676796
 30
0.0
 10
-82.54621261765175
 20
-49.88480256472045
 30
0.0
 10
-81.20842438222445
 20
-49.18065433318906
 30
0.0
 10
-80.07844562629413
 20
-48.32335964405861
 30
0.0
 10
-78.95998129990642
 20
-47.08570019619506
 30
0.0
 10
-77.89529687469302
 20
-45.50788346904098
 30
0.0
 10
-76.97806426587316
 20
-43.927642985868
 30
0.0
 10
-76.1408772351127
 20
-42.44783985604294
 30
0.0
 10
-75.35096190469929
 20
-41.1918599338075
 30
0.0
 10
-74.6293373428383
 20
-40.29678638472992
 30
0.0
 10
-74.0707261859735
 20
-39.8973817861167
 30
0.0
 10
-73.89704430173485
 20
-39.83591550885866
 30
0.0
 10
-73.19211450401814
 20
-39.81924903185869
 30
0.0
 10
-72.03522308889205
 20
-40.10659044849874
 30
0.0
 10
-70.61050519814228
 20
-40.64146159539425
 30
0.0
 10
-69.02269376173653
 20
-41.32298518607666
 30
0.0
 10
-67.32817662640123
 20
-42.03167751782733
 30
0.0
 10
-65.54054543656702
 20
-42.64470006967091
 30
0.0
 10
-63.92359745177254
 20
-42.95334807212419
 30
0.0
 10
-62.51436380553562
 20
-42.93764312665891
 30
0.0
 10
-61.38456041064831
 20
-42.72017578402264
 30
0.0
 10
-60.33986865619238
 20
-42.27663859972384
 30
0.0
 10
-59.16035455728528
 20
-41.49920067907383
 30
0.0
 10
-58.02267845507141
 20
-40.32446922568936
 30
0.0
 10
-56.96600451198118
 20
-38.80656410970161
 30
0.0
 10
-55.7604566994483
 20
-36.73909107139841
 30
0.0
 10
-54.68021732939759
 20
-34.76982985999482
 30
0.0
 10
-53.62225290136349
 20
-33.33826629269543
 30
0.0
 10
-53.00914423058547
 20
-32.7598567910085
 30
0.0
 10
-52.60125843080271
 20
-32.49661922781346
 30
0.0
 10
-52.11400981626878
 20
-32.26642988074173
 30
0.0
 10
-51.31684577707463
 20
-32.04626330847206
 30
0.0
 10
-50.05347366336207
 20
-31.90779124902551
 30
0.0
 10
-48.55918918882975
 20
-31.86684216650312
 30
0.0
 10
-46.8990015216037
 20
-31.84834305567928
 30
0.0
 10
-45.43952344986231
 20
-31.76155831671754
 30
0.0
 10
-44.54395552232941
 20
-31.63843977931592
 30
0.0
 10
-44.26395026515286
 20
-31.58951140805039
 30
0.0
  0
ARC
  5
80
330
1F
100
AcDbEntity
  8
0
  6
Continuous
 62
     7
370
    25
100
AcDbCircle
 10
-42.1983581046
 20
-43.4103966975
 30
0.0
 40
12.0000000000001
100
AcDbArc
 50
45.2614944473
 51
99.9118407891
  0
SPLINE
  5
81
330
1F
100
AcDbEntity
  8
0
  6
Continuous
 62
     7
370
    25
100
AcDbSpline
210
0.0
220
0.0
230
1.0
 70
     8
 71
     3
 72
     9
 73
     5
 74
     0
 42
0.000000001
 43
0.00000001
 40
0.7826126143402163
 40
0.7826126143402163
 40
0.7826126143402163
 40
0.7826126143402163
 40
0.8663339484635071
 40
0.9241123383360257
 40
0.9241123383360257
 40
0.9241123383360257
 40
0.9241123383360257
 10
-10.59649189250216
 20
-60.73140569047275
 30
0.0
 10
-14.51759590891336
 20
-56.2284462574999
 30
0.0
 10
-21.67085475298979
 20
-46.2264253607975
 30
0.0
 10
-30.65080862436604
 20
-37.95938227543857
 30
0.0
 10
-33.75189127533012
 20
-34.88647752252403
 30
0.0
  0
ARC
  5
82
330
1F
100
AcDbEntity
  8
0
  6
Continuous
 62
     7
370
    25
100
AcDbCircle
 10
-19.6462955422
 20
-68.611827881
 30
0.0
 40
12.00000000000001
100
AcDbArc
 50
23.8592699283
 51
41.0488194879
  0
SPLINE
  5
83
330
1F
100
AcDbEntity
  8
0
  6
Continuous
 62
     7
370
    25
100
AcDbSpline
210
0.0
220
0.0
230
1.0
 70
     8
 71
     3
 72
    27
 73
    23
 74
     0
 42
0.000000001
 43
0.00000001
 40
0.9859237636758046
 40
0.9859237636758046
 40
0.9859237636758046
 40
0.9859237636758046
 40
0.986328125
 40
0.9873046875
 40
0.98828125
 40
0.9892578125
 40
0.990234375
 40
0.9921875
 40
0.994140625
 40
0.99609375
 40
0.998046875
 40
1.0
 40
1.001953125
 40
1.00390625
 40
1.005859375
 40
1.0078125
 40
1.009765625
 40
1.0107421875
 40
1.01171875
 40
1.0126953125
 40
1.013671875
 40
1.014076236324196
 40
1.014076236324196
 40
1.014076236324196
 40
1.014076236324196
 10
8.671794797039327
 20
-63.75792909822195
 30
0.0
 10
8.625014543410948
 20
-63.86369766721746
 30
0.0
 10
8.452288141180007
 20
-64.23261003776858
 30
0.0
 10
8.071785616924299
 20
-64.90786023581424
 30
0.0
 10
7.346603187702354
 20
-65.81384200827463
 30
0.0
 10
6.494121542437848
 20
-66.54925914480339
 30
0.0
 10
5.32823255231948
 20
-67.26466519573492
 30
0.0
 10
3.975675477153785
 20
-67.73303922244534
 30
0.0
 10
2.663266621156541
 20
-67.94233271250427
 30
0.0
 10
1.591414552835396
 20
-68.00252098911665
 30
0.0
 10
0.68986504891033
 20
-68.0049747284117
 30
0.0
 10
-0.0000000000000046
 20
-67.99751263579415
 30
0.0
 10
-0.6898650489103229
 20
-68.0049747284117
 30
0.0
 10
-1.591414552835403
 20
-68.00252098911668
 30
0.0
 10
-2.663266621156539
 20
-67.94233271250425
 30
0.0
 10
-3.975675477153783
 20
-67.73303922244537
 30
0.0
 10
-5.328232552319458
 20
-67.26466519573495
 30
0.0
 10
-6.49412154243783
 20
-66.54925914480343
 30
0.0
 10
-7.346603187702323
 20
-65.81384200827468
 30
0.0
 10
-8.071785616924275
 20
-64.90786023581427
 30
0.0
 10
-8.452288141180048
 20
-64.23261003776854
 30
0.0
 10
-8.625014543411021
 20
-63.86369766721734
 30
0.0
 10
-8.671794797039432
 20
-63.75792909822174
 30
0.0
  0
ARC
  5
84
330
1F
100
AcDbEntity
  8
0
  6
Continuous
 62
     7
370
    25
100
AcDbCircle
 10
19.6462955422
 20
-68.611827881
 30
0.0
 40
12.0
100
AcDbArc
 50
138.951180512
 51
156.1407300717
  0
SPLINE
  5
85
330
1F
100
AcDbEntity
  8
0
  6
Continuous
 62
     7
370
    25
100
AcDbSpline
210
0.0
220
0.0
230
1.0
 70
     8
 71
     3
 72
     9
 73
     5
 74
     0
 42
0.000000001
 43
0.00000001
 40
0.4823082696267321
 40
0.4823082696267321
 40
0.4823082696267321
 40
0.4823082696267321
 40
0.5400866594992736
 40
0.6238079936224883
 40
0.6238079936224883
 40
0.6238079936224883
 40
0.6238079936224883
 10
33.75189127533471
 20
-34.88647752251915
 30
0.0
 10
30.6508086243692
 20
-37.95938227543515
 30
0.0
 10
21.67085475299564
 20
-46.2264253607918
 30
0.0
 10
14.51759590892092
 20
-56.22844625748969
 30
0.0
 10
10.59649189251276
 20
-60.73140569046094
 30
0.0
  0
ARC
  5
86
330
1F
100
AcDbEntity
  8
0
  6
Continuous
 62
     7
370
    25
100
AcDbCircle
 10
42.1983581046
 20
-43.4103966975
 30
0.0
 40
12.00000000000001
100
AcDbArc
 50
80.0881592109
 51
134.7385055526
  0
SPLINE
  5
87
330
1F
100
AcDbEntity
  8
0
  6
Continuous
 62
     7
370
    25
100
AcDbSpline
210
0.0
220
0.0
230
1.0
 70
    11
 71
     3
 72
    27
 73
    23
 74
     0
 42
0.000000001
 43
0.00000001
 40
0.0
 40
0.0
 40
0.0
 40
0.0
 40
0.0120286034633262
 40
0.0193874883079953
 40
0.066377658474068
 40
0.095784614702608
 40
0.1236650830723985
 40
0.1844741119114328
 40
0.2606407820249133
 40
0.3545467823173052
 40
0.4425229420098307
 40
0.4999999999999999
 40
0.5574770579901693
 40
0.6454532176826948
 40
0.7393592179750866
 40
0.8155258880885672
 40
0.8763349169276016
 40
0.904215385297392
 40
0.933622341525932
 40
0.9806125116920048
 40
0.9879713965366739
 40
1.0
 40
1.0
 40
1.0
 40
1.0
 10
-0.0000000000000077
 20
-63.0
 30
0.0
 10
-1.526520890270529
 20
-63.0
 30
0.0
 10
-3.986940007274676
 20
-63.15948151420184
 30
0.0
 10
-5.34619617418684
 20
-55.27462007778994
 30
0.0
 10
-4.149353372585678
 20
-46.81019566761893
 30
0.0
 10
-10.24271656874441
 20
-36.15196923462492
 30
0.0
 10
-22.37027006937344
 20
-31.93643442184342
 30
0.0
 10
-39.51085416655695
 20
-23.94808279610379
 30
0.0
 10
-45.00789679821537
 20
1.712817306335645
 30
0.0
 10
-46.72215447756822
 20
32.3508626114132
 30
0.0
 10
-21.10234368127349
 20
45.68813574468696
 30
0.0
 10
0.0000000000000266
 20
51.70386929761164
 30
0.0
 10
21.10234368127347
 20
45.68813574468697
 30
0.0
 10
46.72215447756823
 20
32.35086261141319
 30
0.0
 10
45.00789679821537
 20
1.71281730633563
 30
0.0
 10
39.51085416655692
 20
-23.94808279610381
 30
0.0
 10
22.37027006937349
 20
-31.9364344218434
 30
0.0
 10
10.24271656874437
 20
-36.15196923462494
 30
0.0
 10
4.149353372585685
 20
-46.8101956676189
 30
0.0
 10
5.346196174186819
 20
-55.27462007778995
 30
0.0
 10
3.986940007274669
 20
-63.15948151420182
 30
0.0
 10
1.526520890270503
 20
-63.0
 30
0.0
 10
-0.0000000000000077
 20
-63.0
 30
0.0
  0
MTEXT
  5
89
330
1F
100
AcDbEntity
  8
0
  6
Continuous
 62
     7
100
AcDbMText
 10
-106.2572140791
 20
-96.5195663917
 30
0.0
 40
4.83362
 41
0.0
 71
     1
 72
     1
  1
SOLIDWORKS Educational Product.
  7
SLDTEXTSTYLE0
 73
     1
 44
1.0
  0
MTEXT
  5
8A
330
1F
100
AcDbEntity
  8
0
  6
Continuous
 62
     7
100
AcDbMText
 10
-106.2572140791
 20
-103.7699963917
 30
0.0
 40
4.83362
 41
0.0
 71
     1
 72
     1
  1
For Instructional Use Only.
  7
SLDTEXTSTYLE0
 73
     1
 44
1.0
  0
ENDSEC
  0
SECTION
  2
OBJECTS
  0
DICTIONARY
  5
C
330
0
100
AcDbDictionary
281
     1
  3
ACAD_GROUP
350
D
  3
ACAD_LAYOUT
350
1A
  3
ACAD_MLINESTYLE
350
17
  3
ACAD_PLOTSETTINGS
350
19
  3
ACAD_PLOTSTYLENAME
350
E
  3
ACAD_SCALELIST
350
47
  0
DICTIONARY
  5
D
102
{ACAD_REACTORS
330
C
102
}
330
C
100
AcDbDictionary
281
     1
  0
DICTIONARY
  5
1A
102
{ACAD_REACTORS
330
C
102
}
330
C
100
AcDbDictionary
281
     1
  3
Layout1
350
1E
  3
Layout2
350
26
  3
Model
350
22
  0
DICTIONARY
  5
17
102
{ACAD_REACTORS
330
C
102
}
330
C
100
AcDbDictionary
281
     1
  3
Standard
350
18
  0
DICTIONARY
  5
19
102
{ACAD_REACTORS
330
C
102
}
330
C
100
AcDbDictionary
281
     1
  0
ACDBDICTIONARYWDFLT
  5
E
102
{ACAD_REACTORS
330
C
102
}
330
C
100
AcDbDictionary
281
     1
  3
Normal
350
F
100
AcDbDictionaryWithDefault
340
F
  0
DICTIONARY
  5
47
102
{ACAD_REACTORS
330
C
102
}
330
C
100
AcDbDictionary
281
     1
  3
A0
350
48
  3
A1
350
49
  3
A2
350
4A
  3
A3
350
4B
  3
A4
350
4C
  3
A5
350
4D
  3
A6
350
4E
  3
A7
350
4F
  3
A8
350
50
  3
A9
350
51
  3
B0
350
52
  3
B1
350
53
  3
B2
350
54
  3
B3
350
55
  3
B4
350
56
  3
B5
350
57
  3
B6
350
58
  3
B7
350
59
  3
B8
350
5A
  3
B9
350
5B
  3
C0
350
5C
  3
C1
350
5D
  3
C2
350
5E
  3
C3
350
5F
  3
C4
350
60
  3
C5
350
61
  3
C6
350
62
  3
C7
350
63
  3
C8
350
64
  3
C9
350
65
  3
D0
350
66
  3
D1
350
67
  3
D2
350
68
  0
LAYOUT
  5
1E
102
{ACAD_REACTORS
330
1A
102
}
330
1A
100
AcDbPlotSettings
  1

  2
none_device
  4

  6

 40
0.0
 41
0.0
 42
0.0
 43
0.0
 44
0.0
 45
0.0
 46
0.0
 47
0.0
 48
0.0
 49
0.0
140
0.0
141
0.0
142
1.0
143
1.0
 70
   688
 72
     1
 73
     0
 74
     5
  7

 75
    16
147
1.0
148
0.0
149
0.0
100
AcDbLayout
  1
Layout1
 70
     1
 71
     1
 10
0.0
 20
0.0
 11
420.0
 21
297.0
 12
0.0
 22
0.0
 32
0.0
 14
1.0000000000E+20
 24
1.0000000000E+20
 34
1.0000000000E+20
 15
-1.0000000000E+20
 25
-1.0000000000E+20
 35
-1.0000000000E+20
146
0.0
 13
0.0
 23
0.0
 33
0.0
 16
1.0
 26
0.0
 36
0.0
 17
0.0
 27
1.0
 37
0.0
 76
     0
330
1B
  0
LAYOUT
  5
26
102
{ACAD_REACTORS
330
1A
102
}
330
1A
100
AcDbPlotSettings
  1

  2
none_device
  4

  6

 40
0.0
 41
0.0
 42
0.0
 43
0.0
 44
0.0
 45
0.0
 46
0.0
 47
0.0
 48
0.0
 49
0.0
140
0.0
141
0.0
142
1.0
143
1.0
 70
   688
 72
     1
 73
     0
 74
     5
  7

 75
    16
147
1.0
148
0.0
149
0.0
100
AcDbLayout
  1
Layout2
 70
     1
 71
     2
 10
0.0
 20
0.0
 11
0.0
 21
0.0
 12
0.0
 22
0.0
 32
0.0
 14
0.0
 24
0.0
 34
0.0
 15
0.0
 25
0.0
 35
0.0
146
0.0
 13
0.0
 23
0.0
 33
0.0
 16
1.0
 26
0.0
 36
0.0
 17
0.0
 27
1.0
 37
0.0
 76
     0
330
23
  0
LAYOUT
  5
22
102
{ACAD_REACTORS
330
1A
102
}
330
1A
100
AcDbPlotSettings
  1

  2
none_device
  4
ANSI_A_(11.00_x_8.50_Inches)
  6

 40
6.35
 41
19.05
 42
6.35000508
 43
19.05000254
 44
279.4
 45
215.9
 46
133.34999746
 47
115.2571338598
 48
0.0
 49
0.0
140
0.0
141
0.0
142
0.0512435795
143
1.0
 70
  1696
 72
     0
 73
     0
 74
     0
  7

 75
     0
147
0.0179189148
148
-1300.4909072572
149
0.0
100
AcDbLayout
  1
Model
 70
     1
 71
     0
 10
0.0
 20
0.0
 11
420.0
 21
297.0
 12
0.0
 22
0.0
 32
0.0
 14
-106.2572140791
 24
-95.5
 34
0.0
 15
106.2572140791
 25
55.0
 35
0.0
146
0.0
 13
0.0
 23
0.0
 33
0.0
 16
1.0
 26
0.0
 36
0.0
 17
0.0
 27
1.0
 37
0.0
 76
     0
330
1F
331
29
  0
MLINESTYLE
  5
18
102
{ACAD_REACTORS
330
17
102
}
330
17
100
AcDbMlineStyle
  2
Standard
 70
     0
  3

 62
   256
 51
90.0
 52
90.0
 71
     2
 49
0.5
 62
   256
  6
BYLAYER
 49
-0.5
 62
   256
  6
BYLAYER
  0
ACDBPLACEHOLDER
  5
F
102
{ACAD_REACTORS
330
E
102
}
330
E
  0
SCALE
  5
48
102
{ACAD_REACTORS
330
47
102
}
330
47
100
AcDbScale
 70
     0
300
1:1
140
1.0
141
1.0
290
     1
  0
SCALE
  5
49
102
{ACAD_REACTORS
330
47
102
}
330
47
100
AcDbScale
 70
     0
300
1:2
140
1.0
141
2.0
290
     0
  0
SCALE
  5
4A
102
{ACAD_REACTORS
330
47
102
}
330
47
100
AcDbScale
 70
     0
300
1:4
140
1.0
141
4.0
290
     0
  0
SCALE
  5
4B
102
{ACAD_REACTORS
330
47
102
}
330
47
100
AcDbScale
 70
     0
300
1:5
140
1.0
141
5.0
290
     0
  0
SCALE
  5
4C
102
{ACAD_REACTORS
330
47
102
}
330
47
100
AcDbScale
 70
     0
300
1:8
140
1.0
141
8.0
290
     0
  0
SCALE
  5
4D
102
{ACAD_REACTORS
330
47
102
}
330
47
100
AcDbScale
 70
     0
300
1:10
140
1.0
141
10.0
290
     0
  0
SCALE
  5
4E
102
{ACAD_REACTORS
330
47
102
}
330
47
100
AcDbScale
 70
     0
300
1:16
140
1.0
141
16.0
290
     0
  0
SCALE
  5
4F
102
{ACAD_REACTORS
330
47
102
}
330
47
100
AcDbScale
 70
     0
300
1:20
140
1.0
141
20.0
290
     0
  0
SCALE
  5
50
102
{ACAD_REACTORS
330
47
102
}
330
47
100
AcDbScale
 70
     0
300
1:30
140
1.0
141
30.0
290
     0
  0
SCALE
  5
51
102
{ACAD_REACTORS
330
47
102
}
330
47
100
AcDbScale
 70
     0
300
1:40
140
1.0
141
40.0
290
     0
  0
SCALE
  5
52
102
{ACAD_REACTORS
330
47
102
}
330
47
100
AcDbScale
 70
     0
300
1:50
140
1.0
141
50.0
290
     0
  0
SCALE
  5
53
102
{ACAD_REACTORS
330
47
102
}
330
47
100
AcDbScale
 70
     0
300
1:100
140
1.0
141
100.0
290
     0
  0
SCALE
  5
54
102
{ACAD_REACTORS
330
47
102
}
330
47
100
AcDbScale
 70
     0
300
2:1
140
2.0
141
1.0
290
     0
  0
SCALE
  5
55
102
{ACAD_REACTORS
330
47
102
}
330
47
100
AcDbScale
 70
     0
300
4:1
140
4.0
141
1.0
290
     0
  0
SCALE
  5
56
102
{ACAD_REACTORS
330
47
102
}
330
47
100
AcDbScale
 70
     0
300
8:1
140
8.0
141
1.0
290
     0
  0
SCALE
  5
57
102
{ACAD_REACTORS
330
47
102
}
330
47
100
AcDbScale
 70
     0
300
10:1
140
10.0
141
1.0
290
     0
  0
SCALE
  5
58
102
{ACAD_REACTORS
330
47
102
}
330
47
100
AcDbScale
 70
     0
300
100:1
140
100.0
141
1.0
290
     0
  0
SCALE
  5
59
102
{ACAD_REACTORS
330
47
102
}
330
47
100
AcDbScale
 70
     0
300
1/128" = 1'-0"
140
0.0078125
141
12.0
290
     0
  0
SCALE
  5
5A
102
{ACAD_REACTORS
330
47
102
}
330
47
100
AcDbScale
 70
     0
300
1/64" = 1'-0"
140
0.015625
141
12.0
290
     0
  0
SCALE
  5
5B
102
{ACAD_REACTORS
330
47
102
}
330
47
100
AcDbScale
 70
     0
300
1/32" = 1'-0"
140
0.03125
141
12.0
290
     0
  0
SCALE
  5
5C
102
{ACAD_REACTORS
330
47
102
}
330
47
100
AcDbScale
 70
     0
300
1/16" = 1'-0"
140
0.0625
141
12.0
290
     0
  0
SCALE
  5
5D
102
{ACAD_REACTORS
330
47
102
}
330
47
100
AcDbScale
 70
     0
300
3/32" = 1'-0"
140
0.09375
141
12.0
290
     0
  0
SCALE
  5
5E
102
{ACAD_REACTORS
330
47
102
}
330
47
100
AcDbScale
 70
     0
300
1/8" = 1'-0"
140
0.125
141
12.0
290
     0
  0
SCALE
  5
5F
102
{ACAD_REACTORS
330
47
102
}
330
47
100
AcDbScale
 70
     0
300
3/16" = 1'-0"
140
0.1875
141
12.0
290
     0
  0
SCALE
  5
60
102
{ACAD_REACTORS
330
47
102
}
330
47
100
AcDbScale
 70
     0
300
1/4" = 1'-0"
140
0.25
141
12.0
290
     0
  0
SCALE
  5
61
102
{ACAD_REACTORS
330
47
102
}
330
47
100
AcDbScale
 70
     0
300
3/8" = 1'-0"
140
0.375
141
12.0
290
     0
  0
SCALE
  5
62
102
{ACAD_REACTORS
330
47
102
}
330
47
100
AcDbScale
 70
     0
300
1/2" = 1'-0"
140
0.5
141
12.0
290
     0
  0
SCALE
  5
63
102
{ACAD_REACTORS
330
47
102
}
330
47
100
AcDbScale
 70
     0
300
3/4" = 1'-0"
140
0.75
141
12.0
290
     0
  0
SCALE
  5
64
102
{ACAD_REACTORS
330
47
102
}
330
47
100
AcDbScale
 70
     0
300
1" = 1'-0"
140
1.0
141
12.0
290
     0
  0
SCALE
  5
65
102
{ACAD_REACTORS
330
47
102
}
330
47
100
AcDbScale
 70
     0
300
1-1/2" = 1'-0"
140
1.5
141
12.0
290
     0
  0
SCALE
  5
66
102
{ACAD_REACTORS
330
47
102
}
330
47
100
AcDbScale
 70
     0
300
3" = 1'-0"
140
3.0
141
12.0
290
     0
  0
SCALE
  5
67
102
{ACAD_REACTORS
330
47
102
}
330
47
100
AcDbScale
 70
     0
300
6" = 1'-0"
140
6.0
141
12.0
290
     0
  0
SCALE
  5
68
102
{ACAD_REACTORS
330
47
102
}
330
47
100
AcDbScale
 70
     0
300
1'-0" = 1'-0"
140
12.0
141
12.0
290
     0
  0
ENDSEC
  0
EOF
