  0
SECTION
  2
HEADER
  9
$ACADVER
  1
AC1015
  9
$ACADMAINTVER
 70
     6
  9
$DWGCODEPAGE
  3
ANSI_1252
  9
$INSBASE
 10
0.0
 20
0.0
 30
0.0
  9
$EXTMIN
 10
-64.0454778317
 20
-175.6631500193
 30
0.0
  9
$EXTMAX
 10
64.0454778316
 20
170.0076845345
 30
0.0
  9
$LIMMIN
 10
0.0
 20
0.0
  9
$LIMMAX
 10
420.0
 20
297.0
  9
$ORTHOMODE
 70
     0
  9
$REGENMODE
 70
     1
  9
$FILLMODE
 70
     1
  9
$QTEXTMODE
 70
     0
  9
$MIRRTEXT
 70
     1
  9
$LTSCALE
 40
1.0
  9
$ATTMODE
 70
     1
  9
$TEXTSIZE
 40
3.5
  9
$TRACEWID
 40
1.0
  9
$TEXTSTYLE
  7
Standard
  9
$CLAYER
  8
0
  9
$CELTYPE
  6
ByLayer
  9
$CECOLOR
 62
   256
  9
$CELTSCALE
 40
1.0
  9
$DISPSILH
 70
     0
  9
$DIMSCALE
 40
1.0
  9
$DIMASZ
 40
3.302
  9
$DIMEXO
 40
1.0
  9
$DIMDLI
 40
3.75
  9
$DIMRND
 40
0.0
  9
$DIMDLE
 40
0.0
  9
$DIMEXE
 40
1.0
  9
$DIMTP
 40
0.0
  9
$DIMTM
 40
0.0
  9
$DIMTXT
 40
3.5
  9
$DIMCEN
 40
2.5
  9
$DIMTSZ
 40
0.0
  9
$DIMTOL
 70
     0
  9
$DIMLIM
 70
     0
  9
$DIMTIH
 70
     1
  9
$DIMTOH
 70
     1
  9
$DIMSE1
 70
     0
  9
$DIMSE2
 70
     0
  9
$DIMTAD
 70
     1
  9
$DIMZIN
 70
     1
  9
$DIMBLK
  1

  9
$DIMASO
 70
     1
  9
$DIMSHO
 70
     1
  9
$DIMPOST
  1

  9
$DIMAPOST
  1

  9
$DIMALT
 70
     0
  9
$DIMALTD
 70
     3
  9
$DIMALTF
 40
0.0393700787
  9
$DIMLFAC
 40
1.0
  9
$DIMTOFL
 70
     1
  9
$DIMTVP
 40
0.0
  9
$DIMTIX
 70
     0
  9
$DIMSOXD
 70
     0
  9
$DIMSAH
 70
     0
  9
$DIMBLK1
  1

  9
$DIMBLK2
  1

  9
$DIMSTYLE
  2
ISO-25
  9
$DIMCLRD
 70
     0
  9
$DIMCLRE
 70
     0
  9
$DIMCLRT
 70
     0
  9
$DIMTFAC
 40
1.0
  9
$DIMGAP
 40
1.524
  9
$DIMJUST
 70
     0
  9
$DIMSD1
 70
     0
  9
$DIMSD2
 70
     0
  9
$DIMTOLJ
 70
     0
  9
$DIMTZIN
 70
     1
  9
$DIMALTZ
 70
     0
  9
$DIMALTTZ
 70
     0
  9
$DIMUPT
 70
     0
  9
$DIMDEC
 70
     2
  9
$DIMTDEC
 70
     2
  9
$DIMALTU
 70
     2
  9
$DIMALTTD
 70
     3
  9
$DIMTXSTY
  7
Standard
  9
$DIMAUNIT
 70
     0
  9
$DIMADEC
 70
     2
  9
$DIMALTRND
 40
0.0
  9
$DIMAZIN
 70
     0
  9
$DIMDSEP
 70
    44
  9
$DIMATFIT
 70
     3
  9
$DIMFRAC
 70
     0
  9
$DIMLDRBLK
  1

  9
$DIMLUNIT
 70
     2
  9
$DIMLWD
 70
    -2
  9
$DIMLWE
 70
    -2
  9
$DIMTMOVE
 70
     0
  9
$LUNITS
 70
     2
  9
$LUPREC
 70
     2
  9
$SKETCHINC
 40
1.0
  9
$FILLETRAD
 40
10.0
  9
$AUNITS
 70
     0
  9
$AUPREC
 70
     2
  9
$MENU
  1
.
  9
$ELEVATION
 40
0.0
  9
$PELEVATION
 40
0.0
  9
$THICKNESS
 40
0.0
  9
$LIMCHECK
 70
     0
  9
$CHAMFERA
 40
0.0
  9
$CHAMFERB
 40
0.0
  9
$CHAMFERC
 40
0.0
  9
$CHAMFERD
 40
0.0
  9
$SKPOLY
 70
     0
  9
$TDCREATE
 40
2459046.524792674
  9
$TDUCREATE
 40
2459046.816459341
  9
$TDUPDATE
 40
2459046.525049896
  9
$TDUUPDATE
 40
2459046.816716562
  9
$TDINDWG
 40
0.0000000116
  9
$TDUSRTIMER
 40
0.0000000116
  9
$USRTIMER
 70
     1
  9
$ANGBASE
 50
0.0
  9
$ANGDIR
 70
     0
  9
$PDMODE
 70
     0
  9
$PDSIZE
 40
-1.0
  9
$PLINEWID
 40
0.0
  9
$SPLFRAME
 70
     0
  9
$SPLINETYPE
 70
     6
  9
$SPLINESEGS
 70
     8
  9
$HANDSEED
  5
8F
  9
$SURFTAB1
 70
     6
  9
$SURFTAB2
 70
     6
  9
$SURFTYPE
 70
     6
  9
$SURFU
 70
     6
  9
$SURFV
 70
     6
  9
$UCSBASE
  2

  9
$UCSNAME
  2

  9
$UCSORG
 10
0.0
 20
0.0
 30
0.0
  9
$UCSXDIR
 10
1.0
 20
0.0
 30
0.0
  9
$UCSYDIR
 10
0.0
 20
1.0
 30
0.0
  9
$UCSORTHOREF
  2

  9
$UCSORTHOVIEW
 70
     0
  9
$UCSORGTOP
 10
0.0
 20
0.0
 30
0.0
  9
$UCSORGBOTTOM
 10
0.0
 20
0.0
 30
0.0
  9
$UCSORGLEFT
 10
0.0
 20
0.0
 30
0.0
  9
$UCSORGRIGHT
 10
0.0
 20
0.0
 30
0.0
  9
$UCSORGFRONT
 10
0.0
 20
0.0
 30
0.0
  9
$UCSORGBACK
 10
0.0
 20
0.0
 30
0.0
  9
$PUCSBASE
  2

  9
$PUCSNAME
  2

  9
$PUCSORG
 10
0.0
 20
0.0
 30
0.0
  9
$PUCSXDIR
 10
1.0
 20
0.0
 30
0.0
  9
$PUCSYDIR
 10
0.0
 20
1.0
 30
0.0
  9
$PUCSORTHOREF
  2

  9
$PUCSORTHOVIEW
 70
     0
  9
$PUCSORGTOP
 10
0.0
 20
0.0
 30
0.0
  9
$PUCSORGBOTTOM
 10
0.0
 20
0.0
 30
0.0
  9
$PUCSORGLEFT
 10
0.0
 20
0.0
 30
0.0
  9
$PUCSORGRIGHT
 10
0.0
 20
0.0
 30
0.0
  9
$PUCSORGFRONT
 10
0.0
 20
0.0
 30
0.0
  9
$PUCSORGBACK
 10
0.0
 20
0.0
 30
0.0
  9
$USERI1
 70
     0
  9
$USERI2
 70
     0
  9
$USERI3
 70
     0
  9
$USERI4
 70
     0
  9
$USERI5
 70
     0
  9
$USERR1
 40
0.0
  9
$USERR2
 40
0.0
  9
$USERR3
 40
0.0
  9
$USERR4
 40
0.0
  9
$USERR5
 40
0.0
  9
$WORLDVIEW
 70
     1
  9
$SHADEDGE
 70
     3
  9
$SHADEDIF
 70
    70
  9
$TILEMODE
 70
     1
  9
$MAXACTVP
 70
    64
  9
$PINSBASE
 10
0.0
 20
0.0
 30
0.0
  9
$PLIMCHECK
 70
     0
  9
$PEXTMIN
 10
1.0000000000E+20
 20
1.0000000000E+20
 30
1.0000000000E+20
  9
$PEXTMAX
 10
-1.0000000000E+20
 20
-1.0000000000E+20
 30
-1.0000000000E+20
  9
$PLIMMIN
 10
0.0
 20
0.0
  9
$PLIMMAX
 10
420.0
 20
297.0
  9
$UNITMODE
 70
     0
  9
$VISRETAIN
 70
     1
  9
$PLINEGEN
 70
     0
  9
$PSLTSCALE
 70
     1
  9
$TREEDEPTH
 70
  3020
  9
$CMLSTYLE
  2
Standard
  9
$CMLJUST
 70
     0
  9
$CMLSCALE
 40
20.0
  9
$PROXYGRAPHICS
 70
     1
  9
$MEASUREMENT
 70
     1
  9
$CELWEIGHT
370
    -1
  9
$ENDCAPS
280
     0
  9
$JOINSTYLE
280
     0
  9
$LWDISPLAY
290
     1
  9
$INSUNITS
 70
     4
  9
$HYPERLINKBASE
  1

  9
$STYLESHEET
  1

  9
$XEDIT
290
     1
  9
$CEPSNTYPE
380
     0
  9
$PSTYLEMODE
290
     1
  9
$FINGERPRINTGUID
  2
{871a212e-4cb8-437c-853f-66fa3ade8db5}
  9
$VERSIONGUID
  2
{FAEB1C32-E019-11D5-929B-00C0DF256EC4}
  9
$EXTNAMES
290
     1
  9
$PSVPSCALE
 40
0.0
  9
$OLESTARTUP
290
     0
  0
ENDSEC
  0
SECTION
  2
CLASSES
  0
CLASS
  1
ACDBDICTIONARYWDFLT
  2
AcDbDictionaryWithDefault
  3
ObjectDBX Classes
 90
        0
280
     0
281
     0
  0
CLASS
  1
VISUALSTYLE
  2
AcDbVisualStyle
  3
ObjectDBX Classes
 90
     4095
280
     0
281
     0
  0
CLASS
  1
MATERIAL
  2
AcDbMaterial
  3
ObjectDBX Classes
 90
     1153
280
     0
281
     0
  0
CLASS
  1
SCALE
  2
AcDbScale
  3
ObjectDBX Classes
 90
     1153
280
     0
281
     0
  0
CLASS
  1
TABLESTYLE
  2
AcDbTableStyle
  3
ObjectDBX Classes
 90
     4095
280
     0
281
     0
  0
CLASS
  1
MLEADERSTYLE
  2
AcDbMLeaderStyle
  3
ACDB_MLEADERSTYLE_CLASS
 90
     4095
280
     0
281
     0
  0
CLASS
  1
SUN
  2
AcDbSun
  3
SCENEOE
 90
     1153
280
     0
281
     0
  0
CLASS
  1
ACDBPLACEHOLDER
  2
AcDbPlaceHolder
  3
ObjectDBX Classes
 90
        0
280
     0
281
     0
  0
CLASS
  1
LAYOUT
  2
AcDbLayout
  3
ObjectDBX Classes
 90
        0
280
     0
281
     0
  0
ENDSEC
  0
SECTION
  2
TABLES
  0
TABLE
  2
VPORT
  5
8
330
0
100
AcDbSymbolTable
 70
     1
  0
VPORT
  5
29
330
8
100
AcDbSymbolTableRecord
100
AcDbViewportTableRecord
  2
*Active
 70
     0
 10
0.0
 20
0.0
 11
1.0
 21
1.0
 12
0.0
 22
-2.8277327424
 13
0.0
 23
0.0
 14
10.0
 24
10.0
 15
10.0
 25
10.0
 16
0.0
 26
0.0
 36
1.0
 17
0.0
 27
0.0
 37
0.0
 40
352.5842512449
 41
0.3705576024
 42
50.0
 43
0.0
 44
0.0
 50
0.0
 51
0.0
 71
     0
 72
   100
 73
     1
 74
     3
 75
     0
 76
     0
 77
     0
 78
     0
281
     0
 65
     1
110
0.0
120
0.0
130
0.0
111
1.0
121
0.0
131
0.0
112
0.0
122
1.0
132
0.0
 79
     0
146
0.0
  0
ENDTAB
  0
TABLE
  2
LTYPE
  5
5
330
0
100
AcDbSymbolTable
 70
     6
  0
LTYPE
  5
14
330
5
100
AcDbSymbolTableRecord
100
AcDbLinetypeTableRecord
  2
ByBlock
 70
     0
  3

 72
    65
 73
     0
 40
0.0
  0
LTYPE
  5
15
330
5
100
AcDbSymbolTableRecord
100
AcDbLinetypeTableRecord
  2
ByLayer
 70
     0
  3

 72
    65
 73
     0
 40
0.0
  0
LTYPE
  5
16
330
5
100
AcDbSymbolTableRecord
100
AcDbLinetypeTableRecord
  2
Continuous
 70
     0
  3
Solid line
 72
    65
 73
     0
 40
0.0
  0
LTYPE
  5
6E
330
5
100
AcDbSymbolTableRecord
100
AcDbLinetypeTableRecord
  2
HIDDEN
 70
     0
  3
Hidden __ __ __ __ __ __ __ __ __ __ __ __ __ __
 72
    65
 73
     2
 40
1.905
 49
1.27
 74
     0
 49
-0.635
 74
     0
  0
LTYPE
  5
6F
330
5
100
AcDbSymbolTableRecord
100
AcDbLinetypeTableRecord
  2
PHANTOM
 70
     0
  3
Phantom ______  __  __  ______  __  __  ______
 72
    65
 73
     6
 40
12.7
 49
6.35
 74
     0
 49
-1.27
 74
     0
 49
1.27
 74
     0
 49
-1.27
 74
     0
 49
1.27
 74
     0
 49
-1.27
 74
     0
  0
LTYPE
  5
70
330
5
100
AcDbSymbolTableRecord
100
AcDbLinetypeTableRecord
  2
CENTER
 70
     0
  3
Center ____ _ ____ _ ____ _ ____ _ ____ _ ____
 72
    65
 73
     4
 40
10.16
 49
6.35
 74
     0
 49
-1.27
 74
     0
 49
1.27
 74
     0
 49
-1.27
 74
     0
  0
LTYPE
  5
71
330
5
100
AcDbSymbolTableRecord
100
AcDbLinetypeTableRecord
  2
CENTERX2
 70
     0
  3
Center (2x) ________  __  ________  __  _____
 72
    65
 73
     4
 40
20.32
 49
12.7
 74
     0
 49
-2.54
 74
     0
 49
2.54
 74
     0
 49
-2.54
 74
     0
  0
LTYPE
  5
72
330
5
100
AcDbSymbolTableRecord
100
AcDbLinetypeTableRecord
  2
DOT2
 70
     0
  3
Dot (.5x) ........................................
 72
    65
 73
     2
 40
0.635
 49
0.0
 74
     0
 49
-0.635
 74
     0
  0
ENDTAB
  0
TABLE
  2
LAYER
  5
2
330
0
100
AcDbSymbolTable
 70
     1
  0
LAYER
  5
10
330
2
100
AcDbSymbolTableRecord
100
AcDbLayerTableRecord
  2
0
 70
     0
 62
     7
  6
Continuous
370
    -3
390
F
  0
ENDTAB
  0
TABLE
  2
STYLE
  5
3
330
0
100
AcDbSymbolTable
 70
     2
  0
STYLE
  5
11
330
3
100
AcDbSymbolTableRecord
100
AcDbTextStyleTableRecord
  2
Standard
 70
     0
 40
0.0
 41
1.0
 50
0.0
 71
     0
 42
3.5
  3
txt
  4

  0
STYLE
  5
8C
330
3
100
AcDbSymbolTableRecord
100
AcDbTextStyleTableRecord
  2
SLDTEXTSTYLE0
 70
     0
 40
0.0
 41
0.7
 50
0.0
 71
     0
 42
3.5
  3
TXT
  4

  0
ENDTAB
  0
TABLE
  2
VIEW
  5
6
330
0
100
AcDbSymbolTable
 70
     0
  0
ENDTAB
  0
TABLE
  2
UCS
  5
7
330
0
100
AcDbSymbolTable
 70
     0
  0
ENDTAB
  0
TABLE
  2
APPID
  5
9
330
0
100
AcDbSymbolTable
 70
     1
  0
APPID
  5
12
330
9
100
AcDbSymbolTableRecord
100
AcDbRegAppTableRecord
  2
ACAD
 70
     0
  0
ENDTAB
  0
TABLE
  2
DIMSTYLE
  5
A
330
0
100
AcDbSymbolTable
 70
     1
100
AcDbDimStyleTable
  0
DIMSTYLE
105
27
330
A
100
AcDbSymbolTableRecord
100
AcDbDimStyleTableRecord
  2
ISO-25
 70
     0
 41
2.5
 42
0.625
 43
3.75
 44
1.25
 73
     0
 74
     0
 77
     1
 78
     8
140
2.5
141
2.5
143
0.0393700787
147
0.625
171
     3
172
     1
178
     0
271
     2
272
     2
274
     3
278
    44
283
     0
284
     8
340
11
  0
ENDTAB
  0
TABLE
  2
BLOCK_RECORD
  5
1
330
0
100
AcDbSymbolTable
 70
     1
  0
BLOCK_RECORD
  5
1F
330
1
100
AcDbSymbolTableRecord
100
AcDbBlockTableRecord
  2
*Model_Space
340
22
  0
BLOCK_RECORD
  5
1B
330
1
100
AcDbSymbolTableRecord
100
AcDbBlockTableRecord
  2
*Paper_Space
340
1E
  0
BLOCK_RECORD
  5
23
330
1
100
AcDbSymbolTableRecord
100
AcDbBlockTableRecord
  2
*Paper_Space0
340
26
  0
ENDTAB
  0
ENDSEC
  0
SECTION
  2
BLOCKS
  0
BLOCK
  5
20
330
1F
100
AcDbEntity
  8
0
100
AcDbBlockBegin
  2
*Model_Space
 70
     0
 10
0.0
 20
0.0
 30
0.0
  3
*Model_Space
  1

  0
ENDBLK
  5
21
330
1F
100
AcDbEntity
  8
0
100
AcDbBlockEnd
  0
BLOCK
  5
1C
330
1B
100
AcDbEntity
 67
     1
  8
0
100
AcDbBlockBegin
  2
*Paper_Space
 70
     0
 10
0.0
 20
0.0
 30
0.0
  3
*Paper_Space
  1

  0
ENDBLK
  5
1D
330
1B
100
AcDbEntity
 67
     1
  8
0
100
AcDbBlockEnd
  0
BLOCK
  5
24
330
23
100
AcDbEntity
  8
0
100
AcDbBlockBegin
  2
*Paper_Space0
 70
     0
 10
0.0
 20
0.0
 30
0.0
  3
*Paper_Space0
  1

  0
ENDBLK
  5
25
330
23
100
AcDbEntity
  8
0
100
AcDbBlockEnd
  0
ENDSEC
  0
SECTION
  2
ENTITIES
  0
SPLINE
  5
73
330
1F
100
AcDbEntity
  8
0
  6
Continuous
 62
     7
370
    25
100
AcDbSpline
210
0.0
220
0.0
230
1.0
 70
     8
 71
     3
 72
    17
 73
    13
 74
     0
 42
0.000000001
 43
0.00000001
 40
0.1911958375704371
 40
0.1911958375704371
 40
0.1911958375704371
 40
0.1911958375704371
 40
0.203125
 40
0.21875
 40
0.234375
 40
0.25
 40
0.265625
 40
0.28125
 40
0.296875
 40
0.3125
 40
0.328125
 40
0.3283320007229706
 40
0.3283320007229706
 40
0.3283320007229706
 40
0.3283320007229706
 10
-41.07161517183864
 20
24.37583109720466
 30
0.0
 10
-41.95580179821746
 20
23.1812804617339
 30
0.0
 10
-43.75022997964869
 20
20.28929023764993
 30
0.0
 10
-45.80484171048882
 20
15.45878074192449
 30
0.0
 10
-47.34838751117552
 20
10.01029806941307
 30
0.0
 10
-48.41999246459216
 20
4.454868395588544
 30
0.0
 10
-49.21720910290388
 20
-1.048797750845855
 30
0.0
 10
-49.85650768674417
 20
-6.674544380068454
 30
0.0
 10
-50.16794263621473
 20
-12.36440955024739
 30
0.0
 10
-50.0054069907825
 20
-18.04347673012217
 30
0.0
 10
-49.45881521231065
 20
-21.80348777884416
 30
0.0
 10
-49.03607023827124
 20
-23.66771640608006
 30
0.0
 10
-49.03051759337924
 20
-23.69208600551688
 30
0.0
  0
ARC
  5
74
330
1F
100
AcDbEntity
  8
0
  6
Continuous
 62
     7
370
    25
100
AcDbCircle
 10
-60.7306471646
 20
-26.3579757288
 30
0.0
 40
12.00000000000001
100
AcDbArc
 50
316.76679673
 51
12.8357836701
  0
SPLINE
  5
75
330
1F
100
AcDbEntity
  8
0
  6
Continuous
 62
     7
370
    25
100
AcDbSpline
210
0.0
220
0.0
230
1.0
 70
     8
 71
     3
 72
   101
 73
    97
 74
     0
 42
0.000000001
 43
0.00000001
 40
0.0
 40
0.0
 40
0.0
 40
0.0
 40
0.001953125
 40
0.00390625
 40
0.0078125
 40
0.01171875
 40
0.015625
 40
0.0234375
 40
0.03125
 40
0.0390625
 40
0.046875
 40
0.0546875
 40
0.0625
 40
0.06640625
 40
0.0703125
 40
0.07421875
 40
0.078125
 40
0.08203125
 40
0.0859375
 40
0.09375
 40
0.1015625
 40
0.109375
 40
0.1171875
 40
0.125
 40
0.1328125
 40
0.140625
 40
0.1484375
 40
0.15625
 40
0.1640625
 40
0.171875
 40
0.1796875
 40
0.1875
 40
0.203125
 40
0.2109375
 40
0.21875
 40
0.2265625
 40
0.234375
 40
0.23828125
 40
0.2421875
 40
0.25
 40
0.2578125
 40
0.265625
 40
0.2734375
 40
0.28125
 40
0.296875
 40
0.3125
 40
0.3203125
 40
0.328125
 40
0.3359375
 40
0.34375
 40
0.3515625
 40
0.359375
 40
0.3671875
 40
0.375
 40
0.3828125
 40
0.390625
 40
0.40625
 40
0.4140625
 40
0.421875
 40
0.4296875
 40
0.4375
 40
0.4453125
 40
0.453125
 40
0.4609375
 40
0.46875
 40
0.4765625
 40
0.484375
 40
0.5
 40
0.515625
 40
0.53125
 40
0.5390625
 40
0.546875
 40
0.5546875
 40
0.5625
 40
0.5703125
 40
0.578125
 40
0.59375
 40
0.609375
 40
0.625
 40
0.640625
 40
0.65625
 40
0.671875
 40
0.6796875
 40
0.6875
 40
0.6953125
 40
0.703125
 40
0.7109375
 40
0.71875
 40
0.734375
 40
0.75
 40
0.78125
 40
0.8125
 40
0.84375
 40
0.875
 40
0.90625
 40
0.9261642479355222
 40
0.9261642479355222
 40
0.9261642479355222
 40
0.9261642479355222
 10
-7.410442293831939
 20
-175.6631500193065
 30
0.0
 10
-7.483523409742824
 20
-175.3975120677968
 30
0.0
 10
-7.630777420871429
 20
-174.8775679908229
 30
0.0
 10
-7.961120387485846
 20
-173.7594548061176
 30
0.0
 10
-8.417245480866397
 20
-172.2840914164927
 30
0.0
 10
-9.01414639446123
 20
-170.3975231061472
 30
0.0
 10
-9.84211662874234
 20
-167.7651740252528
 30
0.0
 10
-10.87380375762861
 20
-164.3094540136407
 30
0.0
 10
-11.92844640579553
 20
-160.0487365328278
 30
0.0
 10
-12.54112301147571
 20
-155.8339380646458
 30
0.0
 10
-12.81194878802794
 20
-152.0266018024037
 30
0.0
 10
-13.04806864700336
 20
-148.6441688547235
 30
0.0
 10
-13.39577760672395
 20
-146.2750909566383
 30
0.0
 10
-13.84340428928549
 20
-144.6828197181333
 30
0.0
 10
-14.26437964696311
 20
-143.6545206853248
 30
0.0
 10
-14.81836179267591
 20
-142.7041229519759
 30
0.0
 10
-15.47980806890631
 20
-141.8406944467584
 30
0.0
 10
-16.17722679009249
 20
-141.1346458278491
 30
0.0
 10
-17.04689899776719
 20
-140.4671238989799
 30
0.0
 10
-18.05785616216301
 20
-140.0027430787211
 30
0.0
 10
-19.38424288837471
 20
-139.7717644583936
 30
0.0
 10
-20.96547515076275
 20
-139.8029659413347
 30
0.0
 10
-22.77945784060398
 20
-140.011152112779
 30
0.0
 10
-24.80123250897606
 20
-140.2323405749673
 30
0.0
 10
-27.05111360301539
 20
-140.2290221730224
 30
0.0
 10
-29.512559627927
 20
-139.6615023405085
 30
0.0
 10
-31.92454858033043
 20
-138.1293119345606
 30
0.0
 10
-33.7927063283656
 20
-135.8798360903482
 30
0.0
 10
-35.17078629004396
 20
-133.3249176921321
 30
0.0
 10
-35.79606174327858
 20
-130.6081260145531
 30
0.0
 10
-35.59861632822309
 20
-128.0985194544006
 30
0.0
 10
-34.63870269928407
 20
-125.2013977948779
 30
0.0
 10
-33.22130335143755
 20
-122.9094929471217
 30
0.0
 10
-32.06457386334752
 20
-120.9464432099
 30
0.0
 10
-31.44944363665446
 20
-119.6460776784261
 30
0.0
 10
-31.1663237325856
 20
-118.5486201590531
 30
0.0
 10
-31.17141196467212
 20
-117.7526002419227
 30
0.0
 10
-31.3492722182499
 20
-117.0252586160677
 30
0.0
 10
-31.70679771735633
 20
-116.1218456684486
 30
0.0
 10
-32.43424689028386
 20
-114.8975074812124
 30
0.0
 10
-33.44769640319206
 20
-113.741154474235
 30
0.0
 10
-34.30745415468239
 20
-113.1155163223528
 30
0.0
 10
-35.12162917024524
 20
-112.7624522455264
 30
0.0
 10
-36.30670162008892
 20
-112.5209545609287
 30
0.0
 10
-38.20103673561314
 20
-112.5869409196761
 30
0.0
 10
-40.60264922241328
 20
-112.8771140344791
 30
0.0
 10
-42.82913166204516
 20
-112.8038146775318
 30
0.0
 10
-44.64104457435144
 20
-112.418283494247
 30
0.0
 10
-46.46996046181459
 20
-111.5349405371865
 30
0.0
 10
-48.13328458612277
 20
-110.1004591396084
 30
0.0
 10
-49.52671294822636
 20
-108.2017764411335
 30
0.0
 10
-50.61787681350201
 20
-106.0479548054407
 30
0.0
 10
-51.28521218069358
 20
-103.6367590637798
 30
0.0
 10
-51.24058437625492
 20
-101.2777018570702
 30
0.0
 10
-50.64261631512947
 20
-99.19737106845899
 30
0.0
 10
-49.42486369738845
 20
-96.82420304887442
 30
0.0
 10
-47.94852664787128
 20
-94.88953323996743
 30
0.0
 10
-46.66566356884247
 20
-93.14726539952014
 30
0.0
 10
-45.88773233602359
 20
-91.92650481512817
 30
0.0
 10
-45.36462181186666
 20
-90.79480329503173
 30
0.0
 10
-45.11207956537905
 20
-89.74155875996198
 30
0.0
 10
-45.11597529902213
 20
-88.6541263304134
 30
0.0
 10
-45.46079070748223
 20
-87.22977941959651
 30
0.0
 10
-46.08528052326835
 20
-85.87871381887737
 30
0.0
 10
-46.77936148011099
 20
-84.94469025339002
 30
0.0
 10
-47.55854128256755
 20
-84.26956705306358
 30
0.0
 10
-48.79434301130863
 20
-83.56249615012923
 30
0.0
 10
-50.81051530197421
 20
-82.95964810168942
 30
0.0
 10
-53.75535807737983
 20
-82.45339994206306
 30
0.0
 10
-56.42904320540886
 20
-81.78699600301702
 30
0.0
 10
-58.57837555851832
 20
-80.6129261163076
 30
0.0
 10
-60.05149212930038
 20
-79.26847813948024
 30
0.0
 10
-61.15205510067338
 20
-77.42144313870882
 30
0.0
 10
-61.76284134856321
 20
-75.45211407604361
 30
0.0
 10
-62.05414280532852
 20
-73.43718370746159
 30
0.0
 10
-62.01833573704636
 20
-70.78100291577225
 30
0.0
 10
-61.09190764030125
 20
-67.86381256941307
 30
0.0
 10
-59.09786634257203
 20
-65.30656624100062
 30
0.0
 10
-56.88656853376183
 20
-63.46364225366825
 30
0.0
 10
-54.81848213767253
 20
-61.98190217659268
 30
0.0
 10
-53.21278791818556
 20
-60.66538039989913
 30
0.0
 10
-52.50201528020055
 20
-59.70762557069524
 30
0.0
 10
-52.24247238067694
 20
-59.03819071868822
 30
0.0
 10
-52.13751129096394
 20
-58.36488630018783
 30
0.0
 10
-52.14138053284168
 20
-57.38681216052946
 30
0.0
 10
-52.25570001656479
 20
-56.27965297325331
 30
0.0
 10
-52.43555685404608
 20
-55.09817040403751
 30
0.0
 10
-52.69196081553519
 20
-53.62336511834064
 30
0.0
 10
-53.04366937939515
 20
-51.95499453812879
 30
0.0
 10
-53.63827274317003
 20
-49.60029003032319
 30
0.0
 10
-54.38674600590637
 20
-47.12701984499414
 30
0.0
 10
-55.13938198981555
 20
-44.51261132606388
 30
0.0
 10
-55.47929394766896
 20
-41.70757665900442
 30
0.0
 10
-54.88008935813854
 20
-38.78160405463064
 30
0.0
 10
-53.59320186650842
 20
-36.44397896434015
 30
0.0
 10
-52.47182353022163
 20
-35.09245885277611
 30
0.0
 10
-51.9877854971423
 20
-34.57760892401456
 30
0.0
  0
LINE
  5
76
330
1F
100
AcDbEntity
  8
0
  6
Continuous
 62
     7
370
    25
100
AcDbLine
 10
-2.5895577062
 20
-174.3368499807
 30
0.0
 11
-7.4104422938
 21
-175.6631500193
 31
0.0
  0
SPLINE
  5
77
330
1F
100
AcDbEntity
  8
0
  6
Continuous
 62
     7
370
    25
100
AcDbSpline
210
0.0
220
0.0
230
1.0
 70
     8
 71
     3
 72
   104
 73
   100
 74
     0
 42
0.000000001
 43
0.00000001
 40
0.0183972120153815
 40
0.0183972120153815
 40
0.0183972120153815
 40
0.0183972120153815
 40
0.03125
 40
0.046875
 40
0.0625
 40
0.09375
 40
0.125
 40
0.15625
 40
0.171875
 40
0.1875
 40
0.21875
 40
0.234375
 40
0.25
 40
0.265625
 40
0.28125
 40
0.296875
 40
0.3046875
 40
0.3125
 40
0.3203125
 40
0.328125
 40
0.3359375
 40
0.34375
 40
0.359375
 40
0.375
 40
0.390625
 40
0.40625
 40
0.4140625
 40
0.421875
 40
0.4296875
 40
0.4375
 40
0.4453125
 40
0.453125
 40
0.4609375
 40
0.46875
 40
0.4765625
 40
0.484375
 40
0.5
 40
0.515625
 40
0.53125
 40
0.5390625
 40
0.546875
 40
0.5546875
 40
0.5625
 40
0.5703125
 40
0.578125
 40
0.59375
 40
0.609375
 40
0.6171875
 40
0.625
 40
0.6328125
 40
0.63671875
 40
0.640625
 40
0.6484375
 40
0.65625
 40
0.6640625
 40
0.671875
 40
0.6796875
 40
0.6875
 40
0.703125
 40
0.71875
 40
0.734375
 40
0.7421875
 40
0.75
 40
0.7578125
 40
0.76171875
 40
0.765625
 40
0.7734375
 40
0.78125
 40
0.7890625
 40
0.796875
 40
0.8046875
 40
0.8125
 40
0.8203125
 40
0.828125
 40
0.8359375
 40
0.84375
 40
0.8515625
 40
0.859375
 40
0.8671875
 40
0.875
 40
0.8828125
 40
0.890625
 40
0.8984375
 40
0.90625
 40
0.9140625
 40
0.921875
 40
0.92578125
 40
0.9296875
 40
0.93359375
 40
0.9375
 40
0.9453125
 40
0.953125
 40
0.9609375
 40
0.96875
 40
0.9765625
 40
0.984375
 40
0.9921875
 40
0.99609375
 40
1.0
 40
1.0
 40
1.0
 40
1.0
 10
-44.14029045298894
 20
-34.6625515362656
 30
0.0
 10
-44.56771189793614
 20
-34.93667990047733
 30
0.0
 10
-45.46373861108729
 20
-35.53841248563005
 30
0.0
 10
-46.66493154186845
 20
-36.44148124714784
 30
0.0
 10
-48.08841231567669
 20
-37.67401457448312
 30
0.0
 10
-49.35244586074941
 20
-39.10816160994838
 30
0.0
 10
-50.13685905303115
 20
-40.60153636773636
 30
0.0
 10
-50.35107568639632
 20
-41.67496191718025
 30
0.0
 10
-50.32397564138487
 20
-42.59678324165218
 30
0.0
 10
-50.14750869921795
 20
-43.73695515002604
 30
0.0
 10
-49.72541367444177
 20
-45.25126445466759
 30
0.0
 10
-49.14201345259518
 20
-47.19669864660854
 30
0.0
 10
-48.66161379469318
 20
-48.88687275750087
 30
0.0
 10
-48.17033116654548
 20
-50.82519868081662
 30
0.0
 10
-47.70787477314853
 20
-53.04714835136607
 30
0.0
 10
-47.35280111730752
 20
-55.11856051706386
 30
0.0
 10
-47.14606420140209
 20
-57.06341945493509
 30
0.0
 10
-47.12312656843345
 20
-58.6060442862367
 30
0.0
 10
-47.35469544049589
 20
-60.2833622930394
 30
0.0
 10
-47.96482256865798
 20
-61.85541149189955
 30
0.0
 10
-48.81119659796693
 20
-63.16155280822951
 30
0.0
 10
-50.11670127286566
 20
-64.61609565800096
 30
0.0
 10
-51.88526245065678
 20
-66.02991302375347
 30
0.0
 10
-53.90369701649644
 20
-67.4785884248552
 30
0.0
 10
-55.54823792073537
 20
-68.882357785042
 30
0.0
 10
-56.41879036025573
 20
-70.04805263450775
 30
0.0
 10
-56.83720272056616
 20
-71.07093238200903
 30
0.0
 10
-57.02342748848666
 20
-71.95412700276364
 30
0.0
 10
-57.04556347133775
 20
-73.09013408953172
 30
0.0
 10
-56.86581189833378
 20
-74.3606008334042
 30
0.0
 10
-56.50040410766263
 20
-75.46115589982647
 30
0.0
 10
-56.12140373392627
 20
-76.06067464509894
 30
0.0
 10
-55.66549845990093
 20
-76.4884476999128
 30
0.0
 10
-54.98155685348974
 20
-76.88004642918627
 30
0.0
 10
-54.00994463694371
 20
-77.22525824099354
 30
0.0
 10
-52.3769369785371
 20
-77.61700429805524
 30
0.0
 10
-49.85444829275884
 20
-78.04819313894382
 30
0.0
 10
-46.40890402898628
 20
-79.0047703094023
 30
0.0
 10
-43.51981621926928
 20
-80.90659196441216
 30
0.0
 10
-41.70408897254283
 20
-83.39677711926765
 30
0.0
 10
-40.72460608134806
 20
-85.56211238705849
 30
0.0
 10
-40.12468953818512
 20
-87.90040548288913
 30
0.0
 10
-40.0903957094722
 20
-90.35685140104538
 30
0.0
 10
-40.64049607725062
 20
-92.52712668317352
 30
0.0
 10
-41.82481293450077
 20
-95.02687490140721
 30
0.0
 10
-43.69332968644436
 20
-97.53582210396213
 30
0.0
 10
-45.25859279431658
 20
-99.64033130387028
 30
0.0
 10
-45.98140123498212
 20
-101.0928209652937
 30
0.0
 10
-46.2406641689342
 20
-102.0483003690082
 30
0.0
 10
-46.25498297260412
 20
-102.8184786176459
 30
0.0
 10
-46.11561118754778
 20
-103.5359762822828
 30
0.0
 10
-45.82990670114381
 20
-104.4088360016056
 30
0.0
 10
-45.23663297686702
 20
-105.5957901726964
 30
0.0
 10
-44.37487942430813
 20
-106.740384239265
 30
0.0
 10
-43.66866945953063
 20
-107.3208032679061
 30
0.0
 10
-43.01824948065408
 20
-107.6370571545263
 30
0.0
 10
-42.26179448811946
 20
-107.8094110744713
 30
0.0
 10
-40.96728369982551
 20
-107.8691999564957
 30
0.0
 10
-38.82894847704529
 20
-107.6378606430127
 30
0.0
 10
-35.57982681477696
 20
-107.4260784797548
 30
0.0
 10
-32.35056459266439
 20
-108.3071562797744
 30
0.0
 10
-29.95625026255632
 20
-110.110457784147
 30
0.0
 10
-28.35036175795767
 20
-111.9735106518249
 30
0.0
 10
-27.24657876153733
 20
-113.8181804996767
 30
0.0
 10
-26.59432178212219
 20
-115.4291997998546
 30
0.0
 10
-26.15393388796845
 20
-117.1651577847055
 30
0.0
 10
-26.15382572456626
 20
-119.2778303349047
 30
0.0
 10
-26.77347118900475
 20
-121.4874866568651
 30
0.0
 10
-27.68639570973534
 20
-123.3727835531895
 30
0.0
 10
-28.67554165858866
 20
-125.0369872249846
 30
0.0
 10
-29.58262816719803
 20
-126.5457232790822
 30
0.0
 10
-30.27328827792767
 20
-127.9176259877653
 30
0.0
 10
-30.65635684716429
 20
-129.1334518362159
 30
0.0
 10
-30.72763562743786
 20
-130.2312883604989
 30
0.0
 10
-30.48049124706809
 20
-131.4275947215276
 30
0.0
 10
-29.62080807461513
 20
-133.0795482369614
 30
0.0
 10
-28.45415223624131
 20
-134.4181830433818
 30
0.0
 10
-27.56966717362074
 20
-134.9423851834806
 30
0.0
 10
-26.54463523545814
 20
-135.21274222642
 30
0.0
 10
-25.15121998495282
 20
-135.2356414512431
 30
0.0
 10
-23.41632227501622
 20
-135.0532861155532
 30
0.0
 10
-21.40091381831725
 20
-134.8168391071164
 30
0.0
 10
-19.1215769790351
 20
-134.748851794271
 30
0.0
 10
-16.5970083534461
 20
-135.1524414159278
 30
0.0
 10
-14.01171993862829
 20
-136.34684509128
 30
0.0
 10
-12.03192413512093
 20
-138.114284370537
 30
0.0
 10
-10.65883277525156
 20
-139.9056980076807
 30
0.0
 10
-9.764921800138223
 20
-141.4367086403144
 30
0.0
 10
-9.090208970110764
 20
-143.092704358827
 30
0.0
 10
-8.470682256692376
 20
-145.3321702533097
 30
0.0
 10
-8.06454967756498
 20
-148.1993057856928
 30
0.0
 10
-7.822468546671749
 20
-151.7252202651244
 30
0.0
 10
-7.558120090064743
 20
-155.3564833642737
 30
0.0
 10
-7.023658304559668
 20
-159.0361162070344
 30
0.0
 10
-6.05553455211198
 20
-162.9689472625469
 30
0.0
 10
-4.865162090742082
 20
-166.9578854115688
 30
0.0
 10
-3.837243093437208
 20
-170.1698150051509
 30
0.0
 10
-3.080800853748657
 20
-172.6178544525389
 30
0.0
 10
-2.749781113053798
 20
-173.7544639968653
 30
0.0
 10
-2.589557706167808
 20
-174.3368499806944
 30
0.0
  0
SPLINE
  5
78
330
1F
100
AcDbEntity
  8
0
  6
Continuous
 62
     7
370
    25
100
AcDbSpline
210
0.0
220
0.0
230
1.0
 70
     8
 71
     3
 72
    25
 73
    21
 74
     0
 42
0.000000001
 43
0.00000001
 40
0.3612842095907866
 40
0.3612842095907866
 40
0.3612842095907866
 40
0.3612842095907866
 40
0.375
 40
0.390625
 40
0.40625
 40
0.421875
 40
0.4375
 40
0.453125
 40
0.46875
 40
0.484375
 40
0.5
 40
0.515625
 40
0.53125
 40
0.546875
 40
0.5625
 40
0.578125
 40
0.59375
 40
0.609375
 40
0.625
 40
0.6387157904109428
 40
0.6387157904109428
 40
0.6387157904109428
 40
0.6387157904109428
 10
-44.14029045298857
 20
-34.66255153626617
 30
0.0
 10
-43.1384673643827
 20
-36.02361656924538
 30
0.0
 10
-40.75490689540768
 20
-38.71080488760148
 30
0.0
 10
-36.53175956805858
 20
-42.20653470941003
 30
0.0
 10
-31.70296712537798
 20
-45.27367832591127
 30
0.0
 10
-26.61471203156412
 20
-47.87358548316071
 30
0.0
 10
-21.42178446591723
 20
-50.08078529009252
 30
0.0
 10
-16.28840394470977
 20
-51.98919776512322
 30
0.0
 10
-11.01310174826501
 20
-53.59617350162596
 30
0.0
 10
-5.608553422809869
 20
-54.70769408965375
 30
0.0
 10
0.0000000000000234
 20
-55.14615295517311
 30
0.0
 10
5.608553422809921
 20
-54.70769408965374
 30
0.0
 10
11.01310174826503
 20
-53.59617350162593
 30
0.0
 10
16.28840394470981
 20
-51.98919776512324
 30
0.0
 10
21.42178446591724
 20
-50.0807852900925
 30
0.0
 10
26.61471203156412
 20
-47.87358548316072
 30
0.0
 10
31.70296712537798
 20
-45.27367832591125
 30
0.0
 10
36.53175956805858
 20
-42.20653470941002
 30
0.0
 10
40.75490689557012
 20
-38.71080488746704
 30
0.0
 10
43.1384673646637
 20
-36.02361656892859
 30
0.0
 10
44.14029045336755
 20
-34.66255153575131
 30
0.0
  0
SPLINE
  5
79
330
1F
100
AcDbEntity
  8
0
  6
Continuous
 62
     7
370
    25
100
AcDbSpline
210
0.0
220
0.0
230
1.0
 70
     8
 71
     3
 72
   104
 73
   100
 74
     0
 42
0.000000001
 43
0.00000001
 40
0.018397212015728
 40
0.018397212015728
 40
0.018397212015728
 40
0.018397212015728
 40
0.03125
 40
0.046875
 40
0.0625
 40
0.09375
 40
0.125
 40
0.15625
 40
0.171875
 40
0.1875
 40
0.21875
 40
0.234375
 40
0.25
 40
0.265625
 40
0.28125
 40
0.296875
 40
0.3046875
 40
0.3125
 40
0.3203125
 40
0.328125
 40
0.3359375
 40
0.34375
 40
0.359375
 40
0.375
 40
0.390625
 40
0.40625
 40
0.4140625
 40
0.421875
 40
0.4296875
 40
0.4375
 40
0.4453125
 40
0.453125
 40
0.4609375
 40
0.46875
 40
0.4765625
 40
0.484375
 40
0.5
 40
0.515625
 40
0.53125
 40
0.5390625
 40
0.546875
 40
0.5546875
 40
0.5625
 40
0.5703125
 40
0.578125
 40
0.59375
 40
0.609375
 40
0.6171875
 40
0.625
 40
0.6328125
 40
0.63671875
 40
0.640625
 40
0.6484375
 40
0.65625
 40
0.6640625
 40
0.671875
 40
0.6796875
 40
0.6875
 40
0.703125
 40
0.71875
 40
0.734375
 40
0.7421875
 40
0.75
 40
0.7578125
 40
0.76171875
 40
0.765625
 40
0.7734375
 40
0.78125
 40
0.7890625
 40
0.796875
 40
0.8046875
 40
0.8125
 40
0.8203125
 40
0.828125
 40
0.8359375
 40
0.84375
 40
0.8515625
 40
0.859375
 40
0.8671875
 40
0.875
 40
0.8828125
 40
0.890625
 40
0.8984375
 40
0.90625
 40
0.9140625
 40
0.921875
 40
0.92578125
 40
0.9296875
 40
0.93359375
 40
0.9375
 40
0.9453125
 40
0.953125
 40
0.9609375
 40
0.96875
 40
0.9765625
 40
0.984375
 40
0.9921875
 40
0.99609375
 40
1.0
 40
1.0
 40
1.0
 40
1.0
 10
44.1402904530235
 20
-34.66255153628777
 30
0.0
 10
44.56771189795794
 20
-34.93667990049197
 30
0.0
 10
45.46373861109674
 20
-35.53841248563715
 30
0.0
 10
46.66493154186845
 20
-36.44148124714784
 30
0.0
 10
48.08841231567669
 20
-37.67401457448312
 30
0.0
 10
49.35244586074941
 20
-39.10816160994838
 30
0.0
 10
50.13685905303115
 20
-40.60153636773636
 30
0.0
 10
50.35107568639632
 20
-41.67496191718025
 30
0.0
 10
50.32397564138487
 20
-42.59678324165218
 30
0.0
 10
50.14750869921795
 20
-43.73695515002604
 30
0.0
 10
49.72541367444177
 20
-45.25126445466759
 30
0.0
 10
49.14201345259518
 20
-47.19669864660854
 30
0.0
 10
48.66161379469318
 20
-48.88687275750087
 30
0.0
 10
48.17033116654548
 20
-50.82519868081662
 30
0.0
 10
47.70787477314853
 20
-53.04714835136607
 30
0.0
 10
47.35280111730752
 20
-55.11856051706386
 30
0.0
 10
47.14606420140209
 20
-57.06341945493509
 30
0.0
 10
47.12312656843345
 20
-58.6060442862367
 30
0.0
 10
47.35469544049589
 20
-60.2833622930394
 30
0.0
 10
47.96482256865798
 20
-61.85541149189955
 30
0.0
 10
48.81119659796693
 20
-63.16155280822951
 30
0.0
 10
50.11670127286566
 20
-64.61609565800096
 30
0.0
 10
51.88526245065678
 20
-66.02991302375347
 30
0.0
 10
53.90369701649644
 20
-67.4785884248552
 30
0.0
 10
55.54823792073537
 20
-68.882357785042
 30
0.0
 10
56.41879036025573
 20
-70.04805263450775
 30
0.0
 10
56.83720272056616
 20
-71.07093238200903
 30
0.0
 10
57.02342748848666
 20
-71.95412700276364
 30
0.0
 10
57.04556347133775
 20
-73.09013408953172
 30
0.0
 10
56.86581189833378
 20
-74.3606008334042
 30
0.0
 10
56.50040410766263
 20
-75.46115589982647
 30
0.0
 10
56.12140373392627
 20
-76.06067464509894
 30
0.0
 10
55.66549845990093
 20
-76.4884476999128
 30
0.0
 10
54.98155685348974
 20
-76.88004642918627
 30
0.0
 10
54.00994463694371
 20
-77.22525824099354
 30
0.0
 10
52.3769369785371
 20
-77.61700429805524
 30
0.0
 10
49.85444829275884
 20
-78.04819313894382
 30
0.0
 10
46.40890402898628
 20
-79.0047703094023
 30
0.0
 10
43.51981621926928
 20
-80.90659196441216
 30
0.0
 10
41.70408897254283
 20
-83.39677711926765
 30
0.0
 10
40.72460608134806
 20
-85.56211238705849
 30
0.0
 10
40.12468953818512
 20
-87.90040548288913
 30
0.0
 10
40.0903957094722
 20
-90.35685140104538
 30
0.0
 10
40.64049607725062
 20
-92.52712668317352
 30
0.0
 10
41.82481293450077
 20
-95.02687490140721
 30
0.0
 10
43.69332968644436
 20
-97.53582210396213
 30
0.0
 10
45.25859279431658
 20
-99.64033130387028
 30
0.0
 10
45.98140123498212
 20
-101.0928209652937
 30
0.0
 10
46.2406641689342
 20
-102.0483003690082
 30
0.0
 10
46.25498297260412
 20
-102.8184786176459
 30
0.0
 10
46.11561118754778
 20
-103.5359762822828
 30
0.0
 10
45.82990670114381
 20
-104.4088360016056
 30
0.0
 10
45.23663297686702
 20
-105.5957901726964
 30
0.0
 10
44.37487942430813
 20
-106.740384239265
 30
0.0
 10
43.66866945953063
 20
-107.3208032679061
 30
0.0
 10
43.01824948065408
 20
-107.6370571545263
 30
0.0
 10
42.26179448811946
 20
-107.8094110744713
 30
0.0
 10
40.96728369982551
 20
-107.8691999564957
 30
0.0
 10
38.82894847704529
 20
-107.6378606430127
 30
0.0
 10
35.57982681477696
 20
-107.4260784797548
 30
0.0
 10
32.35056459266439
 20
-108.3071562797744
 30
0.0
 10
29.95625026255632
 20
-110.110457784147
 30
0.0
 10
28.35036175795767
 20
-111.9735106518249
 30
0.0
 10
27.24657876153733
 20
-113.8181804996767
 30
0.0
 10
26.59432178212219
 20
-115.4291997998546
 30
0.0
 10
26.15393388796845
 20
-117.1651577847055
 30
0.0
 10
26.15382572456626
 20
-119.2778303349047
 30
0.0
 10
26.77347118900475
 20
-121.4874866568651
 30
0.0
 10
27.68639570973534
 20
-123.3727835531895
 30
0.0
 10
28.67554165858866
 20
-125.0369872249846
 30
0.0
 10
29.58262816719803
 20
-126.5457232790822
 30
0.0
 10
30.27328827792767
 20
-127.9176259877653
 30
0.0
 10
30.65635684716429
 20
-129.1334518362159
 30
0.0
 10
30.72763562743786
 20
-130.2312883604989
 30
0.0
 10
30.48049124706809
 20
-131.4275947215276
 30
0.0
 10
29.62080807461513
 20
-133.0795482369614
 30
0.0
 10
28.45415223624131
 20
-134.4181830433818
 30
0.0
 10
27.56966717362074
 20
-134.9423851834806
 30
0.0
 10
26.54463523545814
 20
-135.21274222642
 30
0.0
 10
25.15121998495282
 20
-135.2356414512431
 30
0.0
 10
23.41632227501622
 20
-135.0532861155532
 30
0.0
 10
21.40091381831725
 20
-134.8168391071164
 30
0.0
 10
19.1215769790351
 20
-134.748851794271
 30
0.0
 10
16.5970083534461
 20
-135.1524414159278
 30
0.0
 10
14.01171993862829
 20
-136.34684509128
 30
0.0
 10
12.03192413512093
 20
-138.114284370537
 30
0.0
 10
10.65883277525156
 20
-139.9056980076807
 30
0.0
 10
9.764921800138223
 20
-141.4367086403144
 30
0.0
 10
9.090208970110764
 20
-143.092704358827
 30
0.0
 10
8.470682256692376
 20
-145.3321702533097
 30
0.0
 10
8.06454967756498
 20
-148.1993057856928
 30
0.0
 10
7.822468546671749
 20
-151.7252202651244
 30
0.0
 10
7.558120090064743
 20
-155.3564833642737
 30
0.0
 10
7.023658304559668
 20
-159.0361162070344
 30
0.0
 10
6.05553455211198
 20
-162.9689472625469
 30
0.0
 10
4.865162090742082
 20
-166.9578854115688
 30
0.0
 10
3.837243093437208
 20
-170.1698150051509
 30
0.0
 10
3.080800853748657
 20
-172.6178544525389
 30
0.0
 10
2.749781113053798
 20
-173.7544639968653
 30
0.0
 10
2.589557706167808
 20
-174.3368499806944
 30
0.0
  0
LINE
  5
7A
330
1F
100
AcDbEntity
  8
0
  6
Continuous
 62
     7
370
    25
100
AcDbLine
 10
2.5895577062
 20
-174.3368499807
 30
0.0
 11
7.4104422938
 21
-175.6631500193
 31
0.0
  0
SPLINE
  5
7B
330
1F
100
AcDbEntity
  8
0
  6
Continuous
 62
     7
370
    25
100
AcDbSpline
210
0.0
220
0.0
230
1.0
 70
     8
 71
     3
 72
   101
 73
    97
 74
     0
 42
0.000000001
 43
0.00000001
 40
0.0
 40
0.0
 40
0.0
 40
0.0
 40
0.001953125
 40
0.00390625
 40
0.0078125
 40
0.01171875
 40
0.015625
 40
0.0234375
 40
0.03125
 40
0.0390625
 40
0.046875
 40
0.0546875
 40
0.0625
 40
0.06640625
 40
0.0703125
 40
0.07421875
 40
0.078125
 40
0.08203125
 40
0.0859375
 40
0.09375
 40
0.1015625
 40
0.109375
 40
0.1171875
 40
0.125
 40
0.1328125
 40
0.140625
 40
0.1484375
 40
0.15625
 40
0.1640625
 40
0.171875
 40
0.1796875
 40
0.1875
 40
0.203125
 40
0.2109375
 40
0.21875
 40
0.2265625
 40
0.234375
 40
0.23828125
 40
0.2421875
 40
0.25
 40
0.2578125
 40
0.265625
 40
0.2734375
 40
0.28125
 40
0.296875
 40
0.3125
 40
0.3203125
 40
0.328125
 40
0.3359375
 40
0.34375
 40
0.3515625
 40
0.359375
 40
0.3671875
 40
0.375
 40
0.3828125
 40
0.390625
 40
0.40625
 40
0.4140625
 40
0.421875
 40
0.4296875
 40
0.4375
 40
0.4453125
 40
0.453125
 40
0.4609375
 40
0.46875
 40
0.4765625
 40
0.484375
 40
0.5
 40
0.515625
 40
0.53125
 40
0.5390625
 40
0.546875
 40
0.5546875
 40
0.5625
 40
0.5703125
 40
0.578125
 40
0.59375
 40
0.609375
 40
0.625
 40
0.640625
 40
0.65625
 40
0.671875
 40
0.6796875
 40
0.6875
 40
0.6953125
 40
0.703125
 40
0.7109375
 40
0.71875
 40
0.734375
 40
0.75
 40
0.78125
 40
0.8125
 40
0.84375
 40
0.875
 40
0.90625
 40
0.9261642479355219
 40
0.9261642479355219
 40
0.9261642479355219
 40
0.9261642479355219
 10
7.410442293831939
 20
-175.6631500193065
 30
0.0
 10
7.483523409742824
 20
-175.3975120677968
 30
0.0
 10
7.630777420871429
 20
-174.8775679908229
 30
0.0
 10
7.961120387485846
 20
-173.7594548061176
 30
0.0
 10
8.417245480866397
 20
-172.2840914164927
 30
0.0
 10
9.01414639446123
 20
-170.3975231061472
 30
0.0
 10
9.84211662874234
 20
-167.7651740252528
 30
0.0
 10
10.87380375762861
 20
-164.3094540136407
 30
0.0
 10
11.92844640579553
 20
-160.0487365328278
 30
0.0
 10
12.54112301147571
 20
-155.8339380646458
 30
0.0
 10
12.81194878802794
 20
-152.0266018024037
 30
0.0
 10
13.04806864700336
 20
-148.6441688547235
 30
0.0
 10
13.39577760672395
 20
-146.2750909566383
 30
0.0
 10
13.84340428928549
 20
-144.6828197181333
 30
0.0
 10
14.26437964696311
 20
-143.6545206853248
 30
0.0
 10
14.81836179267591
 20
-142.7041229519759
 30
0.0
 10
15.47980806890631
 20
-141.8406944467584
 30
0.0
 10
16.17722679009249
 20
-141.1346458278491
 30
0.0
 10
17.04689899776719
 20
-140.4671238989799
 30
0.0
 10
18.05785616216301
 20
-140.0027430787211
 30
0.0
 10
19.38424288837471
 20
-139.7717644583936
 30
0.0
 10
20.96547515076275
 20
-139.8029659413347
 30
0.0
 10
22.77945784060398
 20
-140.011152112779
 30
0.0
 10
24.80123250897606
 20
-140.2323405749673
 30
0.0
 10
27.05111360301539
 20
-140.2290221730224
 30
0.0
 10
29.512559627927
 20
-139.6615023405085
 30
0.0
 10
31.92454858033043
 20
-138.1293119345606
 30
0.0
 10
33.7927063283656
 20
-135.8798360903482
 30
0.0
 10
35.17078629004396
 20
-133.3249176921321
 30
0.0
 10
35.79606174327858
 20
-130.6081260145531
 30
0.0
 10
35.59861632822309
 20
-128.0985194544006
 30
0.0
 10
34.63870269928407
 20
-125.2013977948779
 30
0.0
 10
33.22130335143755
 20
-122.9094929471217
 30
0.0
 10
32.06457386334752
 20
-120.9464432099
 30
0.0
 10
31.44944363665446
 20
-119.6460776784261
 30
0.0
 10
31.1663237325856
 20
-118.5486201590531
 30
0.0
 10
31.17141196467212
 20
-117.7526002419227
 30
0.0
 10
31.3492722182499
 20
-117.0252586160677
 30
0.0
 10
31.70679771735633
 20
-116.1218456684486
 30
0.0
 10
32.43424689028386
 20
-114.8975074812124
 30
0.0
 10
33.44769640319206
 20
-113.741154474235
 30
0.0
 10
34.30745415468239
 20
-113.1155163223528
 30
0.0
 10
35.12162917024524
 20
-112.7624522455264
 30
0.0
 10
36.30670162008892
 20
-112.5209545609287
 30
0.0
 10
38.20103673561314
 20
-112.5869409196761
 30
0.0
 10
40.60264922241328
 20
-112.8771140344791
 30
0.0
 10
42.82913166204516
 20
-112.8038146775318
 30
0.0
 10
44.64104457435144
 20
-112.418283494247
 30
0.0
 10
46.46996046181459
 20
-111.5349405371865
 30
0.0
 10
48.13328458612277
 20
-110.1004591396084
 30
0.0
 10
49.52671294822636
 20
-108.2017764411335
 30
0.0
 10
50.61787681350201
 20
-106.0479548054407
 30
0.0
 10
51.28521218069358
 20
-103.6367590637798
 30
0.0
 10
51.24058437625492
 20
-101.2777018570702
 30
0.0
 10
50.64261631512947
 20
-99.19737106845899
 30
0.0
 10
49.42486369738845
 20
-96.82420304887442
 30
0.0
 10
47.94852664787128
 20
-94.88953323996743
 30
0.0
 10
46.66566356884247
 20
-93.14726539952014
 30
0.0
 10
45.88773233602359
 20
-91.92650481512817
 30
0.0
 10
45.36462181186666
 20
-90.79480329503173
 30
0.0
 10
45.11207956537905
 20
-89.74155875996198
 30
0.0
 10
45.11597529902213
 20
-88.6541263304134
 30
0.0
 10
45.46079070748223
 20
-87.22977941959651
 30
0.0
 10
46.08528052326835
 20
-85.87871381887737
 30
0.0
 10
46.77936148011099
 20
-84.94469025339002
 30
0.0
 10
47.55854128256755
 20
-84.26956705306358
 30
0.0
 10
48.79434301130863
 20
-83.56249615012923
 30
0.0
 10
50.81051530197421
 20
-82.95964810168942
 30
0.0
 10
53.75535807737983
 20
-82.45339994206306
 30
0.0
 10
56.42904320540886
 20
-81.78699600301702
 30
0.0
 10
58.57837555851832
 20
-80.6129261163076
 30
0.0
 10
60.05149212930038
 20
-79.26847813948024
 30
0.0
 10
61.15205510067338
 20
-77.42144313870882
 30
0.0
 10
61.76284134856321
 20
-75.45211407604361
 30
0.0
 10
62.05414280532852
 20
-73.43718370746159
 30
0.0
 10
62.01833573704636
 20
-70.78100291577225
 30
0.0
 10
61.09190764030125
 20
-67.86381256941307
 30
0.0
 10
59.09786634257203
 20
-65.30656624100062
 30
0.0
 10
56.88656853376183
 20
-63.46364225366825
 30
0.0
 10
54.81848213767253
 20
-61.98190217659268
 30
0.0
 10
53.21278791818556
 20
-60.66538039989913
 30
0.0
 10
52.50201528020055
 20
-59.70762557069524
 30
0.0
 10
52.24247238067694
 20
-59.03819071868822
 30
0.0
 10
52.13751129096394
 20
-58.36488630018783
 30
0.0
 10
52.14138053284168
 20
-57.38681216052946
 30
0.0
 10
52.25570001656479
 20
-56.27965297325331
 30
0.0
 10
52.43555685404608
 20
-55.09817040403751
 30
0.0
 10
52.69196081553519
 20
-53.62336511834064
 30
0.0
 10
53.04366937939515
 20
-51.95499453812879
 30
0.0
 10
53.63827274317003
 20
-49.60029003032319
 30
0.0
 10
54.38674600590637
 20
-47.12701984499414
 30
0.0
 10
55.13938198981555
 20
-44.51261132606388
 30
0.0
 10
55.47929394766896
 20
-41.70757665900442
 30
0.0
 10
54.88008935813854
 20
-38.78160405463064
 30
0.0
 10
53.59320186650842
 20
-36.44397896434017
 30
0.0
 10
52.47182353022166
 20
-35.09245885277613
 30
0.0
 10
51.98778549714232
 20
-34.57760892401458
 30
0.0
  0
ARC
  5
7C
330
1F
100
AcDbEntity
  8
0
  6
Continuous
 62
     7
370
    25
100
AcDbCircle
 10
60.7306471646
 20
-26.3579757288
 30
0.0
 40
12.00000000000006
100
AcDbArc
 50
167.1642163299
 51
223.23320327
  0
SPLINE
  5
7D
330
1F
100
AcDbEntity
  8
0
  6
Continuous
 62
     7
370
    25
100
AcDbSpline
210
0.0
220
0.0
230
1.0
 70
     8
 71
     3
 72
    17
 73
    13
 74
     0
 42
0.000000001
 43
0.00000001
 40
0.6716679992770295
 40
0.6716679992770295
 40
0.6716679992770295
 40
0.6716679992770295
 40
0.671875
 40
0.6875
 40
0.703125
 40
0.71875
 40
0.734375
 40
0.75
 40
0.765625
 40
0.78125
 40
0.796875
 40
0.8088041624293576
 40
0.8088041624293576
 40
0.8088041624293576
 40
0.8088041624293576
 10
49.03051759337926
 20
-23.69208600551682
 30
0.0
 10
49.03607023827125
 20
-23.66771640608001
 30
0.0
 10
49.45881521231066
 20
-21.80348777884413
 30
0.0
 10
50.0054069907825
 20
-18.04347673012216
 30
0.0
 10
50.16794263621478
 20
-12.36440955024737
 30
0.0
 10
49.85650768674417
 20
-6.674544380068433
 30
0.0
 10
49.21720910290389
 20
-1.04879775084583
 30
0.0
 10
48.41999246459214
 20
4.454868395588568
 30
0.0
 10
47.34838751117551
 20
10.01029806941309
 30
0.0
 10
45.80484171048881
 20
15.45878074192451
 30
0.0
 10
43.75022997965846
 20
20.28929023762698
 30
0.0
 10
41.9558017982442
 20
23.18128046169081
 30
0.0
 10
41.0716151718843
 20
24.37583109714298
 30
0.0
  0
SPLINE
  5
7E
330
1F
100
AcDbEntity
  8
0
  6
Continuous
 62
     7
370
    25
100
AcDbSpline
210
0.0
220
0.0
230
1.0
 70
     8
 71
     3
 72
     8
 73
     4
 74
     0
 42
0.000000001
 43
0.00000001
 40
0.4064206079627206
 40
0.4064206079627206
 40
0.4064206079627206
 40
0.4064206079627206
 40
0.4084188316622197
 40
0.4084188316622197
 40
0.4084188316622197
 40
0.4084188316622197
 10
41.07161517160304
 20
24.37583109712879
 30
0.0
 10
41.06767860076195
 20
24.45379492035839
 30
0.0
 10
41.06169828908845
 20
24.53214206361711
 30
0.0
 10
41.05371023508194
 20
24.61087196893259
 30
0.0
  0
SPLINE
  5
7F
330
1F
100
AcDbEntity
  8
0
  6
Continuous
 62
     7
370
    25
100
AcDbSpline
210
0.0
220
0.0
230
1.0
 70
     8
 71
     3
 72
    98
 73
    94
 74
     0
 42
0.000000001
 43
0.00000001
 40
0.014372902730627
 40
0.014372902730627
 40
0.014372902730627
 40
0.014372902730627
 40
0.015625
 40
0.03125
 40
0.046875
 40
0.0625
 40
0.078125
 40
0.09375
 40
0.109375
 40
0.125
 40
0.140625
 40
0.15625
 40
0.1640625
 40
0.171875
 40
0.1796875
 40
0.1875
 40
0.203125
 40
0.21875
 40
0.234375
 40
0.25
 40
0.265625
 40
0.28125
 40
0.2890625
 40
0.296875
 40
0.3125
 40
0.3203125
 40
0.328125
 40
0.34375
 40
0.359375
 40
0.375
 40
0.390625
 40
0.40625
 40
0.421875
 40
0.4375
 40
0.453125
 40
0.46875
 40
0.484375
 40
0.5
 40
0.515625
 40
0.53125
 40
0.546875
 40
0.5625
 40
0.578125
 40
0.59375
 40
0.6015625
 40
0.609375
 40
0.6171875
 40
0.625
 40
0.6328125
 40
0.640625
 40
0.65625
 40
0.671875
 40
0.6875
 40
0.6953125
 40
0.703125
 40
0.7109375
 40
0.71875
 40
0.7265625
 40
0.734375
 40
0.7421875
 40
0.75
 40
0.765625
 40
0.7734375
 40
0.78125
 40
0.7890625
 40
0.796875
 40
0.8046875
 40
0.8125
 40
0.8203125
 40
0.828125
 40
0.8359375
 40
0.84375
 40
0.8515625
 40
0.859375
 40
0.875
 40
0.8828125
 40
0.890625
 40
0.8984375
 40
0.90625
 40
0.9140625
 40
0.921875
 40
0.9296875
 40
0.9375
 40
0.9453125
 40
0.94921875
 40
0.953125
 40
0.9609375
 40
0.96875
 40
0.9765625
 40
0.984375
 40
0.9921875
 40
0.99609375
 40
1.0
 40
1.0
 40
1.0
 40
1.0
 10
41.05371023504033
 20
24.61087196935198
 30
0.0
 10
41.10634729358638
 20
24.66911771880204
 30
0.0
 10
41.81783075363156
 20
25.46037141380618
 30
0.0
 10
43.23685044809813
 20
27.13336646769248
 30
0.0
 10
45.45330641651952
 20
29.74467500291925
 30
0.0
 10
47.80583237754451
 20
32.30922550621344
 30
0.0
 10
50.17724746213729
 20
34.48462221481445
 30
0.0
 10
52.69752359515846
 20
36.32159064990381
 30
0.0
 10
55.29775817090535
 20
38.04035481182455
 30
0.0
 10
57.86752014792176
 20
39.80190298672124
 30
0.0
 10
60.29047533156957
 20
41.82867542417635
 30
0.0
 10
62.03501185327187
 20
43.9524088820475
 30
0.0
 10
63.1038644984236
 20
45.9980485799914
 30
0.0
 10
63.6883275082531
 20
47.62156231726607
 30
0.0
 10
64.03963629764078
 20
49.30686312563656
 30
0.0
 10
64.09047419454157
 20
51.63400631839626
 30
0.0
 10
63.26821738581781
 20
54.22403403319996
 30
0.0
 10
61.52968438902955
 20
56.57788863623852
 30
0.0
 10
59.55319303955254
 20
58.44672922933977
 30
0.0
 10
57.60136694706415
 20
60.07544081033473
 30
0.0
 10
55.92735028413485
 20
61.58921471968519
 30
0.0
 10
54.97802198656939
 20
62.76299436455845
 30
0.0
 10
54.53613958708679
 20
63.62664695671437
 30
0.0
 10
54.27876998074259
 20
64.44635261679502
 30
0.0
 10
54.22697387721453
 20
65.54079712631511
 30
0.0
 10
54.41844056369546
 20
66.61716335279118
 30
0.0
 10
54.73167844599643
 20
67.5737654694278
 30
0.0
 10
55.36947195913742
 20
68.70005418870151
 30
0.0
 10
56.53738168432216
 20
70.06880591416035
 30
0.0
 10
58.01277346658556
 20
71.48774536252517
 30
0.0
 10
59.63795842972434
 20
73.03335914674008
 30
0.0
 10
61.23926664991031
 20
74.84873678308368
 30
0.0
 10
62.57517816802755
 20
77.14282702254997
 30
0.0
 10
63.23691462317777
 20
80.01462726744919
 30
0.0
 10
62.86088986390051
 20
83.21697904298836
 30
0.0
 10
61.78038628694421
 20
86.22022903966364
 30
0.0
 10
59.83459913048174
 20
88.74141616884657
 30
0.0
 10
57.29078443810292
 20
90.05245998190524
 30
0.0
 10
54.83340697696914
 20
90.46912762922312
 30
0.0
 10
52.56090555111032
 20
90.52101086028071
 30
0.0
 10
50.45460978599072
 20
90.52368640889303
 30
0.0
 10
48.56116581602195
 20
90.69112715259831
 30
0.0
 10
46.93552757848379
 20
91.15256045673641
 30
0.0
 10
45.71198497378015
 20
91.88265734890956
 30
0.0
 10
44.73084586934056
 20
92.8329351577657
 30
0.0
 10
44.14842158185996
 20
93.62381772339934
 30
0.0
 10
43.82350926483348
 20
94.35212035469056
 30
0.0
 10
43.73692290908163
 20
94.90579241195125
 30
0.0
 10
43.80256886688181
 20
95.75554756271082
 30
0.0
 10
44.19491666272071
 20
97.2095565326439
 30
0.0
 10
45.18719800008773
 20
99.49688985370871
 30
0.0
 10
46.58909944950877
 20
102.7008032094561
 30
0.0
 10
47.31385136637461
 20
105.8615826393655
 30
0.0
 10
47.01779290978171
 20
108.7005567011321
 30
0.0
 10
46.19933526552061
 20
110.8390144813621
 30
0.0
 10
44.74751523084861
 20
112.8129392901722
 30
0.0
 10
42.94375742999873
 20
114.4568867586317
 30
0.0
 10
40.8910651481213
 20
115.7703901874283
 30
0.0
 10
38.66236456407729
 20
116.5104234251031
 30
0.0
 10
36.53136790848768
 20
116.6066795408243
 30
0.0
 10
33.99469025531449
 20
116.1534865177733
 30
0.0
 10
31.92447755202273
 20
115.3007181735093
 30
0.0
 10
30.10722202269097
 20
114.607909382183
 30
0.0
 10
28.85384787899617
 20
114.2422196358356
 30
0.0
 10
27.68855613638685
 20
114.0822087577221
 30
0.0
 10
26.52636362947482
 20
114.1540642333451
 30
0.0
 10
25.23082517620754
 20
114.5225039800263
 30
0.0
 10
23.59467993718069
 20
115.3979579862127
 30
0.0
 10
22.14189591637943
 20
116.5747997946344
 30
0.0
 10
21.54496969388451
 20
117.4287569495804
 30
0.0
 10
21.3197864771533
 20
118.1393425843996
 30
0.0
 10
21.27889877915586
 20
119.1728268610805
 30
0.0
 10
21.48493395714483
 20
120.6306163472153
 30
0.0
 10
21.9552896408661
 20
123.0608238946341
 30
0.0
 10
22.34687901603152
 20
126.1978710704835
 30
0.0
 10
21.70336457772746
 20
129.9158618798974
 30
0.0
 10
20.48557581889311
 20
132.864582475678
 30
0.0
 10
18.72527729615763
 20
135.6863184255886
 30
0.0
 10
16.63929631499098
 20
138.1675216858791
 30
0.0
 10
14.49801998954773
 20
140.305328035545
 30
0.0
 10
12.46936375701886
 20
142.2292465073594
 30
0.0
 10
10.74182822646386
 20
143.9899403103169
 30
0.0
 10
9.477545700426502
 20
145.6319407627396
 30
0.0
 10
8.931147213075628
 20
146.793898741189
 30
0.0
 10
8.602420508534543
 20
147.9796699350703
 30
0.0
 10
8.31348093897357
 20
149.4022628955778
 30
0.0
 10
8.015314612111746
 20
151.4479181435196
 30
0.0
 10
7.76500141368566
 20
154.29788063386
 30
0.0
 10
7.605205527844188
 20
157.5611083914904
 30
0.0
 10
7.520054545993178
 20
161.2409504087194
 30
0.0
 10
7.495537591372789
 20
164.6758356375096
 30
0.0
 10
7.493937864640486
 20
167.6274338889184
 30
0.0
 10
7.497593280327721
 20
169.2131863256672
 30
0.0
 10
7.499988189557866
 20
169.9923154654544
 30
0.0
  0
LINE
  5
80
330
1F
100
AcDbEntity
  8
0
  6
Continuous
 62
     7
370
    25
100
AcDbLine
 10
7.4999881896
 20
169.9923154655
 30
0.0
 11
2.5000118104
 21
170.0076845345
 31
0.0
  0
SPLINE
  5
81
330
1F
100
AcDbEntity
  8
0
  6
Continuous
 62
     7
370
    25
100
AcDbSpline
210
0.0
220
0.0
230
1.0
 70
     8
 71
     3
 72
    99
 73
    95
 74
     0
 42
0.000000001
 43
0.00000001
 40
0.0
 40
0.0
 40
0.0
 40
0.0
 40
0.00390625
 40
0.0078125
 40
0.015625
 40
0.0234375
 40
0.03125
 40
0.0390625
 40
0.046875
 40
0.05078125
 40
0.0546875
 40
0.05859375
 40
0.0625
 40
0.0703125
 40
0.078125
 40
0.0859375
 40
0.09375
 40
0.1015625
 40
0.109375
 40
0.11328125
 40
0.1171875
 40
0.125
 40
0.1328125
 40
0.140625
 40
0.1484375
 40
0.15625
 40
0.1640625
 40
0.171875
 40
0.1796875
 40
0.1875
 40
0.1953125
 40
0.203125
 40
0.21875
 40
0.234375
 40
0.2421875
 40
0.25
 40
0.2578125
 40
0.265625
 40
0.2734375
 40
0.28125
 40
0.2890625
 40
0.29296875
 40
0.296875
 40
0.3046875
 40
0.3125
 40
0.3203125
 40
0.328125
 40
0.34375
 40
0.359375
 40
0.3671875
 40
0.375
 40
0.3828125
 40
0.390625
 40
0.3984375
 40
0.40625
 40
0.421875
 40
0.4375
 40
0.453125
 40
0.46875
 40
0.484375
 40
0.5
 40
0.515625
 40
0.53125
 40
0.546875
 40
0.5546875
 40
0.5625
 40
0.578125
 40
0.59375
 40
0.609375
 40
0.625
 40
0.65625
 40
0.671875
 40
0.6875
 40
0.6953125
 40
0.703125
 40
0.7109375
 40
0.71875
 40
0.734375
 40
0.75
 40
0.765625
 40
0.78125
 40
0.796875
 40
0.8046875
 40
0.8125
 40
0.8203125
 40
0.828125
 40
0.8359375
 40
0.84375
 40
0.859375
 40
0.875
 40
0.890625
 40
0.90625
 40
0.921875
 40
0.9251525654589523
 40
0.9251525654589523
 40
0.9251525654589523
 40
0.9251525654589523
 10
2.500011810442136
 20
170.0076845345462
 30
0.0
 10
2.497605855306617
 20
169.2249618611741
 30
0.0
 10
2.493935719695583
 20
167.6336484300034
 30
0.0
 10
2.495540009159583
 20
164.6579193715086
 30
0.0
 10
2.520301158263001
 20
161.174535497468
 30
0.0
 10
2.607507139935705
 20
157.3939767555684
 30
0.0
 10
2.774172871309216
 20
153.9758811146259
 30
0.0
 10
3.043728683222727
 20
150.8931852098879
 30
0.0
 10
3.377894635162622
 20
148.5855132723728
 30
0.0
 10
3.725397070575618
 20
146.8629352797782
 30
0.0
 10
4.083951733223139
 20
145.5419817328377
 30
0.0
 10
4.613845819533269
 20
144.1898598426469
 30
0.0
 10
5.567521664000166
 20
142.481798613543
 30
0.0
 10
7.030524072332441
 20
140.6290477162056
 30
0.0
 10
9.00831735222012
 20
138.6193560946198
 30
0.0
 10
11.0426043689976
 20
136.6921918640223
 30
0.0
 10
12.98618599455006
 20
134.7429496847577
 30
0.0
 10
14.67397689975517
 20
132.7309500483919
 30
0.0
 10
15.81269278766887
 20
130.8905753272452
 30
0.0
 10
16.46993347565417
 20
129.4793175834733
 30
0.0
 10
16.91534293067477
 20
128.2046710564111
 30
0.0
 10
17.17168659286018
 20
126.739888832481
 30
0.0
 10
17.15530384793271
 20
125.0580450920199
 30
0.0
 10
16.91703109173204
 20
123.3477305932702
 30
0.0
 10
16.57161967413405
 20
121.5563206392793
 30
0.0
 10
16.27976791584758
 20
119.6187904228814
 30
0.0
 10
16.29655750232678
 20
117.4326612931447
 30
0.0
 10
17.01481789808221
 20
115.0634304198485
 30
0.0
 10
18.66912728401489
 20
112.9023988637462
 30
0.0
 10
20.82669315441283
 20
111.2157215767203
 30
0.0
 10
23.22622271633343
 20
109.9014592494179
 30
0.0
 10
26.44522290707397
 20
108.9452641390602
 30
0.0
 10
30.10365552271167
 20
109.2301004880955
 30
0.0
 10
32.88174125045168
 20
110.3141685692576
 30
0.0
 10
34.71822211575905
 20
111.0370455901967
 30
0.0
 10
35.90564226450603
 20
111.4173267860813
 30
0.0
 10
36.89281969949513
 20
111.5781246878129
 30
0.0
 10
37.73860127166117
 20
111.5280789963242
 30
0.0
 10
38.62827630202907
 20
111.2549378727102
 30
0.0
 10
39.86957144468733
 20
110.4876943462966
 30
0.0
 10
40.8522580035768
 20
109.5821487154537
 30
0.0
 10
41.42957971993138
 20
108.8713380964061
 30
0.0
 10
41.82611013651934
 20
108.241068016234
 30
0.0
 10
42.09889501088659
 20
107.5193985967913
 30
0.0
 10
42.20152604644622
 20
106.6248094012067
 30
0.0
 10
42.09609277031466
 20
105.5738190882226
 30
0.0
 10
41.66697106194606
 20
103.9554203259435
 30
0.0
 10
40.6708472112415
 20
101.6230050809801
 30
0.0
 10
39.52067955397762
 20
99.04515307466163
 30
0.0
 10
38.88154400356154
 20
96.74658784165469
 30
0.0
 10
38.67444581771068
 20
94.86528784095073
 30
0.0
 10
39.00365721028202
 20
92.77959443396031
 30
0.0
 10
39.8596761731916
 20
90.9941254982367
 30
0.0
 10
40.96921772935827
 20
89.50883077854967
 30
0.0
 10
42.65472622249673
 20
87.87208208475693
 30
0.0
 10
44.96844692555456
 20
86.48339439402821
 30
0.0
 10
47.7611944228906
 20
85.72664311707737
 30
0.0
 10
50.32931532462801
 20
85.52127834306319
 30
0.0
 10
52.59142599129877
 20
85.52204752994881
 30
0.0
 10
54.45908690063983
 20
85.46976462706702
 30
0.0
 10
55.77938128916772
 20
85.19706557569423
 30
0.0
 10
56.51189258098371
 20
84.78840781093518
 30
0.0
 10
57.21982685951762
 20
83.97298012047743
 30
0.0
 10
57.85197496470381
 20
82.32716249598538
 30
0.0
 10
58.06826760480956
 20
81.06244342037976
 30
0.0
 10
58.09380587213538
 20
80.04279841073377
 30
0.0
 10
57.8648556914354
 20
79.04449559588612
 30
0.0
 10
57.20530558788347
 20
77.8556027129526
 30
0.0
 10
56.08438932249997
 20
76.55853552921884
 30
0.0
 10
54.12406974647234
 20
74.68137786316024
 30
0.0
 10
51.78206595536596
 20
72.46924391437672
 30
0.0
 10
49.92685035770678
 20
69.29759747168629
 30
0.0
 10
49.30238404638995
 20
66.8423285096014
 30
0.0
 10
49.23555231461243
 20
64.79536889333538
 30
0.0
 10
49.41759297833087
 20
63.23176218482566
 30
0.0
 10
49.90034996177928
 20
61.67699102659853
 30
0.0
 10
50.85072762324196
 20
59.87154342273265
 30
0.0
 10
52.38921357834698
 20
58.03433776079703
 30
0.0
 10
54.3902089542576
 20
56.24365827403836
 30
0.0
 10
56.29147746639618
 20
54.6550899891484
 30
0.0
 10
57.83479898586646
 20
53.17351502568702
 30
0.0
 10
58.61903747302346
 20
52.05240649560694
 30
0.0
 10
58.93978912283571
 20
51.24043319318977
 30
0.0
 10
59.05681519124846
 20
50.62791605641637
 30
0.0
 10
59.04992024367057
 20
49.92941958227347
 30
0.0
 10
58.86662782740049
 20
49.00089820641014
 30
0.0
 10
58.50851967745383
 20
48.00773280974046
 30
0.0
 10
57.86889442729942
 20
46.78285552479217
 30
0.0
 10
56.77014999051966
 20
45.42158101730188
 30
0.0
 10
54.89881500476087
 20
43.83262275626176
 30
0.0
 10
52.55564894465776
 20
42.22101288812352
 30
0.0
 10
49.88591220658339
 20
40.45757882989785
 30
0.0
 10
47.78631503579077
 20
38.93336272010274
 30
0.0
 10
46.6441783720204
 20
37.97228822983438
 30
0.0
 10
46.44676484031919
 20
37.80236354637556
 30
0.0
  0
ARC
  5
82
330
1F
100
AcDbEntity
  8
0
  6
Continuous
 62
     7
370
    25
100
AcDbCircle
 10
38.6183471518
 20
46.8971904548
 30
0.0
 40
12.00000000000006
100
AcDbArc
 50
225.9163812774
 51
310.720388406
  0
SPLINE
  5
83
330
1F
100
AcDbEntity
  8
0
  6
Continuous
 62
     7
370
    25
100
AcDbSpline
210
0.0
220
0.0
230
1.0
 70
     8
 71
     3
 72
     9
 73
     5
 74
     0
 42
0.000000001
 43
0.00000001
 40
0.5028448093737987
 40
0.5028448093737987
 40
0.5028448093737987
 40
0.5028448093737987
 40
0.5400866594992736
 40
0.6341939077961548
 40
0.6341939077961548
 40
0.6341939077961548
 40
0.6341939077961548
 10
30.26985774394272
 20
38.2772876359009
 30
0.0
 10
28.08267802101143
 20
40.39560000364002
 30
0.0
 10
19.99300885535696
 20
48.3033405943646
 30
0.0
 10
13.47735536583867
 20
57.70606651760949
 30
0.0
 10
9.150957569858898
 20
62.3380418547999
 30
0.0
  0
SPLINE
  5
84
330
1F
100
AcDbEntity
  8
0
  6
Continuous
 62
     7
370
    25
100
AcDbSpline
210
0.0
220
0.0
230
1.0
 70
     8
 71
     3
 72
    29
 73
    25
 74
     0
 42
0.000000001
 43
0.00000001
 40
0.9839031821168001
 40
0.9839031821168001
 40
0.9839031821168001
 40
0.9839031821168001
 40
0.984375
 40
0.986328125
 40
0.9873046875
 40
0.98828125
 40
0.9892578125
 40
0.990234375
 40
0.9921875
 40
0.994140625
 40
0.99609375
 40
0.998046875
 40
1.0
 40
1.001953125
 40
1.00390625
 40
1.005859375
 40
1.0078125
 40
1.009765625
 40
1.0107421875
 40
1.01171875
 40
1.0126953125
 40
1.013671875
 40
1.015625
 40
1.016096817871441
 40
1.016096817871441
 40
1.016096817871441
 40
1.016096817871441
 10
9.150957567117226
 20
62.33804185223915
 30
0.0
 10
9.126440975941348
 20
62.43592774591325
 30
0.0
 10
8.989158913019033
 20
62.95384038583509
 30
0.0
 10
8.702261378382275
 20
63.78900068653729
 30
0.0
 10
8.071785616924299
 20
64.90786023581424
 30
0.0
 10
7.346603187702354
 20
65.81384200827463
 30
0.0
 10
6.494121542437848
 20
66.54925914480339
 30
0.0
 10
5.32823255231948
 20
67.26466519573492
 30
0.0
 10
3.975675477153785
 20
67.73303922244534
 30
0.0
 10
2.663266621156541
 20
67.94233271250427
 30
0.0
 10
1.591414552835396
 20
68.00252098911665
 30
0.0
 10
0.68986504891033
 20
68.0049747284117
 30
0.0
 10
-0.0000000000000046
 20
67.99751263579415
 30
0.0
 10
-0.6898650489103229
 20
68.0049747284117
 30
0.0
 10
-1.591414552835403
 20
68.00252098911668
 30
0.0
 10
-2.663266621156539
 20
67.94233271250425
 30
0.0
 10
-3.975675477153783
 20
67.73303922244537
 30
0.0
 10
-5.328232552319458
 20
67.26466519573495
 30
0.0
 10
-6.49412154243783
 20
66.54925914480343
 30
0.0
 10
-7.346603187702323
 20
65.81384200827468
 30
0.0
 10
-8.071785616924275
 20
64.90786023581427
 30
0.0
 10
-8.702261378382266
 20
63.78900068653734
 30
0.0
 10
-8.989158912027213
 20
62.9538403887223
 30
0.0
 10
-9.126440974609924
 20
62.43592775093623
 30
0.0
 10
-9.15095756528415
 20
62.33804185955799
 30
0.0
  0
SPLINE
  5
85
330
1F
100
AcDbEntity
  8
0
  6
Continuous
 62
     7
370
    25
100
AcDbSpline
210
0.0
220
0.0
230
1.0
 70
     8
 71
     3
 72
     9
 73
     5
 74
     0
 42
0.000000001
 43
0.00000001
 40
0.7722267001339603
 40
0.7722267001339603
 40
0.7722267001339603
 40
0.7722267001339603
 40
0.8663339484635071
 40
0.9035757985889861
 40
0.9035757985889861
 40
0.9035757985889861
 40
0.9035757985889861
 10
-9.150957565353771
 20
62.33804185962286
 30
0.0
 10
-13.477355362598
 20
57.70606652228571
 30
0.0
 10
-19.99300885334548
 20
48.30334059633044
 30
0.0
 10
-28.08267802101178
 20
40.39560000363998
 30
0.0
 10
-30.26985774394306
 20
38.27728763590092
 30
0.0
  0
ARC
  5
86
330
1F
100
AcDbEntity
  8
0
  6
Continuous
 62
     7
370
    25
100
AcDbCircle
 10
-38.6183471518
 20
46.8971904548
 30
0.0
 40
12.00000000000001
100
AcDbArc
 50
229.279611594
 51
314.0836187226
  0
SPLINE
  5
87
330
1F
100
AcDbEntity
  8
0
  6
Continuous
 62
     7
370
    25
100
AcDbSpline
210
0.0
220
0.0
230
1.0
 70
     8
 71
     3
 72
    99
 73
    95
 74
     0
 42
0.000000001
 43
0.00000001
 40
0.0
 40
0.0
 40
0.0
 40
0.0
 40
0.00390625
 40
0.0078125
 40
0.015625
 40
0.0234375
 40
0.03125
 40
0.0390625
 40
0.046875
 40
0.05078125
 40
0.0546875
 40
0.05859375
 40
0.0625
 40
0.0703125
 40
0.078125
 40
0.0859375
 40
0.09375
 40
0.1015625
 40
0.109375
 40
0.11328125
 40
0.1171875
 40
0.125
 40
0.1328125
 40
0.140625
 40
0.1484375
 40
0.15625
 40
0.1640625
 40
0.171875
 40
0.1796875
 40
0.1875
 40
0.1953125
 40
0.203125
 40
0.21875
 40
0.234375
 40
0.2421875
 40
0.25
 40
0.2578125
 40
0.265625
 40
0.2734375
 40
0.28125
 40
0.2890625
 40
0.29296875
 40
0.296875
 40
0.3046875
 40
0.3125
 40
0.3203125
 40
0.328125
 40
0.34375
 40
0.359375
 40
0.3671875
 40
0.375
 40
0.3828125
 40
0.390625
 40
0.3984375
 40
0.40625
 40
0.421875
 40
0.4375
 40
0.453125
 40
0.46875
 40
0.484375
 40
0.5
 40
0.515625
 40
0.53125
 40
0.546875
 40
0.5546875
 40
0.5625
 40
0.578125
 40
0.59375
 40
0.609375
 40
0.625
 40
0.65625
 40
0.671875
 40
0.6875
 40
0.6953125
 40
0.703125
 40
0.7109375
 40
0.71875
 40
0.734375
 40
0.75
 40
0.765625
 40
0.78125
 40
0.796875
 40
0.8046875
 40
0.8125
 40
0.8203125
 40
0.828125
 40
0.8359375
 40
0.84375
 40
0.859375
 40
0.875
 40
0.890625
 40
0.90625
 40
0.921875
 40
0.9251525654589519
 40
0.9251525654589519
 40
0.9251525654589519
 40
0.9251525654589519
 10
-2.500011810442136
 20
170.0076845345462
 30
0.0
 10
-2.497605855306617
 20
169.2249618611741
 30
0.0
 10
-2.493935719695583
 20
167.6336484300034
 30
0.0
 10
-2.495540009159583
 20
164.6579193715086
 30
0.0
 10
-2.520301158263001
 20
161.174535497468
 30
0.0
 10
-2.607507139935705
 20
157.3939767555684
 30
0.0
 10
-2.774172871309216
 20
153.9758811146259
 30
0.0
 10
-3.043728683222727
 20
150.8931852098879
 30
0.0
 10
-3.377894635162622
 20
148.5855132723728
 30
0.0
 10
-3.725397070575618
 20
146.8629352797782
 30
0.0
 10
-4.083951733223139
 20
145.5419817328377
 30
0.0
 10
-4.613845819533269
 20
144.1898598426469
 30
0.0
 10
-5.567521664000166
 20
142.481798613543
 30
0.0
 10
-7.030524072332441
 20
140.6290477162056
 30
0.0
 10
-9.00831735222012
 20
138.6193560946198
 30
0.0
 10
-11.0426043689976
 20
136.6921918640223
 30
0.0
 10
-12.98618599455006
 20
134.7429496847577
 30
0.0
 10
-14.67397689975517
 20
132.7309500483919
 30
0.0
 10
-15.81269278766887
 20
130.8905753272452
 30
0.0
 10
-16.46993347565417
 20
129.4793175834733
 30
0.0
 10
-16.91534293067477
 20
128.2046710564111
 30
0.0
 10
-17.17168659286018
 20
126.739888832481
 30
0.0
 10
-17.15530384793271
 20
125.0580450920199
 30
0.0
 10
-16.91703109173204
 20
123.3477305932702
 30
0.0
 10
-16.57161967413405
 20
121.5563206392793
 30
0.0
 10
-16.27976791584758
 20
119.6187904228814
 30
0.0
 10
-16.29655750232678
 20
117.4326612931447
 30
0.0
 10
-17.01481789808221
 20
115.0634304198485
 30
0.0
 10
-18.66912728401489
 20
112.9023988637462
 30
0.0
 10
-20.82669315441283
 20
111.2157215767203
 30
0.0
 10
-23.22622271633343
 20
109.9014592494179
 30
0.0
 10
-26.44522290707397
 20
108.9452641390602
 30
0.0
 10
-30.10365552271167
 20
109.2301004880955
 30
0.0
 10
-32.88174125045168
 20
110.3141685692576
 30
0.0
 10
-34.71822211575905
 20
111.0370455901967
 30
0.0
 10
-35.90564226450603
 20
111.4173267860813
 30
0.0
 10
-36.89281969949513
 20
111.5781246878129
 30
0.0
 10
-37.73860127166117
 20
111.5280789963242
 30
0.0
 10
-38.62827630202907
 20
111.2549378727102
 30
0.0
 10
-39.86957144468733
 20
110.4876943462966
 30
0.0
 10
-40.8522580035768
 20
109.5821487154537
 30
0.0
 10
-41.42957971993138
 20
108.8713380964061
 30
0.0
 10
-41.82611013651934
 20
108.241068016234
 30
0.0
 10
-42.09889501088659
 20
107.5193985967913
 30
0.0
 10
-42.20152604644622
 20
106.6248094012067
 30
0.0
 10
-42.09609277031466
 20
105.5738190882226
 30
0.0
 10
-41.66697106194606
 20
103.9554203259435
 30
0.0
 10
-40.6708472112415
 20
101.6230050809801
 30
0.0
 10
-39.52067955397762
 20
99.04515307466163
 30
0.0
 10
-38.88154400356154
 20
96.74658784165469
 30
0.0
 10
-38.67444581771068
 20
94.86528784095073
 30
0.0
 10
-39.00365721028202
 20
92.77959443396031
 30
0.0
 10
-39.8596761731916
 20
90.9941254982367
 30
0.0
 10
-40.96921772935827
 20
89.50883077854967
 30
0.0
 10
-42.65472622249673
 20
87.87208208475693
 30
0.0
 10
-44.96844692555456
 20
86.48339439402821
 30
0.0
 10
-47.7611944228906
 20
85.72664311707737
 30
0.0
 10
-50.32931532462801
 20
85.52127834306319
 30
0.0
 10
-52.59142599129877
 20
85.52204752994881
 30
0.0
 10
-54.45908690063983
 20
85.46976462706702
 30
0.0
 10
-55.77938128916772
 20
85.19706557569423
 30
0.0
 10
-56.51189258098371
 20
84.78840781093518
 30
0.0
 10
-57.21982685951762
 20
83.97298012047743
 30
0.0
 10
-57.85197496470381
 20
82.32716249598538
 30
0.0
 10
-58.06826760480956
 20
81.06244342037976
 30
0.0
 10
-58.09380587213538
 20
80.04279841073377
 30
0.0
 10
-57.8648556914354
 20
79.04449559588612
 30
0.0
 10
-57.20530558788347
 20
77.8556027129526
 30
0.0
 10
-56.08438932249997
 20
76.55853552921884
 30
0.0
 10
-54.12406974647234
 20
74.68137786316024
 30
0.0
 10
-51.78206595536596
 20
72.46924391437672
 30
0.0
 10
-49.92685035770678
 20
69.29759747168629
 30
0.0
 10
-49.30238404638995
 20
66.8423285096014
 30
0.0
 10
-49.23555231461243
 20
64.79536889333538
 30
0.0
 10
-49.41759297833087
 20
63.23176218482566
 30
0.0
 10
-49.90034996177928
 20
61.67699102659853
 30
0.0
 10
-50.85072762324196
 20
59.87154342273265
 30
0.0
 10
-52.38921357834698
 20
58.03433776079703
 30
0.0
 10
-54.3902089542576
 20
56.24365827403836
 30
0.0
 10
-56.29147746639618
 20
54.6550899891484
 30
0.0
 10
-57.83479898586646
 20
53.17351502568702
 30
0.0
 10
-58.61903747302346
 20
52.05240649560694
 30
0.0
 10
-58.93978912283571
 20
51.24043319318977
 30
0.0
 10
-59.05681519124846
 20
50.62791605641637
 30
0.0
 10
-59.04992024367057
 20
49.92941958227347
 30
0.0
 10
-58.86662782740049
 20
49.00089820641014
 30
0.0
 10
-58.50851967745383
 20
48.00773280974046
 30
0.0
 10
-57.86889442729942
 20
46.78285552479217
 30
0.0
 10
-56.77014999051966
 20
45.42158101730188
 30
0.0
 10
-54.89881500476087
 20
43.83262275626176
 30
0.0
 10
-52.55564894465776
 20
42.22101288812352
 30
0.0
 10
-49.88591220658339
 20
40.45757882989785
 30
0.0
 10
-47.7863150357908
 20
38.93336272010276
 30
0.0
 10
-46.64417837202045
 20
37.97228822983442
 30
0.0
 10
-46.44676484031926
 20
37.80236354637563
 30
0.0
  0
LINE
  5
88
330
1F
100
AcDbEntity
  8
0
  6
Continuous
 62
     7
370
    25
100
AcDbLine
 10
-7.4999881896
 20
169.9923154655
 30
0.0
 11
-2.5000118104
 21
170.0076845345
 31
0.0
  0
SPLINE
  5
89
330
1F
100
AcDbEntity
  8
0
  6
Continuous
 62
     7
370
    25
100
AcDbSpline
210
0.0
220
0.0
230
1.0
 70
     8
 71
     3
 72
    98
 73
    94
 74
     0
 42
0.000000001
 43
0.00000001
 40
0.0143729027620833
 40
0.0143729027620833
 40
0.0143729027620833
 40
0.0143729027620833
 40
0.015625
 40
0.03125
 40
0.046875
 40
0.0625
 40
0.078125
 40
0.09375
 40
0.109375
 40
0.125
 40
0.140625
 40
0.15625
 40
0.1640625
 40
0.171875
 40
0.1796875
 40
0.1875
 40
0.203125
 40
0.21875
 40
0.234375
 40
0.25
 40
0.265625
 40
0.28125
 40
0.2890625
 40
0.296875
 40
0.3125
 40
0.3203125
 40
0.328125
 40
0.34375
 40
0.359375
 40
0.375
 40
0.390625
 40
0.40625
 40
0.421875
 40
0.4375
 40
0.453125
 40
0.46875
 40
0.484375
 40
0.5
 40
0.515625
 40
0.53125
 40
0.546875
 40
0.5625
 40
0.578125
 40
0.59375
 40
0.6015625
 40
0.609375
 40
0.6171875
 40
0.625
 40
0.6328125
 40
0.640625
 40
0.65625
 40
0.671875
 40
0.6875
 40
0.6953125
 40
0.703125
 40
0.7109375
 40
0.71875
 40
0.7265625
 40
0.734375
 40
0.7421875
 40
0.75
 40
0.765625
 40
0.7734375
 40
0.78125
 40
0.7890625
 40
0.796875
 40
0.8046875
 40
0.8125
 40
0.8203125
 40
0.828125
 40
0.8359375
 40
0.84375
 40
0.8515625
 40
0.859375
 40
0.875
 40
0.8828125
 40
0.890625
 40
0.8984375
 40
0.90625
 40
0.9140625
 40
0.921875
 40
0.9296875
 40
0.9375
 40
0.9453125
 40
0.94921875
 40
0.953125
 40
0.9609375
 40
0.96875
 40
0.9765625
 40
0.984375
 40
0.9921875
 40
0.99609375
 40
1.0
 40
1.0
 40
1.0
 40
1.0
 10
-41.05371023900751
 20
24.61087197374189
 30
0.0
 10
-41.10634729623856
 20
24.66911772175159
 30
0.0
 10
-41.81783075500492
 20
25.46037141542535
 30
0.0
 10
-43.23685044809813
 20
27.13336646769248
 30
0.0
 10
-45.45330641651952
 20
29.74467500291925
 30
0.0
 10
-47.80583237754451
 20
32.30922550621344
 30
0.0
 10
-50.17724746213729
 20
34.48462221481445
 30
0.0
 10
-52.69752359515846
 20
36.32159064990381
 30
0.0
 10
-55.29775817090535
 20
38.04035481182455
 30
0.0
 10
-57.86752014792176
 20
39.80190298672124
 30
0.0
 10
-60.29047533156957
 20
41.82867542417635
 30
0.0
 10
-62.03501185327187
 20
43.9524088820475
 30
0.0
 10
-63.1038644984236
 20
45.9980485799914
 30
0.0
 10
-63.6883275082531
 20
47.62156231726607
 30
0.0
 10
-64.03963629764078
 20
49.30686312563656
 30
0.0
 10
-64.09047419454157
 20
51.63400631839626
 30
0.0
 10
-63.26821738581781
 20
54.22403403319996
 30
0.0
 10
-61.52968438902955
 20
56.57788863623852
 30
0.0
 10
-59.55319303955254
 20
58.44672922933977
 30
0.0
 10
-57.60136694706415
 20
60.07544081033473
 30
0.0
 10
-55.92735028413485
 20
61.58921471968519
 30
0.0
 10
-54.97802198656939
 20
62.76299436455845
 30
0.0
 10
-54.53613958708679
 20
63.62664695671437
 30
0.0
 10
-54.27876998074259
 20
64.44635261679502
 30
0.0
 10
-54.22697387721453
 20
65.54079712631511
 30
0.0
 10
-54.41844056369546
 20
66.61716335279118
 30
0.0
 10
-54.73167844599643
 20
67.5737654694278
 30
0.0
 10
-55.36947195913742
 20
68.70005418870151
 30
0.0
 10
-56.53738168432216
 20
70.06880591416035
 30
0.0
 10
-58.01277346658556
 20
71.48774536252517
 30
0.0
 10
-59.63795842972434
 20
73.03335914674008
 30
0.0
 10
-61.23926664991031
 20
74.84873678308368
 30
0.0
 10
-62.57517816802755
 20
77.14282702254997
 30
0.0
 10
-63.23691462317777
 20
80.01462726744919
 30
0.0
 10
-62.86088986390051
 20
83.21697904298836
 30
0.0
 10
-61.78038628694421
 20
86.22022903966364
 30
0.0
 10
-59.83459913048174
 20
88.74141616884657
 30
0.0
 10
-57.29078443810292
 20
90.05245998190524
 30
0.0
 10
-54.83340697696914
 20
90.46912762922312
 30
0.0
 10
-52.56090555111032
 20
90.52101086028071
 30
0.0
 10
-50.45460978599072
 20
90.52368640889303
 30
0.0
 10
-48.56116581602195
 20
90.69112715259831
 30
0.0
 10
-46.93552757848379
 20
91.15256045673641
 30
0.0
 10
-45.71198497378015
 20
91.88265734890956
 30
0.0
 10
-44.73084586934056
 20
92.8329351577657
 30
0.0
 10
-44.14842158185996
 20
93.62381772339934
 30
0.0
 10
-43.82350926483348
 20
94.35212035469056
 30
0.0
 10
-43.73692290908163
 20
94.90579241195125
 30
0.0
 10
-43.80256886688181
 20
95.75554756271082
 30
0.0
 10
-44.19491666272071
 20
97.2095565326439
 30
0.0
 10
-45.18719800008773
 20
99.49688985370871
 30
0.0
 10
-46.58909944950877
 20
102.7008032094561
 30
0.0
 10
-47.31385136637461
 20
105.8615826393655
 30
0.0
 10
-47.01779290978171
 20
108.7005567011321
 30
0.0
 10
-46.19933526552061
 20
110.8390144813621
 30
0.0
 10
-44.74751523084861
 20
112.8129392901722
 30
0.0
 10
-42.94375742999873
 20
114.4568867586317
 30
0.0
 10
-40.8910651481213
 20
115.7703901874283
 30
0.0
 10
-38.66236456407729
 20
116.5104234251031
 30
0.0
 10
-36.53136790848768
 20
116.6066795408243
 30
0.0
 10
-33.99469025531449
 20
116.1534865177733
 30
0.0
 10
-31.92447755202273
 20
115.3007181735093
 30
0.0
 10
-30.10722202269097
 20
114.607909382183
 30
0.0
 10
-28.85384787899617
 20
114.2422196358356
 30
0.0
 10
-27.68855613638685
 20
114.0822087577221
 30
0.0
 10
-26.52636362947482
 20
114.1540642333451
 30
0.0
 10
-25.23082517620754
 20
114.5225039800263
 30
0.0
 10
-23.59467993718069
 20
115.3979579862127
 30
0.0
 10
-22.14189591637943
 20
116.5747997946344
 30
0.0
 10
-21.54496969388451
 20
117.4287569495804
 30
0.0
 10
-21.3197864771533
 20
118.1393425843996
 30
0.0
 10
-21.27889877915586
 20
119.1728268610805
 30
0.0
 10
-21.48493395714483
 20
120.6306163472153
 30
0.0
 10
-21.9552896408661
 20
123.0608238946341
 30
0.0
 10
-22.34687901603152
 20
126.1978710704835
 30
0.0
 10
-21.70336457772746
 20
129.9158618798974
 30
0.0
 10
-20.48557581889311
 20
132.864582475678
 30
0.0
 10
-18.72527729615763
 20
135.6863184255886
 30
0.0
 10
-16.63929631499098
 20
138.1675216858791
 30
0.0
 10
-14.49801998954773
 20
140.305328035545
 30
0.0
 10
-12.46936375701886
 20
142.2292465073594
 30
0.0
 10
-10.74182822646386
 20
143.9899403103169
 30
0.0
 10
-9.477545700426502
 20
145.6319407627396
 30
0.0
 10
-8.931147213075628
 20
146.793898741189
 30
0.0
 10
-8.602420508534543
 20
147.9796699350703
 30
0.0
 10
-8.31348093897357
 20
149.4022628955778
 30
0.0
 10
-8.015314612111746
 20
151.4479181435196
 30
0.0
 10
-7.76500141368566
 20
154.29788063386
 30
0.0
 10
-7.605205527844188
 20
157.5611083914904
 30
0.0
 10
-7.520054545993178
 20
161.2409504087194
 30
0.0
 10
-7.495537591372789
 20
164.6758356375096
 30
0.0
 10
-7.493937864640486
 20
167.6274338889184
 30
0.0
 10
-7.497593280327721
 20
169.2131863256672
 30
0.0
 10
-7.499988189557866
 20
169.9923154654544
 30
0.0
  0
SPLINE
  5
8A
330
1F
100
AcDbEntity
  8
0
  6
Continuous
 62
     7
370
    25
100
AcDbSpline
210
0.0
220
0.0
230
1.0
 70
     8
 71
     3
 72
     8
 73
     4
 74
     0
 42
0.000000001
 43
0.00000001
 40
0.9980017762262485
 40
0.9980017762262485
 40
0.9980017762262485
 40
0.9980017762262485
 40
1.0
 40
1.0
 40
1.0
 40
1.0
 10
-41.05371023414132
 20
24.61087197813989
 30
0.0
 10
-41.06169828860091
 20
24.53214206987113
 30
0.0
 10
-41.06767860057975
 20
24.45379492368756
 30
0.0
 10
-41.07161517157445
 20
24.37583109756159
 30
0.0
  0
SPLINE
  5
8B
330
1F
100
AcDbEntity
  8
0
  6
Continuous
 62
     7
370
    25
100
AcDbSpline
210
0.0
220
0.0
230
1.0
 70
    11
 71
     3
 72
    27
 73
    23
 74
     0
 42
0.000000001
 43
0.00000001
 40
0.0
 40
0.0
 40
0.0
 40
0.0
 40
0.0120286034633262
 40
0.0193874883079953
 40
0.066377658474068
 40
0.095784614702608
 40
0.1236650830723985
 40
0.1844741119114328
 40
0.2606407820249133
 40
0.3545467823173052
 40
0.4425229420098307
 40
0.4999999999999999
 40
0.5574770579901693
 40
0.6454532176826948
 40
0.7393592179750866
 40
0.8155258880885672
 40
0.8763349169276016
 40
0.904215385297392
 40
0.933622341525932
 40
0.9806125116920048
 40
0.9879713965366739
 40
1.0
 40
1.0
 40
1.0
 40
1.0
 10
-0.0000000000000077
 20
63.0
 30
0.0
 10
-1.526520890270529
 20
63.0
 30
0.0
 10
-3.986940007274676
 20
63.15948151420184
 30
0.0
 10
-5.34619617418684
 20
55.27462007778994
 30
0.0
 10
-4.149353372585678
 20
46.81019566761893
 30
0.0
 10
-10.24271656874441
 20
36.15196923462492
 30
0.0
 10
-22.37027006937344
 20
31.93643442184342
 30
0.0
 10
-39.51085416655695
 20
23.94808279610379
 30
0.0
 10
-45.00789679821537
 20
-1.712817306335645
 30
0.0
 10
-46.72215447756822
 20
-32.3508626114132
 30
0.0
 10
-21.10234368127349
 20
-45.68813574468696
 30
0.0
 10
0.0000000000000266
 20
-51.70386929761164
 30
0.0
 10
21.10234368127347
 20
-45.68813574468697
 30
0.0
 10
46.72215447756823
 20
-32.35086261141319
 30
0.0
 10
45.00789679821537
 20
-1.71281730633563
 30
0.0
 10
39.51085416655692
 20
23.94808279610381
 30
0.0
 10
22.37027006937349
 20
31.9364344218434
 30
0.0
 10
10.24271656874437
 20
36.15196923462494
 30
0.0
 10
4.149353372585685
 20
46.8101956676189
 30
0.0
 10
5.346196174186819
 20
55.27462007778995
 30
0.0
 10
3.986940007274669
 20
63.15948151420182
 30
0.0
 10
1.526520890270503
 20
63.0
 30
0.0
 10
-0.0000000000000077
 20
63.0
 30
0.0
  0
MTEXT
  5
8D
330
1F
100
AcDbEntity
  8
0
  6
Continuous
 62
     7
100
AcDbMText
 10
-64.0454778317
 20
-176.682716411
 30
0.0
 40
4.83362
 41
0.0
 71
     1
 72
     1
  1
SOLIDWORKS Educational Product.
  7
SLDTEXTSTYLE0
 73
     1
 44
1.0
  0
MTEXT
  5
8E
330
1F
100
AcDbEntity
  8
0
  6
Continuous
 62
     7
100
AcDbMText
 10
-64.0454778317
 20
-183.933146411
 30
0.0
 40
4.83362
 41
0.0
 71
     1
 72
     1
  1
For Instructional Use Only.
  7
SLDTEXTSTYLE0
 73
     1
 44
1.0
  0
ENDSEC
  0
SECTION
  2
OBJECTS
  0
DICTIONARY
  5
C
330
0
100
AcDbDictionary
281
     1
  3
ACAD_GROUP
350
D
  3
ACAD_LAYOUT
350
1A
  3
ACAD_MLINESTYLE
350
17
  3
ACAD_PLOTSETTINGS
350
19
  3
ACAD_PLOTSTYLENAME
350
E
  3
ACAD_SCALELIST
350
47
  0
DICTIONARY
  5
D
102
{ACAD_REACTORS
330
C
102
}
330
C
100
AcDbDictionary
281
     1
  0
DICTIONARY
  5
1A
102
{ACAD_REACTORS
330
C
102
}
330
C
100
AcDbDictionary
281
     1
  3
Layout1
350
1E
  3
Layout2
350
26
  3
Model
350
22
  0
DICTIONARY
  5
17
102
{ACAD_REACTORS
330
C
102
}
330
C
100
AcDbDictionary
281
     1
  3
Standard
350
18
  0
DICTIONARY
  5
19
102
{ACAD_REACTORS
330
C
102
}
330
C
100
AcDbDictionary
281
     1
  0
ACDBDICTIONARYWDFLT
  5
E
102
{ACAD_REACTORS
330
C
102
}
330
C
100
AcDbDictionary
281
     1
  3
Normal
350
F
100
AcDbDictionaryWithDefault
340
F
  0
DICTIONARY
  5
47
102
{ACAD_REACTORS
330
C
102
}
330
C
100
AcDbDictionary
281
     1
  3
A0
350
48
  3
A1
350
49
  3
A2
350
4A
  3
A3
350
4B
  3
A4
350
4C
  3
A5
350
4D
  3
A6
350
4E
  3
A7
350
4F
  3
A8
350
50
  3
A9
350
51
  3
B0
350
52
  3
B1
350
53
  3
B2
350
54
  3
B3
350
55
  3
B4
350
56
  3
B5
350
57
  3
B6
350
58
  3
B7
350
59
  3
B8
350
5A
  3
B9
350
5B
  3
C0
350
5C
  3
C1
350
5D
  3
C2
350
5E
  3
C3
350
5F
  3
C4
350
60
  3
C5
350
61
  3
C6
350
62
  3
C7
350
63
  3
C8
350
64
  3
C9
350
65
  3
D0
350
66
  3
D1
350
67
  3
D2
350
68
  0
LAYOUT
  5
1E
102
{ACAD_REACTORS
330
1A
102
}
330
1A
100
AcDbPlotSettings
  1

  2
none_device
  4

  6

 40
0.0
 41
0.0
 42
0.0
 43
0.0
 44
0.0
 45
0.0
 46
0.0
 47
0.0
 48
0.0
 49
0.0
140
0.0
141
0.0
142
1.0
143
1.0
 70
   688
 72
     1
 73
     0
 74
     5
  7

 75
    16
147
1.0
148
0.0
149
0.0
100
AcDbLayout
  1
Layout1
 70
     1
 71
     1
 10
0.0
 20
0.0
 11
420.0
 21
297.0
 12
0.0
 22
0.0
 32
0.0
 14
1.0000000000E+20
 24
1.0000000000E+20
 34
1.0000000000E+20
 15
-1.0000000000E+20
 25
-1.0000000000E+20
 35
-1.0000000000E+20
146
0.0
 13
0.0
 23
0.0
 33
0.0
 16
1.0
 26
0.0
 36
0.0
 17
0.0
 27
1.0
 37
0.0
 76
     0
330
1B
  0
LAYOUT
  5
26
102
{ACAD_REACTORS
330
1A
102
}
330
1A
100
AcDbPlotSettings
  1

  2
none_device
  4

  6

 40
0.0
 41
0.0
 42
0.0
 43
0.0
 44
0.0
 45
0.0
 46
0.0
 47
0.0
 48
0.0
 49
0.0
140
0.0
141
0.0
142
1.0
143
1.0
 70
   688
 72
     1
 73
     0
 74
     5
  7

 75
    16
147
1.0
148
0.0
149
0.0
100
AcDbLayout
  1
Layout2
 70
     1
 71
     2
 10
0.0
 20
0.0
 11
0.0
 21
0.0
 12
0.0
 22
0.0
 32
0.0
 14
0.0
 24
0.0
 34
0.0
 15
0.0
 25
0.0
 35
0.0
146
0.0
 13
0.0
 23
0.0
 33
0.0
 16
1.0
 26
0.0
 36
0.0
 17
0.0
 27
1.0
 37
0.0
 76
     0
330
23
  0
LAYOUT
  5
22
102
{ACAD_REACTORS
330
1A
102
}
330
1A
100
AcDbPlotSettings
  1

  2
none_device
  4
ANSI_A_(11.00_x_8.50_Inches)
  6

 40
6.35
 41
19.05
 42
6.35000508
 43
19.05000254
 44
279.4
 45
215.9
 46
133.34999746
 47
90.6484899641
 48
0.0
 49
0.0
140
0.0
141
0.0
142
0.0243439688
143
1.0
 70
  1696
 72
     0
 73
     0
 74
     0
  7

 75
     0
147
0.0179189148
148
-1300.4909072572
149
0.0
100
AcDbLayout
  1
Model
 70
     1
 71
     0
 10
0.0
 20
0.0
 11
420.0
 21
297.0
 12
0.0
 22
0.0
 32
0.0
 14
-64.0454778317
 24
-175.6631500193
 34
0.0
 15
64.0454778316
 25
170.0076845345
 35
0.0
146
0.0
 13
0.0
 23
0.0
 33
0.0
 16
1.0
 26
0.0
 36
0.0
 17
0.0
 27
1.0
 37
0.0
 76
     0
330
1F
331
29
  0
MLINESTYLE
  5
18
102
{ACAD_REACTORS
330
17
102
}
330
17
100
AcDbMlineStyle
  2
Standard
 70
     0
  3

 62
   256
 51
90.0
 52
90.0
 71
     2
 49
0.5
 62
   256
  6
BYLAYER
 49
-0.5
 62
   256
  6
BYLAYER
  0
ACDBPLACEHOLDER
  5
F
102
{ACAD_REACTORS
330
E
102
}
330
E
  0
SCALE
  5
48
102
{ACAD_REACTORS
330
47
102
}
330
47
100
AcDbScale
 70
     0
300
1:1
140
1.0
141
1.0
290
     1
  0
SCALE
  5
49
102
{ACAD_REACTORS
330
47
102
}
330
47
100
AcDbScale
 70
     0
300
1:2
140
1.0
141
2.0
290
     0
  0
SCALE
  5
4A
102
{ACAD_REACTORS
330
47
102
}
330
47
100
AcDbScale
 70
     0
300
1:4
140
1.0
141
4.0
290
     0
  0
SCALE
  5
4B
102
{ACAD_REACTORS
330
47
102
}
330
47
100
AcDbScale
 70
     0
300
1:5
140
1.0
141
5.0
290
     0
  0
SCALE
  5
4C
102
{ACAD_REACTORS
330
47
102
}
330
47
100
AcDbScale
 70
     0
300
1:8
140
1.0
141
8.0
290
     0
  0
SCALE
  5
4D
102
{ACAD_REACTORS
330
47
102
}
330
47
100
AcDbScale
 70
     0
300
1:10
140
1.0
141
10.0
290
     0
  0
SCALE
  5
4E
102
{ACAD_REACTORS
330
47
102
}
330
47
100
AcDbScale
 70
     0
300
1:16
140
1.0
141
16.0
290
     0
  0
SCALE
  5
4F
102
{ACAD_REACTORS
330
47
102
}
330
47
100
AcDbScale
 70
     0
300
1:20
140
1.0
141
20.0
290
     0
  0
SCALE
  5
50
102
{ACAD_REACTORS
330
47
102
}
330
47
100
AcDbScale
 70
     0
300
1:30
140
1.0
141
30.0
290
     0
  0
SCALE
  5
51
102
{ACAD_REACTORS
330
47
102
}
330
47
100
AcDbScale
 70
     0
300
1:40
140
1.0
141
40.0
290
     0
  0
SCALE
  5
52
102
{ACAD_REACTORS
330
47
102
}
330
47
100
AcDbScale
 70
     0
300
1:50
140
1.0
141
50.0
290
     0
  0
SCALE
  5
53
102
{ACAD_REACTORS
330
47
102
}
330
47
100
AcDbScale
 70
     0
300
1:100
140
1.0
141
100.0
290
     0
  0
SCALE
  5
54
102
{ACAD_REACTORS
330
47
102
}
330
47
100
AcDbScale
 70
     0
300
2:1
140
2.0
141
1.0
290
     0
  0
SCALE
  5
55
102
{ACAD_REACTORS
330
47
102
}
330
47
100
AcDbScale
 70
     0
300
4:1
140
4.0
141
1.0
290
     0
  0
SCALE
  5
56
102
{ACAD_REACTORS
330
47
102
}
330
47
100
AcDbScale
 70
     0
300
8:1
140
8.0
141
1.0
290
     0
  0
SCALE
  5
57
102
{ACAD_REACTORS
330
47
102
}
330
47
100
AcDbScale
 70
     0
300
10:1
140
10.0
141
1.0
290
     0
  0
SCALE
  5
58
102
{ACAD_REACTORS
330
47
102
}
330
47
100
AcDbScale
 70
     0
300
100:1
140
100.0
141
1.0
290
     0
  0
SCALE
  5
59
102
{ACAD_REACTORS
330
47
102
}
330
47
100
AcDbScale
 70
     0
300
1/128" = 1'-0"
140
0.0078125
141
12.0
290
     0
  0
SCALE
  5
5A
102
{ACAD_REACTORS
330
47
102
}
330
47
100
AcDbScale
 70
     0
300
1/64" = 1'-0"
140
0.015625
141
12.0
290
     0
  0
SCALE
  5
5B
102
{ACAD_REACTORS
330
47
102
}
330
47
100
AcDbScale
 70
     0
300
1/32" = 1'-0"
140
0.03125
141
12.0
290
     0
  0
SCALE
  5
5C
102
{ACAD_REACTORS
330
47
102
}
330
47
100
AcDbScale
 70
     0
300
1/16" = 1'-0"
140
0.0625
141
12.0
290
     0
  0
SCALE
  5
5D
102
{ACAD_REACTORS
330
47
102
}
330
47
100
AcDbScale
 70
     0
300
3/32" = 1'-0"
140
0.09375
141
12.0
290
     0
  0
SCALE
  5
5E
102
{ACAD_REACTORS
330
47
102
}
330
47
100
AcDbScale
 70
     0
300
1/8" = 1'-0"
140
0.125
141
12.0
290
     0
  0
SCALE
  5
5F
102
{ACAD_REACTORS
330
47
102
}
330
47
100
AcDbScale
 70
     0
300
3/16" = 1'-0"
140
0.1875
141
12.0
290
     0
  0
SCALE
  5
60
102
{ACAD_REACTORS
330
47
102
}
330
47
100
AcDbScale
 70
     0
300
1/4" = 1'-0"
140
0.25
141
12.0
290
     0
  0
SCALE
  5
61
102
{ACAD_REACTORS
330
47
102
}
330
47
100
AcDbScale
 70
     0
300
3/8" = 1'-0"
140
0.375
141
12.0
290
     0
  0
SCALE
  5
62
102
{ACAD_REACTORS
330
47
102
}
330
47
100
AcDbScale
 70
     0
300
1/2" = 1'-0"
140
0.5
141
12.0
290
     0
  0
SCALE
  5
63
102
{ACAD_REACTORS
330
47
102
}
330
47
100
AcDbScale
 70
     0
300
3/4" = 1'-0"
140
0.75
141
12.0
290
     0
  0
SCALE
  5
64
102
{ACAD_REACTORS
330
47
102
}
330
47
100
AcDbScale
 70
     0
300
1" = 1'-0"
140
1.0
141
12.0
290
     0
  0
SCALE
  5
65
102
{ACAD_REACTORS
330
47
102
}
330
47
100
AcDbScale
 70
     0
300
1-1/2" = 1'-0"
140
1.5
141
12.0
290
     0
  0
SCALE
  5
66
102
{ACAD_REACTORS
330
47
102
}
330
47
100
AcDbScale
 70
     0
300
3" = 1'-0"
140
3.0
141
12.0
290
     0
  0
SCALE
  5
67
102
{ACAD_REACTORS
330
47
102
}
330
47
100
AcDbScale
 70
     0
300
6" = 1'-0"
140
6.0
141
12.0
290
     0
  0
SCALE
  5
68
102
{ACAD_REACTORS
330
47
102
}
330
47
100
AcDbScale
 70
     0
300
1'-0" = 1'-0"
140
12.0
141
12.0
290
     0
  0
ENDSEC
  0
EOF
