  0
SECTION
  2
HEADER
  9
$ACADVER
  1
AC1015
  9
$ACADMAINTVER
 70
     6
  9
$DWGCODEPAGE
  3
ANSI_1252
  9
$INSBASE
 10
0.0
 20
0.0
 30
0.0
  9
$EXTMIN
 10
-124.0775319783
 20
-51.8745430448
 30
0.0
  9
$EXTMAX
 10
124.0775319783
 20
108.75
 30
0.0
  9
$LIMMIN
 10
0.0
 20
0.0
  9
$LIMMAX
 10
420.0
 20
297.0
  9
$ORTHOMODE
 70
     0
  9
$REGENMODE
 70
     1
  9
$FILLMODE
 70
     1
  9
$QTEXTMODE
 70
     0
  9
$MIRRTEXT
 70
     1
  9
$LTSCALE
 40
1.0
  9
$ATTMODE
 70
     1
  9
$TEXTSIZE
 40
3.5
  9
$TRACEWID
 40
1.0
  9
$TEXTSTYLE
  7
Standard
  9
$CLAYER
  8
0
  9
$CELTYPE
  6
ByLayer
  9
$CECOLOR
 62
   256
  9
$CELTSCALE
 40
1.0
  9
$DISPSILH
 70
     0
  9
$DIMSCALE
 40
1.0
  9
$DIMASZ
 40
3.302
  9
$DIMEXO
 40
1.0
  9
$DIMDLI
 40
3.75
  9
$DIMRND
 40
0.0
  9
$DIMDLE
 40
0.0
  9
$DIMEXE
 40
1.0
  9
$DIMTP
 40
0.0
  9
$DIMTM
 40
0.0
  9
$DIMTXT
 40
3.5
  9
$DIMCEN
 40
2.5
  9
$DIMTSZ
 40
0.0
  9
$DIMTOL
 70
     0
  9
$DIMLIM
 70
     0
  9
$DIMTIH
 70
     1
  9
$DIMTOH
 70
     1
  9
$DIMSE1
 70
     0
  9
$DIMSE2
 70
     0
  9
$DIMTAD
 70
     1
  9
$DIMZIN
 70
     1
  9
$DIMBLK
  1

  9
$DIMASO
 70
     1
  9
$DIMSHO
 70
     1
  9
$DIMPOST
  1

  9
$DIMAPOST
  1

  9
$DIMALT
 70
     0
  9
$DIMALTD
 70
     3
  9
$DIMALTF
 40
0.0393700787
  9
$DIMLFAC
 40
1.0
  9
$DIMTOFL
 70
     1
  9
$DIMTVP
 40
0.0
  9
$DIMTIX
 70
     0
  9
$DIMSOXD
 70
     0
  9
$DIMSAH
 70
     0
  9
$DIMBLK1
  1

  9
$DIMBLK2
  1

  9
$DIMSTYLE
  2
ISO-25
  9
$DIMCLRD
 70
     0
  9
$DIMCLRE
 70
     0
  9
$DIMCLRT
 70
     0
  9
$DIMTFAC
 40
1.0
  9
$DIMGAP
 40
1.524
  9
$DIMJUST
 70
     0
  9
$DIMSD1
 70
     0
  9
$DIMSD2
 70
     0
  9
$DIMTOLJ
 70
     0
  9
$DIMTZIN
 70
     1
  9
$DIMALTZ
 70
     0
  9
$DIMALTTZ
 70
     0
  9
$DIMUPT
 70
     0
  9
$DIMDEC
 70
     2
  9
$DIMTDEC
 70
     2
  9
$DIMALTU
 70
     2
  9
$DIMALTTD
 70
     3
  9
$DIMTXSTY
  7
Standard
  9
$DIMAUNIT
 70
     0
  9
$DIMADEC
 70
     2
  9
$DIMALTRND
 40
0.0
  9
$DIMAZIN
 70
     0
  9
$DIMDSEP
 70
    44
  9
$DIMATFIT
 70
     3
  9
$DIMFRAC
 70
     0
  9
$DIMLDRBLK
  1

  9
$DIMLUNIT
 70
     2
  9
$DIMLWD
 70
    -2
  9
$DIMLWE
 70
    -2
  9
$DIMTMOVE
 70
     0
  9
$LUNITS
 70
     2
  9
$LUPREC
 70
     2
  9
$SKETCHINC
 40
1.0
  9
$FILLETRAD
 40
10.0
  9
$AUNITS
 70
     0
  9
$AUPREC
 70
     2
  9
$MENU
  1
.
  9
$ELEVATION
 40
0.0
  9
$PELEVATION
 40
0.0
  9
$THICKNESS
 40
0.0
  9
$LIMCHECK
 70
     0
  9
$CHAMFERA
 40
0.0
  9
$CHAMFERB
 40
0.0
  9
$CHAMFERC
 40
0.0
  9
$CHAMFERD
 40
0.0
  9
$SKPOLY
 70
     0
  9
$TDCREATE
 40
2459036.021309849
  9
$TDUCREATE
 40
2459036.312976516
  9
$TDUPDATE
 40
2459036.021335023
  9
$TDUUPDATE
 40
2459036.31300169
  9
$TDINDWG
 40
0.0000000116
  9
$TDUSRTIMER
 40
0.0000000116
  9
$USRTIMER
 70
     1
  9
$ANGBASE
 50
0.0
  9
$ANGDIR
 70
     0
  9
$PDMODE
 70
     0
  9
$PDSIZE
 40
-1.0
  9
$PLINEWID
 40
0.0
  9
$SPLFRAME
 70
     0
  9
$SPLINETYPE
 70
     6
  9
$SPLINESEGS
 70
     8
  9
$HANDSEED
  5
AD
  9
$SURFTAB1
 70
     6
  9
$SURFTAB2
 70
     6
  9
$SURFTYPE
 70
     6
  9
$SURFU
 70
     6
  9
$SURFV
 70
     6
  9
$UCSBASE
  2

  9
$UCSNAME
  2

  9
$UCSORG
 10
0.0
 20
0.0
 30
0.0
  9
$UCSXDIR
 10
1.0
 20
0.0
 30
0.0
  9
$UCSYDIR
 10
0.0
 20
1.0
 30
0.0
  9
$UCSORTHOREF
  2

  9
$UCSORTHOVIEW
 70
     0
  9
$UCSORGTOP
 10
0.0
 20
0.0
 30
0.0
  9
$UCSORGBOTTOM
 10
0.0
 20
0.0
 30
0.0
  9
$UCSORGLEFT
 10
0.0
 20
0.0
 30
0.0
  9
$UCSORGRIGHT
 10
0.0
 20
0.0
 30
0.0
  9
$UCSORGFRONT
 10
0.0
 20
0.0
 30
0.0
  9
$UCSORGBACK
 10
0.0
 20
0.0
 30
0.0
  9
$PUCSBASE
  2

  9
$PUCSNAME
  2

  9
$PUCSORG
 10
0.0
 20
0.0
 30
0.0
  9
$PUCSXDIR
 10
1.0
 20
0.0
 30
0.0
  9
$PUCSYDIR
 10
0.0
 20
1.0
 30
0.0
  9
$PUCSORTHOREF
  2

  9
$PUCSORTHOVIEW
 70
     0
  9
$PUCSORGTOP
 10
0.0
 20
0.0
 30
0.0
  9
$PUCSORGBOTTOM
 10
0.0
 20
0.0
 30
0.0
  9
$PUCSORGLEFT
 10
0.0
 20
0.0
 30
0.0
  9
$PUCSORGRIGHT
 10
0.0
 20
0.0
 30
0.0
  9
$PUCSORGFRONT
 10
0.0
 20
0.0
 30
0.0
  9
$PUCSORGBACK
 10
0.0
 20
0.0
 30
0.0
  9
$USERI1
 70
     0
  9
$USERI2
 70
     0
  9
$USERI3
 70
     0
  9
$USERI4
 70
     0
  9
$USERI5
 70
     0
  9
$USERR1
 40
0.0
  9
$USERR2
 40
0.0
  9
$USERR3
 40
0.0
  9
$USERR4
 40
0.0
  9
$USERR5
 40
0.0
  9
$WORLDVIEW
 70
     1
  9
$SHADEDGE
 70
     3
  9
$SHADEDIF
 70
    70
  9
$TILEMODE
 70
     1
  9
$MAXACTVP
 70
    64
  9
$PINSBASE
 10
0.0
 20
0.0
 30
0.0
  9
$PLIMCHECK
 70
     0
  9
$PEXTMIN
 10
1.0000000000E+20
 20
1.0000000000E+20
 30
1.0000000000E+20
  9
$PEXTMAX
 10
-1.0000000000E+20
 20
-1.0000000000E+20
 30
-1.0000000000E+20
  9
$PLIMMIN
 10
0.0
 20
0.0
  9
$PLIMMAX
 10
420.0
 20
297.0
  9
$UNITMODE
 70
     0
  9
$VISRETAIN
 70
     1
  9
$PLINEGEN
 70
     0
  9
$PSLTSCALE
 70
     1
  9
$TREEDEPTH
 70
  3020
  9
$CMLSTYLE
  2
Standard
  9
$CMLJUST
 70
     0
  9
$CMLSCALE
 40
20.0
  9
$PROXYGRAPHICS
 70
     1
  9
$MEASUREMENT
 70
     1
  9
$CELWEIGHT
370
    -1
  9
$ENDCAPS
280
     0
  9
$JOINSTYLE
280
     0
  9
$LWDISPLAY
290
     1
  9
$INSUNITS
 70
     4
  9
$HYPERLINKBASE
  1

  9
$STYLESHEET
  1

  9
$XEDIT
290
     1
  9
$CEPSNTYPE
380
     0
  9
$PSTYLEMODE
290
     1
  9
$FINGERPRINTGUID
  2
{0d3b3116-223f-44e0-b075-53e5d2146b4b}
  9
$VERSIONGUID
  2
{FAEB1C32-E019-11D5-929B-00C0DF256EC4}
  9
$EXTNAMES
290
     1
  9
$PSVPSCALE
 40
0.0
  9
$OLESTARTUP
290
     0
  0
ENDSEC
  0
SECTION
  2
CLASSES
  0
CLASS
  1
ACDBDICTIONARYWDFLT
  2
AcDbDictionaryWithDefault
  3
ObjectDBX Classes
 90
        0
280
     0
281
     0
  0
CLASS
  1
VISUALSTYLE
  2
AcDbVisualStyle
  3
ObjectDBX Classes
 90
     4095
280
     0
281
     0
  0
CLASS
  1
MATERIAL
  2
AcDbMaterial
  3
ObjectDBX Classes
 90
     1153
280
     0
281
     0
  0
CLASS
  1
SCALE
  2
AcDbScale
  3
ObjectDBX Classes
 90
     1153
280
     0
281
     0
  0
CLASS
  1
TABLESTYLE
  2
AcDbTableStyle
  3
ObjectDBX Classes
 90
     4095
280
     0
281
     0
  0
CLASS
  1
MLEADERSTYLE
  2
AcDbMLeaderStyle
  3
ACDB_MLEADERSTYLE_CLASS
 90
     4095
280
     0
281
     0
  0
CLASS
  1
SUN
  2
AcDbSun
  3
SCENEOE
 90
     1153
280
     0
281
     0
  0
CLASS
  1
ACDBPLACEHOLDER
  2
AcDbPlaceHolder
  3
ObjectDBX Classes
 90
        0
280
     0
281
     0
  0
CLASS
  1
LAYOUT
  2
AcDbLayout
  3
ObjectDBX Classes
 90
        0
280
     0
281
     0
  0
ENDSEC
  0
SECTION
  2
TABLES
  0
TABLE
  2
VPORT
  5
8
330
0
100
AcDbSymbolTable
 70
     1
  0
VPORT
  5
29
330
8
100
AcDbSymbolTableRecord
100
AcDbViewportTableRecord
  2
*Active
 70
     0
 10
0.0
 20
0.0
 11
1.0
 21
1.0
 12
0.0
 22
28.4377284776
 13
0.0
 23
0.0
 14
10.0
 24
10.0
 15
10.0
 25
10.0
 16
0.0
 26
0.0
 36
1.0
 17
0.0
 27
0.0
 37
0.0
 40
163.8370339057
 41
1.5449386454
 42
50.0
 43
0.0
 44
0.0
 50
0.0
 51
0.0
 71
     0
 72
   100
 73
     1
 74
     3
 75
     0
 76
     0
 77
     0
 78
     0
281
     0
 65
     1
110
0.0
120
0.0
130
0.0
111
1.0
121
0.0
131
0.0
112
0.0
122
1.0
132
0.0
 79
     0
146
0.0
  0
ENDTAB
  0
TABLE
  2
LTYPE
  5
5
330
0
100
AcDbSymbolTable
 70
     6
  0
LTYPE
  5
14
330
5
100
AcDbSymbolTableRecord
100
AcDbLinetypeTableRecord
  2
ByBlock
 70
     0
  3

 72
    65
 73
     0
 40
0.0
  0
LTYPE
  5
15
330
5
100
AcDbSymbolTableRecord
100
AcDbLinetypeTableRecord
  2
ByLayer
 70
     0
  3

 72
    65
 73
     0
 40
0.0
  0
LTYPE
  5
16
330
5
100
AcDbSymbolTableRecord
100
AcDbLinetypeTableRecord
  2
Continuous
 70
     0
  3
Solid line
 72
    65
 73
     0
 40
0.0
  0
LTYPE
  5
6E
330
5
100
AcDbSymbolTableRecord
100
AcDbLinetypeTableRecord
  2
HIDDEN
 70
     0
  3
Hidden __ __ __ __ __ __ __ __ __ __ __ __ __ __
 72
    65
 73
     2
 40
1.905
 49
1.27
 74
     0
 49
-0.635
 74
     0
  0
LTYPE
  5
6F
330
5
100
AcDbSymbolTableRecord
100
AcDbLinetypeTableRecord
  2
PHANTOM
 70
     0
  3
Phantom ______  __  __  ______  __  __  ______
 72
    65
 73
     6
 40
12.7
 49
6.35
 74
     0
 49
-1.27
 74
     0
 49
1.27
 74
     0
 49
-1.27
 74
     0
 49
1.27
 74
     0
 49
-1.27
 74
     0
  0
LTYPE
  5
70
330
5
100
AcDbSymbolTableRecord
100
AcDbLinetypeTableRecord
  2
CENTER
 70
     0
  3
Center ____ _ ____ _ ____ _ ____ _ ____ _ ____
 72
    65
 73
     4
 40
10.16
 49
6.35
 74
     0
 49
-1.27
 74
     0
 49
1.27
 74
     0
 49
-1.27
 74
     0
  0
LTYPE
  5
71
330
5
100
AcDbSymbolTableRecord
100
AcDbLinetypeTableRecord
  2
CENTERX2
 70
     0
  3
Center (2x) ________  __  ________  __  _____
 72
    65
 73
     4
 40
20.32
 49
12.7
 74
     0
 49
-2.54
 74
     0
 49
2.54
 74
     0
 49
-2.54
 74
     0
  0
LTYPE
  5
72
330
5
100
AcDbSymbolTableRecord
100
AcDbLinetypeTableRecord
  2
DOT2
 70
     0
  3
Dot (.5x) ........................................
 72
    65
 73
     2
 40
0.635
 49
0.0
 74
     0
 49
-0.635
 74
     0
  0
ENDTAB
  0
TABLE
  2
LAYER
  5
2
330
0
100
AcDbSymbolTable
 70
     1
  0
LAYER
  5
10
330
2
100
AcDbSymbolTableRecord
100
AcDbLayerTableRecord
  2
0
 70
     0
 62
     7
  6
Continuous
370
    -3
390
F
  0
ENDTAB
  0
TABLE
  2
STYLE
  5
3
330
0
100
AcDbSymbolTable
 70
     2
  0
STYLE
  5
11
330
3
100
AcDbSymbolTableRecord
100
AcDbTextStyleTableRecord
  2
Standard
 70
     0
 40
0.0
 41
1.0
 50
0.0
 71
     0
 42
3.5
  3
txt
  4

  0
STYLE
  5
AA
330
3
100
AcDbSymbolTableRecord
100
AcDbTextStyleTableRecord
  2
SLDTEXTSTYLE0
 70
     0
 40
0.0
 41
0.7
 50
0.0
 71
     0
 42
3.5
  3
TXT
  4

  0
ENDTAB
  0
TABLE
  2
VIEW
  5
6
330
0
100
AcDbSymbolTable
 70
     0
  0
ENDTAB
  0
TABLE
  2
UCS
  5
7
330
0
100
AcDbSymbolTable
 70
     0
  0
ENDTAB
  0
TABLE
  2
APPID
  5
9
330
0
100
AcDbSymbolTable
 70
     1
  0
APPID
  5
12
330
9
100
AcDbSymbolTableRecord
100
AcDbRegAppTableRecord
  2
ACAD
 70
     0
  0
ENDTAB
  0
TABLE
  2
DIMSTYLE
  5
A
330
0
100
AcDbSymbolTable
 70
     1
100
AcDbDimStyleTable
  0
DIMSTYLE
105
27
330
A
100
AcDbSymbolTableRecord
100
AcDbDimStyleTableRecord
  2
ISO-25
 70
     0
 41
2.5
 42
0.625
 43
3.75
 44
1.25
 73
     0
 74
     0
 77
     1
 78
     8
140
2.5
141
2.5
143
0.0393700787
147
0.625
171
     3
172
     1
178
     0
271
     2
272
     2
274
     3
278
    44
283
     0
284
     8
340
11
  0
ENDTAB
  0
TABLE
  2
BLOCK_RECORD
  5
1
330
0
100
AcDbSymbolTable
 70
     1
  0
BLOCK_RECORD
  5
1F
330
1
100
AcDbSymbolTableRecord
100
AcDbBlockTableRecord
  2
*Model_Space
340
22
  0
BLOCK_RECORD
  5
1B
330
1
100
AcDbSymbolTableRecord
100
AcDbBlockTableRecord
  2
*Paper_Space
340
1E
  0
BLOCK_RECORD
  5
23
330
1
100
AcDbSymbolTableRecord
100
AcDbBlockTableRecord
  2
*Paper_Space0
340
26
  0
ENDTAB
  0
ENDSEC
  0
SECTION
  2
BLOCKS
  0
BLOCK
  5
20
330
1F
100
AcDbEntity
  8
0
100
AcDbBlockBegin
  2
*Model_Space
 70
     0
 10
0.0
 20
0.0
 30
0.0
  3
*Model_Space
  1

  0
ENDBLK
  5
21
330
1F
100
AcDbEntity
  8
0
100
AcDbBlockEnd
  0
BLOCK
  5
1C
330
1B
100
AcDbEntity
 67
     1
  8
0
100
AcDbBlockBegin
  2
*Paper_Space
 70
     0
 10
0.0
 20
0.0
 30
0.0
  3
*Paper_Space
  1

  0
ENDBLK
  5
1D
330
1B
100
AcDbEntity
 67
     1
  8
0
100
AcDbBlockEnd
  0
BLOCK
  5
24
330
23
100
AcDbEntity
  8
0
100
AcDbBlockBegin
  2
*Paper_Space0
 70
     0
 10
0.0
 20
0.0
 30
0.0
  3
*Paper_Space0
  1

  0
ENDBLK
  5
25
330
23
100
AcDbEntity
  8
0
100
AcDbBlockEnd
  0
ENDSEC
  0
SECTION
  2
ENTITIES
  0
SPLINE
  5
73
330
1F
100
AcDbEntity
  8
0
  6
Continuous
 62
     7
370
    25
100
AcDbSpline
210
0.0
220
0.0
230
1.0
 70
     8
 71
     3
 72
    32
 73
    28
 74
     0
 42
0.000000001
 43
0.00000001
 40
0.0
 40
0.0
 40
0.0
 40
0.0
 40
0.0078125
 40
0.015625
 40
0.03125
 40
0.046875
 40
0.0625
 40
0.09375
 40
0.125
 40
0.15625
 40
0.1875
 40
0.25
 40
0.3125
 40
0.375
 40
0.4375
 40
0.5
 40
0.5625
 40
0.625
 40
0.6875
 40
0.75
 40
0.8125
 40
0.875
 40
0.90625
 40
0.9375
 40
0.96875
 40
0.984375
 40
1.0
 40
1.0
 40
1.0
 40
1.0
 10
20.0
 20
96.25
 30
0.0
 10
20.66799807262922
 20
96.25
 30
0.0
 10
22.01210286460936
 20
96.24339623651775
 30
0.0
 10
24.63524935493743
 20
96.20416584789437
 30
0.0
 10
27.83728092267453
 20
96.10707399210527
 30
0.0
 10
31.54307929107388
 20
95.9160692705728
 30
0.0
 10
36.30761877579646
 20
95.56531615003513
 30
0.0
 10
41.9312182914902
 20
94.95287988210269
 30
0.0
 10
48.15281012451456
 20
93.95992019734256
 30
0.0
 10
53.85139377563058
 20
92.73020898477722
 30
0.0
 10
60.75796710231958
 20
90.80497140814576
 30
0.0
 10
68.10586077407794
 20
87.92149783593447
 30
0.0
 10
74.92029584193581
 20
83.90603025131158
 30
0.0
 10
79.83156130154245
 20
79.56243175923326
 30
0.0
 10
83.02231045785682
 20
75.09571915843841
 30
0.0
 10
84.75103808981868
 20
70.59471525554203
 30
0.0
 10
85.22585925094245
 20
65.97341215758183
 30
0.0
 10
84.46915189230315
 20
61.0962711439008
 30
0.0
 10
82.37320103728031
 20
55.95282682906363
 30
0.0
 10
78.83703493983293
 20
50.66834111222938
 30
0.0
 10
73.81786257007458
 20
45.42651330550093
 30
0.0
 10
68.40308289666928
 20
41.25252393768066
 30
0.0
 10
63.34636135223262
 20
38.11893651681198
 30
0.0
 10
59.19813137572786
 20
35.89311019666918
 30
0.0
 10
55.44367837519522
 20
34.15689720974477
 30
0.0
 10
52.27706637127825
 20
32.85360078829494
 30
0.0
 10
50.61834882233635
 20
32.22427982006348
 30
0.0
 10
49.79218962386226
 20
31.92358246305368
 30
0.0
  0
LINE
  5
74
330
1F
100
AcDbEntity
  8
0
  6
Continuous
 62
     7
370
    25
100
AcDbLine
 10
49.7921896239
 20
31.9235824631
 30
0.0
 11
36.7641965508
 21
27.181780783
 31
0.0
  0
SPLINE
  5
75
330
1F
100
AcDbEntity
  8
0
  6
Continuous
 62
     7
370
    25
100
AcDbSpline
210
0.0
220
0.0
230
1.0
 70
     8
 71
     3
 72
    11
 73
     7
 74
     0
 42
0.000000001
 43
0.00000001
 40
0.8264561105324285
 40
0.8264561105324285
 40
0.8264561105324285
 40
0.8264561105324285
 40
0.828125
 40
0.84375
 40
0.859375
 40
0.8738651553851452
 40
0.8738651553851452
 40
0.8738651553851452
 40
0.8738651553851452
 10
36.76419655075626
 20
27.18178078299061
 30
0.0
 10
36.66019203448403
 20
27.31405006845965
 30
0.0
 10
35.57459298721027
 20
28.6885650301201
 30
0.0
 10
33.35750702060098
 20
31.37297185812559
 30
0.0
 10
29.95019018184441
 20
35.14382537724068
 30
0.0
 10
27.55759177727754
 20
37.54085486996033
 30
0.0
 10
26.35146295265729
 20
38.66943007460232
 30
0.0
  0
ARC
  5
76
330
1F
100
AcDbEntity
  8
0
  6
Continuous
 62
     7
370
    25
100
AcDbCircle
 10
29.7676701349
 20
42.3203927543
 30
0.0
 40
5.0
100
AcDbArc
 50
142.7842618686
 51
226.9025374481
  0
LINE
  5
77
330
1F
100
AcDbEntity
  8
0
  6
Continuous
 62
     7
370
    25
100
AcDbLine
 10
25.7858510581
 20
45.3444821775
 30
0.0
 11
30.2431620569
 21
51.2134243555
 31
0.0
  0
ARC
  5
78
330
1F
100
AcDbEntity
  8
0
  6
Continuous
 62
     7
370
    25
100
AcDbCircle
 10
26.2613429801
 20
54.2375137788
 30
0.0
 40
5.000000000000009
100
AcDbArc
 50
322.7842618686
 51
105.9143642227
  0
LINE
  5
79
330
1F
100
AcDbEntity
  8
0
  6
Continuous
 62
     7
370
    25
100
AcDbLine
 10
24.8903413727
 20
59.0458767634
 30
0.0
 11
15.1233730087
 21
56.2610351321
 31
0.0
  0
SPLINE
  5
7A
330
1F
100
AcDbEntity
  8
0
  6
Continuous
 62
     7
370
    25
100
AcDbSpline
210
0.0
220
0.0
230
1.0
 70
     8
 71
     3
 72
    21
 73
    17
 74
     0
 42
0.000000001
 43
0.00000001
 40
0.9715759303497276
 40
0.9715759303497276
 40
0.9715759303497276
 40
0.9715759303497276
 40
0.97265625
 40
0.9765625
 40
0.98046875
 40
0.984375
 40
0.9921875
 40
0.99609375
 40
1.0
 40
1.00390625
 40
1.0078125
 40
1.015625
 40
1.01953125
 40
1.0234375
 40
1.02734375
 40
1.028855247370313
 40
1.028855247370313
 40
1.028855247370313
 40
1.028855247370313
 10
15.12337300870764
 20
56.26103513210476
 30
0.0
 10
14.99910328702948
 20
56.4786325280544
 30
0.0
 10
14.4005032043715
 20
57.48032802954859
 30
0.0
 10
13.147652859327
 20
59.15492455239474
 30
0.0
 10
11.1810723969916
 20
61.06566173964809
 30
0.0
 10
8.279898070977168
 20
63.09883780683032
 30
0.0
 10
5.234080439698197
 20
64.3111218474344
 30
0.0
 10
2.354049567648263
 20
64.87130985925569
 30
0.0
 10
0.3420512575095756
 20
65.03027178818053
 30
0.0
 10
-1.702995084976735
 20
64.98041533370079
 30
0.0
 10
-4.708925436520508
 20
64.54932282839081
 30
0.0
 10
-7.973475940727047
 20
63.37685677517485
 30
0.0
 10
-11.02321213767257
 20
61.29750020580123
 30
0.0
 10
-13.0349249035906
 20
59.36088017331659
 30
0.0
 10
-14.33830615601327
 20
57.61390913439432
 30
0.0
 10
-14.9675982568914
 20
56.56070905456126
 30
0.0
 10
-15.13364639774583
 20
56.26396438767149
 30
0.0
  0
LINE
  5
7B
330
1F
100
AcDbEntity
  8
0
  6
Continuous
 62
     7
370
    25
100
AcDbLine
 10
-15.1336463977
 20
56.2639643877
 30
0.0
 11
-24.8903413727
 21
59.0458767634
 31
0.0
  0
ARC
  5
7C
330
1F
100
AcDbEntity
  8
0
  6
Continuous
 62
     7
370
    25
100
AcDbCircle
 10
-26.2613429801
 20
54.2375137788
 30
0.0
 40
5.000000000000009
100
AcDbArc
 50
74.0856357773
 51
217.2157381314
  0
LINE
  5
7D
330
1F
100
AcDbEntity
  8
0
  6
Continuous
 62
     7
370
    25
100
AcDbLine
 10
-30.2431620569
 20
51.2134243555
 30
0.0
 11
-25.789727433
 21
45.349586201
 31
0.0
  0
ARC
  5
7E
330
1F
100
AcDbEntity
  8
0
  6
Continuous
 62
     7
370
    25
100
AcDbCircle
 10
-29.7715465098
 20
42.3254967778
 30
0.0
 40
5.000000000000004
100
AcDbArc
 50
312.9465449729
 51
37.2157381314
  0
SPLINE
  5
7F
330
1F
100
AcDbEntity
  8
0
  6
Continuous
 62
     7
370
    25
100
AcDbSpline
210
0.0
220
0.0
230
1.0
 70
     8
 71
     3
 72
    11
 73
     7
 74
     0
 42
0.000000001
 43
0.00000001
 40
0.1263316996125682
 40
0.1263316996125682
 40
0.1263316996125682
 40
0.1263316996125682
 40
0.140625
 40
0.15625
 40
0.171875
 40
0.1734832327217628
 40
0.1734832327217628
 40
0.1734832327217628
 40
0.1734832327217628
 10
-26.36496783453791
 20
38.66554845442112
 30
0.0
 10
-27.55869827795395
 20
37.55445717300404
 30
0.0
 10
-29.9441997101726
 20
35.1741685674132
 30
0.0
 10
-33.35500965582131
 20
31.40442111752746
 30
0.0
 10
-35.58226994561826
 20
28.70081788962482
 30
0.0
 10
-36.67196975569522
 20
27.31407735447269
 30
0.0
 10
-36.77296122161363
 20
27.18497085129038
 30
0.0
  0
LINE
  5
80
330
1F
100
AcDbEntity
  8
0
  6
Continuous
 62
     7
370
    25
100
AcDbLine
 10
-36.7729612216
 20
27.1849708513
 30
0.0
 11
-49.7921896239
 21
31.9235824631
 31
0.0
  0
SPLINE
  5
81
330
1F
100
AcDbEntity
  8
0
  6
Continuous
 62
     7
370
    25
100
AcDbSpline
210
0.0
220
0.0
230
1.0
 70
     8
 71
     3
 72
    32
 73
    28
 74
     0
 42
0.000000001
 43
0.00000001
 40
0.0
 40
0.0
 40
0.0
 40
0.0
 40
0.015625
 40
0.03125
 40
0.0625
 40
0.09375
 40
0.125
 40
0.1875
 40
0.25
 40
0.3125
 40
0.375
 40
0.4375
 40
0.5
 40
0.5625
 40
0.625
 40
0.6875
 40
0.75
 40
0.8125
 40
0.84375
 40
0.875
 40
0.90625
 40
0.9375
 40
0.953125
 40
0.96875
 40
0.984375
 40
0.9921875
 40
1.0
 40
1.0
 40
1.0
 40
1.0
 10
-49.79218962386226
 20
31.92358246305368
 30
0.0
 10
-50.61834882233635
 20
32.22427982006348
 30
0.0
 10
-52.27706637127825
 20
32.85360078829494
 30
0.0
 10
-55.44367837519522
 20
34.15689720974477
 30
0.0
 10
-59.19813137572786
 20
35.89311019666918
 30
0.0
 10
-63.34636135223262
 20
38.11893651681198
 30
0.0
 10
-68.40308289666928
 20
41.25252393768066
 30
0.0
 10
-73.81786257007458
 20
45.42651330550093
 30
0.0
 10
-78.83703493983293
 20
50.66834111222938
 30
0.0
 10
-82.37320103728028
 20
55.95282682906363
 30
0.0
 10
-84.46915189230315
 20
61.0962711439008
 30
0.0
 10
-85.22585925094245
 20
65.97341215758183
 30
0.0
 10
-84.75103808981868
 20
70.59471525554203
 30
0.0
 10
-83.02231045785682
 20
75.09571915843841
 30
0.0
 10
-79.83156130154245
 20
79.56243175923326
 30
0.0
 10
-74.92029584193581
 20
83.90603025131158
 30
0.0
 10
-68.10586077407794
 20
87.92149783593447
 30
0.0
 10
-60.75796710231958
 20
90.80497140814576
 30
0.0
 10
-53.85139377563057
 20
92.73020898477722
 30
0.0
 10
-48.15281012451456
 20
93.95992019734256
 30
0.0
 10
-41.9312182914902
 20
94.95287988210269
 30
0.0
 10
-36.30761877579646
 20
95.56531615003513
 30
0.0
 10
-31.54307929107388
 20
95.9160692705728
 30
0.0
 10
-27.83728092267453
 20
96.10707399210527
 30
0.0
 10
-24.63524935493743
 20
96.20416584789437
 30
0.0
 10
-22.01210286460936
 20
96.24339623651775
 30
0.0
 10
-20.66799807262922
 20
96.25
 30
0.0
 10
-20.0
 20
96.25
 30
0.0
  0
LINE
  5
82
330
1F
100
AcDbEntity
  8
0
  6
Continuous
 62
     7
370
    25
100
AcDbLine
 10
-20.0
 20
96.25
 30
0.0
 11
20.0
 21
96.25
 31
0.0
  0
LINE
  5
83
330
1F
100
AcDbEntity
  8
0
  6
Continuous
 62
     7
370
    25
100
AcDbLine
 10
52.9070385564
 20
19.7550726028
 30
0.0
 11
54.0674414154
 21
20.1774247032
 31
0.0
  0
SPLINE
  5
84
330
1F
100
AcDbEntity
  8
0
  6
Continuous
 62
     7
370
    25
100
AcDbSpline
210
0.0
220
0.0
230
1.0
 70
     8
 71
     3
 72
    31
 73
    27
 74
     0
 42
0.000000001
 43
0.00000001
 40
0.0
 40
0.0
 40
0.0
 40
0.0
 40
0.015625
 40
0.03125
 40
0.0625
 40
0.09375
 40
0.125
 40
0.1875
 40
0.25
 40
0.3125
 40
0.375
 40
0.4375
 40
0.5
 40
0.5625
 40
0.625
 40
0.6875
 40
0.75
 40
0.8125
 40
0.84375
 40
0.875
 40
0.90625
 40
0.9375
 40
0.953125
 40
0.96875
 40
0.984375
 40
1.0
 40
1.0
 40
1.0
 40
1.0
 10
54.06744141543312
 20
20.17742470322983
 30
0.0
 10
55.00054031893832
 20
20.51704492973215
 30
0.0
 10
56.87043858815031
 20
21.22646650726886
 30
0.0
 10
60.46800516903257
 20
22.70688780470616
 30
0.0
 10
64.76829414645417
 20
24.69468011925888
 30
0.0
 10
69.58540655287285
 20
27.27796580782937
 30
0.0
 10
75.55009256652977
 20
30.97213991283686
 30
0.0
 10
82.12679204141521
 20
36.02617831538695
 30
0.0
 10
88.54985946756742
 20
42.70229009149415
 30
0.0
 10
93.41419506939779
 20
49.91390088535719
 30
0.0
 10
96.58363989008343
 20
57.57886458868838
 30
0.0
 10
97.863630517492
 20
65.55651624778005
 30
0.0
 10
97.05292027787394
 20
73.57048544409614
 30
0.0
 10
94.08033928848036
 20
81.21932257729095
 30
0.0
 10
89.06045934681909
 20
88.15111044129931
 30
0.0
 10
82.15822980124899
 20
94.18876210987804
 30
0.0
 10
73.46276264662784
 20
99.27138476134311
 30
0.0
 10
64.72743543736391
 20
102.6787617400575
 30
0.0
 10
56.82569938758679
 20
104.8787149952261
 30
0.0
 10
50.43543826119125
 20
106.2559133971372
 30
0.0
 10
43.57409680011677
 20
107.3496411088694
 30
0.0
 10
37.45642081439333
 20
108.0148935782147
 30
0.0
 10
32.32031756889585
 20
108.3929416169149
 30
0.0
 10
28.34147916436052
 20
108.597708067273
 30
0.0
 10
24.25447037977022
 20
108.7219842486932
 30
0.0
 10
21.4080825400355
 20
108.75
 30
0.0
 10
20.0
 20
108.75
 30
0.0
  0
LINE
  5
85
330
1F
100
AcDbEntity
  8
0
  6
Continuous
 62
     7
370
    25
100
AcDbLine
 10
20.0
 20
108.75
 30
0.0
 11
-20.0
 21
108.75
 31
0.0
  0
SPLINE
  5
86
330
1F
100
AcDbEntity
  8
0
  6
Continuous
 62
     7
370
    25
100
AcDbSpline
210
0.0
220
0.0
230
1.0
 70
     8
 71
     3
 72
    31
 73
    27
 74
     0
 42
0.000000001
 43
0.00000001
 40
0.0
 40
0.0
 40
0.0
 40
0.0
 40
0.015625
 40
0.03125
 40
0.046875
 40
0.0625
 40
0.09375
 40
0.125
 40
0.15625
 40
0.1875
 40
0.25
 40
0.3125
 40
0.375
 40
0.4375
 40
0.5
 40
0.5625
 40
0.625
 40
0.6875
 40
0.75
 40
0.8125
 40
0.875
 40
0.90625
 40
0.9375
 40
0.96875
 40
0.984375
 40
1.0
 40
1.0
 40
1.0
 40
1.0
 10
-20.0
 20
108.75
 30
0.0
 10
-21.4080825400355
 20
108.75
 30
0.0
 10
-24.25447037977022
 20
108.7219842486932
 30
0.0
 10
-28.34147916436052
 20
108.597708067273
 30
0.0
 10
-32.32031756889585
 20
108.3929416169149
 30
0.0
 10
-37.45642081439331
 20
108.0148935782147
 30
0.0
 10
-43.57409680011678
 20
107.3496411088694
 30
0.0
 10
-50.43543826119124
 20
106.2559133971372
 30
0.0
 10
-56.82569938758679
 20
104.8787149952261
 30
0.0
 10
-64.72743543736391
 20
102.6787617400575
 30
0.0
 10
-73.46276264662784
 20
99.27138476134311
 30
0.0
 10
-82.15822980124899
 20
94.18876210987804
 30
0.0
 10
-89.06045934681909
 20
88.15111044129931
 30
0.0
 10
-94.08033928848036
 20
81.21932257729095
 30
0.0
 10
-97.05292027787394
 20
73.57048544409614
 30
0.0
 10
-97.86363051749197
 20
65.55651624778005
 30
0.0
 10
-96.58363989008346
 20
57.57886458868838
 30
0.0
 10
-93.41419506939776
 20
49.91390088535719
 30
0.0
 10
-88.54985946756744
 20
42.70229009149415
 30
0.0
 10
-82.12679204141521
 20
36.02617831538695
 30
0.0
 10
-75.55009256652977
 20
30.97213991283686
 30
0.0
 10
-69.58540655287285
 20
27.27796580782937
 30
0.0
 10
-64.76829414645417
 20
24.69468011925888
 30
0.0
 10
-60.46800516903257
 20
22.70688780470616
 30
0.0
 10
-56.87043858815031
 20
21.22646650726886
 30
0.0
 10
-55.00054031893832
 20
20.51704492973215
 30
0.0
 10
-54.06744141543312
 20
20.17742470322983
 30
0.0
  0
LINE
  5
87
330
1F
100
AcDbEntity
  8
0
  6
Continuous
 62
     7
370
    25
100
AcDbLine
 10
-54.0674414154
 20
20.1774247032
 30
0.0
 11
-52.8780696539
 21
19.7445287845
 31
0.0
  0
ARC
  5
88
330
1F
100
AcDbEntity
  8
0
  6
Continuous
 62
     7
370
    25
100
AcDbCircle
 10
-56.2982710871
 20
10.3476025767
 30
0.0
 40
10.0
100
AcDbArc
 50
347.9269890324
 51
70.0
  0
SPLINE
  5
89
330
1F
100
AcDbEntity
  8
0
  6
Continuous
 62
     7
370
    25
100
AcDbSpline
210
0.0
220
0.0
230
1.0
 70
     8
 71
     3
 72
    13
 73
     9
 74
     0
 42
0.000000001
 43
0.00000001
 40
0.2434504209314869
 40
0.2434504209314869
 40
0.2434504209314869
 40
0.2434504209314869
 40
0.25
 40
0.265625
 40
0.28125
 40
0.296875
 40
0.3125
 40
0.3153006456077091
 40
0.3153006456077091
 40
0.3153006456077091
 40
0.3153006456077091
 10
-46.5194524014164
 20
8.25602300331291
 30
0.0
 10
-46.67031586263945
 20
7.550686972887889
 30
0.0
 10
-47.11931913555187
 20
5.138819202656236
 30
0.0
 10
-47.54466528023006
 20
0.9203581351710537
 30
0.0
 10
-47.63634653986897
 20
-4.729023135029468
 30
0.0
 10
-47.30279431744163
 20
-10.81764019810647
 30
0.0
 10
-46.71256005546605
 20
-15.40892537137576
 30
0.0
 10
-46.25839040859763
 20
-17.90960481597703
 30
0.0
 10
-46.18609487885634
 20
-18.28992165800731
 30
0.0
  0
ARC
  5
8A
330
1F
100
AcDbEntity
  8
0
  6
Continuous
 62
     7
370
    25
100
AcDbCircle
 10
-56.0101720014
 20
-20.1574089247
 30
0.0
 40
9.999999999999993
100
AcDbArc
 50
295.0
 51
10.7631040774
  0
LINE
  5
8B
330
1F
100
AcDbEntity
  8
0
  6
Continuous
 62
     7
370
    25
100
AcDbLine
 10
-51.7839893839
 20
-29.220486795
 30
0.0
 11
-55.9240588118
 21
-31.1510328745
 31
0.0
  0
SPLINE
  5
8C
330
1F
100
AcDbEntity
  8
0
  6
Continuous
 62
     7
370
    25
100
AcDbSpline
210
0.0
220
0.0
230
1.0
 70
     8
 71
     3
 72
    32
 73
    28
 74
     0
 42
0.000000001
 43
0.00000001
 40
0.0
 40
0.0
 40
0.0
 40
0.0
 40
0.0078125
 40
0.015625
 40
0.03125
 40
0.046875
 40
0.0625
 40
0.09375
 40
0.125
 40
0.15625
 40
0.1875
 40
0.25
 40
0.3125
 40
0.375
 40
0.4375
 40
0.5
 40
0.5625
 40
0.625
 40
0.6875
 40
0.75
 40
0.8125
 40
0.875
 40
0.90625
 40
0.9375
 40
0.96875
 40
0.984375
 40
1.0
 40
1.0
 40
1.0
 40
1.0
 10
-55.92405881179562
 20
-31.15103287453845
 30
0.0
 10
-56.48559598253077
 20
-31.41288195759094
 30
0.0
 10
-57.63046615262124
 20
-31.92720283916597
 30
0.0
 10
-59.83340776213168
 20
-32.83955081242888
 30
0.0
 10
-62.50390745783413
 20
-33.80351310920076
 30
0.0
 10
-65.54978036929582
 20
-34.68078097076477
 30
0.0
 10
-69.40979625694537
 20
-35.50265869603594
 30
0.0
 10
-73.85979616653194
 20
-35.91644298635016
 30
0.0
 10
-78.65560567594682
 20
-35.55904040219131
 30
0.0
 10
-83.0032145657841
 20
-34.44567855527657
 30
0.0
 10
-88.33866922153452
 20
-32.01730779056805
 30
0.0
 10
-94.34754047066588
 20
-27.2178317970696
 30
0.0
 10
-100.5419117609586
 20
-18.69163396247638
 30
0.0
 10
-105.4810994561593
 20
-7.815742915671782
 30
0.0
 10
-109.0298406967272
 20
4.811012303307663
 30
0.0
 10
-111.138913491403
 20
18.56038881855888
 30
0.0
 10
-111.8112209511077
 20
32.80742389519434
 30
0.0
 10
-111.0785922917809
 20
46.93256510465468
 30
0.0
 10
-108.9955135974269
 20
60.31453226428368
 30
0.0
 10
-105.6468099079241
 20
72.31911316235882
 30
0.0
 10
-101.1754155456078
 20
82.29499701811069
 30
0.0
 10
-96.74756910549237
 20
88.36097726199145
 30
0.0
 10
-93.03778976124022
 20
91.64673815252166
 30
0.0
 10
-90.23462467850055
 20
93.3446076858257
 30
0.0
 10
-87.86580704766963
 20
94.1748089795133
 30
0.0
 10
-85.90155492470528
 20
94.51470771105838
 30
0.0
 10
-84.85106860651268
 20
94.5738022490107
 30
0.0
 10
-84.33315702249692
 20
94.5738022490107
 30
0.0
  0
LINE
  5
8D
330
1F
100
AcDbEntity
  8
0
  6
Continuous
 62
     7
370
    25
100
AcDbLine
 10
-84.3331570225
 20
94.573802249
 30
0.0
 11
-84.3331570225
 21
107.073802249
 31
0.0
  0
SPLINE
  5
8E
330
1F
100
AcDbEntity
  8
0
  6
Continuous
 62
     7
370
    25
100
AcDbSpline
210
0.0
220
0.0
230
1.0
 70
     8
 71
     3
 72
    30
 73
    26
 74
     0
 42
0.000000001
 43
0.00000001
 40
0.0
 40
0.0
 40
0.0
 40
0.0
 40
0.015625
 40
0.03125
 40
0.0625
 40
0.09375
 40
0.125
 40
0.1875
 40
0.25
 40
0.3125
 40
0.375
 40
0.5
 40
0.625
 40
0.6875
 40
0.75
 40
0.8125
 40
0.84375
 40
0.875
 40
0.90625
 40
0.9375
 40
0.953125
 40
0.96875
 40
0.984375
 40
0.9921875
 40
1.0
 40
1.0
 40
1.0
 40
1.0
 10
-84.33315702249692
 20
107.0738022490107
 30
0.0
 10
-85.32145378656661
 20
107.0738022490107
 30
0.0
 10
-87.31014925744587
 20
106.9620805855465
 30
0.0
 10
-91.15331121554607
 20
106.3007093093815
 30
0.0
 10
-95.7053672015388
 20
104.6868036109854
 30
0.0
 10
-100.6001203544522
 20
101.6854767159978
 30
0.0
 10
-106.3488565212996
 20
96.53963636857705
 30
0.0
 10
-112.1967744815943
 20
88.35925897673341
 30
0.0
 10
-117.4922545671326
 20
76.44266387018514
 30
0.0
 10
-121.2548572379835
 20
62.89197304326461
 30
0.0
 10
-124.2964392921318
 20
43.2895588817067
 30
0.0
 10
-124.3859603788577
 20
17.15678849321083
 30
0.0
 10
-119.2367934994549
 20
-7.721849437976424
 30
0.0
 10
-111.5151810303181
 20
-24.8411711333494
 30
0.0
 10
-103.6841918173373
 20
-35.75457758040068
 30
0.0
 10
-95.18644689310696
 20
-42.64631680502904
 30
0.0
 10
-87.17933436004012
 20
-46.2988235433134
 30
0.0
 10
-80.64012943632318
 20
-47.96832167724222
 30
0.0
 10
-73.65768071046985
 20
-48.47414308209367
 30
0.0
 10
-67.54063605791612
 20
-47.88968640582014
 30
0.0
 10
-62.48908525448478
 20
-46.81099834551517
 30
0.0
 10
-58.62382043278667
 20
-45.69549845302681
 30
0.0
 10
-55.3343801192599
 20
-44.50664116855553
 30
0.0
 10
-52.67061417354694
 20
-43.40298750726011
 30
0.0
 10
-51.31109463542285
 20
-42.79219633933231
 30
0.0
 10
-50.64133054003686
 20
-42.47988021249657
 30
0.0
  0
LINE
  5
8F
330
1F
100
AcDbEntity
  8
0
  6
Continuous
 62
     7
370
    25
100
AcDbLine
 10
-50.64133054
 20
-42.4798802125
 30
0.0
 11
-45.2359425653
 21
-39.9593064046
 31
0.0
  0
ARC
  5
90
330
1F
100
AcDbEntity
  8
0
  6
Continuous
 62
     7
370
    25
100
AcDbCircle
 10
-41.0097599479
 20
-49.0223842749
 30
0.0
 40
10.00000000000005
100
AcDbArc
 50
48.3081431114
 51
115.0
  0
SPLINE
  5
91
330
1F
100
AcDbEntity
  8
0
  6
Continuous
 62
     7
370
    25
100
AcDbSpline
210
0.0
220
0.0
230
1.0
 70
     8
 71
     3
 72
    23
 73
    19
 74
     0
 42
0.000000001
 43
0.00000001
 40
0.3777388485708509
 40
0.3777388485708509
 40
0.3777388485708509
 40
0.3777388485708509
 40
0.390625
 40
0.40625
 40
0.421875
 40
0.4375
 40
0.453125
 40
0.46875
 40
0.484375
 40
0.5
 40
0.515625
 40
0.53125
 40
0.546875
 40
0.5625
 40
0.578125
 40
0.59375
 40
0.609375
 40
0.6239630691070069
 40
0.6239630691070069
 40
0.6239630691070069
 40
0.6239630691070069
 10
-34.35851762135895
 20
-41.55505707481481
 30
0.0
 10
-33.07366406577948
 20
-42.69949230889922
 30
0.0
 10
-30.11423269531585
 20
-44.92759291773412
 30
0.0
 10
-25.44572590662617
 20
-47.40551738067105
 30
0.0
 10
-20.66906620122085
 20
-49.16016077512131
 30
0.0
 10
-16.29001966163752
 20
-50.31340686530019
 30
0.0
 10
-11.98325520822219
 20
-51.11526725722285
 30
0.0
 10
-7.819920866310643
 20
-51.5993282633006
 30
0.0
 10
-3.797453031757722
 20
-51.83886354861453
 30
0.0
 10
0.0202660121900403
 20
-51.89546973022964
 30
0.0
 10
3.811632893968685
 20
-51.8291970544254
 30
0.0
 10
7.766736732365407
 20
-51.58734748379692
 30
0.0
 10
11.82850454010476
 20
-51.11845899660837
 30
0.0
 10
16.01540788720797
 20
-50.35832152012701
 30
0.0
 10
20.23729613637278
 20
-49.2947152510178
 30
0.0
 10
24.92637311343769
 20
-47.67094456551481
 30
0.0
 10
29.76924442697047
 20
-45.23251705206135
 30
0.0
 10
32.93807582345728
 20
-42.90718507832304
 30
0.0
 10
34.39909753137233
 20
-41.59928139731008
 30
0.0
  0
ARC
  5
92
330
1F
100
AcDbEntity
  8
0
  6
Continuous
 62
     7
370
    25
100
AcDbCircle
 10
41.0689540976
 20
-49.0499869603
 30
0.0
 40
9.999999999999952
100
AcDbArc
 50
65.0
 51
131.8348404625
  0
LINE
  5
93
330
1F
100
AcDbEntity
  8
0
  6
Continuous
 62
     7
370
    25
100
AcDbLine
 10
45.295136715
 20
-39.9869090899
 30
0.0
 11
50.64133054
 21
-42.4798802125
 31
0.0
  0
SPLINE
  5
94
330
1F
100
AcDbEntity
  8
0
  6
Continuous
 62
     7
370
    25
100
AcDbSpline
210
0.0
220
0.0
230
1.0
 70
     8
 71
     3
 72
    30
 73
    26
 74
     0
 42
0.000000001
 43
0.00000001
 40
0.0
 40
0.0
 40
0.0
 40
0.0
 40
0.0078125
 40
0.015625
 40
0.03125
 40
0.046875
 40
0.0625
 40
0.09375
 40
0.125
 40
0.15625
 40
0.1875
 40
0.25
 40
0.3125
 40
0.375
 40
0.5
 40
0.625
 40
0.6875
 40
0.75
 40
0.8125
 40
0.875
 40
0.90625
 40
0.9375
 40
0.96875
 40
0.984375
 40
1.0
 40
1.0
 40
1.0
 40
1.0
 10
50.64133054003686
 20
-42.47988021249657
 30
0.0
 10
51.31109463542286
 20
-42.79219633933231
 30
0.0
 10
52.67061417354694
 20
-43.40298750726011
 30
0.0
 10
55.3343801192599
 20
-44.50664116855551
 30
0.0
 10
58.62382043278667
 20
-45.69549845302683
 30
0.0
 10
62.48908525448478
 20
-46.81099834551517
 30
0.0
 10
67.54063605791612
 20
-47.88968640582012
 30
0.0
 10
73.65768071046985
 20
-48.47414308209366
 30
0.0
 10
80.64012943632318
 20
-47.96832167724222
 30
0.0
 10
87.17933436004012
 20
-46.2988235433134
 30
0.0
 10
95.18644689310696
 20
-42.64631680502904
 30
0.0
 10
103.6841918173373
 20
-35.75457758040068
 30
0.0
 10
111.5151810303181
 20
-24.8411711333494
 30
0.0
 10
119.2367934994549
 20
-7.721849437976429
 30
0.0
 10
124.3859603788577
 20
17.15678849321084
 30
0.0
 10
124.2964392921318
 20
43.2895588817067
 30
0.0
 10
121.2548572379835
 20
62.89197304326461
 30
0.0
 10
117.4922545671326
 20
76.44266387018514
 30
0.0
 10
112.1967744815943
 20
88.35925897673341
 30
0.0
 10
106.3488565212996
 20
96.53963636857705
 30
0.0
 10
100.6001203544522
 20
101.6854767159978
 30
0.0
 10
95.7053672015388
 20
104.6868036109854
 30
0.0
 10
91.15331121554607
 20
106.3007093093815
 30
0.0
 10
87.31014925744587
 20
106.9620805855465
 30
0.0
 10
85.32145378656661
 20
107.0738022490107
 30
0.0
 10
84.33315702249692
 20
107.0738022490107
 30
0.0
  0
LINE
  5
95
330
1F
100
AcDbEntity
  8
0
  6
Continuous
 62
     7
370
    25
100
AcDbLine
 10
84.3331570225
 20
107.073802249
 30
0.0
 11
84.3331570225
 21
94.573802249
 31
0.0
  0
SPLINE
  5
96
330
1F
100
AcDbEntity
  8
0
  6
Continuous
 62
     7
370
    25
100
AcDbSpline
210
0.0
220
0.0
230
1.0
 70
     8
 71
     3
 72
    32
 73
    28
 74
     0
 42
0.000000001
 43
0.00000001
 40
0.0
 40
0.0
 40
0.0
 40
0.0
 40
0.015625
 40
0.03125
 40
0.0625
 40
0.09375
 40
0.125
 40
0.1875
 40
0.25
 40
0.3125
 40
0.375
 40
0.4375
 40
0.5
 40
0.5625
 40
0.625
 40
0.6875
 40
0.75
 40
0.8125
 40
0.84375
 40
0.875
 40
0.90625
 40
0.9375
 40
0.953125
 40
0.96875
 40
0.984375
 40
0.9921875
 40
1.0
 40
1.0
 40
1.0
 40
1.0
 10
84.33315702249692
 20
94.5738022490107
 30
0.0
 10
84.85106860651268
 20
94.5738022490107
 30
0.0
 10
85.90155492470528
 20
94.51470771105838
 30
0.0
 10
87.86580704766963
 20
94.1748089795133
 30
0.0
 10
90.23462467850055
 20
93.3446076858257
 30
0.0
 10
93.03778976124022
 20
91.64673815252166
 30
0.0
 10
96.74756910549237
 20
88.36097726199145
 30
0.0
 10
101.1754155456078
 20
82.29499701811069
 30
0.0
 10
105.6468099079241
 20
72.31911316235882
 30
0.0
 10
108.9955135974269
 20
60.31453226428368
 30
0.0
 10
111.0785922917809
 20
46.93256510465468
 30
0.0
 10
111.8112209511077
 20
32.80742389519434
 30
0.0
 10
111.138913491403
 20
18.56038881855889
 30
0.0
 10
109.0298406967272
 20
4.81101230330766
 30
0.0
 10
105.4810994561593
 20
-7.81574291567178
 30
0.0
 10
100.5419117609586
 20
-18.69163396247638
 30
0.0
 10
94.34754047066588
 20
-27.21783179706961
 30
0.0
 10
88.33866922153452
 20
-32.01730779056803
 30
0.0
 10
83.0032145657841
 20
-34.44567855527657
 30
0.0
 10
78.65560567594682
 20
-35.55904040219131
 30
0.0
 10
73.85979616653194
 20
-35.91644298635015
 30
0.0
 10
69.40979625694537
 20
-35.50265869603592
 30
0.0
 10
65.54978036929582
 20
-34.68078097076477
 30
0.0
 10
62.50390745783413
 20
-33.80351310920075
 30
0.0
 10
59.83340776213168
 20
-32.83955081242888
 30
0.0
 10
57.63046615262124
 20
-31.92720283916595
 30
0.0
 10
56.48559598253077
 20
-31.41288195759093
 30
0.0
 10
55.92405881179562
 20
-31.15103287453844
 30
0.0
  0
LINE
  5
97
330
1F
100
AcDbEntity
  8
0
  6
Continuous
 62
     7
370
    25
100
AcDbLine
 10
55.9240588118
 20
-31.1510328745
 30
0.0
 11
51.7354923913
 21
-29.197872276
 31
0.0
  0
ARC
  5
98
330
1F
100
AcDbEntity
  8
0
  6
Continuous
 62
     7
370
    25
100
AcDbCircle
 10
55.9616750087
 20
-20.1347944056
 30
0.0
 40
9.999999999999993
100
AcDbArc
 50
169.2736654623
 51
245.0
  0
SPLINE
  5
99
330
1F
100
AcDbEntity
  8
0
  6
Continuous
 62
     7
370
    25
100
AcDbSpline
210
0.0
220
0.0
230
1.0
 70
     8
 71
     3
 72
    13
 73
     9
 74
     0
 42
0.000000001
 43
0.00000001
 40
0.6857801184463109
 40
0.6857801184463109
 40
0.6857801184463109
 40
0.6857801184463109
 40
0.6875
 40
0.703125
 40
0.71875
 40
0.734375
 40
0.75
 40
0.7565100151952991
 40
0.7565100151952991
 40
0.7565100151952991
 40
0.7565100151952991
 10
46.13640145016629
 20
-18.27361211994487
 30
0.0
 10
46.18135129214362
 20
-18.03631967565004
 30
0.0
 10
46.62231595427631
 20
-15.64382990843526
 30
0.0
 10
47.23097737985091
 20
-11.11366286379685
 30
0.0
 10
47.60951213734641
 20
-4.902527806524563
 30
0.0
 10
47.55194860245189
 20
0.8576737446760722
 30
0.0
 10
47.14080776769425
 20
5.138755239360124
 30
0.0
 10
46.69375034637991
 20
7.579162003174453
 30
0.0
 10
46.54358201748254
 20
8.289321442434224
 30
0.0
  0
ARC
  5
9A
330
1F
100
AcDbEntity
  8
0
  6
Continuous
 62
     7
370
    25
100
AcDbCircle
 10
56.3272399896
 20
10.3581463949
 30
0.0
 40
10.00000000000021
100
AcDbArc
 50
110.0
 51
191.9397207736
  0
LINE
  5
9B
330
1F
100
AcDbEntity
  8
0
  6
Continuous
 62
     7
370
    25
100
AcDbLine
 10
1.3019832057
 20
52.3201621975
 30
0.0
 11
0.5099006995
 21
40.3790960937
 31
0.0
  0
ARC
  5
9C
330
1F
100
AcDbEntity
  8
0
  6
Continuous
 62
     7
370
    25
100
AcDbCircle
 10
5.4989368176
 20
40.0481601289
 30
0.0
 40
5.000000000000001
100
AcDbArc
 50
176.2049789024
 51
252.4936471889
  0
LINE
  5
9D
330
1F
100
AcDbEntity
  8
0
  6
Continuous
 62
     7
370
    25
100
AcDbLine
 10
3.9948791007
 20
35.279742112
 30
0.0
 11
15.4079042629
 21
31.6798378025
 31
0.0
  0
SPLINE
  5
9E
330
1F
100
AcDbEntity
  8
0
  6
Continuous
 62
     7
370
    25
100
AcDbSpline
210
0.0
220
0.0
230
1.0
 70
     8
 71
     3
 72
    11
 73
     7
 74
     0
 42
0.000000001
 43
0.00000001
 40
0.6574875800632413
 40
0.6574875800632413
 40
0.6574875800632413
 40
0.6574875800632413
 40
0.733865383076036
 40
0.8170163240616954
 40
0.8795182264690369
 40
0.8853890215304008
 40
0.8853890215304008
 40
0.8853890215304008
 40
0.8853890215304008
 10
31.23592197494502
 20
-24.93987359683867
 30
0.0
 10
34.32558131512092
 20
-17.80748376964443
 30
0.0
 10
36.46688731833166
 20
4.219602469883995
 30
0.0
 10
31.09249960107222
 20
14.93450679595608
 30
0.0
 10
20.54541837963945
 20
27.25510278688547
 30
0.0
 10
15.81193252081636
 20
31.33685022334402
 30
0.0
 10
15.40790426290561
 20
31.6798378025411
 30
0.0
  0
LINE
  5
9F
330
1F
100
AcDbEntity
  8
0
  6
Continuous
 62
     7
370
    25
100
AcDbLine
 10
31.2359219749
 20
-24.9398735968
 30
0.0
 11
30.625
 21
-26.25
 31
0.0
  0
SPLINE
  5
A0
330
1F
100
AcDbEntity
  8
0
  6
Continuous
 62
     7
370
    25
100
AcDbSpline
210
0.0
220
0.0
230
1.0
 70
     8
 71
     3
 72
    11
 73
     7
 74
     0
 42
0.000000001
 43
0.00000001
 40
0.3491034460595465
 40
0.3491034460595465
 40
0.3491034460595465
 40
0.3491034460595465
 40
0.4294159926801948
 40
0.5
 40
0.571597831517412
 40
0.6526589018991235
 40
0.6526589018991235
 40
0.6526589018991235
 40
0.6526589018991235
 10
-30.62500000000001
 20
-26.24999999999996
 30
0.0
 10
-27.0826738778885
 20
-33.14400075742801
 30
0.0
 10
-15.98015069870663
 20
-38.59485273746344
 30
0.0
 10
0.1397207764012627
 20
-39.75461800912732
 30
0.0
 10
15.89162507587093
 20
-38.533398342952
 30
0.0
 10
27.06593047842961
 20
-33.33323380642275
 30
0.0
 10
30.62499999999992
 20
-26.25000000000016
 30
0.0
  0
LINE
  5
A1
330
1F
100
AcDbEntity
  8
0
  6
Continuous
 62
     7
370
    25
100
AcDbLine
 10
-30.625
 20
-26.25
 30
0.0
 11
-31.426166311
 21
-24.5318933017
 31
0.0
  0
SPLINE
  5
A2
330
1F
100
AcDbEntity
  8
0
  6
Continuous
 62
     7
370
    25
100
AcDbSpline
210
0.0
220
0.0
230
1.0
 70
     8
 71
     3
 72
     9
 73
     5
 74
     0
 42
0.000000001
 43
0.00000001
 40
0.1829836747622786
 40
0.1829836747622786
 40
0.1829836747622786
 40
0.1829836747622786
 40
0.2661346169239639
 40
0.3427122307019889
 40
0.3427122307019889
 40
0.3427122307019889
 40
0.3427122307019889
 10
-28.4375
 20
17.5
 30
0.0
 10
-32.60388788006568
 20
11.86849114761053
 30
0.0
 10
-36.402000540164
 20
3.97940204958828
 30
0.0
 10
-34.44991032162727
 20
-17.3958203994106
 30
0.0
 10
-31.42616631095239
 20
-24.53189330168344
 30
0.0
  0
LINE
  5
A3
330
1F
100
AcDbEntity
  8
0
  6
Continuous
 62
     7
370
    25
100
AcDbLine
 10
-27.9729536222
 20
18.1221322336
 30
0.0
 11
-28.4374998222
 21
17.5000002382
 31
0.0
  0
SPLINE
  5
A4
330
1F
100
AcDbEntity
  8
0
  6
Continuous
 62
     7
370
    25
100
AcDbSpline
210
0.0
220
0.0
230
1.0
 70
     8
 71
     3
 72
     9
 73
     5
 74
     0
 42
0.000000001
 43
0.00000001
 40
0.1144845064220477
 40
0.1144845064220477
 40
0.1144845064220477
 40
0.1144845064220477
 40
0.120481773530963
 40
0.1799504275934761
 40
0.1799504275934761
 40
0.1799504275934761
 40
0.1799504275934761
 10
-15.3874964981493
 20
31.68627483823445
 30
0.0
 10
-15.79799518745096
 20
31.34182953003856
 30
0.0
 10
-20.30893045391978
 20
27.49456165780695
 30
0.0
 10
-24.88186833311622
 20
22.22444295593628
 30
0.0
 10
-27.97295362288431
 20
18.12213223411023
 30
0.0
  0
LINE
  5
A5
330
1F
100
AcDbEntity
  8
0
  6
Continuous
 62
     7
370
    25
100
AcDbLine
 10
-15.3874964952
 20
31.6862748348
 30
0.0
 11
-3.9948791007
 21
35.279742112
 31
0.0
  0
ARC
  5
A6
330
1F
100
AcDbEntity
  8
0
  6
Continuous
 62
     7
370
    25
100
AcDbCircle
 10
-5.4989368176
 20
40.0481601289
 30
0.0
 40
5.000000000000001
100
AcDbArc
 50
287.5063528111
 51
3.7950210976
  0
LINE
  5
A7
330
1F
100
AcDbEntity
  8
0
  6
Continuous
 62
     7
370
    25
100
AcDbLine
 10
-0.5099006995
 20
40.3790960937
 30
0.0
 11
-1.3019832057
 21
52.3201621975
 31
0.0
  0
LINE
  5
A8
330
1F
100
AcDbEntity
  8
0
  6
Continuous
 62
     7
370
    25
100
AcDbLine
 10
-1.3019832057
 20
52.3201621975
 30
0.0
 11
-1.4281072462
 21
52.3561237633
 31
0.0
  0
SPLINE
  5
A9
330
1F
100
AcDbEntity
  8
0
  6
Continuous
 62
     7
370
    25
100
AcDbSpline
210
0.0
220
0.0
230
1.0
 70
     8
 71
     3
 72
    11
 73
     7
 74
     0
 42
0.000000001
 43
0.00000001
 40
0.9923389268790966
 40
0.9923389268790966
 40
0.9923389268790966
 40
0.9923389268790966
 40
1.0
 40
1.0
 40
1.0
 40
1.00854637171794
 40
1.00854637171794
 40
1.00854637171794
 40
1.00854637171794
 10
1.301983205686974
 20
52.32016219745784
 30
0.0
 10
0.873552674556905
 20
52.43138188432199
 30
0.0
 10
0.4349413659436948
 20
52.48828562697363
 30
0.0
 10
-0.000000000000008
 20
52.49999999999999
 30
0.0
 10
-0.4852023378710644
 20
52.51306806301753
 30
0.0
 10
-0.9658375431370633
 20
52.46989932290123
 30
0.0
 10
-1.42810724732444
 20
52.35612376794335
 30
0.0
  0
MTEXT
  5
AB
330
1F
100
AcDbEntity
  8
0
  6
Continuous
 62
     7
100
AcDbMText
 10
-124.0775319783
 20
-52.8941094365
 30
0.0
 40
4.83362
 41
0.0
 71
     1
 72
     1
  1
SOLIDWORKS Educational Product.
  7
SLDTEXTSTYLE0
 73
     1
 44
1.0
  0
MTEXT
  5
AC
330
1F
100
AcDbEntity
  8
0
  6
Continuous
 62
     7
100
AcDbMText
 10
-124.0775319783
 20
-60.1445394365
 30
0.0
 40
4.83362
 41
0.0
 71
     1
 72
     1
  1
For Instructional Use Only.
  7
SLDTEXTSTYLE0
 73
     1
 44
1.0
  0
ENDSEC
  0
SECTION
  2
OBJECTS
  0
DICTIONARY
  5
C
330
0
100
AcDbDictionary
281
     1
  3
ACAD_GROUP
350
D
  3
ACAD_LAYOUT
350
1A
  3
ACAD_MLINESTYLE
350
17
  3
ACAD_PLOTSETTINGS
350
19
  3
ACAD_PLOTSTYLENAME
350
E
  3
ACAD_SCALELIST
350
47
  0
DICTIONARY
  5
D
102
{ACAD_REACTORS
330
C
102
}
330
C
100
AcDbDictionary
281
     1
  0
DICTIONARY
  5
1A
102
{ACAD_REACTORS
330
C
102
}
330
C
100
AcDbDictionary
281
     1
  3
Layout1
350
1E
  3
Layout2
350
26
  3
Model
350
22
  0
DICTIONARY
  5
17
102
{ACAD_REACTORS
330
C
102
}
330
C
100
AcDbDictionary
281
     1
  3
Standard
350
18
  0
DICTIONARY
  5
19
102
{ACAD_REACTORS
330
C
102
}
330
C
100
AcDbDictionary
281
     1
  0
ACDBDICTIONARYWDFLT
  5
E
102
{ACAD_REACTORS
330
C
102
}
330
C
100
AcDbDictionary
281
     1
  3
Normal
350
F
100
AcDbDictionaryWithDefault
340
F
  0
DICTIONARY
  5
47
102
{ACAD_REACTORS
330
C
102
}
330
C
100
AcDbDictionary
281
     1
  3
A0
350
48
  3
A1
350
49
  3
A2
350
4A
  3
A3
350
4B
  3
A4
350
4C
  3
A5
350
4D
  3
A6
350
4E
  3
A7
350
4F
  3
A8
350
50
  3
A9
350
51
  3
B0
350
52
  3
B1
350
53
  3
B2
350
54
  3
B3
350
55
  3
B4
350
56
  3
B5
350
57
  3
B6
350
58
  3
B7
350
59
  3
B8
350
5A
  3
B9
350
5B
  3
C0
350
5C
  3
C1
350
5D
  3
C2
350
5E
  3
C3
350
5F
  3
C4
350
60
  3
C5
350
61
  3
C6
350
62
  3
C7
350
63
  3
C8
350
64
  3
C9
350
65
  3
D0
350
66
  3
D1
350
67
  3
D2
350
68
  0
LAYOUT
  5
1E
102
{ACAD_REACTORS
330
1A
102
}
330
1A
100
AcDbPlotSettings
  1

  2
none_device
  4

  6

 40
0.0
 41
0.0
 42
0.0
 43
0.0
 44
0.0
 45
0.0
 46
0.0
 47
0.0
 48
0.0
 49
0.0
140
0.0
141
0.0
142
1.0
143
1.0
 70
   688
 72
     1
 73
     0
 74
     5
  7

 75
    16
147
1.0
148
0.0
149
0.0
100
AcDbLayout
  1
Layout1
 70
     1
 71
     1
 10
0.0
 20
0.0
 11
420.0
 21
297.0
 12
0.0
 22
0.0
 32
0.0
 14
1.0000000000E+20
 24
1.0000000000E+20
 34
1.0000000000E+20
 15
-1.0000000000E+20
 25
-1.0000000000E+20
 35
-1.0000000000E+20
146
0.0
 13
0.0
 23
0.0
 33
0.0
 16
1.0
 26
0.0
 36
0.0
 17
0.0
 27
1.0
 37
0.0
 76
     0
330
1B
  0
LAYOUT
  5
26
102
{ACAD_REACTORS
330
1A
102
}
330
1A
100
AcDbPlotSettings
  1

  2
none_device
  4

  6

 40
0.0
 41
0.0
 42
0.0
 43
0.0
 44
0.0
 45
0.0
 46
0.0
 47
0.0
 48
0.0
 49
0.0
140
0.0
141
0.0
142
1.0
143
1.0
 70
   688
 72
     1
 73
     0
 74
     5
  7

 75
    16
147
1.0
148
0.0
149
0.0
100
AcDbLayout
  1
Layout2
 70
     1
 71
     2
 10
0.0
 20
0.0
 11
0.0
 21
0.0
 12
0.0
 22
0.0
 32
0.0
 14
0.0
 24
0.0
 34
0.0
 15
0.0
 25
0.0
 35
0.0
146
0.0
 13
0.0
 23
0.0
 33
0.0
 16
1.0
 26
0.0
 36
0.0
 17
0.0
 27
1.0
 37
0.0
 76
     0
330
23
  0
LAYOUT
  5
22
102
{ACAD_REACTORS
330
1A
102
}
330
1A
100
AcDbPlotSettings
  1

  2
none_device
  4
ANSI_A_(11.00_x_8.50_Inches)
  6

 40
6.35
 41
19.05
 42
6.35000508
 43
19.05000254
 44
279.4
 45
215.9
 46
133.34999746
 47
57.2018895
 48
0.0
 49
0.0
140
0.0
141
0.0
142
0.0438838516
143
1.0
 70
  1696
 72
     0
 73
     0
 74
     0
  7

 75
     0
147
0.0179189148
148
-1300.4909072572
149
0.0
100
AcDbLayout
  1
Model
 70
     1
 71
     0
 10
0.0
 20
0.0
 11
420.0
 21
297.0
 12
0.0
 22
0.0
 32
0.0
 14
-124.0775319783
 24
-51.8745430448
 34
0.0
 15
124.0775319783
 25
108.75
 35
0.0
146
0.0
 13
0.0
 23
0.0
 33
0.0
 16
1.0
 26
0.0
 36
0.0
 17
0.0
 27
1.0
 37
0.0
 76
     0
330
1F
331
29
  0
MLINESTYLE
  5
18
102
{ACAD_REACTORS
330
17
102
}
330
17
100
AcDbMlineStyle
  2
Standard
 70
     0
  3

 62
   256
 51
90.0
 52
90.0
 71
     2
 49
0.5
 62
   256
  6
BYLAYER
 49
-0.5
 62
   256
  6
BYLAYER
  0
ACDBPLACEHOLDER
  5
F
102
{ACAD_REACTORS
330
E
102
}
330
E
  0
SCALE
  5
48
102
{ACAD_REACTORS
330
47
102
}
330
47
100
AcDbScale
 70
     0
300
1:1
140
1.0
141
1.0
290
     1
  0
SCALE
  5
49
102
{ACAD_REACTORS
330
47
102
}
330
47
100
AcDbScale
 70
     0
300
1:2
140
1.0
141
2.0
290
     0
  0
SCALE
  5
4A
102
{ACAD_REACTORS
330
47
102
}
330
47
100
AcDbScale
 70
     0
300
1:4
140
1.0
141
4.0
290
     0
  0
SCALE
  5
4B
102
{ACAD_REACTORS
330
47
102
}
330
47
100
AcDbScale
 70
     0
300
1:5
140
1.0
141
5.0
290
     0
  0
SCALE
  5
4C
102
{ACAD_REACTORS
330
47
102
}
330
47
100
AcDbScale
 70
     0
300
1:8
140
1.0
141
8.0
290
     0
  0
SCALE
  5
4D
102
{ACAD_REACTORS
330
47
102
}
330
47
100
AcDbScale
 70
     0
300
1:10
140
1.0
141
10.0
290
     0
  0
SCALE
  5
4E
102
{ACAD_REACTORS
330
47
102
}
330
47
100
AcDbScale
 70
     0
300
1:16
140
1.0
141
16.0
290
     0
  0
SCALE
  5
4F
102
{ACAD_REACTORS
330
47
102
}
330
47
100
AcDbScale
 70
     0
300
1:20
140
1.0
141
20.0
290
     0
  0
SCALE
  5
50
102
{ACAD_REACTORS
330
47
102
}
330
47
100
AcDbScale
 70
     0
300
1:30
140
1.0
141
30.0
290
     0
  0
SCALE
  5
51
102
{ACAD_REACTORS
330
47
102
}
330
47
100
AcDbScale
 70
     0
300
1:40
140
1.0
141
40.0
290
     0
  0
SCALE
  5
52
102
{ACAD_REACTORS
330
47
102
}
330
47
100
AcDbScale
 70
     0
300
1:50
140
1.0
141
50.0
290
     0
  0
SCALE
  5
53
102
{ACAD_REACTORS
330
47
102
}
330
47
100
AcDbScale
 70
     0
300
1:100
140
1.0
141
100.0
290
     0
  0
SCALE
  5
54
102
{ACAD_REACTORS
330
47
102
}
330
47
100
AcDbScale
 70
     0
300
2:1
140
2.0
141
1.0
290
     0
  0
SCALE
  5
55
102
{ACAD_REACTORS
330
47
102
}
330
47
100
AcDbScale
 70
     0
300
4:1
140
4.0
141
1.0
290
     0
  0
SCALE
  5
56
102
{ACAD_REACTORS
330
47
102
}
330
47
100
AcDbScale
 70
     0
300
8:1
140
8.0
141
1.0
290
     0
  0
SCALE
  5
57
102
{ACAD_REACTORS
330
47
102
}
330
47
100
AcDbScale
 70
     0
300
10:1
140
10.0
141
1.0
290
     0
  0
SCALE
  5
58
102
{ACAD_REACTORS
330
47
102
}
330
47
100
AcDbScale
 70
     0
300
100:1
140
100.0
141
1.0
290
     0
  0
SCALE
  5
59
102
{ACAD_REACTORS
330
47
102
}
330
47
100
AcDbScale
 70
     0
300
1/128" = 1'-0"
140
0.0078125
141
12.0
290
     0
  0
SCALE
  5
5A
102
{ACAD_REACTORS
330
47
102
}
330
47
100
AcDbScale
 70
     0
300
1/64" = 1'-0"
140
0.015625
141
12.0
290
     0
  0
SCALE
  5
5B
102
{ACAD_REACTORS
330
47
102
}
330
47
100
AcDbScale
 70
     0
300
1/32" = 1'-0"
140
0.03125
141
12.0
290
     0
  0
SCALE
  5
5C
102
{ACAD_REACTORS
330
47
102
}
330
47
100
AcDbScale
 70
     0
300
1/16" = 1'-0"
140
0.0625
141
12.0
290
     0
  0
SCALE
  5
5D
102
{ACAD_REACTORS
330
47
102
}
330
47
100
AcDbScale
 70
     0
300
3/32" = 1'-0"
140
0.09375
141
12.0
290
     0
  0
SCALE
  5
5E
102
{ACAD_REACTORS
330
47
102
}
330
47
100
AcDbScale
 70
     0
300
1/8" = 1'-0"
140
0.125
141
12.0
290
     0
  0
SCALE
  5
5F
102
{ACAD_REACTORS
330
47
102
}
330
47
100
AcDbScale
 70
     0
300
3/16" = 1'-0"
140
0.1875
141
12.0
290
     0
  0
SCALE
  5
60
102
{ACAD_REACTORS
330
47
102
}
330
47
100
AcDbScale
 70
     0
300
1/4" = 1'-0"
140
0.25
141
12.0
290
     0
  0
SCALE
  5
61
102
{ACAD_REACTORS
330
47
102
}
330
47
100
AcDbScale
 70
     0
300
3/8" = 1'-0"
140
0.375
141
12.0
290
     0
  0
SCALE
  5
62
102
{ACAD_REACTORS
330
47
102
}
330
47
100
AcDbScale
 70
     0
300
1/2" = 1'-0"
140
0.5
141
12.0
290
     0
  0
SCALE
  5
63
102
{ACAD_REACTORS
330
47
102
}
330
47
100
AcDbScale
 70
     0
300
3/4" = 1'-0"
140
0.75
141
12.0
290
     0
  0
SCALE
  5
64
102
{ACAD_REACTORS
330
47
102
}
330
47
100
AcDbScale
 70
     0
300
1" = 1'-0"
140
1.0
141
12.0
290
     0
  0
SCALE
  5
65
102
{ACAD_REACTORS
330
47
102
}
330
47
100
AcDbScale
 70
     0
300
1-1/2" = 1'-0"
140
1.5
141
12.0
290
     0
  0
SCALE
  5
66
102
{ACAD_REACTORS
330
47
102
}
330
47
100
AcDbScale
 70
     0
300
3" = 1'-0"
140
3.0
141
12.0
290
     0
  0
SCALE
  5
67
102
{ACAD_REACTORS
330
47
102
}
330
47
100
AcDbScale
 70
     0
300
6" = 1'-0"
140
6.0
141
12.0
290
     0
  0
SCALE
  5
68
102
{ACAD_REACTORS
330
47
102
}
330
47
100
AcDbScale
 70
     0
300
1'-0" = 1'-0"
140
12.0
141
12.0
290
     0
  0
ENDSEC
  0
EOF
